<?xml version="1.0" encoding="UTF-8"?>
<svg version="1.1" viewBox="0 0 100 2400" xml:space="preserve" xmlns="http://www.w3.org/2000/svg"><g stroke-linecap="round" stroke-linejoin="round"><path d="m0 50v50h100v-50zm0 100v50h100v-50zm0 100v50h100v-50zm0 100v50h100v-50zm0 100v50h100v-50zm0 100v50h100v-50zm0 100v50h100v-50zm0 100v50h100v-50zm0 100v50h100v-50zm0 100v50h100v-50zm0 100v50h100v-50zm0 100v50h100v-50zm0 100v50h100v-50zm0 100v50h100v-50zm0 100v50h100v-50zm0 100v50h100v-50zm0 100v50h100v-50zm0 100v50h100v-50zm0 100v50h100v-50zm0 100v50h100v-50zm0 100v50h100v-50zm0 100v50h100v-50z" fill="#fff" fill-opacity=".5"/><rect y="2200" width="100" height="200" fill="#999" fill-opacity=".5"/><g fill="#ccc" stroke="#000"><g stroke-width="5"><path d="m0 2200h100"/><path d="m0 200h100"/><path d="m0 1200h100"/><path d="m0 700h100"/><path d="m0 1700h100"/></g><g stroke-width="2"><path d="m0 2100h100"/><path d="m0 2e3h100"/><path d="m0 1900h100"/><path d="m0 1800h100"/><path d="m0 1600h100"/><path d="m0 1500h100"/><path d="m0 1400h100"/><path d="m0 1300h100"/><path d="m0 1100h100"/><path d="m0 1e3h100"/><path d="m0 900h100"/><path d="m0 800h100"/><path d="m0 600h100"/><path d="m0 500h100"/><path d="m0 400h100"/><path d="m0 300h100"/></g></g></g></svg>
