<?xml version="1.0" encoding="UTF-8"?>
<svg version="1.1" viewBox="0 0 80 2400" xml:space="preserve" xmlns="http://www.w3.org/2000/svg"><path d="m40.078 139.35c-3.2986 0-5.9108 1.5705-7.8379 4.7129-2.1875 3.5764-3.2812 8.8027-3.2812 15.678 0 6.1632 0.88542 11.015 2.6562 14.557 1.9444 3.8715 4.7309 5.8066 8.3594 5.8066 3.9062 0 6.8229-2.1615 8.75-6.4844 1.5451-3.4896 2.3164-8.115 2.3164-13.879 0-6.3715-0.9375-11.337-2.8125-14.896-1.9444-3.6632-4.6608-5.4941-8.1504-5.4941zm26.666 0c-3.2986 0-5.9108 1.5705-7.8379 4.7129-2.1875 3.5764-3.2812 8.8027-3.2812 15.678 0 6.1632 0.88542 11.015 2.6562 14.557 1.9444 3.8715 4.7309 5.8066 8.3594 5.8066 3.9062 0 6.8229-2.1615 8.75-6.4844 1.5451-3.4896 2.3184-8.115 2.3184-13.879 0-6.3715-0.9375-11.337-2.8125-14.896-1.9444-3.6632-4.6628-5.4941-8.1523-5.4941zm-53.488 0.02539c-2.1528 0-4.1239 0.52887-5.9121 1.5879-1.441 0.8507-2.5868 1.9444-3.4375 3.2812-0.59028 0.90278-0.88477 1.7461-0.88477 2.5273 0 0.78126 0.32053 1.4063 0.96289 1.875 0.64236 0.46876 1.3194 0.70313 2.0312 0.70313 0.95486 0 1.702-0.44271 2.2402-1.3281 1.2326-1.9965 2.8553-2.9961 4.8691-2.9961 1.6667 0 2.9427 0.66102 3.8281 1.9805 0.53819 0.81597 0.80664 1.7795 0.80664 2.8906 0 1.5278-0.59896 3.2285-1.7969 5.1035-0.81597 1.2847-2.3164 3.2378-4.5039 5.8594-5.9028 7.1528-8.8555 11.91-8.8555 14.271 0 0.86805 0.22635 1.6754 0.67773 2.4219 0.625 1.0938 1.8229 1.6406 3.5938 1.6406h15.053c0.45139 0 0.84201-0.08811 1.1719-0.26172 0.95486-0.48611 1.4316-1.4056 1.4316-2.7598 0-1.1111-0.33854-1.9444-1.0156-2.5-0.43403-0.36459-0.96289-0.54688-1.5879-0.54688h-12.812c1.5104-2.5868 3.6979-5.5996 6.5625-9.0371 2.7431-3.2812 4.6081-5.7292 5.5977-7.3438 1.4931-2.4132 2.2402-4.7129 2.2402-6.9004 0-3.1944-0.99762-5.7726-2.9941-7.7344-1.875-1.8229-4.2969-2.7344-7.2656-2.7344zm26.719 5.9375c3.1424 0 4.7129 4.7997 4.7129 14.4 0 9.4965-1.5625 14.246-4.6875 14.246-3.0903 0-4.6348-4.7656-4.6348-14.297 0-9.566 1.5365-14.35 4.6094-14.35zm26.666 0c3.1424 0 4.7129 4.7997 4.7129 14.4 0 9.4965-1.5625 14.246-4.6875 14.246-3.0903 0-4.6348-4.7656-4.6348-14.297 0-9.566 1.5365-14.35 4.6094-14.35zm0.10352 494.04c-3.2986 0-5.9108 1.5705-7.8379 4.7129-2.1875 3.5764-3.2812 8.8027-3.2812 15.678 0 6.1632 0.88542 11.015 2.6562 14.557 1.9444 3.8715 4.7309 5.8066 8.3594 5.8066 3.9062 0 6.8229-2.1615 8.75-6.4844 1.5451-3.4896 2.3184-8.115 2.3184-13.879 0-6.3715-0.9375-11.337-2.8125-14.896-1.9444-3.6632-4.6628-5.4941-8.1523-5.4941zm-53.41 0.33789c-0.65972 0-1.2687 0.15625-1.8242 0.46875-0.85069 0.46875-1.2754 1.1979-1.2754 2.1875v34.766c0 0.4861 0.10417 0.9108 0.3125 1.2754 0.52083 0.93749 1.4503 1.4062 2.7871 1.4062 1.0069 0 1.8142-0.28646 2.4219-0.85938 0.48611-0.46875 0.72852-1.0757 0.72852-1.8223v-34.766c0-0.67708-0.20833-1.242-0.625-1.6934-0.60764-0.64237-1.449-0.96289-2.5254-0.96289zm21.822 0.57227c-1.4062 0-2.474 0.22634-3.2031 0.67773-1.0069 0.625-1.5358 1.7888-1.5879 3.4902l-0.39062 15.025v0.20899c0 1.0937 0.38064 1.865 1.1445 2.3164 0.50347 0.3125 1.0684 0.46875 1.6934 0.46875 0.95486 0 1.8062-0.45074 2.5527-1.3535 1.1979-1.4062 2.6563-2.1094 4.375-2.1094 1.8403-1e-5 3.2205 0.91146 4.1406 2.7344 0.625 1.2153 0.9375 2.7077 0.9375 4.4785 0 2.3264-0.46875 4.2274-1.4062 5.7031-1.0069 1.5972-2.3791 2.3965-4.1152 2.3965-1.8576 0-3.4902-0.86741-4.8965-2.6035-0.53819-0.69444-1.2053-1.043-2.0039-1.043-0.79861 0-1.4937 0.28646-2.084 0.85938-0.53819 0.52083-0.80664 1.1558-0.80664 1.9023 0 1.1285 0.60699 2.3004 1.8223 3.5156 2.1528 2.1181 4.809 3.1758 7.9688 3.1758 4.0972 0 7.2042-1.6567 9.3223-4.9727 1.5104-2.3437 2.2656-5.2865 2.2656-8.8281 0-3.6285-0.84137-6.5812-2.5254-8.8555-1.8403-2.5-4.2281-3.75-7.1621-3.75-2.2049 0-4.0959 0.60894-5.6758 1.8242l0.20703-8.2812c0.034722-0.74652 0.45139-1.1211 1.25-1.1211h10.34c0.45139 0 0.84202-0.10417 1.1719-0.3125 0.85069-0.55555 1.2754-1.423 1.2754-2.6035 0-0.98958-0.30447-1.7789-0.91211-2.3691-0.41667-0.38194-0.92752-0.57421-1.5352-0.57421h-12.162zm31.484 5.0527c3.1424 0 4.7129 4.7997 4.7129 14.4 0 9.4965-1.5625 14.246-4.6875 14.246-3.0903 0-4.6348-4.7656-4.6348-14.297 0-9.566 1.5365-14.35 4.6094-14.35zm-26.562 494.04c-3.2986 0-5.9108 1.5706-7.8379 4.7129-2.1875 3.5764-3.2812 8.8027-3.2812 15.678 0 6.1632 0.88542 11.015 2.6562 14.557 1.9444 3.8715 4.7309 5.8066 8.3594 5.8066 3.9062 0 6.8229-2.1614 8.75-6.4844 1.5451-3.4896 2.3164-8.115 2.3164-13.879 0-6.3715-0.9375-11.338-2.8125-14.896-1.9444-3.6632-4.6608-5.4942-8.1504-5.4942zm26.666 0c-3.2986 0-5.9108 1.5706-7.8379 4.7129-2.1875 3.5764-3.2812 8.8027-3.2812 15.678 0 6.1632 0.88542 11.015 2.6562 14.557 1.9444 3.8715 4.7309 5.8066 8.3594 5.8066 3.9062 0 6.8229-2.1614 8.75-6.4844 1.5451-3.4896 2.3184-8.115 2.3184-13.879 0-6.3715-0.9375-11.338-2.8125-14.896-1.9444-3.6632-4.6628-5.4942-8.1523-5.4942zm-53.41 0.3379c-0.65972 0-1.2687 0.1562-1.8242 0.4687-0.85069 0.4688-1.2754 1.198-1.2754 2.1876v34.766c0 0.486 0.10417 0.9108 0.3125 1.2754 0.52083 0.9375 1.4503 1.4062 2.7871 1.4062 1.0069 0 1.8142-0.2864 2.4219-0.8594 0.48611-0.4687 0.72852-1.0757 0.72852-1.8222v-34.766c0-0.6772-0.20833-1.2421-0.625-1.6934-0.60764-0.6424-1.449-0.9629-2.5254-0.9629zm26.641 5.625c3.1424 0 4.7129 4.7997 4.7129 14.4 0 9.4964-1.5625 14.246-4.6875 14.246-3.0903 0-4.6348-4.7657-4.6348-14.297 0-9.566 1.5365-14.35 4.6094-14.35zm26.666 0c3.1424 0 4.7129 4.7997 4.7129 14.4 0 9.4964-1.5625 14.246-4.6875 14.246-3.0903 0-4.6348-4.7657-4.6348-14.297 0-9.566 1.5365-14.35 4.6094-14.35zm-26.562 494.04c-3.2986 0-5.9108 1.5706-7.8379 4.7129-2.1875 3.5764-3.2812 8.8027-3.2812 15.678 0 6.1632 0.88542 11.015 2.6562 14.557 1.9444 3.8715 4.7309 5.8066 8.3594 5.8066 3.9062 0 6.8229-2.1614 8.75-6.4844 1.5451-3.4896 2.3164-8.115 2.3164-13.879 0-6.3715-0.9375-11.338-2.8125-14.896-1.9444-3.6632-4.6608-5.4942-8.1504-5.4942zm-31.588 0.9102c-1.4062 0-2.474 0.2263-3.2031 0.6777-1.0069 0.625-1.5378 1.7888-1.5898 3.4902l-0.39062 15.025v0.209c0 1.0937 0.3826 1.865 1.1465 2.3164 0.50347 0.3125 1.0684 0.4688 1.6934 0.4688 0.95486 0 1.8043-0.4508 2.5508-1.3535 1.1979-1.4063 2.6563-2.1094 4.375-2.1094 1.8403 0 3.2205 0.9114 4.1406 2.7344 0.625 1.2152 0.9375 2.7077 0.9375 4.4785 0 2.3264-0.46875 4.2274-1.4062 5.7031-1.0069 1.5973-2.3772 2.3965-4.1133 2.3965-1.8576 0-3.4902-0.8674-4.8965-2.6035-0.53819-0.6945-1.2072-1.043-2.0059-1.043s-1.4918 0.2864-2.082 0.8594c-0.53819 0.5208-0.80859 1.1558-0.80859 1.9023 0 1.1285 0.60894 2.3004 1.8242 3.5156 2.1528 2.1181 4.809 3.1758 7.9687 3.1758 4.0972 0 7.2042-1.6566 9.3223-4.9726 1.5104-2.3438 2.2656-5.2865 2.2656-8.8282 0-3.6284-0.84136-6.5811-2.5254-8.8554-1.8403-2.5-4.2281-3.75-7.1621-3.75-2.2049 0-4.0979 0.6089-5.6777 1.8242l0.20898-8.2813c0.034722-0.7465 0.45139-1.1211 1.25-1.1211h10.338c0.45139 0 0.84201-0.1041 1.1719-0.3125 0.85069-0.5555 1.2773-1.4229 1.2773-2.6035 0-0.9895-0.30447-1.7788-0.91211-2.3691-0.41667-0.382-0.92947-0.5742-1.5371-0.5742h-12.16zm31.484 5.0527c3.1424 0 4.7129 4.7997 4.7129 14.4 0 9.4964-1.5625 14.246-4.6875 14.246-3.0903 0-4.6348-4.7657-4.6348-14.297 0-9.566 1.5365-14.35 4.6094-14.35z"/></svg>
