<?xml version="1.0" encoding="UTF-8"?>
<svg version="1.1" viewBox="0 0 100 100" xmlns="http://www.w3.org/2000/svg">
 <rect width="100" height="100" ry="5" fill="#14273bcc"/>
 <path d="m70.732 0.0078125a5.0005 5.0005 0 0 0-4.1699 1.9043c-4.3307 5.5171-8.6549 11.568-12.924 17.846-5.3135-2.2288-10.71-3.5798-15.824-3.7422a5.0005 5.0005 0 0 0-0.013672 0c-4.8094-0.13907-9.2981 0.79336-12.85 3.1309-1.4312-0.56064-2.833-1.1198-4.3379-1.6836a5.0005 5.0005 0 0 0-4.9316 8.541c1.0481 0.86283 2.0457 1.6477 3.0645 2.4648-0.76629 4.4025 0.49821 9.0725 2.8477 13.275 2.4865 4.448 6.2999 8.6733 11.078 12.447-7.2268 13.167-13.778 26.487-18.779 38.945a5.0005 5.0005 0 0 0 8.5742 4.9512c8.275-10.542 16.52-22.854 24.299-35.672 5.7585 2.3565 11.438 3.618 16.637 3.5762 4.9133-0.03954 9.6927-1.2965 13.168-4.2363 1.0461 0.4052 2.0548 0.80927 3.1426 1.2168a5.0005 5.0005 0 0 0 4.9316-8.541c-1.0988-0.90454-2.1461-1.7317-3.2109-2.584 0.29042-4.5076-1.3204-9.0527-3.9746-13.209-2.6977-4.2244-6.5677-8.2095-11.281-11.734 3.289-6.8107 6.3555-13.555 8.959-20.041a5.0005 5.0005 0 0 0-4.4043-6.8555z" fill="#fff"/>
 <path d="m70.496 5c-7.1904 9.1603-14.457 19.668-21.371 30.75-8.9891-4.9712-18.585-9.2296-30.266-13.605 9.5749 7.8824 18.02 14.039 26.766 19.318-10.665 17.711-20.268 36.536-27.092 53.537 11.312-14.411 22.814-32.139 32.82-50.23 8.9451 4.9349 18.499 9.1704 30.113 13.521-9.6294-7.9273-18.117-14.109-26.916-19.408 6.1402-11.528 11.608-23.076 15.945-33.883zm-32.84 16.014a29.25 15.75 30 0 0-9.5742 2.0605c3.2644 1.3391 6.369 2.6944 9.3633 4.0781a20.785 11.192 30 0 1 3.7832-0.35352 20.785 11.192 30 0 1 9.3574 2.1152c0.85058-1.3188 1.695-2.6529 2.5527-3.9512a29.25 15.75 30 0 0-15.482-3.9492zm-13.961 8.2051a29.25 15.75 30 0 0 13.371 22.068c0.76739-1.3617 1.5379-2.7194 2.3203-4.0742a20.785 11.192 30 0 1-8.1367-12.359c-2.48-1.7753-4.9862-3.6387-7.5547-5.6348zm38.225 0.72461c-0.69738 1.3962-1.4335 2.799-2.1523 4.1992a20.785 11.192 30 0 1 8.5293 10.883c2.6976 1.9139 5.4243 3.9325 8.2227 6.1055a29.25 15.75 30 0 0-14.6-21.188zm-12.463 23.16c-0.78558 1.3606-1.5798 2.7116-2.3789 4.0625a29.25 15.75 30 0 0 26.398 0.69531c-3.0313-1.2264-5.9256-2.464-8.7168-3.7227a20.785 11.192 30 0 1-15.303-1.0352z" fill="#56a0fb"/>
</svg>
