<?xml version="1.0" encoding="UTF-8"?>
<svg version="1.1" viewBox="0 0 1000 2400" xml:space="preserve" xmlns="http://www.w3.org/2000/svg"><path d="m514.74 2293.1c-12.852-2.5387-17.317-5.3576-24.761-15.634-5.6558-7.8076-6.4891-10.836-6.4891-23.584 0-8.0441 1.4649-19.454 3.2552-25.356 1.7904-5.9017 3.2679-10.73 3.2834-10.73 0.015 0-6.5029 0.3359-14.485 0.7464-27.889 1.434-40.895-6.3183-52.593-31.348-6.01-12.86-6.1186-13.797-5.5745-48.089 0.3052-19.236-0.2118-37.754-1.1488-41.152-1.3358-4.844-4.2527-7.2044-13.506-10.929-13.63-5.4869-16.182-9.4539-7.368-11.454 9.8009-2.2239 18.193-6.197 18.135-8.5855-0.029-1.2094-1.0749-6.6252-2.3232-12.035-2.9245-12.674-1.0461-22.239 6.0149-30.631l5.6502-6.7148-9.3618-36.52c-13.563-52.911-14.08-73.202-3.2085-126.14l8.0797-39.346-1.3803-53.554c-0.7591-29.455-2.3038-62.898-3.4326-74.32-1.1288-11.421-2.079-40.112-2.1116-63.757l-0.059-42.991-50.871 2.5055 0.9809-6.6834c0.9302-6.3374 0.5253-6.7562-7.8243-8.0913-9.292-1.4858-23.149-13.646-29.595-25.972-2.9314-5.6049-2.6654-7.0199 3.7736-20.077 8.5318-17.302 17.76-27.711 43.098-48.615 22.964-18.946 26.968-23.685 33.691-39.879 6.6616-16.045 22.203-43.234 36.326-63.548l11.506-16.551-14.072-6.1307c-7.7398-3.3718-14.364-5.76-14.721-5.3074-1.0385 1.3188-14.93 26.129-20.014 35.744-5.6513 10.689-16.193 15.264-40.367 17.52-10.371 0.9677-17.87 2.8586-20.41 5.1466-2.209 1.9893-8.1109 4.6433-13.115 5.898-6.5821 1.6504-9.2807 3.5289-9.7564 6.7914-0.46425 3.1845-3.3556 5.3058-9.8364 7.2169-5.0484 1.4888-15.932 5.649-24.185 9.2455-8.2532 3.5963-16.978 6.023-19.388 5.3926-2.4104-0.6304-7.9388 0.7601-12.285 3.0895-4.3465 2.3296-10.13 4.2357-12.853 4.2357-3.4934 0-4.9506 1.2868-4.9506 4.3716 0 3.146 1.4572 4.3718 5.197 4.3718 6.2698 0 11.808 5.728 8.6206 8.9156-1.1949 1.1949-6.0223 2.7127-10.727 3.3724-4.7052 0.6601-10.03 1.779-11.834 2.4867-1.8034 0.7078-7.6118 1.5666-12.908 1.9088-7.2788 0.4701-11.113-0.5561-15.711-4.2055-3.3453-2.655-8.6029-6.5946-11.684-8.7547-6.5512-4.5935-6.958-9.4955-2.0323-24.489 6.8341-20.803 7.9068-22.952 11.451-22.937 1.958 0 12.119-1.6257 22.58-3.6301 15.971-3.0602 19.125-4.3551 19.673-8.0761 0.37324-2.535 6.6978-8.7379 14.779-14.494 14.07-10.023 28.469-29.102 28.489-37.751 7e-3 -2.3651 1.6779-3.8252 4.3808-3.8252 4.0377 0 4.3727-1.4614 4.3839-19.127 0.0147-22.714 2.7767-34.158 9.3627-38.791 5.2732-3.7092 45.854-17.316 58.794-19.715 10.725-1.9875 22.344-12.314 43.905-39.021 9.8352-12.182 28.726-33.581 41.978-47.552 13.253-13.971 29.83-31.923 36.836-39.893 7.42-8.4399 15.179-15.073 18.58-15.884 3.2121-0.7663 6.8239-2.1169 8.0261-3.0017 1.2022-0.885 7.1041-2.2977 13.115-3.1397 6.0112-0.8419 15.096-2.5548 20.188-3.806l9.2587-2.2755-8.0814-4.1202c-10.182-5.1912-10.961-5.1589-6.0642 0.2517 3.8702 4.2765 3.8181 4.3716-2.3935 4.3635-3.4925 0-9.5468-1.9572-13.454-4.3396-7.0838-4.319-7.1041-4.319-7.1041 0.016 0 3.2886-1.4558 4.3278-6.0111 4.291-10.135-0.082-20.028-10.868-20.373-22.213-0.1162-3.8182-0.9559-2.9137-3.4176 3.6817-1.7949 4.8088-2.7712 11.94-2.1693 15.848 0.9125 5.9248 0.3986 7.1041-3.0958 7.1041-6.4744 0-21.27-6.5203-33.57-14.794-13.54-9.1082-14.31-10.234-14.547-21.273-0.1477-6.9015-0.5829-7.8226-2.0657-4.3718-1.0332 2.4045-1.9478 7.0767-2.0323 10.383-0.1816 7.1096-2.4112 7.5987-7.7493 1.7001-6.451-7.1281-3.651-23.593 6.0189-35.394 10.385-12.674 21.252-35.992 21.224-45.544-0.013-4.2079-1.4868-12.479-3.277-18.381-2.0102-6.626-3.2553-19.661-3.2553-34.078 0-35.863 8.5722-63.813 27.565-89.878l7.3533-10.091-13.951-28.162c-14.993-30.266-22.361-51.256-24.56-69.965-2.0018-17.031 2.4644-15.52 20.173 6.8255 10.655 13.445 21.449 23.655 39.076 36.961 13.395 10.112 25.554 19.829 27.019 21.595 2.3396 2.8191 4.6445 2.7768 18.901-0.34706 14.339-3.1419 16.829-4.4433 21.304-11.135 7.7587-11.601 31.827-30.694 54.504-43.237 23.959-13.252 42.903-21.441 44.925-19.419 3.3816 3.3818-16.945 35.273-40.554 63.628l-10.88 13.067 9.3034 3.5315c29.724 11.283 58.926 45.607 67.896 79.806 1.8663 7.1155 4.4606 22.774 5.7651 34.796 2.9601 27.281 4.9155 31.984 20.131 48.418 14.37 15.522 21.122 29.757 21.122 44.534 0 10.256-2.8296 15.989-5.1054 10.344-0.6089-1.5103-1.1847-0.5013-1.2797 2.2424-0.3313 9.577-6.4505 20.423-12.895 22.856-4.1119 1.552-6.9214 4.6616-8.2353 9.1144-1.0969 3.7174-3.4698 6.7588-5.2731 6.7588-1.8034 0-5.1857 1.7213-7.5163 3.8253-4.6286 4.1784-11.15 5.0362-13.191 1.7349-1.7216-2.7857-7.7095-0.3605-7.7095 3.1224 0 1.5127-1.9673 5.2512-4.3718 8.308-2.4044 3.0567-4.4066 7.8617-4.4492 10.678-0.043 2.8161-1.4168 7.5388-3.0539 10.495-3.2381 5.8481-1.651 7.5647 12.307 13.311 3.9597 1.6301 6.9864 5.4222 9.2135 11.544 1.8242 5.0138 6.8126 18.647 11.085 30.295 4.2728 11.649 9.6466 29.846 11.942 40.439 4.971 22.942 11.789 41.838 26.272 72.813 5.9024 12.623 12.268 28.366 14.145 34.983 3.3451 11.791 17.26 32.528 36.503 54.399 4.7882 5.4422 8.4444 11.868 8.4444 14.842 0 6.0184-6.8086 20.403-14.537 30.711-5.1999 6.9364-5.2532 7.4589-3.0068 29.509 3.6945 36.266 6.9551 48.807 15.447 59.412 5.9107 7.3816 8.3577 9.0026 11.372 7.533 2.1122-1.0298 5.7943-2.8562 8.1825-4.0584 6.902-3.4745 8.7732-2.6152 8.7732 4.0281 0 11.386-8.754 23.64-21.859 30.597-6.6123 3.5103-16.25 8.7136-21.417 11.563-8.2434 4.5454-9.7227 4.7784-12.068 1.9015-1.4703-1.8034-7.9178-5.931-14.328-9.1724l-11.654-5.8936-8.519 5.6376c-6.3301 4.1892-8.5189 7.1219-8.5189 11.414 0 5.0454-2.283 6.9246-18.034 14.845-9.9184 4.9873-22.706 10.752-28.416 12.81-5.7106 2.0582-10.395 4.3461-10.409 5.0845-0.1698 8.5858-14.784 87.19-20.569 110.64-4.1531 16.831-11.218 49.292-15.7 72.134l-8.1492 41.532 2.5656 31.695c3.1124 38.449 3.2628 81.648 0.347 99.612-2.3094 14.227-7.3113 30.044-34.836 110.16-9.693 28.213-17.624 52.853-17.624 54.754 0 2.6625 1.7544 3.2528 7.6285 2.567 9.0766-1.0597 11.474 2.7327 8.0098 12.67l-2.2955 6.5766h18.626c14.547 0 18.472 0.6478 17.92 2.957-0.814 3.4058-24.025 24.117-32.948 29.401-5.7196 3.3862-6.0086 4.3575-5.9597 20.028 0.029 9.3007 1.932 23.541 4.3718 32.716 8.8762 33.379 3.3776 52.861-17.998 63.771-8.7658 4.4738-33.54 5.3638-51.353 1.8449zm2.2679-174.76c6.2313 0 13.293-19.989 20.449-57.887 2.137-11.317 3.9443-41.145 5.1011-84.195 1.3785-51.29 2.8579-72.96 6.4138-93.94 4.2807-25.257 4.4237-29.487 1.937-57.282-2.1096-23.579-2.1219-40.222-0.058-77.651 1.4452-26.202 2.6205-66.822 2.612-90.265l-0.015-42.625-17.301 0.707c-15.311 0.6256-17.394 0.2485-18.113-3.2789-1.0199-5.0053-10.954 54.919-18.182 109.68-5.8892 44.617-9.2535 61.963-16.271 83.895-3.5443 11.076-4.4716 19.848-4.5055 42.624-0.043 28.876-2.8282 54.318-10.797 98.626-4.154 23.098-5.7181 54.12-3.2009 63.49 0.6605 2.4591 5.51 7.0737 10.776 10.255 10.137 6.1227 13.552 14.195 11.609 27.436-0.8719 5.9405-0.6667 6.0644 9.9242 5.9967 5.9479-0.037 11.158 0.9196 11.577 2.1278 0.4197 1.2083-3.6947 7.6019-9.143 14.208-6.5682 7.9638-9.5772 13.484-8.9301 16.383 0.5369 2.4045 2.0993 9.9675 3.472 16.806 2.0606 10.267 3.7074 13.202 9.4451 16.835 5.8909 3.7298 7.2198 3.9167 8.725 1.2271 0.9763-1.7451 2.9899-3.1729 4.4742-3.1729zm149.46-729.56c1.683-6.6305 1.0283-11.897-3.3815-27.203-4.818-16.722-5.928-18.735-9.3281-16.915-2.1227 1.1361-6.3831 2.0655-9.4678 2.0655-3.668 0-5.6084 1.2018-5.6084 3.4739 0 3.9685 22.235 46.716 24.325 46.768 0.7555 0.018 2.3128-3.6667 3.4606-8.1889zm-24.302-276.27c0.8557-1.3845-0.07-3.7063-2.0569-5.1591-1.987-1.4529-3.6128-4.0843-3.6128-5.8474 0-4.1985-11.853-2.6531-15.76 2.0549-2.3851 2.8736-2.1383 3.1509 1.7155 1.9277 3.1953-1.0142 5.9956 0.1623 9.6538 4.0565 5.721 6.0898 7.7592 6.691 10.06 2.9674zm-78.896-12.784c0.7431-1.2021 0.8816-2.1857 0.3078-2.1857-0.5737 0-2.6102-0.6014-4.5255-1.3363-2.5489-0.9782-3.1201-0.3922-2.1308 2.1858 1.5304 3.9885 4.3434 4.5807 6.3485 1.3362zm-82.517-325.25c-2.1039-0.42198-3.8252-1.6478-3.8252-2.7242 0-1.0763-1.6369-1.3289-3.6374-0.56117-2.3418 0.89857-3.1074 0.53822-2.1494-1.012 0.8185-1.3241-0.6023-3.8719-3.1571-5.6614-2.7215-1.9061-3.9786-4.3326-3.0354-5.8587 0.8855-1.4327 0.4389-3.3287-0.9924-4.2133-1.9231-1.1886-1.3295-4.5231 2.275-12.778 3.8253-8.7607 6.2163-11.464 11.085-12.533 3.4143-0.74986 5.6473-2.2699 4.9625-3.378-0.6848-1.1079 1.028-1.6433 3.8062-1.1897 2.7782 0.45363 6.3934-0.24919 8.0337-1.5617 1.6404-1.3124 5.0831-2.4873 7.6507-2.6109 5.7134-0.27509 20.963-3.1064 25.434-4.7222 1.8034-0.65183 5.738-1.4519 8.7436-1.7779 3.0055-0.32591 9.3992-1.3278 14.208-2.2262 11.692-2.1842 22.12-2.4573 33.256-0.87117 5.2811 0.75233 10.177 0.34591 11.476-0.9525 1.5622-1.5622 2.2646-1.3786 2.2646 0.59232 0 1.6838 1.3928 2.3224 3.3923 1.5551 1.9453-0.74642 2.8227-0.38001 2.0569 0.85904-0.7345 1.1884 0.2561 2.1609 2.2013 2.1609 1.9453 0 3.0396 0.80446 2.432 1.7878-0.6077 0.98315 0.6673 3.065 2.8334 4.6262 3.9159 2.8224 4.2531 9.0525 1.184 21.873-1.4548 6.0768-8.2676 12.706-16.286 15.848-7.4972 2.9376-43.09 10.733-52.461 11.49-4.2079 0.33984-11.144 1.3153-15.413 2.1678-8.6301 1.723-40.373 2.869-46.338 1.6728z" fill="#93efff"/></svg>
