<?xml version="1.0" encoding="UTF-8"?>
<svg version="1.1" viewBox="0 0 1100 2400" xml:space="preserve" xmlns="http://www.w3.org/2000/svg"><path d="m616.9 2330.1c-3.9956-1.9725-10.599-11.265-16.252-22.872-2.2284-4.5752-4.8922-9.9372-5.9196-11.915-5.3411-10.285-6.3194-21.046-5.2657-57.921 1.1046-38.659-0.196-51.012-6.7773-64.372-1.8331-3.7212-2.5549-7.2979-3.3032-16.368-0.91707-11.116-1.0529-11.624-3.2188-12.038-1.8232-0.3486-2.9059 0.4457-5.5871 4.0981-5.2713 7.1809-9.9045 9.4433-11.859 5.791-1.3647-2.5499-3.1745-19.834-2.47-23.59 0.45316-2.4159-0.0735-4.2766-2.3549-8.3191-4.0423-7.1625-6.5212-16.456-6.8598-25.718l-0.28506-7.7962 3.4746-0.29c2.2584-0.1884 5.2421 0.5628 8.524 2.146 6.1516 2.9677 6.3904 2.9779 6.7721 0.2899 0.43305-3.0492 3.6616-3.1737 7.024-0.2705l2.8185 2.4338 0.29701-2.3434c0.16338-1.289-0.61146-8.2672-1.7219-15.507-1.1104-7.2402-2.6449-17.456-3.4101-22.702-0.76517-5.2458-1.7847-11.255-2.2655-13.353-0.48091-2.0984-1.9594-8.9237-3.2856-15.168-1.3262-6.2439-3.5342-15.042-4.9065-19.552-1.3724-4.5097-4.1378-13.564-6.1452-20.122-6.9402-22.67-9.1226-35.11-11.545-65.81-1.6876-21.386-1.7932-26.623-0.87513-43.397 2.1443-39.176 3.072-50.084 6.1651-72.487 1.7118-12.398 1.9661-46.052 0.446-59.026-1.577-13.46-5.4215-34.078-9.0436-48.501-1.8099-7.207-3.2908-14.096-3.2908-15.308 0-1.2124-0.39959-2.6121-0.88794-3.1104-0.48836-0.4984-1.746-4.125-2.795-8.0593-1.8692-7.0114-9.2094-30.624-12.156-39.105-0.8202-2.3606-3.0034-9.4423-4.8515-15.737-1.8481-6.2949-3.7156-12.304-4.1498-13.353-0.43426-1.0491-1.5387-4.9525-2.4543-8.6742l-1.6647-6.7666-7.2187-4.7802c-13.475-8.9233-27.606-14.592-36.377-14.592-3.5988 0-14.588 4.9392-19.19 8.6253-1.9364 1.5508-3.806 2.8199-4.1547 2.8199s-2.198 1.2355-4.1094 2.7457c-1.9115 1.5101-7.1236 4.4359-11.583 6.5017-13.655 6.3263-46.175 17.441-56.349 19.258-2.8431 0.508-6.8861 1.3807-8.9844 1.9396-2.0983 0.559-12.646 1.5266-23.44 2.1504-19.771 1.1426-32.451 0.5507-45.231-2.1112-2.6229-0.5464-7.1294-1.3945-10.015-1.8847s-9.1085-2.0019-13.83-3.3593c-4.7212-1.3576-10.73-3.0108-13.353-3.6739-2.6229-0.6631-6.0564-1.8725-7.6302-2.6871-1.5737-0.8149-4.2137-1.7727-5.8667-2.1285-3.2841-0.7067-2.5784-1.6834-8.9165 12.339-0.94841 2.0984-4.1262 9.0766-7.0618 15.507-2.9356 6.4308-5.3375 12.166-5.3375 12.746 0 0.5798-0.83243 2.6148-1.8498 4.5221-2.5426 4.767-7.5124 15.745-9.9894 22.067-1.7503 4.467-2.0914 7.5112-2.2979 20.506-0.24937 15.697-1.9944 32.471-4.2869 41.205-1.59 6.058-5.004 10.045-16.389 19.14-4.7212 3.7716-9.2629 7.4024-10.093 8.0686-0.82983 0.666-3.7552 7.22-6.5008 14.564-2.7456 7.344-5.7886 15.07-6.7623 17.168-3.9676 8.5505-12.282 33.92-17.192 52.457-0.97256 3.6721-2.6959 9.4662-3.8296 12.876-1.1337 3.4098-2.6166 8.3455-3.2952 10.968-0.67866 2.6228-2.3022 7.7732-3.6078 11.445-4.8746 13.71-13.562 42.105-16.488 53.888-0.8465 3.4096-2.81 10.621-4.3634 16.024l-2.8243 9.8249 2.7898 4.9586c2.0619 3.6649 3.4602 8.5668 5.3596 18.788 1.4134 7.6064 3.1303 15.761 3.8154 18.122 2.2362 7.7052 5.5014 21.38 5.9759 25.028 0.52203 4.0135-1.4644 5.7111-4.1119 3.5139-1.6654-1.3821-7.9232-14.278-11.536-23.774-1.2974-3.4097-2.9175-7.487-3.6002-9.0608-3.4405-7.93-5.2846-12.898-5.2846-14.237 0-0.8164-0.85839-2.0203-1.9076-2.6755-1.0621-0.6632-1.9226-2.252-1.9415-3.5847-0.0566-3.9897-7.3778-30.48-10.415-37.683-1.9423-4.6071-2.9381-8.2507-4.8223-17.645-1.1048-5.508-2.813-12.804-3.7961-16.214-0.9831-3.4097-2.4852-11.135-3.3381-17.168-0.85283-6.0325-1.9576-13.758-2.4549-17.168-2.1511-14.747-2.7329-26.825-3.2836-68.172-0.32126-24.118-0.70658-43.974-0.85626-44.124-0.14968-0.1496-4.712 4.2395-10.138 9.754-7.9179 8.0462-10.399 10.026-12.565 10.026-6.5665 0-16.014-10.068-16.014-17.065 0-3.0721 1.6024-4.9481 20.029-23.448l20.029-20.108v-4.6965c0-15.911 6.088-62.131 9.9154-75.276 0.77762-2.671 2.3294-8.5044 3.4485-12.963 3.2053-12.771 13.368-41.145 16.569-46.258 0.65672-1.0491 2.1902-4.6972 3.4078-8.1071 4.0533-11.351 13.192-30.143 22.959-47.212 1.2007-2.0983 3.6331-6.6049 5.4054-10.015 1.7722-3.4097 3.7132-6.9071 4.3134-7.7722 0.85129-1.2269 0.72756-2.1278-0.56266-4.097l-1.6539-2.5241-1.7478 2.1585c-2.5044 3.0928-4.9029 1.0377-4.1565-3.5614 0.59319-3.6555 0.2152-3.9039-2.8664-1.8849-3.49 2.2868-9.8214 4.2004-11.16 3.3733-0.96513-0.5966-1.0978-3.0334-0.59163-10.863l0.65258-10.094-2.4202 0.9201c-4.1863 1.5917-7.7993 3.6688-10.857 6.242-1.6259 1.368-3.3941 2.2166-3.9294 1.8859-1.2741-0.7876-1.2529-4.0187 0.0316-4.8126 0.88785-0.5486 0.33551-18.31-0.60302-19.391-0.16584-0.191-1.7724 0.5618-3.57 1.6729-2.7586 1.7048-3.4407 1.8125-4.3725 0.6898-1.0391-1.2519 0.20773-2.5759 7.4612-7.9221 0.21856-0.1611 0.1722-0.518-0.10303-0.7933-0.27524-0.2753-3.181 0.7673-6.4571 2.3168-9.0662 4.2876-10.851 2.4965-5.7594-5.7787 1.5737-2.5576 2.8613-5.0675 2.8613-5.5776s-2.414 0.1401-5.3644 1.4449c-9.5677 4.2314-12.174 2.2802-4.5565-3.4113 3.9968-2.9866 8.9671-9.6601 8.9671-12.04 0-0.562-1.6785-0.7973-4.0183-0.5634-5.3769 0.5377-10.288-0.4627-10.288-2.0955 0-0.7267 0.96569-1.4789 2.146-1.6717 1.8912-0.3091 1.7351-0.5319-1.3142-1.8766-4.3938-1.9376-5.4276-3.5597-3.2729-5.1353 1.5161-1.1086 1.3354-1.4262-2.0143-3.5406-2.0238-1.2776-4.2624-3.0253-4.9747-3.8833-0.71224-0.8583-1.8763-1.5604-2.5869-1.5604-1.5396 0-4.7296-4.5543-3.8242-5.4598 0.34725-0.3473 2.1753-1.514 4.0622-2.5931 2.7477-1.5712 3.8821-3.1718 5.6973-8.0388 1.2466-3.3426 2.2665-6.4193 2.2665-6.8372s-1.4095-1.631-3.1322-2.6956c-10.412-6.4353-15.187-16.684-6.3354-13.599 4.196 1.4627 4.233 1.447 4.1385-1.7448-0.0577-1.9519-1.1378-3.7825-3.5169-5.9611-4.0643-3.7216-7.1337-9.1091-6.6079-11.598 0.30909-1.4633 1.1374-0.9569 4.68 2.8613 2.3675 2.5517 3.7214 3.781 3.0088 2.732-0.71258-1.0492-1.8321-2.2509-2.4878-2.6704-0.65573-0.4194-1.1922-1.2873-1.1922-1.9286s-1.2035-2.6586-2.6744-4.4831c-3.8945-4.8304-7.0295-10.569-6.5114-11.919 0.2476-0.6453 2.3084-1.4635 4.5796-1.8184 3.8487-0.6012 8.1322-2.542 25.112-11.378 3.672-1.9109 7.0874-3.6118 7.5897-3.7798 0.50229-0.168-0.48154-3.0306-2.1863-6.3615-1.7048-3.3308-2.8803-6.6273-2.6123-7.3257 0.68132-1.7755 3.6862-1.582 8.4261 0.5424 2.2237 0.9969 5.4821 2.2775 7.2408 2.8459l3.1977 1.0336-0.66874-7.5547c-0.36781-4.155-0.37414-9.2985-0.0141-11.43 0.74076-4.3845 1.9253-4.7708 7.4932-2.4444 3.6164 1.5111 5.6363 1.878 3.8568 0.7007-0.5825-0.3854-1.7778-2.1034-2.6562-3.8177-1.4681-2.8651-1.4721-3.1647-0.0491-3.7108 4.0126-1.5398 20.209 0.9955 30.468 4.7693 2.0969 0.7713 4.0954 1.2277 4.4411 1.0141 0.34564-0.2136 0.92349-2.5334 1.284-5.1551 0.36058-2.6218 1.0446-5.0071 1.52-5.301 0.47543-0.2939 0.86442-1.5294 0.86442-2.7456 0-2.5584 2.5225-5.0894 3.7748-3.7876 0.45791 0.4763 1.0014 1.9388 1.2077 3.2502l0.3751 2.3844 1.2423-2.8613c0.68324-1.5737 2.1263-4.9001 3.2069-7.3917 1.3172-3.0374 2.5396-4.5303 3.7091-4.5303 0.95947 0 1.7445 0.3862 1.7445 0.8583 0 1.1334 6.1946 7.2915 10.45 10.389 1.8586 1.3527 5.581 4.5675 8.272 7.144l4.8928 4.6846 1.7836-2.568c4.695-6.7599 7.0294-7.5338 7.0294-2.3301 0 1.5428 0.3219 2.794 0.71533 2.7804 0.39343-0.013 2.1783-2.1808 3.9664-4.8165 5.143-7.5804 16.065-16.696 17.858-14.903 0.32718 0.3273 0.562 4.5817 0.52181 9.4543-0.0401 4.8726 0.23024 10.791 0.60094 13.151 0.65756 4.1872 0.75965 4.2919 4.1842 4.2919 1.9306 0 3.9653 0.4502 4.5215 1.0003 0.70744 0.6997 4.3794-0.623 12.219-4.4015 6.1644-2.9708 12.281-5.7089 13.592-6.0845 1.3114-0.3755 4.1012-1.442 6.1995-2.3698 2.0983-0.928 7.2486-2.86 11.445-4.2935 4.1966-1.4333 8.9178-3.1771 10.491-3.8748 1.5737-0.6978 5.2219-2.0095 8.1071-2.9147 9.1414-2.8684 31.196-13.503 39.675-19.131 2.6801-1.779 5.3649-3.2345 5.9663-3.2345s1.0935-0.4182 1.0935-0.9293c0-0.511 1.1803-1.5559 2.6229-2.322 2.4416-1.2964 5.818-4.2958 8.5479-7.5934 2.6842-3.2423 6.9517-13.896 6.9634-17.384 0.0329-9.7822 5.4695-27.873 9.3486-31.108 2.5546-2.1306 17.145-8.0902 25.106-10.255 6.031-1.6399 13.229-4.4231 13.218-5.1107-2e-3 -0.093-4.6154-0.2185-10.253-0.2797-24.321-0.2638-34.334-6.1843-29.005-17.151 3.5823-7.3736 12.667-12.235 18.629-9.9681 1.4935 0.5678 7.1829 1.3058 12.643 1.6399 12.935 0.7914 16.509-0.6443 19.43-7.8059 1.3948-3.419 2.7616-5.1419 4.7927-6.041 2.6358-1.1667 2.8378-1.6145 2.79-6.185-0.1008-9.6601-1.6146-19.327-3.983-25.434-2.2337-5.7598-7.275-21.854-9.2612-29.567-4.7112-18.294-5.7799-23.542-5.7799-28.384 0-4.7779 0.36114-5.9583 2.4125-7.8855 1.461-1.3725 2.1844-2.8488 1.8342-3.7429-0.31808-0.8121-2.0546-7.4852-3.859-14.829-1.8044-7.3439-3.6973-14.855-4.2065-16.691-3.3108-11.938-2.9806-17.664 1.3454-23.336 2.2568-2.9589 2.3865-3.8332 2.6614-17.943 0.15891-8.1581-0.0413-15.164-0.44502-15.568-0.40366-0.40418-1.9058-0.32431-3.3382 0.17752-2.4541 0.8598-2.6222 1.2961-2.9158 7.5693-0.33821 7.2262 1.1317 15.903 3.2628 19.261 1.7045 2.6856 1.7208 5.0409 0.0349 5.0409-1.8144 0-5.9506-9.9505-6.7516-16.242-1.0126-7.9537-1.3829-8.8699-3.0314-7.5018-1.0571 0.8773-1.657 0.88816-2.4999 0.0453-0.84292-0.84292-0.82346-2.0807 0.0811-5.1576 2.0614-7.0126 2.1586-6.8435-4.1369-7.1966-6.1005-0.34214-12.399-2.7462-12.399-4.7325 0-0.66225 1.1321-1.9498 2.5159-2.8613 12.083-7.9589 12.402-8.2511 11.712-10.718-0.87485-3.1264-0.64082-12.592 0.3285-13.287 0.41639-0.29847 1.5615-2.3668 2.5447-4.5962 0.98321-2.2294 2.1517-4.0535 2.5965-4.0535 0.44492 0 0.80892-0.64379 0.80892-1.4307 0-1.8519-0.87045-1.7971-3.8881 0.24473-5.8405 3.9518-11.372 9.1737-11.372 10.735 0 0.98197-0.94691 1.9269-2.2616 2.2569-1.2439 0.31219-3.4539 2.1828-4.9112 4.1569s-3.1221 4.0268-3.6995 4.5616c-1.5662 1.4505-8.0768 14.329-9.8066 19.399-2.1879 6.4119-3.9682 20.637-3.0989 24.763 1.3202 6.2658 2.0946 8.1982 5.3311 13.303 3.4074 5.3746 3.6348 5.9426 2.3785 5.9426-1.4694 0-4.4052-3.2783-6.6876-7.4676-5.3366-9.7958-6.2206-22.729-2.5256-36.951 2.73-10.507 9.7085-24.206 14.509-28.482 1.728-1.5391 3.1418-3.3343 3.1418-3.9893s0.83954-1.4574 1.8656-1.783c1.0261-0.32567 2.9298-1.8568 4.2304-3.4025 1.3006-1.5457 2.8602-2.8103 3.4656-2.8103 0.6055 0 1.8816-0.96411 2.8358-2.1425 1.7342-2.1417 1.7334-2.1428-2.2316-3.0998-2.9387-0.70924-4.0414-1.4832-4.256-2.987-0.2066-1.4483 0.33989-2.1934 1.9075-2.6008 2.8719-0.74649 12.178-9.1991 10.128-9.1991-2.4804 0-2.6821-2.4146-0.46344-5.5469 1.3536-1.9109 4.7875-4.1813 9.9172-6.5567 7.5186-3.4817 9.5373-5.0643 6.4599-5.0643-0.78686 0-1.4307-0.35786-1.4307-0.79523 0-0.43739-2.3606-2.421-5.2457-4.4081-3.9637-2.7299-5.2457-4.1877-5.2457-5.965 0-2.2376 0.1973-2.3191 4.0535-1.6746 2.2294 0.37264 4.2769 1.0273 4.5498 1.4548 0.6906 1.0816 5.4385 2.8042 7.7292 2.8042 2.9337 0 1.2494-1.6176-2.3964-2.3015-1.7891-0.33563-3.7778-1.2427-4.4193-2.0157s-1.6503-1.416-2.2418-1.429c-1.7188-0.0376-12.998-11.13-12.998-12.783 0-2.2543 2.6185-1.8036 4.2834 0.73729 1.4752 2.2514 6.0479 4.9171 6.927 4.0381 0.25976-0.25978-0.54679-1.7444-1.7924-3.2992-5.6577-7.0622-6.5318-8.2753-6.5439-9.0808-7e-3 -0.4723-1.1336-3.1497-2.5036-5.9498-2.6713-5.46-2.515-7.975 0.49568-7.975 2.209 0 19.163 8.4834 19.163 9.5887 0 0.41516 1.5264 1.2586 3.3921 1.8743 3.0164 0.9955 4.1252 0.81884 10.012-1.5951 3.6407-1.493 6.6208-3.0353 6.6225-3.4273 2e-3 -0.39197-1.8539-3.2353-4.1236-6.3185-5.159-7.0079-7.0377-11.276-5.5976-12.716 0.75414-0.75417 1.9542-0.27782 4.3387 1.7222 5.6214 4.7148 17.062 10.675 21.838 11.376 2.4917 0.36611 4.5304 0.48919 4.5304 0.27352 0-0.21568-1.4707-3.264-3.2682-6.7741-1.8912-3.693-3.5493-8.6312-3.9352-11.72-0.65319-5.2278-0.62005-5.3318 1.5991-5.0179 1.6731 0.23664 2.3909 1.0693 2.743 3.1818 0.78018 4.6811 3.2978 8.3248 9.4478 13.674 3.1969 2.7806 5.8125 4.904 5.8125 4.7186s-0.95245-2.8973-2.1167-6.0266c-1.7207-4.6255-2.1221-7.7259-2.146-16.577-0.0215-7.8835 0.29965-10.998 1.1629-11.286 0.65574-0.21918 1.1922-1.0319 1.1922-1.806 0-0.77411 0.3664-1.181 0.81427-0.90421 1.7923 1.1077 3.0008-4.8001 3.0008-14.669 0-5.7056 0.45909-12.66 1.0202-15.454 3.4749-17.303 4.1819-19.551 8.0477-25.586 4.201-6.5584 13.425-15.626 18.888-18.568 3.7766-2.0338 6.9445-1.4072 5.9133 1.1697-3.9495 9.8695-4.1951 23.25-0.54043 29.444 2.6717 4.5281 10.655 13.707 11.919 13.703 0.55568-2e-3 1.8687-1.2879 2.9178-2.8586 1.0492-1.5707 2.2295-2.8571 2.6229-2.8586 0.39344-2e-3 0.71534-1.0959 0.71534-2.432 0-7.2011 5.8764-33.522 8.6643-38.808 0.48042-0.9109 0.87342-2.2014 0.87342-2.8679 0-0.66645 1.4322-4.8599 3.1827-9.3187 2.9093-7.4107 3.0793-8.3931 1.9801-11.439-1.4162-3.9235-1.6513-5.7645-0.50544-3.9564 0.60452 0.95391 0.96554 0.67524 1.4078-1.0867 0.3794-1.5118 1.5063-2.5984 3.1132-3.0017 2.3252-0.58358 5.9762-3.9085 6.0502-5.51 0.0172-0.37697 1.7798-3.2326 3.9163-6.3459 4.2888-6.2495 4.3274-5.9654-1.6197-11.921-1.1149-1.1166-2.2958-3.1805-2.6243-4.5864-0.32841-1.4059-1.3476-3.3066-2.2648-4.2238-0.9172-0.91722-1.7026-1.9129-1.7454-2.2127-0.34007-2.3832-1.6982-5.7908-2.308-5.7908-1.5939 0-6.1199-17.099-7.7002-29.09-1.2188-9.2484-0.71697-30.476 0.83422-35.29 0.50716-1.5737 1.439-4.7927 2.0707-7.1533 0.63171-2.3606 1.6963-5.5796 2.3658-7.1533 0.66955-1.5737 2.3854-5.8657 3.8131-9.5377 1.4277-3.672 3.255-7.4115 4.0606-8.31 0.80567-0.89846 1.2117-2.2934 0.90223-3.0997-0.30945-0.80642-0.21451-1.4662 0.21103-1.4662 0.42547 0 1.5923-1.5719 2.5929-3.4932s3.1069-4.8381 4.6806-6.4819c5.8842-6.1462 9.044-10.969 10.01-15.277 0.54709-2.4412 0.79452-4.7624 0.54988-5.1583-1.064-1.7216 3.166-11.998 6.2292-15.134 3.1123-3.1856 3.4487-3.2953 8.4955-2.7691 2.8902 0.30134 7.0922 1.1961 9.3379 1.9884 2.6282 0.92726 3.8435 1.0532 3.411 0.35337-0.44993-0.72798-0.12181-0.87604 0.99324-0.44817 0.91584 0.35144 2.0845 0.63897 2.5972 0.63897 0.51267 0 0.72634 0.33288 0.4749 0.73974-0.63127 1.0214 5.8831 0.65439 9.5721-0.53935 1.6654-0.53889 3.2463-0.76148 3.5132-0.49459 0.26682 0.26686 1.0136 0.15869 1.6593-0.24042 1.449-0.89551 6.0364-1.55 10.16-1.4496 1.7048 0.0415 3.0997-0.35342 3.0997-0.87768s0.3219-0.90237 0.71532-0.84026c0.39343 0.0621 0.92994 0.0101 1.1922-0.11623 1.6698-0.80252 26.272-0.69847 26.774 0.11323 0.32784 0.53052 2.0562 1.1799 3.8408 1.443 5.4132 0.7982 10.713 2.3747 12.728 3.7863 1.05 0.73545 2.8517 1.3372 4.004 1.3372 1.1522 0 3.31 0.61755 4.7951 1.3723 1.4851 0.75477 4.2649 2.0412 6.1773 2.8588 4.3656 1.8664 13.453 7.9279 14.412 9.6127 0.39651 0.69708 2.1133 1.5577 3.8151 1.9125 1.7018 0.35477 4.0719 1.2646 5.267 2.0217 1.1951 0.75717 2.5512 1.1429 3.0135 0.8571 2.7762-1.7157 14.017 6.7649 16.384 12.361 1.1242 2.6578 3.7046 22.398 3.7046 28.341 0 7.4422-3.5254 17.6-6.1083 17.6-0.83701 0-1.5219-0.35766-1.5219-0.79481 0-0.43714-0.46918-0.6875-1.0426-0.55637-0.57333 0.13115-1.539-0.59719-2.146-1.6185-0.60689-1.0213-1.9874-2.8602-3.0678-4.0863-1.0804-1.2262-3.4346-4.6825-5.2315-7.6808-1.7968-2.9982-3.81-6.0185-4.4736-6.7117-0.66354-0.69318-1.2247-1.9808-1.2469-2.8613-0.0221-0.88054-1.3098-2.6538-2.8613-3.9407-1.5516-1.2868-2.8209-2.7023-2.8209-3.1455 0-0.94707-4.9038-5.4091-5.9929-5.453-0.41095-0.0166-2.1449-1.425-3.8533-3.1299-1.7084-1.7048-8.0247-5.5302-14.036-8.5007-10.111-4.9964-13.949-6.1566-22.852-6.9087-1.836-0.15509-4.1966-0.59546-5.2457-0.97858-1.0492-0.38313-2.766-0.98508-3.8151-1.3377-3.6806-1.237-28.019 1.5532-31.964 3.6644-0.97319 0.52084-3.2847 0.94696-5.1368 0.94696-2.3912 0-3.6633 0.55297-4.3882 1.9076-0.56152 1.0491-1.4313 1.9075-1.9329 1.9075s-2.8799 1.5022-5.2852 3.3382c-2.4054 1.836-4.9317 3.3382-5.6141 3.3382-0.6825 0-1.7957 0.6686-2.4739 1.4858s-2.6276 2.0684-4.3318 2.7805c-1.9551 0.81687-3.2152 2.0807-3.4142 3.4241-0.17346 1.1712-1.1557 2.6024-2.1827 3.1806-1.027 0.57816-2.4525 1.5877-3.1679 2.2434-0.71533 0.65571-1.6513 1.1922-2.0801 1.1922-0.42869 0-1.0613 1.5022-1.4057 3.3382-0.3445 1.836-0.99367 3.3382-1.4426 3.3382-0.67347 0-4.8484 5.9835-5.3238 7.6302-1.0314 3.572-5.7201 12.948-7.6313 15.26-0.65031 0.78687-1.6935 6.49-2.3182 12.674-0.97377 9.6395-0.8777 14.986 0.45789 25.477 0.30423 2.3895 1.5131 7.0405 2.3551 9.0608 0.43728 1.0492 2.2671 5.4331 4.0662 9.7421 1.7991 4.309 4.8096 9.674 6.6899 11.922l3.4187 4.0876 4.1247-2.2342c2.2685-1.2288 7.129-3.804 10.801-5.7226 3.6721-1.9187 6.8911-3.727 7.1533-4.0185 1.7134-1.9043 22.409-10.186 27.48-10.997 2.3592-0.37724 3.9944-1.1562 3.9944-1.9026 0-1.4355-2.0422-6.355-2.9376-7.0763-1.2274-0.98887-2.7851-4.7192-2.7851-6.67 0-1.1146-0.41662-1.769-0.92578-1.4544-1.2014 0.74249-2.3438-3.7862-1.3654-5.4127 0.57083-0.94893 0.3646-0.934-0.86398 0.0626-1.3906 1.128-1.6137 1.095-1.6137-0.23844 0-0.85109 0.42919-1.5474 0.95374-1.5474s0.95375-1.7303 0.95375-3.845c0-2.4381 0.49459-4.0348 1.3517-4.3637 0.94974-0.36444 1.3376-2.0882 1.3043-5.7967-0.0293-3.2497 0.41231-5.5622 1.149-6.0174 0.65803-0.40668 1.0079-1.3049 0.7775-1.9961-0.39909-1.1972 0.73227-3.0196 4.0895-6.587 0.83529-0.88759 2.3375-3.3767 3.3382-5.5314 1.0809-2.3272 3.0778-4.6059 4.9192-5.6131 1.7048-0.93249 3.0997-1.9981 3.0997-2.3681 0-0.36993 0.9657-0.9669 2.146-1.3266 1.1803-0.35969 2.9046-1.3203 3.8318-2.1348 3.11-2.7318 11.606-5.3071 18.82-5.7051 7.3843-0.40737 19.458 1.0837 23.772 2.9359 3.1481 1.3515 10.943 6.5121 11.359 7.5199 0.17482 0.42397 0.84501 0.77086 1.4892 0.77086 0.64424 0 2.0304 0.80034 3.0804 1.7785 1.05 0.97818 2.8477 2.2809 3.995 2.8949 1.1473 0.61401 2.0925 1.8523 2.1005 2.7519 7e-3 0.89955 0.43721 2.2793 0.95374 3.0662 0.82041 1.2498 1.0525 1.2545 1.8349 0.0377 0.65581-1.02 0.87234-0.57223 0.80853 1.672-0.048 1.6857 0.62292 3.8496 1.4908 4.8086 0.8679 0.959 1.3012 2.0203 0.96311 2.3585-0.3382 0.33819-0.19679 1.1617 0.31433 1.8301 0.51109 0.6684 1.0359 4.9159 1.1664 9.4388 0.25444 8.823-2.0687 19.028-5.6914 25.001-1.0072 1.6606-2.218 3.887-2.6907 4.9477-0.47263 1.0607-2.4094 3.7838-4.3038 6.0513-1.8945 2.2675-3.4444 4.6257-3.4444 5.2404 0 1.1721 8.5276 6.5959 12.084 7.6854 1.5625 0.47875 2.2183 0.16353 2.6789-1.2876 1.5543-4.897 9.3102-17.071 11.189-17.562 2.4794-0.64837 5.2175 0.71696 5.9168 2.9504 0.8782 2.8049 2.1756 22.312 1.8714 28.137-0.18842 3.6082 0.082 5.4842 0.79072 5.4842 0.59244 0 0.84294 0.23424 0.55668 0.52056-0.28635 0.28629 1.1333 2.2942 3.1547 4.462 3.5508 3.808 3.7382 3.8845 5.5322 2.2609 1.0213-0.92426 3.071-4.1124 4.5549-7.0848 1.4839-2.9724 2.9577-5.619 3.2751-5.8812 0.31746-0.26229 1.1336-2.1937 1.8137-4.292 0.68014-2.0983 1.8762-4.7983 2.6579-6 0.78164-1.2017 1.7486-3.7768 2.1486-5.7226 1.4604-7.1019 3.4899-13.458 5.0642-15.861 2.418-3.6901 5.7012-3.2512 8.3529 1.1164 1.1943 1.9672 2.7406 3.9249 3.436 4.3506 0.69551 0.42566 1.034 1.1471 0.75209 1.6032-0.28183 0.45608-0.1136 1.0758 0.37384 1.377 0.48749 0.30128 1.1831 2.3696 1.5459 4.5963 0.36275 2.2267 1.2584 6.392 1.9905 9.2562 1.7743 6.9421 1.7417 21.744-0.0572 25.912-0.7634 1.7689-3.59 5.3622-6.2812 7.9851-2.6913 2.6229-5.3007 5.52-5.7987 6.438-0.49816 0.91802-1.3372 1.6691-1.8646 1.6691s-2.3363 0.96424-4.0199 2.1428c-1.6836 1.1785-3.2067 2.2182-3.3846 2.3104-0.59809 0.31007 2.0684 10.889 2.8693 11.384 0.43577 0.26931 0.79228 1.4515 0.79228 2.627 0 1.1756 0.38329 2.5451 0.85176 3.0435 1.3592 1.446 3.6264 13.335 4.8105 25.227 0.60072 6.0326 1.7756 16.478 2.6111 23.212 1.3804 11.128 1.3348 17.839-0.17476 25.669-0.67677 3.5102 0.40488 3.3042 3.7563-0.71533 1.5308-1.836 3.273-3.3382 3.8716-3.3382 0.59844 0 1.886-1.6095 2.8613-3.5766 3.896-7.8585 5.3635-13.391 5.8816-22.175 0.54185-9.1856 1.9886-13.353 4.6358-13.353 1.5887 0 10.678 11.895 14.312 18.729 5.7816 10.874 8.1289 32.756 4.5388 42.313-1.258 3.3487-1.6554 8.0207-1.8079 21.258l-0.19558 16.966 2.0602-0.57388c1.1332-0.31564 2.9186-0.93279 3.9678-1.3715 1.0492-0.43866 3.3025-1.3222 5.0073-1.9633 1.7048-0.64115 3.0997-1.5682 3.0997-2.0601 0-0.49189 0.35265-0.6764 0.78364-0.41003 0.43098 0.26638 1.4998-0.35208 2.3751-1.3744 0.87536-1.0223 2.5102-1.8587 3.6332-1.8587 1.8068 0 1.9783 0.3902 1.4913 3.3912-0.30272 1.8652-2.1155 5.5699-4.0285 8.2327-3.7873 5.2716-4.0212 5.0428 3.1254 3.0587 2.721-0.7554 3.93 1.8816 1.9209 4.1898-0.78207 0.89847-1.6586 2.2774-1.948 3.0642-0.31224 0.84939-0.5566 0.95005-0.6013 0.24779-0.0744-1.1723-0.74065-0.74389-6.1166 3.9341-2.047 1.7812-2.0092 1.7919 4.1606 1.1873 3.4245-0.33557 8.3669-1.3926 10.983-2.3489 2.6163-0.9563 5.2867-1.5621 5.9342-1.3463 1.7526 0.58421 1.4254 3.476-0.69894 6.1766-1.032 1.3119-1.6043 2.6574-1.2718 2.9899 0.33264 0.33253 3.4789 0.6046 6.9918 0.6046 5.5151 0 6.3629 0.22793 6.2093 1.6691-0.29915 2.8052-4.3522 10.73-5.4878 10.73-0.58744 0-0.78101 0.28707-0.43014 0.63793 0.35087 0.35088-0.11409 1.4976-1.0332 2.5484-0.91912 1.0507-1.1363 1.5977-0.48263 1.2155 2.4386-1.4256 5.1143-1.4272 5.6607-4e-3 0.75796 1.9752-1.2423 6.0931-2.9597 6.0931-0.76833 0-2.0651 0.95389-2.8817 2.1198-0.81663 1.1659-1.4847 1.5782-1.4847 0.91616 0-0.96437-0.2541-0.96619-1.2787-9e-3 -0.92885 0.86773-0.99409 1.5013-0.23842 2.3165 0.77385 0.83486 1.2196 0.84393 1.7409 0.0354 0.44659-0.69248 0.70597-0.48119 0.71534 0.58242 0.02 2.31 1.8256 2.0961 2.7202-0.32228 0.67004-1.8111 0.85296-1.8513 2.021-0.44385 0.70639 0.85114 1.2481 2.8203 1.204 4.3758-0.0753 2.664 0.9551 3.432 3.9164 2.9176 0.43248-0.0752 0.52777 0.28172 0.21173 0.79297-0.75481 1.2214 2.5221 2.9328 5.6158 2.9328 1.3459 0 2.4471 0.40028 2.4471 0.88949 0 0.98745 2.4617 1.9231 6.4417 2.4485 1.4406 0.19013 2.7265 0.42893 2.8576 0.53064 0.61139 0.47417 2.5771 0.67089 7.8044 0.78104 4.8077 0.1013 5.7515 0.41285 6.2783 2.0725 0.34093 1.0743 0.15909 2.5087-0.4043 3.1875-0.5634 0.67881-0.74194 1.5166-0.3968 1.8618 0.34515 0.34516 0.10158 0.62757-0.54143 0.62757-0.64294 0-0.90674 0.42429-0.58628 0.94285 0.3342 0.54065-0.0486 0.70054-0.89752 0.37484-0.81405-0.31241-1.513-0.20019-1.5531 0.24936-0.04 0.44956-0.21117 1.53-0.38 2.401-0.45115 2.3275 8.5772 2.8911 10.594 0.66132 1.1373-1.2571 1.1712-1.67 0.16995-2.0707-0.81669-0.3269-0.67154-0.52662 0.41862-0.57579 0.93536-0.0422 1.6691-0.82056 1.6691-1.7706 0-0.93243 0.66811-2.6492 1.4847-3.8151 0.81661-1.1659 1.067-2.1198 0.55638-2.1198-0.51059 0-1.1199 0.5365-1.3542 1.1922-0.23412 0.65572-0.79401 0.84697-1.244 0.42502-0.72334-0.67817 0.61475-2.0535 2.7256-2.8014 0.40574-0.1438 1.0146-1.9749 1.3528-4.069 0.36374-2.2522 1.6258-4.7816 3.0894-6.192 1.3609-1.3114 3.1215-3.3917 3.9123-4.6229 1.0642-1.6565 2.5969-2.3691 5.8957-2.7409 6.4339-0.72519 23.64 2.6257 23.64 4.6038 0 0.36957 1.5142 2.5366 3.3648 4.8157 1.8506 2.2791 4.1039 5.0617 5.0073 6.1835 2.8934 3.5932 5.934 9.7158 5.949 11.979 0.0113 1.7674 0.19501 1.9165 0.93927 0.76481 0.74378-1.151 0.92739-1.0002 0.93918 0.77162 9e-3 1.2226 0.43876 1.94 0.9683 1.6128 0.84605-0.5229 1.462 2.3304 1.0129 4.6919-0.0915 0.48223 0.46751 0.3504 1.2427-0.29296 1.1745-0.97477 1.3286-0.86066 0.92447 0.68468-0.26665 1.0199-0.0179 2.1428 0.55197 2.4952 0.57026 0.35245 1.0368 1.5046 1.0368 2.5602 0 2.51 2.4761 5.1314 3.2528 3.4437 0.29955-0.65104 0.31133-0.23756 0.0255 0.91881-0.56686 2.2982 2.1316 7.2638 3.4909 6.4237 0.46121-0.28503 0.5844 0.14424 0.27363 0.95391-0.33273 0.86725 0.0641 1.7134 0.96463 2.0591 0.84134 0.32283 1.5297 1.1704 1.5297 1.8835 0 1.4936 12.406 14.285 16.745 17.264 3.6212 2.4868 11.314 6.033 13.088 6.033 0.7283 0 1.6459 0.3219 2.0394 0.71533 0.3934 0.39343 1.0014 0.75413 1.351 0.80154 0.3497 0.0474 2.2316 0.79852 4.1819 1.6691 1.9503 0.8706 4.1511 1.5829 4.8906 1.5829s1.9102 0.68173 2.6017 1.5149c1.5175 1.8284 4.7292 10.258 5.4186 14.222 0.2737 1.5737 0.8101 3.0759 1.1919 3.3382 0.382 0.26229 0.8943 2.9435 1.1387 5.9582 0.5337 6.5825 0.4662 6.6569-10.68 11.765-4.459 2.0432-8.6844 4.2664-9.3897 4.9404-0.7054 0.67399-2.4318 1.8197-3.8363 2.546-1.4045 0.72632-5.66 4.5791-9.4568 8.5617-7.1261 7.4752-8.841 8.2631-13.845 6.3604-2.0909-0.795-3.1875-0.017-11.269 7.9956-12.859 12.749-12.534 12.303-12.71 17.427-0.14147 4.1213-0.62369 5.0189-5.1345 9.5559-2.7382 2.7539-5.2264 5.0073-5.5293 5.0073-0.85831 0-6.085 5.8213-6.085 6.7772 0 0.4691-0.47722 0.8529-1.0607 0.8529-0.58336 0-9.9827 8.8647-20.887 19.699-10.905 10.834-20.433 20.039-21.174 20.454-0.76811 0.4299-5.1937-0.2477-10.293-1.5762-7.1069-1.8515-9.8386-3.0865-13.293-6.0097-4.2211-3.5718-4.364-3.871-4.8957-10.254-0.33513-4.0234-1.2664-7.7335-2.3996-9.5602l-1.8518-2.9848-15.06 30.499 7.2125 6.8045-0.45288 7.0557c-0.5184 8.0774 0.16918 9.3212 5.7288 10.364 1.9521 0.3663 9.5225-0.051 16.899-0.9335 17.315-2.0693 18.296-2.0274 22.196 0.9476 5.9788 4.5602 8.0134 14.312 3.8039 18.231-4.5968 4.28-20.996 8.7642-32.512 8.8903l-5.8772 0.064 4.5617 1.2268c7.1132 1.913 8.7298 5.4814 9.7556 21.535 0.66039 10.335 3.6058 24.102 5.9082 27.616 1.8624 2.8422 2.2377 3.3326 5.9701 7.7994 1.592 1.9054 2.8945 3.7806 2.8945 4.1672 0 0.7041 10.476 17.7 11.464 18.598 0.28849 0.2622 2.1121 2.8995 4.0525 5.8605 3.9727 6.0624 7.3928 15.03 9.7689 25.614 6.1847 27.549 5.8356 26.643 11.15 28.945 2.1454 0.9296 5.3404 2.7883 7.1002 4.1304 3.2279 2.4621 4.0628 1.794 2.1722-1.7384-1.2643-2.3624-0.47213-4.781 1.3385-4.0863 0.73558 0.2823 2.5709 2.9513 4.0785 5.9311l2.7413 5.4179 0.78903-5.2317c0.43405-2.8776 0.60937-7.2703 0.38966-9.7617-0.46676-5.2935 1.0483-7.4357 3.5148-4.9694 4.4377 4.4377 12.847 20.216 14.847 27.859 0.58354 2.2295 1.4445 4.0535 1.913 4.0535 0.46873 0 1.8315-1.3949 3.0286-3.0997 1.1972-1.7049 2.514-3.2429 2.9263-3.4177 0.4123-0.1749 0.7499-0.926 0.7499-1.6691 0-1.4944 2.4386-1.8528 3.2854-0.4828 0.2952 0.4776 0.6054 2.6235 0.6894 4.769 0.1666 4.2515 1.6549 4.9932 4.9753 2.4791 0.9883-0.7482 4.8511-2.2665 8.5839-3.374 8.9406-2.6527 21.52-8.1965 24.123-10.631 3.131-2.9289 4.3872-1.4315 3.6264 4.3223-0.9245 6.9945-3.0486 15.951-4.7469 20.015-0.8014 1.9183-1.2063 3.4878-0.8995 3.4878 0.9741 0 3.2132-2.6129 2.6887-3.1375-0.2768-0.2768 0.4119-0.7939 1.5307-1.149 1.1187-0.355 2.4399-1.713 2.9361-3.0177 0.5815-1.5298 1.4936-2.2536 2.5681-2.0383 1.7982 0.3605 2.0408 2.9507 0.7412 7.912l-0.7497 2.8613 2.3061-3.3383c2.9948-4.3352 5.1772-4.4304 4.8456-0.2114-0.262 3.3347 1.6571 5.0042 3.8345 3.3357 0.649-0.4975 4.1846-2.1264 7.8565-3.6199 3.672-1.4936 7.4114-3.3328 8.3101-4.087 0.8985-0.7542 2.3299-1.1042 3.181-0.7776 1.3261 0.5089 1.45 1.6331 0.8661 7.8637-0.3746 3.9983-1.4707 9.877-2.4355 13.064-0.9648 3.1866-1.6187 5.9295-1.453 6.0951 0.1655 0.1655 1.392-0.5572 2.7256-1.606 2.0624-1.6223 2.5917-1.7059 3.5437-0.5589 1.2903 1.5549-0.4924 5.7231-4.5007 10.524l-2.3704 2.8388 6.5051 1.387c5.5431 1.1821 7.9938 1.2027 16.573 0.1394 15.871-1.9672 15.742-1.979 16.078 1.4781 0.2806 2.8798-2.6974 10.414-6.2438 15.796-0.921 1.3981-2.626 4.0805-3.7886 5.9611-2.1123 3.4169-2.1124 3.4193-0.1351 3.4193 1.6689 0 1.8786 0.3996 1.3387 2.5507-0.3522 1.4029-1.435 3.4416-2.4063 4.5303-0.9713 1.0889-3.2931 3.7355-5.1594 5.8812l-3.3933 3.9015 3.3117 2.932c1.8215 1.6126 3.3119 3.2402 3.3119 3.6169 0 0.3766 0.751 1.3789 1.6691 2.2273 0.9179 0.8484 3.1175 3.6699 4.888 6.27l3.2189 4.7274-3.6958 3.1533c-2.0328 1.7343-5.7025 3.8811-8.155 4.7704-4.149 1.5046-4.3312 1.7068-2.6196 2.9057 2.6538 1.8587 1.0455 4.1962-4.7941 6.9686-2.65 1.2581-4.8182 2.8392-4.8182 3.5135 0 1.7081 4.5551 8.4633 8.8105 13.066 1.9606 2.1207 3.5702 4.538 3.5767 5.3718 0.017 2.2337-4.1148 3.7298-10.301 3.7298h-5.4547l0.7258 11.207c0.8377 12.93 0.8 13.004-7.2068 14.12-4.3487 0.606-4.6791 0.8023-2.7875 1.6558 5.8875 2.6562-2.3902 6.2078-9.3328 4.0043-2.4246-0.7697-2.4349-0.9004 0.7882 10.025 1.0057 3.4098 2.1376 7.8742 2.515 9.9207l0.6861 3.7212-6.2468-0.5833c-4.0902-0.382-8.2299-1.5675-11.992-3.4342-6.263-3.1074-6.761-2.7492-4.3151 3.1045 0.7868 1.8832 1.4306 4.5397 1.4306 5.9033 0 2.126-0.3059 2.3877-2.1459 1.8359-1.1803-0.354-3.1938-1.74-4.4741-3.0803l-2.328-2.4368-1.1837 5.162c-1.4139 6.1651-4.5794 13.538-6.7411 15.699-1.3867 1.3866-1.4275 2.3211-0.367 8.3876 0.6565 3.755 1.4156 8.2069 1.6869 9.8936 0.2714 1.6864 1.092 3.5631 1.8237 4.1702 0.7315 0.6071 1.3302 1.826 1.3302 2.7086 0 0.8824 1.9272 4.3412 4.2826 7.6862 2.3553 3.3449 4.5602 6.9697 4.8995 8.0548 0.33941 1.0853 1.7667 3.6899 3.1719 5.7882 1.4053 2.0984 5.6913 10.038 9.5249 17.645 3.8336 7.6064 9.4108 18.551 12.394 24.321 9.4958 18.367 16.047 35.459 17.731 46.258 0.368 2.3607 0.9944 4.7212 1.3918 5.2458 0.3974 0.5247 1.8975 6.1042 3.3334 12.399 1.4358 6.295 3.2266 13.591 3.98 16.214 2.4342 8.4763 4.1107 19.71 5.1244 34.336 0.5453 7.8685 1.4583 19.886 2.0292 26.706 0.5706 6.8196 1.2352 27.85 1.4768 46.735 0.3565 27.879 0.143 36.936-1.1351 48.166-0.8656 7.6063-1.933 17.263-2.3717 21.46-1.0956 10.482-3.6648 25.716-5.3224 31.558-0.7571 2.6689-1.3766 5.8606-1.3766 7.0923 0 1.2318-0.6018 4.8423-1.3373 8.0233-0.7355 3.1809-1.8338 8.3587-2.4407 11.506-0.6067 3.1475-1.4665 6.7957-1.9107 8.1071-0.4441 1.3115-1.5164 5.6034-2.3828 9.5378-1.623 7.3692-5.1815 21.293-7.7999 30.521-3.9108 13.781-19.24 41.813-23.829 43.574-3.108 1.1926-3.872-2.4169-4.0821-19.289-0.1579-12.666 0.1166-17.214 1.1945-19.794 3.5516-8.5003 4.6216-35.577 2.043-51.704-1.314-8.2175-3.2278-15.68-13.819-53.888-2.6901-9.7046-6.5525-23.01-8.5831-29.567-4.6506-15.018-8.121-28.263-9.4962-36.243-0.5876-3.4098-1.7613-9.5038-2.6083-13.542l-1.5398-7.3427-7.7239-2.5255c-4.2479-1.3889-11.801-3.1076-16.784-3.8194-31.75-4.5351-64.182-10.965-65.421-12.97-0.27598-0.4466-1.362-0.8118-2.4134-0.8118-1.7987 0-14.223-4.6837-27.066-10.203-3.1474-1.3527-6.581-2.786-7.6302-3.185-2.6407-1.0045-23.416-11.195-25.741-12.627-1.0432-0.6423-4.906-3.0848-8.584-5.4278-3.6779-2.3429-7.3986-4.7036-8.2683-5.2457-16.111-10.044-43.239-35.303-53.487-49.802-2.7607-3.9059-6.1658-8.5926-7.5669-10.415-5.4894-7.1397-18.912-37.062-18.912-42.158 0-0.942-0.38091-2.1206-0.84645-2.619-1.1218-1.2005-8.6908-31.737-8.6908-35.064 0-3.1394-1.9649-1.5376-4.1695 3.3991-2.87 6.4268-10.459 24.991-11.99 29.329-0.64788 1.836-2.8592 8.2739-4.9141 14.306-2.0548 6.0326-4.1271 11.827-4.6051 12.876-2.1142 4.6409-3.1402 19.617-2.0154 29.419 0.61132 5.3271 1.4938 10.544 1.961 11.593 0.46726 1.0492 1.4743 3.4776 2.2378 5.3969 1.9811 4.9795 7.3648 13.143 12.703 19.262 5.7597 6.6023 10.134 13.378 11.804 18.285 0.70967 2.0851 1.784 4.4348 2.3872 5.2217 1.862 2.4287 5.8902 18.307 7.2591 28.613 1.3907 10.47 0.22126 39.417-2.0807 51.504-2.8622 15.028-4.5125 22.348-7.0333 31.195-0.77828 2.7312-1.7201 7.0005-2.093 9.4874l-0.67807 4.5216 3.9166-3.102c5.4536-4.3193 16.301-9.8221 18.689-9.4809 1.8116 0.2589 1.9754 0.8645 1.8372 6.7927-0.23455 10.061-5.5879 24.144-11.995 31.556-3.1288 3.6194-3.1892 3.8516-2.4815 9.5283 1.0685 8.5709-0.0651 20.511-2.1441 22.591-2.458 2.4581-7.2336 0.7105-13.624-4.9855l-5.1549-4.5945-0.71705 5.4648c-0.39444 3.0056-0.81061 16.409-0.92491 29.786-0.17412 20.371-0.53485 25.948-2.2213 34.336-2.7979 13.917-4.0258 19.67-5.4955 25.752-0.69724 2.8852-1.8962 8.6794-2.6643 12.876-0.76812 4.1966-2.08 11.278-2.9153 15.737-0.83528 4.459-2.3684 14.116-3.407 21.46-3.7729 26.679-6.1043 34.436-13.43 44.686-7.2345 10.122-16.998 18.943-25.868 23.374l-3.1358 1.5662v15.26c0 16.296-0.30674 14.645 6.7586 36.243 1.2012 3.672 3.2858 11.183 4.6324 16.691 1.3465 5.508 4.2175 15.165 6.38 21.46 8.6201 25.094 9.4118 27.729 9.4446 31.44 0.0186 2.1175 0.65581 6.425 1.4158 9.5725s1.3885 8.0708 1.3967 10.941c0.0186 6.4327-3.6606 33.274-4.8705 35.535-0.93658 1.75-10.501 8.5116-13.713 9.6946-9.429 3.4725-30.15 4.4736-35.716 1.7256zm16.271-323.61c1.5864-4.4094 3.7441-10.592 4.7949-13.74s2.2562-6.581 2.6787-7.6302c2.2561-5.6025 4.1558-17.821 4.7457-30.521 0.36539-7.8686 1.1521-15.165 1.7482-16.214 3.8738-6.8181 7.1704-37.422 5.165-47.95-0.57212-3.0035-1.2898-7.7345-1.5949-10.513-0.93364-8.5045-4.9271-22.175-9.0304-30.913-2.1453-4.5684-4.3173-8.5639-4.8268-8.8787-0.50946-0.3147-0.92627-1.353-0.92627-2.307 0-0.9539-0.59938-2.2318-1.3319-2.8397-1.0958-0.9094-1.4226-0.3806-1.8438 2.9829-0.28155 2.2486-1.0057 6.8782-1.6093 10.288-1.1423 6.4535-0.91296 18.42 1.0694 55.796 1.08 20.364 0.12791 52.543-2.2294 75.348-1.5362 14.861-1.9975 37.408-0.73964 36.154 0.57541-0.574 2.3441-4.6514 3.9305-9.0609zm207.82-1084.5c2.0978-2.1616 3.8141-4.0929 3.8141-4.292 0-0.19903 0.7511-1.1506 1.6691-2.1147 0.91805-0.96405 2.2217-2.5735 2.8969-3.5766 0.67528-1.0031 0.92336-1.18 0.55138-0.39319-0.46024 0.97336-0.0143 0.8499 1.395-0.38627 1.1393-0.9993 2.0715-2.4657 2.0715-3.2587 0-0.79301 0.24114-1.2007 0.53571-0.90606 0.29472 0.29467 1.6729-0.51813 3.0629-1.8062 2.1101-1.9557 2.2971-2.4964 1.1332-3.2779-1.1202-0.75225-1.0261-0.88132 0.47927-0.65769 1.2318 0.18296 2.0046-0.36667 2.2573-1.6056 0.21138-1.0361 1.0853-2.4173 1.9422-3.0694 2.1063-1.6031 1.0231-1.5451-2.3492 0.12586-1.5232 0.75471-3.9168 1.8046-5.3192 2.333-1.5596 0.58772-2.6708 1.8142-2.8613 3.1582-0.2299 1.6218-1.0339 2.2798-3.0693 2.5122-1.5168 0.17314-3.0752-0.19868-3.463-0.82629-0.51975-0.84088-1.1743-0.8686-2.4879-0.10537-1.2584 0.73112-1.376 1.0442-0.39972 1.0647 2.3401 0.049-0.26259 1.9046-2.9878 2.1302-1.5726 0.13016-2.303 0.6516-2.004 1.4308 0.25873 0.67429 0.78972 1.0287 1.1798 0.78754 1.344-0.83057 4.9268 3.4605 4.6298 5.5449-0.24115 1.6922-1.0324 2.1108-4.4539 2.3563-4.089 0.29338-4.1506 0.34886-3.5766 3.219 0.3212 1.6062 0.58408 3.5106 0.58408 4.2319 0 1.9931 0.62998 1.6473 4.7699-2.6186zm-453.51-13.584c1.3053-1.3053 3.1384-13.006 2.0375-13.006-0.9189 0-3.1896 5.9845-3.9272 10.35-0.70375 4.1654-0.25312 4.7988 1.8897 2.6559zm3.3322-46.422c0-1.355-0.45655-1.1472-2.475 1.1261-1.8072 2.0354-1.8054 2.0403 0.32905 0.92023 1.1803-0.61936 2.146-1.5402 2.146-2.0463zm254.96-270.84c3.2836-2.4148 4.765-2.86 9.515-2.86 4.1589 0 6.3483 0.51436 8.3961 1.9725 2.313 1.647 2.7701 1.7257 2.7701 0.47689 0-1.8911 1.3209-1.9211 2.8613-0.0649 1.3089 1.5772 4.2805 2.0017 3.3382 0.47689-0.32418-0.52457-0.11982-0.95377 0.45416-0.95377 0.73952 0 0.72435-0.59653-0.0522-2.0471-0.97635-1.8243-0.88236-1.9914 0.86327-1.5348 1.8976 0.49622 2.1471 0.16161 4.443-5.9558 0.0984-0.26229 0.57112-1.3353 1.0504-2.3844 0.47926-1.0492 0.841-4.7087 0.8038-8.1323-0.0573-5.2644-0.58871-7.1718-3.4458-12.363-1.8581-3.376-4.1506-6.5837-5.0946-7.1281-0.94388-0.54439-2.4742-1.6336-3.4006-2.4205-6.3574-5.3996-7.6962-5.8717-15.445-5.4466-7.4382 0.40814-13.568 2.861-17.351 6.9425-1.1663 1.2584-2.3788 2.0298-2.6944 1.7142-0.93615-0.93615-1.8767 4.2235-1.2355 6.778 0.32554 1.2969 1.3869 3.121 2.3585 4.0535 2.9507 2.8318 3.6292 5.2338 3.3081 11.71-0.2538 5.1194-0.82764 6.9388-3.2934 10.443l-2.986 4.243 2.7368 2.4445c3.8829 3.4682 7.4185 3.4789 12.099 0.0365zm-346.04 74.539c-0.72588-1.8916 4.3669-6.8203 7.0474-6.8203 0.97665 0 2.3061-0.63908 2.9543-1.4202 0.64826-0.78108 1.5592-1.185 2.0243-0.89749s0.84571-4e-3 0.84571-0.64634c0-0.64297 0.27343-0.89557 0.60766-0.56136 0.33423 0.33423 1.7553-0.2095 3.1579-1.2083 1.4026-0.99877 3.7014-2.1049 5.1084-2.458 1.407-0.35313 2.378-0.9335 2.1578-1.2897-0.22015-0.3562 0.31932-0.70414 1.1988-0.77318 1.5607-0.12252 4.938-0.87313 5.891-1.3093 0.2623-0.12004 0.90609-0.29766 1.4307-0.39471 5.9682-1.1041 8.8934-1.9264 10.491-2.9491 2.1285-1.3622 14.464-6.2267 16.691-6.5822 1.6509-0.2635 3.8843-1.043 8.584-2.9958 1.836-0.76292 3.7194-1.3337 4.1853-1.2683 0.46592 0.0653 1.1097-0.23976 1.4307-0.678 0.80208-1.0952 12.868-5.0888 15.375-5.0888 1.1194 0 2.6792-0.64379 3.466-1.4307 0.78686-0.78686 2.2331-1.4306 3.2138-1.4306s2.0484-0.4292 2.3726-0.95378c0.32422-0.52458 1.7562-0.95376 3.1823-0.95376 1.426 0 3.4394-0.58291 4.4741-1.2954 1.0347-0.71243 3.3868-1.5708 5.2268-1.9074 1.84-0.33665 5.3613-1.6851 7.8249-2.9966 2.4637-1.3115 5.1149-2.3846 5.8916-2.3846 0.77675 0 2.6205-0.49851 4.0972-1.1078 1.4767-0.60928 3.0069-1.0385 3.4003-0.95377 0.39342 0.0847 0.71532-0.21653 0.71532-0.66943 0-0.45289 2.5877-1.3726 5.7506-2.0438 3.1628-0.6712 5.9779-1.5882 6.2558-2.0379 0.27788-0.44963 1.4802-0.81752 2.6718-0.81752s4.2637-1.0618 6.827-2.3594c4.379-2.2169 5.3827-2.336 16.614-1.9714 6.5745 0.21344 14.314 0.86874 17.199 1.4562 2.8852 0.58747 7.133 1.0811 9.4395 1.0971 2.3066 0.0159 4.8818 0.35278 5.7226 0.74855 5.7144 2.6896 7.1705 3.5854 8.008 4.9268 1.2601 2.0183 0.10032 7.8036-1.9636 9.7946-17.636 17.013-19.851 18.486-25.891 17.218-1.8823-0.39523-3.76-0.75188-4.1725-0.79254-0.41261-0.0407-1.1044-0.64711-1.5373-1.3476-0.43299-0.70053-1.1684-1.2884-1.6343-1.3065-0.46596-0.018-1.9202-0.47631-3.2316-1.0184-3.3336-1.3779-14.035-1.2925-18.599 0.1484-2.0983 0.6625-7.034 1.861-10.968 2.6634-18.209 3.7135-21.529 4.4842-22.501 5.2239-0.57284 0.43564-1.2632 0.57042-1.5341 0.29949-0.27092-0.27091-2.4655 0.35312-4.8769 1.3868-2.4114 1.0336-7.086 2.1733-10.388 2.5327-3.3021 0.35935-6.4998 1.0456-7.1061 1.5251s-2.9565 1.0952-5.2227 1.3684c-2.2662 0.27315-4.5599 0.85701-5.0972 1.2975-0.53724 0.44043-2.479 0.92488-4.315 1.0765-1.836 0.15165-3.7674 0.50242-4.292 0.77948-1.1486 0.60668-2.6109 0.92818-7.6302 1.6775-2.0983 0.31326-4.5773 0.96158-5.509 1.4406-0.93163 0.4791-3.2922 1.067-5.2457 1.3065-1.9535 0.2395-4.6248 0.82733-5.9363 1.3063-2.9918 1.0928-7.3884 2.1374-10.491 2.4927-4.5122 0.51673-23.374 4.2867-28.136 5.6235-6.7278 1.8888-14.48 1.7516-15.256-0.26998zm176.48-102.9c-1.3321-1.4366-3.099-4.6505-3.9266-7.1421-0.82756-2.4916-1.901-4.7751-2.3856-5.0745-0.48442-0.29944-0.88342-1.914-0.88671-3.5879 0-1.6739-0.63609-4.2518-1.4063-5.7285-0.77027-1.4768-1.5907-3.8374-1.8232-5.2458-0.23248-1.4084-0.51167-2.668-0.6204-2.7991-0.10873-0.13115-0.32247-1.4188-0.47497-2.8613-0.15252-1.4426-0.45295-4.125-0.66763-5.9611-0.58412-4.9953 1.0524-11.202 3.455-13.104 1.1668-0.92361 2.9207-3.0376 3.8976-4.6978 0.97692-1.6602 2.7868-3.479 4.0222-4.0418 1.2352-0.56281 2.6601-2.1126 3.1662-3.4439 0.50617-1.3313 1.6778-2.6995 2.6037-3.0404 0.92592-0.34091 2.6286-1.6175 3.7839-2.8369 1.1553-1.2194 2.5501-2.217 3.0998-2.217 0.54959 0 1.002-0.53651 1.0053-1.1922 8e-3 -1.0581 2.7331-3.1404 7.7595-5.9235 0.91012-0.50393 1.8461-1.6482 2.0801-2.5428 0.23391-0.89461 2.8355-2.7668 5.7813-4.1604 2.9458-1.3936 5.356-2.9819 5.356-3.5295s0.85324-0.7726 1.8962-0.49987c1.0429 0.27271 2.867-0.23926 4.0536-1.1378 1.1865-0.89848 3.6595-1.727 5.4955-1.8411 2.1513-0.13375 3.9084-0.95629 4.9421-2.3134 0.88213-1.1582 1.9043-1.8055 2.2714-1.4384 0.3671 0.36714 1.4581 0.24439 2.4245-0.27276 1.1789-0.63096 3.1826-0.5813 6.0903 0.15087 4.8268 1.2154 6.0618 2.3842 4.2682 4.0394-0.94381 0.87103-1.0646 0.72187-0.56268-0.69489 0.55216-1.5586 0.43335-1.6332-0.8737-0.54854-1.3493 1.1199-1.3553 1.3436-0.055 2.0711 2.1625 1.2102 0.2126 4.7726-3.7932 6.9299-3.3738 1.817-3.9632 3.1148-2.3046 5.075 0.52898 0.62512 0.70511 0.95861 0.39136 0.74108-0.79552-0.55163-6.1219 4.6677-6.1219 5.9988 0 0.59893-0.54201 1.089-1.2045 1.089s-1.6282 0.91701-2.146 2.0378c-0.51782 1.1208-1.3227 1.9425-1.7887 1.8261-0.46589-0.11644-1.2104 0.36143-1.6545 1.062-0.60373 0.95252-0.81103 0.97307-0.82191 0.0814-0.0293-2.3921-1.8023-1.1071-2.8492 2.065-0.59122 1.7914-2.5269 4.4974-4.3015 6.0132-1.7746 1.5158-3.7536 3.9129-4.3978 5.3268-0.64422 1.4139-1.5082 2.5707-1.9199 2.5707-0.93194 0-3.1694 3.98-6.5684 11.684-0.52076 1.1803-1.3118 2.7898-1.7578 3.5766-3.9575 6.982-9.6944 25.159-9.6944 30.716 0 2.6785-5.1146 7.4345-7.9952 7.4345-1.4112 0-3.4283-1.0883-4.8411-2.612zm303.36 1.9159c-0.23593-0.23593-2.7152-0.55861-5.5096-0.71708s-7.4412-0.56979-10.326-0.91405c-2.8852-0.34425-8.5695-1.0221-12.632-1.5063-14.204-1.693-18.083-6.2771-11.649-13.765 12.868-14.975 19.13-19.36 24.055-16.845 1.9526 0.99718 12.928 4.4848 16.65 5.2909 1.4271 0.30907 4.2169 0.15686 6.1995-0.33826 1.9826-0.49512 7.2529-1.7982 11.712-2.8957 4.4588-1.0975 13.687-3.4815 20.506-5.2977 20.593-5.4847 26.951-7.0229 51.504-12.461 17.247-3.82 29.391-6.3697 32.428-6.8088 1.5737-0.2275 3.5051-0.66441 4.292-0.97091 0.78685-0.30651 2.7183-0.71601 4.292-0.90999 1.5737-0.19399 4.921-0.76974 7.4386-1.2794 2.5176-0.50971 5.8439-0.92676 7.3917-0.92676 1.5479 0 2.8144-0.42919 2.8144-0.95376 0-1.569 3.8276-1.0773 4.4609 0.57314 0.66649 1.7368-1.2693 3.3088-3.1742 2.5779-0.69883-0.26819-1.5268 0.17996-1.8399 0.99588-0.31313 0.81591-2.1409 1.9813-4.0615 2.5898-1.9209 0.60848-5.3705 2.1314-7.6661 3.3843-2.2953 1.2529-4.5429 2.278-4.9942 2.278-1.2693 0-27.912 11.489-28.935 12.477-0.4983 0.48151-1.7235 0.87547-2.7228 0.87547-0.99917 0-4.025 1.1192-6.7241 2.4872-2.6989 1.368-6.9062 3.0896-9.3494 3.8258-2.4431 0.73623-5.662 1.9749-7.1533 2.7527-1.4912 0.77775-3.2478 1.4167-3.9035 1.42-0.65575 3e-3 -1.1922 0.34147-1.1922 0.75162 0 0.41017-1.1508 0.841-2.5573 0.95742-1.4066 0.1164-3.5374 0.85381-4.7354 1.6387-1.1978 0.78486-2.9441 1.4366-3.8805 1.4484-0.93651 0.0117-4.2779 1.2897-7.4253 2.8399-3.1474 1.5502-6.8171 2.8282-8.1548 2.8399-1.3377 0.0118-2.8398 0.39771-3.3382 0.85768-0.49836 0.45997-4.1251 2.0056-8.0594 3.4349-3.9343 1.4292-10.587 3.8516-14.783 5.3832-8.2289 3.0031-18.282 5.6043-18.977 4.91zm156.8-61.299c0-0.52458 0.45451-0.95378 1.01-0.95378 0.55564 0 0.74482 0.4292 0.42066 0.95378-0.32424 0.52457-0.77875 0.95376-1.0101 0.95376-0.23139 0-0.42057-0.42919-0.42057-0.95376zm-215.55-10.015c-0.70187-1.3114-1.8474-2.3844-2.5456-2.3844-0.69824 0-1.2695-0.45986-1.2695-1.0219 0-1.3205-2.4265-3.747-3.747-3.747-0.56203 0-1.0218-0.45453-1.0218-1.0101 0-0.55553-0.49557-0.70382-1.1012-0.32952-0.64015 0.39564-0.84379 0.26415-0.48642-0.3141 0.61876-1.0012-6.4794-7.884-8.1306-7.884-0.48721 0-0.62061-0.42919-0.29637-0.95377 0.3242-0.52457 0.20059-0.95376-0.27468-0.95376-0.47526 0-1.8538-0.8584-3.0635-1.9076s-2.7027-1.9075-3.3179-1.9075c-0.61512 0-2.1265-1.073-3.3585-2.3844-1.2321-1.3114-2.7565-2.3844-3.3877-2.3844-0.63113 0-1.659-0.6162-2.284-1.3694s-2.5017-1.6519-4.1703-1.9973c-2.8386-0.58753-9.0697-4.186-11.924-6.8864-0.69322-0.65572-2.7012-1.1922-4.4623-1.1922-1.7611 0-3.7691-0.55463-4.4623-1.2325-1.5016-1.4684-6.7885-3.7278-8.0204-3.4274-1.4796 0.36073-8.0163-1.2334-8.5414-2.083-0.27327-0.44219-1.1181-0.56559-1.8774-0.27421-1.2026 0.46149-4.154-0.62784-12.537-4.6273-2.7536-1.3137-3.2728-4.7353-1.1218-7.3917 0.96118-1.187 1.7475-2.939 1.7475-3.8935 0-1.4746 0.42984-1.612 2.8613-0.91469 1.7167 0.49235 2.8613 0.46571 2.8613-0.0666 0-0.48795 0.64381-0.8872 1.4307-0.8872 0.78685 0 1.4307-0.41265 1.4307-0.917s1.8241-1.3889 4.0536-1.9656c2.2295-0.57672 5.7704-1.6822 7.8686-2.4566 4.0502-1.4948 15.587-3.2691 21.937-3.3737 5.6231-0.0927 9.4647 1.2082 13.035 4.4138 1.7484 1.5698 3.4324 2.7729 3.7423 2.6735 0.30987-0.0994 3.3142 2.9082 6.6764 6.6835 3.3622 3.7753 8.4049 9.1175 11.206 11.871 2.8012 2.754 4.8225 5.0073 4.4918 5.0073-0.33063 0 0.49386 1.1803 1.8323 2.6229 1.3384 1.4426 2.6928 3.4813 3.0095 4.5304 0.31681 1.0492 1.3324 2.7659 2.257 3.8151 0.92449 1.0492 3.0203 4.4827 4.6571 7.6302 1.637 3.1474 2.9772 5.1146 2.9783 4.3714 0-2.1642 1.1859-0.37344 1.4715 2.2282 0.34708 3.1619 2.3686 9.3903 3.4146 10.521 0.46125 0.49835 0.83859 2.1078 0.83859 3.5766 0 2.4782-1.1194 3.2468-4.0536 2.7835-0.39343-0.0621-0.71532 0.31624-0.71532 0.84081s-1.4297 0.95378-3.177 0.95378c-2.4127 0-3.4841-0.57366-4.4531-2.3844z" fill="#f0b0a8"/></svg>
