<?xml version="1.0" encoding="UTF-8"?>
<svg version="1.1" viewBox="0 0 1300 2400" xml:space="preserve" xmlns="http://www.w3.org/2000/svg"><path d="m678.7 805c-13.749-0.0103-27.562 0.31164-32.407 0.97265-13.691 1.867-26.641 4.3604-30.053 5.7856-1.8762 0.78393-5.3479 1.7523-7.7156 2.1523-2.3677 0.40001-4.5696 1.1545-4.8921 1.6759-0.32248 0.52178-1.5573 0.9498-2.7459 0.9498-1.9097 0-5.9723 1.7622-24.733 10.742-4.926 2.3564-14.406 8.1481-26.442 16.151-9.8606 6.5563-23.635 20.181-34.269 33.895-0.6549 0.84515-0.7382 1.1795-1.341 1.9742-4.134-0.57269-8.3242-0.87666-12.524-0.9087-1.5148 0.0326-3.028 0.10066-4.5374 0.20397-0.72002 0.022-1.1994 0.0196-1.965 0.0868-10.387 0.72658-20.466 3.1153-29.592 7.0139-1.0107-0.14967-2.0069-0.56174-3.2162-1.513-1.5251-1.2-3.3588-2.1812-4.0732-2.1812s-2-1.0521-2.857-2.338c-0.85658-1.2854-3.8335-3.5075-6.6136-4.9362-2.7806-1.4288-5.2898-2.8584-5.5755-3.1767-0.28575-0.31821-3.2851-2.5387-6.6638-4.9347-4.037-2.863-6.527-4.2034-8.291-4.2452-1.0586-0.025-1.8563 0.41757-2.5709 1.2786-0.63469 0.76476-2.9126 1.9436-5.0626 2.6196-2.1495 0.6764-5.9029 3.042-8.3397 5.2574l-4.4309 4.0291 1.5236 5.5603c0.83789 3.0582 2.292 8.1326 3.2299 11.276 0.9375 3.1428 2.3161 7.8197 3.064 10.392 0.74795 2.5718 2.1379 6.9323 3.0884 9.6898 1.5676 4.55 1.5795 5.2242 0.11263 7.2742-0.88911 1.2426-3.6695 5.0964-6.1768 8.5635-2.5077 3.4665-6.3329 9.7795-8.4995 14.028-2.1671 4.2483-4.0202 7.8444-4.1189 7.9926-0.16263 0.2444-19.366 3.6363-37.132 6.5588-3.8558 0.63422-7.2731 1.577-7.5939 2.096-1.2063 1.9518-4.6886 25.191-3.8921 25.97 0.45773 0.44747 4.8062 2.8705 9.664 5.3853 16.713 8.6524 27.54 14.515 28.576 15.475 0.57153 0.5297 1.5913 3.8664 2.2649 7.4143 2.2579 11.88 3.5748 16.801 6.2179 23.203l2.6257 6.3625-7.6319 10.524c-4.1977 5.788-9.673 13.445-12.165 17.017-2.4923 3.5719-4.9472 6.6499-5.4553 6.8403-1.8655 0.6996-0.82802 3.7476 3.0336 8.9107 2.177 2.9102 5.2093 7.004 6.7384 9.0976 5.4542 7.4685 5.0275 7.3405 14.008 4.198l8.0276-2.8098c0.28024-0.1009 0.55944-0.2045 0.83717-0.3105 0.53738 6.5171 2.6862 13.594 6.5055 19.644 1.5847 2.5111 5.6332 7.3166 8.9942 10.678 3.9086 3.9087 6.3322 7.2791 6.7247 9.3519 2.398 12.666 15.819 29.11 28.392 34.791 11.01 4.9753 18.346 6.7078 28.556 6.7461 5.1431 0.019 11.105-0.3104 13.249-0.7336 3.3916-0.6699 3.8966-0.5167 3.8966 1.1811 0 2.1406-2.9275 12.108-7.0383 23.95-2.9915 8.6204-3.336 8.8614-14.189 10.006-3.9594 0.4178-9.9832 1.6487-13.384 2.7353-3.4013 1.0865-6.5851 1.9756-7.0763 1.9756-0.94054 0-7.6305 4.6369-11.938 7.7294-4.5642 2.2046-8.2395 5.3426-10.306 8.7994-3.6266 2.759-11.048 2.9099-16.838 0.1125-9.8222-4.7458-14.929-5.7671-44.441-8.8967-26.389-2.7982-69.07-5.7507-72.01-4.9819-2.659 0.6953-8.7845-3.8363-14.323-10.596-2.6921-3.2859-3.9462-6.0454-4.5588-10.038-1.9123-12.469-3.4192-18.174-5.7445-21.744-4.0883-6.2765-10.213-6.2394-13.481 0.08-3.0674 5.931-3.0679 22.519-3e-3 30.412 0.52228 1.3454-0.2083 2.2179-2.9529 3.5268-3.4575 1.649-4.096 1.6279-12.308-0.3942-4.7635-1.1731-11.116-2.4531-14.116-2.8449-2.9993-0.3916-5.7166-1.1349-6.0367-1.6529-0.32012-0.5181-1.6367-0.9423-2.924-0.9423-1.2878 0-9.3256-2.5132-17.862-5.5847-8.5361-3.0715-18.795-6.5863-22.795-7.8115-4.0001-1.2252-8.8056-2.7213-10.676-3.3244-5.0084-1.6141-9.2523 0.4811-9.3702 4.6258-0.096 3.3767 0.9147 5.8038 3.4872 8.3763 1.4935 1.4934 1.2685 1.6408-2.5313 1.6408-5.3176 0-7.8448 2.9322-6.1463 7.1342 2.9436 7.2824 17.832 17.253 33.624 22.52 4.5313 1.511 9.6405 3.3577 11.355 4.105 3.1844 1.3883 10.209 3.3929 15.328 4.3747 5.9263 1.1365 2.5136 2.3912-6.5055 2.3912-9.6196 0-21.477-1.5613-40.409-5.3213-8.2174-1.6319-11.391-1.8788-13.249-1.032-3.1624 1.4408-3.1008 4.3756 0.17199 8.2604 3.0021 3.5684 12.259 9.8916 16.089 10.99 10.603 3.0407 18.933 4.8053 30.394 6.4416 7.2862 1.0403 13.249 2.2071 13.249 2.5923 0 2.5155-10.805 14.545-18.582 20.688-5.0826 4.0153-9.4873 8.2337-9.7857 9.3749-1.0647 4.0714 5.3193 7.0696 12.002 5.6363 1.8574-0.3983 9.5572-4.8506 17.11-9.8938l13.734-9.1691 12.108 0.7183 12.107 0.7185 2.8418 8.3139c4.8547 14.202 16.459 32.375 25.862 40.51 4.2379 3.6611-1.8844 3.4654 65.867 2.1554l47.539-0.9194v9.8769c0 5.4327 0.28195 15.448 0.62713 22.249l0.62864 12.373-3.3608 4.9911c-1.8482 2.7454-9.0703 10.696-16.048 17.666-11.937 11.924-16.71 16.271-25.538 23.263-2.0269 1.6051-4.3643 3.5068-5.195 4.2269-0.83023 0.72-5.0219 3.9937-9.3123 7.2741-37.811 28.909-55.267 49.638-67.59 80.26-1.8369 4.5649-1.8516 17.894-0.0258 23.256 2.8358 8.3314 9.0774 16.929 20.451 28.179l11.556 11.431 0.68647 7.7932c1.4443 16.411 5.7712 26.427 16.211 37.522 7.833 8.3252 30.65 19.193 38.587 18.381l3.513-0.3593-4.0229-1.7931c-2.212-0.9866-7.6422-5.4184-12.067-9.8481-6.7384-6.7449-8.9086-9.8265-13.344-18.964-4.4284-9.123-8.0345-19.508-7.0992-20.444 0.13046-0.1304 2.2768 0.7923 4.7703 2.0503 3.1937 1.6111 4.9695 3.3626 6.0032 5.9241 6.7943 16.837 14.403 28.308 26.741 40.318 5.4607 5.316 9.9303 10.097 9.9303 10.624 0 1.3587-5.0103 3.7235-9.6792 4.5695-4.9642 0.8995-4.5514 3.0781 0.66669 3.5192 2.099 0.1773 3.816 0.7033 3.816 1.1689 0 1.0276-5.2098 2.1462-10 2.1462-5.1282 0-4.3936 2.4492 1.1827 3.9408 5.498 1.4704 11.854 1.6206 15.246 0.3606 1.3231-0.4914 4.0853-1.2006 6.1372-1.5754 3.599-0.6567 3.8007-0.5253 5.6973 3.6806 3.0694 6.8067 2.7109 16.042-0.83108 21.4-3.6242 5.4825-8.6917 7.959-14.862 7.2636-2.5561-0.2882-4.647-0.1884-4.647 0.2222 0 0.4104 2.4549 2.0863 5.4553 3.7246 7.1954 3.9289 22.012 4.9484 28.331 1.9498 4.2523-2.0181 11.307-8.3007 12.162-10.833 1.0086-2.9854 2.2612 0.1028 2.3152 5.7081 0.0361 3.7571-0.48031 6.179-1.5465 7.2466-1.07 1.0715-6.761 2.2819-17.145 3.6472-16.398 2.156-22.208 3.0464-37.365 5.7247-5.1431 0.9086-13.327 2.3046-18.185 3.1021-5.3009 0.9811-10.578 2.0525-15.798 3.2069-4.3736 0.895-8.2219 1.4507-14.854 3.0169-6.2861 1.4847-13.536 3.1346-16.107 3.6669-2.5718 0.5321-13.854 3.1364-25.069 5.787l-20.393 4.819-6.364-2.3196c-3.4978-1.276-6.3624-2.9379-6.3624-3.6927 0-2.7061-12.955-3.1423-25.457-0.857-2.7777 0.5081-3.2653 0.1957-4.475-2.8767-2.3282-5.9132-4.6416-10.182-6.2316-11.501-1.2504-1.0377-1.8342-0.8051-3.2041 1.2785-2.8606 4.3503-15.937 18.725-17.033 18.725-0.5719 0-1.6388-0.8191-2.3699-1.819-1.2344-1.688-1.688-1.5619-6.3488 1.7703-4.2661 3.0495-6.5022 3.8022-14.891 4.9758-5.4289 0.7624-11.368 1.6509-13.197 1.9741-2.4042 0.4247-4.1765-0.017-6.396-1.5981-4.9096-3.4964-6.3853-2.9335-6.3853 2.4383 0 4.6007-0.0346 4.6501-6.5938 8.3137-5.711 3.1941-7.5208 3.6868-13.509 3.6868-6.8793 0-6.9135 0.016-6.9135 2.9103 0 1.6002 0.48413 3.394 1.0761 3.9863 1.6343 1.6345-12.331 11.534-19.855 14.075-6.9362 2.3427-8.356 4.0834-5.7125 7.005 1.6403 1.8126 1.5805 2.047-1.0533 4.1188-1.5357 1.2079-4.0155 2.2683-5.5101 2.3577-1.4946 0.09-3.9801 0.2228-5.5238 0.2953-3.8941 0.1849-4.3282 0.9405-2.8646 4.988 1.2042 3.3315 1.0682 3.7924-2.5024 8.4705-4.3709 5.7264-4.6961 8.0552-1.4384 10.305l2.338 1.615-3.3764 0.7203c-3.9032 0.8326-4.5013 3.4151-1.2588 5.44 2.9555 1.8457 1.7521 3.0938-3.784 3.924-5.6035 0.8403-6.7258 2.762-3.5739 6.1175l2.2969 2.4444-4.7246 4.5908c-2.5981 2.5251-6.4945 5.4921-8.6594 6.5937-2.1648 1.1019-4.1198 2.1102-4.3441 2.2392-1.0213 0.5831 2.4303 3.402 4.1721 3.402 1.073 0 1.9513 0.2857 1.9513 0.6346s-2.1042 3.6439-4.676 7.3229c-2.5713 3.679-4.673 7.4857-4.6698 8.4585 4e-3 0.9728 1.4368 2.5821 3.1843 3.5769 3.4418 1.9589 3.228 3.4922-0.69408 4.9836-2.3041 0.8759-3.5141 3.0578-1.717 3.0944 0.42864 0.01 1.4287 0.4274 2.2223 0.9299 1.1388 0.7211 0.70008 1.649-2.0792 4.4005-1.9372 1.9176-4.6912 4.262-6.1189 5.2088-2.1474 1.4237-2.398 2.0523-1.446 3.6347 0.63315 1.0523 2.9711 2.4626 5.195 3.134 2.2244 0.6715 3.5173 1.2564 2.8722 1.3-0.64505 0.044-1.7442 1.4582-2.4415 3.1416-1.3506 3.2608-8.6385 11.268-11.941 13.119-2.9783 1.67-2.9747 3.031 0.01373 4.6257 2.5337 1.356 2.6442 1.7434 1.9148 6.6821-1.3404 9.0759-1.1674 10.403 1.4064 10.769 2.2627 0.3216 2.2817 0.4244 0.66516 3.6378-0.91473 1.8185-3.3017 5.0168-5.3046 7.1083-3.5288 3.6855-3.8213 6.0688-0.74432 6.0688 2.3952 0 1.7844 4.7134-1.615 12.458-4.5819 10.44-4.5232 11.392 0.87979 14.23 0.20064 0.1054 0.57724 1.9762 0.83716 4.1569 0.25992 2.1807 0.68489 4.5972 0.94372 5.3715 0.25884 0.7741-0.68356 4.6065-2.0929 8.5147-1.4098 3.9083-2.8866 9.5423-3.2817 12.521l-0.71844 5.4157 3.7931-0.6165 3.7946-0.6148-0.5708 5.9104c-0.9959 10.318-1.4379 11.787-4.6486 15.443-3.4581 3.9391-3.2767 5.5329 0.6332 5.5329 2.8126 0 2.771-0.08 4.5725 8.6913l1.2512 6.0947 3.4141-0.554c4.0227-0.6529 5.7354 0.7099 5.7354 4.5602 0 1.847-0.89865 3.3797-2.6607 4.5343-3.6606 2.3989-3.1201 6.1615 0.95285 6.6274 3.2469 0.3714 3.2354 0.1975 1.029 16.545-0.55695 4.1265-0.4348 4.4144 1.86 4.3716 1.3508-0.025 4.2106-0.6721 6.3533-1.4369l3.8966-1.3912v10.413l4.1554-0.6653c3.5959-0.575 4.1569-0.4041 4.1569 1.2665 0 1.062 0.74655 3.4282 1.6591 5.2575 1.2954 2.5975 1.5 4.9129 0.93306 10.554-0.39929 3.9759-1.1533 7.4932-1.6759 7.8161-1.5455 0.9552 0.0595 2.5222 2.583 2.5222 1.2858 0 3.2459-0.6875 4.3548-1.5266 1.1094-0.8392 2.323-1.5407 2.6957-1.5586 1.1316-0.056 2.8172 5.859 3.5724 12.535 0.42212 3.7309 1.2778 6.5285 2.0944 6.842 0.75983 0.2915 3.5223-0.2869 6.1387-1.2863 5.3058-2.0264 5.4194-1.9676 8.9912 4.7367 6.5705 12.334 9.7374 15.758 20.424 22.088 7.3895 4.3768 11.615 5.0586 11.615 1.8738 0-3.2335 1.4902-3.3331 7.6563-0.5098 7.5093 3.438 13.474 3.217 14.002-0.5191 0.19621-1.3895 2.0753-4.6632 4.1767-7.2743 4.6046-5.7219 7.0976-10.681 8.014-15.946 0.39369-2.2621 1.5113-4.3691 2.6394-4.9728 1.0765-0.5762 1.9574-1.7322 1.9574-2.5694 0-0.837 0.42697-1.5221 0.94827-1.5221 2.1707 0 15.678-8.6131 15.678-9.9972 0-0.8281-0.72925-2.6193-1.621-3.9805-1.3638-2.0812-1.4056-2.8287-0.26028-4.7062 1.1987-1.9652 1.0805-2.4638-0.98938-4.1617-1.2935-1.0606-2.929-2.1213-3.6333-2.3561-1.3761-0.4588 3.5024-7.7458 9.1114-13.612 10.17-10.636 11.179-14.036 4.9256-16.574-2.1432-0.8698-5.671-3.4172-7.8405-5.6607-3.4664-3.585-3.7498-4.2454-2.338-5.4127 2.1289-1.7667 2.0366-3.8083-0.21159-4.6745-1.7314-0.6671-1.7314-0.7493 0-1.7215 2.6877-1.5089 2.2334-3.7388-1.6956-8.329l-3.5131-4.1052 3.0397-5.4127c1.6722-2.9767 4.6254-7.5152 6.5619-10.087 1.9369-2.5718 3.5532-4.9896 3.5907-5.3716 0.038-0.3821 4.3947-6.394 9.6807-13.36 5.286-6.9655 10.079-13.433 10.65-14.372 6.1041-10.032 52.068-59.378 55.308-59.378 0.56197 0 1.4704 1.5201 2.0168 3.3776 0.92771 3.1527 1.2776 3.3639 5.2863 3.1858 3.4765-0.1546 4.1776 0.1119 3.682 1.4033-0.85276 2.2225 1.5104 3.4289 6.7521 3.4476l4.4628 0.016-0.68494 3.6545c-1.3581 7.2391 3.4876 12.753 8.7385 9.9424 2.4101-1.2898 6.4163-1.5093 6.367-0.3485-0.0182 0.4286-0.71251 1.6772-1.5419 2.7734-2.5314 3.3459-0.17212 4.7612 7.9364 4.7612h7.1463v3.2148c0 2.3505 0.5635 3.3614 2.0975 3.7625 1.5371 0.402 2.0236 1.2783 1.8189 3.2803-0.25069 2.4514 0.10678 2.7626 3.4963 3.0457l3.7764 0.315 0.50992 20.468c0.28039 11.257 1.0146 21.869 1.6302 23.584 0.6151 1.7145 2.3586 6.8576 3.8753 11.43 9.3031 28.046 25.422 53.475 40.275 63.548 2.391 1.6214 4.5805 3.1942 4.8662 3.4948 2.0908 2.1992 14.459 8.8229 18.253 9.7752 1.5856 0.3978 4.0895 1.6773 5.5634 2.8432 2.4224 1.9122 3.5668 2.0519 11.921 1.405 11.473-0.8882 11.8-1.019 13.641-5.4249 1.3728-3.281 1.7791-3.5358 4.6896-2.8965 1.7522 0.3803 6.0636 1.8683 9.5787 3.2968 5.2872 2.1485 7.3594 2.4765 11.988 1.8982 5.4258-0.678 5.5756-0.7837 4.9226-3.4706-0.89805-3.6949-3.2496-5.3598-14.186-10.044-5.0719-2.1722-9.221-4.1969-9.221-4.4994 0-0.3024 0.53982-2.0455 1.201-3.8738 1.0448-2.8894 0.89836-3.8173-1.1233-7.0885-1.9284-3.1211-2.9245-3.7627-5.8297-3.7627-4.9777 0-8.4603 1.8771-9.8907 5.3304-0.67946 1.6405-1.373 2.9819-1.5419 2.9819-0.16891 0-5.3743-1.8073-11.565-4.0169-9.2813-3.3124-12.796-4.0514-20.028-4.2148-8.2888-0.1871-8.9749-0.3866-12.469-3.5374-2.0337-1.8361-4.6319-4.0391-5.7749-4.8951-1.1426-0.8559-5.0667-4.732-8.7187-8.6135l-6.6395-7.0566 0.52362-19.147c0.28856-10.53 0.99503-19.737 1.5693-20.46 0.57428-0.7234 1.3684-3.1092 1.7641-5.3031 1.1305-6.268 2.777-9.2016 4.6714-8.32 0.89834 0.4182 3.5041 0.84 5.7902 0.9377 3.7136 0.1584 4.3023 0.5566 5.5162 3.7429 1.9055 5 4.8295 6.6777 8.0079 4.5953 2.3492-1.5396 2.5288-1.4546 4.7962 2.2755 1.2954 2.1307 3.2095 4.6411 4.2543 5.5785 2.0695 1.8574 10.515 3.5157 12.297 2.4142 0.60919-0.3766 1.9832 0.1061 3.0519 1.0731 1.3844 1.2529 2.846 1.5604 5.0854 1.0686 2.8335-0.6224 3.2899-0.351 4.6424 2.7595 0.82511 1.8975 2.7552 4.7586 4.2894 6.3579 2.5033 2.6103 3.259 2.8368 7.3762 2.2193 3.8832-0.5824 4.5877-0.4191 4.5877 1.0654 0 1.4533 0.90925 1.707 5.3076 1.4734 4.998-0.2652 5.383-0.1045 6.6121 2.7793 2.3506 5.516 5.2632 7.2196 12.349 7.2196 6.3245 0 6.388 0.029 6.7278 3.1172 0.38688 3.5164 3.8612 7.7926 6.332 7.7934 0.90052 3e-4 3.6237 2.3053 6.0504 5.1233 4.1893 4.8653 4.5822 5.0757 7.7856 4.1571 4.5323-1.3001 4.9469-1.2356 4.9469 0.7122 0 1.3218 0.60835 1.5197 2.857 0.9287 1.5712-0.4133 4.3772-0.735 6.2346-0.7156 0.83269 0.01 0.88538-0.1324 1.3806-0.1659 0.25888 0.015 0.5189 0.023 0.77932 0.026 0.53805 0 1.0745-0.03 1.6028-0.079-0.21306 0.632-0.24256 1.5838-0.64538 1.7246-0.93086 0.3257-0.72852 1.0955 0.71388 2.72 1.107 1.2467 2.6188 2.0358 3.3578 1.752 0.73944-0.2838 2.7911 0.8053 4.5588 2.4201 1.7681 1.615 5.0999 3.5579 7.4036 4.3183 2.3041 0.7604 4.4248 1.9928 4.711 2.7384 0.79139 2.0623 3.2 1.6198 4.51-0.828 1.166-2.1796 1.1745-2.1785 3.988 0.5173 3.1348 3.0035 5.3076 2.1489 5.3076-2.0867 0-2.2284 0.28559-2.287 9.3504-1.9346 11.028 0.4285 11.744-0.1785 11.308-9.5955-0.26565-5.7345-0.21957-5.8327 4.1402-8.991 3.437-2.4899 4.285-3.6853 3.8494-5.4204-0.36895-1.47 0.19155-2.8916 1.65-4.1888 3.2772-2.9154 6.2055-9.9019 4.8404-11.547-0.60652-0.7374-1.6892-1.3291-2.4065-1.3291s-1.8607-0.6696-2.5404-1.4887c-0.97027-1.1696-0.8567-2.0682 0.53274-4.1888 0.97291-1.4849 2.0164-2.4526 2.3182-2.1507 1.1345 1.1345 4.4627 11.781 6.9835 22.345 1.4357 6.0133 3.5017 13.981 4.5907 17.696 1.089 3.7147 2.7832 10.261 3.7642 14.547 0.98102 4.2863 2.3874 10.131 3.1264 12.988 6.4381 24.892 8.5097 36.872 10.777 62.346 1.5086 16.953 6.1786 37.62 10.767 47.644 5.8553 12.79 18.369 21.394 32.322 22.234 14.964 0.2695 27.431-10.102 26.308-24.448-0.70733-7.2178-2.7202-17.964-4.0322-21.529-1.1779-3.2011-13.17-28.08-15.777-32.732-2.8952-5.1652-5.8845-12.569-5.8845-14.576 0-1.1277-0.43408-2.0504-0.96504-2.0504-0.53095 0-1.7438-2.6882-2.6957-5.9742-0.9518-3.2862-2.1704-6.5094-2.7063-7.1617-0.53587-0.6522-0.86933-2.9896-0.74278-5.195 0.12658-2.2052-0.1402-7.4003-0.59213-11.544-0.84057-7.7064-0.29013-9.5571 1.4673-4.9346 0.8603 2.2626 1.6269 2.6014 5.9484 2.6302 5.4 0.036 8.1101 1.4731 8.7994 4.6684 0.24891 1.1542 1.0974 1.884 1.9392 1.6681 3.4395-0.8818 4.4705-0.513 6.0596 2.1646 0.92 1.5504 2.9776 3.8203 4.5725 5.0443 2.603 1.9977 3.2338 2.0868 6.1661 0.872 2.5016-1.036 3.3629-1.061 3.6805-0.1079 0.50064 1.5019 9.9391 1.6883 12.628 0.2496 1.4522-0.7771 2.5016-0.3237 4.8023 2.0776 2.3189 2.4205 3.8405 3.0671 7.1661 3.0671 2.322 0 5.4568-0.6506 6.9668-1.4383 2.5447-1.3302 2.8255-1.2568 3.8738 1.044 1.8438 4.0469 7.1961 2.9559 7.6745-0.6254 0.35437 0.025 0.70973 0.042 1.0655 0.051 0.67217-0.01 1.3435-0.038 2.0107-0.097 0.14737 0.1031 0.13304 0.3456 0.29529 0.4078 0.85726 0.3291 1.5586 1.2426 1.5586 2.0292 0 0.7864 0.98297 2.321 2.1858 3.4095 1.975 1.7874 2.1196 2.6834 1.4871 9.2529-1.2065 12.531-4.5041 30.359-6.2362 33.704-1.2185 2.3562-1.4786 4.5935-0.97415 8.3961 0.37829 2.8513 0.18766 7.171-0.42467 9.5985-0.61224 2.4272-2.5998 10.958-4.4157 18.959-1.8159 8.0012-3.705 15.483-4.198 16.626-0.49301 1.1431-1.314 3.9485-1.825 6.2346-0.82406 3.6861-2.8802 10.934-10.609 37.408-1.168 4.0005-2.5996 8.426-3.1828 9.8345-0.58316 1.408-1.3215 5.6657-1.6393 9.4522-0.45668 5.447-0.0897 8.3981 1.7474 14.066 4.8319 14.908 11.984 26.073 20.291 31.678v-0.01c4.438 2.9945 11.022 2.1812 20.45-2.5266 10.818-5.402 20.541-13.556 23.655-19.838 3.3484-6.7535 3.9778-15.124 5.2057-69.164 1.0695-47.062 1.6399-53.8 5.0078-59.191 1.9648-3.145 2.1672-4.5483 1.612-11.116-0.51772-6.125-0.19944-8.9207 1.7139-15.104 4.7154-15.234 5.8286-17.975 7.3381-18.031 0.83599-0.031 3.6431-1.0257 6.2376-2.21 6.9253-3.1613 11.389-3.9866 11.389-2.1053 0 0.8329 0.62532 2.034 1.3897 2.6684 1.0643 0.8833 1.9765 0.5186 3.8966-1.5571 1.9646-2.1238 10.012-6.6166 11.853-6.6167 0.18814 0 0.64148 1.7579 1.0061 3.8966 0.36474 2.1432 1.557 5.0663 2.65 6.495l1.9879 2.5982 5.7399-3.0746c5.5339-2.9632 5.7925-3.0031 7.1646-1.1264 1.375 1.8806 1.5921 1.8513 6.405-0.8388 2.7402-1.5315 5.0811-2.6612 5.2026-2.51 0.12142 0.1512 0.76936 1.3276 1.4384 2.6136 0.66905 1.2859 1.9011 2.338 2.7383 2.338 0.83707 0 1.5221 0.1751 1.5221 0.3881 0 1.2214-4.6786 10.691-5.7125 11.562-1.6173 1.363-5.7186 11.263-5.7186 13.8 0 1.0913 0.93628 2.8302 2.0792 3.8645 1.143 1.0345 2.0777 2.2704 2.0777 2.746 0 0.4758-3.2888 2.5212-7.3077 4.545-7.3463 3.702-11.832 8.5474-10.681 11.548 1.0388 2.7072 9.2606 1.6786 17.684-2.2132 4.3293-2.0003 8.606-3.6378 9.5041-3.6379 0.89809 0 2.6121 1.2302 3.8099 2.7323 2.9204 3.6625 12.496 4.8964 14.691 1.8936 2.0933-2.8628 1.6894-5.8861-1.204-9.0066l-2.5983-2.802 8.5726-4.4615c7.5086-3.9079 8.9252-5.1057 11.407-9.6564 1.5583-2.8575 2.8438-5.767 2.8571-6.4659 0.0172-1.119 1.4156-4.4889 6.7826-16.395 0.77286-1.7145 2.0006-4.8725 2.7291-7.0183l1.3242-3.9028 3.7308 3.6425c2.0513 2.003 3.9781 3.6423 4.2817 3.6423s3.203-2.5947 6.4446-5.7551c5.1675-5.0453 6.16-5.6123 8.049-4.6014 1.7875 0.9567 2.5413 0.7428 4.4218-1.2602 3.5471-3.7783 11.712-10.204 12.965-10.204 0.62302 0 1.9614 1.4028 2.9742 3.1173 2.059 3.4856 5.0957 4.1056 6.0094 1.2268 1.0474-3.3006 5.5312-8.6968 6.2544-7.5268 0.37497 0.607 1.7612 1.1035 3.0792 1.1035 1.3179 0 3.5896 0.9362 5.0382 2.0792 1.453 1.143 3.0869 2.0776 3.6318 2.0776s2.1045-2.0991 3.4659-4.6652c1.7765-3.3488 2.9603-4.5127 4.1918-4.1219 1.2486 0.3963 2.3405-0.7477 4.0123-4.201 1.6939-3.4992 2.7573-4.601 4.0459-4.1919 0.9615 0.3052 5.217 0.6065 9.4553 0.6711 7.2912 0.1111 7.8349-0.041 10.113-2.857 1.3243-1.6362 2.6828-4.0263 3.0184-5.3122 0.5158-1.9769 1.3148-2.3379 5.1737-2.3379 3.245 0 5.1906-0.6289 6.7368-2.1751 1.3467-1.3466 2.9676-1.9659 4.2575-1.6287 2.6711 0.6987 4.9985-0.1983 4.9985-1.9255 0-0.5688-0.7432-0.5381-1.3789-0.5814 1.1864-3.1767 2.0853-2.2777 4.4354-5.0945 1.6504-1.9909 2.8053-3.9362 2.5662-4.3229-0.2388-0.3866 3.6584-1.0115 8.661-1.3881s9.6495-0.8591 10.326-1.0732c0.845-0.267 1.0488-2.1484 0.6499-6.0124l-0.5814-5.6226 5.0914-0.6758c5.9134-0.7844 12.378-3.9783 12.17-6.0124-0.079-0.7741-0.4801-2.2253-0.8905-3.2254-0.647-1.5767-0.1095-1.8189 4.0412-1.8189 6.2138 0 8.9425-2.5367 8.9425-8.3123v-4.1565h4.1569c3.0019 0 4.157-0.433 4.157-1.5586 0-0.8572-0.4682-1.5587-1.0398-1.5587-0.5713 0-1.0395-0.4682-1.0395-1.0395 0-0.5716 0.3506-0.9827 0.7793-0.9148 0.4287 0.068 3.4692 0.068 6.7553 0 5.6083-0.1155 5.9742-0.2799 5.9742-2.6608 0-1.395 0.4895-2.8385 1.0883-3.2087 0.599-0.3701 0.9497-1.684 0.7794-2.9194-0.2753-1.9975 0.2427-2.2808 4.682-2.5648 5.9173-0.378 6.7651-1.7408 4.3077-6.9194-2.0821-4.3876-1.8343-4.8205 2.8036-4.9119 1.9162-0.039 4.6537-0.6481 6.0824-1.3561 1.4288-0.7081 4.701-1.98 7.2727-2.8252 3.275-1.0762 4.7086-2.1288 4.7827-3.5131 0.2708-5.1368 0.4424-5.3513 4.6712-6.0274 3.4834-0.5572 4.4686-1.2439 5.4233-3.7734 0.6418-1.7003 2.0692-3.3767 3.1705-3.7262 1.1017-0.3498 3.5226-2.1029 5.3808-3.895 1.8583-1.7922 4.5737-4.1936 6.0337-5.3367 1.4601-1.143 2.6776-2.8965 2.7033-3.8966 0.033-1.2507-0.493-1.825-1.1096-1.7673 1e-4 -0.8789-0.4668-1.7497-1.3761-2.5661-0.1257-0.8112-0.1789-1.6455 0.2406-1.6455 0.5301 0 2.6981-1.6362 4.8189-3.6364 2.1209-2.0002 4.3492-3.6363 4.9515-3.6363 0.6626 0 0.8491-1.2312 0.472-3.1173-0.3429-1.7145-0.1915-3.1173 0.3362-3.1173 0.5278 0 2.2212-1.1696 3.7629-2.5983 1.5416-1.4288 3.1863-2.5982 3.6545-2.5982s2.4848-1.4348 4.4827-3.1889c3.0236-2.6551 3.5331-3.6895 3.0364-6.1722-0.5342-2.6715-0.1968-3.1483 3.2333-4.5816 2.134-0.8917 3.5327-2.0784 3.1599-2.6818-0.3705-0.5996 0.9305-1.752 2.9164-2.5816 4.8469-2.0252 10.072-6.5561 10.072-8.7339 0-0.978-0.5608-2.3387-1.2466-3.0245-0.9699-0.9699-0.7746-1.2466 0.8782-1.2466 1.1688 0 2.9702-0.9363 4.0048-2.0793 1.0343-1.1429 2.5099-2.0777 3.2786-2.0777 1.5293 0 1.6857-0.7101 1.4216-6.4552-0.1533-3.4347 0.1443-3.9339 2.7566-4.5603 4.5831-1.0987 15.923-6.4128 15.923-7.4615 0-0.5188-0.9348-1.7906-2.0777-2.8251-2.8215-2.5531-2.6213-3.3512 1.0396-4.1554 1.7145-0.3765 3.1173-1.3592 3.1173-2.1827 0-0.8233 3.293-3.626 7.3183-6.23 7.7455-5.0107 8.3468-6.5123 4.4066-11.005-0.8458-0.9642-1.2269-2.2567-0.8464-2.8722 0.9363-1.515 8.3737-5.2467 10.457-5.2467 1.0355 0 1.5442-0.6957 1.3305-1.8192-0.2382-1.2513-1.6383-1.9844-4.4919-2.3545l-4.1462-0.5389 3.5039-3.3744c3.3531-3.2296 14.075-8.8643 19.421-10.206 2.9595-0.7428 3.3107-2.9612 0.7138-4.5086-1.5897-0.9471-0.801-2.0314 6.2681-8.6244 4.4469-4.1474 8.07-8.1203 8.0521-8.8297-0.018-0.7096-0.9667-1.8753-2.1097-2.589-2.7756-1.7335-2.6338-2.8112 1.0093-7.626 1.6984-2.2448 3.1016-4.6243 3.1172-5.2862 0.016-0.6621 2.1758-3.8375 4.7992-7.0581 4.818-5.9144 5.3699-8.8831 1.653-8.8831-1.7756 0-1.9133-0.6899-1.5008-7.533 0.6214-10.307-1.152-15.422-5.7582-16.609-2.9228-0.7533-3.3279-1.2254-2.7307-3.1783 0.3859-1.2615 2.2806-4.5157 4.2118-7.2316 1.9311-2.7159 3.5115-5.4474 3.5115-6.0686 0-1.9305-4.3654-5.0905-12.209-8.8375l-7.5344-3.5952v-5.7172c0-7.2089-1.9613-11.966-5.7582-13.964-1.6294-0.8573-4.1086-2.6107-5.5086-3.8966-2.2597-2.0758-3.6329-2.338-12.244-2.338-6.5555 0-11.076 0.5512-13.947 1.7003l-4.2483 1.7001-3.8692-3.7778c-3.96-3.8669-6.3445-4.7877-6.4232-2.4797-0.024 0.7145-1.845-0.7511-4.046-3.2572-3.3563-3.8221-4.4309-4.4497-6.6592-3.8905-2.3129 0.5806-7.322 5.9981-13.291 14.375l-1.6987 2.385-2.8584-2.8584c-3.8914-3.8854-5.4143-3.5952-6.7324 1.2998-0.8111 3.0119-1.6668 4.1555-3.1082 4.1555-3.0056 0-7.1362 2.0165-14.133 6.8906l-6.3306 4.4112-6.1387-3.7339c-8.2745-5.0348-50.064-26.136-59.133-29.859-4.0006-1.6422-11.248-4.5642-16.106-6.4933-4.8579-1.9295-9.7676-3.9031-10.911-4.3854-7.4899-3.1556-16.869-6.5271-24.938-8.9529-5.1435-1.5463-10.685-3.4925-12.314-4.3245-2.9557-1.5092-2.9588-1.517-0.9483-3.7688 4.1771-4.6785 6.7559-10.35 7.9622-17.509 1.9228-11.412-0.4014-20.582-8.2255-32.447l-1.9894-3.0154 5.2132 3.7444c8.2238 5.9083 16.862 15.62 19.798 22.258 2.2088 4.9935 2.5903 7.1983 2.259 13.064-0.3557 6.3003-0.7289 7.3379-3.4796 9.6807l-3.0808 2.6241 3.1173-0.6134c4.8274-0.9497 13.164-10.416 16.631-18.885 2.5713-6.282 2.9327-8.532 3.0168-18.774 0.053-6.4 0.3848-11.31 0.7382-10.911 0.3535 0.3989 1.4765 2.9652 2.4949 5.7018 2.0381 5.4766 2.529 12.927 1.1963 18.144-0.8705 3.4109-0.2768 4.0675 2.2376 2.4734 1.5372-0.9746 3.1595-15.225 2.7946-21.606 0.02-0.3078 0.03-0.6345 0.027-0.9771-0.045-0.4572 0.1358-1.6417 0.055-1.9559-0.107-0.4263-0.1673-0.3996-0.2557-0.7034-0.1636-1.2075-0.4233-2.4637-0.761-3.6789-0.5941-2.1219-1.3896-3.9902-2.2239-5.2223-2.1077-4.0784-1.8919-5.3474 1.1645-6.1145 3.3259-0.8347 12.248-6.7218 16.786-11.076 3.9543-3.7946 4.5804-2.5496 0.7793 1.5496-3.0914 3.334-3.2026 3.9302-0.7305 3.9302 1.9931 0 8.5505-6.2975 10.478-10.063 0.639-1.2482 1.1629-3.4413 1.1629-4.8739s0.4729-2.8978 1.0518-3.2558c1.2728-0.7865 11.317 3.9895 14.367 6.8313 4.1685 3.8837 20.772 13.44 23.351 13.44 1.8691 0 4.4733-2.9398 6.9989-7.889 2.4033-4.7141 2.5547-7.0065 0.5723-8.6518-0.8011-0.665-1.7448-2.3592-2.0975-3.7642-0.8228-3.2782-8.3494-8.1414-11.373-7.3488-3.0307 0.7943-7.8225-0.823-18.842-6.3426-9.393-4.7087-14.022-8.5461-14.032-11.626 0-0.9113-1.2315-3.9951-2.7322-6.8527-2.2617-4.307-2.7748-6.7941-3-14.547-0.2372-8.1645-0.6903-10.163-3.5618-15.73-1.8093-3.5068-4.9364-8.2991-6.9486-10.65-2.0122-2.3509-3.4566-4.2741-3.2117-4.2741 0.5963 0 8.7478 4.3709 12.97 6.9545 8.4077 5.1446 20.946 19.033 24.68 27.336 3.3888 7.536 4.9218 21.615 2.6514 24.346-0.9117 1.0984-0.894 1.6342 0.058 2.2254 1.6111 0.9957 5.8919-3.8903 6.7094-7.6578 0.3352-1.5445 1.7224-5.3989 3.0839-8.565 1.3615-3.1659 3.2568-9.6269 4.2101-14.358 1.6298-8.0881 1.6288-9.1111-0.072-17.104-2.2456-10.597-3.8674-14.15-10.026-22.037-10.503-13.451-28.489-21.026-54.682-23.031-5.5321-0.4236-6.4933-0.7925-6.4933-2.4872 0-1.0943 0.3918-1.9894 0.8721-1.9894 1.7336 0 3.5986-11.247 2.9285-17.654-1.4733-14.096-10.136-27.66-26.222-41.056-5.0178-4.1791-6.6496-5.265-12.39-8.2499-1.7146-0.8916-5.1786-2.7907-7.6974-4.2194-2.5142-1.4287-5.1085-2.5982-5.755-2.5982-0.6466 0-3.0094-0.9347-5.2514-2.0778-2.242-1.143-5.0894-2.0776-6.3273-2.0776-1.2381 0-2.7786-0.6382-3.425-1.4171-0.9467-1.1406-0.01-1.8493 4.8084-3.6425 10.727-3.9907 19.63-12.103 22.684-20.657 1.706-4.78 1.9002-18.498 0.3257-23.014-1.2529-3.5944-3.6661-3.8329-3.2831-0.3242 0.1248 1.1839-0.4523 3.4701-1.2924 5.0808-0.8402 1.6107-1.5301 3.63-1.5403 4.4873-0.017 2.0604-10.22 12.572-14.096 14.522-1.677 0.8436-4.1718 2.2293-5.5436 3.0794-1.3716 0.85-3.0078 1.6353-3.6363 1.7458-0.6285 0.1102-3.2473 0.7438-5.819 1.4064-9.1948 2.3693-13.118 3.02-22.34 3.7094-10.869 0.8125-27.253-0.8472-36.368-3.6851-9.1052-2.8348-22.513-7.7138-25.13-9.1449-0.35779-0.1957-0.65096-0.1873-1.0427-0.3517-1.8694-1.0813-3.8506-1.9826-5.8114-2.6438-0.81945-0.7434-1.8563-1.628-4.125-2.8464-8.8182-4.7352-19.251-12.034-27.701-19.383-7.766-6.754-7.8831-6.9315-7.5878-11.372 0.35061-5.2723 5.2706-15.077 9.6898-19.311l3.0671-2.9391 8.5376 1.7716c4.6917 0.9743 10.546 2.7715 12.999 3.9941 2.4527 1.2224 4.749 1.9318 5.1037 1.577 0.98865-0.9886-1.1501-4.864-5.3762-9.7416-11.605-13.394-42.42-23.202-73.212-23.304l-15.142-0.05-2.8921-3.781c-3.7269-4.8795-9.2741-13.452-10.836-16.772-2.6294-5.5736-5.2984-12.134-6.5512-16.106-0.72104-2.286-1.6474-5.0916-2.0594-6.2345-0.8963-2.486-3.8052-15.047-4.7581-20.546-0.63717-3.6767-0.39137-4.173 3.9636-8.0063 4.6993-4.1366 11.256-15.093 14.273-23.853 1.6886-4.9025 2.7643-5.7989 5.1524-4.2892 1.2824 0.8106 1.2362 1.9945-0.33339 8.5543-1.0021 4.188-2.9574 9.5684-4.3456 11.956-3.2215 5.541-3.2668 6.874-0.18569 5.4279 2.9448-1.3818 9.9864-10.112 12.76-15.819 2.381-4.8951 2.4358-4.9084 14.516-2.4049 4.0005 0.829 9.845 2.0369 12.988 2.6851 3.1433 0.648 7.3517 1.1148 9.3519 1.0365 5.7195-0.2241 5.8007-0.1849 8.8481 4.4735 1.589 2.429 6.2091 7.6084 10.268 11.509 17.291 16.614 39.766 21.982 62.454 14.917l6.8632-2.1385c0.86991-0.2023 1.727-0.4419 2.5526-0.7139 0.056 0 0.20217-0.081 0.26794-0.092 1.4205-0.4848 2.7146-1.0558 3.7946-1.676 1.362-0.6718 2.8374-1.4035 4.7048-2.2373 4.7668-2.1288 16.055-9.909 19.768-13.617 2.9674-2.9674 4.6927-2.5526 7.3624 1.7672 0.5265 0.8516 0.8763 1.1837 1.2634 1.6241 0.1323 0.3307 0.2774 0.6601 0.4338 0.9848 0.5133 1.0568 1.1342 2.0388 1.8006 2.8479-0.3264 1.4194 0.576 6.5261 1.6791 7.9241 0.4746 0.6031 1.4161 6.5445 2.0914 13.203 0.9502 9.3733 0.941 14.636-0.027 23.323-0.6897 6.1688-1.6922 11.66-2.2267 12.203-0.261 0.2652-0.3 0.7289-0.475 1.1416-1.0334 1.0805-1.6632 2.9898-1.6652 5.0473v0.082c-1.3674 1.3054-2.9691 3.243-3.4689 4.6959-0.2957 0.8594-4.1676 4.833-8.6029 8.8313-16.064 14.481-18.302 17.876-18.211 27.604 0.0551 5.7584 2.6642 12.786 5.6546 15.215 3.0746 2.5015 9.7313 5.6874 14.751 7.0612 6.288 1.7206 9.8465 1.2239 12.341-1.7246 2.7956-3.304 2.1956-3.8862-2.3685-2.3121-3.8079 1.3119-4.553 1.2572-8.2255-0.6165-6.4818-3.3067-8.9052-7.6112-8.7948-15.615 0.073-5.2893 0.805-8.2718 3.3775-13.728 3.033-6.4381 7.7197-12.25 9.8786-12.25 1.5064 0 13.385-9.8525 18.008-14.936 1.4855-1.634 2.1806-2.9522 3.1583-4.4355 0.6918-0.756 1.3537-1.6852 1.9179-2.6927 0.6353-1.1352 1.1191-2.3209 1.3897-3.405 1.904-1.9827 6.2246-11.036 7.4933-16.614 0.419-1.8416 0.5176-4.1327 0.793-6.3123 1.359-5.1941 1.404-13.153 0.1204-21.249-1.1193-7.0425-3.1273-13.444-5.5087-17.562-1.6603-3.8265-4.5681-9.3166-7.303-12.874-1.7356-2.2576-2.6503-4.3421-2.1265-4.8418 0.5059-0.4827 3.4485-1.617 6.539-2.5221 7.2582-2.1258 12.482-0.7047 18.1 4.9133 5.6636 5.6636 8.3754 12.217 7.6365 18.456-0.8048 6.7949-2.5168 9.1002-7.9759 10.739-4.4089 1.3231-4.5186 1.4447-1.9377 2.1231 3.6536 0.9607 9.8179-2.243 14.679-7.6195 3.7479-4.1484 4.6306-6.8036 5.2301-15.725l0.3136-4.6759 1.3501 3.3776c1.6316 4.0815 2.7707 4.2888 3.679 0.6698 2.0382-8.1216-2.484-16.858-10.987-21.244-7.163-3.6929-28.457-5.5317-36.357-3.2071-0.9135-0.012-1.8436 0.01-2.7747 0.051-2.516 0.1281-4.9636 0.4544-7.0582 0.9406-0.9466 0.1294-1.0904-0.01-2.1979 0.2117-5.9151 1.1636-6.309 1.1007-11.271-1.7917-10.93-6.3706-18.609-7.5553-42.549-6.5679-4.0005 0.165-10.548-0.2187-14.548-0.8539-4.0005-0.635-13.82-1.6438-21.821-2.2406-8.001-0.5966-19.796-1.6165-26.211-2.2664l-11.664-1.1811-1.1797-3.5724c-1.3224-4.0069-8.4947-20.079-10.847-24.313-0.84346-1.5171-1.5343-3.2008-1.5343-3.7431 0-0.5421 4.4464-1.2512 9.8801-1.5753 8.2478-0.492 10.992-1.1328 16.625-3.8768 3.7105-1.8077 6.7476-3.9485 6.7476-4.7581 0-1.9841-0.67581-1.8687-5.0732 0.866-5.2074 3.2386-17.826 3.3174-22.463 0.1414-1.7145-1.1741-5.5759-3.7308-8.5802-5.6834-3.0043-1.9525-5.7103-4.3253-6.0139-5.2727s-1.2427-1.9882-2.0868-2.3121c-0.84402-0.3239-1.9892-1.6523-2.545-2.9529-2.2777-5.3306-12.582-21.928-18.03-29.04l-4.0032-5.2269 1.9255-3.6394c1.059-2.0022 3.7964-5.5259 6.0824-7.8297 3.9303-3.9612 4.146-4.5068 3.9742-10.023-0.0999-3.2086 0.42013-7.9384 1.1553-10.51 0.73514-2.5718 0.99777-5.6107 0.58451-6.7537-0.41322-1.143-0.54695-2.6257-0.29687-3.2938 0.2501-0.6683-0.29263-2.3565-1.207-3.7521-2.1591-3.2951-2.74-18.396-0.79758-20.739 0.73445-0.886 1.2448-2.0106 1.134-2.4994-0.11082-0.48871 0.0725-1.5903 0.4079-2.4476 1.4331-3.6648 5.3095-15.318 6.0489-18.185 0.44211-1.7145 1.5199-5.0625 2.3958-7.4401 0.87588-2.3776 1.8279-5.4165 2.1158-6.7536 0.28797-1.3372 1.037-4.3017 1.6636-6.5877 2.5747-9.394 3.1908-14.014 3.2072-24.005 0.0179-11.064-1.5535-25.614-3.3898-31.389-0.60134-1.8915-1.2078-3.9957-1.3486-4.676-0.79903-3.86-2.1051-7.7256-3.2269-9.5498-0.70272-1.143-1.5848-3.8312-1.9606-5.9743-0.37587-2.1431-1.0794-3.8966-1.5632-3.8966-0.48365 0-1.1645-1.1369-1.513-2.5252-0.34859-1.3888-1.28-3.1719-2.0701-3.9621-0.79023-0.79016-2.4916-3.5119-3.7809-6.0474-2.5362-4.9888-9.8885-14.831-15.302-20.485-1.8574-1.94-3.376-4.0324-3.376-4.6501 0-0.61769-0.27799-0.84683-0.61644-0.50839-0.575 0.57495-4.1224-2.1206-9.2896-7.0596-1.2172-1.163-5.674-4.2043-9.9044-6.7552-14.731-8.886-17.109-9.8839-37.341-15.699-5.5638-1.5988-12.252-2.9636-20.262-4.131-4.5838-0.66811-18.272-1.0095-32.016-1.0198zm-437.74 0.10504c-1.4264 0-5.6364 5.3107-5.6364 7.1098 0 1.0672 21.191 22.144 41.026 40.803 5.7048 5.3668 15.991 15.158 22.859 21.757 11 10.57 24.44 23.314 31.179 29.564 3.7076 3.4393 25.731 23.691 29.094 26.753 3.1182 2.8404 3.1991 2.8522 18.492 2.857 13.734 4e-3 15.439-0.18991 16.106-1.8372 0.41022-1.0133 2.3362-4.5853 4.2802-7.9363 3.7218-6.416 3.7257-7.7465 0.0381-15.679-0.53079-1.1426-2.2582-5.2729-3.8372-9.1769-2.5128-6.2104-3.4811-7.4443-7.7446-9.8709-2.6802-1.5253-13.641-7.9183-24.355-14.204-10.714-6.2866-22.312-13.02-25.771-14.964-3.4582-1.9434-9.259-5.3334-12.889-7.533-3.6299-2.1996-7.0204-4.0001-7.533-4.0001-0.51311 0-0.93307-0.46659-0.93307-1.0381 3.2e-4 -0.57104-0.4577-1.0396-1.0152-1.0396-0.98719 0-15.514-8.469-27.04-15.763-3.1433-1.9891-9.6891-5.8142-14.547-8.4995-4.8573-2.6857-9.5342-5.331-10.392-5.8784-5.6663-3.6191-20.273-11.424-21.38-11.424zm264.94 83.15v2e-3c0.68244 0.0243 1.3644 0.0556 2.0457 0.0944-4.2688 6.7281-6.749 12.043-6.1524 15.944 0.12751 0.83377 0.37706 4.6447 0.57232 6.7658-0.4077-0.35176-0.91647-0.6051-1.685-0.67126-1.2768-0.10993-3.119 0.14818-5.7491 0.68496-21.352 4.3577-41.786 18.465-54.547 37.66-10.927 16.438-15.693 38.41-12.908 59.515 1.2111 9.1747 2.2063 12.97 5.8556 22.34 3.0802 7.9096 3.8876 8.4391 7.9729 5.2254l1.1568-0.9103c-6.9243 6.438-16.947 16.896-19.469 20.809-0.13797 0-0.27598-0.01-0.41401-0.01l-3.6211-6.7034c-7.2317-13.39-10.169-22.797-13.287-42.557-2.2711-14.394 0.88862-36.596 7.2834-51.19 7.2422-16.527 13.253-25.367 24.989-36.75 6.7805-6.5759 20.257-16.345 25.553-18.523 2.5142-1.034 4.5734-2.2305 4.5755-2.6591 3e-3 -0.42865 0.6332-0.77934 1.4019-0.77934 1.0503 0 2.3008-1.0342 3.198-2.1888 3.3319-1.2717 6.7826-2.3488 10.323-3.2223 0.86322-0.18055 0.67091 0.079 1.7078-0.1659 2.2915-0.54093 3.1844-0.85005 4.3304-1.201 5.5291-0.99902 11.189-1.5062 16.867-1.5115zm-3.0929 28.016c0.21205 2.694 0.38493 3.8819 0.57232 6.7719 0.51878 8.0006 1.4176 17.119 1.9985 20.262 1.1441 6.19 2.566 21.08 2.5937 27.159 0.0118 2.5773-0.92965 5.0195-2.9605 7.6821-1.9717 2.5849-3.1344 5.5352-3.4415 8.7309-0.46314 4.82-0.46994 4.8279-5.5451 6.0336-8.1096 1.9264-17.734 9.4471-27.124 21.199-2.3122 2.8934-6.599 6.3576-10.717 8.6608-3.7751 2.1112-7.1176 4.5003-7.428 5.3092-0.31041 0.8089-1.0634 1.4703-1.6728 1.4703-0.5823 0-2.6379 1.6824-5.2392 4.0367l-3.475-9.2498c-4.9985-13.309-6.6945-26.491-4.921-38.245 2.8728-19.036 10.357-34.096 23.396-47.068 4.3777-4.3551 9.2992-8.6061 10.935-9.4478 1.6362-0.84175 5.7798-2.9737 9.2088-4.7368 3.429-1.7631 9.8713-4.1558 14.316-5.3153 6.1867-1.6146 8.5776-2.3166 9.5041-3.2528zm-61.133 180.01c0.53417 0.06 1.0725 0.119 1.615 0.1767 0.22963 0.8364 0.41544 1.2898 0.74888 2.9239 1.463 7.1725 8.5088 22.478 11.659 25.33 1.0935 0.9896 1.9879 2.2578 1.9879 2.8191 0 0.5611 3.0823 4.4635 6.848 8.6713 3.7662 4.2082 6.392 7.6518 5.8343 7.6518-1.544 0-12.733-7.7804-16.838-11.708-5.0799-4.8575-7.6249-8.0495-10.938-13.704-2.6625-4.5432-2.8217-5.4567-2.2482-12.894 0.30372-3.9384 0.87126-7.5098 1.3303-9.2668zm374.69 44.499c0.70841 0.1029 1.6056 0.5371 2.3562 1.2542 0.74753 0.7145 3.4895 2.5548 6.0931 4.0899 4.7703 2.8154 7.1866 5.646 8.4675 9.938 0.48567 1.6275 0.28165 2.2833-0.67124 2.1569-0.75291-0.1-3.4726-0.3566-6.0444-0.5694-5.1534-0.4262-7.2694-2.3036-7.2803-6.4613 0-1.4624-0.93612-4.0618-2.0716-5.7764-1.1355-1.7145-2.0638-3.4681-2.0716-3.8967-8e-3 -0.6091 0.51381-0.8379 1.2223-0.7352zm-368.91 3.6013c0.19526-0.1952 2.6921 0.7444 5.5496 2.0884 6.1108 2.8743 19.886 7.132 22.861 7.0658 1.143-0.025 3.0144-0.4187 4.1569-0.8738 1.143-0.4547 1.7236-0.4414 1.2908 0.039-0.43289 0.4763 0.81868 1.8382 2.7809 3.0245 10.208 6.1708 20.679 12.028 21.498 12.028 0.50987 0 0.92696 0.7013 0.92696 1.5587 0 1.2551-1.4684 1.5309-7.5345 1.417-9.8532-0.1851-15.046-1.2474-27.795-5.6852-0.85726-0.2983-1.7919-0.5416-2.0777-0.5494-0.28577 0-1.2224-0.6192-2.0792-1.3668-0.85727-0.7477-2.9619-2.0692-4.676-2.9378-4.7904-2.4267-16.19-14.519-14.902-15.807zm476.78 31.164c12.079 0 13.425 0.2051 19.223 2.9286 5.8566 2.7512 6.1126 3.0186 4.2178 4.4156-1.1095 0.8181-2.6432 1.4872-3.4079 1.4872-1.1739 0-21.185 9.1582-27.826 12.734-4.791 2.5799-11.682 5.9236-14.57 7.0687-1.754 0.7307-3.4116 1.6182-4.8358 2.589-0.75634-0.099-2.6215-0.014-6.6121 0.5556-3.9789 0.5674-8.1693 0.7756-9.3123 0.4627-1.143-0.313-3.6328-2.6947-5.5329-5.294-2.1908-2.9967-2.5909-4.2049-2.3456-5.2572 8.0823-0.9572 16.037-1.9287 23.129-4.4431 8.0876-2.8682 15.051-7.9101 19.37-17.043 2.439-0.1527 5.1053-0.204 8.5026-0.204zm-12.227 0.6896c-3.9308 7.2359-9.6872 11.136-16.688 13.618-7.1973 2.5519-15.715 3.4646-24.537 4.5298-0.59408-0.2145-1.1264-0.043-1.6454-0.4642-2.1725-1.7592-2.1159-1.8146 3.8464-3.711 3.3277-1.0583 10.727-3.9347 16.442-6.3929 11.334-4.8761 16.589-6.7565 22.582-7.5801zm-63.451 199.85c0.20511-0.2051 5.0422 2.7319 10.749 6.5267 9.6655 6.4272 29.599 24.877 29.599 27.395 0 0.5661 1.1285 2.5172 2.5069 4.3365 2.456 3.2411 12.04 20.68 12.04 21.908 0 0.8966-1.84 0.77-2.2512-0.1552-0.19047-0.4287-4.0873-3.9061-8.6593-7.7264-10.044-8.392-18.497-17.104-28.041-28.902-7.2602-8.9804-16.622-22.705-15.944-23.383zm68.97 10.046c0.89821-0.1912 2.4245 0.01 3.3912 0.4352 0.96669 0.4309 3.6274 1.3515 5.9135 2.0457 2.286 0.6942 8.1333 2.4633 12.994 3.9317 7.2911 2.2027 25.744 9.2811 37.403 14.349 11.679 5.0764 37.667 19.622 46.871 26.234 5.5878 4.014 6.0693 4.7094 8.1098 11.711 1.193 4.094 2.169 9.1668 2.169 11.271 0 4.2206-2.7718 14.833-4.408 16.874-1.2491 1.5589-12.143 1.5104-34.141-0.1522-14.239-1.0761-18.6-2.2064-18.6-4.8237 0-1.8915-16.043-27.41-19.463-30.954-0.7325-0.759-1.835-2.3187-2.449-3.466-0.6141-1.1474-1.9694-3.0979-3.0122-4.3349-1.0431-1.2371-4.1619-5.0985-6.9303-8.5818-5.419-6.818-11.353-13.761-22.453-26.272-5.0454-5.6865-6.5669-8.0185-5.3944-8.268zm-509.91 19.704 0.73822 9.8282c0.83003 11.071 0.35085 14.775-2.44 18.884-1.0636 1.5663-3.9665 5.8868-6.4492 9.6015-2.4823 3.7148-5.7142 8.2205-7.1813 10.013-1.4672 1.792-6.1737 7.6041-10.46 12.915-4.2858 5.3109-8.7299 10.651-9.8725 11.865-3.0097 3.1977-13.943 16.346-18.183 21.867-1.9998 2.6043-4.4551 5.6514-5.4553 6.7705-0.99967 1.1191-1.8189 2.4437-1.8189 2.9452s-0.71893 1.5093-1.5982 2.2391c-1.4446 1.1989-11.745 15.939-14.647 20.963-4.1331 7.1519-5.9377 3.0433-6.0261-13.722-0.0849-16.041 3.0482-28.859 10.032-41.044 0.65517-1.143 1.8833-3.482 2.7292-5.1965 0.84539-1.7144 2.8653-5.0754 4.4857-7.4599 1.6208-2.3889 2.9468-4.6105 2.9468-4.9362s0.81728-1.4557 1.8174-2.5116c0.99967-1.0558 4.6245-5.1702 8.0535-9.1418 7.0189-8.1257 18.442-18.368 21.101-18.914 2.3467-0.4812 4.1719-2.2376 2.3258-2.2376-1.027 0-0.89995-0.5618 0.47186-2.0777 1.034-1.1429 2.4091-2.0778 3.0549-2.0778 0.64582 0 4.1054-2.8054 7.6867-6.2345 3.5808-3.4289 7.0193-6.2346 7.641-6.2346 0.62176 0 3.3628-1.3737 6.09-3.0518zm517.34 14.414c0.90748 0 7.8436 5.3066 9.4524 7.2318 4.1647 4.9832 19.937 33.964 19.958 36.671 0.01 1.2008-2.1529 0.851-7.2681-1.1612-11.446-4.5131-12.067-5.0164-13.372-10.833-4.1618-18.546-4.9804-21.566-7.3428-27.077-1.139-2.6572-1.7819-4.8312-1.4277-4.8312zm139.86 97.034c1.1144-1.1146 12.162 11.115 14.894 16.487 1.3804 2.7147 2.3415 4.9364 2.1354 4.9364-0.2057 0-3.3126-3.9864-6.8936-8.8588-3.5855-4.8723-7.4887-9.5376-8.673-10.367-1.1844-0.8295-1.8418-1.8187-1.4627-2.1978zm-719.78 12.641c0.37176 0.161-0.11342 1.9076-1.5663 5.1919-1.1908 2.692-2.1644 6.0301-2.1644 7.4189 0 1.3887-0.53196 4.72-1.1812 7.4021-1.5465 6.3844-2.3164 7.0782-4.3807 3.927-2.0375-3.1096-2.079-3.7417-0.50535-7.5558 0.6638-1.6089 1.1256-3.2904 1.0274-3.7368-0.0982-0.4464 0.30756-1.3826 0.89956-2.0792 0.59245-0.6966 2.526-3.5072 4.2954-6.2468 1.9756-3.0581 3.2037-4.4822 3.5755-4.3213zm598.82 13.923c0.9933 0.1887 2.2252 0.6729 3.8464 1.481l4.4354 2.2117-0.3439 5.7141c-0.4791 7.9572 1.9928 23.145 4.7079 28.931 1.2493 2.6624 3.6185 6.5448 5.265 8.6274 1.6465 2.0825 2.9941 4.0694 2.9941 4.4156 0 0.3465-2.6897 0.5865-5.9759 0.5342-9.0128-0.1429-19.226-3.8047-31.21-11.189-3.5038-2.1592-4.6813-3.6434-5.5283-6.9636-0.80451-3.1542-1.9452-4.6872-4.5161-6.0719-3.7927-2.0422-7.1638-6.0907-8.0947-9.7354-0.50164-1.955 0.0796-2.7127 3.367-4.3897 3.2283-1.6472 4.2988-3.0078 5.7079-7.25 1.888-5.6843 2.1657-5.8817 5.1128-3.6515 2.1763 1.6469 6.4405 1.0634 8.6943-1.1904 0.8135-0.8139 2.5298-1.1134 4.3228-0.755 1.6357 0.3271 3.7967 0.1296 4.8008-0.4277 0.66706-0.3733 1.4208-0.4794 2.414-0.2907zm82.98 18.22c1.0612-0.3282 1.9238-0.068 3.3823 0.5359 2.3878 0.9885 3.4746 1.0089 4.5876 0.085 1.7331-1.4383 6.2516-0.5385 9.9699 1.9849 1.4287 0.9697 5.04 3.0719 8.0246 4.6729 4.5027 2.4154 5.7413 3.7258 7.2741 7.6974 2.5944 6.7345 2.5975 23.47 0 27.433h0.01c-2.191 3.3435-2.7724 3.4308-5.4599 0.822-3.9041-3.79-12.982-7.9623-21.273-9.7828-1.4287-0.3135-7.5033-1.1015-13.498-1.7518-5.995-0.6502-11.466-1.6525-12.159-2.2268-0.6922-0.5746-1.5687-3.1166-1.9484-5.6487-0.3796-2.5321-1.1048-4.8582-1.6102-5.1708-2.4235-1.493-0.7602-5.4727 3.4977-8.3609 2.4246-1.6475 5.1171-3.0624 5.9744-3.1446 0.8572-0.082 2.0674-0.1988 2.688-0.2603 0.6204-0.06 3.304-1.8048 5.9637-3.8769 2.2556-1.7574 3.5163-2.678 4.5786-3.0077zm-56.88 3.501c0-0.4474 1.6361 0.1517 3.6364 1.3319 3.2141 1.8962 3.6417 2.6475 3.6728 6.4597 0.019 2.3723 0.8951 7.9382 1.9453 12.367 2.0098 8.4767 1.5272 9.9285-1.7246 5.1949-3.1911-4.645-7.5299-19.255-7.5299-25.354zm-553.29 4.8311 1.4262 9.8726c0.78385 5.4292 2.492 13.144 3.7977 17.145 1.7011 5.2124 2.5346 10.807 2.9408 19.742 0.56848 12.509 2.3243 24.303 5.3624 36.027 0.8961 3.4581 1.453 6.4636 1.2375 6.6791-1.6881 1.6881-12.638-20.154-14.253-28.432-0.63988-3.2789-1.6083-8.2178-2.1508-10.976-1.3847-7.0401-1.1398-35.205 0.37595-43.303zm484.71 36.415c0-0.6939 3.3336 0.5596 5.0565 1.901 3.0774 2.3958 19.448 6.8845 25.107 6.8845 1.6598 0 4.5527 0.6586 6.4295 1.4537 1.8768 0.7993 5.5126 2.3197 8.0795 3.3776 7.8232 3.2239 28.737 18.182 26.973 19.293-0.2572 0.1621-1.5134 0.8793-2.7915 1.5935-2.3159 1.2945-17.042 1.8511-18.205 0.6881-0.3364-0.3365-2.6138-1.0621-5.061-1.6119-6.6485-1.4948-21.35-8.9052-27.33-13.78-8.4811-6.917-18.259-17.518-18.259-19.8zm80.179 43.076c1.3522 0 9.183 16.568 9.183 19.428 0 3.1461-1.9244 3.0449-15.066-0.7975-5.715-1.671-11.182-3.0413-12.148-3.0413-3.7056-0.01-2.6387-1.8828 2.5695-4.5206 2.9821-1.5105 7.4687-4.6189 9.9697-6.9074 2.5011-2.2886 4.972-4.1615 5.4918-4.1615zm-311.25 119.91c0.76585 0.3598 1.6966 1.3667 2.8982 2.7946 0.52495 0.624 0.3546 0.1609 0.75344 0.5723 1.0855 1.7725 2.315 3.3621 3.6637 4.7368 0.24891 0.9947 0.95219 2.6305 2.5313 5.7278 2.2698 4.452 2.5084 11.158 0.86147 24.234-0.60982 4.8427-1.7783 15.585-2.5967 23.871-1.8669 18.903-4.21 38.858-5.6729 48.318-0.61864 4.0006-1.8056 12.651-2.6379 19.223-0.83223 6.5723-2.1766 16.627-2.9878 22.342-0.81128 5.7151-1.9676 13.897-2.5694 18.183-0.60181 4.2864-1.5716 9.8974-2.1553 12.469-0.98054 4.3203-3.2944 17.39-6.7019 37.928-0.75961 4.572-2.6674 14.392-4.2392 21.821-1.5717 7.4296-2.9808 14.762-3.131 16.293-0.31804 3.2446-5.3011 10.204-7.3062 10.204-0.75571 0-1.662-0.4681-2.0152-1.0397-0.35319-0.5715-1.3535-1.0397-2.2223-1.0397-1.2149 0-1.4214 0.7204-0.89497 3.1174l0.68338 3.1173h-6.7384c-5.9018 0-6.6818-0.225-6.2772-1.8173 0.25414-1.0002 1.1097-6.7288 1.9011-12.73 0.79141-6.0009 2.686-16.755 4.2117-23.899 1.5258-7.1438 3.399-16.029 4.1615-19.744 1.7609-8.5786 3.3036-14.581 3.9011-15.178 0.25649-0.2565 1.6919 0 3.1812 0.5663 2.4046 0.9142 3.0079 0.6493 5.259-2.309 1.3984-1.8381 2.8729-4.6611 3.2756-6.2744 0.41125-1.6477 1.7508-3.3211 3.0564-3.8173 3.0001-1.1414 3.799-3.3619 3.0001-8.358-0.54045-3.3801-0.20347-4.5583 2.0792-7.2713 3.5024-4.1623 3.4311-5.3908-0.6378-11.057-2.9649-4.3923-4.7403-3.6756-0.51902-6.7505 3.5225-2.566 3.54-3.6941 0.13849-8.7066-2.6186-3.8586-2.6479-4.0757-0.9483-6.953 2.05-3.4704 1.446-5.9804-1.4384-5.9804-1.604 0-2.0349-0.7166-2.0427-3.376 0-1.8575-0.0772-4.0791-0.16281-4.9363-0.0858-0.8573 0.62028-4.8324 1.5692-8.8329 0.94899-4.0004 2.3731-15.456 3.1645-25.458 0.79141-10.001 2.6362-27.068 4.099-37.926 1.4628-10.859 3.3606-25.122 4.2179-31.694 2.1745-16.703 2.9902-21.451 5.2878-20.372zm-47.54 286.48c0.1953-0.1941 0.41997-0.1207 0.67123 0.2238 0.33496 0.4593 0.71721 1.4015 1.1416 2.8387 0.98631 3.3404 1.0347 4.896 0.18268 5.9227-0.84915 1.0229-0.83824 1.705 0.0226 2.5707 0.85811 0.8581 0.86638 1.5509 0.0366 2.5527-2.2088 2.6615-2.9651 1.3122-2.9651-5.2925 0-5.2499 0.32413-8.2338 0.91026-8.8161zm-0.63936 22.678c0.2172-0.6092 0.60141-0.4998 1.2466 0.047 0.83512 0.6932 1.7994 2.1425 2.1417 3.2208 0.38717 1.22-0.18711 2.8294-1.5191 4.259l-2.1401 2.2968v-5.5191c0-2.3614 0.0537-3.6955 0.2709-4.3046zm-559.9 12.436 0.0472 0.01c-0.16159 0.6662-0.29818 1.339-0.40945 2.0169-7.8e-4 -0.022-0.0837-0.1166-0.0837-0.1371 0-0.438 0.33608-1.2573 0.44599-1.8874zm561.17 10.122c1.2246 0.4702 1.3023 1.0483 0.37899 2.8253-1.7566 3.3806-1.9178 3.3668-1.9178-0.1584 0-2.4511 0.38054-3.1112 1.5388-2.6669z" fill="#defdff"/></svg>
