<?xml version="1.0" encoding="UTF-8"?>
<svg version="1.1" viewBox="0 0 1e3 2400" xml:space="preserve" xmlns="http://www.w3.org/2000/svg"><path d="m523.84 2262.8c-17.42-2.3528-41.304-7.6798-48.447-10.806-0.99604-0.436-4.8672-1.6803-8.6026-2.7654-9.3192-2.7066-20.669-8.0157-21.286-9.9558-0.27881-0.8785 0.11165-3.3738 0.86783-5.5449 0.75611-2.1711 1.3806-4.6706 1.3879-5.5548 0.0265-3.2492 3.6822-12.029 5.7404-13.787 1.3142-1.1227 2.8827-4.3935 4.1254-8.6028 1.1028-3.7355 2.5972-8.0141 3.3209-9.5082 4.3478-8.9775 13.363-16.033 25.012-19.576 8.1543-2.4797 13.758-6.2152 16.902-11.266 2.5695-4.1282 6.1429-6.4664 12.186-7.9722 3.4765-0.8666 7.9129-5.9283 7.3208-8.353-0.45904-1.8801 0.83082-3.2574 8.683-9.272 1.5126-1.1585 2.75-2.8654 2.75-3.7935 0-0.9279 1.63-3.5704 3.6222-5.8721 1.9922-2.3019 3.6222-4.8007 3.6222-5.553 0-0.7526 0.61125-1.9794 1.3583-2.7265 1.5835-1.5835 1.8026-3.9455 0.36613-3.9455-3.0448 0-9.4798 6.8031-11.563 12.225-0.79685 2.0734-5.11 5.886-6.6587 5.886-2.8657 0-2.9581-2.7471-0.25604-7.6105 1.4101-2.5379 3.2639-5.5257 4.1196-6.6395 0.85567-1.1137 1.8277-4.201 2.16-6.861 0.50692-4.0573 1.2619-5.5521 4.6892-9.2852l4.0849-4.4493-3.225-2.5872c-3.8502-3.0886-3.9905-4.8348-0.85188-10.601 2.5184-4.6267 6.6392-8.4041 13.128-12.033 2.6074-1.4582 4.2373-3.1072 4.752-4.8079 0.83733-2.7665 2.4639-6.3491 4.8754-10.738 0.86892-1.5815 1.7203-5.9326 2.0377-10.414 0.88705-12.524 3.5832-16.33 16.062-22.676 5.4144-2.7541 5.8384-3.1494 3.6548-3.4081-3.0953-0.3668-6.1324-4.1202-6.1324-7.5789 0-6.0773 6.8302-14.271 14.854-17.821 2.289-1.0126 4.1618-2.0675 4.1618-2.3447 0-0.277-0.7176-1.2213-1.5947-2.0985-0.87713-0.877-2.1419-3.424-2.8106-5.6595-0.66879-2.2358-1.9886-5.7396-2.933-7.7863-0.94438-2.047-1.717-4.987-1.717-6.5338 0-1.7978-0.93473-3.8854-2.591-5.787-5.0138-5.7559-5.685-8.0519-5.0011-17.111 0.4185-5.5437 1.2394-9.4442 2.5216-11.983 1.7143-3.3937 2.2093-3.7487 5.0358-3.6095 2.3087 0.1137 3.4907-0.3636 4.4858-1.8109 0.74314-1.0813 3.5094-4.2438 6.1472-7.028 2.6379-2.7843 4.7962-5.6775 4.7962-6.4294s-1.1206-2.9778-2.4903-4.9464c-3.1224-4.4881-4.3418-6.4063-6.2289-9.7989-0.82376-1.481-4.4394-6.7784-8.0349-11.772-3.5953-4.9936-10.803-15.396-16.016-23.115-5.2133-7.7197-10.767-15.869-12.342-18.111-1.575-2.2412-4.0902-5.8212-5.5894-7.9556-1.4993-2.1342-2.7259-4.0916-2.7259-4.3494 0-0.258-2.1393-3.4235-4.7542-7.0348-2.6148-3.6111-5.1616-7.2037-5.6596-7.9835-3.1183-4.8829-17.989-26.447-21.968-31.855-2.6193-3.5605-5.0643-6.8847-5.4333-7.3866-13.959-18.996-29.356-39.029-30.965-40.29-0.31777-0.2491-2.9498-3.5091-5.8489-7.2446-8.4649-10.906-12.333-20.827-16.773-43.014-0.59807-2.9884-1.9063-9.1008-2.9073-13.583-1.0009-4.4825-2.372-11.818-3.0466-16.3-0.67477-4.4825-2.295-13.222-3.6006-19.422-2.5029-11.884-3.2803-16.533-8.9425-53.475-3.331-21.733-5.2022-45.348-7.032-88.744-0.57742-13.697-1.1317-25.009-1.2316-25.139-0.0999-0.1298-1.9265 0.3794-4.059 1.1318-6.8385 2.4128-7.2601 2.0295-9.4816-8.6258-1.6102-7.722-2.5005-9.0305-4.7868-7.0341-1.935 1.6896-6.877 4.0406-10.949 5.2084-4.7641 1.3665-4.7474 2.0805-0.60555-25.761 1.8752-12.605 3.073-19.256 4.9743-27.619 0.96238-4.2333 3.1483-14.625 4.8575-23.091 1.7091-8.467 3.7659-18.143 4.5705-21.504 4.7444-19.812 5.2646-24.73 2.5408-24.017-2.7314 0.7142-15.435 9.0359-21.929 14.365-7.2954 5.9869-17.077 16.744-17.789 19.565-0.27676 1.0957 0.53648 7.4119 1.807 14.036 1.2707 6.6245 3.1948 16.676 4.2758 22.337 3.4149 17.883 1.4429 27.363-5.3736 25.831-6.073-1.3657-14.049-5.9748-19.128-11.054-4.5378-4.5378-5.6265-6.301-7.4241-12.024-1.8489-5.8865-2.1065-8.534-2.1065-21.648 0-8.2181 0.36891-21.054 0.81975-28.525 1.1947-19.795 1.19-20.416-0.192-25.208-0.93922-3.2568-1.1558-8.1361-0.84447-19.016 0.35784-12.504 0.84916-16.416 3.3719-26.86 1.6242-6.7237 3.4896-14.67 4.1454-17.659 0.65567-2.9882 1.5756-6.9347 2.044-8.7699 1.6016-6.2736 7.5249-20.201 14.186-33.355 5.1974-10.264 6.4617-13.498 5.7635-14.747-1.4881-2.6591 1.5074-9.9882 5.5197-13.505 2.0308-1.7803 4.0625-4.7168 4.8995-7.0819 0.78647-2.2223 2.0063-5.6407 2.7107-7.5964l1.2808-3.5556-5.3784-3.4763c-2.9581-1.9119-9.5318-7.5658-14.608-12.564-7.493-7.378-10.617-9.7636-16.606-12.678-15.915-7.746-19.231-14.265-22.076-43.406-1.3065-13.381-2.6104-16.653-9.8139-24.63-14.231-15.762-15.956-18.78-15.22-26.655l0.52814-5.6558-3.2567 2.21c-1.7912 1.2156-3.7815 2.21-4.4229 2.21-2.6406 0-4.6467 4.3719-5.1677 11.261-1.0794 14.272-7.2293 22.292-30.249 39.449-26.665 19.874-25.643 19.219-29.005 18.589-4.0841-0.7663-6.0649 0.5658-7.8701 5.2925-1.1164 2.9232-2.8493 5.0133-6.2518 7.5402-8.1877 6.0808-9.5956 6.7761-12.452 6.1488-3.694-0.8114-7.6115 2.1593-9.223 6.9939-1.1414 3.4242-2.7107 4.8314-16.136 14.47-15.417 11.068-16.369 11.456-20.102 8.1767-0.87463-0.768-1.7111-1.2292-1.8588-1.0247-0.1477 0.2045-0.95393 1.4685-1.7917 2.8088-0.83771 1.3406-3.3631 3.7034-5.6119 5.2505-2.2489 1.5472-4.0888 3.312-4.0888 3.9216 0 0.6098-3.3703 4.4614-7.4897 8.5592-8.3852 8.3418-9.8442 8.8311-16.317 5.4727-2.0968-1.0879-6.8864-3.067-10.643-4.3981-3.757-1.3312-8.537-3.4973-10.622-4.8136-2.0853-1.3163-3.9851-2.3934-4.2219-2.3934-0.73808 0-6.1237-3.8533-13.192-9.4388-14.491-11.451-25.848-25.937-31.845-40.626-1.4671-3.5927-3.051-7.3474-3.52-8.3434-4.557-9.6801-6.7313-25.039-6.0616-42.815 0.42476-11.274 0.33988-12.106-1.3568-13.294-1.4906-1.0441-1.7034-1.8779-1.206-4.726 1.0971-6.2812 5.8684-19.768 9.091-25.697 1.7439-3.2084 3.5407-6.6484 3.9929-7.6445 0.4522-0.9961 2.3517-3.1976 4.221-4.8923 2.6459-2.3984 3.7245-2.8776 4.869-2.1629 0.8086 0.505 6.9655 1.8186 13.682 2.919 16.192 2.653 18.705 3.3537 19.231 5.3599 0.55543 2.124 5.5138 2.8513 19.439 2.8513 17.699 0 50.748-6.9803 54.85-11.584 0.75752-0.8503 2.6196-4.0038 4.1379-7.008 3.2686-6.4673 3.8618-7.051 17.334-17.056 5.7276-4.2534 10.823-8.0582 11.323-8.4549 7.0551-5.5994 11.364-8.4187 12.867-8.4187 1.0106 0 3.8777 1.9768 6.3712 4.3929l4.5338 4.3928-1.4744 3.078c-0.81087 1.6928-3.0634 5.5228-5.0056 8.511-6.7201 10.34-5.5872 16.656 4.6934 26.166l2.8345 2.6222 5.876-3.8284c3.2319-2.1057 6.3556-4.4062 6.9416-5.1125 0.67581-0.8143 2.8305-1.284 5.8899-1.284 3.8808 0 5.6255-0.5407 8.921-2.7649 2.2532-1.5205 4.3322-3.1457 4.62-3.6113 0.2878-0.4657 2.234-1.8366 4.325-3.0466l3.8018-2.2 7.5137 1.6526c8.8985 1.9569 16.434 1.3661 19.316-1.5148l1.8115-1.8116-1.8197-5.4018c-1.0008-2.971-2.4669-9.4535-3.258-14.406-0.79107-4.9522-2.0776-12.797-2.859-17.432-1.2996-7.7097-1.297-8.5654 0.0306-10.032 0.92549-1.0226 1.4514-3.2498 1.4514-6.1463 0-5.0888 1.1107-6.5829 6.5984-8.8758 3.917-1.6367 4.0802-2.22 1.3251-4.7391-3.5441-3.2406-7.2592-4.5483-14.715-5.1797-12.788-1.0828-24.185-3.3222-34.966-6.8709-10.108-3.3267-13.323-4.7927-24.42-11.134-12.338-7.0498-39.764-32.081-42.568-38.852-1.3912-3.3588-0.48938-6.3405 2.9615-9.7915 3.7445-3.7445 11.956-9.936 13.177-9.936 0.52403 0 1.1489-0.50937 1.3885-1.1319s2.8301-2.7518 5.7566-4.7318c2.9265-1.9799 6.1358-4.3117 7.1319-5.1819 0.9961-0.87013 5.8861-4.6255 10.867-8.3451 4.9805-3.7198 10.262-7.7041 11.738-8.8541 2.3151-1.8044 3.6673-2.0797 9.8676-2.009 8.6386 0.0985 10.027 1.2178 9.1084 7.3435-0.55534 3.7031-0.38341 4.0627 4.7296 9.8904 5.7545 6.5589 11.411 11.084 19.708 15.767 5.0289 2.8382 5.5209 2.9409 9.2767 1.9364 2.1814-0.58343 4.7475-1.0607 5.7026-1.0607 2.2748 0 5.4786 4.5699 5.4943 7.837 0.0239 4.9831 1.0514 6.386 7.9804 10.896 5.3004 3.4507 8.0854 4.6562 11.74 5.0816 4.7031 0.54752 4.8505 0.49194 8.0289-3.0262 3.94-4.3611 6.6783-4.6418 9.3043-0.95385 1.03 1.4466 1.8727 3.0266 1.8727 3.5113s0.56281 1.3484 1.2506 1.9193c1.2604 1.046 5.4379-1.7643 24.4-16.415 3.3999-2.6268 6.558-4.9119 7.018-5.0779 0.45994-0.16602 0.83625-1.0274 0.83625-1.9143s1.63-2.7421 3.6222-4.1226c3.881-2.6895 4.4217-4.0953 2.2638-5.8861-0.74707-0.62002-1.3583-1.6832-1.3583-2.3626s-1.3656-1.8058-3.0347-2.5033c-3.5057-1.4648-7.3191-7.53-8.2689-13.152-0.8004-4.7376-3.3745-9.6832-6.1944-11.901-3.246-2.5532-5.7959-8.5568-6.5234-15.359-0.5091-4.7599-1.1931-6.5795-3.5753-9.5104-3.2842-4.0408-4.9847-10.247-5.0352-18.379-0.0177-2.8393-0.62959-8.8298-1.3598-13.312-2.0616-12.655-2.6754-34.507-1.0936-38.938 1.5299-4.2867 6.1967-7.3547 12.447-8.1824 2.2412-0.2968 5.5012-1.278 7.2444-2.1804 2.9271-1.5152 7.0518-2.5837 12.668-3.2813 1.24-0.15402 2.87 0.25998 3.6223 0.92 1.9193 1.6838 7.363 0.73014 7.9166-1.387 0.30148-1.1529 1.894-1.9504 5.3112-2.6598 5.5941-1.1613 7.4501-0.76074 11.236 2.4251 2.3432 1.9717 2.7207 2.9168 2.7779 6.9554 0.0366 2.5705 0.39826 6.7112 0.80419 9.2014 0.406 2.4902 1.2149 7.9914 1.7976 12.224 0.58258 4.2335 1.4194 8.5121 1.8596 9.5083 0.44024 0.9961 1.055 3.2373 1.3661 4.9805 0.86553 4.8488 7.3443 21.136 12.427 31.242 7.0551 14.027 16.091 28.165 16.091 25.179 0-2.7654 9.2249-1.5404 11.906 1.5811 1.1293 1.3148 1.3196 2.5038 0.78184 4.888-0.67874 3.0094-0.24483 3.7705 9.6886 16.993 13.4 17.836 11.935 16.479 16.356 15.155 2.7862-0.83478 4.3701-0.84843 6.6398-0.0573 2.8554 0.99542 3.1538 0.87162 7.1025-2.9464 2.267-2.1921 6.9742-5.94 10.461-8.3288 11.665-7.9926 17.621-12.61 17.64-13.676 0.0103-0.58129-1.9322-1.4753-4.3162-1.9866-6.0349-1.2942-9.2485-2.6197-9.2485-3.8147 0-0.7101 1.652-0.82514 5.4756-0.38137 5.0164 0.58222 5.7722 0.42999 9.0125-1.8156 3.735-2.5884 6.3395-5.8772 6.3395-8.0054 0-0.70239-1.1206-1.8411-2.4903-2.5306-4.0961-2.0619-10.433-6.4667-13.81-9.5997-3.4152-3.1686-4.113-3.4543-4.9862-2.0416-1.5421 2.4951 6.4697 13.207 12.153 16.249 1.3691 0.7327 1.7774 1.4212 1.1909 2.0078-1.1456 1.1456-8.8947-2.7142-13.412-6.6802-1.8206-1.5985-4.2858-4.4517-5.4782-6.3405-2.1117-3.3451-2.3069-3.4341-7.5364-3.4341-2.9526 0-5.6203-0.4075-5.9282-0.90556-0.3078-0.49803-1.2738-0.90554-2.1466-0.90554-0.87278 0-2.4616-0.81499-3.5308-1.8111-1.0692-0.99609-2.2666-1.8139-2.661-1.8173-1.1678-0.01-4.7483-5.7768-6.823-10.989-1.6278-4.0895-1.9899-7.2358-2.3055-20.032-0.32308-13.101-0.58952-15.334-1.9444-16.3-2.5075-1.7875-6.7612-8.8022-7.7738-12.821-0.51203-2.0314-0.64576-5.3233-0.29714-7.3155 0.34855-1.9922 0.74023-5.354 0.87036-7.4708 0.13019-2.1167 0.56804-3.8486 0.97302-3.8486 0.40499 0 0.73629-0.80582 0.73629-1.7907 0-2.1817 4.4732-10.625 8.8856-16.773 3.5292-4.917 7.7128-9.1366 15.766-15.902 2.8501-2.3943 6.4312-5.776 7.9578-7.5148 2.9296-3.3365 2.9018-3.467-1.3664-6.4232-0.99532-0.68938-1.531-1.5321-1.1905-1.8725 0.3406-0.34056 1.5512 0.0336 2.6903 0.8315 3.177 2.2252 4.0796 1.8269 7.4837-3.3034 6.08-9.163 13.117-19.084 13.912-19.614 0.44125-0.29396 1.1749-1.2038 1.6304-2.022 0.94165-1.6913 5.2723-6.9633 11.242-13.686 2.2412-2.5238 3.9392-5.0323 3.7732-5.5744-0.16605-0.54206-0.0298-0.71388 0.30181-0.38184 0.83857 0.83853 7.5157-5.8261 6.9556-6.9426-0.24986-0.49805-0.14521-0.62783 0.23254-0.28839 0.56949 0.51165 4.6223-2.3132 12.158-8.4741 0.67923-0.55534 2.7927-1.7623 4.6966-2.6822 1.904-0.91985 3.7153-2.083 4.0254-2.5846 0.31004-0.50173 1.2639-0.91223 2.1196-0.91223 1.5409 0 7.6191-4.9051 6.9309-5.5933-0.19663-0.19661 0.33624-0.38339 1.1842-0.41508 3.4184-0.12779 9.7076-1.4332 10.138-2.1044 0.25238-0.39335 1.8851-1.0172 3.6282-1.3863 1.7432-0.3691 3.6788-1.0815 4.3014-1.5829 0.62258-0.50152 1.1319-0.66829 1.1319-0.37062 0 0.29769 1.1206 0.11488 2.4902-0.40625 3.3031-1.2568 18.313-4.1364 25.129-4.821 10.261-1.0305 38.498-0.73725 39.885 0.41433 0.71164 0.59061 1.9559 0.81977 2.7649 0.50931 1.6595-0.6368 11.117 5.3628 15.027 9.5327 1.3416 1.4307 2.7035 2.6013 3.0266 2.6013 0.32307 0 1.6235 0.81499 2.8897 1.8111 1.2664 0.9961 3.0117 1.8111 3.8788 1.8111 1.7054 0 9.377 3.4072 14.479 6.4308 10.107 5.9894 22.965 18.066 31.938 30 4.9572 6.5922 10.62 17 10.622 19.519 4.1e-4 0.64008 0.58653 2.0664 1.3026 3.1694 1.5857 2.4431 3.693 8.5947 5.0295 14.683 0.54667 2.4902 1.4111 6.1007 1.9208 8.0233l0.92686 3.4956 1.9757-1.73c1.0867-0.95151 3.8094-2.9275 6.0507-4.391 3.9116-2.5543 16.091-11.467 25.983-19.016 2.5863-1.9734 4.7257-4.2374 4.7541-5.031 0.0752-2.1084 9.049-9.3707 11.344-9.1808 1.0776 0.0891 2.5062-0.6833 3.2407-1.7524 3.2158-4.6801 5.9988-7.4483 11.05-10.99 10.753-7.5416 13.113-9.2867 17.052-12.61 9.8255-8.2922 14.783-10.874 20.13-10.48 3.279 0.24097 4.1544 0.8241 7.2089 4.802 4.6563 6.0638 8.1048 12.883 7.492 14.814-1.0031 3.1604-13.046 14.281-19.736 18.226-1.8677 1.1011-3.3957 2.3102-3.3957 2.6868 0 0.37662-1.8339 1.8439-4.0751 3.2606-2.2412 1.4166-4.0749 2.902-4.0749 3.3008 0 0.39874-0.53446 0.72497-1.1878 0.72497-0.65309 0-1.9774 0.71637-2.943 1.5919-3.2348 2.9334-7.1663 5.1958-9.8225 5.6524-1.6572 0.28488-2.7232 1.0712-2.8751 2.1205-0.13279 0.91723-0.37385 1.7583-0.53575 1.869-0.1618 0.11076-2.1701 1.7034-4.4626 3.5392-2.2924 1.8358-4.9412 3.3381-5.886 3.3385-0.94479 3.9e-4 -3.3368 1.4417-5.3158 3.203-1.9789 1.7612-4.4716 3.4215-5.5397 3.6896-1.0681 0.26805-2.796 1.6428-3.8401 3.0549-1.044 1.4122-3.3429 3.0443-5.1088 3.6272-1.8875 0.62292-2.9629 1.4603-2.6096 2.032 0.33056 0.53487 0.18507 0.71542-0.32327 0.40122-0.50836-0.31422-2.7108 0.76938-4.894 2.408-2.1834 1.6386-6.3612 4.7871-9.284 6.9966-2.9228 2.2095-6.0039 4.4249-6.8468 4.9229-0.84298 0.49805-3.8366 2.9597-6.6525 5.4704l-5.12 4.5649 0.35622 4.9434c0.19587 2.7188 0.80522 7.1847 1.3539 9.924 0.54872 2.7393 1.0535 5.4899 1.1214 6.1124 0.0678 0.62257 0.39528 1.1319 0.72732 1.1319 0.3321 0 0.64982 0.50937 0.70619 1.1319 0.44403 4.9071 1.5731 8.9902 2.8711 10.383 0.84758 0.90983 1.342 2.2567 1.0985 2.993-0.38651 1.1691-0.22309 1.1666 1.2894-0.0195 1.6169-1.2681 1.6456-1.2486 0.43155 0.29585-1.1353 1.4442-1.1168 2.0191 0.14567 4.5278 0.79537 1.5804 1.9297 5.5223 2.521 8.7597 0.59114 3.2374 1.2715 6.2058 1.5118 6.5966 0.64446 1.0476 1.3195 11.218 1.1249 16.948-0.0931 2.7393-0.21678 7.018-0.27507 9.5083-0.0577 2.4902-0.6151 5.0662-1.2377 5.7244-0.62251 0.65814-1.1319 1.9634-1.1319 2.9005 0 2.1322-1.6945 6.1067-3.8002 8.9135-0.88461 1.1792-1.4043 2.4742-1.1548 2.8778 0.24947 0.40366-0.36728 0.99448-1.3706 1.313-1.0034 0.31844-1.8378 1.0609-1.8544 1.6499-0.0401 1.4332-3.1896 5.1459-4.3651 5.1459-0.51447 0-1.5045 0.81241-2.1999 1.8053s-1.4682 1.6017-1.7171 1.3527c-0.24885-0.24891-1.1923 0.36494-2.0966 1.3641-0.90424 0.99913-2.1921 1.8166-2.862 1.8166-0.66986 0-1.218 0.39472-1.218 0.87713 0 0.48243-0.61126 0.64258-1.3583 0.3559-0.74708-0.28668-1.3583-0.0955-1.3583 0.42491 0 0.52038-0.71312 0.94484-1.5847 0.94324-0.87156-2e-3 -4.3331 0.0491-7.6921 0.11288-3.359 0.0637-6.5626-0.16565-7.1192-0.5096-0.55651-0.34395-1.3676-0.0639-1.8023 0.62255-0.6251 0.98701-0.79332 0.91659-0.80432-0.33675-9e-3 -0.8716-0.31948-1.5407-0.69302-1.4867-1.7256 0.24885-4.6805-1.3169-4.224-2.2384 0.28037-0.56595-0.0752-0.31588-0.78918 0.55572-0.7144 0.8716-1.7874 1.5847-2.3846 1.5847-0.59699 0-0.87158 0.34606-0.61016 0.76907 0.26133 0.42297-0.56073 1.3235-1.827 2.0012-1.7029 0.91134-2.1979 1.7776-1.9016 3.3275 0.22033 1.1525 0.0653 2.3025-0.34394 2.5555-0.40952 0.25308-0.50127 1.0942-0.20387 1.8692 0.29734 0.77496 0.63501 2.2901 0.75041 3.3668 0.11538 1.0768 0.26182 2.4532 0.32538 3.0585 0.0632 0.60539 1.2935 2.3059 2.7335 3.7788 1.4398 1.473 2.7642 3.092 2.943 3.5977 0.28389 0.80301 3.3379 1.6283 6.8903 1.8621 0.6226 0.041 1.1319 0.84842 1.1319 1.7944 0 1.3812-0.78566 1.7825-3.9885 2.0375-2.1937 0.17467-3.7996 0.012-3.5686-0.36158 0.23077-0.37355-0.35982-0.67917-1.3127-0.67917-0.95273 0-2.9124-1.1091-4.3548-2.4647-1.4424-1.3556-3.0965-2.3646-3.6756-2.2423-1.4111 0.29803-6.6441-7.561-6.6441-9.9783 0-1.0542-0.23838-1.6782-0.52975-1.3868-0.77411 0.77417-5.8889-1.1773-5.3539-2.0427 0.24913-0.40308-0.36267-0.51961-1.3594-0.25895-0.99681 0.26067-1.8123 0.8339-1.8123 1.2739 0 0.43995-0.33464 0.79993-0.74355 0.79993-0.40892 0-2.6789 1.8543-5.044 4.1205l-4.3005 4.1205 3.6857 3.4711c2.0271 1.9091 3.6857 3.9457 3.6857 4.5257 0 0.58001 1.4262 3.284 3.1694 6.009 1.7431 2.725 3.1694 5.1876 3.1694 5.4723 0 1.0737 7.5433 11.22 8.3416 11.22 0.45911 0 2.2002 1.0416 3.8693 2.3146 1.6689 1.273 3.8879 2.3788 4.9309 2.4574 1.0431 0.0786 1.7646 0.53869 1.6034 1.0225-0.16128 0.48377 1.9731 2.7126 4.7431 4.9528s7.9416 6.5454 11.493 9.5671c3.5507 3.0217 8.0764 6.8258 10.057 8.4537 5.584 4.5895 19.244 18.963 19.253 20.258 0 0.31854 1.423 2.1523 3.1577 4.075 1.7346 1.9227 3.4232 4.3108 3.7525 5.3069 0.32933 0.99612 1.5189 3.0336 2.6435 4.5278 1.1245 1.4942 3.0465 4.5504 4.271 6.7916 5.4588 9.9913 6.9157 12.486 9.6604 16.536 1.7605 2.5982 3.3428 4.0697 3.9824 3.7035 0.58361-0.33424 0.7801-0.29526 0.43657 0.0863-0.34358 0.38195 0.16579 1.5428 1.1319 2.5799 0.96618 1.037 1.7566 2.5738 1.7566 3.415 0 0.84116 0.60282 2.0298 1.3396 2.6411 1.6357 1.3575 4.0937 6.1419 4.0937 7.968 0 3.0623 5.9575 11.358 13.241 18.437 7.3225 7.1173 14.551 15.383 21.383 24.451 5.3063 7.0419 6.1906 8.8018 5.6017 11.148-0.38392 1.5294 0.0728 3.1174 1.4509 5.0538 2.4574 3.4511 3.3435 7.1711 4.0904 17.174 0.39777 5.3285 1.4925 10.206 3.5573 15.847 1.6404 4.4824 3.4895 10.391 4.1092 13.131 0.61959 2.7393 1.2663 5.4899 1.4369 6.1124 0.17287 0.6303 1.7121 1.132 3.473 1.132 3.7835 0 6.1473 2.2159 7.625 7.1479 1.8311 6.1118 0.91369 9.1519-2.7621 9.1519-3.6914 0-1.5587 3.6717 9.2045 15.846 6.7134 7.5937 24.315 25.107 33.703 33.532 8.02 7.1982 15.221 14.253 23.891 23.405 9.5469 10.078 17.627 20.743 18.952 25.016 0.38621 1.2452 0.95287 2.4677 1.2593 2.7166 1.2628 1.0265 5.5402 11.579 6.056 14.942 0.30586 1.9922 1.3753 5.8633 2.3766 8.6027 2.2774 6.2302 2.4436 20.396 0.37166 31.694-3.3095 18.048-3.9582 20.489-9.1292 34.375-2.7519 7.3899-12.369 25.23-15.487 28.731l-3.0748 3.4516-2.2763-2.5407c-1.252-1.3974-2.2764-3.3598-2.2764-4.3608 0-1.0012-0.39469-2.5578-0.8771-3.4593-0.48252-0.9013-1.3303-6.2792-1.8841-11.951-0.98856-10.123-0.96314-10.428 1.3744-16.639 1.3097-3.4798 2.9358-7.1734 3.6136-8.208 2.7136-4.1425 7.3449-23.431 8.1368-33.888 1.2889-17.026 1.3972-24.024 0.51522-33.375-0.54133-5.7413-1.6082-11.539-2.416-13.13-1.3739-2.705-11.61-13.262-12.859-13.262-0.3242 0-1.7825-1.2638-3.2402-2.8084-1.458-1.5446-4.1054-3.7781-5.8832-4.9633-1.7778-1.1851-6.2888-4.3711-10.024-7.0798-3.7354-2.7086-9.2366-6.445-12.224-8.303-2.9883-1.8579-6.2484-4.1048-7.2443-4.9932-0.99614-0.8883-2.991-2.2256-4.433-2.9718-4.7018-2.4329-14.391-10.718-24.192-20.685-5.2844-5.3747-9.9753-9.7721-10.423-9.7721-0.44822 0-1.8909-0.9976-3.2059-2.2169l-2.3908-2.2171-5.5235 6.2149c-3.0378 3.4182-5.5234 6.4423-5.5234 6.7201 0 0.5476 17.018 23.354 17.982 24.099 0.3227 0.2491 2.2945 2.694 4.3823 5.4332 2.0878 2.7393 4.5318 5.6361 5.4312 6.4371 0.89914 0.8014 7.795 7.7436 15.324 15.428 12.419 12.673 13.82 14.43 15.089 18.918 2.1661 7.6563 2.6498 15.039 1.5898 24.26-0.94988 8.2628-0.9105 8.627 1.8111 16.752 1.5301 4.5685 3.1414 9.1213 3.5806 10.117 0.43925 0.9962 1.408 3.8487 2.1522 6.339 0.74461 2.4902 3.0616 9.4177 5.1491 15.395 4.7702 13.658 4.9786 17.22 1.2753 21.796-5.2133 6.442-19.54 15.205-37.064 22.67-3.9692 1.691-7.6428 3.0745-8.1634 3.0745s-2.4343 0.7975-4.253 1.7722c-1.8186 0.9747-7.8231 3.2583-13.343 5.0746l-10.037 3.3027-0.014 3.3015c-0.01 1.8159-0.58949 5.7467-1.2924 8.7349-1.1218 4.7677-1.1134 5.5259 0.0698 6.1884 5.5695 3.1204 18.369 17.503 18.418 20.698 0.014 0.842 0.38263 1.7528 0.82088 2.0236 1.5649 0.9672 3.731 9.5546 3.731 14.792 0 7.0078-2.2312 13.498-6.0029 17.461-3.3744 3.5458-3.7278 4.4895-1.681 4.4895 1.5813 0 4.9588 5.1081 4.9638 7.507 0.01 2.476-3.4073 8.6161-5.3733 9.6682-0.96164 0.5148-3.5491 0.9359-5.7495 0.9359h-4.0009l-0.59048 7.6809c-0.70753 9.2051-3.6167 16.084-9.319 22.035l-3.8194 3.9864-7.1492-0.3251c-6.038-0.2745-7.6356-0.6959-10.277-2.7113-3.0941-2.36-3.1518-2.3673-5.2367-0.6792-2.3956 1.9399-8.4637 2.2653-13.931 0.7473-3.4016-0.9447-9.7099-5.7006-9.7099-7.3205 0-0.4666-0.82097-1.9588-1.8243-3.316-2.7504-3.7201-6.285-14.568-6.3066-19.355l-0.019-4.2382-6.7122-3.2286c-6.4607-3.1074-11.029-7.3521-12.622-11.729-0.56472-1.5506-1.2742-1.6432-8.0655-1.0507-4.0956 0.3572-7.763 0.8453-8.15 1.0844-0.38693 0.2392 0.13297 1.4981 1.1552 2.7978 1.5937 2.0261 1.6778 2.5438 0.59004 3.6316-1.7632 1.7631-14.069 3.1881-23.018 2.6655-4.109-0.24-7.4708-0.26-7.4708-0.045 0 0.3268 2.6334 3.3318 7.7256 8.8155 6.4667 6.9638 19.242 24.044 28.52 38.134 10.659 16.185 21.233 40.344 24.572 56.144 0.52635 2.4901 1.6894 5.7502 2.5846 7.2442 0.89514 1.4942 2.2904 5.5693 3.1003 9.0556 0.81004 3.4864 1.8669 7.8123 2.3486 9.6132 0.48179 1.8009 0.87584 4.9169 0.87584 6.9243 0 3.0199-0.53355 4.1181-3.0917 6.3642-7.4041 6.5009-16.968 6.1505-29.34-1.075-3.0956-1.8079-7.4139-6.1147-8.7199-8.6962-1.4627-2.8916-3.0803-9.4654-4.4838-18.222-0.9039-5.6395-0.88298-7.5451 0.11416-10.414 1.0522-3.0269 1.0138-4.4483-0.27873-10.303-0.82457-3.7353-2.2726-8.8678-3.2179-11.406-0.94519-2.5377-1.6696-6.4089-1.6096-8.6027 0.11084-4.0536-0.63223-5.9382-10.676-27.081-4.03-8.4837-8.2138-16.004-12.846-23.092-6.8693-10.51-16.096-21.892-17.008-20.98-0.65565 0.6556-1.9567 6.4118-3.0023 13.283-0.49267 3.2374-1.0718 6.7011-1.287 7.6972-0.21516 0.9961-1.0627 5.0169-1.8833 8.9351-0.82056 3.9182-1.8525 7.7894-2.2932 8.6027-0.44056 0.8133-1.2152 3.9238-1.7212 6.912-0.89554 5.2887-4.6762 22.078-7.6467 33.958-1.3647 5.4577-3.329 14.926-6.5753 31.695-1.4532 7.5061-3.3028 18.58-5.2935 31.694-0.71823 4.7313-1.7162 11.048-2.2178 14.036-1.7935 10.686-2.9254 25.567-2.9275 38.486 0 11.042 0.43949 15.334 2.7747 26.985 3.1199 15.567 6.0783 27.651 7.3227 29.911 1.3615 2.4726 13.266 30.298 14.013 32.753 0.37884 1.2452 1.5171 4.0975 2.5297 6.3389 3.0045 6.6496 11.423 32.37 13.325 40.71 5.3877 23.626 6.1962 45.206 2.8174 75.201-1.094 9.7121-2.2112 18.406-2.4825 19.321-0.86539 2.9153-2.7986 18.222-2.4275 19.222 0.19642 0.5287 1.792 1.4801 3.5457 2.1143 7.064 2.5544 13.919 12.258 18.398 26.045 1.511 4.6501 15.237 19.326 18.075 19.326 0.44131 0 1.3098 0.6113 1.9298 1.3584 0.62009 0.747 2.2534 1.3583 3.6295 1.3583 1.3763 0 3.6521 0.5966 5.0574 1.3256 2.8432 1.4751 15.396 14.202 18.549 18.807 1.1145 1.6276 3.4904 4.5074 5.2801 6.3999 4.7134 4.9841 4.4769 9.1208-1.4599 25.536-0.72046 1.9922-5.75 12.587-11.177 23.545s-10.644 21.96-11.595 24.45c-2.4456 6.4057-4.4824 16.964-5.1791 26.844-1.0274 14.573-4.7326 24.988-14.589 41.009-5.339 8.6787-11.087 15.977-16.958 21.536l-3.5522 3.3623 0.20945 10.478c0.14833 7.4226 0.64711 11.46 1.7105 13.843 2.1964 4.9234 2.1971 27.511 0 31.538-1.9394 3.5556-13.868 9.5975-28.533 14.452-6.6585 2.2042-24.833 10.861-29.126 13.873-14.653 10.28-29.327 17.111-58.965 27.448-16.869 5.8836-35.037 8.1172-49.805 6.1226zm35.407-589.65c-0.47174-2.645-1.8956-9.1901-3.1643-14.545-1.2687-5.3548-2.7527-12.486-3.2979-15.847-0.54516-3.3613-1.3293-6.9263-1.7426-7.9226-0.41328-0.996-1.2452-4.2559-1.8487-7.2442-0.60351-2.9883-1.4454-6.452-1.8707-7.6972s-1.1824-5.3474-1.682-9.1161c-0.49966-3.7686-1.2693-7.8273-1.7102-9.0192-0.72257-1.9533-0.90002-1.7237-1.7967 2.3243-1.1784 5.3198-3.2657 16.641-4.5847 24.866-2.6645 16.616-3.2032 22.4-3.2471 34.864-0.0618 17.641 0.41734 18.732 14.681 33.425l10.626 10.946 0.24748-15.114c0.13618-8.3124-0.13834-17.277-0.61002-19.922zm194.9-83.818c0.39452-0.6564-1.6742-11.938-2.2707-12.384-0.16192-0.121-3.3507-0.8918-7.0861-1.713-3.7354-0.8214-7.6576-1.7381-8.7162-2.0375-1.8853-0.533-1.9006-0.4514-0.74851 3.9896 1.6281 6.2766 2.726 8.0411 6.0956 9.7965 4.7538 2.4766 11.861 3.7879 12.726 2.3481zm-608.71-478.29c4.1658-2.9539 8.1704-5.9083 8.8992-6.5652 0.72881-0.657 2.0193-1.602 2.8678-2.1001 3.2719-1.9205 25.237-18.869 25.237-19.473 0-0.3505-1.0339-1.7529-2.2975-3.1164-1.5416-1.6635-2.6588-2.2092-3.3958-1.6587-2.3682 1.7686-20.827 8.6421-36.415 13.559-3.9844 1.257-7.5707 2.7499-7.9695 3.3175-0.39881 0.5679-0.5716 4.1294-0.38399 7.9148 0.25459 5.1373 0.85905 7.7205 2.3837 10.188 1.1234 1.8177 2.3703 3.305 2.7709 3.305 0.40059 0 4.1367-2.4169 8.3025-5.3709zm273.06-48.962c0.29924-1.2453 0.84971-2.6714 1.2233-3.1696 1.3792-1.8385 1.7952-10.168 0.85935-17.205-0.52981-3.9843-1.2008-9.1799-1.491-11.546-0.29028-2.3657-0.89622-4.3012-1.3465-4.3012-1.6635 0-1.8463 2.8923-0.41912 6.6296 0.80753 2.1147 1.4683 4.5437 1.4683 5.3982 0 0.8544-2.1879 3.8304-4.862 6.6134-6.44 6.7023-7.9559 6.5054-12.797-1.6614-1.9922-3.3615-4.0297-6.1-4.5277-6.0856-0.4981 0.014-3.4255-2.7366-6.5053-6.1133l-5.5998-6.1392-3.0461 2.9431c-1.6754 1.6185-3.3429 2.943-3.7056 2.943-0.88698 0-9.7001 6.6084-9.3199 6.9887 0.69899 0.6989 13.184 3.7524 17.763 4.3444 4.279 0.5531 5.5047 1.1868 8.7014 4.4991 2.0466 2.1202 4.0093 5.0037 4.3616 6.4076 0.97943 3.9024 3.9105 7.4728 7.9636 9.7012 2.0178 1.1094 4.4888 2.4921 5.4911 3.0728 2.3623 1.3689 5.0285-0.1604 5.7877-3.3196zm-33.419-138.03c1.8579-1.2058 4.6004-3.2897 6.0946-4.6308 1.4942-1.3412 3.6335-3.0502 4.7542-3.7979 2.6866-1.7925 2.7659-7.4557 0.16327-11.667-2.227-3.6035-8.076-5.8865-10.77-4.2039-0.93656 0.58491-3.8547 0.83707-6.9374 0.59947-4.9192-0.37915-5.5806-0.19563-8.7628 2.4313-3.3012 2.7252-3.378 2.9122-1.8767 4.5711 1.1224 1.2402 1.5066 3.0171 1.3578 6.2787-0.21761 4.7687 2.0267 9.8423 5.1632 11.672 2.6581 1.551 7.3268 1.0098 10.814-1.2536zm358.56-85.223 2.1065-1.0928-2.6345-0.52692c-1.449-0.28979-3.6166-0.77337-4.8169-1.0746-2.3372-0.58662-7.5255 2.6362-6.6151 4.1093 0.6302 1.0196 9.2282 3e-3 11.96-1.4148zm2.5744-7.6391c0.48248-0.48248 2.4996-1.1222 4.4824-1.4216 1.9829-0.29942 4.0577-1.1271 4.6106-1.8394 0.55304-0.71228 1.4699-1.295 2.0374-1.295 0.56771 0 1.0832-0.61125 1.1454-1.3583 0.25293-3.0346 1.6462-6.7916 2.5189-6.7916 1.1766 0 0.45123-5.4547-0.9058-6.8118-0.70144-0.70149-3.1712-1.4611-5.4884-1.688-4.1953-0.41082-4.2155-0.39933-4.8016 2.7248-0.32369 1.7256-0.34637 3.9003-0.0508 4.8327 0.29592 0.93244 0.11865 1.9545-0.39398 2.2713-0.55448 0.34269-0.7136 7e-3 -0.39276-0.82935 1.0117-2.6363-0.25095-1.4117-2.9858 2.896-3.4142 5.3777-4.5474 8.219-2.6498 6.6442 1.0847-0.90014 1.2619-0.6926 1.0508 1.2302-0.26624 2.4252 0.34921 2.9098 1.8231 1.4359zm-251.04-29.232c-0.47412-4.445-1.1622-6.4117-5.7026-16.3-0.97194-2.1167-2.2743-5.8861-2.8942-8.3763-0.6198-2.4902-1.3928-4.8531-1.7177-5.2506-1.8474-2.261-6.838 19.566-5.7724 25.246 0.62327 3.3225 4.5718 7.3318 7.9198 8.0418 9.2228 1.9557 8.7545 2.1484 8.1669-3.3608zm263.17 0.90555c-1.192-4.6831-4.08-13.245-4.6648-13.83-0.29393-0.29397-0.58144 2.5868-0.63875 6.4018-0.057 3.815-0.31268 7.2735-0.56744 7.6857s-0.0797 0.98625 0.38869 1.2758c0.46847 0.28954 1.0391-0.19168 1.268-1.0694 0.31676-1.2144 0.44139-1.1088 0.52132 0.44168 0.078 1.5165 0.65954 2.0375 2.2736 2.0375 1.9965 0 2.1091-0.23346 1.4194-2.943zm-4.4934-5.1534c0-1.5235 0.1562-2.7701 0.34719-2.7701 0.7684 0 1.1664 4.6047 0.43691 5.0556-0.43121 0.26655-0.7841-0.76193-0.7841-2.2855zm-279.81-46.237c1.6683-6.6311 3.1506-11.526 5.2109-17.205 0.27099-0.74709 0.62815-2.9032 0.79373-4.7913 0.16558-1.8881 0.74858-4.2692 1.2956-5.2912 0.54699-1.0221 0.74836-2.8392 0.44756-4.0379-0.30984-1.2343-0.1469-2.1795 0.3757-2.1795 0.50762 0 0.91661-0.71311 0.909-1.5847-0.0183-2.0872-10.891 9.248-14.935 15.572-5.1848 8.1053-5.3133 18.087-0.32131 24.978 1.5254 2.1058 3.0941 3.4507 3.5198 3.0178 0.42245-0.42948 1.6395-4.2446 2.7046-8.478zm279.33-161.31c-6.9858-0.42001-19.822-1.8188-28.525-3.1083-8.703-1.2896-19.899-2.8993-24.879-3.5771-8.0101-1.0902-14.022-2.252-37.58-7.2632-5.5033-1.1706-27.706-6.8856-38.938-10.023-2.7394-0.76512-7.4256-1.9589-10.414-2.6528-4.7737-1.1086-11.528-3.3728-17.205-5.7685-0.99613-0.42024-5.4786-2.0958-9.9611-3.7236-4.4824-1.6277-12.47-4.9384-17.749-7.3573-5.2796-2.4188-10.068-4.3979-10.64-4.3979-0.57252 0-1.0409-0.35489-1.0409-0.78865 0-0.43374-2.5619-2.1026-5.6932-3.7087-7.1419-3.663-17.851-13.586-17.851-16.541 0-2.1066 2.1711-4.5075 4.5834-5.0686 0.70705-0.16444 1.4931-0.57194 1.7468-0.90554 0.73677-0.96864 2.9158-1.1947 2.3266-0.24141-0.9917 1.6047 3.3484 2.2323 4.5044 0.65138 0.59089-0.8081 1.5887-1.4693 2.2174-1.4693 0.86377 0 0.89208 0.30233 0.11587 1.2376-0.82756 0.99713-0.25821 1.4529 2.9293 2.3454 2.176 0.60926 4.9314 2.0062 6.1232 3.1046 8.336 7.6823 25.532 17.017 41.106 22.312 4.9805 1.6938 9.2592 3.3305 9.5083 3.6371 0.24905 0.30665 3.509 1.495 7.2444 2.6409 12.595 3.8635 20.366 6.457 21.948 7.3249 0.86483 0.47471 2.4948 0.86834 3.6222 0.87473 1.1274 6e-3 6.9398 1.2711 12.916 2.8104 5.9766 1.5394 12.743 3.1301 15.036 3.535 2.2928 0.40493 6.7752 1.3685 9.9611 2.1412 6.2938 1.5266 30.66 5.5843 41.561 6.9213 3.7354 0.4581 7.8104 1.012 9.0556 1.2309 9.4124 1.6548 24.252 2.5648 39.844 2.4431 15.041-0.11736 24.658-1.3157 26.284-3.2747 1.5907-1.9167-0.52351-4.8421-4.8412-6.6988-2.0818-0.89515-7.1433-3.4878-11.248-5.7614-4.1047-2.2736-10.218-5.2059-13.583-6.5162-3.3662-1.3104-8.1242-3.2142-10.573-4.2308-2.4494-1.0166-5.7976-1.8483-7.4406-1.8483s-2.8989-0.43426-2.7911-0.96504c0.10791-0.53078-1.0262-1.2848-2.5204-1.6758-1.4942-0.39088-4.9579-1.3824-7.6971-2.2032-2.7394-0.82088-5.9994-1.7092-7.2444-1.9741-4.7469-1.0099-6.3695-4.632-3.5806-7.9925 1.3626-1.6418 9.8096-4.0312 14.134-3.9981 3.1594 0.0243 19.18 5.1526 34.959 11.191 6.2311 2.3845 22.687 10.325 27.098 13.075 9.3006 5.7999 13.46 9.1073 16.921 13.458 3.6022 4.5271 3.912 5.3105 3.4547 8.7404-1.5936 11.954-24.057 16.654-67.201 14.059zm-32.576-21.321c-4.0833-1.5717-8.5623-2.6691-15.847-3.8832-8.1289-1.3546-18.499-3.4415-22.63-4.5539-2.7478-0.73994-3.5809-1.3196-2.8897-2.0108 0.69118-0.69121 2.0949-0.69046 4.8693 3e-3 11.825 2.9537 12.431 3.0392 33.781 4.762 19.745 1.5933 25.824 1.303 25.797-1.2322-0.0265-2.5329-11.894-8.0757-27.45-12.821-6.7977-2.0734-9.9952-4.0768-8.6463-5.4173 0.4416-0.43895 14.488 3.4597 24.582 6.8229 4.3694 1.4558 9.7628 2.6468 11.985 2.6468 5.4102 0 12.217 1.8934 12.217 3.3982 0 0.89417-0.83023 1.0558-3.1695 0.61694-3.7677-0.70681-3.9095-0.1756-0.90552 3.3944 4.9137 5.8395 2.627 7.281-11.774 7.4216-8.3818 0.0818-11.31 0.4034-11.313 1.2424-9e-3 1.5209-4.1277 1.3343-8.6071-0.38983zm-52.069-11.294c-1.7431-0.47234-4.7993-1.2336-6.7916-1.6917-1.9922-0.45809-4.8447-1.2174-6.3388-1.6873l-2.7166-0.85441 3.2315-0.078c3.461-0.0834 11.345 1.929 15.785 4.0293 3.053 1.4441 1.5971 1.5736-3.1694 0.28202zm-19.017-5.2946c0-0.49806 0.4075-0.90554 0.90561-0.90554 0.49802 0 0.90552 0.40748 0.90552 0.90554s-0.4075 0.90555-0.90552 0.90555c-0.49811 0-0.90561-0.40749-0.90561-0.90555zm-8.41-1.4675c-0.30909-0.30909-3.7389-0.72301-7.6217-0.91983-9.9527-0.5045-17.34-2.0954-18.692-4.0255-0.62414-0.89102-4.9633-3.4835-9.6428-5.761-9.1273-4.4423-12.684-7.1399-12.684-9.6203 0-2.4055 1.7861-2.5587 7.8309-0.67183 3.559 1.1109 5.7163 2.3086 5.9809 3.3202 0.48587 1.8582 13 8.2518 21.505 10.987 3.2373 1.0412 7.1085 2.4558 8.6027 3.1434 1.4942 0.68773 4.7542 1.8687 7.2444 2.6242 4.4631 1.3542 4.4814 1.3747 1.2828 1.4298-1.7846 0.0306-3.4977-0.19703-3.8068-0.50611zm30.596-1.6692c-3.4694-1.5886-2.9565-1.6002 3.1694-0.0713 3.6456 0.9098 4.2523 1.2526 2.2638 1.2791-1.4942 0.0199-3.9391-0.52359-5.4333-1.2078zm23.091-6.3272c-3.7354-1.1356-8.8178-2.5497-11.294-3.1423-4.8068-1.1505-5.6239-1.5661-4.7654-2.4244 0.55073-0.55075 13.736 1.8867 17.871 3.3037 1.2451 0.42666 3.9957 1.218 6.1125 1.7586 2.1167 0.54054 3.8486 1.3746 3.8486 1.8535 0 1.3882-4.4434 0.8791-11.772-1.349zm6.3388-17.869c-9.4888-3.516-36.266-10.7-39.883-10.7-1.0335 0-1.6274-0.40748-1.3194-0.90553 0.3078-0.49806-0.0757-0.90556-0.85213-0.90556-0.77648 0-1.4118-0.40749-1.4118-0.90555 0-0.49805-0.91687-0.91461-2.0375-0.92568-2.6019-0.0257-6.7492-3.1017-5.3488-3.9671 0.55555-0.34334 1.9353-0.1288 3.0662 0.47673 1.1309 0.60555 3.2787 1.1969 4.7729 1.3141 18.019 1.4136 56.597 11.197 56.597 14.352 0 1.1453-5.6046 4.1922-7.5014 4.0782-0.60568-0.0364-3.3424-0.89663-6.0817-1.9116zm-150.32-10.599c-9.162-2.821-6.0724-7.4037 7.6779-11.388 10.203-2.9565 26.519-3.3379 29.188-0.68237 0.891 0.88686 2.7783 2.1983 4.194 2.9144 2.5177 1.2735 2.3995 1.3272-5.3963 2.4527-9.5628 1.3806-15.104 3.124-19.567 6.1567-3.9458 2.6813-8.6466 2.841-16.096 0.54702zm86.631-4.3259c-0.26338-0.2634-0.2695-1.0246-0.0136-1.6915 0.47223-1.2305 3.0321-0.82175 3.0321 0.48411 0 0.89793-2.3771 1.8488-3.0185 1.2074zm5.4333 0c-0.33198-0.33203-0.60364-1.0248-0.60364-1.5395 0-0.56742 0.42176-0.51396 1.0715 0.13584 0.58939 0.58936 0.86103 1.282 0.6037 1.5395s-0.73953 0.1962-1.0716-0.13583zm-46.787-3.924c0-0.49805 0.83903-0.90554 1.8645-0.90554 1.0256 0 1.6126 0.40749 1.3049 0.90554-0.30779 0.49806-1.1469 0.90555-1.8645 0.90555-0.71775 0-1.3049-0.40749-1.3049-0.90555zm0-3.0726c0-0.85903 2.7106-1.2919 3.1938-0.51011 0.29434 0.47629-0.30378 0.86599-1.3293 0.86599-1.0254 0-1.8645-0.16015-1.8645-0.35588z" fill="#acebf9"/></svg>
