<?xml version="1.0" encoding="UTF-8"?>
<svg version="1.1" viewBox="0 0 900 2400" xml:space="preserve" xmlns="http://www.w3.org/2000/svg"><path d="m605.64 2199.8c-1.8572-0.2353-3.8832-1.0379-4.5022-1.7838-1.6517-1.9902-2.2828-30.032-0.9085-40.362 1.7775-13.358 7.8614-29.728 12.47-33.553 0.85397-0.7089 1.3748-2.7469 1.3782-5.3926 0-2.3394 0.40561-6.6979 0.8949-9.6855 0.50135-3.0615 0.91097-30.338 0.93869-62.501 0.051-59.226-0.23073-65.022-4.1803-86.021-0.80818-4.297-1.8119-9.6739-2.2304-11.949-0.4185-2.2748-1.8219-8.0654-3.1186-12.868-1.2966-4.8024-2.619-9.7656-2.9386-11.03-1.3018-5.1488-8.871-29.066-9.6752-30.572-2.9879-5.5935-12.931-39.882-13.657-47.094-0.76482-7.6022-3.1038-17.491-15.653-66.177-0.52121-2.0221-2.7599-10.708-4.9748-19.302-2.2149-8.5939-4.3251-17.43-4.6892-19.635-0.36418-2.2057-1.8049-6.3417-3.2016-9.1912-1.3968-2.8497-3.0281-6.699-3.6252-8.5544-0.5971-1.8552-1.6849-3.8705-2.4172-4.4783-0.73243-0.6079-1.3317-1.474-1.3317-1.9247 0-1.2246-4.0251-7.2031-4.8584-7.2162-0.39727-0.01-4.5333 2.4003-9.1912 5.348-17.266 10.927-52.12 29.287-58.81 30.98-1.1267 0.2852-3.0594 1.2836-4.2949 2.2189l-2.2462 1.7007 1.327 12.729c0.98625 9.4603 1.2448 21.789 1.0069 48.006-0.26201 28.863-0.0948 35.415 0.91911 36.042 1.5963 0.9861 1.6331 11.802 0.10761 31.624-2.8412 36.917-3.3207 46.352-3.3397 65.717-0.0228 23.368 1.453 43.622 4.0185 55.148 0.95653 4.297 2.007 10.087 2.3345 12.868 0.3275 2.7803 0.73835 5.6755 0.9131 6.4337 2.7968 12.139 6.2368 39.467 8.2726 65.718 1.3231 17.06 1.6539 18.961 4.6002 26.419 1.746 4.4198 3.1746 8.5764 3.1746 9.2371 0 0.6605 0.34736 1.5939 0.77179 2.0742 0.4245 0.4801 1.3131 2.3208 1.9746 4.0901 0.66156 1.7693 2.35 5.0782 3.7522 7.3531 1.4021 2.2747 3.597 6.8244 4.8774 10.11 4.4265 11.359 5.2146 16.4 5.265 33.678 0.0434 14.839-0.10382 16.37-1.7285 17.994-1.6034 1.6035-3.9504 1.8615-24.199 2.6603-12.333 0.4864-28.599 0.7653-36.147 0.6195l-13.724-0.2648-2.1531-10.57c-2.717-13.338-4.7339-27.556-8.0187-56.526-0.80247-7.0772-2.0746-17.074-2.8271-22.214-1.3887-9.4863-1.2819-16.782 0.48888-33.394 1.8992-17.816 2.8819-75.542 1.4239-83.64-0.87422-4.856-7.2806-30.262-8.8072-34.927-0.57899-1.7693-1.6018-5.285-2.2729-7.8125-0.67114-2.5277-2.1246-7.491-3.2298-11.03-2.018-6.4607-2.6328-8.7728-6.844-25.736-1.255-5.0551-2.9688-11.88-3.8084-15.166-0.83962-3.2858-2.0586-8.4559-2.709-11.489-1.3999-6.53-5.4076-21.906-7.4936-28.751-1.1011-3.613-1.2336-5.3927-0.5183-6.9625 0.69534-1.5263 0.61917-3.4261-0.27575-6.8762-1.4125-5.4451-4.3993-23.332-5.9339-35.536-1.6852-13.401-1.8654-14.248-3.0254-14.214-1.1045 0.032-8.5321 1.6852-18.111 4.0308-34.676 8.4907-71.287 15.272-92.892 17.204-17.424 1.5586-43.445 1.6838-54.168 0.2606-29.52-3.918-43.455-6.064-56.367-8.6805-2.4398-0.4945-5.2833-0.8989-6.319-0.8989-2.2304 0-10.615-3.4261-19.576-7.9992-6.2935-3.2118-11.489-7.1767-11.489-8.7675 0-0.4387-0.82584-2.6106-1.8352-4.8262-1.916-4.2058-4.8027-13.261-8.2066-25.742-4.06-14.887-6.7543-22.311-12.009-33.088-5.746-11.785-11.037-23.203-11.037-23.818 0-0.2064-1.4476-3.4664-3.2169-7.2445-1.7693-3.7783-3.2169-7.1949-3.2169-7.5925 0-0.3975-0.5638-1.376-1.2529-2.1741-0.6891-0.7981-1.9737-3.5191-2.8546-6.0466-0.88094-2.5276-1.9507-5.4228-2.3773-6.4339-1.5622-3.7026-3.6256-10.678-3.6256-12.256 0-0.8923-0.34169-2.0151-0.75931-2.4955-0.41763-0.4803-1.3193-2.7344-2.0038-5.0093-0.68448-2.2748-1.5297-4.5497-1.8782-5.0551-0.34854-0.5055-0.93241-2.5726-1.2975-4.5935-0.36508-2.021-0.95394-3.8821-1.3086-4.1361-0.35465-0.254-2.6086-6.4589-5.0087-13.789-5.2279-15.966-10.388-30.631-12.176-34.606-0.7167-1.5931-1.3031-3.574-1.3031-4.4025s-0.75309-3.0406-1.6735-4.9163c-0.92044-1.8755-2.212-5.2713-2.8701-7.5461-0.65814-2.2749-1.7958-6.2041-2.5282-8.7318-0.73235-2.5275-1.6753-5.4229-2.0954-6.4338-1.0469-2.5193-4.0119-10.651-6.7026-18.383-6.1484-17.667-6.4552-19.845-3.3506-23.792 2.6497-3.3686 6.1994-5.0187 12.351-5.7418l5.238-0.6157-0.55786-4.6865c-1.8437-15.489-2.3935-25.119-2.3928-41.911 6.9e-4 -23.79 1.4135-38.05 5.5183-55.705 4.3259-18.607 6.6802-23.91 14.167-31.91 2.7553-2.9442 5.1372-5.6568 5.2932-6.0279 0.156-0.3709 2.1449-1.9556 4.4197-3.5214 2.2748-1.5656 4.9636-3.6097 5.9751-4.5421 3.4602-3.1899 20.127-15.023 21.16-15.023 0.32248 0 2.7672-1.4476 5.4328-3.217 2.6656-1.7693 5.0769-3.2168 5.3584-3.2168 0.28155 0 3.5476-1.7206 7.2579-3.8233 12.127-6.873 46.864-23.75 48.883-23.75 0.63478 0 1.5471-0.3624 2.0273-0.8052 0.48024-0.443 3.5616-1.9424 6.8475-3.3321 3.2859-1.3898 7.6288-3.2941 9.6508-4.2319 6.2243-2.8863 16.356-6.9856 20.221-8.1811 2.0221-0.6256 4.2969-1.5036 5.0552-1.9511 2.6108-1.5408 5.0814-2.5617 14.246-5.8867 5.0552-1.8339 12.999-4.7486 17.653-6.477 4.654-1.7284 9.2036-3.1446 10.11-3.1471 2.7338-0.01 6.2372-3.674 12.291-12.863 3.1639-4.8024 7.7478-11.304 10.187-14.448 3.8991-5.0269 5.9926-8.0204 12.393-17.721 0.83383-1.2637 2.2823-3.4186 3.2188-4.7882 2.2653-3.3133 2.199-3.4839-1.3541-3.4839-3.5143 0-6.4607-2.6204-8.0399-7.1505-1.1231-3.2219-1.4431-2.6043 6.2712-12.102 2.1485-2.6453 3.9063-5.0938 3.9063-5.4413s-1.28-2.0332-2.8443-3.7458c-2.6497-2.9011-2.8034-3.4417-2.2464-7.9004 0.46711-3.7385 0.27664-5.1074-0.87044-6.2545-0.80763-0.8076-1.9049-2.7204-2.4383-4.2505-0.83114-2.3841-0.6209-3.3774 1.4702-6.9455 2.2262-3.7987 2.386-4.7111 1.8242-10.413l-0.61579-6.2493 3.8103-3.2616c3.9477-3.3791 7.3545-4.3831 14.933-4.4009 4.846-0.012 7.1984-0.6864 7.1984-2.0652 0-0.5164 1.3442-2.4837 2.9871-4.3716 1.643-1.8878 5.0552-6.4254 7.5828-10.083 2.5276-3.658 5.582-7.437 6.7876-8.3979 5.1774-4.1261 10.688-0.8354 17.039 10.176 2.3409 4.0584 4.5552 7.3657 4.9208 7.3498 1.0403-0.046 3.8816-2.3898 3.8816-3.2024 0-0.4019 1.1374-2.215 2.5276-4.0288 4.3712-5.7032 6.4592-8.6841 9.4-13.42 1.5696-2.5275 4.2596-6.4568 5.9778-8.7317 1.7183-2.2748 4.8387-6.8245 6.9344-10.11 2.0957-3.2859 6.0402-9.0764 8.7654-12.868s7.2396-10.248 10.032-14.349c5.818-8.5441 6.0249-9.9014 3.4173-22.416-1.3748-6.5979-1.5313-10.39-1.0069-24.389 0.44753-11.948 1.0619-17.85 2.2003-21.14 1.4176-4.0959 3.4842-21.479 2.6626-22.396-0.76518-0.8543-10.55 6.59-17.52 13.328-12.311 11.903-16.741 21.096-13.688 28.404 1.7648 4.2238 5.4278 9.1946 10.327 14.014 3.9438 3.8797 4.8695 4.2544 9.7222 3.9344 5.5894-0.3686 1.1063 4.3022-4.8926 5.0976-2.2379 0.2965-5.8268 0.1359-7.9752-0.3573-2.1485-0.4932-3.9063-0.5711-3.9063-0.1735 0 1.4574-2.9094 1.7831-4.8736 0.5455-1.1109-0.7-3.0539-1.564-4.3176-1.9204-1.2638-0.3562-4.7354-2.513-7.7145-4.7926s-7.8396-5.2907-10.801-6.6912c-7.9484-3.7591-13.308-8.5663-16.417-14.726-6.522-12.92-4.645-26.615 6.0641-44.244 3.3042-5.4394 3.3054-5.4452 1.841-9.1049-1.9904-4.9745-1.8768-13.544 0.24511-18.484 5.0108-11.667 17.375-22.134 34.595-29.286 9.6696-4.0161 25.304-6.1458 51.132-6.965l18.963-0.60146-4.324-4.3012c-7.3928-7.354-9.1034-16.101-5.2238-26.712 2.0701-5.662 7.2523-15.987 8.9703-17.873 0.43753-0.4802 0.79551-1.6306 0.79551-2.5564s0.6102-1.9174 1.3561-2.2036 1.9106-1.6175 2.5883-2.9583c2.3398-4.6294 3.876-7.0423 6.0446-9.4948l2.1765-2.4613-2.4062-6.9679c-1.3235-3.8323-2.4063-7.8186-2.4063-8.8584s-0.42525-2.6852-0.94502-3.6564c-0.51977-0.97119-1.7995-6.2175-2.8438-11.658-1.4673-7.6445-2.0074-15.01-2.377-32.411-0.5425-25.542 0.81729-43.831 4.3052-57.905 0.56381-2.2748 1.5854-7.2915 2.2701-11.148 0.6848-3.8567 1.6634-7.7938 2.1747-8.7492 0.51135-0.95538 1.829-4.4176 2.9281-7.6939 1.0992-3.2763 2.5834-6.6098 3.2982-7.4079s1.2998-2.0601 1.2998-2.8044 1.6544-3.8994 3.6765-7.0114c2.0221-3.1119 3.6766-5.8502 3.6766-6.0851 0-0.59023 7.7537-12.102 9.3069-13.818 0.69464-0.76739 1.6803-1.9266 2.1903-2.576 5.7412-7.311 6.9784-8.9934 6.614-8.9934-1.0813 0-24.229 10.902-27.762 13.075-28.614 17.6-44.965 35.017-59.349 63.212-1.6664 3.2665-4.5767 10.289-6.3224 15.256-2.1578 6.1393-2.5011 16.941-0.90338 28.428 0.5394 3.8783 0.77972 7.2525 0.53403 7.4982-0.76042 0.76036-2.7326-3.6403-3.5776-7.9828-3.3523-17.227-2.1379-35.021 3.3872-49.633 0.86017-2.2748 2.2338-6.1007 3.0526-8.5019 0.81875-2.4012 1.8233-4.3658 2.2323-4.3658 0.40906 0 0.74373-0.47797 0.74373-1.0622 0-0.58418 0.96102-2.342 2.1357-3.9063s2.3727-3.4902 2.6622-4.2798c2.4755-6.7501 27.165-30.449 37.022-35.537 1.5166-0.78277 4.2646-2.6073 6.1066-4.0546 1.8421-1.4473 3.9101-2.6406 4.5956-2.6519 0.68556-0.0113 2.2804-0.82925 3.5443-1.8178 1.2638-0.98854 2.6074-1.8066 2.9859-1.8178 0.37846-0.0112 4.3757-1.6809 8.8827-3.7103 6.7727-3.0496 20.711-7.1745 32.315-9.5632 1.3-0.26761 5.0225-2.3256 8.2722-4.5734 3.2496-2.2477 8.4936-5.454 11.653-7.1251 3.1595-1.6711 5.7445-3.3255 5.7445-3.6764 0-0.35094 1.3442-0.92549 2.9872-1.2768 1.6429-0.35128 4.0212-1.158 5.2849-1.7926 1.2638-0.63464 4.7795-1.9023 7.8126-2.8171 3.0331-0.91476 6.1352-2.155 6.8934-2.7561 0.75827-0.60111 1.8957-0.90561 2.5276-0.67669 1.969 0.71332 1.2594-1.056-1.1489-2.8645-2.8462-2.1374-3.112-6.0229-0.45959-6.7165 1.0111-0.26439 1.8383-0.76299 1.8383-1.108 0-0.345 1.4476-1.1508 3.2169-1.7905 1.7693-0.6398 3.217-1.5501 3.217-2.0229s0.93061-0.8887 2.068-0.92424c1.9732-0.0617 1.9838-0.10079 0.22975-0.85452-1.594-0.68496-1.4719-0.80721 0.91917-0.92004 5.5243-0.26069 10.165-0.97796 12.582-1.9447 3.7517-1.5005 16.444-1.4205 24.183 0.15251 6.3828 1.2974 10.757 1.7711 20.585 2.2294 5.2556 0.24507 9.7708 0.66077 10.034 0.92378s1.5832 0.4782 2.9336 0.4782c2.7446 0 2.7221 0.28729 1.3312-17.033-0.56499-7.0352-0.45649-7.6501 2.3117-13.098 1.5976-3.1437 3.316-5.7158 3.819-5.7158s0.61683-0.517 0.25321-1.1489c-0.36357-0.6319-0.3442-0.86377 0.0434-0.51525 0.38748 0.3485 2.7657-0.99572 5.2851-2.9872 2.5194-1.9914 5.3463-3.6208 6.2822-3.6208 1.9951 0 3.5542-2.0228 1.967-2.5518-0.59822-0.19941-0.8559-0.73741-0.57271-1.1956 0.28318-0.45817-2.0247-3.8351-5.1284-7.5043-3.1039-3.6692-6.7452-8.0276-8.092-9.6854-8.8011-10.834-17.142-20.295-17.949-20.36-1.3695-0.10967-7.3201-7.4329-8.8964-10.949-0.82887-1.8487-2.201-3.9356-3.0492-4.6375-1.1414-0.94461-1.3915-2.079-0.96246-4.3658 0.4507-2.4025 0.26981-3.0896-0.81315-3.0896-1.0567 0-1.4015-1.1264-1.429-4.6685-0.02-2.5677-0.44978-5.1669-0.95535-5.7761-0.50549-0.60915-1.3965-3.7818-1.9799-7.0504-0.5834-3.2685-1.2682-7.0394-1.5217-8.3796-0.36584-1.9341-0.0351-2.5719 1.603-3.0918 1.4094-0.44733 2.3089-0.21722 2.8366 0.72573 0.79461 1.4198 4.7847 2.8997 7.2301 2.6815 0.91036-0.0811 0.98838 0.0501 0.22976 0.38644-1.8319 0.81222-1.3372 1.9479 1.1165 2.5638 1.246 0.31271 3.2416 1.495 4.4348 2.6272 1.1932 1.1323 3.0866 2.7935 4.2076 3.6916 1.1209 0.89814 1.8066 2.0077 1.5235 2.4656-0.28304 0.45797 1.539 1.987 4.0489 3.3979 2.5637 1.4411 4.7763 3.4132 5.0491 4.5 0.26705 1.0641 1.5412 2.4157 2.8313 3.0035 1.29 0.5878 2.6133 1.7961 2.9405 2.6852 0.74621 2.0277 7.85 11.267 8.6628 11.267 0.33095 0 0.88098 1.1122 1.2221 2.4715 0.34115 1.3594 1.3561 3.5308 2.2553 4.8254 0.89931 1.2946 2.7338 4.7082 4.0767 7.5857 1.3429 2.8775 2.8227 5.4673 3.2884 5.7551 0.46558 0.28779 1.1118 1.7307 1.4359 3.2066 0.3242 1.4758 1.1625 3.159 1.863 3.7403 0.70051 0.58135 2.1964 2.9882 3.3243 5.3485 1.1278 2.3603 2.2859 4.4983 2.5735 4.751 0.28765 0.25276 1.24 2.0106 2.1166 3.9063 0.8765 1.8957 2.0139 3.4467 2.5276 3.4467 0.51368 0 0.93399 0.57616 0.93399 1.2804 0 0.70419 0.6204 1.5184 1.3787 1.8094 0.75827 0.29098 1.3787 1.1107 1.3787 1.8217 0 1.3329 3.7837 2.4416 8.3328 2.4416 1.4236 0 2.8169 0.36991 3.0962 0.82203 0.2794 0.45212 2.0617 1.0388 3.9605 1.3038 6.223 0.86844 11.394 2.2313 12.442 3.279 0.56596 0.56598 1.9459 1.029 3.0665 1.029 1.1205 0 2.1752 0.3102 2.3438 0.68934 0.385 0.86637 13.678 6.669 15.271 6.6659 0.64772-7e-4 1.4098 0.6024 1.6934 1.3414 0.28359 0.73903 1.3166 1.5979 2.2956 1.9087 1.7636 0.55975 9.6754 5.4332 13.216 8.1405 4.631 3.5414 13.952 11.308 15.619 13.014 4.6922 4.8026 7.1352 5.7784 13.825 5.5214 3.5214-0.13521 7.85-0.51114 9.6194-0.83535 4.8948-0.89696 10.773-1.5798 18.383-2.1352 3.7914-0.27676 7.4236-0.93324 8.0715-1.4588 0.64791-0.52559 3.5432-0.89497 6.4339-0.82082 2.8908 0.0741 5.7864-0.20729 6.4348-0.62541 1.3361-0.86163 13.528 0.78114 21.799 2.9374 3.0331 0.79068 6.6522 1.4523 8.0423 1.4704 1.3902 0.0181 2.5276 0.37933 2.5276 0.80293 0 0.42361 1.551 0.8278 3.4467 0.89821 4.7025 0.17465 8.8446 1.1366 9.5308 2.2133 0.31304 0.49136 2.1743 1.0277 4.1361 1.1919 4.2062 0.35203 11.08 1.7354 13.677 2.7525 2.2393 0.87701 5.9743 4.1477 5.9743 5.2316 0 1.1949-13.438 7.1769-17.264 7.6847-1.154 0.1532-5.234 1.5447-9.0669 3.0923-3.8328 1.5476-9.2996 3.157-12.148 3.5764-7.829 1.1528-24.908 0.3327-42.543-2.0428-20.971-2.8249-25.876-3.0464-27.665-1.249-1.7913 1.8-2.1479 2.9771-0.61455 2.0296 0.60387-0.37322 0.88339 0.0563 0.71222 1.0947-0.15488 0.93992 0.0892 2.3017 0.54314 3.0262 1.2832 2.0496 1.7554 19.479 0.59925 22.12-1.2792 2.9222-2.8771 5.3604-4.9166 7.5021-0.88463 0.92902-1.6085 2.012-1.6085 2.4068 0 0.39468-1.1374 1.1918-2.5276 1.7715-1.3901 0.57962-3.9752 1.8721-5.7445 2.8723-1.7693 1.0001-4.5132 2.3013-6.0974 2.8914-2.7693 1.0316-2.8431 1.1946-1.9138 4.2227 0.53163 1.7323 1.3109 3.1496 1.7316 3.1496 0.4207 0 0.7649 0.48232 0.7649 1.0718 0 1.1789 1.0453 2.4082 7.7079 9.0643 2.4699 2.4676 4.9328 4.4019 5.4729 4.2985 0.54017-0.10345 1.0008 0.32094 1.0238 0.94311 0.0517 1.4047 3.7247 4.0709 4.5167 3.2788 0.31923-0.31916 0.58036 0.13345 0.58036 1.0058 0 0.87236 0.39286 1.3433 0.87299 1.0466 1.0552-0.65218 2.8035 2.216 2.8035 4.5995 0 0.27054 0.76325 0.0834 1.6962-0.41586 2.5294-1.3536 5.6568 1.1739 5.6568 4.5717 0 1.4879 0.74966 3.4549 1.6659 4.3712 0.91627 0.91626 1.515 2.1185 1.3307 2.6716-0.18439 0.55315 0.43739 1.5613 1.3817 2.2404 0.94441 0.67907 2.0223 2.0503 2.3952 3.0471 0.52363 1.3991 0.85135 1.5326 1.4367 0.58535 0.6298-1.019 0.85535-1.0146 1.3292 0.0258 0.43064 0.94513 0.70038 0.97734 1.098 0.13112 0.38479-0.81877 0.95461-0.69463 2.1099 0.45958 2.818 2.8155 3.7969 6.5672 3.7969 14.553 0 7.7045 0.86092 10.903 3.4492 12.812 0.72084 0.53177 1.1703 1.6462 0.99871 2.4764-0.1715 0.83025 0.51536 2.1278 1.5264 2.8835 1.5307 1.1441 1.6558 1.6731 0.74767 3.1622-0.5998 0.98357-0.86018 2.6693-0.57857 3.7461 0.4167 1.5935 0.20515 1.8401-1.1371 1.325-1.2718-0.48808-1.5166-0.28774-1.07 0.87603 0.31847 0.82985 0.17675 1.7575-0.31502 2.0613-0.49165 0.30389-0.65599 0.93754-0.36515 1.4081 0.29083 0.47059-0.0655 0.85562-0.79158 0.85562-0.7263 0-1.8516 0.63998-2.5007 1.4222-0.86892 1.047-1.3579 1.1348-1.8536 0.33273-0.37044-0.59921-2.6818-1.7943-5.1364-2.6558-4.0247-1.4125-4.449-1.8288-4.3197-4.239 0.0791-1.47-0.0586-2.1557-0.30635-1.5238-0.24733 0.63191-0.89174 1.1489-1.4321 1.1489-1.7375 0-8.9395-5.9368-8.549-7.0472 0.20756-0.59005-0.217-1.3009-0.9433-1.5796-0.72636-0.27872-1.3207-0.10615-1.3207 0.3835 0 1.6408-1.6182 0.91193-2.1045-0.94797-0.26442-1.011-0.0963-1.8382 0.37355-1.8382 0.46986 0 0.22287-0.96364-0.54892-2.1414-0.77171-1.1778-1.1258-2.4186-0.78702-2.7574 0.33873-0.33879-0.18819-0.61598-1.171-0.61598-2.2558 0-5.9643-2.5472-5.788-3.9755 0.30766-2.4911-0.18564-3.3775-1.8794-3.3775-2.5428 0-6.4772-1.9366-6.4772-3.1882 0-0.58017-1.6447-2.2716-3.6548-3.7588-3.6086-2.6697-4.5704-4.0826-2.7791-4.0826 0.50557 0 0.91917-0.43801 0.91917-0.97338 0-0.53534-0.40885-0.72066-0.90856-0.41182-0.50335 0.31106-0.68479-0.0218-0.40685-0.74627 0.27602-0.7193-0.10327-1.54-0.84292-1.8239-0.73967-0.28383-1.6384-1.8882-1.9972-3.5653-0.35873-1.6771-1.0538-3.5482-1.5445-4.1579-0.49067-0.60976-0.64371-1.5106-0.34013-2.0019 0.30374-0.49127-0.31102-1.1672-1.366-1.502-1.089-0.34566-1.7158-1.1358-1.4501-1.8283 0.25747-0.67079-0.14599-1.4552-0.89649-1.7432-0.99659-0.38245-1.2122-1.3356-0.79964-3.5347 0.46104-2.4577 0.13649-3.4134-1.7661-5.2008-1.282-1.2044-2.0838-2.5895-1.7819-3.078 0.30192-0.48856-0.0213-1.2406-0.71768-1.6711-0.69658-0.43056-1.3004-1.1081-1.3415-1.5057-0.2086-2.0113-1.5763-5.7781-2.0982-5.7781-0.3273 0-1.1391-1.3442-1.804-2.9872-2.0533-5.0738-4.0027-8.4192-6.0885-10.449-2.1042-2.0474-3.2879-2.4986-16.589-6.3239-4.5497-1.3084-9.0994-2.7329-10.11-3.1655-1.0111-0.4326-3.2859-1.3218-5.0552-1.976-1.7693-0.65421-3.4582-1.5392-3.7528-1.9667-0.29477-0.4275-1.7424-0.86458-3.217-0.97131-1.5554-0.11258-2.9581-0.86935-3.3408-1.8025-0.56934-1.388-3.0558-2.1387-5.6126-1.6945-0.41671 0.0725-0.49577-0.29224-0.17557-0.81028 0.32013-0.51805 5.4e-4 -0.9419-0.71017-0.9419-1.1389 0-2.3804-0.83379-6.824-4.5826-0.61289-0.51706-2.1639-1.4183-3.4467-2.0028-1.2829-0.58448-2.3324-1.4788-2.3324-1.9875 0-0.50864-0.24175-0.68303-0.53721-0.38754-0.29552 0.29548-1.4034-0.15259-2.4618-0.99572-6.6061-5.2619-19.979-18.382-19.979-19.601 0-0.95414-3.6661-2.0321-7.353-2.1621-4.4418-0.15662-12.056 1.5259-11.703 2.586 0.15986 0.47959 2.5502 1.7505 5.3117 2.8242 5.2131 2.0268 13.023 6.3158 15.812 8.684 0.88463 0.75109 1.6084 1.0687 1.6084 0.70573 0-0.36295 1.551 0.81017 3.4467 2.607 1.8957 1.7968 3.8126 3.2704 4.2599 3.2748 1.5354 0.0151 18.23 17.015 23.928 24.365 6.4437 8.3124 14.621 21.712 15.566 25.506 0.34606 1.3902 1.0348 2.5276 1.5308 2.5276 0.49593 0 0.9016 0.57616 0.9016 1.2804 0 0.7042 0.5217 1.4805 1.1593 1.7252 0.63771 0.24468 2.1559 2.4604 3.3739 4.9238 1.2179 2.4634 3.1779 5.7587 4.3554 7.323 1.1776 1.5643 2.141 3.3014 2.141 3.8602 0 0.55884 1.2408 2.8546 2.7574 5.1017 1.5166 2.2471 2.7574 4.3532 2.7574 4.6801s0.82722 1.4824 1.8383 2.5676c1.011 1.0852 1.8382 2.698 1.8382 3.5838s0.39589 1.8553 0.8796 2.1544c0.48386 0.299 2.8367 4.4595 5.2285 9.2455s4.8258 8.7019 5.4088 8.7019c1.1326 0 3.6724 6.9822 3.2934 9.0537-0.12505 0.68263 0.21403 0.96842 0.75338 0.6351 0.57685-0.35651 0.98059 0.19556 0.98059 1.3407 0 1.0707 0.375 1.715 0.83342 1.4317 0.45834-0.28329 0.5987 0.38249 0.31186 1.4795-0.41905 1.6024-0.21204 1.8758 1.0526 1.3905 0.86582-0.33223 1.3433-0.23052 1.0611 0.22603-0.28214 0.45655-0.0434 0.98677 0.53156 1.1783 0.57443 0.19148 1.1845 1.9846 1.3557 3.9848 0.54687 6.3919 2.7036 12.501 5.0343 14.261 1.6041 1.2112 2.2277 2.5722 2.2277 4.8617 0 1.7488-0.35446 2.9607-0.78778 2.6931-0.92434-0.57089-0.0303 2.6615 1.8794 6.7942 1.0064 2.1781 1.2231 5.0284 0.85754 11.281-0.26898 4.6017-0.71588 8.7337-0.99307 9.1822-0.59324 0.95973-3.3596 15.201-3.1676 16.307 0.37411 2.155-0.21735 3.9478-1.2352 3.7442-0.63185-0.12638-1.0914 0.49402-1.0212 1.3787 0.0698 0.88467-0.23403 1.6085-0.6761 1.6085-0.44215 0-1.2712 1.8561-1.8424 4.1246-0.57739 2.293-1.4433 3.8745-1.9499 3.5614-0.5665-0.35012-0.66295 0.21941-0.25485 1.5052 0.42083 1.326 0.31785 1.8592-0.28706 1.4853-0.5292-0.32709-1.4306 0.93399-2.0529 2.8721-0.6102 1.9003-1.6304 4.0756-2.2671 4.8338-0.63674 0.75828-2.2624 3.4467-3.6124 5.9744-5.4651 10.232-7.5429 13.533-9.0459 14.375-0.87504 0.48971-1.5829 1.9869-1.5907 3.3643-0.0104 1.742-0.24967 2.1102-0.80425 1.2349-0.55087-0.86934-0.9806-0.93889-1.4189-0.22976-0.34578 0.55947-0.46338 1.0173-0.26126 1.0173 0.20211 0-3.3535 3.8104-7.9011 8.4677l-8.2684 8.4676 2.613 1.8725c3.7825 2.7105 11.908 11.007 16.124 16.463 4.0639 5.2597 11.88 16.865 11.88 17.639 0 0.27532 0.81266 2.2846 1.8059 4.4649 1.3976 3.0677 2.4305 4.0892 4.567 4.5165 1.5185 0.30365 3.5477 1.339 4.5094 2.3006 1.4845 1.4845 1.6384 2.4445 1.0196 6.3594-0.40093 2.536-1.1666 6.196-1.7015 8.1332s-0.62069 3.8741-0.19075 4.3041c0.74311 0.74312 7.4291-5.4802 7.4458-6.9306 0-0.37915 1.042-0.68935 2.3059-0.68935 1.9426 0 2.2978 0.42808 2.2978 2.7698 0 1.5235 0.40018 3.4881 0.88947 4.3658 1.2171 2.1842 3.3448 11.233 4.7678 20.277 0.67693 4.3019 1.6287 7.5142 2.2264 7.5142 0.95474 0 7.7357-9.5457 7.7459-10.904 0-0.32178 1.45-2.1592 3.2169-4.083 1.7669-1.9238 3.2126-3.7966 3.2126-4.1616 0-0.36502 0.72381-1.3117 1.6084-2.1036 2.2718-2.0337 4.4117-5.3999 4.1133-6.4708-0.13891-0.49859 0.12607-0.6726 0.58877-0.38658 0.46276 0.28594 1.4594-0.40713 2.2146-1.5402 0.75525-1.1331 2.2482-3.054 3.3175-4.2688 1.0693-1.2148 1.9442-2.5865 1.9442-3.0482 0-0.46179 1.1374-0.70871 2.5276-0.54871l2.5276 0.29083 0.5925 18.747c0.32585 10.311 1.0327 21.065 1.5709 23.897 1.4136 7.4406 1.9594 10.153 2.9779 14.8 0.49853 2.2749 1.3106 6.6077 1.8044 9.6287 0.49392 3.0209 1.3046 6.8468 1.8017 8.5019 1.7336 5.7743 2.5916 9.0313 4.1824 15.877 0.88084 3.7915 2.1261 8.1344 2.767 9.6509 0.64088 1.5166 1.4737 3.9982 1.8506 5.5148s1.6497 4.9406 2.8282 7.609c1.1786 2.6683 2.143 5.7084 2.143 6.7555 0 2.939-13.951 16.232-25.486 24.283-2.5093 1.7516-3.8937 3.417-3.9062 4.6995-0.0187 1.8126 5.1334 15.099 7.332 18.911 0.50624 0.8778 0.92048 2.0324 0.92048 2.566 0 0.5333 1.2408 3.6238 2.7574 6.8675 1.5166 3.2438 2.7574 6.1627 2.7574 6.4864 0 0.3239 0.59394 1.8922 1.3198 3.4852 2.3931 5.2514 5.1141 15.892 5.1141 20 0 6.0486-3.7864 23.01-6.2358 27.934-2.0764 4.1742-8.199 11.178-11.505 13.161-4.636 2.7808-8.2397 3.0546-14.154 1.0759-2.9317-0.9809-6.1283-1.7937-7.1034-1.8062-1.9402-0.025-7.4084-1.6172-9.9334-2.8926-0.87788-0.4436-2.3255-0.8222-3.217-0.8415-2.7451-0.06-20.725-7.9357-22.905-10.034-1.1312-1.089-7.1414-8.6546-13.356-16.813-9.7911-12.854-12.583-15.846-20.922-22.429-5.2925-4.1778-9.7481-7.4704-9.9014-7.3173-0.15317 0.1532 0.3954 1.892 1.2193 3.8637 3.2078 7.6774 0 17.891-7.5782 24.139-5.9017 4.8647-9.0604 5.9272-16.121 5.4219l-6.3056-0.4511 0.55486 3.3253c0.30517 1.8289 1.1213 5.1865 1.8134 7.4613 0.69217 2.2749 1.7025 6.8244 2.2451 10.11 0.89312 5.4082 5.1264 23.146 7.458 31.25 0.50908 1.7695 2.3454 8.3871 4.0809 14.706 4.6027 16.76 4.7268 17.199 7.2815 25.787 1.2866 4.3254 2.3394 8.5921 2.3394 9.4814 0 2.9753 1.8264 5.1727 4.2992 5.1727 2.743 0 16.974 6.6179 24.304 11.302 4.0996 2.6196 5.3372 3.0105 7.2423 2.286 3.459-1.3149 10.382-0.3521 14.132 1.9657 3.2754 2.0243 3.3319 2.16 3.3319 8.0188 0 3.278-0.45635 6.8124-1.014 7.8545-0.5962 1.1142-0.66811 2.1306-0.17434 2.4673 1.0228 0.6971 9.4605 12.542 9.4605 13.281 0 0.2895 1.4465 2.9255 3.2146 5.8575 1.768 2.9322 3.2156 6.2617 3.2169 7.3992 0 1.1372 0.41602 2.068 0.92151 2.068 0.50557 0 0.93213 0.517 0.94792 1.1488 0.0159 0.6318 1.0461 3.2168 2.2894 5.7447 1.2434 2.5276 2.2644 5.4435 2.2691 6.4797 0 1.0364 0.37851 2.2771 0.83087 2.7574 0.45242 0.4802 1.6834 4.1821 2.7355 8.2261 3.7928 14.579 6.8623 25.034 10.917 37.187 5.7972 17.375 6.5972 22.931 6.6219 45.994 0.0227 21.181-0.67956 26.055-5.7059 39.594-2.3008 6.1975-11.469 19.433-21.522 31.07-8.2922 9.599-29.782 30.804-34.085 33.633-2.3685 1.5572-5.0142 4.5005-6.71 7.4646-11.199 19.573-44.92 57.172-67.515 75.279-5.8823 4.7138-6.5222 5.2209-11.479 9.0965-2.2748 1.7787-5.644 4.5374-7.487 6.1307l-3.3508 2.897 1.8017 4.2661c2.8895 6.8413 11.122 25.334 14.992 33.678 2.9396 6.3376 6.8597 15.032 8.3912 18.612 0.70279 1.643 1.8591 4.3312 2.5696 5.9744 0.71038 1.6429 1.7899 4.8483 2.399 7.1232 0.60904 2.2748 1.4379 4.9631 1.8419 5.9743 4.3007 10.762 5.5791 22.031 7.2988 64.339 0.55478 13.649 1.4083 25.762 1.8968 26.918 0.53803 1.2733 0.87623 23.01 0.85803 55.148-0.0303 52.709 0.59236 68.581 3.3948 86.594 0.74718 4.8024 1.6946 11.42 2.1055 14.706 0.41085 3.2859 1.4715 8.4353 2.3571 11.443 1.293 4.392 1.5164 7.6494 1.1348 16.544-0.48233 11.243 0.44119 19.28 3.4375 29.918 1.9015 6.7507 5.0734 24.337 6.1338 34.008 0.79197 7.2238 0.19169 40.939-0.75705 42.514-0.22968 0.3814-1.0032 8.6536-1.7188 18.383-3.7748 51.314-4.6888 57.834-9.0149 64.301-1.5938 2.3827-3.4315 4.5476-4.0837 4.8108-1.5656 0.6319-56.664 1.384-61.015 0.833zm-308.67-938.63c0-0.4392 1.3442-1.0608 2.9871-1.3811 5.3155-1.0361 14.852-3.1996 18.153-4.1183 9.6863-2.6958 13.733-3.6826 17.463-4.2583 2.2748-0.3511 7.0313-1.4048 10.57-2.3416 3.5387-0.9371 9.0452-2.2029 12.237-2.8129 4.8019-0.9179 6.1935-1.621 8.0662-4.0764 2.6634-3.4918 12.621-23.422 12.009-24.035-0.23135-0.2313-2.6329 0.251-5.3368 1.0717-4.9288 1.4961-18.996 4.1014-22.307 4.1315-0.97136 0.01-3.597-1.8949-5.8349-4.2305l-4.0689-4.2465-4.6108 1.4892c-2.5359 0.8189-7.0156 1.4891-9.9548 1.4891h-5.344l-5.1624 8.0424c-2.8393 4.4233-7.4217 11.558-10.183 15.855-2.7615 4.297-5.5306 8.8467-6.1536 10.11-0.62296 1.2638-2.0672 3.6998-3.2093 5.4132-2.4319 3.6485-2.5877 4.6972-0.69796 4.6972 0.75829 0 1.3787-0.3594 1.3787-0.7989zm64.452-43.249c16.348-4.2625 18.607-4.973 20.229-6.3623 0.94399-0.8083 1.7163-1.9241 1.7163-2.4796s2.2522-5.5302 5.0048-11.055c5.257-10.551 7.1993-15.1 6.4476-15.1-0.46904 0-7.0823 3.6148-14.21 7.7671-7.4894 4.3631-9.8289 5.1622-12.329 4.2115-2.1644-0.8228-2.3399-0.6664-2.8421 2.5337-1.2044 7.6749-2.7246 10.799-7.5869 15.589-4.5111 4.4447-8.4919 6.2391-8.4919 3.8279 0-0.5487 1.5251-2.3064 3.3891-3.9062 1.864-1.5998 4.3457-3.8998 5.5148-5.111 2.5661-2.6586 2.8714-5.1764 0.51721-4.2657-0.8847 0.3424-2.7459 0.8519-4.1361 1.1324-1.3902 0.2807-2.539 0.9754-2.5529 1.5441-0.0138 0.5687-1.4502 2.068-3.1917 3.3318-1.7415 1.264-3.1778 2.6139-3.1916 3-0.0138 0.3864 0.90532 2.1391 2.0427 3.8951 2.4634 3.803 4.009 3.9667 13.67 1.4475zm4.9418-45.108c2.1231-2.3459 0.70141-2.3459-2.2979 0-1.6727 1.3086-1.899 1.8031-0.83176 1.8179 0.80632 0.011 2.2146-0.8068 3.1296-1.8179zm10.169-1.0148c0.34501-0.5582 2.1272-1.7059 3.9606-2.5502 1.8333-0.8447 5.083-2.6629 7.2214-4.0405 2.1384-1.3777 4.2064-2.5185 4.5956-2.5354 0.38921-0.016 1.7176-0.8712 2.9521-1.8987l2.2445-1.868-1.7571-3.2629c-0.96647-1.7945-2.3165-3.4775-3.0001-3.7398-0.68362-0.2624-4.2118 0.039-7.8403 0.6702-3.6286 0.6308-8.2519 1.3274-10.274 1.5477-2.0221 0.2205-5.1242 0.7916-6.8934 1.2695-1.7694 0.4776-4.7854 0.8709-6.7024 0.8737l-3.4854 0.01 3.7152 3.5342c2.5204 2.3975 3.7152 4.3189 3.7152 5.9743 0 1.3421 0.41361 2.4401 0.9191 2.4401 0.5055 0 0.9191-0.4136 0.9191-0.9191 0-2.2303 3.6353-0.6815 5.393 2.2978 1.9572 3.3173 3.2274 3.9651 4.317 2.2021zm33.948-20.265c4.7575-2.3471 6.8934-3.9387 6.8934-5.1364 0-1.4406 0.41195-1.4852-5.5466 0.6016-2.7628 0.9676-6.6777 2.0554-8.6998 2.4175-5.3949 0.9662-5.9978 1.727-4.244 5.3559l1.4866 3.0761 3.6765-2.4771c2.0221-1.3625 4.9173-3.0894 6.4339-3.8376zm-33.595-1.3688c3.7654-0.7372 9.8422-1.7202 13.504-2.1844 6.115-0.7753 10.399-1.8819 24.11-6.2283 2.7158-0.861 5.9368-2.4912 7.1579-3.6227 2.0838-1.9313 2.2038-2.5805 1.9557-10.571l-0.26442-8.5138-3.6648-0.2982c-4.4752-0.3643-5.7389-1.3449-7.543-5.8538-0.77-1.9243-1.7335-3.4988-2.1412-3.4988-0.40767 0-1.707-0.8337-2.8874-1.8527-1.1804-1.019-4.1108-3.0779-6.512-4.5754-3.3346-2.0796-4.3658-3.2702-4.3658-5.0407 0-3.4094-1.5201-2.8294-3.8876 1.483-1.1477 2.0906-2.5003 4.4725-3.0058 5.2927-0.50549 0.8202-2.9113 4.7968-5.3463 8.8368-2.4349 4.0399-4.8049 7.9659-5.2667 8.7241-4.2573 6.9916-17.42 29.579-17.42 29.893 0 0.5572 7.3871-0.3862 15.578-1.9896zm275.1-62.485c2.2629-0.66 2.1232-7.1134-0.29994-13.868-4.1048-11.442-5.7015-14.97-6.7742-14.97-0.61393 0-2.483 1.9034-4.1537 4.2298-2.9545 4.114-3.0098 4.3588-2.0232 8.9614 0.55796 2.6024 1.4953 7.5625 2.083 11.022l1.0686 6.2904 4.2455-0.5983c2.335-0.3289 4.9694-0.8093 5.854-1.0673zm-312.49-62.798c-1.8039-2.8885-3.9198-13.569-3.9198-19.786 0-7.5164 2.2228-19.093 4.5814-23.86l1.8473-3.7337-2.0655-1.59c-2.7518-2.1184-3.0091-2.066-5.2406 1.0679-8.599 12.076-11.216 29.526-5.9532 39.703 2.4462 4.7304 9.7333 12.049 10.868 10.915 0.68335-0.6833 0.64853-1.4902-0.11726-2.7164zm9.2888-60.295c1.4513-2.2971 2.3681-4.4471 2.0374-4.7778-1.0697-1.0698-7.2827 5.9078-6.6737 7.495 0.88394 2.3035 1.8056 1.7633 4.6363-2.7173zm-2.5808-6.9538c1.4848-1.5739 4.1472-3.8042 5.9165-4.9563 1.7693-1.1521 4.083-2.9225 5.1417-3.9342 1.0586-1.0117 3.2038-2.5009 4.7671-3.3093 1.5633-0.80846 4.4197-2.9388 6.3474-4.7339 5.7444-5.3495 15.004-11.188 26.024-16.409l3.217-1.5241-5.0322 0.54065c-2.7677 0.29731-5.4562 0.88869-5.9743 1.3142-0.51812 0.42553-3.6305 1.2854-6.9164 1.9109-3.2859 0.62559-6.388 1.4547-6.8934 1.8424-0.50551 0.38782-2.4748 0.99582-4.376 1.3511-1.9013 0.35528-3.6674 0.98659-3.9246 1.4029-0.25726 0.41623-2.631 1.7986-5.2748 3.072-6.3933 3.079-13.498 8.6405-15.39 12.047-2.5137 4.5263-3.7836 9.313-3.1453 11.856 0.78793 3.1395 2.2231 3.0168 5.5136-0.47117zm88.191-58.031c-0.36398-1.1374-1.136-4.8754-1.7158-8.3066-0.57981-3.4313-1.4677-6.2098-1.9731-6.1744-1.5723 0.10989-0.8297 9.9652 1.0081 13.378 1.9131 3.5524 3.6997 4.2877 2.6808 1.1033zm26.106-61.933c0.21065-0.1857-1.1336-0.33764-2.9871-0.33764-1.8536 0-3.3701-0.4136-3.3701-0.9191 0-0.50549 0.41361-0.91909 0.91911-0.91909 0.50549 0 0.91911-0.58823 0.91911-1.3072 0-0.71893 1.9146-2.9437 4.2546-4.9439l4.2546-3.6367-1.5944-4.4772c-0.87698-2.4624-1.924-5.3044-2.3267-6.3154-2.8884-7.2504-4.5962-12.466-5.1165-15.625-0.33303-2.0221-1.327-5.8681-2.2088-8.5467l-1.6033-4.8702-0.61001 3.4915c-1.3042 7.4657-1.777 35.818-0.67314 40.37 2.16 8.9063 2.6932 9.6502 6.4325 8.9752 1.8299-0.33039 3.4995-0.75269 3.7102-0.93841zm271.58-18.336c0.30691-0.79963 0.55948-2.3507 0.56128-3.4467 0-1.0961 0.87629-3.4246 1.9431-5.1746 1.1081-1.8178 2.1463-5.4623 2.422-8.5019 0.27078-2.9857 0.93054-5.3264 1.5037-5.3343 0.59222-8e-3 0.50564-0.34094-0.20611-0.79211-0.67514-0.42792-1.1922-1.042-1.1489-1.3646 0.3761-2.8102-0.19226-5.2132-1.6233-6.8631-0.93607-1.0792-1.9701-1.694-2.2978-1.3662-0.32784 0.32782-0.59607 0.0308-0.59607-0.66011 0-1.0417-0.19611-1.0482-1.1489-0.0383-0.92123 0.97655-0.90063 1.3082 0.1041 1.6738 0.7327 0.26665 0.8789 0.69594 0.35224 1.034-0.56008 0.35949-0.6863 4.9767-0.33376 12.21 0.31171 6.3978 0.28634 11.458-0.0558 11.246-0.92959-0.57642-1.7522 2.6823-1.5028 5.9539 0.2372 3.1141 1.1367 3.7457 2.0277 1.4238zm0.4933-39.119c0.0358-0.32506-0.47785-0.79918-1.1409-1.0536-0.88642-0.34014-1.0932 0.3024-0.78136 2.4275 0.36549 2.49 0.52348 2.6359 1.1409 1.0536 0.39423-1.01 0.74587-2.1024 0.78137-2.4275zm52.083-35.857c0.40631-0.65745 0.25211-0.81164-0.40532-0.40531-0.58366 0.3607-1.0612 0.19339-1.0612-0.37181 0-0.56518-0.45773-0.74469-1.0173-0.3989-0.70912 0.43826-0.6395 0.86803 0.22976 1.4188 1.5779 0.99979 1.4795 1.0104 2.254-0.24283zm15.706-20.251c-0.29338-0.73322-0.51122-0.51544-0.55534 0.55529-0.0393 0.96892 0.17744 1.5118 0.48282 1.2064 0.30546-0.30542 0.33806-1.0982 0.0726-1.7616zm-0.62785-5.8624c0-1.4516-2.0442-4.0568-2.8112-3.5828-0.48447 0.29939-1.2647-0.41284-1.7339-1.5827-0.78847-1.9659-0.85747-1.8985-0.91131 0.88969-0.0441 2.3001 0.43297 3.2143 2.0097 3.848 2.4946 1.0027 3.4467 1.1209 3.4467 0.42779zm-54.17-77.462c1.1698-1.0898 2.6937-1.9815 3.3866-1.9815 0.69272 0 1.004-0.41361 0.69155-0.91912-0.31241-0.50553-0.15794-0.91913 0.34336-0.91913 0.50129 0 1.2019-0.93062 1.5568-2.068 0.35494-1.1374 1.0117-2.3045 1.4595-2.5935 1.8374-1.186 1.0012-11.413-1.3877-16.971-1.2958-3.0149-2.373-4.9647-2.3938-4.3328-0.0635 1.9232-3.8398 1.327-4.3671-0.68935-0.38659-1.4785-1.3141-1.8633-4.7393-1.9664-13.882-0.41758-31.587-3.3689-33.863-5.6446-1.4043-1.4043-1.3857-1.5535 0.25893-2.0809 0.97433-0.31246 2.7217-0.94807 3.883-1.4124 1.1611-0.46441 3.7218-0.84436 5.6902-0.84436 1.9685 0 3.7862-0.33508 4.0392-0.74461 0.25313-0.40952 2.3122-0.84046 4.5759-0.95764 5.5837-0.28903 7.8931-0.79102 9.4025-2.0437 1.364-1.132 0.82569-3.0744-0.60671-2.1891-0.47061 0.29084-0.85561-0.13332-0.85561-0.94257 0-3.9914-11.776-12.314-28.033-19.813-3.5386-1.6323-7.1171-3.304-7.9522-3.7149-2.8961-1.4252-12.962-3.7085-14.221-3.2256-0.6957 0.26695-1.2713-0.0187-1.279-0.6347-0.0104-0.7799-0.25547-0.73891-0.80915 0.13504-0.76862 1.2131 2.72 11.782 4.2706 12.938 0.37873 0.28237 2.5014 4.1047 4.7169 8.4942 3.6587 7.2484 4.3602 10.861 2.1091 10.861-1.2563 0-5.1401-3.8678-8.8675-8.8307-1.8574-2.4732-5.2307-6.2301-7.4963-8.3488-2.2656-2.1187-4.1402-4.1867-4.1659-4.5956-0.0654-1.0392-7.324-9.0522-8.0181-8.8511-0.3122 0.0905-0.89414-0.41871-1.293-1.1315-0.61351-1.0962-1.4036-1.0382-5.1261 0.37617-5.543 2.1062-10.233 6.2132-10.233 8.9607 0 1.1504-0.46041 2.3762-1.0231 2.724-1.4705 0.90882-0.56416 9.3331 1.4599 13.569 2.088 4.3698 4.382 5.3732 14.269 6.2414 8.8181 0.77434 18.895 2.1464 24.352 3.3158 4.2357 0.90766 5.5914 3.6105 2.1339 4.2542-10.406 1.9373-13.653 2.4267-16.101 2.4267-3.2061 0-10.698 3.0576-9.7684 3.987 0.33474 0.33478 0.0655 0.60868-0.59994 0.60868-1.028 0 0.96039 2.4385 5.7538 7.0559 2.5527 2.459 13.538 10.407 16.525 11.956 1.7688 0.91736 5.8514 3.0425 9.0723 4.7225 7.5651 3.9458 15.491 6.5962 19.727 6.5962 2.5482 0 3.144-0.27719 2.4694-1.1489-0.48903-0.63188-1.4236-3.1242-2.0769-5.5384-0.65337-2.4142-1.5219-4.596-1.9303-4.8484-1.3901-0.85916-8.269-16.362-7.8012-17.581 0.82818-2.1581 3.0021-1.2958 5.6286 2.2326 1.4112 1.8957 3.9617 4.8944 5.6679 6.6637 4.9731 5.1571 6.2382 6.6034 10.452 11.949 7.4825 9.4927 8.2561 10.001 14.736 9.6851 2.8721-0.14009 4.9403-0.84995 6.3775-2.1888zm3.6185 157.08c0-0.47569 0.40884-1.1176 0.90855-1.4264 0.52108-0.322 0.67521 0.047 0.36128 0.86487-0.61103 1.5923-1.2698 1.8836-1.2698 0.56156zm23.897-60.257c-0.6595-0.79466-0.74884-1.3787-0.21087-1.3787 0.51335 0 1.1713 0.62041 1.4623 1.3787 0.29104 0.75828 0.38596 1.3787 0.21093 1.3787-0.17495 0-0.83306-0.62041-1.4624-1.3787z" fill="#e94a42"/></svg>
