<?xml version="1.0" encoding="UTF-8"?>
<svg version="1.1" viewBox="0 0 2300 2400" xml:space="preserve" xmlns="http://www.w3.org/2000/svg"><path d="m1127.7 2364.3c-8.3657-3.8611-12.293-8.4997-16.585-19.586-3.1769-8.2082-3.5983-11.916-3.5341-31.101 0.069-20.667 1.3864-32.023 6.3919-55.101 1.2044-5.5527 3.4409-19.182 4.97-30.288l2.7803-20.191-6.7224-7.5491c-8.2163-9.2266-12.067-17.645-15.628-34.166-2.7437-12.728-2.9971-21.823-2.3222-83.317 0.1454-13.242-0.057-35.258-0.4485-48.925-0.3919-13.668-0.9926-35.685-1.3349-48.925-0.7769-30.065-3.4736-43.472-17.338-86.202-2.7716-8.5424-5.5536-17.978-6.1822-20.968-0.6285-2.9899-5.8411-19.765-11.583-37.277-12.652-38.586-17.113-52.866-17.113-54.776 0-0.7949-0.9557-3.6476-2.1236-6.3397-1.1678-2.6918-4.0316-9.7867-6.3637-15.767-2.3321-5.9798-4.7992-12.27-5.4821-13.98-6.1587-15.405-13.092-39.294-17.356-59.798-4.3475-20.906-4.8046-59.426-0.9311-78.436 1.3925-6.8342 2.9846-15.827 3.5377-19.986 0.5535-4.1577 2.6756-14.947 4.7157-23.977 2.9577-13.09 3.3278-16.909 1.8258-18.845-4.5517-5.8658-9.7757-10.969-11.211-10.951-0.8572 0.015-3.4675 4.7284-5.8008 10.484-4.7465 11.709-21.712 42.854-25.296 46.437-1.2773 1.2774-3.0413 3.6659-3.92 5.3079-2.2263 4.1596-6.1479 3.7947-6.1479-0.5719 0-1.9564 1.0926-11.415 2.4278-21.02 3.8237-27.503 2.4448-28.903-5.3095-5.3844-3.7206 11.284-8.0086 23.165-9.5291 26.404-1.5205 3.2381-3.1922 7.1624-3.7147 8.7204-1.4494 4.3213-6.2223 2.477-7.3802-2.8517-0.98503-4.5332-1.0357-4.5556-2.1812-0.968-1.9822 6.2078-14.703 29.942-21.756 40.594-8.4349 12.737-20.222 25.452-22.366 24.126-0.96581-0.5969-1.7014-7.8228-1.7934-17.617-0.12826-13.652-0.4048-15.5-1.5551-10.393-0.76953 3.4169-2.3788 8.6591-3.576 11.649-1.1971 2.9899-3.642 10.167-5.4329 15.949-3.3303 10.752-9.9439 22.881-12.477 22.881-1.5926 0-4.0573-7.0324-5.7158-16.308-1.066-5.9628-1.313-5.4514-6.1408 12.72-5.2091 19.606-6.192 22.227-8.339 22.227-2.4935 0-8.7043-21.147-13.196-44.933-1.36-7.2012-2.7791-13.399-3.1533-13.773-0.72177-0.7218-1.0335 0.4308-4.7453 17.548-3.3852 15.61-8.5528 31.493-10.872 33.42-1.4985 1.2437-2.8043 0.5214-5.2388-2.8975-3.6241-5.0896-23.464-46.254-23.464-48.683 0-2.22-4.9349-12.368-5.6612-11.641-0.45082 0.4508-1.7771 8.0398-2.9471 16.865-4.3878 33.091-6.9208 49.878-8.3588 55.397-0.8152 3.1292-2.3054 11.465-3.3115 18.524-1.006 7.0589-2.4464 13.216-3.2008 13.682-0.75426 0.4662-1.3733 2.379-1.3757 4.2504 0 3.9523-7.1417 32.868-13.106 53.105-10.748 36.465-22.655 66.381-37.265 93.639-11.202 20.897-27.123 47.342-45.081 74.882-11.266 17.277-32.381 46.636-43.246 60.128-3.5858 4.4533-9.1511 11.618-12.367 15.92-3.2163 4.3029-6.5834 7.8234-7.4822 7.8234-2.3119 0-0.73423-5.0744 7.9678-25.628 7.9146-18.693 11.402-29.399 17.761-54.508 7.237-28.582 8.5467-36.271 4.6486-27.296-3.625 8.3469-39.389 60.901-52.089 76.544-3.0427 3.7476-9.1436 12.083-13.557 18.522-4.4139 6.4403-9.2633 13.086-10.776 14.77-4.1268 4.5911-11.636 13.686-15.472 18.741-24.756 32.616-56.393 61.548-97.466 89.131-5.1819 3.4798-13.423 10.212-29.99 24.501-8.196 7.0683-20.884 17.356-28.194 22.862-17.964 13.528-20.197 10.959-4.3721-5.0314 13.476-13.616 19.139-20.242 23.635-27.646 4.345-7.1573 18.964-29.048 20.912-31.314 0.88695-1.0317 1.6127-2.2086 1.6127-2.6148 0-0.4065 2.0061-4.1054 4.4582-8.22 13.297-22.311 42.473-76.544 55.566-103.29 4.7459-9.6923 16.081-36.995 15.359-36.995-0.31452 0-5.2621 8.2125-10.995 18.251-5.7326 10.038-12.739 21.515-15.57 25.505-2.8314 3.9901-10.164 15.872-16.292 26.404-12.448 21.388-25.739 40.896-37.386 54.873-4.2712 5.1256-9.6024 11.602-11.847 14.391-2.2446 2.7894-12.091 12.224-21.882 20.968-9.7906 8.7432-18.917 16.984-20.281 18.315-2.1244 2.0708-17.228 14.124-34.841 27.805-27.836 21.621-26.785 20.873-37.096 26.459-3.177 1.7213-11.451 8.5433-18.386 15.16-6.9355 6.6167-13.248 12.263-14.027 12.548-2.5438 0.9294-1.4899-2.2999 1.6893-5.1772 1.7085-1.5462 3.1064-3.4076 3.1064-4.1364s4.2613-6.3867 9.4695-12.574c10.554-12.536 23.55-31.331 34.626-50.078 4.038-6.834 11.231-18.715 15.984-26.404 12.468-20.169 14.531-23.883 27.606-49.702 6.4891-12.814 18.759-36.927 27.268-53.585 14.238-27.875 19.541-40.675 12.853-31.021-4.6521 6.7147-25.613 31.43-35.529 41.893-5.2624 5.5525-14.024 14.937-19.47 20.854-14.212 15.439-22.222 23.175-36.307 35.059-6.8339 5.7667-17.058 14.591-22.72 19.61-5.6622 5.0191-15.797 12.332-22.521 16.252-16.308 9.5066-26.243 15.432-33.023 19.699-3.0839 1.9401-6.5568 3.9662-7.7178 4.5024-1.161 0.536-3.712 2.4588-5.6691 4.2725-1.957 1.8137-7.9964 5.9571-13.421 9.2074-5.4246 3.2505-14.755 8.9899-20.735 12.754-5.9798 3.7641-15.066 9.058-20.191 11.764-15.234 8.0422-42.978 27.33-48.925 34.014-2.6664 2.9966-11.231 7.8433-12.837 7.2644-1.7583-0.6338 4.7786-7.5714 27.683-29.381 9.6166-9.1565 34.397-35.824 39.251-42.239 5.6459-7.4626 35.728-52.262 45.787-68.188 11.93-18.888 30.375-49.815 50.205-84.179 8.8729-15.376 16.809-29.005 17.636-30.288 1.6006-2.4798 10.906-19.961 16.122-30.288 1.726-3.417 3.5267-6.5622 4.0015-6.9893 2.3141-2.0818 31.467-61.951 30.94-63.536-0.3349-1.0047-5.8026 4.9762-12.15 13.291-6.3478 8.3145-16.123 20.363-21.723 26.774-5.5999 6.4118-13.327 15.677-17.17 20.589-25.535 32.628-73.971 80.754-96.538 95.916-7.3928 4.9674-14.382 9.4664-15.532 9.9988-1.1496 0.5317-4.8861 2.6823-8.303 4.7789-8.1592 5.0064-50.247 25.953-62.128 30.922-5.1255 2.143-17.357 7.7974-27.181 12.566-9.8239 4.7679-18.682 8.6719-19.685 8.6756-1.0024 0-4.9671 2.4064-8.8104 5.3402-3.8434 2.9337-9.0151 6.3822-11.493 7.6635-2.4776 1.2812-5.4067 3.4161-6.509 4.7446-1.1025 1.3284-2.6389 2.023-3.4145 1.5436-1.8785-1.161 11.741-16.528 38.302-43.216 18.311-18.399 47.225-49.766 63.128-68.484 2.1773-2.5627 8.4456-9.9015 13.929-16.308 10.931-12.77 22.129-26.69 26.967-33.521 1.7085-2.4124 4.8757-6.5158 7.0382-9.1187 2.1625-2.6029 8.0555-10.324 13.094-17.157 5.0399-6.8342 12.007-16.01 15.483-20.392 3.4757-4.3814 7.7172-9.9293 9.4259-12.328 1.7085-2.3994 5.7482-7.7318 8.9771-11.85 3.2288-4.1178 7.7719-10.187 10.096-13.487 2.3238-3.2999 9.1169-12.904 15.096-21.344 5.9788-8.4392 15.482-22.262 21.12-30.717l10.249-15.373-8.2544-16.467c-10.476-20.9-16.182-38.412-22.062-67.723-9.2544-46.127-9.8413-67.165-3.1195-111.83 0.89987-5.98 4.7551-20.257 8.5669-31.726 10.178-30.621 22.298-51.987 45.004-79.327 4.2228-5.0846 26.76-30.596 31.362-35.499l4.8909-5.2123-4.4062-5.6599c-2.4233-3.1131-5.6171-7.7569-7.0972-10.32-1.9682-3.4078-4.996-5.4254-11.271-7.5103-17.63-5.858-39.744-24.661-47.853-40.689-3.828-7.5658-4.3413-10.347-4.5112-24.436-0.1639-13.591 0.37159-17.32 3.6912-25.698 2.1358-5.3899 6.5041-13.268 9.7075-17.505 3.2035-4.2378 5.8245-8.3651 5.8245-9.1719 0-0.807 1.3979-2.2151 3.1063-3.1297 1.7085-0.9142 3.1064-2.5755 3.1064-3.6913 0-1.1159 4.6566-6.5006 10.348-11.965 6.3029-6.0524 12.322-13.724 15.397-19.624 10.707-20.542 27.619-37.537 47.982-48.221 7.7151-4.0476 15.95-7.9849 18.299-8.7491 2.3492-0.7643 4.2712-1.9873 4.2712-2.718s0.77209-1.3285 1.7158-1.3285c0.94378 0 4.992-1.6455 8.9962-3.6566 12.719-6.3883 45.92-15.35 71.146-19.204 2.9266-0.4473 5.9628-2.2678 7.3742-4.4219 7.0358-10.737 44.428-39.01 63.48-47.997 4.9739-2.3463 9.2864-5.0645 9.5835-6.0413 0.29705-0.9765 2.3785-8.0656 4.6252-15.754 2.2468-7.6882 4.8418-15.727 5.7668-17.861 0.92504-2.1355 2.61-11.57 3.7444-20.968 4.4397-36.779 9.2375-61.214 15.4-78.436 1.3758-3.8441 3.8066-12.231 5.4022-18.638 4.7997-19.274 13.932-50.893 20.364-70.509 3.3324-10.163 6.0591-18.806 6.0591-19.207 0-0.40178-1.3972-0.36509-3.1049 0.0815-4.8137 1.2588-4.9586-0.92527-0.71396-10.766 2.1581-5.0038 4.5212-10.496 5.2512-12.204 0.72992-1.7084 3.2156-7.528 5.5239-12.932 4.227-9.8973 4.0331-14.908-0.32618-8.424-2.5737 3.8282-5.0987 4.6066-5.0389 1.5531 0.0209-1.0677 3.8818-9.2802 8.5793-18.25 7.8424-14.974 19.149-37.911 30.244-61.351 5.9067-12.48 19.594-47.477 20.909-53.458 1.0148-4.62-0.94775-6.6812-3.0784-3.2336-1.492 2.4142-8.5348 1.8277-9.5409-0.79445-0.52887-1.3782 1.7244-5.8252 5.4569-10.768 6.0061-7.9549 15.344-25.124 21.165-38.915 13.276-31.449 27.007-54.063 44.801-73.776 1.9277-2.1357 8.7839-10.523 15.236-18.638 17.365-21.84 87.189-94.744 90.743-94.744 1.0339 0 2.282-1.0484 2.7739-2.3298 0.49171-1.2814 1.8896-2.3298 3.1063-2.3298 1.2169 0 2.5675-0.92556 3.0018-2.0568 1.4571-3.7974 20.175-13.671 28.965-15.278 4.7471-0.86803 10.029-2.2264 11.738-3.0185 4.6806-2.1702 17.746 3.3863 22.825 9.7066 4.3572 5.4233 9.4327 21.279 12.357 38.604 0.93738 5.5526 1.7913 26.871 1.8977 47.372 0.15925 30.68-0.27734 39.063-2.4673 47.372-1.4635 5.5526-3.3577 13.59-4.2095 17.861-0.85187 4.2712-3.0125 13.707-4.8015 20.968-1.789 7.2611-5.0192 20.891-7.1781 30.288-6.735 29.316-7.8696 33.781-12.231 48.149-2.3343 7.6882-4.8275 16.774-5.5405 20.191-0.71303 3.417-2.733 11.105-4.4886 17.085-19.878 67.701-30.558 119.15-35.828 172.6-1.262 12.798-1.2416 19.816 0.078 27.096 2.608 14.382 4.2958 17.349 31.485 55.353l12.45 17.403 6.3688-3.6231c3.5027-1.9928 13.358-7.2909 21.9-11.774 8.5425-4.4827 19.027-10.42 23.298-13.196 4.2712-2.7745 14.555-9.0029 22.854-13.84 8.2982-4.8377 15.398-9.2993 15.78-9.9148 0.38022-0.6152-0.28306-8.5985-1.4741-17.741-3.0475-23.392-10.272-47.691-17.91-60.238-6.5339-10.733-10.281-21.556-12.34-35.642-7.2971-49.905 22.601-88.58 96.378-124.67 7.2923-3.5672 14.684-9.404 26.619-21.018 10.586-10.301 18.4-16.626 21.745-17.6 2.8713-0.83651 7.6669-3.6374 10.656-6.2243 5.2849-4.5726 5.3497-4.7636 2.3298-6.8651-16.082-11.191-22.752-22.568-30.496-52.022-11.699-44.493-14.958-67.481-15.195-107.16-0.1672-27.924 0.2087-33.271 3.0553-43.47 5.7061-20.445 14.12-35.085 29.15-50.721 16.085-16.734 20.49-20.114 36.807-28.239 20.131-10.025 29.513-12.815 47.052-13.99 33.534-2.249 60.286 1.6269 76.098 11.026 9.4492 5.6165 8.448-0.51228-2.2236-13.613-7.1633-8.7938-27.748-29.358-40.335-40.294-3.8763-3.368-7.7246-7.3885-8.5518-8.9344-1.3304-2.4859-0.8852-2.7652 3.8543-2.4188 2.9473 0.2155 5.0721 0.68052 4.7217 1.0334-0.8768 0.88322 8.4245 6.4213 14.108 8.3996 2.5628 0.8921 5.6051 2.5646 6.7607 3.7167 1.1555 1.1521 5.1744 2.9168 8.9308 3.9214 3.7563 1.0047 6.8297 2.2319 6.8297 2.7272 0 0.49529 1.398 1.0058 3.1063 1.1345 3.6975 0.2785 4.0051-3.2442 0.7767-8.8921-2.8464-4.9794-2.8589-6.2128-0.063-6.2128 3.4878 0 22.143 20.123 27.01 29.137 1.7158 3.1772 1.7293 4.1085 0.075 5.1315-1.1124 0.68739-2.6196 0.88065-3.3497 0.42946-2.7047-1.6716-8.9168 1.0921-8.9168 3.9672 0 4.9586 10.56 5.5852 30.973 1.8377 8.5475-1.5692 11.148-1.4613 17.861 0.74105 4.3216 1.4178 9.5831 2.8938 11.693 3.2801 2.1092 0.38635 4.6624 1.3893 5.6738 2.2288 1.0117 0.83951 3.9769 2.1395 6.5896 2.8888 4.0393 1.1584 5.7324 0.65096 11.31-3.39l6.5606-4.7524-3.5666-2.888c-3.4963-2.8311-15.072-4.1724-13.457-1.5591 0.4518 0.73085-0.8776 1.004-2.9537 0.60718-3.0086-0.57513-4.2378-2.3426-6.0547-8.7065-2.0937-7.3328-5.6082-24.683-5.6082-27.685 0-2.9738 4.1051-0.83616 9.4956 4.9448 3.1864 3.417 6.388 6.2127 7.1147 6.2127 2.262 0 6.4594-9.5693 9.8327-22.417 1.7791-6.7765 3.4863-12.728 3.7933-13.225 0.3073-0.49704 1.7129-7.883 3.1236-16.414 3.3172-20.057 3.6095-20.945 6.8929-20.945 2.5393 0 2.846 2.7777 3.7302 33.782 1.2648 44.338 4.2285 64.069 9.6241 64.069 1.0864 0 2.3776 1.0484 2.8692 2.3298 0.4917 1.2814 2.6221 2.3298 4.7342 2.3298 5.4798 0 5.9586 1.8477 2.5032 9.6595-3.7838 8.5536-8.8982 15.191-11.706 15.191-1.1699 0-4.0634-3.4442-6.4298-7.6538-2.3662-4.2096-4.8448-7.3184-5.508-6.9086-0.663 0.40978-0.8323-0.22764-0.3759-1.4166 0.4561-1.1889-0.2678-3.0721-1.6086-4.1849-9.5447-7.9214 2.3058 18.972 14.018 31.813 3.1166 3.417 8.7398 9.561 12.496 13.653 8.6958 9.4751 27.038 34.961 27.038 37.568 0 1.0906 1.0483 2.853 2.3297 3.9164 1.2813 1.0635 2.3298 3.2458 2.3298 4.8498 0 1.6039 0.6989 2.9162 1.553 2.9162 0.8544 0 1.5534 0.67849 1.5534 1.5078 0 2.1278 9.4913 15.741 13.121 18.82 2.9857 2.5323 2.9814 2.5803-0.3296 3.6312-1.8456 0.58577-4.7798 0.30278-6.5206-0.62885-1.7408-0.93165-3.1642-1.1451-3.1632-0.47435 0.012 3.4423-31.74-0.56861-40.384-5.1025-6.8728-3.6046-24.891-10.14-29.6-10.735-6.7176-0.85015-5.5777 1.9936 1.2542 3.129 3.2034 0.53239 6.5913 1.2 7.5285 1.4837 2.5484 0.77125 5.2358 22.54 2.7825 22.54-3.5293 0-6.8164-1.8724-6.8164-3.883 0-2.8758-3.9761-3.9838-6.585-1.8348-2.3118 1.9043-8.9468 17.1-8.9468 20.49 0 1.0629-0.9862 2.7509-2.1915 3.7512-3.1868 2.6449-4.1543 0.21182-5.0733-12.76-0.6929-9.7775-1.3895-14.012-4.3049-26.168-1.2308-5.1327-4.648-8.8557-8.91-9.7081-5.8421-1.1685-5.787-6.1807 0.1563-14.262l4.5276-6.1566-11.919-12.509c-6.5551-6.8797-15.407-16.951-19.672-22.381-4.264-5.4299-9.5-11.726-11.636-13.988-2.1356-2.264-4.0052-4.6042-4.1547-5.2007-0.1496-0.59633-0.6186-1.9404-1.0424-2.9869-0.5922-1.463-0.7987-1.4497-0.893 0.0572-0.09 1.4282-1.9134 1.6739-6.7236 0.90579l-6.6011-1.054 9.1634 9.1899c15.644 15.691 22.303 28.839 35.719 70.541 2.3359 7.2612 5.171 15.649 6.3001 18.638 1.8297 4.8448 7.5836 20.436 12.324 33.394 2.3237 6.3514 20.105 41.34 23.797 46.826 9.7935 14.551 12.878 19.367 12.878 20.111 0 0.45915 1.7474 3.1256 3.883 5.9256s3.883 5.5862 3.883 6.1917c0 0.87339 12.902 18.992 18.904 26.546 9.0232 11.357 21.256 25.351 30.111 34.443l10.963 11.256 3.0126-8.8626c1.6569-4.8745 2.78-9.134 2.4956-9.4655-0.2844-0.33165 0.091-1.0306 0.8336-1.5533 1.8964-1.3345 11.34-26.137 11.34-29.783 0-1.6539 0.6721-3.0071 1.4934-3.0071 1.54 0 5.2997-11.067 5.4252-15.969 0.04-1.5214 0.8093-3.2688 1.7121-3.883 0.9027-0.61423 2.4097-3.2135 3.349-5.7763s2.2278-6.0574 2.8634-7.7659c0.6355-1.7085 1.4165-4.4676 1.7357-6.1315 0.3193-1.6639 1.5189-4.11 2.6661-5.4361 1.1469-1.3262 4.3711-8.8762 7.1646-16.778 2.7938-7.9019 5.5953-14.367 6.2258-14.367 0.6307 0 1.5846-2.1907 2.1202-4.8685 0.7643-3.8214 0.2214-5.5904-2.5238-8.2254-3.3195-3.186-22.633-13.306-26.523-13.896-1.0041-0.15268-2.8267-0.90217-4.0505-1.6657-1.2239-0.7635-6.0592-1.2872-10.745-1.164-7.4062 0.19486-9.0463-0.32864-12.547-4.0043-5.1088-5.3652-11.254-15.738-10.267-17.333 0.4134-0.66921 4.6282-0.94176 9.3658-0.60562 6.7113 0.47613 8.8164 0.0838 9.5301-1.776 1.0688-2.7851-4.4269-15.189-8.8175-19.902-3.1542-3.3856-4.1139-8.8779-1.5513-8.8779 2.1432 0 18.278 4.2784 26.869 7.1245 4.1889 1.3878 7.3776 3.3973 7.3776 4.6493 0 1.2127-0.5242 2.2272-1.1649 2.2543-0.6406 0.0271-2.4855 1.0492-4.0998 2.2713-2.8458 2.1544-2.8493 2.3528-0.1141 6.5278 5.0694 7.7371 18.314 21.818 29.497 31.361 4.9547 4.2278 6.2668 4.7624 6.6702 2.718 0.2762-1.3998 1.0392-2.545 1.6956-2.545 0.6566 0 2.0752-2.9704 3.1528-6.601 1.0776-3.6306 2.6463-7.4441 3.486-8.4745 0.8394-1.0304 1.0755-2.603 0.5244-3.4947-0.5508-0.89166-0.2618-1.6212 0.6429-1.6212s1.6342-1.2231 1.6212-2.7181c-0.018-2.1755-0.2979-2.2854-1.3965-0.55041-1.0596 1.6734-1.9394 1.0712-3.859-2.6409-1.3676-2.6447-2.4867-6.1469-2.4867-7.7826 0-4.8687 5.9579-11.156 10.597-11.183 6.7843-0.0387 8.5838-2.0356 7.4207-8.2356-0.5669-3.0213-1.5328-5.7187-2.1464-5.9945-0.6135-0.27572-2.8629-4.2984-4.9986-8.9392-3.2834-7.1348-3.8629-10.613-3.7535-22.521 0.1152-12.467 0.6285-14.945 4.4745-21.587 2.3898-4.127 5.9788-8.2479 7.9759-9.1579 1.997-0.90996 3.2515-2.2685 2.7878-3.019-0.4636-0.75052-0.2672-1.2328 0.437-1.0718 0.7044 0.16096 6.1889-0.24587 12.188-0.90404 12.685-1.3917 18.193-4.8643 18.44-11.628 0.09-2.4552 0.6064-4.1921 1.1478-3.8597 1.0693 0.65598 1.3597-0.0523 9.9283-24.207 3.1819-8.9696 7.155-20.152 8.8293-24.851 1.6741-4.6984 4.0602-10.443 5.3016-12.767 3.3265-6.2245 6.7952-18.595 5.7078-20.354-0.5193-0.8404-0.2105-1.0745 0.686-0.52035 1.8457 1.1407 3.9834-3.1634 2.646-5.3274-0.4804-0.77716-0.2281-1.4131 0.5605-1.4131 1.4873 0 5.5548-9.7446 7.4557-17.861 0.6002-2.5628 1.5079-5.0091 2.017-5.4362 2.3072-1.9356 6.4924-12.343 7.7729-19.331 0.7743-4.2249 2.4052-8.4185 3.6241-9.3191 1.2189-0.90059 2.7298-3.7343 3.3574-6.2971 0.6279-2.5627 3.2371-6.8382 5.7983-9.5011 3.8192-3.9707 4.2189-5.0096 2.2222-5.7757-1.3389-0.51381-2.4342-2.6213-2.4342-4.6832 0-4.8733 11.514-16.54 16.325-16.54 1.9437 0 3.9157-0.99421 4.3818-2.2093 0.4663-1.2151 2.463-2.4385 4.4375-2.7189 2.2885-0.32485 3.5124-1.4883 3.3766-3.2102-0.1165-1.4854 0.3745-2.3375 1.0925-1.8939 0.7179 0.44369 2.0805-2.0725 3.0282-5.5915 1.4981-5.564 4.6-12.842 9.313-21.849 0.7271-1.3897 1.7762-5.2339 2.3314-8.5425 1.1172-6.6598 7.5067-23.222 12.207-31.644 1.6691-2.9898 4.0201-7.3582 5.2245-9.7073 1.2043-2.3492 3.0123-4.3606 4.0174-4.47 6.0795-0.66102 12.888 0.49698 14.93 2.5396 2.1189 2.1186 2.0719 3.1927-0.4488 10.29-3.1984 9.005-2.4081 10.666 5.3993 11.356 8.1424 0.71912 13.67 4.0297 16.427 9.8373 2.3513 4.9552 2.3322 5.8591-0.2827 13.315-1.5429 4.3993-3.8611 9.2217-5.1512 10.716-2.7491 3.1853-10.073 3.5866-13.014 0.71303-4.5873-4.4814-9.9605-7.314-13.874-7.314-3.5557 0-4.2956 0.82338-5.2332 5.8245-0.6004 3.2035-2.0072 7.5719-3.1259 9.7074-1.1188 2.1357-2.9317 7.0282-4.0285 10.872-1.0969 3.8438-2.0998 7.3388-2.2289 7.7659-0.1288 0.42711-0.8024 2.0763-1.4966 3.665-0.6944 1.5886-1.3329 4.8398-1.4191 7.2249-0.085 2.3851-0.6476 4.0352-1.248 3.6666-1.0857-0.66692-5.8979 13.664-5.8979 17.566 0 1.1264-0.5875 2.0479-1.3053 2.0479-0.7177 0-2.2272 3.8441-3.3544 8.5425-1.1273 4.6984-2.5588 8.5425-3.1815 8.5425-0.6228 0-1.5857 2.4167-2.1398 5.3705-0.5542 2.9538-2.0255 7.3222-3.2696 9.7074-1.2443 2.3853-2.2707 5.7348-2.2814 7.4432-0.015 1.7085-0.9411 4.8729-2.0679 7.0321s-2.9215 7.3918-3.9884 11.629c-1.0668 4.2365-2.4952 8.4108-3.1743 9.2764-0.6792 0.86561-2.1194 5.3446-3.2005 9.9532-1.081 4.6087-2.9155 10.2-4.0768 12.425-1.1611 2.2254-2.1155 5.1294-2.1206 6.4536 0 1.3242-0.5811 3.0714-1.2795 3.883-2.155 2.5044-5.2667 17.557-4.0399 19.542 0.7632 1.235 0.387 1.58-1.1005 1.0092-1.5893-0.60988-2.3517 0.34904-2.5689 3.2307-0.2846 3.7796-1.6535 7.6272-5.1808 14.561-0.7547 1.4834-1.3764 3.5802-1.3818 4.6596 0 1.0794-1.0119 3.8846-2.2375 6.2338-1.4481 2.776-1.6323 4.2712-0.5262 4.2712 0.9359 0 0.545 1.2782-0.8687 2.8404-1.4139 1.5622-2.5706 3.6765-2.5706 4.6984 0 1.0219-1.3979 5.8352-3.1064 10.696-4.1454 11.794-3.9805 15.039 0.8756 17.251 2.303 1.0494 3.5742 1.1544 3.0148 0.24932-0.5321-0.86075 0.1226-1.565 1.4542-1.565 1.3317 0 2.4213-0.69894 2.4213-1.5532 0-0.85425 0.6772-1.5532 1.5045-1.5532 0.8275 0 1.0556 1.1698 0.5069 2.5994-0.7556 1.9693-0.3672 2.3576 1.602 1.602 1.4389-0.55215 2.5995-0.25063 2.5995 0.67532 0 1.0088-1.5414 1.2859-3.8832 0.69826-5.7676-1.4476-4.7007 1.0538 1.9417 4.5522 3.2033 1.6872 6.7479 3.9429 7.8768 5.0128 1.1287 1.0698 3.575 1.956 5.436 1.969 2.341 0.0164 2.7698 0.41338 1.3918 1.2878-1.3501 0.85661 0.081 1.9479 4.4364 3.3857 3.5356 1.1669 6.7784 3.0336 7.2062 4.1483 0.4276 1.1147 2.1008 2.0267 3.7178 2.0267s2.9402 0.677 2.9402 1.5045c0 0.82743 1.163 1.0581 2.5845 0.51265 1.8027-0.69172 2.2253-0.41038 1.3969 0.92987-0.7646 1.2372-0.024 2.2256 2.0751 2.7749 1.7945 0.46927 3.2626 1.4706 3.2626 2.2253 0 0.75462 1.2231 1.3794 2.7181 1.3885 1.495 9e-3 6.2126 2.7974 10.484 6.1962 4.2712 3.3988 8.5811 6.1871 9.5771 6.1962 0.9961 9e-3 4.8095 2.8122 8.474 6.2293s7.9234 6.2128 9.4644 6.2128c1.5413 0 3.999 1.398 5.4618 3.1064 1.4631 1.7085 3.553 3.1064 4.6444 3.1064 1.0916 0 1.9847 1.0484 1.9847 2.3298s1.0702 2.3298 2.3785 2.3298c1.3081 0 2.7705 1.0218 3.2499 2.2707 0.4789 1.2489 2.2045 2.6939 3.8342 3.211 1.6296 0.51722 2.9628 1.9416 2.9628 3.1656 0 1.2237 1.0239 2.2252 2.2751 2.2252 1.2514 0 3.0233 1.3979 3.9377 3.1064 0.9143 1.7085 2.7276 3.1064 4.0292 3.1064 1.4115 0 1.9136 0.7334 1.2439 1.8172-0.7621 1.2328-0.2661 1.4884 1.5421 0.79439 1.4659-0.56251 2.3311-0.48202 1.9225 0.1789-0.4085 0.66091 2.8754 5.113 7.297 9.8937 23.562 25.474 32.701 35.823 37.017 41.92 2.6271 3.7107 5.569 7.4457 6.5377 8.3 0.9688 0.85427 3.8207 4.3489 6.3375 7.7659 2.5166 3.417 7.0598 8.73 10.096 11.807 6.9858 7.0798 10.956 11.97 10.956 13.494 0 0.65464 1.2232 2.3448 2.7182 3.7559 3.4615 3.2675 5.8258 6.0921 13.984 16.708 3.6344 4.7285 9.0511 11.177 12.037 14.331 2.9861 3.1534 5.4296 6.5146 5.4296 7.4692 0 0.95467 0.5504 1.3954 1.2235 0.97949 0.673-0.41592 2.0713 1.1588 3.1075 3.4996 1.0361 2.3407 3.281 5.7557 4.9891 7.589 1.7078 1.8332 3.1053 3.7414 3.1053 4.2402 0 0.49891 0.6988 1.7513 1.553 2.7831 3.4204 4.1316 19.053 26.775 19.765 28.629 0.418 1.0895 1.7337 1.9809 2.9238 1.9809 1.1898 0 1.9943 0.5242 1.7873 1.1648-0.4902 1.5175 4.3232 8.3491 5.2378 7.4344 0.385-0.385 0.8029 0.66573 0.9289 2.335 0.1257 1.6691 5.0805 9.5022 11.011 17.407 5.9304 7.9044 11.924 16.468 13.319 19.031 1.395 2.5628 5.3886 9.2026 8.8749 14.755 3.4858 5.5526 8.4086 14.289 10.939 19.414 2.5306 5.1255 6.6585 11.899 9.1736 15.053 2.5149 3.1533 4.5724 6.2263 4.5724 6.8286 0 1.4301 9.7786 16.043 13.453 20.104 3.8839 4.2925 16.057 22.41 16.057 23.898 0 0.65922 1.3978 2.4638 3.1064 4.0099 1.7084 1.5461 3.1063 3.4328 3.1063 4.1923 0 0.75962 2.9704 5.7719 6.601 11.138 3.6305 5.3665 11.144 16.897 16.696 25.625 21.969 34.527 29.724 46.455 36.844 56.668 4.0818 5.8547 8.129 11.796 8.9935 13.202 6.7307 10.949 20.889 30.143 22.891 31.032 0.6408 0.2848 1.1723 1.3331 1.1814 2.3299 0.015 0.9965 2.7974 5.3067 6.1963 9.5778 3.3988 4.2712 6.1871 8.5812 6.1962 9.578 0.015 0.9966 0.5672 2.0451 1.2401 2.3297 1.8196 0.7699 22.074 31.501 22.074 33.493 0 0.9419 0.542 1.9455 1.2045 2.2302 1.2919 0.555 17.138 24.361 20.506 30.804 1.116 2.1356 4.275 7.3774 7.0201 11.649 14.083 21.911 28.737 46.096 28.737 47.424 0 0.8254 0.5868 1.501 1.3038 1.501 0.7172 0 2.1107 1.5725 3.0966 3.4945 3.1643 6.1683 7.061 12.505 16.188 26.323 4.9075 7.43 8.9227 14.244 8.9227 15.143 0 0.8992 0.524 1.6395 1.1647 1.6454 0.6407 0 2.8178 2.4375 4.8376 5.4036 2.0199 2.9664 4.9904 6.9126 6.6012 8.7695 1.6105 1.8571 2.9283 4.0022 2.9283 4.7666 0 0.7646 2.4461 5.2146 5.4361 9.8884 2.9899 4.6739 5.4363 8.9427 5.4363 9.4862 0 0.5434 1.7473 3.2791 3.8828 6.0791 2.1357 2.7997 3.883 5.5163 3.883 6.0365s0.7072 1.7899 1.5711 2.8216c0.8641 1.0319 4.5546 6.4194 8.2009 11.972 7.7977 11.875 14.639 21.371 24.786 34.407 4.0578 5.2126 7.3778 10.426 7.3778 11.586 0 5.2029-30.248-11.727-39.54-22.132l-3.9731-4.448 1.4665 4.1117c0.8066 2.2612 1.0622 4.5159 0.5679 5.0101-0.4944 0.4944-0.1687 1.7893 0.7237 2.8778 0.8926 1.0884 2.4191 5.1243 3.3928 8.9684 0.9733 3.8441 2.4044 8.3873 3.1797 10.096 1.4947 3.2939 9.3164 29.978 14.113 48.149 1.5787 5.9798 4.9592 18.56 7.5127 27.957 5.6967 20.965 7.7699 38.076 4.6049 38.006-1.1783-0.024-3.8894-2.157-6.0251-4.7366-2.1357-2.5797-7.1971-8.325-11.248-12.767-4.0505-4.4426-7.3705-8.876-7.3777-9.8524-0.015-1.578-4.6233-4.3838-5.4394-3.3091-0.1775 0.2336 0.64 5.6669 1.8163 12.074 1.1766 6.4069 3.136 18.826 4.3548 27.6 1.2188 8.7725 2.5632 16.513 2.9877 17.198 0.4246 0.6869 1.5223 7.2874 2.4393 14.668 1.6269 13.09 11.493 40.578 17.794 49.574 3.0525 4.3581 3.1251 7.4491 0.1751 7.4491-2.9362 0-30.354-34.44-30.354-38.129 0-0.486-2.0207-3.4637-4.4906-6.6169-9.9551-12.71-34.137-56.316-46.247-83.392-3.0565-6.8341-6.6523-14.872-7.9908-17.861-1.3386-2.9898-2.5048-5.7855-2.5918-6.2126-0.088-0.4273-1.4681-4.6208-3.0687-9.3192-3.1889-9.3588-4.9675-8.6984-2.5514 0.9469 0.8323 3.3235 5.7968 22.816 11.033 43.318 5.2353 20.502 10.904 43.566 12.597 51.255 9.0149 40.942 11.042 50.31 12.265 56.692 0.7374 3.8441 3.0966 15.376 5.2427 25.628 5.3294 25.456 9.5101 62.65 11.086 98.627 0.9544 21.796 4.3388 41.566 9.3779 54.782 3.8639 10.134 2.0166 12.418-3.1056 3.8418-17.364-29.073-38.654-73.625-49.912-104.44-3.1207-8.5425-6.8692-18.328-8.3302-21.745-2.9034-6.7907-5.3739-12.962-11.813-29.511-2.3269-5.9798-5.1862-13.075-6.3542-15.767-1.1678-2.692-2.1471-5.4877-2.1762-6.2128-0.029-0.7252-1.403-4.1142-3.0538-7.5312-1.6505-3.4171-3.0244-7.3946-3.0535-8.8392-0.029-1.4444-0.7516-3.0584-1.6059-3.5863-2.0181-1.2473-2.1666-2.3195 2.4955 18.04 11.106 48.506 19.895 117.27 14.568 113.96-1.0541-0.6516-1.2605 7.4048-0.6244 24.37 0.8727 23.27-2.6504 95.658-4.8271 99.18-0.4204 0.6804-0.8056 23.147-0.8558 49.926-0.083 43.648 0.2481 50.355 3.187 64.775 1.8031 8.848 2.9744 16.392 2.6028 16.762-1.161 1.161-6.6133-7.6437-10.754-17.366-13.773-32.34-19.988-50.186-30.83-88.531-1.6907-5.9798-3.7618-13.084-4.6025-15.788-0.8408-2.703-2.4907-9.6924-3.6666-15.531-6.4222-31.892-10.874-49.229-17.684-68.862-4.1348-11.921-7.2397-23.229-11.302-41.159-5.7947-25.583-5.8519-25.178-5.8003 41.159 0.051 64.469-1.322 106.49-6.5429 200.36-3.1056 55.844-3.0994 99.182 0.017 119.6 1.9346 12.671 8.5713 36.794 15.727 57.161 2.4915 7.0923 4.53 13.557 4.53 14.367 0 9.2853-23.652-31.259-36.289-62.209-8.827-21.617-12.989-35.129-22.25-72.223-1.2798-5.1257-2.9533-10.717-3.7193-12.426-0.766-1.7084-2.4172-7.2997-3.6693-12.424-1.252-5.1254-4.8169-18.754-7.9218-30.288-3.1052-11.532-7.0344-27.258-8.732-34.947-1.6978-7.6882-4.4659-19.92-6.1514-27.18-3.1019-13.362-7.6412-35-10.917-52.032l-1.7921-9.3192-1.6996 4.9794c-3.8106 11.162-4.8215 8.75-10.07-24.03-5.7737-36.065-7.3124-46.196-10.082-66.374l-1.9185-13.98-1.17 28.734c-0.6435 15.804-1.8517 35.723-2.6849 44.265-5.3235 54.585-6.3981 67.046-7.1319 82.706-0.5922 12.639-1.3634 17.474-2.7867 17.474-1.0825 0-2.3968-2.1433-2.9205-4.7628-1.1604-5.8015-3.329-4.8687-4.6651 2.0069-7.2241 37.174-9.7679 47.685-20.442 84.452-10.193 35.114-22.927 76.073-25.755 82.844-0.8695 2.0815-3.7104 10.468-6.3131 18.638-2.6027 8.1694-5.236 15.552-5.8516 16.406-0.6155 0.8543-2.7056 6.0116-4.6445 11.46-1.9386 5.4488-8.4419 20.126-14.451 32.617-6.01 12.49-12.514 27.666-14.452 33.724-5.0231 15.695-7.8162 47.003-5.9889 67.133 0.7997 8.8109 0.9759 16.794 0.3913 17.74-1.2822 2.0744-5.4535-7.389-6.853-15.548-0.546-3.1823-1.9839-9.272-3.1957-13.533-1.2115-4.2611-2.8912-17.541-3.7325-29.51-0.841-11.969-2.2371-28.753-3.1024-37.295-0.8653-8.5426-2.2432-25.317-3.0619-37.276-0.8187-11.959-2.1883-30.83-3.0436-41.936-2.3503-30.52-4.7259-130.6-4.037-170.07l0.6099-34.947-2.1585 17.861c-1.1872 9.8238-2.898 27.996-3.8016 40.382-0.9039 12.386-2.6149 28.463-3.8022 35.723-1.1876 7.2611-2.5955 17.745-3.1288 23.298-0.5332 5.5526-1.9714 15.688-3.1957 22.521-1.2242 6.8336-2.9794 16.619-3.9006 21.744-0.9211 5.1254-2.9675 16.659-4.5477 25.628-1.5801 8.9696-3.5857 19.453-4.4569 23.298-0.8714 3.8441-3.1074 14.328-4.9689 23.298-3.6196 17.44-9.0959 33.974-18.924 57.142-3.367 7.9361-7.8407 22.265-9.9422 31.841-5.7434 26.172-17.711 100.82-17.732 110.61-0.015 6.0996-1.5439 11.648-3.2123 11.648-2.1588 0-5.9353-15.262-7.4942-30.288-0.7975-7.6883-1.8442-15.028-2.3258-16.308-3.9047-10.391-11.139-87.98-16.436-176.28-2.0347-33.92-2.0703-178.72-0.048-198.04 0.8498-8.1155 2.2862-49.353 3.1919-91.638 0.9058-42.286 2.2791-84.192 3.0523-93.125 1.5495-17.909 0.8366-20.257-6.1498-20.257-3.9818 0-25.747-9.8628-34.226-15.509-2.1358-1.4223-7.2029-4.8484-11.261-7.6133-4.0577-2.7652-7.3775-4.6903-7.3775-4.2781 0 0.4121 2.017 6.5711 4.4822 13.687 6.3474 18.322 11.05 33.47 11.05 35.598 0 4.9399-24.591-4.8513-43.604-17.361-11.253-7.4039-27.548-19.782-35.454-26.93-4.0721-3.6816-4.9995-4.0636-4.0514-1.6683 0.6766 1.7085 3.2278 10.043 5.6698 18.52 5.0342 17.479 5.8415 28.851 2.048 28.851-4.121 0-14.997-6.2591-27.849-16.027-17.617-13.39-19.283-14.873-44.519-39.624l-22.728-22.291 4.517 18.392c4.3682 17.788 7.6694 47.125 5.3023 47.125-5.116 0-35.632-29.447-58.747-56.692-9.4227-11.105-17.8-20.45-18.616-20.763-0.8827-0.3402-1.006 0.918-0.3043 3.1065 3.1484 9.8192 3.5201 13.982 1.3241 14.824-7.6437 2.9333-34.957-27.159-70.237-77.382-6.9885-9.9484-12.706-18.774-12.706-19.612 0-0.8384-1.0614-2.406-2.3584-3.4826-1.2972-1.0765-3.4096-4.1326-4.6944-6.7913-1.2848-2.6585-3.7127-6.5811-5.3955-8.7168l-3.0596-3.8828 0.9037 5.4361c0.4969 2.9899 2.9829 14.872 5.5243 26.404 9.4378 42.828 10.83 49.234 13.658 62.904 7.5584 36.521 10.142 49.892 18.002 93.192 3.7616 20.721 6.9965 42.467 9.3574 62.904 1.2335 10.677 2.9036 22.91 3.7112 27.181 2.6014 13.759 3.703 56.495 1.8815 73-3.2288 29.259-10.699 52.728-22.404 70.384-6.6503 10.03-10.87 14.914-34.476 39.894-30.412 32.181-46.529 51.875-51.765 63.252-4.1018 8.9143-7.1702 7.7144-6.1267-2.3959 1.6126-15.626 12.003-40.155 35.11-82.882l6.0317-11.153-2.7837-11.368c-1.5311-6.2525-3.4855-13.465-4.3431-16.027-0.8577-2.5627-1.9799-6.5816-2.4941-8.9308-0.5139-2.3492-1.8396-4.2714-2.9456-4.2714-1.1062 0-7.1271-7.8629-13.38-17.474-6.2525-9.6103-14.902-22.145-19.22-27.854-6.4559-8.5346-8.1522-9.969-9.5413-8.0697-2.1298 2.913-6.5947 1.343-7.9029-2.7787-2.0056-6.3192-2.9402-2.4379-8.4769 35.207-2.8326 19.258-4.7349 30.748-10.286 62.128-2.4551 13.878-8.0425 39.381-15.484 70.669-2.1331 8.9697-4.9396 20.852-6.2367 26.404-1.2969 5.5528-3.323 13.94-4.5022 18.638-9.1959 36.639-12.096 59.935-12.376 99.404-0.1084 15.307-1.0507 31.15-2.157 36.265-1.4637 6.7675-1.8385 26.58-1.4693 77.659l0.4954 68.575-4.37 11.164c-7.348 18.77-19.782 33.815-33.192 40.158-9.5815 4.5329-16.142 4.7677-24.566 0.88zm-613.06-377.8c-0.3878-1.1634-1.0919-0.4592-1.6412 1.641-0.67553 2.5835-0.47341 3.19 0.67913 2.0375 0.90255-0.9028 1.3354-2.5579 0.96197-3.6785zm-221.47-173.74c12.47-19.368 11.864-16.985 10.266-40.314-1.4083-20.56-0.21444-44.614 3.2797-66.08 1.2835-7.8854 1.1116-9.9166-1.1165-13.202-7.9198-11.678-11.158-25.027-11.114-45.819 0.0594-28.388 5.5308-50.387 20-80.411 9.6084-19.939 18.245-34.293 29.862-49.626 4.9979-6.5976 9.085-12.888 9.0822-13.98 0-1.0908-3.3123-3.5946-7.3549-5.564l-7.3499-3.5806-11.672 12.125c-15.231 15.822-19.039 20.285-30.847 36.153-23.201 31.18-36.38 59.308-46.306 98.832-3.8272 15.24-4.2415 19.549-4.166 43.327 0.0466 14.522 0.94449 30.948 1.9965 36.5 1.052 5.5525 2.555 13.94 3.3399 18.638 2.6939 16.124 10.554 43.526 16.354 57.017 6.3215 14.702 15.249 31.435 16.2 30.364 0.57569-0.6491 4.8718-7.1211 9.5468-14.383zm82.396-136.29c7.9313-14.16 24.897-48.204 37.346-74.941 2.9829-6.407 8.3801-17.939 11.993-25.627 3.6133-7.6883 11.742-25.719 18.061-40.069 6.3199-14.35 12.157-27.28 12.971-28.734 0.81438-1.4538 2.5782-5.4256 3.9199-8.8261l2.4392-6.1821-4.8867 4.6289c-6.0857 5.7653-32.708 41.116-42.509 56.449-10.309 16.125-27.92 51.33-31.186 62.34-0.63335 2.1357-1.683 4.582-2.3323 5.4361-2.0572 2.7062-15.524 59.104-15.524 65.011 0 3.112 0.27583 5.6581 0.61272 5.6581 0.33701 0 4.4299-6.8146 9.0955-15.143zm-59.774-10.096c2.0702-6.3545 3.4579-15.877 4.0174-27.569 1.4982-31.301 9.3873-59.54 25.926-92.803 3.9291-7.9018 6.9644-14.367 6.7453-14.367-0.21913 0-4.406 5.7662-9.304 12.814-11.564 16.64-26.729 47.218-34.012 68.588-5.4568 16.008-5.7359 17.767-5.0514 31.841 0.52782 10.856 1.6839 17.107 4.2607 23.05 1.945 4.4848 3.6983 8.1543 3.8964 8.1543 0.19792 0 1.7829-4.3683 3.5223-9.7074zm1399.7-54.362c-0.015-9.2399-0.2581-9.8758-5.144-13.202-2.8234-1.9221-5.6262-3.4948-6.2283-3.4948-0.6024 0 0.5687 3.3201 2.6021 7.3777s4.5457 9.9988 5.5827 13.202c1.0372 3.2035 2.181 5.8246 2.5419 5.8246s0.6513-4.3683 0.6456-9.7075zm-1340.3-38.963c7.9563-13.575 7.739-13.228 17.643-28.224 16.559-25.071 36.6-49.802 62.136-76.672 10.167-10.697 9.2774-10.388-12.34 4.3048-29.409 19.988-44.456 35.624-56.376 58.577-8.0499 15.501-20.408 49.093-20.487 55.694-0.0221 1.8252 2.3826-1.6659 9.4246-13.681zm-8.3066-83.829c13.064-15.463 45.037-47.432 60.757-60.749 22.044-18.673 22.204-18.832 14.99-14.722-10.306 5.87-59.126 40.644-62.905 44.806-0.42704 0.4706-4.9701 4.3137-10.096 8.5404s-12.552 10.637-16.503 14.248l-7.184 6.5631 4.5789 5.5551c2.5185 3.0552 5.4018 5.5149 6.4074 5.4656 1.0057-0.051 5.485-4.4173 9.9541-9.7074zm8.9799-36.874c10.262-8.0739 20.746-16.134 23.298-17.911 9.9475-6.9304 21.304-14.881 29.101-20.373 4.4849-3.1595 12.205-8.4454 17.156-11.747 5.4941-3.6633 9.9948-8.0832 11.547-11.341 1.4-2.9359 3.1152-5.3381 3.8112-5.3381 0.69595 0 1.2655-0.7071 1.2655-1.5712 0-2.1303 9.8066-17.004 11.234-17.039 1.0986-0.027-0.73097 3.5769-8.0548 15.866-1.9005 3.1892-3.2186 6.467-2.9291 7.2839 0.28947 0.817 7.6278-2.8405 16.307-8.1282 8.6794-5.2875 17.94-10.804 20.58-12.259 2.6394-1.4552 4.8071-3.9013 4.8173-5.4362 0.0116-1.5345 1.3996-8.3816 3.0881-15.216 1.6883-6.8342 3.0778-12.955 3.0881-13.603 0.0256-1.6303-21.623 16.069-26.386 21.573-2.1358 2.4677-5.2535 5.5281-6.9286 6.801-7.0921 5.3883 4.9148-9.1303 19.553-23.644l15.215-15.085 2.349-12.096c5.0666-26.089 5.6943-29.578 7.4117-41.204 0.97688-6.6126 1.4784-12.313 1.1147-12.669-0.64744-0.6321-17.852 2.0875-33.278 5.2606-18.501 3.8055-63.463 20.958-74.015 28.236-2.2675 1.5641-4.5689 2.8436-5.1142 2.8436-2.4658 0-19.946 14.229-32.333 26.319-36.32 35.45-54.504 82.094-47.033 120.64 2.327 12.004 8.5315 32.414 11.133 36.624 0.47831 0.7739 4.126-1.6336 8.1059-5.35 3.98-3.7164 15.633-13.363 25.894-21.437zm-61.269 1.122c-0.75554-1.9873-2.5815-10.836-4.0577-19.664-2.9669-17.745-2.495-50.947 0.8555-60.162 1.5311-4.211 1.3056-6.4866-1.4236-14.373-2.0863-6.0283-3.2428-13.246-3.2428-20.236 0-5.9763-0.59257-10.866-1.3168-10.866-1.2579 0-15.537 14.718-20.429 21.056-14.1 18.271-21.078 36.879-19.801 52.798 1.5867 19.766 16.53 40.246 37.094 50.844 10.49 5.4053 14.213 5.5875 12.318 0.6031zm11.424-118.21c3.4518-9.0385 12.608-22.992 21.619-32.948 3.9799-4.3967 7.2361-8.3622 7.2361-8.8118 0-1.4199-8.0951 3.2598-21.745 12.571-11.815 8.0591-13.257 9.5708-13.719 14.387-0.67785 7.0528 1.1764 21.689 2.7477 21.689 0.67668 0 2.4139-3.0988 3.8604-6.8864zm18.759-45.128c6.834-4.1533 19.066-11.017 27.181-15.253 8.1152-4.2359 16.716-9.3428 19.113-11.348 2.3965-2.0061 8.8977-6.1863 14.447-9.2898 11.333-6.338 12.161-8.2074 1.9735-4.457-3.7397 1.3766-9.6603 3.4342-13.157 4.5727-24.352 7.9282-57.466 28.842-68.629 43.345-4.9623 6.4473-4.2452 8.1331 1.5991 3.7592 2.7764-2.078 10.639-7.1762 17.474-11.329zm1184.4-60.646c14.8-7.4994 23.217-17.434 29.568-34.893 13.344-36.684 18.642-55.379 22.448-79.213 1.1595-7.2612 2.834-15.998 3.7216-19.414 2.8169-10.849 4.7673-31.608 6.2746-66.788 0.8051-18.794 1.8795-43.956 2.3874-55.915l0.9231-21.745-8.8041 17.085c-8.8853 17.244-24.304 40.344-27.833 41.698-1.4679 0.5633-1.278 3.2252 0.8192 11.483 1.5016 5.9127 4.2303 19.43 6.0638 30.04 9.8048 56.729 3.1819 97.686-21.911 135.5-3.2997 4.9723-5.9994 9.5419-5.9994 10.155 0 2.2226-15.017 16.727-25.954 25.07-6.1598 4.6984-11.227 9.0668-11.261 9.7075-0.034 0.6406 4.855 1.1649 10.864 1.1649 8.6136 0 12.568-0.8326 18.693-3.9372zm-28.424-7.7404c11.662-6.2376 39.406-48.829 47.125-72.343 8.2222-25.045 8.1305-77.69-0.1779-102.36-1.5822-4.6984-2.9417-7.1447-3.0208-5.4362-0.9655 20.827-3.3009 48.364-4.5014 53.075-6.3643 24.978-9.0997 33.623-13.431 42.445-18.193 37.062-30.045 59.412-38.834 73.228-5.5549 8.7324-10.1 16.4-10.1 17.04 0 2.5913 8.8805 2.1334 13.98-0.7209 2.9897-1.6739 7.0216-3.8915 8.9594-4.928zm-25.083-8.1255c8.053-12.582 22.358-38.162 21.705-38.814-0.3001-0.2999-4.1071 1.5546-8.4602 4.1211-16.362 9.6476-31.749 15.871-48.765 19.723-6.6204 1.4986-12.037 3.1971-12.037 3.7744 0 0.5774 5.6585 3.2858 12.575 6.0189 6.916 2.7329 15.827 7.012 19.803 9.5091 3.9763 2.4969 7.7313 4.5532 8.3456 4.5696 0.6145 0.015 3.6897-3.9895 6.8335-8.9013zm-959.23 2.6349c7.2387-0.9 13.946-2.4726 14.905-3.4946 2.0365-2.1707 7.4593-24.729 6.5793-27.368-0.96675-2.8999-40.086 25.336-42.336 30.558-1.0428 2.42 3.3263 2.4841 20.851 0.3052zm962.93-61.264c15.368-7.7879 21.286-15.362 29.468-37.719 1.9641-5.3669 3.2452-10.084 2.8467-10.482-0.3984-0.3984-3.0549 2.9443-5.9034 7.4283-4.3304 6.816-20.297 27.936-23.219 30.711-4.8861 4.6422-12.885 13.942-11.993 13.942 0.629 0 4.5891-1.7462 8.8004-3.8801zm-71.441-49.002c7.2613-4.3103 16.872-11.45 21.357-15.866l8.1542-8.0289-0.021-10.149c-0.013-5.5819-0.4435-11.725-0.9595-13.65-0.8814-3.2888-1.5197-2.9581-10.498 5.4363-5.2578 4.9155-13.038 11.734-17.291 15.15-4.2518 3.4169-8.4186 7.2611-9.2596 8.5424-1.4884 2.2682-11.674 24.854-11.674 25.886 0 0.2845 1.5727 0.5169 3.4948 0.5164 1.922-7e-4 9.4355-3.528 16.696-7.8386zm-61.467-45.745c1.2315-4.2712 2.7112-12.199 3.2886-17.619 0.9647-9.0586 0.8163-9.8102-1.8381-9.3131-2.2198 0.4157-3.6858 3.7197-6.3389 14.285-3.3646 13.399-12.997 35.169-17.049 38.532-1.1117 0.9228-1.9974 2.4656-1.968 3.4289 0.029 0.9632 4.9162-3.4907 10.86-9.8974 8.1292-8.7628 11.361-13.573 13.045-19.415zm87.02-26.187c-1.8171-13.244-2.9284-14.728-5.2202-6.9795-1.0998 3.7194-4.3774 12.537-7.2836 19.594-2.9059 7.0575-5.2592 13.348-5.2295 13.979 0.029 0.6307 4.2785-3.2987 9.4413-8.7322l9.3873-9.8786zm-161.66 15.492c-3.7823-5.2247-7.6696-4.5901-7.2564 1.1847 0.1711 2.3907 1.1621 5.3718 2.2021 6.625 1.6418 1.9783 2.2904 1.8787 4.9265-0.7572 2.9738-2.9739 2.9765-3.1175 0.1278-7.0525zm187.52-11.089c0.9073-3.6029 1.4144-8.2132 1.1271-10.245-0.4788-3.3853-0.9251-3.1097-5.3371 3.2951-4.468 6.4863-4.7591 7.716-4.0451 17.085l0.7692 10.096 2.9182-6.8402c1.605-3.7619 3.6604-9.7877 4.5677-13.391zm-94.233 0.4859 4.203-7.3195-3.9083-0.9809c-5.9238-1.4868-7.191 0.242-7.191 9.8095 0 9.6111 0.5845 9.4833 6.8963-1.5091zm-85.296 4.8786c0.6523-2.0554 0.042-4.2997-1.6894-6.2128-3.61-3.9891-5.0804-3.7758-6.2557 0.9081-1.7416 6.9382 5.8234 11.989 7.9451 5.3047zm-20.239-22.022c2.0347-4.4848 4.1958-10.185 4.8024-12.666 1.0286-4.208 0.8519-4.4382-2.6206-3.4138-2.0477 0.6043-6.3614 1.506-9.5858 2.0038-3.2241 0.4979-6.2 1.4516-6.6127 2.1195-1.036 1.6763 7.105 20.111 8.8811 20.111 0.7898 0 3.1009-3.6694 5.1356-8.1542zm195.73-8.0548c2.124-4.6436 3.8618-9.5283 3.8618-10.854 0-9.1532-12.963-43.606-16.408-43.606-2.3623 0-3.217 16.503-1.2469 24.074 1.0003 3.8441 3.082 14.154 4.626 22.91 1.5439 8.756 3.3691 15.92 4.0557 15.92 0.6867 0 2.9865-3.7993 5.1105-8.4429zm106.57-19.126c14.685-15.845 25.139-38.204 28.55-61.066l0.9075-6.0847-5.8977 5.4672c-7.4949 6.9479-24.151 16.656-34.443 20.073-10.511 3.4912-10.512 3.5195-1.5282 36.174 1.939 7.0476 3.9862 12.814 4.5495 12.814 0.5634 0 4.1016-3.32 7.8623-7.3777zm-15.06-56.463c7.5239-8.9416 10.2-17.153 10.2-31.301 0-17.68-6.617-34.612-20.178-51.635-3.9155-4.9148-6.5646-6.5767-12.68-7.9549l-7.7304-1.7423 1.0729 6.3503c0.5901 3.4927 1.0327 16.116 0.9834 28.053-0.076 18.528 0.3213 22.284 2.7194 25.679 4.0534 5.7388 14.99 28.082 16.202 33.099 1.3485 5.5826 4.4022 5.4048 9.4109-0.54764zm-41.21-73.32c-0.2353-21.683-0.1895-21.604-13.885-23.96-20.173-3.4692-20.217-3.3882-7.2997 13.595 6.1842 8.1311 12.968 17.34 15.077 20.463 2.108 3.1233 4.3795 5.3408 5.0479 4.9278 0.6683-0.41305 1.1455-7.1749 1.0604-15.027zm92.874-28.101c-0.8459-23.93-4.774-58.018-8.7342-75.793-0.8182-3.6729-2.218-14.715-3.1103-24.54-2.3908-26.32-4.7565-47.803-6.329-57.468-5.6363-34.645-13.485-65.763-18.018-71.447-1.0226-1.2814-4.0921-7.0832-6.8214-12.893-2.7295-5.8099-5.6673-10.329-6.5289-10.042-1.6223 0.54074-5.8352 11.248-5.8761 14.934-0.015 1.1522-1.0108 4.2975-2.2175 6.9893-1.2068 2.6919-5.787 15.728-10.179 28.969-4.3914 13.242-8.5823 25.472-9.3131 27.181-4.3537 10.181-32.676 95.527-32.676 98.467 0 0.91933 2.361 2.658 5.2464 3.8637 5.2764 2.2046 10.197 7.1059 5.2145 5.1939-1.361-0.52211-4.9702-1.4177-8.0209-1.99-4.7884-0.89825-5.5463-0.63464-5.5463 1.9287 0 1.633 3.3702 6.7782 7.4894 11.433 4.1193 4.6552 10.934 14.272 15.143 21.371 7.3364 12.37 8.1057 13.119 18.526 18.042 5.9797 2.8245 13.668 6.0335 17.085 7.1311 10.524 3.3805 25.703 12.157 35.092 20.29l8.9566 7.7591-1.6216-5.8838c-1.9487-7.071-9.8811-23.127-12.105-24.502-0.8734-0.53981-1.5879-2.089-1.5879-3.4428 0-1.3771 2.3067 0.55962 5.2364 4.3966 5.8744 7.6935 16.508 29.431 16.508 33.746 0 3.4976 1.4928 5.105 3.5564 3.8296 1.0188-0.62964 1.2405-10.293 0.6313-27.526zm-109.81-36.683c0-0.87123-1.8293-4.482-4.0651-8.0238-4.2037-6.6587-5.0694-6.4956-7.4872 1.4119-0.8763 2.8654-0.1814 3.8349 4.0832 5.6976 6.3672 2.7811 7.4691 2.9159 7.4691 0.91421zm-73-46.565c0-1.6076 0.699-3.355 1.5531-3.883 3.1958-1.975 1.34-4.778-5.6003-8.4599-3.9346-2.0873-10.028-6.0692-13.541-8.8488-3.5125-2.7797-6.6422-4.7982-6.9548-4.4857-1.9103 1.9103 7.1113 16.585 14.046 22.849 8.2024 7.4076 10.495 8.0257 10.495 2.8294zm7.2422-17.474c1.285-2.0566 1.4507-2.5713 3.0142-9.3581 1.0516-4.5647 1.0573-4.5573-24.263-31.413-7.2598-7.7005-19.001-21.497-38.459-45.189-1.4698-1.7896-5.6885-6.786-9.375-11.102-3.6864-4.3168-7.7067-9.143-8.9337-10.724-1.2271-1.5818 2.0322 6.2103 7.2432 17.316 5.2106 11.105 11.224 24.036 13.363 28.734 11.808 25.934 17.966 37.021 23.341 42.022 10.424 9.7008 27.07 20.977 31.784 21.532 0.5903 0.07 1.6191-0.74763 2.2861-1.8154zm-48.197-22.879c-2.2728-3.4343-4.8626-6.2443-5.7551-6.2443-1.8301 0-0.9999 1.6584 4.4915 8.973 5.3069 7.069 6.3116 4.8993 1.2636-2.7287zm-255.07-10.674c0.9741-1.5763-3.1118-7.589-4.3296-6.3713-1.1944 1.1944 0.69 7.6956 2.2307 7.6956 0.7041 0 1.6486-0.59596 2.0989-1.3244zm-10.997-7.6065c-1.3118-14.652-2.2676-17.36-9.2742-26.278-3.9144-4.9818-10.25-15.523-14.079-23.424-3.8289-7.9019-7.3008-14.367-7.7152-14.367-1.4456 0 7.7969 39.624 11.05 47.372 1.076 2.5628 2.8786 7.0127 4.0057 9.8884 1.7848 4.553 12.34 14.187 15.544 14.187 0.6211 0 0.8321-3.32 0.4687-7.3776zm19.681-3.1461c-2.9898-1.2211-5.9496-3.0223-6.5771-4.0024-0.6277-0.98025-1.1425-1.0833-1.1441-0.22902 0 0.85423 1.5476 3.4132 3.4427 5.6863 2.8769 3.4508 3.9633 3.8552 6.5802 2.4493 2.9293-1.5736 2.7787-1.8291-2.3017-3.9041zm227.13-21.63c-14.726-29.014-22.008-42.831-23.119-43.865-5.0911-4.7426 21.068 52.686 27.308 59.95 3.0488 3.5492 5.8007 6.204 6.1154 5.8994 0.3148-0.30462-4.3225-10.198-10.305-21.985zm-233.34 6.5262c-3.7726-3.8441-7.0633-6.9893-7.3127-6.9893-0.2493 0-0.4532 1.2862-0.4532 2.8583 0 2.7139 9.9172 11.12 13.118 11.12 0.8287 0-1.58-3.1453-5.3528-6.9894zm-26.543-28.045c-1.7603-6.7064-8.6924-22.434-9.8877-22.434-0.9112 0-0.2306 2.0677 5.7663 17.518 4.9938 12.867 6.7621 14.976 4.1214 4.916zm-18.991-22.724c-0.4958-1.239-0.8639-0.87099-0.9384 0.93839-0.068 1.6374 0.2997 2.5547 0.8157 2.0386 0.5162-0.51611 0.5714-1.8557 0.1226-2.9769zm253.86-4.7825c-1.5339-1.5225-1.7124-1.3441-0.8693 0.86947 0.5832 1.5318 1.4517 2.3938 1.93 1.9156 0.4781-0.47819 9e-4 -1.7315-1.0607-2.7851zm64.384-115.23c1.0697-4.2627-6.163-20.775-9.6934-22.13-1.1416-0.43815-2.0759-1.4503-2.0759-2.2492 0-4.3385-22.17-25.846-38.122-36.982-4.2336-2.9556-7.9304-5.926-8.2152-6.601-0.2847-0.67499-1.6275-1.2272-2.984-1.2272s-3.6425-1.0643-5.0799-2.3652c-3.3708-3.0504-22.583-8.3929-26.499-7.3688-3.7643 0.98441-5.4511 7.2432-3.2524 12.069 2.2999 5.0478 26.778 15.489 39.602 16.894 4.7721 0.52244 10.9 6.1349 12.622 11.56 0.5902 1.8596 1.7606 3.3811 2.6008 3.3811 0.8404 0 2.6001 2.566 3.9104 5.7024 1.8202 4.356 2.7126 5.1811 3.78 3.4947 1.1572-1.8283 1.4014-1.7692 1.4211 0.34417 0.013 1.4036 1.1722 2.9925 2.5759 3.5312 1.4037 0.53862 2.1337 1.3977 1.6223 1.9091-0.5113 0.51136 2.1854 4.7537 5.9926 9.4275 6.5243 8.0093 7.7496 12.562 2.878 10.692-1.195-0.45857-2.1727-0.48369-2.1727-0.0558 0 1.6222 7.2442 3.5912 13.56 3.6857 5.7186 0.0857 6.6954-0.39588 7.5276-3.7113zm-24.056-3.0117c-1.9951-2.4039-7.9051-4.3866-7.9051-2.6521 0 0.86802 5.2466 3.5421 9.121 4.6487 0.3181 0.0909-0.229-0.80766-1.2159-1.9968z" fill="#d23b33"/></svg>
