<?xml version="1.0" encoding="UTF-8"?>
<svg version="1.1" viewBox="0 0 1100 2400" xml:space="preserve" xmlns="http://www.w3.org/2000/svg"><path d="m536.44 644.39c-1.5348-0.0579 1.6513 12.834 5.4066 21.878 1.6811 4.0482 5.8088 18.605 8.8232 31.114 3.7243 15.454 6.1076 35.195 6.1076 50.6 0 11.564 0.50037 13.171 3.7708 12.112 1.7898-0.57955 10.96-18.974 13.245-26.568 2.4526-8.1504 2.2592-8.1032 9.7144-2.3526 6.5771 5.0732 15.226 12.033 16.223 13.056 0.27471 0.28166 3.1851 2.5741 6.4689 5.0948 3.2837 2.5208 6.655 5.1353 7.4917 5.8099 0.83668 0.67462 4.4431 3.5919 8.0141 6.4831l6.4938 5.2575-4.4951-0.55083c-29.735-3.6404-33.274-3.8817-49.814-3.4035-10.448 0.30209-17.778 0.93916-18.429 1.6032-0.59447 0.60645-2.0021 1.1122-3.1284 1.1226-5.815 0.0534-20.267 9.0379-25.614 15.923-4.0644 5.2343-4.8645 15.788-2.7084 22.962h-0.39947c2.6268 6.7034 7.1401 13.704 13.362 20.727 0.19134 0.20582 0.16527 0.28851 0.3629 0.49262 2.4428 2.5222 4.4422 4.9297 4.4497 5.3501 8e-3 0.42036 0.45728 0.7643 1.0067 0.7643 0.20092 0 0.25291-0.0776 0.3892-0.11047 0.87847 0.81862 1.778 1.6348 2.6982 2.4481 0.42989 0.68388 0.36553 0.98045 1.6754 2.3168 2.0898 2.1319 3.0085 2.6167 3.8278 2.5198 0.96936 0.78574 1.9572 1.5676 2.9631 2.3451 0.21396 0.20071 0.0532 0.33088 0.32335 0.52098 1.3125 0.92406 3.6696 2.9856 5.2384 4.5828l2.8519 2.9049-3.74 4.95c-2.0572 2.7227-4.225 4.9695-4.817 4.9933-1.1077 0.0447-12.734-4.4357-15.405-5.9367-0.82409-0.46305-3.9711-1.4199-6.9928-2.1257-3.0216-0.70581-6.191-1.6395-7.0425-2.075-0.85151-0.43542-4.2228-1.3299-7.4917-1.9884-3.269-0.65848-7.2922-1.6026-8.9403-2.0973-7.8827-2.3663-24.864-4.344-38.957-4.538-30.188-0.41563-57.744 7.4044-66.261 18.804l-3.4254 4.5858 0.56189 9.1716c0.5188 8.4786 2.6258 19.582 4.6414 24.458 0.46344 1.1209 1.5864 4.1786 2.4963 6.7936 0.90995 2.615 3.0928 7.3551 4.8506 10.534 9.7865 17.701 10.475 19.507 9.2213 24.183-2.525 9.4198-4.3884 12.551-8.3054 13.953-2.0421 0.73086-5.0622 1.9079-6.7104 2.6153-3.8005 1.6313-22.661 4.5933-29.247 4.5933-4.9469 0-6.2128 0.91512-6.2128 4.4843 0 2.5685 10.78 12.784 19.871 18.83 5.1602 3.4319 9.7672 6.2398 10.238 6.2398 1.5198 0 0.94463 1.725-4.1366 12.42-2.7458 5.7796-4.9932 10.898-4.994 11.374 0 1.0009-2.3085 6.5143-5.1798 12.382-1.097 2.2419-2.6736 6.1404-3.503 8.6625-4.9176 14.956-21.838 49.438-27.024 55.074-1.783 1.9373-3.2439 2.9486-3.2469 2.248 0-0.7006 0.44418-1.2733 0.99356-1.2733 0.54937 0 0.99939-1.7808 0.99939-3.9573 0-3.1804-0.4175-4.0699-2.1275-4.526-1.6088-0.4293-1.9371-1.0165-1.3462-2.4109 0.42972-1.0142 0.98217-3.2943 1.2276-5.0665 0.34762-2.5094-0.0173-3.4748-1.6505-4.3664-2.1316-1.1638-2.9195-4.1305-1.0974-4.1305 1.579 0 1.1617-5.26-0.57214-7.2145-1.2332-1.3902-1.3675-2.5228-0.62332-5.2725 1.0447-3.8599 0.0135-6.8757-2.3514-6.8757-1.8854 0-1.8477-1.9362 0.079-4.108 1.1516-1.2984 1.2888-2.3581 0.56038-4.3127-0.53109-1.4251-1.4091-2.8716-1.9519-3.2139-0.57213-0.3608-0.74932-2.9719-0.4214-6.213 0.31106-3.075 0.16549-5.5986-0.32342-5.6068-0.48891-0.01-1.5244-0.4244-2.3002-0.9255-1.1924-0.77-1.1533-1.1731 0.25023-2.6049 2.266-2.3118 2.0836-5.1428-0.48876-7.5877-1.7758-1.6878-1.9292-2.3116-0.88673-3.5931 1.5566-1.9134 0.56759-6.5558-1.7749-8.3312-1.4074-1.0667-1.478-1.6158-0.43309-3.3617 1.9577-3.2712 1.576-7.3122-0.74916-7.9326-2.1078-0.56234-2.6867-2.798-0.99941-3.8618 1.7713-1.1168 1.0634-5.9139-1.2423-8.4177-2.0345-2.2093-2.0874-2.5218-0.56922-3.3886 2.2755-1.2992 1.6784-5.9052-1.0593-8.1669-1.2744-1.0528-1.7461-2.0547-1.1457-2.4332 1.8045-1.1378 1.1519-7.2184-0.98623-9.1925-1.8036-1.6651-1.8529-2.0242-0.49167-3.5588 1.9966-2.2508 0.95265-7.8694-1.6169-8.7014-1.9595-0.6345-2.6164-2.5093-0.87937-2.5093 0.54936 0 0.99789-1.8024 0.99789-4.0066 0-3.1126-0.44569-4.152-1.9973-4.6545-2.366-0.76605-2.5933-2.097-0.49894-2.9169 0.82409-0.32262 1.4984-1.6481 1.4984-2.9452 0-2.1425 1.941-5.3631 5.9934-9.9463 0.8241-0.93205 1.9469-2.488 2.4962-3.4573 1.9174-3.3826 6.181-5.2502 9.271-4.0603 1.5419 0.59374 3.6838 0.72885 4.7584 0.30005 1.0746-0.42882 3.6181-0.81152 5.6524-0.85088 2.0344-0.0395 4.8916-0.62663 6.3504-1.3047 2.6193-1.2176 2.6448-1.3269 2.0046-8.8267-0.35653-4.1766-0.85249-7.93-1.1018-8.3416-0.24933-0.41158-4.3387-1.3112-9.0866-1.9988-7.9916-1.1573-12.166-1.0936-29.117 0.44932-6.2298 0.56705-6.3046 0.54285-10.6-3.4961-2.3792-2.2373-5.0469-4.0678-5.9276-4.0678-2.1748 0-3.6534-3.1299-4.3618-9.2328-0.46073-3.9689-1.2407-5.6547-3.522-7.6131-2.8827-2.4746-7.7727-3.4468-7.7727-1.545 0 1.2443-6.8603 4.5985-7.6849 3.7573-0.34177-0.34869-0.52562-3.6238-0.40972-7.2773 0.11597-3.6534-0.10212-7.1583-0.48434-7.7893-0.38223-0.63091-0.87219-4.1803-1.0886-7.8878-0.21637-3.7074-0.82231-7.8883-1.3462-9.2895-0.52383-1.4012-1.5632-7.7763-2.3104-14.168-1.336-11.429-1.9568-14.514-8.238-14.346-2.0938 0.0561-4.8167 0.47358-8.4048 1.0643-3.571 0.58795-7.5573 1.7769-8.8584 2.6422-2.727 1.8138-2.8595 0.14418 2.1436 26.974 0.79705 4.2741 1.804 8.3549 2.2373 9.0701 0.79667 1.315 1.3877 6.1711 1.412 11.596 8e-3 1.6288 1.1928 4.6975 2.6338 6.819 2.7709 4.0791 2.569 6.0159-0.62623 6.0159-1.0664 0-1.9388 0.42767-1.9388 0.95089 0 0.52327-1.2356 1.096-2.7465 1.2733-2.7013 0.31711-2.7475 0.44158-2.7801 7.4564-0.0179 3.9234 0.43176 7.499 0.99933 7.946 0.64557 0.50836-0.063 1.6532-1.8934 3.0572-9.2788 7.1186-9.0618 6.6983-9.0618 17.521 0 8.4107 0.261 9.9838 1.7983 10.861 1.467 0.83749 1.6803 1.8192 1.1632 5.3366-0.48006 3.2664-0.2518 4.6334 0.94381 5.6457 1.2358 1.0463 1.4434 2.5014 0.95841 6.7115-0.56097 4.8696-0.41886 5.4394 1.5042 6.0621 2.4588 0.79615 2.5665 1.3974 0.69792 3.9111-1.0628 1.4298-1.1175 2.4929-0.24871 4.841 0.61222 1.6547 1.4421 3.0079 1.8451 3.0079 0.40306 0 0.4594 2.3614 0.12436 5.2471-0.49669 4.2786-0.28879 5.485 1.1253 6.5398 1.411 1.0525 1.5219 1.6966 0.59986 3.4543-1.304 2.4858-0.44807 6.127 1.8422 7.8356 1.3515 1.0082 1.3881 1.5359 0.25021 3.7051-1.5024 2.8639-0.71096 6.6826 1.775 8.558 1.2836 0.96846 1.354 1.466 0.35405 2.5004-1.6315 1.6876-1.5893 5.1124 0.0907 7.4564 0.86005 1.2 1.1746 3.6008 0.88088 6.719-0.38852 4.1251-0.14922 5.0202 1.5978 5.9741 1.8317 1.0001 1.9134 1.3987 0.75653 3.6737-1.582 3.1107-0.89873 7.6325 1.153 7.6325 0.97094 0 1.305 0.6283 0.94824 1.7839-1.8872 6.1116-1.8762 6.2633 0.71403 8.9059 3.0107 3.0714 3.2222 4.1348 0.99498 5.0067-1.9082 0.7471-1.1518 5.5339 1.1603 7.3459 1.0758 0.8431 1.2804 2.3454 0.80335 5.8964-0.53259 3.964-0.32305 5.0063 1.2481 6.195 1.6026 1.2125 1.7003 1.7454 0.64093 3.5156-1.8684 3.122-1.5148 5.8848 0.98329 7.6698 1.9125 1.3666 2.0562 1.8846 0.99939 3.611-1.8968 3.0985-1.484 6.8431 0.94524 8.579 2.0109 1.4367 2.0551 1.6974 0.58233 3.3706-1.509 1.7145-1.4305 7.3951 0.10241 7.4325 0.34807 0.01 1.2887 0.4393 2.091 0.9569 1.255 0.8098 1.2131 1.2173-0.29854 2.9212-2.1552 2.4297-1.348 6.8693 1.535 8.4432 1.8034 0.9848 1.8355 1.2203 0.38477 2.8557-2.2699 2.5589-1.9571 4.9315 1.0228 7.7489 2.4388 2.306 2.4973 2.571 0.92621 4.1738-1.6104 1.643-1.4128 6.6112 0.2897 7.2953 3.1602 1.2696 3.5753 2.1693 1.8832 4.0767-2.2358 2.52-2.157 4.4561 0.2897 7.1354 2.8055 3.0722 2.5694 4.6789-0.56923 3.8753-1.4117-0.3616-10.738-4.8147-20.727-9.8956-24.915-12.674-28.363-13.938-45.543-16.694-18.661-2.9934-31.61-1.4012-39.33 4.8365-4.5202 3.6523-7.7054 9.5922-7.7054 14.368 0 1.9085-0.83518 4.5643-1.8554 5.9009-3.7546 4.9193-9.21 16.477-9.7802 20.721-0.59949 4.4624 0.98306 7.3579 2.0851 3.8155 1.177-3.783 6.6026-11.48 8.7926-12.474 1.2407-0.5625 3.7429-2.1295 5.5603-3.4825 1.8173-1.3529 5.4144-3.2497 7.9921-4.214 2.5778-0.9645 5.1353-2.2937 5.6846-2.9543 0.54937-0.6605 2.798-1.4779 4.9955-1.8166 2.1976-0.3388 6.9174-1.1307 10.488-1.7586 6.5947-1.1595 8.4341-1.0646 19.977 1.0225 9.4393 1.7068 9.9397 1.9595 6.9928 3.5305-1.3735 0.7323-4.4284 1.6582-6.788 2.057-6.1882 1.0464-12.757 5.1506-19.524 12.2-8.9247 9.2988-12.105 18.625-8.5541 25.079 1.3248 2.4076 1.3855 2.3264 1.9227-2.6095 0.95736-8.796 4.9935-14.482 13.926-19.615 10.802-6.2079 15.263-7.4517 29.006-8.0818l12.487-0.5732 6.226 3.7289c3.4244 2.0503 8.2157 5.4296 10.648 7.5101 2.4323 2.0806 6.2961 5.0991 8.5863 6.7084 2.7625 1.9415 3.8289 3.2681 3.1693 3.941-0.54675 0.5578-6.3123 1.8277-12.814 2.8228-6.5012 0.995-15.102 2.3884-19.111 3.096-7.0879 1.2509-7.331 1.2247-8.835-0.9658-1.1474-1.6711-2.3613-2.172-4.6984-1.9406-2.9147 0.2887-3.173 0.6243-3.4503 4.4888l-0.29847 4.1768-12.094 0.6642c-31.735 1.7409-57.633-0.2162-86.78-6.5578-5.8138-1.2648-11.321-2.0067-12.237-1.6479-1.0031 0.3927-1.6651 1.7802-1.6651 3.4886 0 2.7908-2.7929 14.809-6.9343 29.838-1.1584 4.2036-3.2519 12.229-4.6516 17.834-1.3997 5.6048-3.4676 11.714-4.596 13.577-3.8855 6.4134-0.85834 8.5261 17.68 12.338 3.2964 0.6777 8.8849 1.8827 12.42 2.6766 19.178 4.3071 26.611 4.8521 67.312 4.9456 35.062 0.08 39.881 0.281 40.656 1.6928 0.48337 0.8808 1.3301 5.008 1.8818 9.1715 0.55162 4.1635 1.7098 12.121 2.5738 17.68 0.86403 5.5601 1.4447 10.494 1.2906 10.966-0.15411 0.4717-3.5743-0.7531-7.6001-2.7213-7.4563-3.6455-10.818-4.2895-13.912-2.6691-3.2808 1.7181-13.24 4.2956-14.217 3.6797-0.53799-0.3393-7.5608-0.6153-15.605-0.6076-13.479 0.01-15.106-0.1971-20.738-2.6153-3.3612-1.4434-8.618-2.856-11.681-3.1393l-5.5676-0.5149-5.9144 5.7052c-4.666 4.5017-6.757 5.8065-9.9149 6.1906-2.2011 0.2676-8.2718 0.9722-13.491 1.5628-11.574 1.311-20.488 3.1096-32.964 6.6534-5.2192 1.4826-12.188 3.325-15.484 4.0947-15.006 3.5033-23.719 7.4819-36.459 16.643l-5.4944 3.9498 0.0599 11.1c0.0502 9.3801 0.47206 12.263 2.7274 18.61 6.5966 18.563 24.79 43.458 40.166 54.959 2.747 2.0549 6.1183 4.783 7.4917 6.0622 5.9036 5.4984 23.085 12.523 44.193 18.068 3.7039 0.9731 6.5517 2.0633 6.327 2.4227-0.42552 0.6807-3.6276 2.3913-12.031 6.4249-8.0461 3.8622-21.255 13.083-18.741 13.083 1.1928 0 4.6172-1.143 7.6088-2.5391 6.3484-2.9623 13.589-5.1013 26.085-7.7073 11.275-2.3512 14.88-2.4224 16.586-0.3253 1.1644 1.4313 0.65567 2.9963-3.7313 11.464-2.7943 5.3935-5.9057 13.133-6.9138 17.198l-1.8334 7.3907 3.2704 3.4409c8.1244 8.5517 27.485 14.139 35.075 10.122 3.8232-2.0231 15.321-16.024 18.86-22.965 2.9464-5.7794 7.3591-12.265 8.6374-12.696 1.638-0.5519 10.423 8.5017 12.01 12.378 3.559 8.6899 0.0652 24.985-9.5666 44.613-2.6827 5.467-4.5592 9.9405-4.1702 9.9405 0.38889 0 2.8922-1.5859 5.5631-3.523 2.6709-1.9374 7.9987-4.7481 11.84-6.2458 6.3183-2.463 7.9056-2.6736 16.618-2.2153 6.7975 0.3579 11.689 1.2646 16.624 3.0826 7.5309 2.7744 21.903 10.74 27.509 15.247 3.0032 2.4144 3.291 3.0169 2.1889 4.5859-0.69771 0.9933-1.9338 3.182-2.7465 4.8634-1.9124 3.9569-5.2145 9.311-8.971 14.547-1.6482 2.2972-4.756 7.0296-6.9064 10.517l-3.9098 6.3397 1.1677 9.2656c1.7567 13.931 3.153 21.384 4.2068 22.462 0.52075 0.5324 0.94666 1.8362 0.94666 2.8975 0 1.0726 0.8868 2.1668 1.9973 2.4631 1.0988 0.2931 1.9988 0.8362 1.9988 1.2062s-1.8491 3.1826-4.1088 6.2502l-4.1087 5.5769-7.2928 0.081c-8.1905 0.09-10.434 1.1614-16.517 7.8818l-3.7473 4.1394-2.8065-3.402c-5.6002-6.79-8.7668-9.2991-10.865-8.6058-1.8534 0.6128-4.1115 0.8884-10.494 1.2807-1.4018 0.087-4.3854 1.9633-6.782 4.2665-2.3534 2.2614-4.7315 3.8257-5.2852 3.4766-1.947-1.2276-9.4945 3.4198-12.328 7.5907-2.8114 4.1386-4.5682 4.6262-4.5682 1.2689 0-6.8123-11.637-5.0116-15.553 2.4064-1.5935 3.0185-1.5894 3.4181 0.0705 6.9861 0.96822 2.0817 1.5891 3.8866 1.3798 4.0111-2.7802 1.6528-11.821 4.1602-17.171 4.762-3.7405 0.4207-7.2775 1.2518-7.8605 1.8464-1.5927 1.625-2.526 8.4232-1.7062 12.43 0.84168 4.1143 4.34 7.4407 7.0176 6.6728 1.0223-0.2933 2.7034-0.7765 3.7371-1.0734 3.591-1.0316 3.104 2.2436-0.70677 4.7515-5.1757 3.4063-5.3789 7.1262-0.72865 13.34 1.9447 2.5984 4.51 4.8701 5.7007 5.05 2.045 0.3086 2.153 0.8029 1.9388 8.8954l-0.22677 8.567-7.9234 9.2416c-4.3579 5.0833-7.9233 9.7554-7.9233 10.382 0 0.627-0.81069 1.8889-1.8012 2.8034-1.0162 0.9383-1.8982 3.3387-2.0237 5.5083-0.18931 3.2732 0.37166 4.4519 3.7663 7.9207 2.1937 2.2417 4.0029 4.6586 4.021 5.3696 0.0644 2.5267-5.1604 11.371-7.0849 11.994-1.3685 0.4428-1.7766 1.2126-1.3579 2.5586 0.36934 1.1873-0.37842 3.3922-1.9549 5.759-4.8494 7.2806-4.3485 7.632 10.399 7.3131 7.1246-0.1541 13.258 0.031 13.63 0.4104 0.37173 0.3793-0.51477 2.1894-1.9695 4.0231-1.4547 1.8338-4.7784 6.2469-7.3863 9.8075-2.608 3.5605-9.2379 12.429-14.732 19.706-9.1786 12.159-14.624 19.719-17.759 24.656-0.67066 1.056-1.9214 2.6606-2.7787 3.5662-0.85721 0.9056-3.1764 4.1693-5.1549 7.2519-1.9785 3.0827-4.4245 6.5221-5.4344 7.643-1.01 1.1209-3.185 4.1012-4.8331 6.6234-1.6482 2.5222-3.4452 5.117-3.9946 5.7651-2.8535 3.3659-15.778 23.131-18.266 27.933-1.5775 3.0453-4.2969 7.8291-6.0431 10.632-1.7462 2.8024-6.6182 12.164-10.826 20.803-11.54 23.691-11.012 26.016 10.898 47.984l13.722 13.757-0.96284 4.0768c-1.4855 6.2936-1.189 12.143 0.85893 16.985 1.9254 4.5521 12.373 19.07 14.764 20.517 2.0718 1.2532 1.763 2.1515-4.3926 12.744-3.1577 5.4335-10.912 20.197-17.232 32.808l-11.492 22.929-4.1146 0.5613c-4.8818 0.6651-6.002 1.7299-9.593 9.1209-1.4977 3.0827-4.9744 9.9614-7.7259 15.286-7.3897 14.301-6.6151 18.536 3.6406 19.924 4.5271 0.6127 5.951 1.4509 11.482 6.7579l6.3138 6.0591 5.5046-0.5344c3.027-0.2936 7.4768-1.2441 9.8886-2.1123 3.6925-1.329 5.3065-1.3839 10.224-0.3478 5.324 1.1219 6.0683 1.0558 8.4428-0.7554 2.4108-1.8387 6.1364-7.3235 8.2701-12.176 0.49289-1.121 3.1295-5.7072 5.8588-10.191 6.8918-11.322 7.0469-12.084 3.2615-15.946l-3.1284-3.1914 2.1641-5.2083c1.1903-2.8641 2.5671-5.6432 3.0596-6.1756 0.4925-0.5325 0.89556-1.5498 0.89556-2.2616 0-1.1552 8.9068-17.965 14.684-27.71 1.2087-2.0394 2.977-5.1989 3.9302-7.0206 0.95318-1.8216 2.4944-3.3109 3.424-3.3109 1.5017 0 6.2266 3.1972 28.322 19.167 3.2501 2.349 6.4708 4.2708 7.1581 4.2708 0.68714 0 1.4001 0.3604 1.5832 0.8015 0.86065 2.0731 16.844 10.376 31.594 16.412 11.721 4.7961 14.189 4.5857 14.189-1.2062 0-1.8056 0.45812-4.8849 1.0184-6.8429 0.56023-1.9581 1.6757-7.9162 2.4787-13.241 0.80304-5.3246 2.648-15.412 4.1-22.418 1.452-7.0061 3.2056-16.179 3.8966-20.382 0.69097-4.2037 2.4319-14.489 3.8702-22.856 1.4383-8.3671 2.6163-16.278 2.6163-17.579 0-2.3674 1.76-3.1181 3.5454-1.5121 0.52187 0.4695 5.8937 2.8289 11.937 5.2426 6.0433 2.4138 12.786 5.1824 14.983 6.1532 4.3745 1.9323 20.941 7.6565 31.964 11.045 5.5408 1.7032 7.5873 2.9125 9.8549 5.8248l2.8606 3.6751-3.7092 3.8753c-4.2056 4.3938-4.099 3.584-3.0903 23.456 0.73254 14.431 1.3182 19.629 3.6186 32.1 0.62024 3.363 1.4843 9.3235 1.9198 13.247 0.43542 3.9234 1.3018 10.114 1.9256 13.758 0.62368 3.6431 1.8464 11.21 2.7172 16.814 0.87085 5.6048 2.2207 13.939 2.9996 18.519s1.8257 11.459 2.3251 15.286 1.8009 12.232 2.8928 18.678c1.092 6.4456 2.3275 19.056 2.745 28.024 0.87347 18.764 0.86575 15.947 0.10099 35.667-0.70841 18.266 1.0337 38.628 3.6552 42.71 3.0965 4.8213 10.532 11.469 16.387 14.65 5.37 2.9175 16.556 5.6966 26.717 6.6384 8.103 0.7511 9.707 0.6829 19.735-0.8523 17.133-2.6227 24.511-5.5856 32.457-13.029 7.0936-6.6446 8.1932-10.088 8.219-25.753 0.0247-15.066-0.80047-18.488-7.9658-33.022-4.839-9.8148-7.6295-17.858-8.4985-24.499-0.32723-2.501-0.99969-6.1514-1.4954-8.1132-1.0485-4.1489-3.6259-22.123-4.4892-31.306-0.52293-5.5634-0.34522-6.557 1.4515-8.1266 2.3494-2.0523 2.1279-4.8934-1.1735-15.088-1.7056-5.2665-1.8913-7.7395-1.3432-17.834 1.168-21.512 1.2528-21.896 5.2194-23.359 7.4666-2.7545 9.195-11.554 4.7174-24.028-3.0304-8.4425-3.0329-8.4806-0.92621-20.89 2.1721-12.794 2.2714-13.52 3.0889-22.442 0.66512-7.2608 0.56675-7.8302-1.8657-10.779-2.4815-3.0088-13.224-9.0384-20.89-11.726-3.5336-1.2385-3.6994-1.4947-3.2074-4.9307 0.28537-1.9932 1.1713-9.585 1.9695-16.871 2.598-23.717 8.0465-48.018 15.537-69.296 0.59192-1.6815 1.5102-4.6634 2.0412-6.625 0.53094-1.9617 1.358-4.4828 1.8378-5.6038 0.47977-1.1209 1.5468-4.1027 2.3704-6.6249 3.9537-12.106 14.075-40.68 17.146-48.405 0.44568-1.1209 2.7611-6.9783 5.1447-13.015 2.3836-6.0374 6.5332-15.897 9.2213-21.91 2.6882-6.0132 6.0916-13.915 7.5634-17.558 1.4718-3.6432 4.9442-11.438 7.7156-17.324 2.7714-5.8851 6.7576-15.056 8.8585-20.381 2.1008-5.3245 4.6809-11.515 5.7329-13.757 1.0521-2.242 4.3143-9.6802 7.2503-16.53 2.936-6.8492 5.5016-12.287 5.7008-12.084 1.2023 1.2264 7.7709 44.169 10.845 70.904 2.118 18.416 3.0642 81.659 1.472 98.341-0.58847 6.1654-2.2748 23.132-3.7473 37.704-2.33 23.058-2.6879 31.124-2.7553 62.164-0.0776 35.677 0.16693 39.514 4.1146 64.71 1.5463 9.8687 2.6436 13.248 4.3005 13.248 0.87279 0 11.17-8.8469 22.484-19.316 2.7528-2.547 6.5319-5.7774 8.3975-7.1787 1.8656-1.4012 6.316-4.9168 9.8899-7.8117 7.2599-5.8803 17.677-11.73 29.649-16.649 6.935-2.8494 41.349-14.564 51.443-17.51 1.9229-0.5615 3.9234-1.4352 4.4453-1.9437 0.52195-0.5084 1.6947-0.9255 2.606-0.9255 0.9113 0 6.5034-1.8332 12.427-4.0752 11.816-4.472 13.485-4.7944 13.485-2.6019 0 0.8111 3.3574 3.8661 7.461 6.7891 6.688 4.7638 7.2842 5.4528 5.7447 6.6458-0.94464 0.732-2.2403 1.3454-2.8782 1.3629-1.9146 0.053-6.3314 6.1269-6.3314 8.7058 0 1.3218 0.47587 3.6811 1.0579 5.2427 1.3679 3.6704 18.447 20.564 22.633 22.389 5.071 2.2094 11.268 1.772 15.39-1.0854l3.585-2.4839 0.65845 9.8732c0.36192 5.4303 1.5208 14.917 2.5767 21.082 1.0558 6.1654 2.3464 14.47 2.8665 18.454 0.52 3.9839 1.7245 8.4578 2.6777 9.9418l1.734 2.699 4.1263-4.7411c7.4924-8.6078 7.5019-8.776 1.1121-19.899l-3.4781-6.0547v-17.779c0-9.7785 0.24296-17.779 0.53994-17.779 2.0295 0 12.797 9.2512 17.985 15.452 4.0401 4.8289 5.7077 9.6143 6.687 19.197 0.18018 1.7634 0.95244 2.6483 2.508 2.8736 1.2361 0.1787 2.2475 0.7226 2.2475 1.2077 0 0.4849 0.50809 2.172 1.1296 3.7498 0.62152 1.5779 1.2685 3.7858 1.4369 4.9068 0.16841 1.1208 1.0309 5.7073 1.9183 10.191 4.2512 21.482 4.2467 45.089-0.015 58.596-2.179 6.9076-3.0721 18.139-1.5642 19.678 0.59897 0.6109 1.0886 1.8435 1.0886 2.7377 0 2.189 7.3806 14.627 13.25 22.33 6.6068 8.6719 12.732 11.477 25.315 11.59 5.1716 0.047 10.559-0.4816 12.486-1.224 1.8642-0.7184 4.2889-1.6306 5.3876-2.0272 8.4121-3.0363 20.457-10.38 25.418-15.496 7.2163-7.4426 7.6648-8.0526 10.984-14.94 3.5418-7.3482 5.7122-15.18 6.5583-23.666 0.90446-9.0744-1.0357-28.918-4.0665-41.575-1.8802-7.8522-2.4404-12.599-2.224-18.854l0.28968-8.358 3.1723-0.315c1.7446-0.1725 3.6106-0.8603 4.1467-1.5285 1.2798-1.5948 3.1665-17.597 3.1665-26.907 0-7.2607-1.0428-11.122-6.0431-22.32-1.0702-2.3964-1.9462-4.9899-1.9462-5.7637 0-2.3549 7.1669-8.2284 20.238-16.586l5.7534-3.6797 6.2334 2.0869c8.9055 2.9814 22.989 5.977 31.705 6.7429 8.0085 0.7033 12.836 2.7505 23.093 9.791 6.4401 4.4209 11.662 9.4973 18.921 18.395 7.7012 9.4405 11.076 15.176 22.594 38.381 3.0901 6.2253 5.5976 9.9647 7.2648 10.837 1.4002 0.7328 8.3887 3.274 15.531 5.6471 7.1421 2.3731 16.651 6.0939 21.129 8.2686 4.4784 2.1748 8.4038 3.9542 8.7238 3.9542 0.3201 0 3.3461 1.3658 6.7235 3.0349 3.3773 1.6691 6.5303 2.7893 7.0075 2.4885 1.3507-0.8516 1.0423-3.7031-1.2189-11.275-5.4837-18.363-19.732-39.926-37.012-56.016-8.7742-8.1702-29.055-23.776-36.317-27.946-9.4246-5.4118-29.688-15.321-38.458-18.806-9.3472-3.7144-28.618-13.121-30.361-14.82-0.512-0.4994 0.5531-2.0792 2.4978-3.7066 5.3894-4.5099 22.583-22.869 25.606-27.342 1.5157-2.242 3.3914-4.7557 4.1672-5.5874 0.7759-0.8316 2.5182-3.9804 3.8719-6.9967 2.089-4.6562 2.3867-6.5419 1.9694-12.49-0.4863-6.9335-1.535-9.6736-8.8556-23.15-2.3786-4.3787-2.3807-4.4137-0.395-5.883 1.0989-0.8131 4.7567-3.5322 8.1283-6.0413 3.3718-2.5092 6.5038-4.5618 6.9606-4.5618 0.4567 0 3.1543 2.3403 5.9933 5.2008 5.8433 5.8872 7.857 6.0086 10.5 0.6329 0.8888-1.8073 4.0899-8.1006 7.1129-13.986 9.81-19.097 16.916-45.526 17.126-63.692 0.1079-9.3566-0.1282-10.711-2.8782-16.559-1.6473-3.503-3.2928-6.3696-3.6581-6.3696-0.365 0-4.3921-3.7228-8.9492-8.2729-13.051-13.032-58.005-50.929-77.806-65.592-3.0149-2.2329-6.6056-5.1331-7.979-6.4443-1.3735-1.3116-4.5206-3.8188-6.9928-5.5726-2.4724-1.7538-5.0759-3.7706-5.7857-4.4813-1.4009-1.4028-1.7432-1.2605 8.2468-3.4363 11.281-2.4572 34.384-13.916 48.814-24.211 15.825-11.291 29.873-27.647 36.93-43.001 6.8615-14.927 9.6799-39.552 6.5903-57.578-2.5616-14.945-6.9847-26.688-14.296-37.96-2.4911-3.8408-3.0482-5.3501-1.9782-5.3501 3.9767 0 10.765-5.3505 12.418-9.7881 1.4669-3.936 1.1433-11.418-0.6613-15.298-2.6942-5.7922-10.561-12.178-18.037-14.643-6.545-2.1571-24.099-4.3761-35.782-4.5246l-5.9934-0.077 0.3512 14.777c0.575 24.205 3.3108 34.66 11.163 42.671 9.3934 9.5835 24.015 7.8855 28.556-3.3155l1.8116-4.4707 3.3757 5.2321c4.7995 7.4392 8.8814 16.942 10.221 23.795 0.633 3.2417 1.5393 7.7283 2.0119 9.9703 2.4255 11.505 0.022 34.932-4.9135 47.897-7.684 20.186-24.36 37.912-48.922 52.004-13.434 7.7075-23.892 11.422-40.114 14.248-14.011 2.4415-14.252 2.3881-25.472-5.7173-5.494-3.9688-12.687-8.8316-15.983-10.805-3.2964-1.973-6.2176-3.916-6.4924-4.3186-0.27458-0.4023-7.6915-5.6282-16.482-11.612-22.367-15.226-21.057-13.896-16.949-17.194 8.0019-6.4213 13.289-29.545 8.4574-36.988-1.0916-1.6816-1.9899-3.8658-1.9899-4.8545-0.0109-3.0915-4.3481-8.7443-7.998-10.426-3.4122-1.5717-3.49-1.7377-3.2192-6.922 0.34364-6.5784-2.6928-12.568-7.7946-15.374l-3.4704-1.9092v-15.414c0-15.036-0.0802-15.619-3.2572-23.659-2.7897-7.0606-6.7133-13.332-13.225-21.139-6.9538-8.3379-14.889-14.483-29.709-23.007l-8.977-5.1621-0.53843-6.8921c-0.34447-4.4159-1.4356-8.7221-3.0392-11.987-1.3766-2.8025-2.2067-5.3787-1.8452-5.7262 0.36162-0.3478 3.8739-1.6099 7.8049-2.8034 16.154-4.9055 34.474-0.774 49.189 11.093 5.8322 4.7032 7.5101 4.5834 4.7058-0.3358-13.508-23.694-18.906-45.401-13.346-53.677 4.3074-6.4116 17.336-13.019 35.261-17.885 19.456-5.2813 48.347-5.4454 77.07-0.4359 6.3094 1.1006 11.84 2.2342 12.291 2.5183 0.4504 0.284 3.8912 1.1452 7.6469 1.9138 3.7553 0.7683 9.9744 2.6328 13.82 4.1439 3.8457 1.5111 8.3348 3.1719 9.9749 3.6901 3.1582 0.9978 8.847 3.4564 11.738 5.0725 0.9541 0.5334 2.748 0.9703 3.986 0.9703 2.1766 0 2.1552-0.091-0.6367-2.7318-2.826-2.6734-16.642-10.51-29.557-16.765-11.919-5.7732-37.353-15.1-51.443-18.866-16.47-4.4013-46.784-10.81-57.436-12.142-3.0218-0.3778-6.393-0.8725-7.4918-1.0987-9.6969-1.9948-27.287-2.8152-57.438-2.6795-43.741 0.1969-49.819 1.1117-41.643 6.2667 10.785 6.8001 16.672 18.651 16.672 33.562 0 6.7431-2.0256 16.657-4.5463 22.251-0.79577 1.7662-1.4471 3.4845-1.4471 3.8184 0 1.2019-6.3897 14.449-8.7091 18.057-2.1246 3.3044-2.9484 3.7569-7.9556 4.3573-3.0725 0.3685-6.9863 1.4512-8.696 2.4064-4.6373 2.5912-12.598 10.614-12.598 12.696 0 1.002-0.39984 1.8211-0.88964 1.8211-0.48981 0-1.1727 1.147-1.5174 2.5482s-0.95632 2.5431-1.3579 2.5332c-0.92763-0.017-7.2225-12.808-7.2225-14.675 0-2.1354 2.0251-2.4845 7.6278-1.3137 7.0364 1.4705 9.8575 0.054 16.438-8.2565 5.207-6.5753 5.4023-7.0481 5.433-13.074 0.0173-3.4383 0.57012-6.9125 1.2277-7.7206 3.2438-3.9914 4.3249-8.9487 3.2542-14.972-0.8581-4.8275-0.7745-6.4544 0.45805-8.8654 1.675-3.2776 2.0067-12.448 0.62765-17.354-0.5669-2.0168-0.494-4.7031 0.19906-7.3519 0.92111-3.5203 0.80101-4.7776-0.76821-8.0251-1.211-2.5064-2.0804-7.2645-2.489-13.628-0.57095-8.8929-0.90545-10.136-3.702-13.757-2.2146-2.8676-3.2271-5.4603-3.6215-9.2716-0.36058-3.484-1.7686-7.4184-4.1248-11.52-1.9679-3.4254-3.5791-7.1112-3.5791-8.1908s-0.72482-3.8115-1.611-6.0711c-1.9789-5.0459-1.8448-5.2334 8.3068-11.644 4.2838-2.7049 9.0072-5.7795 10.496-6.8323 1.4885-1.0528 2.9228-1.9138 3.1883-1.9138s5.2634-3.4149 11.106-7.5878c7.7988-5.5698 11.996-7.8783 15.79-8.6834 4.1124-0.8726 7.3325-2.8075 15.778-9.482 18.307-14.468 31.741-25.247 33.065-26.526 0.70114-0.678 4.7364-3.9131 8.9667-7.1892 4.2304-3.2762 7.8259-6.2862 7.9907-6.6892 0.16481-0.4029 3.1378-2.6871 6.6065-5.0754 9.0489-6.2305 10.442-8.9006 9.6778-18.554-0.56962-7.1944-0.43896-7.9631 1.8144-10.7 4.4349-5.3865 24.557-34.933 26.454-38.843 2.2828-4.7062 5.1189-14.003 6.5919-21.611l1.0988-5.6757 5.7901-0.5254c3.5426-0.3215 6.1659-1.1136 6.7601-2.0392 0.53405-0.8319 1.8982-3.0031 3.0319-4.8245 1.3284-2.135 2.8311-3.2888 4.2272-3.2468 3.8036 0.1149 13.57 2.4957 14.466 3.5258 1.063 1.2225 2.3859 4.9571 5.0424 14.243 6.3199 22.093 7.5263 25.632 9.7568 28.615 2.8654 3.8327 5.2863 4.9555 15.171 7.0399 8.3407 1.7589 15.805 1.9696 21.046 0.5927 1.9866-0.5221 6.2861-1.4929 9.5549-2.1572 3.2689-0.6642 6.6404-1.5849 7.4917-2.045 2.8118-1.5205 12.901-6.0591 13.469-6.0591 0.5933 0 12.867-8.8039 16.6-11.908 5.5099-4.5806 11.578-11.694 16.779-19.667 5.4083-8.2915 5.6421-8.9187 5.6421-15.286 0-4.3259-0.6082-7.8478-1.7471-10.108-3.9963-7.9298-0.6301-15.431 13.365-29.782 5.6975-5.8425 12.124-11.986 14.281-13.653 5.3271-4.1164 13.238-12.764 17.284-18.893 7.0823-10.729 10.096-34.261 6.3855-49.868-2.2746-9.5688-2.6447-10.036-14.106-17.755-5.6343-3.7947-38.679-20.97-40.346-20.97-1.4758 0-14.348-6.6568-16.693-8.6327-1.4284-1.2037-5.108-3.4408-8.1764-4.9724-3.0685-1.5316-6.6196-3.9044-7.8913-5.2725-1.2715-1.368-2.6032-2.4947-2.9601-2.5049-0.3568-0.01-2.9869-1.6224-5.8441-3.5841-2.8573-1.9617-5.6439-3.5662-6.1924-3.5662-0.5486 0-2.4141-0.65099-4.1454-1.4465-1.7311-0.7955-6.743-1.6631-11.138-1.9272-7.6468-0.45945-13.461-2.2448-13.478-4.1394-0.01-0.48899-0.5701-0.41453-1.2569 0.16568-0.8076 0.6824-2.8356 0.74165-5.7432 0.16869-2.4722-0.48718-6.5178-0.9119-8.99-0.94492-2.9329-0.0391-4.0215-0.36667-3.1314-0.94193 0.8152-0.52688-2.5-0.82886-8.2394-0.74937-5.2823 0.0731-9.6043 0.38386-9.6047 0.68965-4e-4 0.30581-1.6839 0.67081-3.7399 0.81208-2.0561 0.14125-4.9679 0.88319-6.4705 1.648-1.5028 0.76483-3.7528 1.1619-5.0013 0.88223-1.8196-0.40761-1.9738-0.29162-0.77254 0.58367 1.31 0.95466 1.2938 1.094-0.13468 1.1076-2.0257 0.0194-7.0054 2.5815-6.3387 3.2617 0.26869 0.27413-0.63615 1.0219-2.012 1.6614-1.8869 0.87707-2.5021 0.87244-2.5021-0.0194 0-0.65027-1.4722 0.50558-3.2718 2.569-1.7995 2.0635-3.8224 3.7513-4.4952 3.7513-0.67272 0-1.2232 0.36049-1.2232 0.80013 0 0.43965-1.4614 1.675-3.247 2.7452-1.7854 1.0702-3.8619 2.5678-4.6149 3.3274-0.75288 0.75958-2.6464 1.6416-4.2068 1.96-1.5606 0.3184-2.7424 0.86788-2.6264 1.2226 0.11587 0.35467-0.23787 0.64487-0.78725 0.64487-0.54937 0-0.88651-0.34393-0.7491-0.76429 0.13732-0.42038-0.19152-0.76431-0.73022-0.76431-0.53852 0-0.82265 1.3758-0.63058 3.0572 0.32692 2.865-0.36917 3.611-2.8856 3.093-0.54937-0.11309-0.66471 0.13534-0.25749 0.55083 1.107 1.1294-1.2062 3.4901-3.4196 3.4901-1.0639 0-1.6556 0.45952-1.3154 1.0211 0.34006 0.56153-0.41954 1.44-1.6887 1.9525-1.2692 0.51253-3.61 2.5608-5.2017 4.5515-1.5918 1.9907-3.2886 3.3701-3.7708 3.0662-0.48204-0.30399-0.75376-4e-3 -0.60284 0.66577 0.42154 1.8695-5.4186 4.9352-6.845 3.5931-0.63834-0.60077-0.95775-1.4366-0.70823-1.857 0.24946-0.42036-0.22068-0.76429-1.0448-0.76429-2.4382 0-2.9957 2.1269-0.71696 2.7347 2.2438 0.59863 2.9747 4.3933 0.84866 4.4052-0.68676 4e-3 -2.3322 1.6302-3.6566 3.614-1.3243 1.9838-3.7957 4.602-5.493 5.8173-3.9901 2.857-9.5798 8.6585-9.5798 9.9433 0 0.5503-0.67425 1.0002-1.4983 1.0002s-1.4984 0.4857-1.4984 1.0793c0 0.5935-0.51873 0.7522-1.153 0.3523-0.63911-0.4028-0.88373-0.2849-0.55019 0.2657 0.33112 0.5466-4.4328 6.3131-10.585 12.814-6.1522 6.5008-15.905 16.957-21.673 23.235-27.473 29.899-32.799 35.433-34.743 36.092-0.94471 0.3205-3.0013 2.4365-4.5712 4.7038-1.5698 2.2673-3.0732 3.9002-3.3406 3.6275-0.26738-0.2729-1.8394 1.0749-3.4927 2.996-1.6534 1.9209-3.6342 3.493-4.4014 3.493s-1.3944 0.5641-1.3944 1.254c0 1.5557-9.0296 10.255-9.8139 9.4551-0.31345-0.3198-0.66242-3.4783-0.77555-7.019-0.12623-3.952-0.96949-8.0537-2.186-10.622-1.3627-2.8773-1.6283-4.3334-0.84725-4.6605 0.62481-0.2616 0.34986-0.5109-0.61163-0.5553-0.96141-0.045-1.7486-0.4297-1.7486-0.8569s-2.9212-3.9241-6.4923-7.7698c-3.571-3.8457-6.4923-7.3255-6.4923-7.7326 0-1.4895 6.1234-9.313 7.7814-9.9419 2.0354-0.7719 6.8758-4.1867 9.2988-6.5607 0.97872-0.9588 4.2737-1.9934 7.5605-2.3735 3.2042-0.3704 7.1736-1.0787 8.8218-1.5749 1.6482-0.4961 4.2878-1.1274 5.8661-1.4031 1.5781-0.2758 3.7159-1.2833 4.7496-2.2377 2.1579-1.9923 4.2248-8.8351 3.443-11.397-0.29098-0.9533-0.98727-5.0553-1.5466-9.1164-0.55926-4.0611-1.9176-9.0999-3.0186-11.196-1.1011-2.0959-2.0017-4.3904-2.0017-5.0993 0-0.70892-0.39277-1.2883-0.87352-1.2883-0.75749 0-2.2842-4.5994-2.5372-7.643-0.0464-0.56044-0.87196-1.6187-1.8334-2.3511-0.96141-0.73239-1.7486-1.8371-1.7486-2.4541 0-1.0254-6.7696-10.664-9.7392-13.866-0.68677-0.74064-1.2481-1.7424-1.2481-2.2257 0-1.5199-9.6838-13.285-21.289-25.865-6.1463-6.6628-11.4-12.396-11.675-12.739-1.1034-1.3789-18.799-17.293-23.415-21.057-2.7141-2.2136-5.9712-4.9918-7.2386-6.1756-1.2674-1.1837-4.2158-3.4671-6.5524-5.0739-2.3365-1.6068-6.0463-4.348-8.2438-6.0905-2.1976-1.7426-7.5917-5.4011-11.987-8.1296-4.3952-2.7285-9.8818-6.4047-12.192-8.1699-4.0826-3.1202-4.138-3.2409-1.9973-4.3171 1.2111-0.60889 3.7684-1.4228 5.6832-1.8092 1.9148-0.38639 4.5056-1.3872 5.7578-2.2242 0.6992-0.4674 1.3875-0.4816 2.0837-0.5777 3.2373 1.4536 6.5185 2.8438 9.8329 4.1663 10.73 4.1867 21.703 7.6265 32.555 10.206l30.201 32.557c8e-3 6e-3 8e-3 7e-3 0.0104 0.0119 1.9313 1.8083 3.4912 3.5342 3.4664 3.8364-0.0247 0.30222 0.75465 1.6713 1.7325 3.0423 0.97774 1.371 2.5649 2.5081 3.5264 2.5258 2.0348 0.0373 1.9965 0.51785 0.69066-8.6312-0.55994-3.9234-1.1721-10.937-1.3594-15.588-0.0187-0.46328-0.0786-0.46248-0.1024-0.91209l-0.27653-9.0462 0.87788-3.0886 0.89699-3.1572 13.247-0.60607c7.9785-0.36544 13.378-0.22411 13.579 0.35529 0.18317 0.52905 1.8838 0.96134 3.7781 0.96134 2.1402 0 3.6621 0.5788 4.0195 1.5286 0.31621 0.84073 1.0885 1.5315 1.7164 1.5346 0.62797 4e-3 2.2655 0.59477 3.639 1.3136 1.3734 0.71887 4.7447 2.162 7.4917 3.2065 2.7469 1.0444 5.8911 2.5244 6.987 3.2886l1.63 0.76579c0.0337 2e-3 0.0367-0.0469 0.0689-0.0478 1.3687 0.69901 3.0554 1.2121 4.9077 1.4928 0.7019 0.69288 1.2026 1.3489 3.462 2.4989 0.16549 0.0842 0.3181 0.16389 0.48876 0.25079l13.179 6.192c0.27503 0.0679 0.89714 0.39558 1.0579 0.39558 0.43295 0 1.3876 0.68941 2.2036 1.136l36.938 17.355c0.54195 0.19929 1.311 0.25006 1.6066 0.48964 0.60053 0.48677 1.4982 0.95531 2.2695 1.3301l0.82087 0.38662c2.9986 1.0812 3.7927 0.56466 3.7927-2.8646 0-2.6491-0.42911-3.5662-1.6652-3.5662-0.91535 0-2.3753-0.66611-3.2454-1.4808-5.1407-4.8129-6.1405-5.6531-6.7323-5.6531-0.3602 0-2.204-1.2049-4.0971-2.678-2.5585-1.9909-3.1035-2.8919-2.1217-3.511 0.72662-0.45812 0.99047-1.1719 0.58524-1.5853-0.40537-0.41349-1.2336-0.24476-1.8407 0.37468-0.60728 0.61944-1.7377 0.87894-2.5109 0.57621-1.1354-0.44446-1.0635-0.82501 0.37166-1.9734 1.6203-1.2966 1.5133-1.3976-1.2115-1.1524-2.2841 0.20551-3.2238-0.27217-3.983-2.0242-1.0122-2.3362-2.5167-3.1062-2.5167-1.2883 0 1.0806-3.9007-1.1466-8.3829-4.7858-1.6883-1.3707-2.4813-2.7335-2.0266-3.4841 0.52466-0.86602 0.21307-1.0244-1.0461-0.53143-1.1721 0.4589-2.934-0.18638-5.0906-1.8645-1.8143-1.4118-3.6285-2.5676-4.0312-2.5676-0.40253 0-1.4447-0.69761-2.3149-1.5495-3.1255-3.0598-11.875-9.6597-12.806-9.6597-0.52262 0-2.2564-1.1461-3.8527-2.5467-1.5962-1.4005-3.1324-2.5475-3.4123-2.5482-0.27989-7e-4 -1.0967-0.96151-1.8158-2.1362-1.0906-1.7816-1.0688-2.4153 0.1317-3.8215 2.9084-3.407 4.4125-8.37 4.498-13.814 0.0889-0.17241 0.11103-0.2355-0.0233-0.22093 0.0472-5.38-1.2581-11.208-3.9888-16.464-5.5771-10.734-16.162-23.401-23.015-27.543-1.5108-0.91321-2.7465-2.2997-2.7465-3.0796 0-0.82583-0.61051-1.1782-1.4618-0.84489-0.81818 0.32024-2.2648-0.41737-3.2864-1.6749-2.1844-2.689-3.3813-3.4698-13.731-8.9596-4.3952-2.3313-9.115-5.0338-10.488-6.0054-1.3734-0.97162-6.5433-3.4689-11.488-5.5486-4.9446-2.0797-10.339-4.3682-11.987-5.0859-1.6482-0.71763-6.9278-2.4052-11.732-3.7513-5.6525-1.5837-8.7399-2.9492-8.7399-3.8693 0-0.78195-6.4167-8.1198-14.252-16.306-22.795-23.815-35.698-38.953-35.698-41.88 0-0.56533-0.37331-1.0285-0.82964-1.0285-0.45624 0-2.3005-2.0898-4.0985-4.644-1.798-2.5542-4.0569-5.4194-5.019-6.3682-1.8733-1.8473-14.166-18.66-20.051-27.424-1.9637-2.9241-4.7862-6.8225-6.2729-8.6625-4.792-5.9308-7.1989-9.3921-8.7047-12.517-1.505-3.1228-3.7925-5.5145-5.3291-5.5725zm-113.04 66.975c-1.9832 1.1322-0.90036 2.3256 7.5166 8.2834 11.245 7.9595 24.824 17.618 30.706 21.841 2.8786 2.0666 5.5399 3.7573 5.9144 3.7573 0.37443 0 1.5053 0.76172 2.5139 1.6928 1.0085 0.93108 2.6829 2.1917 3.721 2.8019 1.8338 1.078 12.182 8.3335 30.542 21.414 9.0979 6.4818 11.889 7.2374 13.042 3.5334 0.32986-1.0605 1.2062-1.9272 1.9475-1.9272 0.74132 0 1.4966-0.34394 1.6798-0.7643 0.54765-1.2571 8.3317-6.3696 9.6983-6.3696 0.69644 0 1.9245-0.67209 2.729-1.4928 1.2843-1.3102 1.2321-1.727-0.42583-3.4184-1.0385-1.0595-5.2124-3.2038-9.2754-4.7664-4.063-1.5626-11.208-4.6517-15.878-6.8638-4.6698-2.2121-10.288-4.8463-12.486-5.8546-2.1976-1.0084-6.9174-3.2133-10.488-4.8993-9.4884-4.4796-18.478-8.6261-26.97-12.439-4.1205-1.8502-9.2903-4.2508-11.488-5.3352-12.906-6.3685-21.752-9.9045-22.999-9.1925zm327.36 31.966c-1.1133-0.70191-23.003 5.9514-29.663 9.0163-4.5834 2.1094-35.496 12.26-37.337 12.26-1.1005 0-2.2782 0.45908-2.6177 1.0196-0.3396 0.56049-1.4899 1.0196-2.5562 1.0196-1.0664 0-1.9388 0.40075-1.9388 0.89119 0 0.49042-1.4583 1.189-3.2396 1.5525-4.5264 0.92355-8.7472 2.9515-8.7472 4.2022 0 1.733 3.0356 3.7492 15.046 9.9941 6.2836 3.267 14.12 7.4634 17.417 9.3253 3.2964 1.862 6.4849 3.4302 7.085 3.4856 1.2466 0.11524 19.386-18.111 19.386-19.479 0-0.49392 1.0114-1.908 2.2475-3.1423 2.5893-2.5855 9.9119-10.907 14.122-16.047 1.5859-1.9367 4.9565-5.7167 7.4903-8.3998 3.3955-3.5954 4.2648-5.0931 3.3054-5.6979zm-170.4 26.422c12.158-0.2041 29.661 1.5784 39.844 4.4455 1.0988 0.30939 4.0216 1.0825 6.4938 1.7182 8.0464 2.0688 32.439 10.246 33.413 11.2 0.52194 0.51148 1.5252 0.92999 2.2299 0.92999 3.426 0 26.913 12.87 31.127 17.056 0.73884 0.73393 2.6501 2.0226 4.2462 2.8646 1.5961 0.84206 2.9016 1.9473 2.9016 2.4556s0.81959 1.1892 1.8217 1.5137c2.5466 0.8246 15.848 14.392 18.993 19.372 3.5418 5.6084 5.0384 10.166 5.632 17.156 0.42447 4.9992 0.13926 6.4746-1.8715 9.6806-4.4854 7.1513-13.81 13.59-21.578 14.898-1.9229 0.32383-5.5184 1.0493-7.9907 1.6137-8.3332 1.9022-16.599 2.3272-19.108 0.98224-1.1522-0.28922-1.4224-0.2152-1.5086-0.0762-0.88574-1.7129-1.8538-3.1331-2.7801-4.0782-0.39017-0.53028-0.33016-0.73391-0.9716-1.3883-1.1179-1.1405-1.4322-1.1771-1.8174-1.3271l-30.753-36.212c0-1.3223-4.3768-5.7875-5.6729-5.7875-0.72497 0-1.3185 0.80304-1.311 1.7839 0.01 2.3823 1.6062 12.026 2.4084 15.147l1.8203 21.141c0.0815 2.7316 0.17801 4.9903 0.40383 4.6888l0.26049 3.0244c-3.3694-0.74379-6.7574-1.5764-10.15-2.4944 0.042-0.0666 0.72416-0.0561 0.52383-0.13883-0.23314-0.0962-0.6831 0.0199-1.033-0.0135-1.7101-0.49721-3.4188-1.0154-5.1243-1.554l0.39513-8e-3 -1.3491-0.32394c-2.1581-0.71495-4.3078-1.4618-6.4455-2.2392-0.76228-0.34984-1.7492-0.59384-2.2432-0.92403-0.4143-0.27694-0.57192-0.0925-0.96861-0.2672-1.5181-0.59287-3.0276-1.2006-4.5273-1.8227-0.2273-0.0853-0.22828-0.33288-0.50772-0.33288-0.0788 0-0.015 0.0865-0.0864 0.094-2.0106-0.81468-4.004-1.655-5.9773-2.5198-0.3112-0.34136-0.5033-0.72538-1.1193-0.9061-0.76049-0.22307-1.9452-0.62391-2.9631-0.97478-4.0209-1.8685-7.9356-3.8332-11.719-5.8815v-2e-3c-3.8484-2.0737-7.5541-4.2295-11.093-6.4532-1.4813-1.2288-3.6778-2.8037-7.5049-5.3008-4.0824-2.6637-10.329-7.7583-13.882-11.321-1.0076-1.0105-1.1834-0.98294-2.0954-1.8376-3.2688-3.281-6.0886-6.5734-8.4253-9.8374-1.0729-2.0937-2.0873-3.6963-3.3288-5.2396-1.1049-1.9645-2.0198-3.9041-2.7406-5.8098-0.37218-1.368-0.61912-5.1339-0.54726-8.3774 0.27981-12.629 10.006-22.019 26.094-25.189 3.571-0.70374 8.3767-1.7064 10.68-2.2287 2.3944-0.54294 5.852-0.83191 9.9031-0.90014zm-200.65 299.13c0.51168 0.237 0.39376 2.08-0.5487 5.4381-0.56375 2.0088-1.5597 5.7149-2.2139 8.2372-0.65418 2.5222-2.2639 6.5358-3.5761 8.9178-1.3122 2.3821-3.5758 6.5093-5.0306 9.1715-3.1204 5.7106-7.9066 11.57-8.7486 10.711-0.3265-0.333-0.5926-1.451-0.5926-2.4839 0-1.033-0.87369-2.6409-1.9417-3.5738-1.9194-1.6767-1.9171-1.7326 0.19756-4.8306 1.1766-1.7239 4.0731-5.4205 6.4367-8.2132 2.3636-2.7928 4.2975-5.4621 4.2975-5.9322 0-0.47 0.56135-1.4577 1.2481-2.1959 2.6691-2.8688 4.3565-5.4442 7.2415-11.05 1.5772-3.0642 2.7191-4.4331 3.2308-4.1961zm-187.44 47.301c5.6693 0 6.3005 1.2035 1.6578 3.1587-1.7855 0.7519-6.0602 3.329-9.4993 5.7278-3.439 2.3988-6.3603 4.3255-6.4923 4.2812-3.6672-1.2291-2.5822-3.4809 4.3839-9.0984 4.3324-3.4938 5.7377-4.0693 9.9499-4.0693zm208.48 23.053c1.0682-0.6734 3.5193 6.1552 2.6967 7.5131-0.34155 0.5638-2.1764 1.0256-4.078 1.0256h-3.4576l2.0031-4.0066c1.1021-2.2039 2.3782-4.2436 2.8358-4.5321zm-24.298 32.95c0.72244-0.3047 1.3177-0.2855 1.6227 0.2179 0.36222 0.5979 0.72498 5.5042 0.80476 10.903 0.0799 5.3988 0.61133 16.236 1.1808 24.083 1.028 14.164 0.67875 20.228-1.3023 22.674-1.2386 1.5292-2.7845 1.6713-2.7845 0.2553 0-0.5604 0.45003-1.0196 0.9994-1.0196 0.54936 0 0.99789-1.5489 0.99789-3.4422 0-2.4296-0.66129-3.9-2.2475-4.9979-1.8093-1.2524-2.0031-1.8124-0.9979-2.8751 2.26-2.3893 1.2609-9.0655-1.3564-9.0655-1.832 0-1.7694-1.4682 0.13028-3.0766 1.9006-1.6092 1.0408-4.9577-1.8774-7.3131-1.7137-1.383-1.892-1.9836-0.89256-3.0064 2.2657-2.3189 1.2591-9.0239-1.355-9.0239-1.8671 0-1.7815-2.9672 0.10684-3.7065 0.84177-0.3296 1.4983-1.8469 1.4983-3.4617 0-2.4035 3.3051-6.2305 5.4725-7.1444zm-107.85 88.13c4.7825 0.9153 10.497 6.4632 11.09 10.766 0.27037 1.9617 1.1428 6.2394 1.9374 9.5074 2.0553 8.4538 1.9177 9.0412-2.8036 12.042-5.697 3.6213-11.025 4.3781-17.228 2.4467-6.0288-1.8771-5.4944-1.8508-5.4944-0.2763 0 0.716 1.2814 2.7336 2.8474 4.4829 2.1271 2.3758 4.3311 3.4934 8.7135 4.4216 5.5249 1.1701 7.1622 1.0491 15.409-1.1449 1.0936-0.2911 1.4094 0.2901 1.1677 2.1496-0.4743 3.6477-2.5667 6.589-6.4075 9.0103-4.4903 2.8312-10.567 3.6216-13.754 1.7898-7.5837-4.3588-12.242-17.926-14.553-42.392-0.41183-4.3588-0.2306-4.7491 3.6625-7.8834 4.7638-3.8351 10.879-5.788 15.414-4.9202zm400.04 72.914 3.5001 3.9514c2.7653 3.1227 3.5001 4.8045 3.5001 8.0087 0 5.6763 1.7795 10.6 4.7672 13.19 2.0492 1.7765 2.6347 3.3665 3.001 8.152 0.31795 4.1546 1.172 6.9226 2.8358 9.1894 2.5407 3.4615 3.086 8.4911 1.4076 12.995-0.65972 1.7703-0.61402 3.5196 0.14047 5.4173 1.0927 2.7487 1.8278 26.748 0.81944 26.749-0.28243 3e-4 -1.3415 1.95-2.3544 4.3321-1.3419 3.156-1.6862 5.6838-1.2657 9.3179 0.51304 4.4339 0.25442 5.4032-2.3265 8.7282-1.5969 2.0568-3.4243 4.9076-4.062 6.3353-0.63762 1.4277-2.705 3.3476-4.5931 4.2664-1.8881 0.9184-3.5291 1.6536-3.6478 1.6345-0.11875-0.019-2.0136-0.9203-4.2112-2.0032-2.1976-1.0831-5.4816-1.9843-7.2971-2.0034-3.0533-0.031-3.49-0.4761-5.8047-5.8949-1.3767-3.2228-2.9228-6.6507-3.4356-7.6191-2.1339-4.0293-9.7735-24.235-11.663-30.85-5.225-18.286-5.5067-19.704-4.9589-24.902 0.4603-4.3685 1.4859-6.4964 6.0856-12.623 3.0426-4.0527 6.4659-8.3903 7.6074-9.6404 1.1414-1.2498 4.2008-5.1362 6.7982-8.6355 2.5973-3.4994 6.2851-8.0328 8.1956-10.075 1.9105-2.042 4.2585-4.6819 5.2178-5.8666zm-406.39 306.92c2.2406 0.3237 2.328 0.6478 2.0062 7.4713-0.2751 5.8319-0.88673 8.0162-3.3508 11.974-2.8615 4.5955-4.8038 6.1207-4.8038 3.7707 0-0.5891-1.5167-1.7179-3.3699-2.5078-3.4963-1.4904-4.6146-3.7344-4.5667-9.1597 0.0502-5.6736 8.2439-12.392 14.085-11.548zm448.65 407.39c1.5703-0.1338 3.0446-0.021 4.1833 0.4254 1.4309 0.5603 1.4333 0.9045 0.0352 3.6633-0.84895 1.6749-2.408 3.5175-3.4649 4.0946-3.4585 1.8882-11.043 0.101-11.043-2.6019 0-2.5548 5.5785-5.18 10.289-5.5814zm-641.26 86.178c0.34919-0.1306 0.64399 0 0.98036 0.2642 0.64991 0.5035 5.0036 1.7419 9.6734 2.7527 8.6011 1.862 23.567 6.0442 27.766 7.7594 1.262 0.5154 3.4442 0.9374 4.8506 0.9374 3.141 0 2.9321 0.6906-3.2908 10.876-2.5142 4.1151-4.8596 7.6509-5.212 7.8564-0.56891 0.3316-7.2737-1.0572-34.104-7.0682-13.143-2.9447-12.605-2.1628-7.8283-11.378 4.5833-8.8416 6.1164-11.609 7.164-12z" fill="#fcf09a"/></svg>
