<?xml version="1.0" encoding="UTF-8"?>
<svg version="1.1" viewBox="0 0 1500 2400" xml:space="preserve" xmlns="http://www.w3.org/2000/svg"><path d="m874.05 331.41c-0.31115-0.0653-0.56071-0.0369-0.78383 0.0715-0.29738 0.1446-0.54921 0.43194-0.84104 0.83097-0.69289 0.94757-1.26 4.0544-1.26 6.9038 0 4.5493 0.41594 5.6418 3.4168 8.9634 5.7001 6.3093 3.6411 11.839-3.3325 8.9505-1.4851-0.61513-5.2971-0.98458-8.4713-0.82095l-5.7711 0.29749 6.8352 6.8823c11.819 11.901 13.708 13.229 17.861 12.565 3.0148-0.48209 4.2046-0.11318 7.0841 2.1926 8.1476 6.5244 10.182 9.654 9.1964 14.142-0.5788 2.6353-0.13313 3.4407 4.0848 7.3887 6.2956 5.8925 11.136 9.0373 13.522 8.7846 1.643-0.17406 2.0965-1.2757 2.8577-6.9438 0.90379-6.7297 0.9021-6.7381-1.9524-8.9762-7.2454-5.6811-7.3684-5.8876-7.0554-11.882l0.29181-5.6009 4.2822-0.30607 4.2807-0.30749-0.48632-8.54c-0.63745-11.179-1.6421-13.094-6.4204-12.236-1.9848 0.35647-5.4238 1.2507-7.6418 1.9866-3.4713 1.1517-4.5156 1.1361-7.5017-0.11156-4.2036-1.7564-6.6618-5.0008-5.9469-7.8492 0.68446-2.727-3.0958-7.2549-10.783-12.914-3.0384-2.2368-4.5314-3.275-5.4649-3.4712zm70.205 27.638c-0.46099 0-0.83806 5.0078-0.83806 11.129v11.129l10.735 5.4378c11.265 5.7047 14.001 7.4216 21.974 13.8 2.6851 2.148 5.3212 4.2344 5.8582 4.6354 3.9764 2.9693 16.11 14.316 16.11 15.065 0 0.27747 1.8097 2.5498 4.0218 5.0488 2.2123 2.499 4.5139 5.6414 5.1145 6.9839 0.6006 1.3425 1.7553 2.9757 2.5673 3.63 1.1805 0.9511-0.1999 1.1113-6.8866 0.79665-4.5999-0.21648-9.5238-0.68543-10.941-1.0412-2.1942-0.55071-2.8732-0.16077-4.5696 2.6216-1.096 1.7975-1.9932 3.9297-1.9952 4.737-0.0104 2.257 4.8619 6.2486 9.9473 8.1581 4.1587 1.5614 4.7944 1.5822 6.8796 0.21597 1.2634-0.82787 5.2372-1.7782 8.8303-2.111 7.193-0.66638 6.2592-1.3125 9.2781 6.4261 0.5236 1.3425 1.0582 2.8798 1.187 3.4169 0.1287 0.53698 0.6243 2.0058 1.1027 3.2638 2.4202 6.3655 1.3564 27.492-1.3844 27.492-0.5613 0-0.7458 0.27543-0.4091 0.61215 0.94 0.94-1.8263 6.8404-4.6211 9.8544-1.3746 1.4824-2.5001 3.0181-2.5001 3.4126 0 0.39447-1.2078 1.3558-2.6845 2.1368-1.4768 0.78097-4.186 2.811-6.02 4.511l-3.3339 3.0908 3.0908 1.9566c1.6998 1.0761 3.0893 2.3533 3.0893 2.8376 0 0.48428 0.6295 0.87961 1.3988 0.87961 0.7694 0 1.6768 0.87314 2.0152 1.9394 0.3385 1.0663 1.5693 3.0107 2.7361 4.3208l2.1224 2.3814 4.7514-2.6116c2.6134-1.4366 7.6538-5.7804 11.2-9.6527 4.8896-5.3389 7.0993-8.7352 9.1422-14.054 2.9873-7.7775 4.9335-21.707 3.7115-26.557-0.4325-1.7161-1.2754-5.8464-1.8738-9.1779-1.1721-6.5274-1.4834-5.6227 4.3839-12.734l1.9951-2.42 9.0606 1.5575c8.8531 1.5208 9.1533 1.5081 13.071-0.49057 8.757-4.4675 9.7466-9.4478 2.6802-13.493-5.2284-2.993-13.304-5.918-16.319-5.9112-1.1884 3e-3 -4.3969 0.88508-7.1297 1.9623-3.097 1.2207-5.9617 1.7277-7.6032 1.3459-3.8869-0.90397-17.978-8.0319-19.699-9.9645-0.8174-0.91812-3.6773-4.2981-6.356-7.5116-13.201-15.836-30.162-29.333-49.744-39.582-12.391-6.4856-14.977-8.4328-18.749-14.114-1.9573-2.9479-3.937-5.3606-4.3981-5.3606zm-108.41 4.2764c-0.95893-0.12441-0.69734 1.6368 0.95966 5.0473 2.8 5.7632 2.735 6.4024-1.2529 12.416-5.8894 8.8812-7.632 15.276-7.6461 28.056-8e-3 7.7026 0.49589 12.894 1.6061 16.532 0.89016 2.9168 1.6191 6.6523 1.6191 8.3012v3.7244c-11.966 0.44146-21.313 1.459-23.433 3.198-0.80551 0.66076-4.1008 1.8659-7.3229 2.6789-5.1762 1.3059-17.724 6.9393-19.039 8.5472-0.26846 0.32822-3.1254 2.0759-6.3475 3.8846s-6.1376 3.7036-6.4804 4.2106c-0.3427 0.507-1.2225 0.575-1.9537 0.15161-0.73134-0.42333-1.0208-0.42713-0.64361-8e-3 0.59872 0.6644-1.3423 3.4569-2.4028 3.4569-0.95769 0-16.01 15.612-19.298 20.016-3.9815 5.3323-9.7386 15.868-9.7386 17.832 0 0.67854-0.41888 1.9966-0.92818 2.9291-1.681 3.0776-4.0588 21.443-3.9103 30.197 0.15802 9.3172-0.0615 10.239-4.0591 17.059-1.4674 2.5033-2.3862 4.8337-2.041 5.1789s0.14053 0.93225-0.45483 1.3058c-2.9149 1.829-11.419 27.394-14.517 43.641-1.0035 5.2623-0.95336 5.0279-4.2393 20.015-3.9134 17.849-6.0071 26.472-6.9925 28.804-0.45387 1.074-1.1015 3.4911-1.4389 5.3706-0.6923 3.8575-3.993 14.617-5.8411 19.039-0.67328 1.611-2.5651 6.4437-4.2036 10.74-3.2202 8.4438-5.4627 13.135-6.7221 14.061-0.43805 0.32198-2.0402 3.002-3.5599 5.9555-1.5197 2.9536-4.0463 6.9079-5.6151 8.7874-1.5688 1.8795-6.3813 8.0303-10.695 13.669-4.3141 5.6386-10.772 13.486-14.35 17.439-3.5777 3.9528-7.6268 8.5687-8.9977 10.258-5.1729 6.3737-17.825 19.402-39.817 41.001l-14.772 14.507-2.9893-1.4903c-1.6441-0.8202-4.4223-1.7982-6.173-2.1726-1.7507-0.37436-3.6221-1.0065-4.1591-1.4059-0.53707-0.39944-2.3515-0.98672-4.0319-1.3044-1.6804-0.31767-7.119-3.0156-12.086-5.9956-4.9666-2.9799-9.1717-5.4178-9.3452-5.4178-0.639 0-19.392-9.1068-20.381-9.8973-2.4326-1.9446-10.138-7.4034-13.959-9.8888-2.2822-1.4844-4.1505-3.132-4.1505-3.6614 0-0.52937-0.48792-0.96254-1.0841-0.96254-1.5092 0-10.632-6.0062-10.632-6.9996 0-0.44659-0.54878-0.8238-1.22-0.83813-1.152-0.0246-10.935-6.8033-14.646-10.149-0.93981-0.84723-1.9824-1.5404-2.317-1.5404-0.33458 0-3.3003-1.9152-6.5906-4.255-14.267-10.146-40.506-26.99-42.044-26.99-0.2566 0-2.7937-1.3856-5.6366-3.0793-5.7235-3.4098-31.598-16.448-32.641-16.448-0.36314 0-5.3142-2.5842-11.003-5.7424-9.909-5.5013-23.87-12.675-31.531-16.203-6.6907-3.0811-7.4674 0.21635-2.001 8.4885 4.7402 7.1731 10.079 13.353 18.824 21.786 3.8815 3.7429 7.5504 7.4194 8.1524 8.1696 2.8924 3.6039 13.287 13.715 17.202 16.732 9.4212 7.262 16.982 13.634 17.383 14.651 0.16133 0.40902-2.2557 0.16588-5.3705-0.54064-11.647-2.6417-16.117-3.3955-16.98-2.8619-3.3917 2.0962 3.979 14.984 15.59 27.259 4.3838 4.6346 6.5884 6.5614 16.422 14.354 5.0212 3.979 8.6107 10.737 7.1512 13.464-2.2843 4.2684 0.24084 10.453 6.5048 15.93 1.9771 1.7288 4.2839 3.8604 5.126 4.737 0.8422 0.87653 4.6064 3.9265 8.3656 6.7765 3.759 2.85 6.9723 5.5091 7.1398 5.9098 0.1674 0.40065 2.5845 2.1708 5.3706 3.9332 2.7861 1.7624 5.2851 3.4614 5.5536 3.7758 0.26853 0.31445 3.2343 2.4796 6.5906 4.8114 5.8505 4.0646 6.1015 4.4083 6.1015 8.3555 0 2.6228 0.97547 5.9409 2.686 9.1407 2.8019 5.2413 13.007 16.191 19.723 21.16 4.1442 3.0663 4.7061 4.3992 2.7289 6.4819-0.67369 0.70961-3.1978 3.7071-5.6094 6.6606-2.4116 2.9536-4.8269 5.8499-5.3663 6.4362-0.53941 0.5862-2.0786 2.5225-3.4212 4.3036-1.3425 1.7811-2.8872 3.7174-3.4311 4.3037-0.54401 0.58619-1.8621 2.3366-2.9292 3.8888-1.067 1.5523-2.8177 4.0288-3.8917 5.5036-3.7776 5.1875-13.838 20.001-14.24 20.966-0.22328 0.53716-2.2836 4.094-4.5782 7.9051l-4.172 6.9295-11.99 0.60788c-19.288 0.97751-38.898 4.1649-57.778 9.3909-3.6817 1.0191-6.8678 1.5477-23.433 3.8917-12.629 1.7872-31.959 7.76-47.846 14.783-13.068 5.7768-21.305 10.173-23.078 12.316-1.2221 1.4767-0.51609 1.5476 8.9176 0.89956 15.342-1.054 22.449-3.0053 34.442-9.4553 2.7907-1.5008 24.012-9.6786 25.117-9.6786 0.55617 0 1.7735-0.41391 2.706-0.92103 3.5782-1.9459 24.949-8.0388 30.039-8.5642 0.75792-0.0785 0.76479-0.22893 1.3673-0.32899 1.7336 0.0262 4.1434-0.15987 6.6478-0.51494 0.85004-0.1208 1.6933-0.25848 2.5044-0.40902 1.6875 0.38869 10.936 0.5602 22.798 0.31326 12.537-0.26088 22.795-0.16471 22.795 0.21456 0 0.70312-5.1691 12.626-9.2952 21.439-1.8521 3.9561-5.4811 13.968-5.8397 16.11-0.0446 0.2684-0.57103 2.0265-1.1685 3.906-0.59756 1.8796-1.8765 6.183-2.8419 9.5641-0.96538 3.3809-2.235 6.5454-2.8219 7.0325-0.58684 0.4871-9.615 2.6579-20.062 4.8242-30.05 6.2313-45.227 9.8807-69.278 16.658-4.0276 1.1349-9.4089 2.5655-11.96 3.1778-2.5508 0.6124-4.6383 1.4656-4.6383 1.8966s-0.59787 0.7837-1.3287 0.7837c-1.3643 0-15.192 4.2026-18.688 5.6796-1.074 0.4538-5.6874 2.0256-10.252 3.4941-17.828 5.7351-40.714 15.482-54.677 23.286-4.5646 2.5512-8.8117 4.6398-9.4382 4.6398-0.6265 0-1.2856 0.3675-1.4646 0.8123-0.179 0.4449-4.0598 3.1801-8.6244 6.08-4.5646 2.9-11.223 7.392-14.794 9.9817-5.258 3.8123-9.2535 5.6019-20.992 9.4025-7.9739 2.5817-18.232 6.1698-22.797 7.9735-8.1486 3.2201-29.212 13.617-31.53 15.562-1.6597 1.3935-8.5067 5.8441-8.9905 5.8441-0.48485 0-10.235 6.8177-12.243 8.5614-0.78468 0.6813-2.5249 2.1251-3.8674 3.2081-6.5619 5.2937-13.454 12.897-18.097 19.963-4.7426 7.2183-6.3143 10.2-10.697 20.302-2.4199 5.5783-2.9508 19.261-1.0884 28.028 1.5822 7.4482 3.1911 9.7643 6.7865 9.7643 1.7423 0 1.7815-0.1567 0.42908-1.7091-0.81863-0.9398-1.698-2.8808-1.9537-4.3137-0.55376-3.1025 0.80386-14.158 2.0781-16.923 0.49502-1.074 1.3723-3.437 1.9494-5.2505 0.5771-1.8133 3.475-6.9414 6.439-11.396 10.021-15.061 28.983-29.967 53.51-42.061 4.9358-2.4339 10.141-5.0498 11.566-5.8125 4.2762-2.2883 4.1585-1.6335-0.67365 3.7401-7.5592 8.406-14.854 21.076-19.112 33.197-1.2736 3.6249-2.6758 6.5906-3.1151 6.5906-0.43923 0-0.52099 0.4493-0.18165 0.9983 0.33935 0.549-0.15493 3.2941-1.0984 6.1015-2.4495 7.2881-2.6075 36.618-0.22598 41.863l1.6162 3.5614-4.1949 3.7614c-2.3075 2.0689-5.1068 4.4452-6.2201 5.2806-7.9059 5.9326-36.702 30.895-44.566 38.634-14.898 14.66-23.865 25.946-36.373 45.782-1.5087 2.3928-7.2871 14.466-9.0034 18.812-0.69598 1.7624-1.4345 3.0363-1.6405 2.8304 0 0-3.9406 3.5955 0.94826 4.7728 0.7074 0.2714 3.3176-1.2952 5.8011-3.4812 2.5395-2.2355 6.9548-4.8144 10.089-5.8927 8.6054-2.9608 17.431-8.2738 18.916-11.388l1.3072-2.7388 0.66936 2.4415c0.71611 2.6095 1.6453 2.664 6.356 0.379 3.7845-1.8359 7.7556-5.3516 9.2966-8.2312 0.67021-1.2522 1.5945-2.7444 2.0538-3.3152 0.45942-0.571 3.622-4.6395 7.0268-9.0421 8.5419-11.045 21.464-24.793 31.99-34.031 4.8634-4.2682 10.441-9.1706 12.393-10.894 1.9523-1.7235 3.7336-2.9485 3.9589-2.7231 0.22532 0.2252-1.5142 2.7328-3.8645 5.5737-2.3503 2.8407-4.5875 5.6043-4.9715 6.1414-0.38407 0.5369-1.9408 2.5141-3.4598 4.3937-1.519 1.8794-3.5759 4.7364-4.5711 6.3475-0.99514 1.6109-2.4177 3.5881-3.1608 4.3937-2.4783 2.6862-8.6827 13.099-11.925 20.015-4.5177 9.6348-4.7938 10.34-5.5408 14.119-0.36723 1.8583-1.4979 5.3153-2.5129 7.6834-2.4377 5.6866-4.7441 19.222-4.7441 27.842 0 6.3568 0.12603 6.7893 1.5704 5.3449 0.86432-0.8643 1.9396-3.5386 2.3885-5.9412 2.1469-11.492 15.655-42.64 24.855-57.312 4.3875-6.9975 14.231-19.283 22.488-28.066l6.6163-7.0382 3.6543 2.8947c6.2706 4.9665 22.396 11.475 22.396 9.0393 0-0.4577-1.619-1.7-3.5971-2.7618-1.9781-1.0618-6.2619-4.5161-9.5197-7.6748-3.2578-3.1586-4.1959-4.3105-2.0853-2.56 9.9043 8.2138 20.782 12.841 32.777 13.944 4.8665 0.4472 4.9577 0.8627 1.1256 5.1002-5.6757 6.276-16.454 19.692-20.348 25.327-15.466 22.38-21.837 32.566-27.708 44.302-7.6945 15.379-14.056 31.041-15.045 37.036-0.37573 2.2795-1.0558 4.3752-1.5118 4.6569-1.1343 0.7011-4.2616 15.067-3.4555 15.873 0.35587 0.356 2.7123-0.073 5.2361-0.9539 4.8657-1.6976 18.937-3.5902 29.486-3.966l6.346-0.2274 1.8136-5.8584c0.99712-3.222 2.6229-7.6148 3.6128-9.7629l1.7992-3.9059 0.0486 5.063c0.0267 2.7843-0.40186 6.2463-0.95254 7.6948-2.0947 5.5094-1.0284 6.1605 12.213 7.4602l2.9105 0.286 1.6877-8.2998c5.0698-24.928 13.287-52.234 17.063-56.706 0.71584-0.8478 1.3015-2.1179 1.3015-2.8233s1.9772-5.4019 4.3937-10.436c2.4165-5.0344 4.3937-9.3315 4.3937-9.5483 0-0.7 11.016-19.572 11.719-20.076 0.37415-0.2685 1.2484-1.5866 1.9423-2.9292 4.3132-8.3457 21.242-31.259 34.985-47.354 9.9453-11.647 24.512-26.21 38.013-38.005 4.6954-4.1019 9.7929-8.6517 11.329-10.112 6.9562-6.6119 6e-3 1.7557-10.115 12.178-6.1756 6.3594-13.425 14.017-16.11 17.017-8.4866 9.4814-15.06 17.096-17.273 20.009-1.1774 1.5498-3.7043 4.6468-5.6152 6.8838-8.599 10.067-18.212 23.591-24.071 33.864-2.0974 3.6779-4.6434 8.0719-5.658 9.7643-4.2736 7.1275-14.443 28.57-16.741 35.297-0.91704 2.685-2.2385 6.201-2.9363 7.812-2.4765 5.7174-5.2374 14.77-7.2943 23.921-1.1466 5.1014-2.4799 10.814-2.9635 12.693-2.7934 10.857-3.9946 46.866-1.5633 46.866 6.4997 0 23.083-11.332 39.302-26.857 0.59214-0.5668 4.5465-3.6274 8.7874-6.8009 4.2409-3.1735 10.26-7.7107 13.377-10.083 3.1167-2.3722 8.3892-5.3074 11.717-6.5219 15.638-5.7073 25.237-14.245 31.857-28.336 8.8125-18.756 21.029-42.565 21.348-41.607 0.30838 0.9252-2.7389 10.659-4.7727 15.245-0.4763 1.074-1.556 4.8091-2.3985 8.2998-0.84246 3.4905-2.2003 8.7628-3.0178 11.716-2.1622 7.8116-2.6182 11.407-1.5318 12.078 0.52734 0.3259 3.5591-1.7092 6.7379-4.5224 3.1788-2.8133 7.4135-6.492 9.4096-8.1739s4.9286-5.4155 6.5176-8.2983c1.5891-2.8827 2.898-4.6932 2.9077-4.0217 0.0431 2.9998 3.2115 0.86 5.0588-3.417 1.1017-2.5508 3.7612-8.3719 5.9098-12.937 2.1485-4.5646 4.3874-9.3987 4.9758-10.741 2.9616-6.757 14.455-25.251 24.593-39.576 1.611-2.2765 3.7971-5.3977 4.8586-6.9353 17.342-25.118 65.127-73.012 96.197-96.416 11.054-8.3268 15.156-11.658 22.079-17.931 1.926-1.7454 3.8906-3.1737 4.3651-3.1737 0.47466 0 4.1676-2.3068 8.2068-5.126 12.342-8.6144 17.197-11.602 18.273-11.243 0.56597 0.1886-1.7734 3.6838-5.1989 7.7662s-7.5469 9.095-9.1579 11.14c-1.611 2.0453-3.9177 4.7481-5.126 6.0056-1.2083 1.2578-2.1969 2.4976-2.1969 2.7562s-2.5716 3.8634-5.7153 8.0108c-3.1435 4.1474-6.8725 9.2982-8.2868 11.446-1.4143 2.148-9.9013 10.936-18.859 19.529-16.405 15.735-32.183 33.126-40.442 44.576-7.5089 10.41-16.941 24.44-20.484 30.469-1.8494 3.1466-4.3324 7.3204-5.5178 9.2751-1.1855 1.9547-3.5186 6.1904-5.1833 9.4125-1.6646 3.222-5.3081 10.278-8.0966 15.68-5.8388 11.311-14.068 28.747-17.254 36.556-1.2051 2.9536-2.967 7.1286-3.9146 9.2766-3.2226 7.3051-4.2208 10.978-3.4827 12.814 0.71038 1.7667 0.77688 1.7619 1.8607-0.1215 1.4507-2.5209 10.769-11.746 16.169-16.007 3.4441-2.718 5.3012-5.6204 10.311-16.11 12.335-25.828 22.676-45.676 28.29-54.292 1.2247-1.8794 3.8263-6.2723 5.781-9.7628 9.9975-17.851 21.147-34.507 31.082-46.433 2.8259-3.3922 5.2871-6.0176 5.4692-5.8356 0.31694 0.3172-2.6721 6.2371-4.6983 9.3068-0.53171 0.8054-1.404 2.5635-1.9394 3.906-0.53544 1.3425-1.3835 3.1005-1.8837 3.906-1.5875 2.5568-18.261 37.142-23.535 48.819-2.7894 6.1755-6.3775 14.084-7.9736 17.575-1.5961 3.4905-3.8003 8.3231-4.8986 10.74-1.0983 2.4166-2.9962 6.5916-4.2178 9.2767-5.2988 11.647-12.171 28.586-12.171 29.999 0 1.3717 0.76422 1.3398 7.0784-0.3004 13.406-3.4821 22.329-2.039 25.774 4.1706 2.0743 3.738 1.583 5.4071-5.0259 17.084-5.8675 10.367-7.0625 12.998-5.9041 12.998 0.69816 0 5.8507-2.3449 6.3918-2.9091 0.26846-0.2799 2.6674-1.5747 5.3305-2.8762 5.9632-2.9145 8.0666-5.1511 14.752-15.694 2.8943-4.5646 5.6075-8.7395 6.0299-9.2766 0.42245-0.5369 2.739-3.7278 5.1475-7.0926 12.497-17.459 29.174-39.077 34.449-44.655 1.1024-1.166-0.0703 6.3242-1.2228 7.8104-0.41645 0.537-1.0145 2.7349-1.3301 4.8829-0.31562 2.148-1.7052 8.5179-3.0879 14.157-5.3117 21.661-7.6202 39.786-5.4063 42.454 1.0717 1.2913 2.146 0.6322 8.0423-4.9302 3.7429-3.5307 7.0109-6.213 7.2628-5.9611 0.25191 0.2519-1.3268 3.0299-3.5084 6.1728-2.1817 3.143-3.9669 6.2271-3.9675 6.8538 0 0.6263-0.33099 1.2854-0.73374 1.4646-0.40276 0.1789-3.9679 5.1573-7.9221 11.064-7.0162 10.482-11.163 16.292-21.132 29.6-2.6891 3.5897-7.0135 9.6023-9.6099 13.361-2.5963 3.7591-7.0938 10.129-9.9931 14.157-2.8994 4.0274-7.3824 10.399-9.9631 14.158-14.576 21.232-21.36 31.177-22.664 33.227-1.8722 2.9443-9.0117 13.278-16.505 23.891-4.8097 6.8117-29.262 43.284-32.803 48.929-0.53706 0.8559-2.2634 3.4885-3.8374 5.8497-1.574 2.3613-5.6898 8.6863-9.1464 14.056-3.4567 5.3702-7.5516 11.593-9.0992 13.829-1.5478 2.2357-2.8147 4.3104-2.8147 4.6097 0 0.2991-1.2809 2.4232-2.8462 4.7212-1.5653 2.2977-5.9446 9.0116-9.7328 14.919-3.7883 5.9071-7.2942 11.221-7.7905 11.808-0.49635 0.5875-1.6127 2.4435-2.4815 4.1235-1.5668 3.0299-5.6776 9.5321-7.2113 11.408-0.4391 0.5369-1.4619 2.2935-2.2741 3.9046-2.0713 4.1085-3.8191 7.0391-7.2514 12.161-3.3848 5.0513-13.131 21.518-24.586 41.54-13.143 22.971-15.101 26.946-14.486 29.399 0.76582 3.0514 9.3476 9.5108 17.88 13.459 1.7453 0.8076 3.1737 1.7818 3.1737 2.164 0 0.382-3.0172 5.7862-6.705 12.01-8.1529 13.759-8.9176 15.211-8.9176 16.946 0 1.3924 2.2132 2.8136 7.187 4.6182 2.6833 0.9737 2.7307 1.0994 1.21 3.1938-4.5513 6.2681-6.451 9.6777-5.8955 10.577 0.89413 1.4467 3.9959 2.4816 18.832 6.2844 7.2836 1.8669 13.584 3.7354 14.001 4.1522 0.41684 0.4167-0.18637 2.6652-1.3401 4.9972-1.5393 3.1112-1.8338 4.6623-1.107 5.8268 1.1502 1.8428 9.8358 5.5484 25.696 10.961 20.709 7.0681 36.706 10.487 63.743 13.623 5.7917 0.6717 10.739 1.558 10.993 1.9693 0.25424 0.4113-0.90467 4.8291-2.5758 9.8172-3.0337 9.0551-3.0356 9.0711-1.0613 10.67 2.0686 1.6751 26.568 6.7306 44.951 9.2751 5.7158 0.791 11.018 1.6673 11.782 1.9481 0.76479 0.2808 9.9916 1.1582 20.504 1.9493 25.731 1.9366 23.736 1.2244 22.948 8.1897-0.58861 5.203-0.45622 5.836 1.4346 6.848 3.1983 1.7117 31.538 3.0907 64.786 3.1522l30.024 0.056v4.7684c0 3.5745 0.52454 5.2945 2.0939 6.8639 2.0329 2.0328 2.6086 2.0771 19.772 1.5145 9.7228-0.3185 18.556-0.7718 19.63-1.0054 1.074-0.2335 5.6874-0.7271 10.252-1.0971 8.1728-0.6624 25.58-3.112 42.125-5.9283 4.6416-0.7902 9.7442-1.4359 11.339-1.4359 2.8712 0 2.904 0.063 3.4183 6.4689 0.30983 3.8595 1.0529 6.8201 1.8421 7.3372 0.72768 0.4767 6.1571 0.8041 12.064 0.7279l10.74-0.1373 0.65649 11.109c0.36088 6.1098 1.2346 20.115 1.9422 31.124 0.71734 11.16 1.2692 36.864 1.2472 58.095-0.0373 35.645-0.20842 39.358-2.676 58.095-3.1057 23.582-4.7987 33.774-7.4502 44.875-1.6492 6.9054-2.4518 8.5729-5.2332 10.866-2.9923 2.4667-3.3908 3.4332-4.4509 10.83-0.64023 4.4671-1.3227 12.077-1.5175 16.91-0.19485 4.833-1.1394 11.862-2.0981 15.621-1.4343 5.6239-1.7729 11.506-1.9152 33.197-0.18081 27.577-0.10494 26.833-6.4132 62.977-2.9545 16.928-4.4344 23.149-8.1481 34.273-7.6516 22.92-9.4124 39.787-5.4822 52.486 2.2514 7.2745 7.3549 16.512 11.581 20.96 4.074 4.2884 13.019 9.2954 19.336 10.824 7.121 1.7234 8.6326 1.7865 14.81 0.615 8.698-1.6496 13.69-4.7824 24.085-15.114 8.3866-8.3346 10.546-11.156 14.24-18.612 4.1396-8.3553 4.3516-9.1946 4.3193-17.086-0.0184-4.5646-0.81467-14.012-1.7706-20.993-3.0523-22.291-3.4412-27.866-3.5027-50.283-0.0703-25.348 0.95739-38.224 4.4781-56.083 2.2241-11.282 2.4359-14.103 1.8321-24.469-0.83949-14.413-0.93608-12.217 0.94113-21.481 2.5474-12.572 2.9709-22.316 1.137-26.181-1.9233-4.0533-1.7126-6.3791 3.3868-37.284 6.011-36.429 18.779-94.958 21.255-97.436 0.42509-0.4252 2.1799 2.87 3.9003 7.323 1.7205 4.4529 3.502 8.9747 3.9589 10.049 5.0326 11.829 5.0491 11.907 3.3139 15.545-1.4332 3.0055-1.4758 3.955-0.34036 7.6131 1.7221 5.5488 6.4564 15.138 9.391 19.021 5.3271 7.0484 9.5303 40.491 9.6084 76.451l0.0512 23.922-5.0416 15.133c-7.4593 22.393-9.9064 34.369-10.78 52.738-0.77448 16.288 1.9317 22.226 12.592 27.619 4.3277 2.1896 6.4937 2.6359 12.785 2.6359 6.3894 0 8.5264-0.4549 13.656-2.9063 3.3446-1.5982 8.5881-4.7 11.652-6.8923 9.5084-6.8028 23.647-23.153 27.833-32.186 5.4367-11.732 5.4657-11.859 5.4035-23.589-0.0338-6.2613-0.59272-13.756-1.2414-16.655-1.2244-5.4717-0.92259-32.042 0.39764-35.015 0.48967-1.103 2.2751-1.6084 6.2587-1.7693 7.5912-0.3067 9.097-1.972 13.205-14.611l3.3769-10.392-1.293-25.385c-0.7114-13.962-1.7428-27.363-2.2912-29.779-1.4299-6.299-4.1903-11.518-8.9548-16.93-4.0211-4.5674-5.9027-6.0513-15.773-12.44-3.3492-2.1679-5.3808-4.4991-7.4358-8.5314-1.5554-3.0518-4.3772-8.4601-6.2702-12.02-1.8931-3.5597-3.7484-8.2894-4.1235-10.51-0.39478-2.3364-1.4132-4.4271-2.4171-4.9645-0.99049-0.5298-1.9953-2.5658-2.3441-4.7469-0.4423-2.766-1.4996-4.4974-3.8331-6.2773-2.7029-2.0617-3.4863-3.6144-4.8671-9.6413-1.6678-7.2795-3.2879-19.894-6.1858-48.192-2.8446-27.776-2.818-26.848-0.74804-26.857 1.0043 0 6.4399-1.3633 12.078-3.0235 5.6386-1.6604 12.668-3.6629 15.621-4.4495 2.9535-0.7865 8.9177-2.7205 13.253-4.2979 7.3778-2.6845 8.7975-2.8677 22.205-2.8677h14.324l-0.49494 12.937c-0.2724 7.1155-0.93099 46.989-1.4631 88.607-0.53223 41.618-1.187 82.04-1.456 89.827-0.26906 7.7866-0.93572 44.915-1.4804 82.505-0.54459 37.59-1.4087 81.967-1.9208 98.614s-1.2266 42.57-1.5861 57.606l-0.65356 27.339 2.7189 5.3707c3.719 7.3481 9.424 14.552 19.481 24.602 10.496 10.488 13.946 12.241 26.498 13.461 29.549 2.8733 93.671-0.522 131.24-6.9495 39.616-6.778 55.101-10.161 78.441-17.139 7.9677-2.3823 15.437-4.7218 16.598-5.1989 1.1613-0.4773 7.3835-2.7044 13.828-4.9488 6.4439-2.2444 13.035-4.647 14.646-5.3392 1.611-0.692 7.7368-3.3182 13.613-5.8368 23.341-10.004 43.748-22.388 54.246-32.918 9.1817-9.2101 15.426-19.286 24.682-39.825 4.393-9.7483 5.3596-13.979 6.0154-26.334 0.3565-6.7126 1.0568-16.379 1.5577-21.481 0.5008-5.1017 1.5762-18.502 2.3898-29.779 1.6737-23.196 3.6408-48.948 5.8169-76.158 2.2204-27.765 3.2485-41.303 8.3012-109.36 1.0763-14.499 2.1774-28.119 2.4471-30.267 0.2696-2.1481 0.9465-11.156 1.5046-20.016 0.9426-14.962 2.5761-36.776 4.9716-66.394 0.5429-6.7126 1.5982-20.993 2.3456-31.733 0.7472-10.74 1.8214-25.24 2.3857-32.221 0.9048-11.195 1.9304-25.079 5.9182-80.064 0.5453-7.5181 1.6345-22.018 2.42-32.221 0.7854-10.203 2.1019-27.777 2.9249-39.054 3.3309-45.637 2.7317-42.09 9.4568-56.004 6.731-13.926 5.9688-9.5744 9.597-54.816 1.0982-13.694 2.2047-25.997 2.4601-27.339 0.483-2.5397 2.5111-33.819 2.6158-40.347 0.056-3.4518-0.7103-5.5383-6.2359-16.987-1.7666-3.66-1.9335-5.4131-1.4804-15.623 0.586-13.2 1.7723-27.853 5.3192-65.688 1.3844-14.768 2.6865-29.926 2.8934-33.685 0.4971-9.0306 4.8729-66.741 7.6246-100.57 2.6377-32.422 3.3561-41.632 4.4194-56.631 0.5711-8.0552 1.4593-18.41 1.9738-23.011 0.5145-4.6011 0.9354-11.476 0.9354-15.278 0-6.3587-0.3789-7.6468-4.7284-16.044-6.4868-12.525-15.537-27.229-18.387-29.875-4.6243-4.2926-9.6031-7.0826-12.639-7.0826-3.4183 0-26.101 4.5405-29.174 5.8397-1.074 0.4541-8.5443 2.0059-16.599 3.4483-8.0552 1.4425-15.743 3.0135-17.086 3.4928-1.3426 0.4789-5.7367 1.3242-9.7644 1.8778-4.0275 0.5537-8.0369 1.2287-8.9104 1.5004-0.8734 0.2716-5.2676 1.1158-9.7643 1.8751-4.4965 0.7592-11.251 2.0287-15.01 2.8203s-9.5249 1.7315-12.812 2.0896l-5.9755 0.6523-4.4123-4.4752c-2.4265-2.4613-4.9285-4.4754-5.5609-4.4754-0.6322 0-2.7997-1.3839-4.8155-3.0764-2.016-1.6925-6.2701-3.9992-9.4541-5.1261l-5.7881-2.0495-0.2976-4.6397c-0.4042-6.3016-2.9155-7.6402-12.191-6.4961-3.6468 0.4497-7.0986 1.1069-7.6704 1.4601-0.5718 0.3535-4.6183 1.215-8.9921 1.9138-4.3736 0.6987-8.8351 1.5462-9.9144 1.8837-3.1989 1.0002-16.038-14.594-20.566-24.976-1.9665-4.5099-4.2223-8.9375-5.0116-9.8372-2.6272-2.9956-1.1953-5.1145 3.9546-5.8512 10.416-1.49 17.151-6.6997 17.962-13.896 0.5634-4.9971 1.8526-5.7447 11.97-6.944 5.2269-0.6194 13.584-4.1572 16.345-6.9179 0.7528-0.7527 1.7072-1.3689 2.1195-1.3689 1.3843 0 3.0155-4.9348 3.0009-9.0763-0.01-2.2569-0.6296-5.8613-1.3816-8.0093l-1.3674-3.906 4.7312-0.9769c2.6026-0.537 5.0557-1.305 5.4507-1.7078 0.3952-0.4027 1.3504-0.7322 2.1225-0.7322 2.2727 0 11.221-4.8051 14.224-7.6376 5.1041-4.8146 5.7183-7.0383 3.5899-12.998-2.1413-5.9956-1.9444-6.3507 5.3549-9.6813 5.8225-2.6568 11.91-8.3053 13.216-12.261 0.961-2.912 0.8572-4.4093-0.6236-9.0163-0.9766-3.0384-1.6725-5.8861-1.5462-6.3288 0.1266-0.44277-0.1876-0.5466-0.6994-0.2304-0.5116 0.3162-1.1985-0.26926-1.5261-1.3015s-1.2387-2.1231-2.0238-2.4243c-0.7848-0.30132-1.4272-1.0743-1.4272-1.7177 0-0.6434 0.2904-0.87945 0.645-0.52491 0.3547 0.35454 1.2786-0.26067 2.0538-1.3674s2.0092-1.7828 2.7418-1.5017c0.7327 0.2811 1.6337 0.023 2.0024-0.57351 0.4373-0.70783 0.194-0.817-0.701-0.31463-0.7543 0.42338 0.4674-0.93654 2.7148-3.0222 5.3753-4.9891 8.1151-9.7937 8.1151-14.252 0.01-3.9066-3.1852-12.982-5.4435-15.491-1.714-1.9043-1.8098-3.2057-0.1674-2.2784 0.913 0.51547 0.9449 0.39049 0.1274-0.49766-0.601-0.65304-1.9192-1.3092-2.9292-1.4575-1.9934-0.29252-2.0895-2.0129-0.1159-2.0724 1.5074-0.045 13.831-6.8686 17.9-9.9102 1.6616-1.2422 3.3265-2.2583 3.6986-2.2583s2.6364-2.0165 5.0331-4.4824c3.3925-3.4906 4.3579-5.2053 4.3579-7.7419 0-1.7919-0.659-3.9172-1.4645-4.7226-2.5977-2.5976-1.603-3.2741 5.7967-3.9446 5.4679-0.49545 8.9605-1.5076 14.135-4.0962 3.7799-1.891 7.121-3.8399 7.4245-4.3308 0.3032-0.4909 2.4358-1.7268 4.7398-2.7461 5.2866-2.3384 12.329-9.3455 12.329-12.267 0-1.2064-1.0928-3.2203-2.4286-4.4752-1.8568-1.7443-2.1743-2.5888-1.346-3.587 0.5962-0.71821 1.8733-1.3058 2.8376-1.3058 0.9647 0 6.5137-2.3395 12.33-5.1975 5.8167-2.8581 11.674-5.7309 13.017-6.3846 14.451-7.0367 25.831-17.593 27.047-25.087 0.5174-3.1883 0.3535-3.4056-3.9603-5.2547-4.6921-2.0112-11.955-4.2143-14.056-4.2636-2.2551-0.053-0.1192-1.1571 4.4751-2.3141 2.5064-0.6312 6.2073-1.5752 8.224-2.0968 2.1423-0.55406 3.8905-0.58404 4.2063-0.073 0.2975 0.48111 1.2846 0.84049 2.1925 0.79808 1.0804-0.0505 1.2144-0.25241 0.389-0.58353-0.9635-0.38663-0.9944-0.82696-0.1329-1.865 0.6201-0.74735 1.5176-1.1181 1.9939-0.82382 0.476 0.29429 0.8652 0.12622 0.8652-0.3733 0-0.49951 2.2352-1.2037 4.9672-1.5661 2.7318-0.36239 5.6975-1.0267 6.5906-1.476 3.849-1.9369 15.768-4.9515 19.577-4.9515 6.992 0 29.543-3.8775 33.988-5.844 6.5737-2.9078 5.7706-5.101-2.8791-7.8578-7.18-2.2884-17.158-4.4627-25.142-5.4793-2.4166-0.30766-6.1503-1.1786-8.2984-1.9351-2.148-0.75652-8.3002-1.6006-13.67-1.8765-5.3702-0.27585-11.74-0.89194-14.157-1.3688-3.7156-0.73311-16.709-2.1368-30.268-3.2696l-3.4169-0.28462 2.9292-0.8181c1.6111-0.4498 6.5794-2.5173 11.042-4.5939 4.462-2.0767 8.6916-3.7758 9.3996-3.7758 0.7079 0 1.8344-0.65908 2.5028-1.4646 0.6686-0.80551 1.7596-1.4646 2.4245-1.4646 0.6647 0 2.8272-1.0975 4.8056-2.44 1.9782-1.3425 4.2626-2.4414 5.0758-2.4414 0.814 0 1.2072-0.43986 0.8754-0.97686-0.332-0.537 0.061-0.97543 0.871-0.97543 0.8102 0 3.3616-1.2692 5.671-2.8204 2.309-1.5513 5.7858-3.7081 7.7261-4.7913 6.8976-3.8511 8.1121-4.6131 10.032-6.3017 1.0685-0.93975 2.2559-1.7091 2.6375-1.7091 0.3815 0 3.264-1.7849 6.406-3.9661s7.1512-4.8677 8.9104-5.9699c3.7827-2.3698 6.0336-5.8628 4.1763-6.4819-0.6622-0.22079 2.461-2.2686 6.9396-4.5496 25.293-12.882 28.159-14.635 28.159-17.224 0-1.5842-0.7629-1.8393-5.475-1.8393-9.6948 0-51.428 6.0602-71.66 10.406-4.0275 0.86526-9.4088 1.581-11.96 1.5876-2.5509 7e-3 -4.6383 0.41635-4.6383 0.90964 0 0.49328-0.8783 0.61836-1.9523 0.27747-1.1201-0.35554-1.9536-0.17592-1.9536 0.42193 0 0.57321-0.4539 1.0426-1.0098 1.0426-2.4959 0 6.3296-9.9864 13.703-15.505 1.8795-1.4068 4.5158-3.5711 5.8583-4.8099 1.3425-1.2388 3.5388-2.9225 4.8814-3.7401 2.6672-1.6244 8.7874-9.9839 8.7874-12.003 0-0.69271 2.2714-3.7377 5.0474-6.7665 10.985-11.985 12.602-17.579 4.6941-16.243-4.7089 0.79554-23.105 6.6884-28.781 9.2194-1.074 0.47892-5.4669 1.9671-9.7629 3.3067-4.2961 1.3396-9.1301 3.1289-10.741 3.9775-1.6111 0.84867-3.3385 1.546-3.8388 1.549-0.5006 4e-3 -5.204 1.7668-10.452 3.9189-5.2482 2.1521-10.629 4.0035-11.957 4.1134-1.3281 0.10992-2.2311 0.49452-2.0082 0.85529 0.4564 0.73821-4.9085 3.1608-6.9996 3.1608-0.7467 0-1.3587 0.3663-1.3587 0.8138 0 0.44751-0.4478 0.81382-0.9955 0.81382-1.0361 0-15.333 6.5204-21.701 9.8973-2.0116 1.0667-4.1664 1.6246-4.7886 1.24-0.6522-0.4031-0.8692-0.2748-0.512 0.30321 0.7274 1.177-10.747 6.73-13.217 6.3961-1.0601-0.14332-1.4843 0.26217-1.16 1.107 0.3454 0.89988-2.1211 2.6616-7.6047 5.4335-4.4635 2.2564-10.903 5.6356-14.31 7.5088-3.4067 1.8732-6.4461 3.1536-6.7536 2.8462s-0.045-0.55923 0.5807-0.55923c0.6265 0 1.1384-0.65907 1.1384-1.4646 0-0.80551-0.6295-1.4646-1.3987-1.4646-1.5536 0-2.9646 3.3512-2.041 4.8457 0.325 0.52607-0.6351 1.2438-2.1339 1.5961s-4.1151 1.9523-5.814 3.5556c-1.6989 1.6033-3.5672 2.6204-4.1506 2.2598-0.5831-0.36058-1.0597-0.26756-1.0597 0.20594 0 0.47352-1.992 1.9275-4.4266 3.2309-2.4349 1.3035-5.8404 3.1373-7.5675 4.0762s-4.26 1.7084-5.6294 1.7092c-1.3694 7.3e-4 -2.9082 0.37237-3.4184 0.82524-0.5101 0.45287-4.458 1.3396-8.7731 1.9709-4.3151 0.63124-13.542 2.9196-20.504 5.0845-15.765 4.9023-16.157 4.9857-17.609 3.7802-0.8596-0.71329-1.1505-0.53209-1.0484 0.65076 0.088 1.0263-0.952 1.982-2.7874 2.5616-3.6017 1.1372-8.9506 3.3577-12.206 5.0674-1.3426 0.70506-3.0512 1.0636-3.7972 0.79664-0.8663-0.31001-1.0949-0.0624-0.6337 0.68365 0.4374 0.70793 0.2024 1.0798-0.5965 0.94396-0.7251-0.12328-3.7356 0.94098-6.6893 2.3656-2.9534 1.4246-5.8359 2.5951-6.4059 2.6002-0.5701 5e-3 -2.0139 0.9197-3.2081 2.0324-1.1943 1.1127-3.1632 2.1291-4.3751 2.2584-1.2119 0.12923-2.6938 0.53878-3.2938 0.90964-0.6001 0.37088-1.8086 0.39908-2.6846 0.0629-0.876-0.33613-1.5219-0.22836-1.436 0.24028 0.3708 2.0318-0.1704 3.2938-1.413 3.2938-3.2923 0-23.15 7.3336-24.124 8.909-0.3872 0.62664-1.4308 0.85979-2.3185 0.51918-0.947-0.36324-1.3668-0.22002-1.0169 0.34613 0.3445 0.55718-0.691 0.96542-2.4485 0.96542-1.6744 0-2.8039 0.38784-2.51 0.86242 0.2932 0.47469-0.889 1.3911-2.6275 2.0352-1.7384 0.64413-3.8984 1.5581-4.7998 2.031-1.078 0.56549-1.8036 0.4535-2.1197-0.32608-0.2704-0.66649-0.5146-0.43732-0.5578 0.52346-0.045 0.9984-0.8451 1.7091-1.9251 1.7091-1.0167 0-2.1022 0.65908-2.4114 1.4646-0.3091 0.80552-1.7317 1.4646-3.1623 1.4646-1.4307 0-3.3848 0.90265-4.3422 2.0066-0.9575 1.104-2.7368 2.0823-3.9533 2.174-1.2163 0.0917-3.1628 1.1175-4.325 2.2798-1.5535 1.5535-2.857 1.9708-4.9215 1.5761-2.4828-0.47464-2.5859-0.62345-0.8838-1.2887 1.8779-0.73392 1.7167-1.0068-0.7453-1.2558-0.6638-0.0672-1.3738-1.0013-1.5775-2.0753-0.2037-1.074-0.6534-2.1729-0.9997-2.4414-0.8743-0.67807-8.909-16.958-8.909-18.051 0-0.48935 0.5269-0.36264 1.1714 0.28176 0.6444 0.64442 1.6329 1.1581 2.1968 1.1413 0.5639-0.0167-0.6475-1.059-2.6917-2.3156-2.7833-1.711-3.3351-2.4308-2.1969-2.8676 0.8518-0.32682 1.5509-0.0603 1.589 0.60643 0.038 0.65441 0.4203 0.31026 0.851-0.76375 0.6628-1.6527 0.2489-2.1133-2.696-3.0006-1.9137-0.57664-3.6719-1.6263-3.9074-2.3327-0.2354-0.70639-0.025-1.0361 0.4662-0.73229 0.4916 0.30382 0.8939-0.27248 0.8939-1.2815 0-1.009-0.1788-1.6576-0.3961-1.4402-0.4626 0.46246-1.807-0.86646-4.8213-4.7684-1.1969-1.5492-2.1852-2.4289-2.197-1.9537-0.012 0.47518-0.8655-0.99399-1.8965-3.2653-1.0311-2.2712-2.7779-5.0996-3.883-6.2859-1.1054-1.1863-2.0095-2.7341-2.0095-3.4383s-0.388-1.2801-0.861-1.2801-2.0986-2.5259-3.6129-5.6137-3.3925-6.3831-4.1734-7.3229c-0.7807-0.93976-1.1267-1.7092-0.7682-1.7092 0.3586 0-0.3856-1.6476-1.6533-3.6614-3.7951-6.0288-9.4353-16.811-9.4353-18.035 0-0.62893-1.181-2.8472-2.6245-4.9301-2.1824-3.149-2.3888-3.9368-1.2214-4.6755 1.1581-0.73281 1.1086-0.89162-0.2847-0.90393-0.9761-8e-3 -2.5212-1.6466-3.6614-3.8817-2.5385-4.9759-2.4831-5.8969 0.3505-5.8969 2.2196 0 8.1403 6 12.528 12.693 5.127 7.8222 11.216 11.717 18.318 11.717 2.6371 0 5.0659-0.43987 5.3978-0.97685 0.3319-0.53701 1.2078-0.97545 1.9465-0.97545 0.739 0 2.5817-0.51045 4.0934-1.1342 1.5118-0.62373 3.1875-1.0268 3.7244-0.89533 0.537 0.13146 0.6824-0.0555 0.3232-0.41478-0.3593-0.35923 0.2887-1.7364 1.4403-3.0607 1.5515-1.7844 2.7008-2.2553 4.438-1.8193 1.8414 0.46208 2.221 0.26593 1.7678-0.91536-0.402-1.0477 0.199-1.6995 1.9809-2.1468 3.2966-0.8274 5.1832 1.5989 5.1832 6.6664 0 2.6548 0.4191 3.7201 1.4646 3.7201 0.8056 0 1.4646 0.85277 1.4646 1.8951 0 1.0423 0.4204 2.1541 0.9339 2.4715 0.5135 0.31737 0.7036 1.1782 0.422 1.9122-0.2817 0.734-0.043 1.6249 0.5306 1.9795 0.5736 0.35451 1.0427 1.8477 1.0427 3.3196s0.4739 3.1499 1.0526 3.7287c0.5788 0.57874 1.4342 2.7454 1.9008 4.8142 0.6567 2.912 0.5081 4.1377-0.6594 5.4278-0.8293 0.9165-1.2255 2.1248-0.8796 2.6846 0.3459 0.55975 0.2389 1.7952-0.2388 2.7461s-0.5188 2.8281-0.091 4.1706l0.7767 2.44-0.1717-2.44c-0.3322-4.722 4.6145-3.7854 5.8841 1.1142 0.7343 2.8338 1.2776 3.2925 3.9947 3.3768 1.7292 0.0537 3.375-0.27583 3.6571-0.73229 0.2821-0.45645 0.031-0.82954-0.555-0.82954-0.5868 0 0.4867-1.425 2.3843-3.1666 1.8977-1.7416 3.4497-3.7188 3.4497-4.3937 0-0.67497 0.4038-1.2272 0.8982-1.2272 0.4943 0 1.1898-1.322 1.5446-2.9377 0.3549-1.6157 1.0753-2.6724 1.6019-2.347 1.2123 0.74922 0.4797-15.704-0.8496-19.078-0.5188-1.3167-0.8489-4.1736-0.7337-6.3474 0.1788-3.3736 0.065-3.6322-0.7809-1.7678-0.9433 2.0793-1.0905 1.9816-3.045-2.0324-1.1292-2.3192-3.1772-5.279-4.551-6.5777-3.1152-2.945-8.6765-10.338-7.0211-9.3338 0.702 0.42607 1.2201 0.25726 1.2201-0.39761 0-0.62617-0.6669-0.88194-1.4818-0.56924-1.6904 0.64867-5.3535-2.1052-5.3535-4.0247 0-0.70303-0.7014-1.5484-1.5603-1.8779-0.8588-0.32959-3.8575-2.8423-6.6621-5.5837-2.8047-2.7414-7.2275-6.5217-9.8301-8.4013-2.6025-1.8795-5.7775-4.4054-7.054-5.6137-1.2764-1.2083-2.7653-2.1969-3.3096-2.1969-0.5442 0-0.6763-0.50847-0.2931-1.1285 0.3949-0.63903 0.2707-0.86334-0.2862-0.51918-0.5403 0.33389-3.5732-1.073-6.7407-3.1265-3.1675-2.0535-9.2741-5.593-13.57-7.8649-4.2961-2.2719-7.6794-4.4212-7.5174-4.777 0.162-0.3558 1.9198-2.5862 3.906-4.9558 6.1077-7.2871 10.718-16.65 12.925-26.244 1.0804-4.6975 0.2774-7.0139-3.7386-10.778-2.7058-2.5362-14.718-8.7375-19.246-9.9359-1.6109-0.42646-6.0037-2.1017-9.7628-3.7215-3.7591-1.6198-14.22-4.6068-23.247-6.6378l-16.412-3.6929-4.2192-8.3484c-7.1516-14.153-7.6474-15.047-10.98-19.812-3.5219-5.0349-3.9925-8.164-1.8522-12.303 0.76127-1.4723 1.8613-6.107 2.4443-10.299 1.3854-9.9605 0.0618-18.45-3.996-25.641-0.49504-0.87711-2.3622-2.7014-3.2281-3.8617 2.205-0.96004 3.791-2.2161 4.3723-3.4626 0-0.50398 1.0776-1.9958 2.3957-3.3139 3.2866-3.2866 7.8234-3.1015 15.747 0.64218l6.4304 3.0393 3.424-1.8178c8.4708-4.4995 12.952-13.239 11.401-22.23-0.70814-4.1049-1.3337-5.0994-4.2222-6.7079-1.8652-1.0386-4.1129-2.7207-4.9958-3.7387-0.8829-1.0179-2.1105-1.8507-2.7275-1.8507-0.61688 0-1.8487-1.5231-2.7361-3.384-1.3732-2.8797-1.4345-3.9796-0.41196-7.393 1.6603-5.5415 0.42359-7.0523-13.304-16.238-10.207-6.8296-24.429-12.764-27.825-11.978-0.48515 0.11218-0.74942 0.36175-0.74942 0.76519 0 0.45482-0.87919 1.8403-1.9538 3.0793-2.9869 3.444-8.797 3.176-16.827-0.77661-6.2039-3.0539-6.6789-3.1425-9.3953-1.7378-7.401 3.8272-11.857 11.144-11.857 19.473v5.4349l5.259 3.8845c6.1892 4.5724 9.3206 8.2967 10.052 11.953 0.0571 0.28685 0.42656 0.5967 0.55354 0.88246 0.0519 1.0345 0.22005 2.2186 0.48909 3.4483-5.1914-3.038-11.894-7.4128-12.75-7.4128-0.65467 0-2.8303-0.87827-4.8342-1.9523-2.0039-1.074-4.5129-1.9537-5.5766-1.9537-1.0637 0-4.8289-1.0897-8.3669-2.4214-6.5023-2.4474-12.81-3.099-23.961-3.3253 0.24692-0.012 1.6484-0.0341 1.6591-0.0429 0.0622-0.0515-0.70725-4.0015-1.7092-7.6146-2.4332-8.7751-2.3864-19.797 0.11431-27.066 1.7915-5.2067 8.0232-15.245 9.9316-15.997 2.045-0.80623 0.29834-3.3398-6.5934-9.5684-4.08-3.6873-8.071-7.0757-8.869-7.5302-0.79788-0.4545-2.7354-2.1719-4.3063-3.8159-1.4163-1.482-2.431-2.2352-3.0064-2.3099zm86.91 56.665c5.6153 0.0926 15.752 2.7446 20.658 5.6066 7.0369 4.1047 12.894 9.2666 15.887 14.001 1.6986 2.6868 3.4048 5.114 3.7916 5.3935 1.4478 1.046 2.7789 6.1189 2.7789 10.594 0 5.2062-3.0492 10.34-7.5388 12.692-2.6836 1.4061-12.958 2.3353-16.384 1.4817-12.809-3.192-19.758-6.9064-26.698-14.27-6.1595-6.535-9.0119-12.214-9.6455-19.201-0.87495-9.6485 3.3895-14.232 15.048-16.173 0.58911-0.0981 1.3002-0.13766 2.1025-0.12442zm71.002 96.256c-4.0577 0-9.7009 2.7668-11.692 5.7324l-1.8708 2.7847-3.9875-2.061c-2.1937-1.1339-4.2082-2.318-4.4766-2.6302-0.26853-0.3122-3.1822-1.129-6.4747-1.8164-4.9749-1.0386-6.4598-1.0245-8.7875 0.0858-3.633 1.733-4.2777 6.2395-1.343 9.3896 1.1195 1.2016 1.6881 2.196 1.2644 2.2097-1.2894 0.0418 9.788 6.8094 11.146 6.8094 0.6962 0 1.2657 0.43985 1.2657 0.97685 0 0.53701 0.45669 0.97686 1.0154 0.97686 1.156 0 7.1149 4.0144 7.6089 5.126 0.17905 0.40275 0.68521 0.73229 1.1257 0.73229 0.44056 0 2.4198 1.427 4.3981 3.1723l3.597 3.1737-3.7472 0.48773c-3.1903 0.41568-3.7912 0.87827-4.0491 3.1093-0.16638 1.4411 0.42212 4.0223 1.3087 5.7367 1.6583 3.2067 6.1091 7.6672 7.7047 7.7219 0.49473 0.0169 1.6626 0.72276 2.5959 1.5676 2.3586 2.1344 20.535 11.066 22.622 11.116 1.1883 0.0285 1.7092-0.71214 1.7092-2.4314 0-1.3598 0.703-4.1063 1.5618-6.1029 3.9079-9.085 3.4599-12.549-2.3384-18.07-4.1633-3.9638-10.386-4.0126-11.37-0.0901-1.0521 4.1924-1.8787 1.7582-1.6177-4.7613 0.1873-4.6785 0.9208-7.2816 3.158-11.2 1.6032-2.808 3.3535-5.3757 3.8889-5.7067 1.3418-0.8292 0.06-6.169-2.2726-9.4697-2.2381-3.1663-8.4239-6.5691-11.943-6.5691zm-46.663 10.9c-0.31725 0.12084-0.67996 0.36289-1.0112 0.69654-0.95718 0.96428-0.84519 1.0762 0.54628 0.54636 0.96305-0.36667 1.5049-0.91223 1.2043-1.2128-0.15035-0.15031-0.42213-0.15088-0.73947-0.03zm72.565 52.065c-4.0584 0.0214-3.3349 2.2512 1.5575 4.797 6.0327 3.1393 6.5164 3.1168 4.7914-0.21883-1.79-3.4616-3.3606-4.594-6.3489-4.5782zm274.82 114.74c-0.2368 0-0.7022 0.43844-1.0341 0.97543-0.3318 0.537-0.1382 0.97687 0.4305 0.97687s1.0341-0.43987 1.0341-0.97687c0-0.53699-0.1936-0.97543-0.4305-0.97543zm-218.01 33.578c0.256-0.25593 0.7247 0.21255 1.0427 1.0412 0.6602 1.7205 0.097 2.0226-0.8653 0.46482-0.3541-0.57273-0.4332-1.2501-0.1774-1.506zm-70.101 14.663c0.3976 0.11438 1.1214 0.75983 2.4258 2.0095 1.5919 1.5252 2.6223 3.2123 2.2898 3.7501-0.3324 0.53782-0.1288 0.68505 0.452 0.3261 1.6977-1.0493 14.444 12.335 13.383 14.052-0.3135 0.50717 0.1146 0.65846 0.9511 0.33753 1.7787-0.68257 4.957 5.7903 3.7944 7.7276-0.4542 0.75654-0.1302 0.71079 0.9054-0.12872 1.4075-1.1411 1.6925-0.98481 2.2497 1.2357 0.3511 1.3985 0.41 3.4146 0.1316 4.4795-0.5435 2.0782 0.5858 3.1821 3.7043 3.6214 1.5346 0.21614 1.6492 0.0794 0.535-0.63934-0.7798-0.50312-1.7631-0.70147-2.1856-0.44051-0.4222 0.26097-0.4988-0.22612-0.1701-1.0827 0.529-1.3786 0.7797-1.3924 2.1854-0.11299 0.8734 0.79501 2.4061 3.1214 3.4054 5.1689 0.9992 2.0475 2.1914 4.4587 2.6488 5.3591 0.8131 1.6005 2.5486 15.25 2.616 20.57 0.018 1.4732-0.3597 2.4363-0.8396 2.1397-0.48-0.29665-0.8725-0.0599-0.8725 0.52775 0 0.76575-0.5525 0.77344-1.9523 0.0244-1.7903-0.95817-1.9536-0.74342-1.9536 2.593 0 2.9876-0.6982 4.2914-3.9046 7.2814-2.148 2.003-3.9061 4.0301-3.9061 4.5053 0 0.47514-1.9701 2.9794-4.3779 5.5651l-4.378 4.7012 0.1006-12.692c0.054-6.9805-0.3548-14.173-0.9097-15.984-0.555-1.8112-1.2812-6.1493-1.6133-9.6399-0.3319-3.4906-1.2041-8.5424-1.938-11.227-0.7338-2.685-1.8732-7.2985-2.533-10.252-0.6598-2.9535-1.5261-5.8104-1.9236-6.3474s-1.2761-3.3924-1.9538-6.346-1.5352-5.809-1.9051-6.346c-0.3699-0.53699-1.2679-2.954-1.9952-5.3706-0.7271-2.4165-1.6845-4.8104-2.1282-5.3205-0.4435-0.51015-0.8066-1.802-0.8066-2.8691 0-0.87433 0.072-1.29 0.4691-1.1757zm-308.52 0.60499 0.75089 11.801 0.75088 11.802-3.9046 7.9565c-6.0329 12.294-16.267 28.948-17.789 28.948-0.44018 0-0.8009 0.63354-0.8009 1.4074 0 2.0371-1.6476 2.7466-2.3184 0.99831-1.8842-4.91 1.5896-30.15 6.4003-46.499 1.8894-6.4211 2.0081-6.5649 9.4124-11.459zm344.42 7.2084c0.2461-0.24615 1.0118 0.23266 1.702 1.0641 0.69 0.83146 1.0818 1.6765 0.871 1.8779-0.5494 0.52483-3.1109-2.4041-2.573-2.942zm-374.46 11.425c0.66374 0.24104 0.0549 3.3927-1.6763 8.6787-3.7263 11.377-7.5236 29.394-9.1764 43.541l-1.3802 11.81-9.4582 9.1836c-5.2025 5.0505-9.7526 9.2918-10.112 9.4253-0.35911 0.13354-1.9718-0.84699-3.5827-2.1783-1.611-1.3313-3.3703-2.7848-3.9103-3.2309-0.53991-0.44607-4.2751-3.1663-8.2997-6.0442-4.0246-2.8779-7.6578-5.5198-8.0737-5.8712-1.7743-1.4989 2.361-11.979 9.9417-25.194 5.6723-9.8881 23.352-26.463 36.217-33.956 3.4906-2.0329 6.8234-4.3364 7.4073-5.1188 0.58385-0.78248 1.5307-1.2537 2.1039-1.0455zm-56.879 43.006c0.1805 0.18348-1.1452 3.4094-2.9463 7.1684-1.8011 3.759-3.3003 7.6031-3.3311 8.5429-0.0308 0.93974-0.38527 1.7041-0.78803 1.6963-1.2058-0.0223-9.0355-4.2187-8.9748-4.8099 0.0674-0.65788 12.167-10.943 14.247-12.11 0.80544-0.45193 1.613-0.67118 1.7935-0.48771zm-105.96 96.995c0.0542 2.564 9.2932 18.17 11.777 19.892 2.0334 1.4098 2.8205 7.935 0.95681 7.935-0.53699 0-0.9768 0.8454-0.9768 1.8779 0 1.0715-2.3359 3.8725-5.4421 6.5263-8.6538 7.3931-11.538 15.211-7.0067 18.991l2.1968 1.8321-2.9291-0.1273c-1.611-0.0702-12.287-0.60537-23.724-1.1885l-20.794-1.0598 5.9913-8.7875c12.812-18.79 39.867-49.868 39.951-45.891zm16.33 42.494c0.97511 0.0116 3.0094 1.7694 4.5211 3.9061 1.5116 2.1366 2.6105 3.8331 2.4414 3.7716-0.16909-0.0618-1.8463-0.43971-3.7258-0.84109-4.9241-1.0512-8.7874-2.7535-8.7874-3.8702 0-1.2468 3.2686-2.9935 5.5507-2.9664zm5.9284 23.194c0.55844 0.11944 0.44786 0.49379 8e-3 1.1972-0.54203 0.86782-2.3591 2.1871-4.0391 2.9305-1.6799 0.7436-3.4934 1.7332-4.0304 2.1998-0.53699 0.46656-5.1831 3.7862-10.323 7.3772-9.0602 6.3288-13.837 9.9889-18.088 13.859-1.1266 1.0256-4.8603 3.3425-8.2983 5.1488-11.314 5.945-17.843 9.7593-27.507 16.07-5.2463 3.4261-11.618 6.8208-14.158 7.5431-2.5404 0.7225-6.6807 1.5971-9.2022 1.9452l-4.5854 0.6336 0.84382-2.7375c0.46412-1.5053 1.5596-5.0565 2.4343-7.8922 0.87472-2.8355 3.1076-8.4396 4.9615-12.453 1.8538-4.0136 3.3711-7.5168 3.3711-7.7849 0-1.5262 12.088-24.606 13.42-25.623 1.1997-0.91611 9.6503-1.2381 33.877-1.2915 17.753-0.0398 34.535-0.3929 37.294-0.78662 2.2362-0.31914 3.4634-0.45554 4.0219-0.33621zm3.0635 52.506c-0.21675 0.5079-1.5637 3.3395-2.9934 6.2932-5.4954 11.352-8.6201 21.821-8.6201 28.885 0 2.5956-0.50872 3.5774-2.1969 4.2421-5.58 2.1969-18.015 6.7413-19.772 7.2256-1.074 0.2961-5.0284 1.7-8.7874 3.1179-3.7591 1.418-11.887 4.3225-18.063 6.4547-6.1757 2.1323-12.107 4.2647-13.181 4.7384-1.074 0.4738-3.7103 1.3963-5.8583 2.0495-2.1481 0.6535-6.8217 2.2399-10.386 3.5256-3.5648 1.2858-8.0592 2.5936-9.986 2.9062-3.1761 0.5155-3.601 0.3086-4.5567-2.2054-1.8361-4.8291-3.132-12.28-2.2669-13.038 0.45833-0.4014 4.5689-1.931 9.1335-3.3982 29.243-9.3997 68.306-29.642 93.633-48.52 2.362-1.7607 4.1185-2.7849 3.9017-2.277zm-112.23 56.07c1.6402-0.7359 3.0201 1.7716 4.2564 7.4687 0.889 4.0967 1.4122 7.779 1.1628 8.1825-0.24934 0.4034-2.6307 1.4455-5.2905 2.3156-5.2446 1.7153-7.8934 2.0012-7.8736 0.8495 7e-3 -0.4027 0.87179-3.4742 1.9223-6.8251 2.2808-7.2753 4.1824-11.255 5.8226-11.991zm-18.513 5.8454-1.3659 3.1895c-0.75132 1.7544-2.1426 6.0462-3.0922 9.5368-2.1479 7.8956-2.3796 8.1947-7.4759 9.7042-6.3962 1.8947-23.117 8.4553-39.31 15.425-8.0551 3.4671-18.381 7.8277-22.945 9.6886-4.5646 1.8609-10.578 4.4532-13.364 5.7624-2.7861 1.309-5.3802 2.3799-5.7639 2.3799-0.38371 0-9.527 4.3365-20.32 9.6356-25.485 12.513-26.639 13.092-31.827 15.987-2.4165 1.3484-7.4698 4.1217-11.229 6.1629s-8.0065 4.4018-9.4396 5.2462c-33.482 19.725-39.434 23.327-52.793 31.95-3.6184 2.3357-6.8034 4.2465-7.0783 4.2465-0.83045 0-0.56048-1.8001 0.3547-2.3657 0.46988-0.2905 0.85599-1.5236 0.85672-2.7417 5e-3 -4.1383 8.2374-26.574 14.528-39.594 5.3091-10.987 7.6982-15.044 14.217-24.134 3.5084-4.8926 16.572-18.826 20.174-21.518 2.4947-1.8642 5.5612-4.2667 6.8151-5.3376 1.2539-1.0712 3.2311-1.9521 4.3937-1.9595 1.1627-0.01 6.2875-0.9017 11.389-1.988 10.758-2.2907 45.398-8.4763 54.678-9.7643 3.4906-0.4844 9.6413-1.5134 13.669-2.2855 4.0276-0.7722 9.5192-1.6821 12.204-2.0224 2.685-0.3403 7.7383-1.2142 11.229-1.9423 3.4905-0.728 10.521-2.0656 15.623-2.9721 12.359-2.1964 30.681-6.145 36.125-7.7848 2.4165-0.7277 5.5987-1.5884 7.0711-1.9136zm17.074 34.272c0.55888 0.029 0.20526 0.444-0.97548 1.25-7.0703 4.8269-7.2956 4.9155-7.2956 2.8576 0-1.3717 1.0637-2.2299 3.7744-3.042 2.4663-0.739 3.9377-1.0948 4.4967-1.0656zm-24.443 8.7231c0.18447 0 0.51941 1.5711 0.74372 3.4925 0.37259 3.1917 0.0227 3.787-4.0433 6.8753-2.4478 1.8592-7.3064 5.2511-10.797 7.5374-5.9689 3.9099-9.2166 6.1546-21.724 15.018-2.8193 1.9978-7.9815 5.5582-11.472 7.9107-5.6354 3.7982-20.196 14.507-21.481 15.798-0.26851 0.27-2.4649 1.8088-4.8814 3.4183-2.4165 1.6096-4.8336 3.4015-5.3706 3.9818-0.53701 0.5806-9.7638 8.0225-20.504 16.538-17.925 14.212-23.17 18.541-31.161 25.72-1.565 1.406-4.4205 3.8048-6.346 5.3305-1.9255 1.5256-5.4791 4.6048-7.8964 6.8438-2.4173 2.2388-7.0307 6.251-10.252 8.9147-3.2213 2.6637-8.7123 7.5533-12.203 10.866-3.4905 3.3122-9.4221 8.9213-13.181 12.466-3.7591 3.5448-7.3118 6.4553-7.895 6.4663-1.9423 0.038-10.028-6.9395-13.948-12.036-4.7614-6.1901-10.867-17.756-10.867-20.586 0-2.1701 2.8369-4.8273 16.75-15.69 12.954-10.114 27.507-20.296 44.275-30.978 3.759-2.3946 8.8123-5.6224 11.229-7.1728 5.8386-3.7453 7.6597-4.8361 11.717-7.0209 1.8795-1.0123 7.5904-4.1752 12.692-7.0298 5.1016-2.8546 14.328-7.8215 20.504-11.037 6.1756-3.2158 11.669-6.1871 12.206-6.6021 0.53699-0.4149 4.8842-2.8109 9.6613-5.3248 4.7771-2.5139 9.3905-4.9583 10.252-5.4306 1.4828-0.813 11.404-5.5094 30.633-14.503 4.7092-2.2023 8.8097-4.0047 9.1121-4.0047 0.30242 0 3.6983-1.3439 7.5474-2.9863 3.849-1.6426 7.8779-3.3445 8.9519-3.783 5.336-2.179 7.4434-2.9935 7.7491-2.9935zm194.85 5.3848c0 0.2766-2.526 3.7124-5.6138 7.6348-11.509 14.62-23.869 33.595-31.796 48.818-9.2465 17.757-24.424 58.115-29.987 79.736-1.0491 4.0773-2.857 7.0828-7.4301 12.347-4.9877 5.7419-10.791 12.678-13.011 15.55-1.3629 1.7638-4.8642 6.3141-7.7805 10.112-2.9163 3.7978-5.5879 6.9051-5.9369 6.9051-0.34901 0-0.0578-2.7465 0.64793-6.1028 1.2332-5.8655 7.4669-36.704 8.437-41.74 1.8562-9.6364 11.058-39.296 16.491-53.152 4.3552-11.108 12.188-26.135 18.861-36.187 6.9007-10.394 11.386-14.78 23.46-22.944 4.0027-2.7063 15.532-10.732 23.17-16.129 6.6467-4.6964 10.488-6.472 10.488-4.8485zm-269.48 79.56c0.0504 0.051-0.24517 0.4457-0.85242 1.2201-1.2755 1.6263-2.0767 2.1437-2.0767 1.3401 0-0.2027 0.7694-0.972 1.7091-1.7091 0.77431-0.6073 1.1696-0.9014 1.22-0.8511zm-255.25 127.91c0.26851 0 0.01697 0.8783-0.55779 1.9523-0.5748 1.074-1.2647 1.9538-1.5332 1.9538-0.26851 0-0.01697-0.8798 0.55779-1.9538 0.5748-1.074 1.2647-1.9523 1.5332-1.9523zm333.36 203.58c0.53698-0.3318 0.97687 0.081 0.97687 0.9182s-0.43989 1.5232-0.97687 1.5232c-0.53707 0-0.97548-0.4143-0.97548-0.9197 0-0.5052 0.43841-1.1899 0.97548-1.5217zm-16.055 25.896c0.74767 0.01 1.4088 0.2918 1.4088 0.8496 0 1.0776-2.5333 2.1279-3.2953 1.3658-0.3064-0.3063-0.32279-0.9352-0.0373-1.3973 0.34273-0.5543 1.176-0.8252 1.9236-0.8181zm-16.166 22.922c0.537 0.332 0.97688 0.7973 0.97688 1.0341 0 0.2369-0.43988 0.4305-0.97688 0.4305-0.53704 0-0.97547-0.4655-0.97547-1.034 0-0.5689 0.43843-0.7625 0.97547-0.4306zm-6.6549 11.229c0.46317 0 0.0857 1.2077-0.83818 2.6846-2.1933 3.5061-2.2698 3.6058-2.2698 2.8948 0-1.393 2.3317-5.5794 3.108-5.5794zm-22.637 36.614c0.537 0.3317 0.97688 0.7972 0.97688 1.0339 0 0.237-0.43988 0.4307-0.97688 0.4307-0.53702 0-0.97545-0.4655-0.97545-1.0341 0-0.5688 0.43843-0.7625 0.97545-0.4305zm-6.3203 10.567c0.2059 0.3764 0.14427 1.1774-0.17879 2.4128-0.30983 1.1848-0.95157 2.1539-1.426 2.1539-1.2218 0-1.0743-3.6593 0.17877-4.4337 0.74649-0.4613 1.2201-0.5094 1.426-0.133zm-5.884 9.4797c0.53701 0 0.3178 0.4248-0.48772 0.9453-0.80549 0.5206-1.9044 0.9469-2.4414 0.9469-0.53701 0-0.31779-0.4264 0.48772-0.9469 0.8055-0.5205 1.9044-0.9453 2.4414-0.9453zm-8.7274 11.985c0.27579-0.1674 0.43384 0.2599 0.75945 1.1085 0.34943 0.9106-0.2025 1.9071-1.4174 2.5571-1.8536 0.9922-1.9094 0.9093-0.80808-1.2055 0.79683-1.5303 1.1902-2.2927 1.466-2.4601zm-6.7136 11.86c0.23544 0.06 0.18535 0.6906-0.26316 1.8594-0.3386 0.8822-1.0105 1.6032-1.4946 1.6032s-0.34512-0.8583 0.31037-1.9079c0.69104-1.1065 1.212-1.6152 1.4474-1.5547z" fill="#fbeddf" stroke-width=".97638"/></svg>
