<?xml version="1.0" encoding="UTF-8"?>
<svg version="1.1" viewBox="0 0 1100 2400" xml:space="preserve" xmlns="http://www.w3.org/2000/svg"><path id="sena" d="m472.59 461.37c-0.61747 0.0854-1.2627 0.34933-1.9097 0.80252-1.9984 1.3996-2.0188 1.6437-1.5487 18.888 0.29225 10.72 0.86136 17.855 1.4722 18.464 0.61602 0.61533 5.6388 0.9944 13.176 0.9944 7.6115 0 12.662 0.38428 13.465 1.0253 0.7074 0.56419 2.8317 1.5238 4.7212 2.1324 1.8896 0.60861 3.4356 1.4431 3.4356 1.8533s1.0996 1.021 2.4425 1.3582c2.8328 0.71099 11.279 9.1759 15.127 15.161 1.4579 2.2675 3.6564 7.3068 4.8863 11.199 2.6014 8.2332 3.8569 10.507 6.129 11.102 2.2678 0.59302 2.065 2.6808-0.51405 5.2875-3.1543 3.1881-4.9933 7.2474-5.5934 12.35-0.52624 4.4729-3.6369 13.994-6.8563 20.986-6.2959 13.674-8.0102 16.602-10.728 18.322-1.5918 1.0077-4.2238 4.0998-5.8498 6.8711-1.6261 2.7713-4.9625 8.414-7.4132 12.539-2.4508 4.1244-4.4555 7.8572-4.4555 8.2964 0 1.457-15.985 17.338-18.781 18.659-2.3989 1.1335-2.8338 1.9387-3.4262 6.3262-0.73291 5.4281-0.75118 26.621-0.0256 29.991 0.31129 1.4455 1.1042 2.0613 2.6545 2.0613 2.5987 0 2.9274-0.6942 6.2913-13.284 2.8789-10.775 5.5958-16.949 7.4576-16.949 1.2144 0 9.0466 3.9658 19.447 9.8476l3.9978 2.2613-5.5048 5.6257c-6.1744 6.3118-13.179 16.209-14.962 21.141-0.64979 1.7971-1.5097 3.2678-1.9124 3.2678-0.40263 0-0.73006 0.51489-0.73006 1.1448 0 0.62986-1.0364 3.7186-2.3055 6.8644-1.2691 3.1458-3.4042 8.5058-4.7453 11.91-2.5674 6.5172-8.8967 15.81-10.768 15.81-0.6067 0-1.9591 0.92765-3.0048 2.0613-2.6438 2.8662-8.6146 14.411-7.9822 15.434 0.57297 0.927-1.7084 3.5751-3.0799 3.5751-0.88422 0-7.3798 2.942-10.769 4.8782-1.0364 0.59193-4.0027 2.9315-6.592 5.199-5.3371 4.6737-9.8313 13.179-8.3566 15.814 1.0178 1.8187 3.5367 1.0984 3.5805-1.0239 0.0943-4.5611 7.8358-13.764 11.65-13.848 0.62985-0.0139 1.1448-0.35803 1.1448-0.76494 0-0.92996 6.5002-3.8408 8.5768-3.8408 1.3924 0 1.4174 0.25285 0.25097 2.519-0.71329 1.3857-1.5132 3.9628-1.7782 5.7263-0.26498 1.7636-0.97271 6.5037-1.5729 10.535-1.2812 8.6054-0.71044 18.763 1.3246 23.562 0.85871 2.0253 1.444 6.0395 1.444 9.9014 0 7.2693 1.6724 19.212 2.8772 20.545 0.43282 0.4787 0.78776 1.5894 0.78776 2.4693 0 2.3123 6.0983 12.375 7.9246 13.076 2.6126 1.0026 2.973-1.3614 0.71393-4.6903-1.1803-1.7391-2.3977-3.9555-2.7055-4.9252-0.30774-0.96967-0.89917-1.7621-1.3138-1.7621-1.0596 0-1.143-17.573-0.0912-19.208 0.69431-1.0794 1.0533-0.84253 1.8319 1.2051 0.5328 1.4014 0.96894 2.9948 0.96894 3.5415 0 1.856 4.5672 10.324 7.2777 13.492 2.4404 2.853 4.3872 8.791 3.8462 11.733-0.11583 0.62987 0.2202 1.1448 0.74616 1.1448 0.52598 0 0.95552 0.48747 0.95552 1.083 0 1.8753 6.8176 12.626 8.0171 12.643 1.4602 0.0204 1.4784 0.13441-0.7113-4.3978-2.2512-4.6595-3.0309-8.4869-2.0318-9.9769 0.57996-0.8647 1.5742-0.86218 4.544 0.0148 2.0912 0.61747 4.1048 1.4249 4.4742 1.7943 0.36931 0.36936 1.531 0.68218 2.5807 0.69515 1.9925 0.0247 3.8458 3.2485 6.043 10.512 2.0652 6.8266 5.415 13.197 7.7421 14.722l2.3162 1.5178-6.1799 4.3468c-3.3994 2.3907-8.0346 6.3612-10.3 8.8237-3.602 3.9155-4.5764 4.4775-7.7648 4.4823-3.1073 4e-3 -3.8334 0.395-4.9172 2.6384-0.69941 1.4478-1.9468 2.8151-2.7712 3.0396-1.325 0.36088-8.37 15.255-8.37 17.696 0 0.49988-1.3508 0.90995-3.0021 0.90995-3.3639 0-7.4296 3.1693-10.301 8.0306-0.96278 1.6298-2.074 2.9631-2.4693 2.9631-0.39523 0-0.72405 0.72058-0.7314 1.6024-7e-3 0.88168-0.60105 3.29-1.3192 5.3505-0.71816 2.0606-1.4339 5.9385-1.5903 8.6185-0.21615 3.7062-0.66454 4.9727-1.8762 5.2902-0.87604 0.22954-2.5004 1.8852-3.6087 3.6785-1.1084 1.7933-3.6892 4.7315-5.7358 6.5303-2.0466 1.7986-5.3709 4.9054-7.3864 6.9032-2.0156 1.9978-6.1373 5.4488-9.1606 7.6683-3.0232 2.2193-5.9096 4.5338-6.4134 5.1438-0.50388 0.61006-3.3902 2.4561-6.4134 4.1025-3.0233 1.6462-6.1153 3.5218-6.8711 4.1684-0.75581 0.64636-3.5387 2.1535-6.1839 3.3482-2.6453 1.1948-4.8098 2.4842-4.8098 2.8652 0 0.38082-0.42204 0.69251-0.93806 0.69251-1.3936 0-10.388 6.3517-11.315 7.9916-2.2431 3.9629 2.7354 30.524 7.4025 39.494 1.6605 3.1911 3.0195 6.3677 3.0195 7.059 0 2.1841-5.7326 13.516-9.3444 18.471-3.7895 5.1995-3.7652 6.6418 0.20534 12.217 0.9952 1.3976 1.8103 3.0199 1.8103 3.6059 0 1.5347-11.853 15.26-14.318 16.579-0.39227 0.2099-0.52482 0.5383-0.88438 0.8252-1.805 1.0321-3.5024 2.2038-5.0567 3.4907-1.0115 0.8561-1.956 1.7579-2.8249 2.6975-0.16335 0.1197-0.21826 0.097-0.38114 0.2227-1.9588 1.4947-5.3992 4.0703-7.6454 5.725-3.5612 2.6232-6.9408 5.8573-13.674 13.086-0.93866 1.0076-2.425 2.9664-3.3026 4.3521-0.87775 1.3855-2.1396 2.5189-2.8034 2.5189-0.66392 0-1.4815 0.8657-1.8171 1.9231-0.33557 1.0572-2.6507 4.2514-5.1439 7.0993-2.4933 2.8478-4.9075 5.6571-5.3653 6.2417-0.45785 0.5845-5.6231 7.1797-11.478 14.658-5.8551 7.4776-11.201 14.285-11.879 15.127-0.6787 0.8418-1.7422 2.4899-2.3633 3.6636-0.62099 1.1736-2.5083 3.7545-4.1938 5.7344-3.229 3.6334-5.9755 7.509-7.8145 11.027-0.46868 0.6439-0.70291 0.6044-1.1662 1.3434-1.8741 2.9892-5.9472 7.7329-9.0518 10.543-7.0816 6.4096-7.7934 7.1222-13.606 13.612-5.5799 6.2305-15.076 13.266-18.951 14.041-1.4987 0.2995-4.302 1.9919-6.2296 3.7602-3.9784 3.6499-10.781 8.4936-11.931 8.4936-0.42175 0-2.821 1.7726-5.3318 3.9389-5.0691 4.3739-10.858 7.9701-12.827 7.9701-0.70738 0-2.0228 0.7707-2.9243 1.7109-0.90138 0.9409-3.2881 2.223-5.3036 2.8492-2.0155 0.6263-6.0748 2.1984-9.021 3.4931-4.0889 1.7974-5.7261 2.1249-6.9167 1.3813-1.7011-1.0624-4.6755 0.4178-4.6755 2.3267 0 0.5629-1.0335 1.6999-2.2962 2.5272-1.9355 1.2682-2.7259 1.326-5.0393 0.3678-3.3024-1.3683-5.4915-0.072-5.4915 3.2515 0 3.2309-4.2986 7.8506-6.7355 7.2388-1.4339-0.3598-2.7501 0.2866-4.6729 2.2936-1.4721 1.5364-3.1588 2.7927-3.7495 2.7927s-2.679 1.9468-4.6393 4.3253c-1.9604 2.3783-6.0564 7.0163-9.1028 10.307-3.0465 3.29-6.6404 7.6309-7.9863 9.6463-1.3459 2.0156-3.8912 5.7261-5.6566 8.2453-1.8499 2.6402-3.4635 6.2578-3.8086 8.5393-0.65084 4.3026-1.5047 5.5007-13.169 18.482-8.8084 9.8028-15.976 17.629-32.231 35.193l-4.1629 4.4968-5.0406-2.0882c-4.848-2.0092-5.1344-2.0293-7.4696-0.499-3.3989 2.2268-3.2704 6.1759 0.31671 9.7632l2.7444 2.7443-2.5163 3.3686c-1.3834 1.853-2.9683 3.8528-3.5228 4.4433-1.4761 1.572-0.82592 14.161 0.90452 17.508 3.3604 6.4977 12.547 11.274 21.293 11.069 2.7507-0.065 5.7891 0.4888 7.3287 1.3339 4.4784 2.4586 11.667 4.0803 13.666 3.084 1.7339-0.8643 3.8162-3.049 22.403-23.503 4.7868-5.2673 11.831-12.892 15.652-16.943 3.8213-4.0513 10.006-10.648 13.742-14.662 3.7368-4.0132 8.7256-9.2987 11.087-11.745 4.2539-4.4085 21.175-22.485 25.376-27.11 12.159-13.384 14.308-14.988 17.437-13.007 1.7808 1.1274 5.3981-0.38 7.5851-3.1603 0.98205-1.2486 2.322-2.2692 2.9779-2.2692 0.65593 0 4.7713 1.4423 9.1458 3.206 4.3745 1.7635 8.739 3.2059 9.6974 3.2059 0.98495 0 5.7885-4.0328 11.05-9.2759l9.3095-9.276-0.55021-4.0072c-0.30215-2.2043-0.20009-4.0086 0.22543-4.0086 0.42555 0 1.777-1.0039 3.0034-2.2305 1.5818-1.5817 2.6165-1.9845 3.5604-1.3876 1.892 1.1971 4.6163 1.056 7.3703-0.3811 1.3066-0.6819 3.8713-1.5211 5.6996-1.8642 1.8282-0.3428 3.9146-1.4643 4.6353-2.4933 1.4739-2.1043 2.2196-2.2352 22.315-3.9079 11.117-0.9254 14.329-1.5016 15.803-2.8356 2.1894-1.9816 2.3783-5.7566 0.58646-11.71l-1.2642-4.1979 2.1875 0.9957c1.6486 0.7512 2.7499 0.6965 4.4703-0.2241 2.1661-1.1592 2.2828-1.6317 2.2828-9.2534 0-4.4161-0.42305-9.1449-0.94074-10.507-0.89853-2.3633-1.1634-2.4522-5.8337-1.97l-4.893 0.5045-1.0615-3.5442c-1.9844-6.6232-4.5432-7.4591-16.248-5.3023-3.2047 0.5901-6.0764 0.8241-6.3812 0.5194-1.2856-1.2857 1.786-7.032 5.305-9.9244 8.0603-6.6248 9.8974-8.3874 9.8974-9.4945 0-1.0883 10.86-11.314 15.122-14.239 2.3615-1.6204 9.8466-7.9453 16.263-13.742 2.5096-2.2675 5.8542-4.9307 7.432-5.9183 1.5779-0.9876 3.1903-2.3122 3.5832-2.9442 0.58043-0.9337 5.0598-4.5652 13.028-10.562 0.50387-0.3792 2.8957-2.3448 5.3157-4.3683 2.4201-2.0236 5.1899-4.1021 6.1558-4.6193 2.9133-1.559 14.325-12.998 17.358-17.399 1.5611-2.2653 4.3559-6.3864 6.2108-9.1579 1.8549-2.7712 3.6147-5.2449 3.9092-5.4967 0.29463-0.2521 1.9116-2.7257 3.5939-5.4969 4.2204-6.9528 11.78-16.767 18.172-23.591l5.3641-5.7249h5.631c4.065 0 5.9579-0.4089 6.8107-1.4695 3.4097-4.241 10.498-11.62 11.863-12.351 2.348-1.2567 8.2182 2.6739 7.6682 5.1345-0.22748 1.018 0.17598 5.4991 0.8978 9.9581 0.88992 5.4973 1.0226 8.6488 0.412 9.79-1.0292 1.9231-6.1713 3.5837-11.125 3.5911-4.3005 0.01-7.9628 1.392-8.6908 3.2894-1.1672 3.0417 3.0919 3.4403 12.223 1.1434 5.4945-1.3823 6.4028-0.32 3.0195 3.5335-4.0503 4.613-4.7797 7.0775-3.7187 12.572 0.495 2.5634 1.1694 8.8368 1.4991 13.941 0.66649 10.323 0.7239 10.128-5.8056 19.802-1.2832 1.9009-1.331 2.5552-1.9446 3.8435-0.95172 1.245-1.7522 2.7643-2.3606 4.4808l-1.3594 1.5301c-1.1194 1.2596-3.0791 4.3518-4.3534 6.871-3.8474 7.6061-5.4263 9.3179-9.6209 10.426-4.46 1.1783-5.4638 1.8967-9.7524 6.9813-1.7 2.0154-6.0288 6.7632-9.6195 10.551-10.611 11.193-19.511 21.314-23.688 26.939-2.1511 2.8962-7.6224 9.4847-12.158 14.64-13.543 15.396-18.235 21.056-21.864 26.375-1.1385 1.6686-3.834 5.3011-5.9893 8.0725-2.1555 2.7712-4.9997 6.4998-6.3209 8.2867-3.1405 4.2476-16.277 14.692-26.152 20.792-1.435 0.8866-5.9695 3.9553-10.077 6.8201-4.1076 2.8648-9.3235 6.4746-11.591 8.0212-9.97 6.7998-18.236 12.815-24.095 17.532-1.6126 1.2987-4.7875 3.6359-7.055 5.1937-2.2674 1.5579-5.5423 4.0379-7.2777 5.5114l-3.1551 2.6802 1.1314 5.0581c1.5417 6.889 6.7451 17.509 11.652 23.78 2.2336 2.855 4.0623 5.4442 4.0623 5.7533 0 0.3088 3.2978 4.9418 7.3287 10.296 4.0309 5.354 7.3287 10.276 7.3287 10.938 0 0.6611-1.7516 3.1959-3.8932 5.6338-2.1415 2.4377-5.9554 6.8608-8.4748 9.8287-2.5194 2.9682-8.2907 9.4511-12.826 14.405-10.174 11.117-16.851 18.833-25.743 29.757-4.0974 5.0329-10.447 11.309-15.753 15.568-14.135 11.345-21.26 18.676-21.253 21.867 7e-3 2.9254 2.2647 6.8856 5.6579 9.9215 1.1851 1.0605 3.996 4.1964 6.2457 6.9678 6.7612 8.3289 9.19 10.973 19.329 21.046 11.479 11.404 16.903 16.086 27.394 23.652 4.2829 3.0886 8.42 6.1483 9.1927 6.7986 0.77276 0.6505 3.0393 2.2386 5.0379 3.5296 1.9985 1.291 5.9021 3.8204 8.6734 5.6205 16.856 10.948 46.784 25.86 69.168 34.462 39.243 15.082 94.545 29.169 139.26 35.473 6.0465 0.8524 11.534 1.7067 12.193 1.8974 0.6594 0.1909 2.4559 3.12 3.9925 6.5089 2.1479 4.7373 2.5607 6.486 1.7876 7.5663-3.7326 5.2136-4.8026 8.6639-4.9721 16.034-0.1691 7.3547-0.0714 7.746 2.7739 11.154 1.6217 1.9427 4.8643 6.2777 7.2052 9.6331l4.2556 6.0994-2.0224 9.4745c-2.4715 11.573-4.5846 17.821-9.2586 27.385-1.973 4.0375-3.5872 7.9217-3.5872 8.6317s-0.35168 1.5092-0.78243 1.7755c-1.2046 0.7446-5.3499 12.93-7.3515 21.612-4.9633 21.528-2.2225 44.754 6.8214 57.804 2.6297 3.7947 11.515 11.822 13.085 11.822 2.5377 0 1.792-2.4143-1.9365-6.2713-10.783-11.154-14.347-19.65-15.045-35.87-0.80159-18.617 1.2099-30.976 7.0925-43.583 1.4278-3.0597 4.4215-9.4507 6.6537-14.201 4.3787-9.3189 6.0199-13.99 8.6626-24.663l1.7003-6.8658 2.4679 4.2113c1.3574 2.3163 3.2885 4.9553 4.2918 5.8633 1.0032 0.9079 1.8237 2.1511 1.8237 2.7632 0 0.6119 1.5858 3.1248 3.5228 5.584 4.4601 5.6622 11.136 17.139 11.136 19.142 0 0.839 0.79986 2.2096 1.7768 3.0462 1.9864 1.7013 2.0539 1.1671-3.2007 25.342-2.3738 10.921-3.8835 18.436-6.349 31.607-0.70739 3.7789-1.9696 9.756-2.8047 13.283-2.086 8.8102-2.2049 31.924-0.19995 38.937 2.09 7.3115 3.1856 9.8369 4.4501 10.258 1.0609 0.3537 0.31202 3.328-2.8382 11.271-5.0181 12.651-5.8481 17.899-5.866 37.104-0.0152 15.855 0.21788 18.687 2.0654 25.173 1.9856 6.9711 3.2951 9.1472 4.9063 8.1514 1.0045-0.6207 0.9252-5.6125-0.0993-6.2458-0.45692-0.2822-1.1053-4.5315-1.44-9.4436s-0.75597-10.375-0.93675-12.139c-0.66552-6.492 1.3792-24.904 3.5939-32.357 5.8391-19.652 13.085-34.628 27.098-56.009 2.7713-4.228 6.2693-9.0599 7.7729-10.736 2.439-2.7183 2.7636-2.8505 3.0088-1.2159 0.15124 1.0079 0.88189 3.8942 1.6252 6.4135 0.74331 2.5196 1.3691 7.4666 1.389 10.994 0.0198 3.5272 0.0576 7.2375 0.0846 8.2454 0.78215 29.502 0.72003 42.025-0.2147 43.151-0.80886 0.9747-0.78901 1.9416 0.0831 4.0475 0.8213 1.9838 1.0302 7.0198 0.73541 17.794-0.4682 17.11 0.59036 14.657-11.231 26.007-12.926 12.41-17.912 17.512-17.912 18.332 0 0.4621 0.61207 1.3488 1.3608 1.97 1.6456 1.366 3.7532-0.1993 16.627-12.358 4.8018-4.5348 9.1038-8.3813 9.5605-8.5472 0.99012-0.3596 0.0255 30.786-1.0173 32.831-0.38669 0.7588-0.50109 4.0565-0.25496 7.3288 0.24603 3.2725-0.0123 10.485-0.57438 16.028-0.56163 5.5427-0.98929 13.375-0.95011 17.406 0.0768 7.9755-1.4234 20.34-2.6586 21.918-0.42497 0.5428-1.0084 3.8725-1.2977 7.3998-0.57826 7.0516-2.8581 17.289-4.489 20.155-0.57354 1.008-1.1054 4.7182-1.181 8.2453-0.20888 9.7367-2.2917 23.419-4.1133 27.02-1.1352 2.2439-1.3896 3.8418-0.8428 5.297 0.76338 2.0314-3.093 29.505-4.7225 33.646-0.39666 1.0076-0.94991 4.6746-1.2293 8.1485-0.27945 3.4742-1.0827 6.9788-1.7849 7.788-0.70217 0.8087-1.497 2.5018-1.7661 3.7615-0.26955 1.2596-1.7906 7.855-3.3792 14.658-1.5885 6.8026-3.2674 14.223-3.7308 16.491-4.7189 23.092-5.9555 26.596-11.76 33.303-2.0735 2.3957-4.2343 5.223-4.8017 6.2833-1.4302 2.6725-1.1887 13.259 0.4603 20.163 0.75618 3.166 1.345 6.8856 1.3098 8.2668-0.15639 6.0669 4.2414 10.691 11.964 12.578 1.8246 0.446 11.562 0.7381 21.64 0.6484l18.322-0.1639 6.125-2.9202c10.052-4.793 20.512-16.617 25.38-28.687 1.1177-2.7712 2.4802-5.9415 3.0262-7.0456 0.58316-1.1788 0.73349-3.6259 0.36499-5.9304-0.34506-2.1575-0.81964-10.64-1.0548-18.848l-0.42813-14.924 3.5456 0.5676c3.4667 0.5546 3.7016 0.4066 10.53-6.6296l6.9824-7.1956 0.024-7.7877c0.0344-11.295 1.7445-32.482 3.1845-39.452 0.68325-3.3075 2.1507-7.9471 3.2611-10.309 3.654-7.7737 2.066-23.932-4.0863-41.586-1.7927-5.1437-3.2598-9.9878-3.2598-10.764 0-1.1636 1.3984-1.4118 7.9367-1.4118 6.7987 0 8.4918-0.326 11.82-2.2761 7.2979-4.2769 17.77-19.617 22.011-32.242 2.5467-7.5806 2.6768-10.789 0.84817-20.91-1.5632-8.6515-1.7366-21.503-0.44552-32.982 1.7475-15.536 2.4005-16.85 4.5534-9.1607 1.348 4.8145 1.3836 4.8446 7.6159 6.4887 5.6064 1.4791 7.0485 0.8263 11.099-5.0179l2.625-3.7886-1.503-6.6279c-2.0277-8.9408-4.2477-26.859-5.1909-41.9-1.2268-19.565-1.0009-18.984-12.163-31.262-3.9498-4.3449-8.0822-9.1388-9.1834-10.654-1.1011-1.5152-4.3523-5.8649-7.2241-9.6652-7.2694-9.6198-8.5541-14.347-7.0428-25.898 1.0636-8.1294 1.3981-9.0455 4.5561-12.501 2.7961-3.059 3.5127-4.6511 3.9952-8.8654 0.32355-2.8252 1.0543-7.3315 1.6239-10.013 0.78323-3.688 0.77137-5.6043-0.0467-7.8709-0.91667-2.5353-0.74007-4.3529 1.1501-11.805 1.2289-4.8443 3.9123-12.386 5.9625-16.762 2.0502-4.3748 3.7267-9.0532 3.7267-10.396 0-3.0945-4.1384-7.1607-11.452-11.25l-5.4969-3.0744-0.57979-10.043c-0.63798-11.07-2.7099-24.709-4.9346-32.487-3.1285-10.938-4.4283-15.174-5.062-16.49-0.36405-0.7559-1.1216-2.5076-1.6842-3.8933-0.56218-1.3856-1.4173-3.4478-1.8989-4.5814-0.48158-1.1339-2.0276-6.3903-3.4356-11.68-2.1137-7.9423-2.5606-11.501-2.5606-20.417 0-8.1117 0.31031-10.99 1.2454-11.568 0.68463-0.4231 4.395-1.4577 8.2454-2.3002 12.34-2.6999 21.846-5.9145 28.723-9.7108 1.2997-0.7173 1.8862-0.1433 3.4356 3.3605 1.0276 2.323 1.8735 4.4798 1.8735 4.7936 0 0.3139 0.43482 2.1178 0.95954 4.0073 0.86392 3.1107 1.2491 3.4355 4.0743 3.4355 1.7162 0 4.067-0.3698 5.2244-0.8212 2.6798-1.0452 7.0471-2.2217 19.053-5.1307 18.994-4.6019 47.718-14.548 57.066-19.762 0.90086-0.5027 5.0231-2.6177 9.1605-4.6998 17.513-8.8124 30.265-17.56 48.809-33.487 3.667-3.1494 7.0159-5.7265 7.4415-5.7265 0.42559 0 1.9394 3.814 3.3644 8.4747 1.4251 4.6609 2.9329 9.299 3.3511 10.307 1.0623 2.5605 3.6362 20.496 3.1309 21.817-0.22841 0.5971-1.0438 4.3847-1.8117 8.4156-1.7378 9.1237-2.0104 10.371-2.7149 12.78-0.47596 1.1309-0.90329 2.4213-1.244 3.7562-0.43535 0.4789-2.3345 5.4053-4.2207 10.948-1.886 5.5426-4.6212 12.345-6.0779 15.116-1.4565 2.7712-2.6628 5.4506-2.6813 5.9544-0.0178 0.5041-0.82873 2.5649-1.8023 4.5804-0.97364 2.0155-1.7852 4.015-1.8024 4.4419-0.0173 0.4272-1.6452 4.1376-3.6194 8.2453-6.3492 13.212-8.0833 17.588-9.0908 20.662-0.48491 0.8302-0.96699 1.6833-1.4387 2.5457-1.4928 2.7369-2.8239 5.4625-3.7925 7.765-0.93241 1.1961-2.0964 3.1845-2.8639 5.1976-0.89743 2.3538-2.2581 5.0148-3.0248 5.9129s-1.4184 1.9279-1.4481 2.2893c-0.0295 0.3617-1.9486 4.5751-4.2649 9.3619-2.3165 4.787-5.2323 10.97-6.4792 13.742-2.6774 5.9508-5.5633 17.049-4.7682 18.336 1.0527 1.7031 2.4582 0.8925 9.5417-5.5035l7.0965-6.4081 1.6615-7.5637c0.91426-4.1603 2.4252-9.9212 3.3577-12.803 0.93256-2.8813 1.6964-5.9996 1.6964-6.9289s0.98628-3.7363 2.1929-6.2375c0.84521-1.7521 1.7254-4.2921 2.6317-6.6378 1.0573-1.7072 2.282-4.1772 3.4732-7.0053 1.1138-2.6476 2.1374-5.4638 2.9229-8.0411 0.0427-0.1336 0.12175-0.1147 0.15701-0.255 0.3208-1.2782 1.8046-4.9904 3.2973-8.2495 1.4926-3.2589 2.692-6.0267 2.6666-6.1505-0.0261-0.1239 1.5499-3.1319 3.5026-6.6844 1.9529-3.5527 4.48-8.4998 5.615-10.994 1.135-2.4939 3.7026-7.9457 5.7062-12.116 2.0036-4.1701 3.3939-7.9839 3.0906-8.4748-0.30327-0.4909-0.21464-0.8923 0.19597-0.8923 0.80756 0 1.7557-1.9507 5.3707-11.052 5.7666-14.518 7.7055-20.882 7.7219-25.338 9e-3 -2.6723-4.5536-20.992-6.3397-25.451-3.8251-9.5502-6.7505-18.812-6.1357-19.427 1.3716-1.3714 20.942 24.454 29.35 38.728 2.3544 3.9974 4.6748 7.8853 5.156 8.6411 0.76414 1.2003 7.9036 16.445 10.084 21.53 0.43205 1.0079 2.0683 5.9549 3.6355 10.994 1.5672 5.0387 3.2172 9.8472 3.6677 10.685 0.4505 0.8378 1.0991 3.7228 1.4413 6.4121 0.34217 2.6894 0.92057 5.3029 1.2857 5.8068 0.36519 0.5039 1.3936 6.3251 2.2841 12.937 1.5811 11.74 1.5554 29.681-0.0523 37.679-1.2486 6.2092 4.5732 1.787 9.1458-6.9476 5.401-10.317 5.5012-10.74 4.3454-18.333-0.58714-3.8576-1.0615-8.8127-1.0615-11.011 7e-3 -4.0214-2.7059-16.674-5.0339-23.486-4.0548-11.865-7.1778-19.48-11.652-28.42-6.0424-12.073-8.3143-16.315-9.0666-16.928-0.31002-0.2524-0.85265-1.3864-1.2065-2.5205-0.3538-1.1336-1.0278-2.0612-1.4977-2.0612-0.46991 0-0.85483-0.444-0.85483-0.9862 0-1.6933-11.071-17.626-19.686-28.331-1.0137-1.2596-5.8606-6.4335-10.771-11.498l-8.9283-9.2103 3.6596-3.5736c4.402-4.2984 4.5984-6.5469 1.0226-11.744-3.8027-5.5271-14.769-25.908-14.769-27.45 0-0.5408-14.262-30.623-15.711-33.139-5.2073-9.0403-21.85-44.043-21.85-45.955 0-0.2743 1.339 0.3116 2.9766 1.303 1.6376 0.9914 4.009 2.1066 5.2688 2.4774 1.2597 0.3708 4.0553 2.106 6.2136 3.8556 2.2126 1.7939 4.5108 2.956 5.2687 2.6652 2.6381-1.0125 1.0351-7.978-3.2946-14.316-0.86062-1.2598-2.682-4.97-4.0474-8.2452-1.3653-3.2752-3.0417-7.1926-3.7241-8.7043-0.68235-1.5117-2.4503-6.459-3.9294-10.994-1.479-4.5349-3.4125-9.8935-4.2958-11.909-2.7787-6.3379-3.1407-7.2362-4.4836-11.14-1.4339-4.1692-1.1863-4.8893 1.6802-4.8984 1.0497 0 3.4543-0.4348 5.3439-0.9596 2.9856-0.829 3.4355-1.3103 3.4355-3.6771 0-3.1463 4.0117-10.017 5.8484-10.017 0.72959 0 2.2597 2.9363 3.7 7.1006 1.3507 3.9052 3.4656 9.4195 4.6997 12.254 1.2339 2.8343 2.2425 6.0048 2.2425 7.0458 0 1.0409 0.35086 2.1081 0.77836 2.3726 0.42759 0.2642 1.9207 3.8964 3.3188 8.0707 1.3981 4.1746 2.9037 7.9815 3.3456 8.4602 0.44189 0.4785 0.80255 1.4115 0.80255 2.0719 0 0.6606 0.775 2.9476 1.7218 5.0835 0.94683 2.1361 3.0447 7.5943 4.6621 12.13 6.7135 18.823 7.6818 21.314 10.33 26.569 2.9922 5.9382 8.6307 15.01 10.25 16.49 0.55104 0.5037 2.852 3.7832 5.1131 7.2871 2.2611 3.5037 5.5086 8.0386 7.216 10.077 1.7073 2.0385 4.0733 5.149 5.2579 6.9126 1.1848 1.7635 4.5282 6.5388 7.4307 10.611 2.9028 4.0723 7.4501 10.463 10.105 14.201 2.6551 3.7378 5.6308 7.8257 6.612 9.0853 0.98126 1.2599 4.5806 6.2217 7.9984 11.026 6.6831 9.3942 33.954 47.027 40.324 55.645 2.1326 2.8853 5.4303 7.3608 7.3287 9.9461 5.3892 7.3376 17.586 23.137 22.541 29.198 2.4719 3.0233 8.8389 10.959 14.148 17.635 9.5877 12.054 12.275 14.121 13.469 10.357 0.37998-1.1974 3.0345-2.7327 8.0776-4.6715 4.1315-1.5886 9.5734-3.8368 12.093-4.995 11.648-5.3548 13.776-6.0599 16.648-5.5252 2.4079 0.4481 3.0109 0.2097 3.5175-1.3863 0.7569-2.3847 0.5089-3.4021-5.2004-21.351-3.3633-10.576-4.3441-14.795-3.6086-15.53 0.5553-0.5551 1.0105-1.7494 1.0105-2.6543 0-1.5952-2.7315-10.256-4.9989-15.853-1.6925-4.1773-3.3244-8.8572-4.1549-11.91-0.4114-1.5117-1.8583-5.4278-3.2154-8.703-1.3572-3.2751-3.2106-8.2223-4.1187-10.993-8.2049-25.041-15.797-44.519-19.561-50.181-2.2745-3.4211-5.1886-8.3154-6.4752-10.877-1.2866-2.5616-2.9985-5.2051-3.8046-5.8741-0.80594-0.669-2.7174-3.0355-4.2474-5.2591-2.2959-3.3366-2.4828-3.9571-1.0683-3.5471 0.94262 0.2732 6.868 1.7721 13.166 3.3296 9.6581 2.3881 25.608 7.814 32.522 11.064 4.7389 2.2274 14.102 5.3175 16.97 5.6015 2.8665 0.284 3.2146 0.071 3.4689-2.1297 0.1557-1.3455-0.3303-3.2006-1.0789-4.1227-3.7196-4.5816-24.175-28.492-25.772-30.124-1.6806-1.7184-12.686-13.771-19.616-21.483l-2.8813-3.2059 22.242-0.5035c20.775-0.4701 22.574-0.6464 27.281-2.6772 2.7712-1.1959 6.6888-3.2513 8.7043-4.5668 3.5915-2.3445 3.6691-2.5112 3.9308-8.3689 0.3128-7.009-0.5922-8.2308-7.314-9.8651-6.2145-1.5108-11.789-1.2809-14.941 0.6158-5.9957 3.6091-17.921 5.21-38.807 5.21h-19.569l-2.4183-2.8384c-4.0084-4.7055-17.261-19.757-21.702-24.646-5.947-6.5487-10.5-11.648-16.118-18.052-2.6996-3.0781-6.5014-7.3802-8.4479-9.5606-1.9465-2.1804-3.3267-4.5163-3.0678-5.191 0.2589-0.6746 2.881-2.1982 5.8284-3.3845 4.4192-1.7786 7.4756-2.2239 17.429-2.5403l12.07-0.3826 1.444 2.79c0.79394 1.5352 1.4427 3.3322 1.4427 3.9925s1.8647 3.9786 4.1428 7.3744c3.4594 5.1563 4.5628 6.1748 6.698 6.1748 3.2462 0 6.5664-3.0519 6.5664-6.0352 0-5.2663-13.664-20.866-21.987-25.102-8.2022-4.1748-18.911-4.4538-33.867-0.8819-11.11 2.6538-13.746 2.4333-17.918-1.5016-2.7653-2.608-3.2187-3.4577-2.1902-4.1078 1.7985-1.1371 7.2686-0.012 9.9013 2.0356 2.5004 1.9451 4.3794 1.0681 4.854-2.2654 0.22234-1.5615 0.98059-2.0435 3.4906-2.2182 9.1434-0.6358 24.716-3.6435 29.774-5.7504 1.0077-0.4198 3.0443-1.1277 4.5253-1.5742 4.0083-1.2086 5.8651-4.4251 7.471-12.941 1.6621-8.8139 1.5281-9.1105-4.8984-10.806-8.0012-2.1108-10.576-1.6443-18.575 3.3685-8.0167 5.0237-12.976 7.004-21.758 8.6841-5.7418 1.0985-5.7608 1.0943-12.671-2.3366-3.8065-1.8895-7.8407-4.3-8.9659-5.3571-2.226-2.0911-5.1116-2.4951-6.6725-0.9339-0.54324 0.5432-2.171 0.8523-3.6181 0.687-2.1306-0.2436-3.0678-1.1822-4.9225-4.9319-2.9784-6.0222-5.2709-11.562-6.0176-14.536-0.32853-1.3091-0.97153-2.6101-1.4279-2.8921-0.45625-0.282-0.58158-0.9132-0.27919-1.4023 0.30249-0.4895-0.5151-1.7272-1.8171-2.7514-1.3019-1.0241-2.3673-2.2542-2.3673-2.7323 0-1.9938-8.7579-14.146-14.502-20.125-2.0712-2.1558-4.6391-5.8075-5.7062-8.1152-1.0672-2.3078-3.8972-6.2573-6.2873-8.7767-6.0254-6.3505-10.247-12.621-15.223-22.609-2.3408-4.6976-4.6111-9.1589-5.0446-9.9147-2.9674-5.1733-5.4566-10.689-5.4566-12.09 0-0.9088-0.5163-1.6587-1.146-1.6587-1.3092-0.01-3.4732-3.9837-20.447-37.555-13.359-26.422-18.1-35.326-21.527-40.418-3.1135-4.6265-8.765-12.778-10.565-15.238-1.1992-1.6394-1.2506-2.0799-0.25094-2.1525 0.69138-0.051 0.22641-0.3765-1.0334-0.7249-1.504-0.4158-2.3992-1.4071-2.6075-2.8864-0.17445-1.2391-0.86652-2.5661-1.5366-2.9484-2.2688-1.2939-15.095-21.668-15.095-23.979 0-1.249 1.0297-3.7897 2.2894-5.6459 2.564-3.7782 2.7876-5.0041 1.1985-6.5933-0.74519-0.7452-1.072-5.024-1.028-13.452l0.066-12.358 7.5703-11.238c4.1638-6.1811 8.0681-11.857 8.676-12.613 2.4636-3.0632 2.3615-4.6917-0.44689-7.1556-3.0927-2.7139-3.2735-4.0813-1.4481-10.938l1.2803-4.8112-3.9294-4.0435c-5.0902-5.2374-13.157-21.736-16.889-34.546-1.5598-5.3529-2.8357-10.584-2.8357-11.626 0-2.4911-1.371-3.238-5.6432-3.0705-4.0241 0.1576-3.9714 0.26038-2.1446-4.112 1.7247-4.1278 1.777-7.6467 0.11277-7.6467-3.0115 0-3.4558-2.4096-1.4601-7.9271 1.0656-2.9458 2.1394-6.5928 2.3861-8.1044 0.24673-1.5116 0.76922-3.9853 1.1609-5.4969 1.0009-3.8621 0.18874-9.2481-1.6453-10.908-0.85249-0.77137-2.8722-1.5034-4.4877-1.6266-2.8399-0.21639-2.9355-0.36141-2.9444-4.3804-0.0105-5.9113-1.707-19.968-2.6343-21.827-0.42997-0.86281-1.3518-3.424-2.0479-5.6914-1.0675-3.4773-1.6716-4.1686-3.8609-4.4193-2.3135-0.26494-6.3 1.0288-10.876 3.5294-2.599 1.4204-3.1008-1.029-0.64685-3.1564 4.0851-3.5414 9.0124-10.244 11.458-15.586 1.6894-3.69 2.6576-4.9323 3.1819-4.0837 0.5953 0.96329 0.88024 0.88883 1.3568-0.35296 0.33181-0.86476 1.0358-1.3053 1.5648-0.97831 0.54053 0.33405 0.69245 0.15887 0.34623-0.40125-0.3387-0.54813 2.0604-4.0118 5.3318-7.6964 3.2713-3.6846 6.2032-7.8622 6.5155-9.284 0.31236-1.4218 1.1478-2.8081 1.856-3.0799 0.70828-0.27181 1.2884-1.2012 1.2884-2.0654 0-0.86406 0.67351-3.5504 1.4977-5.9692 1.3148-3.8588 1.374-5.9838 0.48045-17.341-0.56015-7.1186-1.297-14.18-1.6373-15.692-0.34019-1.5116-0.65915-6.6645-0.70861-11.452-0.0502-4.7868-0.34376-8.9099-0.65351-9.1619-0.30989-0.25193-0.81175-3.9623-1.1152-8.2454-1.3857-19.55-2.806-30.168-5.2661-39.394-0.47024-1.7635-2.053-7.7201-3.5173-13.237l-2.6625-10.031 1.7983-2.3378c0.9887-1.2862 4.0567-5.2241 6.8175-8.7512 2.7607-3.5271 6.4687-8.2686 8.2413-10.536 6.4204-8.2127 9.3601-12.495 11.86-17.277 2.36-4.5132 2.476-5.2212 1.5782-9.6007-1.8334-8.9426-3.6248-14.818-6.192-20.303-1.4148-3.0232-2.6084-5.7601-2.6531-6.0806-0.0448-0.32063-2.6447-4.4424-5.7773-9.1606-4.1623-6.2685-8.1502-10.764-14.807-16.693-5.0099-4.4625-10.485-8.982-12.168-10.044-1.6826-1.0615-3.7344-2.3576-4.5588-2.8799-6.3498-4.024-14.53-8.7365-15.165-8.7365-0.4234 0-2.4125-0.88378-4.4206-1.9634-4.6216-2.4846-15.402-6.2819-17.834-6.2819-1.0173 0-1.8493-0.32276-1.8493-0.71663 0-0.39389-1.9587-1.2546-4.3521-1.9124-2.3934-0.65771-5.382-1.5561-6.6416-1.9969-1.0076-0.35265-6.6831-1.115-9.8263-1.6427l-0.11675-0.0202c-1.4434-0.26357-2.9005-0.50746-4.3696-0.73138-2.445-0.36292-2.185-0.46898-5.5573-0.92869-0.43068-0.0588-0.89604 0.0511-1.3568 0.0214-5.9076-0.64468-11.933-0.9708-17.975-0.97296-5.2778 0.0303-10.54 0.30809-15.718 0.82936-3.4218-0.0705-7.1256 0.11588-8.3459 0.76898-0.96943 0.5188-4.8579 1.0337-8.6412 1.1448-4.954 0.14539-6.8805 0.5374-6.8805 1.401 0 0.65962-0.41406 0.94483-0.91792 0.6334-0.50391-0.31142-0.9166-0.10572-0.9166 0.45763 0 0.45794-0.34567 0.48826-0.69245 0.40395-1.6479 0.49536-3.2629 1.0186-4.842 1.5688-3.2099 0.24286-15.428 4.185-18.025 5.8713-1.116 0.72474-2.662 1.3179-3.4356 1.3179s-1.4065 0.41136-1.4065 0.91524c0 0.50384-0.85141 0.91658-1.8922 0.91658-1.0409 0-2.7396 0.45372-3.7751 1.0078-1.5164 0.81157-1.7324 0.76654-1.1112-0.22947 0.42415-0.68012 0.89489-2.0285 1.0454-2.9968 0.15062-0.96817 0.62087-2.205 1.0454-2.7485 1.1926-1.527 3.5787-10.279 5.0527-18.535 1.3062-7.3157 2.9412-10.501 6.3531-12.37 1.2374-0.67796 2.0984-0.54159 3.2677 0.51665 0.87298 0.79001 2.8573 1.6905 4.4098 2.001 2.5242 0.50486 3.3602 0.022 7.9151-4.5695 2.8014-2.8239 5.3716-5.1345 5.7103-5.1345 0.33878 0 2.2357-1.4633 4.2152-3.2517 2.4458-2.2096 4.1444-3.0783 5.3023-2.7109 1.3656 0.43346 1.6066 0.16886 1.2146-1.3299-0.26894-1.0284-0.0522-1.8694 0.48044-1.8694 2.7744 0 1.5368 2.8766-3.7187 8.6466-2.81 3.0851-1.5804 7.8441 2.0264 7.8441 1.6747 0 10.047-6.0934 14.603-10.627 1.9234-1.9142 4.0426-3.12 5.4969-3.1282 1.7919-0.0106 2.0453-0.21887 1.04-0.85485-1.05-0.66424-0.67988-1.1885 1.7701-2.5055 1.704-0.91593 4.3632-2.9289 5.9089-4.4742 2.956-2.9553 7.1067-6.2414 14.047-11.118 2.2967-1.6139 4.4182-3.2635 4.7145-3.665 0.93221-1.2635 9.0615-7.6012 9.7497-7.6012 1.4848 0 5.1486-5.0024 5.2928-7.2268 0.14994-2.3135-0.011-2.3913-4.8836-2.3418-2.7714 0.0283-7.1002 0.32556-9.6195 0.66028-2.5194 0.3347-9.7179 1.0622-15.997 1.6171-6.2789 0.55492-11.687 1.1766-12.017 1.381-0.33063 0.20434-2.7334 0.4459-5.3399 0.53815-2.6064 0.0922-4.9118 0.4468-5.1225 0.78776-0.21075 0.34101-2.5646 0.55053-5.2311 0.46566-6.2417-0.19866-8.0547 0.72861-8.0547 4.116 0 2.3477 0.45075 2.802 3.6261 3.6569 1.9942 0.53699 3.8734 1.378 4.1764 1.8681 0.30301 0.49019 3.0251 0.89108 6.0484 0.89108 3.4313 0 5.2839 0.34339 4.9306 0.91528-0.31145 0.50381-1.7271 0.91658-3.1456 0.91658-1.4185 0-4.3316 0.61839-6.4739 1.3743-2.1423 0.7558-5.4933 1.3742-7.4456 1.3742-1.9521 0-3.5492 0.3092-3.5496 0.68713-3.4e-4 0.37788-3.9402 0.75255-8.7553 0.83337-8.3864 0.14071-8.8497 0.25617-11.041 2.7484-1.2579 1.4308-2.8212 3.8389-3.4718 5.3505-0.65105 1.5116-1.8462 3.2982-2.6559 3.9697-1.5478 1.2837-5.2244 0.68178-5.2244-0.85484 0-0.48611-0.6786-2.4157-1.5084-4.2891-0.82975-1.8734-1.6258-3.9758-1.7688-4.6716-0.14306-0.69571-0.7012-1.705-1.24-2.2439-0.53876-0.53879-0.98883-1.8255-0.99978-2.8584-0.0206-1.8996-3.2419-5.7643-14.586-17.499-4.2543-4.4005-7.4477-6.8558-10.02-7.7045-2.076-0.68516-3.7751-1.5413-3.7751-1.9016 0-0.55558-1.7201-1.1152-6.8711-2.2371-0.50393-0.10976-1.1223-0.29402-1.3743-0.40932-0.95976-0.43922-4.3134-0.99808-9.4719-1.5782-3.6886-0.41484-5.5111-1.0559-5.8659-2.0654-0.28335-0.80528-1.0179-2.0825-1.6319-2.8384-0.61457-0.75575-1.8438-3.6421-2.731-6.4134-0.88727-2.7713-1.9136-5.4507-2.2814-5.9545-0.36773-0.50384-0.93681-2.0389-1.2642-3.41-0.61816-2.5892-2.2164-3.9305-4.0689-3.6745zm-10.338 5.8096c-1.9141-0.23765-4.489 1.6094-4.489 3.9576 0 0.79182-0.4367 1.44-0.97026 1.44-0.53361 0-0.72044 0.40446-0.41468 0.89917 0.57949 0.93761-2.5884 13.037-4.1387 15.807-0.48956 0.87495-0.88976 2.4482-0.88976 3.496 0 3.2484-1.758 5.5954-11.457 15.293-10.726 10.726-14.919 15.638-20.264 23.743-2.0785 3.1515-4.1041 5.4376-4.4997 5.0808-0.39564-0.35684-0.43982-0.16228-0.0993 0.43213 0.56381 0.98399-4.1773 10.205-5.8042 11.288-0.37832 0.25195-0.98139 1.4001-1.3407 2.5512-0.3593 1.151-1.9093 4.8615-3.4436 8.2453-1.5343 3.3839-2.718 6.1518-2.6303 6.1518 0.0877 0-1.0453 2.6806-2.5189 5.9558-3.0723 6.8284-5.4956 15.998-5.8096 21.987-0.11884 2.2675-0.64903 4.5824-1.1783 5.1453-0.52923 0.56275-1.8864 2.1088-3.0168 3.4355-2.4617 2.8892-4.2027 3.027-7.314 0.57976-1.2812-1.0077-2.9325-1.8319-3.6691-1.8319s-3.9316 2.3701-7.0992 5.2674c-3.1677 2.8972-9.4141 7.7424-13.882 10.765-4.4677 3.0232-8.6679 6.0117-9.3336 6.6416-0.66584 0.62987-1.6576 1.1448-2.2036 1.1448-0.94048 0 0.16858-1.54 4.3294-6.0082 5.8728-6.3068 7.7876-9.319 7.7876-12.254 0-2.7015-3.0569-2.4364-7.161 0.62136-1.8559 1.3828-3.5809 2.7426-3.8328 3.0208-0.25194 0.2783-3.1383 2.528-6.4134 5.0003-3.2752 2.4723-6.1602 4.7382-6.4122 5.0352-0.25196 0.297-2.9326 2.4848-5.9558 4.8608-7.2924 5.7308-6.266 4.9622-15.327 11.478-4.3992 3.1634-8.3153 6.2776-8.7029 6.9207-0.3877 0.64321-2.8423 2.5546-5.454 4.2475-8.4526 5.4789-7.4602 12.042 1.5018 9.9322 10.169-2.3945 50.477-7.2662 53.443-6.4591 1.6733 0.45537 4.3146-1.8785 4.3146-3.8127 0-3.8664-5.0379-5.2822-19.166-5.3881-6.8425-0.0513-11.204-0.23481-9.692-0.40796 3.5858-0.41075 9.8416-2.2411 10.948-3.2034 0.47869-0.41627 2.3339-0.76214 4.1226-0.76764 1.7888-5e-3 5.2226-0.60731 7.6307-1.338 3.8862-1.1791 7.8172-1.6632 22.448-2.7619 4.808-0.361 5.7774-1.1313 9.3243-7.4159 2.4065-4.2641 3.1851-4.9641 5.521-4.9641 3.1758 0 4.8314 2.1161 6.4471 8.24 1.5201 5.7615 3.6809 9.7036 8.7982 16.049 7.9958 9.9151 13.255 14.446 20.406 17.582 2.8215 1.2372 5.9866 2.6608 7.0334 3.1631 1.0468 0.50236 5.5612 1.3976 10.032 1.9888l8.1272 1.075 2.3445 4.5803c1.2892 2.5194 3.1148 6.8482 4.0569 9.6195 0.94205 2.7713 2.2883 5.9669 2.9914 7.1006 1.5292 2.4662 3.5968 2.664 4.7775 0.45764 0.93582-1.7488 1.2986-29.09 0.44958-33.882l-0.52473-2.9618-12.498 0.0389c-8.3915 0.026-13.551-0.36845-15.704-1.1998-17.066-6.59-28.109-19.587-30.572-35.984-0.5082-3.383-2.345-5.7447-5.2567-6.7597-3.1616-1.1022-3.2737-0.66296 1.7702-6.9221 2.5629-3.1804 3.7149-5.9659 4.2757-10.346 0.22526-1.7594 0.64524-3.944 0.93404-4.854 0.28882-0.90996 0.69792-2.4089 0.90856-3.3309 0.63527-2.781 3.1564-9.8146 4.1267-11.511 0.50017-0.87494 0.90988-2.1807 0.90988-2.9014 0-0.72066 0.30918-1.4478 0.68711-1.6158 0.66137-0.29393 2.5536-3.9187 6.6188-12.674 2.5924-5.5835 5.5375-10.47 6.5329-10.841 0.45071-0.16799 0.81996-0.91831 0.81996-1.6681 0-0.74981 0.5149-1.9064 1.1448-2.57 2.3007-2.4239 4.3521-5.1116 4.3521-5.7021 0-2.18 23.106-25.969 27.361-28.169 1.508-0.77987 2.9675-2.1442 3.2437-3.0316 0.77916-2.5042 0.9535-34.565 0.19457-35.793-0.37143-0.60098-0.93609-0.91253-1.5742-0.99175zm24.873 53.465c-8.8548 0.51192-22.481 3.6981-25.933 6.7087-1.789 1.5601-4.6601 3.2986-7.7797 4.7104-3.2374 1.4651-17.32 16.135-20.087 20.927-1.3753 2.3807-2.7338 4.535-3.0181 4.7869-0.90103 0.79827-6.1478 12.217-7.3663 16.032-0.64379 2.0155-1.7293 5.2197-2.4129 7.1194-1.5375 4.2726-1.6031 9.1034-0.1436 10.563 2.6652 2.6652 8.0615-0.23673 8.0615-4.3347 0-1.4197 0.58702-4.2446 1.3045-6.2779 0.71741-2.0334 1.1195-3.8822 0.89378-4.1079-0.2257-0.22569 0.2184-0.93142 0.98637-1.5688 0.76801-0.63738 1.3971-1.6474 1.3971-2.2452 0-0.59781 0.52083-1.8004 1.1582-2.672 1.068-1.4606 1.4676-1.4756 5.0984-0.19458 2.1666 0.76443 4.2216 1.3333 4.5668 1.2642 0.68274-0.1367 2.0201 0.33079 8.652 3.0289 3.3966 1.3819 4.7733 1.5508 6.239 0.76629 1.0345-0.55365 1.7522-1.3285 1.5956-1.7231-0.25028-0.63078-4.6894-5.7973-12.881-14.986-1.3856-1.5545-2.5203-3.3417-2.5203-3.9724 0-2.5847 14.653-16.846 17.308-16.846 0.50823 0 1.2545-0.5149 1.6574-1.1448 1.9558-3.0571 12.862-6.1099 22.033-6.1666 2.3619-0.0147 2.9766 0.35676 2.9766 1.7942 0 1.6592-5.2842 14.187-7.3502 17.427-1.396 2.1886-6.3921 13.003-6.3921 13.836 0 0.41646 0.87866 1.2269 1.9512 1.801 1.6757 0.89681 2.2622 0.68052 4.1697-1.5392 1.221-1.4209 3.0957-4.0409 4.1656-5.8217 1.646-2.7396 9.2909-12.14 13.323-16.382 1.3844-1.4564 3.8744-0.75322 3.8744 1.0938 0 0.70995 0.56722 1.7614 1.2602 2.3365 0.69295 0.57508 1.5179 2.659 1.8332 4.6313 0.40348 2.5231 1.1356 3.7646 2.4706 4.1884 6.4877 2.0591 9.2665-4.3173 5.5036-12.628-0.9671-2.136-2.0353-4.8429-2.374-6.0149-0.33873-1.172-2.02-3.5781-3.7375-5.3465-1.7175-1.7686-3.1228-3.5922-3.1228-4.0529 0-0.46055-0.82549-0.83741-1.8332-0.83741-1.0077 0-1.8318-0.41271-1.8318-0.91661 0-0.50384-0.30921-0.85026-0.68709-0.77027-0.65765 0.1392-2.0255-0.29144-6.298-1.9809-1.338-0.52906-3.7598-0.65514-6.7115-0.48445zm25.332 39.2c-0.6195-4e-4 -1.3757 0.22607-2.4693 0.67906-2.8444 1.1782-2.7466 0.96114-6.1128 13.745-1.7006 6.4586-4.4377 11.547-5.9747 11.111-0.66092-0.18769-3.469-0.92464-6.2403-1.6372-4.7191-1.2134-7.5471-2.2368-11.107-4.0193-2.0568-1.0297-4.6592-0.52251-5.6888 1.1099-0.65465 1.0379 0.59934 2.8883 5.2205 7.7072 8.8156 9.1927 9.2884 9.8083 8.9727 11.671-0.24089 1.4218-8.2471 9.8931-12.281 12.993-9.9248 7.6283-14.277 9.5231-23.497 10.234-6.1941 0.47768-7.2145 0.34391-7.7353-1.0132-0.54667-1.4246 10.544-25.872 12.288-27.086 0.69452-0.48347 1.1295-3.0737 0.95281-5.6781-0.20116-2.9665-4.9286-0.12874-8.3326 5.0017-1.7514 2.6396-4.6361 6.4706-6.4108 8.5138-1.7746 2.0431-4.6405 5.4443-6.3678 7.5582-1.7273 2.1139-3.6774 3.8435-4.3333 3.8435-1.587 0-4.6965-6.231-5.4445-10.91-0.55542-3.4737-0.81235-3.7495-3.5053-3.7495-3.6581 0-5.1144 1.4336-5.0728 4.9936 0.0545 4.664 2.3957 12.999 4.2112 14.993 0.94099 1.0332 2.9478 3.5367 4.4595 5.5626 1.5116 2.0259 3.0991 3.7021 3.5268 3.7255 0.42771 0.0234 2.0759 0.60503 3.6637 1.2923 1.5878 0.68734 3.9178 1.6895 5.1775 2.2278 6.1235 2.6166 22.603-0.19867 31.954-5.4593 2.8321-1.5931 7.3255-4.7275 9.9859-6.965 5.7731-4.8552 16.998-16.309 17.522-17.88 0.20436-0.61275 1.3376-2.3904 2.519-3.9495 1.1812-1.5592 2.1486-3.114 2.1486-3.4544 0-0.34035 0.93693-2.156 2.0828-4.0354 1.1459-1.8795 2.6363-5.0662 3.3121-7.0818 0.6757-2.0155 1.7416-4.9018 2.3687-6.4135 0.62699-1.5116 1.6101-3.901 2.1848-5.3104 1.5051-3.691 1.3191-10.27-0.32878-11.638-0.5471-0.45402-1.0298-0.6813-1.6493-0.68172zm210.37 253.81c0.72122 0.25329 1.0023 2.6782 0.85622 7.3824-0.14635 4.7127 0.12012 7.0039 0.81463 7.0039 1.4081 0 0.38782 8.2747-1.4346 11.633-0.76683 1.4128-2.213 3.5984-3.2127 4.8581l-1.8171 2.2908 0.37975-3.2061c0.60507-5.104 1.6353-12.208 2.06-14.201 0.21478-1.0077 0.59159-5.0508 0.83606-8.9847 0.30591-4.92 0.77927-7.0353 1.5179-6.7758zm-176.15 41.443c1.4273 0.8821 7.6392 9.6578 9.747 13.771 1.3553 2.6442 2.0034 5.9361 2.2398 11.36l0.33285 7.6361-5.8606 1.2078c-3.224 0.6644-6.2328 0.97923-6.6859 0.69919-0.45268-0.28006-2.9693-6e-3 -5.5908 0.60792-2.6215 0.6144-6.2815 1.8355-8.1339 2.7136-3.4387 1.63-5.3358 1.0754-5.3358-1.5594 0-0.6536-1.4425-2.7852-3.2061-4.7373-1.7636-1.952-3.2061-3.7081-3.2061-3.9026 0-0.19447 1.892-0.20409 4.2058-0.0201 5.6965 0.45307 6.5204-0.65668 3.6382-4.9037-2.8988-4.2717-3.0394-5.9864-0.28583-3.4785 3.588 3.268 6.1106 4.2239 7.691 2.9121 1.2129-1.0066 1.0304-1.471-1.4318-3.6208-1.5688-1.3697-2.8236-3.3705-2.8236-4.5025 0-1.9439 0.11653-1.9136 2.5311 0.67103 3.3917 3.6309 8.1357 6.0832 9.0156 4.6594 0.37674-0.60947-0.32699-1.8804-1.648-2.9739-2.4059-1.9915-4.4066-6.5804-3.728-8.5513 0.30186-0.8768 0.85139-0.82286 2.3538 0.22949 1.8477 1.2941 7.0496 1.9459 7.0496 0.88302 0-0.26966-0.66348-1.5034-1.4749-2.7417-1.5539-2.3715-1.0744-7.3973 0.6066-6.3585zm84.387 36.233c0.58314 0.0339 0.76625 0.46265 0.76625 1.2991 0 1.0971 1.3606 1.3743 6.7477 1.3743 5.5222 0 7.2285 0.36453 9.3914 2.0036 1.4536 1.1015 2.7606 2.0783 2.9055 2.1714 0.51147 0.32864-1.9419 4.9869-2.6263 4.9869-0.38188 0-2.4101 1.6495-4.5078 3.665-2.0977 2.0155-4.2167 3.6637-4.7091 3.6637-0.49253 0-0.64155 0.41271-0.33015 0.91659 0.31141 0.50388 0.0274 0.94313-0.63207 0.97562-0.65963 0.0326-3.3642 0.25979-6.0095 0.50463-4.5458 0.42069-4.8073 0.32906-4.7695-1.6628 0.0407-2.1501 1.0455-7.5663 2.1861-11.784 0.52482-1.9407 0.22798-2.5313-1.7124-3.4154-2.981-1.3586-2.9502-2.195 0.13426-3.6274 1.6004-0.74319 2.5826-1.1049 3.1658-1.0709zm15.617 199.03 5.0271 1.3997c4.3555 1.2123 5.8727 2.3168 11.356 8.2682 3.4809 3.7779 6.3289 7.1964 6.3289 7.5984 0 1.0392 5.7358 10.317 6.6054 10.684 0.39785 0.1681 0.72333 0.882 0.72333 1.5863 0 1.5787 2.4014 2.2052 11.666 3.0451 1.3322 0.1208 4.0873 5.3753 9.4182 17.967 3.745 8.8447 5.0444 11.816 11.222 25.653 1.5748 3.5273 4.7383 9.2983 7.0308 12.826 2.2923 3.5273 4.3776 6.8248 4.6327 7.3287 2.1026 4.1529 12.93 18.098 15.429 19.871 0.9311 0.6604 1.8611 1.688 2.0667 2.2841 0.20559 0.5962 2.6444 3.4825 5.419 6.4133 2.7747 2.9309 6.5426 7.1844 8.3727 9.4521 1.83 2.2674 4.2342 5.1536 5.3426 6.4134 1.1085 1.2597 2.6867 3.4247 3.5067 4.8109 0.8204 1.3864 2.232 2.7555 3.1363 3.0425 0.90433 0.2869 2.2177 1.6252 2.9202 2.9752 0.70249 1.3496 3.2757 4.7615 5.717 7.5811 7.4436 8.5971 8.6867 10.11 16.504 20.068 4.1534 5.2909 8.7768 11.08 10.274 12.865 1.4978 1.7854 2.9978 4.3406 3.3335 5.678 0.33573 1.3376 1.499 3.0235 2.5848 3.747 3.9875 2.6571 10.29 9.7659 12.862 14.507 1.7866 3.294 2.7882 6.6855 3.092 10.469 0.42463 5.29 0.33071 5.6282-1.7258 6.1786-1.1967 0.3203-3.715 0.5868-5.5948 0.5958-4.3916 0.016-22.426 8.1423-29.563 13.321-3.6547 2.6519-5.7059 3.3025-6.2525 1.9795-0.24708-0.598-2.9726-7.4779-6.0578-15.288-3.0852-7.8102-5.998-15.026-6.4725-16.033-0.47458-1.0079-1.7172-4.0999-2.7619-6.8714-1.0446-2.7712-2.4667-6.2745-3.159-7.7861s-2.8898-7.0772-4.8836-12.368c-1.9939-5.2907-4.6428-11.887-5.886-14.659-1.2432-2.7714-2.7991-6.4816-3.4571-8.2453-0.65817-1.7635-1.7214-4.4427-2.3632-5.9543-0.64176-1.5117-2.4657-5.8405-4.0542-9.6196-3.4444-8.1944-4.302-10.138-8.6949-19.698-1.8523-4.0311-4.9948-11.245-6.9838-16.032-1.9889-4.7869-3.9855-9.3709-4.4367-10.186-0.45109-0.8151-1.2546-3.0929-1.7849-5.062-1.3245-4.9187-6.4099-9.5454-15.395-14.008-9.1511-4.545-20.429-7.3756-29.425-7.3837-6.1567-0.01-6.9157-0.2196-9.1619-2.5755-5.1335-5.3842-12.556-14.079-13.875-16.252-0.75575-1.2458-2.0256-2.4718-2.8209-2.7243s-2.6269-2.0302-4.0716-3.951c-1.4447-1.9207-4.2011-4.6238-6.125-6.0069l-3.4986-2.5136 0.0521-12.996c0.0302-7.6383 0.50208-14.239 1.1448-16.012 0.60143-1.6586 3.7132-6.0227 6.9153-9.6987zm-420.25 226.01c0.54422-0.8806 3.3043 1.3578 5.8593 4.752 1.0032 1.3325 0.73946 2.1039-1.8037 5.2687-1.6384 2.0388-3.6326 3.6727-4.43 3.6315-2.7092-0.1401-10.83-4.9512-13.25-7.8494l-2.4089-2.8866 2.9055-1.0133c2.3288-0.8117 3.3294-0.7344 5.0446 0.3893 1.9152 1.2545 2.4225 1.2548 4.8286 0.012 1.4785-0.7646 2.9436-1.8013 3.2544-2.3043zm311.97 475.19c0.0152-2.6261 6.3334 8.1577 6.3732 10.877 0.0152 1.046 1.0754 2.8855 2.3553 4.0878 2.6858 2.523 8.6667 13.803 8.6667 16.345 0 0.9456 0.57299 2.194 1.2735 2.7753 2.4961 2.0716 5.0454 9.6886 4.9534 14.8-0.085 4.7203-0.38176 5.3225-5.6781 11.522-8.7421 10.233-15.272 20.182-23.822 36.288-2.8752 5.4167-5.3545 9.849-5.5102 9.849-0.15563 0-0.85409-2.5771-1.5528-5.7265-0.79252-3.572-1.2476-10.895-1.2105-19.466 0.0592-13.601 1.5934-23.942 7.3382-49.472 1.1998-5.3317 2.1745-10.144 4.179-20.613 0.53058-2.7712 1.3385-5.986 1.7942-7.1435 0.45583-1.1574 0.83326-3.0126 0.84012-4.1225z" fill="#777583"/></svg>
