<?xml version="1.0" encoding="UTF-8"?>
<svg version="1.1" viewBox="0 0 900 2400" xml:space="preserve" xmlns="http://www.w3.org/2000/svg"><path d="m484.79 518.64c-0.51226-8e-3 -0.97134 0.0314-1.3526 0.12711-2.2813 0.5726-2.8288 1.4218-4.0376 6.273-0.0666 0.26813-0.46991 1.285-0.89697 2.2595-0.46078 1.0513-0.32827 2.2198 0.32709 2.8751 1.2314 1.2314 1.5153 5.5398 0.3742 5.6816-0.40221 0.05-2.6262 0.22932-4.9418 0.39848-2.3156 0.16916-5.3874 0.57926-6.8257 0.91267-2.0467 0.47444-2.2974 0.37423-1.1526-0.46134 1.1147-0.81364 0.53595-0.93845-2.4366-0.52845-2.145 0.29584-5.7321 0.72867-7.9698 0.96264-2.2377 0.23398-4.953 0.89951-6.0344 1.4783-1.2865 0.68847-2.1733 0.71685-2.5652 0.0829-0.38099-0.61627-1.8215-0.45755-3.9592 0.43562-1.8482 0.77225-3.3607 1.1534-3.3607 0.84697 0-0.30644-0.58853-0.0688-1.3082 0.52845-0.71965 0.59728-1.5923 0.80158-1.9396 0.45419-0.60256-0.60254-8.4063 2.3925-9.4265 3.6178-0.78342 0.941-4.1974 2.2196-6.7072 2.5123-1.2759 0.14883-3.1026 1.1114-4.0591 2.1381-0.95651 1.0267-3.4224 2.8896-5.4802 4.1405-2.0578 1.251-4.011 2.6644-4.3391 3.1408-0.32812 0.47631-0.94473 0.78676-1.3711 0.68985-0.42641-0.0969-1.4737 1.0722-2.3281 2.598-0.85427 1.5257-1.9121 3.0377-2.3495 3.3593-1.9655 1.4447-3.4676 6.2057-4.1048 13.006-0.5927 6.3242-0.95205 7.3727-2.5266 7.3727-1.0095 0-1.8354 0.45322-1.8354 1.0084 0 0.64008-0.62473 0.69448-1.7068 0.1471-2.4174-1.2228-14.749-0.70391-18.896 0.79556-4.6553 1.6833-5.9657 3.887-4.6162 7.7583 1.4987 4.2993 4.0291 5.2653 14.493 5.5302 20.283 0.5136 26.35 1.1263 29.052 2.9322 1.45 0.96914 2.9657 1.6646 3.3679 1.5454 0.4022-0.11925 0.73127 0.22918 0.73127 0.77412s1.6208 1.7512 3.6021 2.6808c1.9813 0.92979 4.6785 2.6784 5.993 3.8849 1.3146 1.2066 2.9354 2.1938 3.6021 2.1938 0.66669 0 2.2476 0.8499 3.5135 1.8896 0.84776 0.69624 1.9736 1.2076 2.9551 1.4297 0.93405 0.43799 2.4414 0.75198 4.1891 0.87268-0.17368 0.1135 0.21507 0.56525 1.3611 1.5768 1.266 1.1173 3.1048 2.031 4.0863 2.031 0.98152 0 2.0566 0.43936 2.388 0.9755 0.33147 0.53627 1.4543 0.97409 2.4952 0.97409s2.7696 0.87858 3.8421 1.951c1.0726 1.0725 2.5395 1.9496 3.2607 1.9496s3.9032 0.91143 7.0699 2.0253c3.1667 1.1139 6.6209 2.0108 7.677 1.9939 1.056-0.0168 2.1842 0.39676 2.5066 0.91838 0.32242 0.52161 3.2952 1.425 6.6057 2.0081 3.8305 0.67472 7.4571 1.8217 8.2911 2.5752-2.4283 0.27787-5.0973 0.4475-7.1699 0.84555-6.1858 1.188-12.329 2.5829-13.651 3.0993-1.3219 0.51647-5.1931 1.4549-8.6039 2.0853-6.8024 1.2572-16.825 5.5035-23.315 9.8793-4.0063 2.7012-4.3226 2.7575-8.2882 1.4825-9.341-3.0032-14.401-4.4142-24.598-6.8571-5.8989-1.4133-12.92-3.1625-15.601-3.8877-2.6813-0.72529-7.0694-1.8503-9.7507-2.5009-7.8988-1.9165-11.935-4.2218-24.533-14.007-3.9849-3.0952-4.9458-1.6588-5.7102 8.5367-0.63256 8.4377-0.27906 14.743 1.1684 20.811 0.39137 1.6411 0.0928 2.1938-1.1883 2.1938-1.5371 0-1.6524 0.77402-1.1226 7.5555 0.58041 7.4295 3.5421 23.791 5.5117 30.448 0.55174 1.8646 0.74472 4.2054 0.42853 5.2017-0.34641 1.0913 0.18376 2.6504 1.3354 3.922 1.0514 1.161 2.6684 4.3058 3.5921 6.9871 0.9236 2.6813 2.0952 5.6629 2.6037 6.6257 0.63424 1.2009 0.39591 3.424-0.75694 7.0813-1.8839 5.9763-1.4851 6.9222 3.642 8.6681 1.6708 0.56897 3.7217 2.3261 4.6133 3.9506 0.88302 1.6088 3.0772 5.4569 4.8761 8.5525l3.2707 5.6288-1.5011 5.0975c-8.5442 28.997-10.12 75.855-3.3307 99.085l2.1081 7.2113-2.2466 6.44c-3.7942 10.875-6.5189 15.949-11.833 22.04-12.484 14.307-26.554 18.152-35.511 9.7036-3.6912-3.4812-5.3803-4.1846-5.3803-2.2409 0 2.1699 8.144 8.613 13.346 10.559 6.1476 2.3002 12.665 2.5051 19.386 0.60989 9.8542-2.7786 9.4264-2.8724 6.6872 1.4669-2.2946 3.6348-6.0205 11.303-8.3297 17.139-2.1624 5.4652-4.7632 19.359-4.7632 25.452 0 16.228 8.3017 28.602 20.754 30.938 4.0459 0.75901 4.1498 1.0921 2.2724 7.2884-0.73113 2.4132-1.659 6.8012-2.0609 9.7507-0.5217 3.8286-1.5328 6.2788-3.535 8.5653-1.6183 1.8483-2.803 4.3225-2.8008 5.8503 7e-3 4.2157-14.329 54.135-19.239 66.998-2.4562 6.4352-6.1528 16.087-8.2153 21.448-2.0626 5.3613-3.7507 11.447-3.7507 13.523 0 2.5597-1.0628 5.5424-3.3021 9.2651-1.8164 3.0197-4.4097 7.6851-5.763 10.366-1.3534 2.6812-4.0783 6.4097-6.0559 8.2867-4.025 3.8203-7.3755 10.574-9.2037 18.555-1.1201 4.8889-4.9546 13.509-9.3423 21l-1.7511 2.9894-6.4229-2.2765c-8.439-2.9928-15.623-5.8894-24.65-9.9379-5.4392-2.4393-8.3698-2.583-11.266-0.5542-2.2419 1.5702-4.2385 7.3242-4.3419 12.51-0.0337 1.6796-0.4591 3.8227-0.94408 4.7632-0.48504 0.9405-1.6996 5.9868-2.6994 11.213-0.99979 5.2267-2.7034 13.453-3.7863 18.279-2.1755 9.6953-5.5656 25.097-7.5113 34.126-0.69346 3.2175-2.189 9.799-3.3236 14.625-1.1346 4.8263-2.5232 11.408-3.0865 14.626-1.1684 6.6759-4.2124 20.108-6.1858 27.301-0.73559 2.6813-2.3092 8.6046-3.4978 13.163-1.1887 4.5583-2.5106 9.1653-2.938 10.238-0.42735 1.0724-2.6102 7.4335-4.8504 14.137-3.7425 11.198-9.5133 23.524-11.625 24.829-1.8326 1.1326-11.185 15.767-13.893 21.74-2.2832 5.0356-3.16 6.1177-4.4948 5.5518-0.91175-0.3867-4.3792-1.3824-7.7069-2.2125-9.9562-2.4833-11.18-1.3535-15.191 14.024l-2.0524 7.8683 2.1652 4.1534c1.8315 3.5139 2.0108 4.7044 1.1698 7.7327-1.6377 5.896-1.2767 8.5044 1.3425 9.6979 2.1909 0.9983 2.2857 1.3488 1.4097 5.2474-0.51628 2.2977-1.1106 4.3514-1.3211 4.5619-0.21054 0.2106-1.8849-0.5459-3.7192-1.6796-3.4751-2.1478-10.694-2.7808-13.25-1.1627-0.84878 0.5374-3.0763 0.3307-5.8502-0.5413-10.08-3.1687-23.997-6.2883-26.82-6.013-2.9501 0.2879-3.0121 0.4012-3.1064 5.656-0.0527 2.9495-1.026 8.3253-2.1624 11.946-1.1551 3.6802-2.0079 8.8396-1.9339 11.7 0.0818 3.1581-0.67795 7.2782-1.9824 10.761-1.1626 3.1037-2.1138 6.4826-2.1138 7.5098 0 3.0085-1.911 6.3552-4.2063 7.3627-2.2075 0.9691-3.3841 3.7073-6.6857 15.561-5.3987 19.383-5.7477 21.226-4.6461 24.563 0.83138 2.5191 0.7418 4.2544-0.40418 7.8598-0.809 2.5449-1.7467 6.1627-2.0838 8.0396-0.33712 1.877-0.97859 4.2907-1.4269 5.3632-1.8193 4.3524-3.8771 10.933-4.4776 14.318-0.35043 1.976-1.4715 4.3462-2.4909 5.2688s-1.8539 2.428-1.8539 3.345c0 0.9171-0.87702 2.7841-1.9496 4.1477-4.0108 5.0989-2.0328 11.418 4.4748 14.297 4.4459 1.9665 4.81 1.98 12.969 0.4585 4.617-0.861 9.8749-2.18 11.683-2.9309 4.1254-1.7131 4.0234-1.725 4.0234 0.4657 0 1.9562 7.6082 5.2407 14.918 6.4415 2.8593 0.4695 3.605 0.9867 3.2636 2.2623-0.24322 0.9091-1.2119 4.7242-2.1524 8.4782-1.0034 4.005-2.6865 7.8876-4.0734 9.3979-1.6171 1.761-3.2602 6.0738-5.2018 13.651-1.561 6.0921-3.7719 14.367-4.9133 18.389-1.1413 4.0221-2.6323 9.798-3.3122 12.836-0.67979 3.0379-1.5151 5.9758-1.8567 6.5286-0.55342 0.8954-2.1939 6.5235-8.284 28.412-1.9202 6.9015-2.9369 10.655-8.8424 32.663-2.1584 8.0439-4.581 16.929-5.3845 19.744-0.80353 2.8154-2.1036 7.4224-2.888 10.238-0.78437 2.8153-3.1454 11.042-5.2474 18.282-5.9361 20.444-7.276 26.053-6.7243 28.163 0.30531 1.1674-0.18955 2.5865-1.2312 3.5292-0.95833 0.8673-2.0334 3.5197-2.3895 5.8945-0.56287 3.7534-0.29946 4.774 2.0181 7.8126l2.6652 3.495-2.8509 2.3323c-2.815 2.3013-4.7204 2.6687-14.784 2.8622-2.8087 0.054-5.5101 0.5207-6.0044 1.0369-0.49427 0.5162-1.5717 3.2363-2.3938 6.0445-1.3346 4.5586-1.3362 5.2638-0.0182 6.5814 0.81165 0.8117 2.049 1.4754 2.7494 1.4754 0.70048 0 1.799 0.6344 2.4424 1.4097 0.64338 0.7751 3.5139 1.9341 6.3786 2.5752 8.0441 1.8002 7.9855 1.7077 5.9716 9.4722-2.505 9.6585-2.1447 10.766 4.2691 13.103 2.9495 1.075 5.7479 2.3073 6.2173 2.7381 1.2921 1.1856-0.15583 7.2133-2.3366 9.7279-1.2854 1.4821-1.9296 3.6391-1.9296 6.4629 0 2.3312-0.3682 4.2376-0.81836 4.2376-0.45025 0-1.3037 1.0624-1.8953 2.3609-0.75812 1.6638-1.6332 2.2155-2.9666 1.8667-2.6427-0.6909-5.0438 3.0828-5.0489 7.9342 0 3.8817-1.3559 9.2336-12.196 48.291-3.0512 10.994-5.7722 20.866-6.0473 21.938-0.79979 3.1185-10.064 37.229-12.577 46.313-2.2333 8.0701-2.2463 8.3526-0.51555 10.726 3.7811 5.1855 21.38 10.878 28.297 9.1523 4.2121-1.0508 4.1685-0.9323 14.334-38.403 0.6547-2.4133 3.396-12.285 6.093-21.938 2.6971-9.6527 6.2353-22.597 7.8626-28.764 6.0263-22.838 9.8818-35.466 11.31-37.045 1.9265-2.1287 1.9405-8.3926 0.0197-9.1295-1.7186-0.6596-1.5526-6.7573 0.27423-10.069 0.64615-1.1712 1.174-3.2498 1.174-4.619 0-2.1607 1.6081-8.7491 6.2687-25.687 0.62956-2.288 2.0602-4.8003 3.1779-5.583 1.1177-0.7829 2.3098-2.5318 2.6494-3.885 0.71679-2.8555 1.2771-2.9279 8.3911-1.0825 6.442 1.671 7.9906 0.995 9.718-4.2391 1.1719-3.551 1.1263-4.1533-0.44564-5.8902-0.96316-1.0643-3.1978-2.2062-4.9661-2.538-3.5665-0.6691-6.6966-3.505-6.043-5.4731 0.2329-0.7016 4.5558-2.8564 9.6065-4.789l9.1823-3.5136 3.1636-9.6493c4.6407-14.156 6.8312-21.387 9.1266-30.125 1.127-4.2901 3.146-11.53 4.4861-16.088 1.3402-4.5582 2.8535-10.042 3.3636-12.187 0.51007-2.1451 1.6029-5.875 2.428-8.2882 1.1385-3.3297 1.3452-6.4215 0.8569-12.826-0.37155-4.8739-0.24783-9.1989 0.2928-10.238 0.51489-0.9894 1.3942-2.9645 1.9539-4.3891 0.68827-1.752 2.0128-2.8092 4.0948-3.2664 3.6284-0.7969 6.3341-5.9676 5.446-10.408-0.35517-1.7758-0.1423-2.7495 0.60271-2.7495 0.63431 0 2.7345-1.5431 4.6662-3.4292l3.5121-3.4293 14.08 4.4705c7.7437 2.4584 15.834 4.9079 17.979 5.4446 2.1451 0.5365 5.2474 1.3852 6.8943 1.8853 1.6468 0.4999 5.4475 0.9084 8.4453 0.9084 4.8716 0 5.7142-0.3136 7.9369-2.9551 2.8695-3.4102 4.4983-8.5197 4.5062-14.134 9e-3 -6.5973-1.7848-8.1737-14.62-12.847-2.9494-1.0741-7.3376-2.4787-9.7507-3.1208-5.9731-1.5894-22.433-5.8127-24.979-6.4087-1.5179-0.3551-2.2291-1.4898-2.6737-4.2704-0.33302-2.0826-1.2574-4.3282-2.0552-4.9903-1.1228-0.9318-1.2115-1.6528-0.38999-3.188 0.58392-1.091 1.4479-3.3284 1.9196-4.9732 0.73325-2.5566 0.47803-3.3861-1.7567-5.7188l-2.6137-2.7294 1.8667-7.0642c1.0266-3.8854 1.7837-8.3045 1.6825-9.8206-0.12139-1.8192 0.60133-3.477 2.1253-4.8748 2.9892-2.7418 15.174-26.434 15.174-29.505 0-3.1179 3.1217-3.1305 8.9395-0.037 2.3948 1.2733 5.4223 2.6476 6.7271 3.0551 3.8851 1.2131 21.045 13.26 42.647 29.938 12.242 9.4519 12.618 9.608 15.073 6.2387 1.1071-1.5199 2.7448-4.14 3.6392-5.8231 0.89442-1.683 5.2075-9.8611 9.5837-18.173 4.3762-8.3122 8.3833-15.772 8.9052-16.576 2.3389-3.6045 6.6178-12.435 7.2299-14.921 0.60287-2.4483 0.0344-3.3233-5.4517-8.3854-11.949-11.026-34.17-28.934-45.992-37.068-6.7293-4.6299-6.6264-7.0498 1.4383-34.124 1.0252-3.442 1.8639-7.4996 1.8639-9.0181s0.43781-2.7609 0.97412-2.7609c0.53624 0 1.0011-0.7683 1.0326-1.7068 0.0314-0.9384 1.2697-5.8744 2.7508-10.969 2.5622-8.8132 2.8311-9.2772 5.5488-9.5465 3.8032-0.3772 8.2183-2.1635 8.2183-3.3251 0-0.5233 1.243-0.6615 2.825-0.3141 3.7121 0.8152 9.5485-1.6581 10.898-4.6191 0.57785-1.2685 2.4784-3.0752 4.2234-4.0149 2.1476-1.1566 3.805-3.2069 5.1317-6.3472 1.8614-4.4057 2.2527-4.7216 7.787-6.2744 3.2049-0.8993 7.2247-1.6353 8.9323-1.6353h3.1051v13.897c7e-3 14.495 2.0979 50.108 3.8849 66.057 0.57083 5.0944 1.7297 15.845 2.5766 23.889 3.1977 30.371 3.9541 36.797 7.6798 65.326 0.7704 5.8988 1.662 14.455 1.981 19.013 0.31906 4.5581 1.2198 14.636 2.0024 22.394 3.1935 31.66 1.0573 76.264-4.6476 97.048-3.0981 11.287-5.0337 20.198-6.6729 30.713-0.54333 3.4858-1.8157 10.286-2.828 15.112-2.6233 12.508-4.3764 39.33-3.6321 55.577 2.0565 44.887 2.8913 57.861 5.0504 78.49 1.3189 12.602 3.0529 27.958 3.8534 34.126 5.7595 44.367 6.4577 54.618 6.4315 94.453-0.0139 21.113-0.2531 39.102-0.53127 39.976-0.27825 0.8736-2.5892 2.6856-5.1346 4.0263-7.0908 3.7347-10.702 7.3832-12.349 12.477-2.3831 7.3696-3.4767 19.073-3.3464 35.787 0.11627 14.918-0.0622 16.454-4.0534 35.101-4.3342 20.248-5.0085 28.567-3.7578 46.343 0.44798 6.3662 1.1508 8.5566 5.296 16.485l4.7804 9.1423 5.8502 1.784c10.362 3.1583 17.117 4.0555 20.967 2.7851 2.6449-0.8748 4.7169-0.8744 8.7967 0 13.377 2.8662 20.36 3.3136 31.972 2.0481 7.4329-0.8103 11.978-1.7671 13.077-2.7523 1.1628-1.0427 2.7518-1.3364 5.1332-0.9499 4.1712 0.6769 12.499-1.3387 15.042-3.6405 1.016-0.9195 3.5105-5.0404 5.5417-9.1581 4.0016-8.1117 4.0483-8.5751 2.5295-24.55-0.86583-9.1071-1.3587-10.711-7.1985-23.401-5.9557-12.942-7.6198-17.586-7.6198-21.266 0-2.0754-0.87153-7.1754-1.9353-11.335-1.3908-5.4381-1.6586-8.0772-0.95409-9.3937 0.661-1.235 0.62561-5.4079-0.10851-12.826-0.59848-6.0471-1.4277-15.163-1.8439-20.257-0.4161-5.0945-1.4511-10.844-2.2995-12.777-1.6145-3.6793-7.0503-9.0692-10.134-10.048-1.4943-0.4742-2.0174-2.3663-3.0536-11.056-0.68754-5.7656-1.4982-14.87-1.801-20.233-0.97559-17.272 2.4066-58.635 7.4941-91.653 1.0742-6.9715 2.5803-17.721 3.3464-23.888 0.76623-6.1671 1.8514-14.065 2.4123-17.551 1.7447-10.843 5.8225-40.779 7.5698-55.577 1.3385-11.336 1.7067-23.995 1.8568-63.865 0.12074-32.098 0.57383-51.627 1.2783-55.088 0.6003-2.9495 1.761-8.435 2.5794-12.189 2.3295-10.685 3.2353-18.399 5.783-49.238 1.3069-15.82 2.7949-31.178 3.3064-34.127 0.51159-2.9495 1.6595-11.285 2.5509-18.525s2.4525-19.744 3.4692-27.788c1.0168-8.044 2.1132-18.136 2.4367-22.427 0.67664-8.9748 3.7576-39.194 5.8144-57.039 0.77259-6.7034 1.6791-15.259 2.0153-19.013s0.79387-8.0034 1.0169-9.4436c0.22304-1.4403 1.0373-8.2407 1.8096-15.113 2.5869-23.017 3.6998-31.992 4.0092-32.339 0.16893-0.1893 3.5162 0.5908 7.4384 1.7339 13.434 3.9153 16.886 4.83 20.781 5.5045 6.1365 1.0625 6.9081 1.8483 9.2209 9.3994 1.1971 3.9087 2.5191 7.9842 2.938 9.0567 0.41887 1.0725 1.7455 5.6796 2.9479 10.238 4.792 18.168 10.069 35.489 16.189 53.139 3.5332 10.189 6.999 20.599 7.7012 23.132 0.70218 2.5332 2.3866 7.5795 3.7435 11.213s4.7461 14.066 7.5312 23.182c5.2214 17.091 18.625 55.076 25.413 72.019 7.269 18.142 12.014 34.28 16.519 56.196 3.1065 15.111 5.5499 20.75 15.261 35.201 4.8279 7.1848 9.57 15.258 10.538 17.939 0.96769 2.6813 2.126 5.2921 2.5737 5.8015 0.44761 0.5096 0.81412 1.7018 0.81412 2.651 0 0.9491 2.4022 7.1532 5.3417 13.787 4.9328 11.146 6.2415 15.149 9.7865 29.924 3.665 15.276 4.8535 19.82 7.5198 28.764 2.6174 8.7795 7.3027 22.17 9.5537 27.301 0.47051 1.0724 2.6775 6.3375 4.9032 11.7 2.2257 5.3626 4.6285 11.066 5.3403 12.674 0.71176 1.6088 2.1604 4.8995 3.2193 7.3127 2.5342 5.7753 9.741 24.349 15.889 40.951 1.0923 2.9495 2.5847 6.8984 3.3165 8.7753 2.6967 6.9176 10.019 28.239 15.068 43.876 2.8569 8.8485 5.7443 17.625 6.4171 19.502 4.3847 12.232 10.163 42.933 10.172 54.011v7.697l-6.7929 6.7798c-3.7364 3.7289-6.756 7.0661-6.7099 7.4156 0.0461 0.3496 0.0307 2.6601-0.0329 5.1346l-0.11423 4.4991-4.3919 0.6013c-6.0512 0.8294-11.348 3.7396-15.378 8.4482-8.6559 10.112-4.3556 23.391 7.5756 23.391h2.4938l-1.6311 3.1693c-0.89734 1.7429-3.0501 4.9234-4.7832 7.0685-3.3187 4.1075-7.2856 11.323-7.2856 13.25 0 0.6265-1.4801 2.7779-3.2893 4.7803-1.8092 2.0027-3.6749 4.2806-4.1448 5.0617-0.46999 0.7812-3.35 3.2865-6.4001 5.5674-6.3993 4.7855-13.683 13.264-16.839 19.6-3.2172 6.4587-4.3185 12.015-4.9461 24.968-0.4841 9.9914-0.31766 12.075 1.1969 15.014 1.5631 3.0333 2.2458 3.4464 6.1458 3.7207 2.4494 0.1722 5.25 1.078 6.3387 2.0495 1.0725 0.9571 2.45 2.0196 3.0607 2.3624 1.7904 1.0047 14.965 3.6182 21.314 4.2276 3.2176 0.3089 6.0338 0.7253 6.2573 0.9256 0.61339 0.5496 1.0034 0.4604 3.2464-0.7399 2.544-1.3615 15.56-1.1558 18.746 0.2956 3.1418 1.4315 15.816-0.4548 20.721-3.0837 2.0087-1.0766 5.2816-1.958 7.2742-1.958 9.1586 0 22.392-4.7116 25.956-9.2424 1.1588-1.4732 3.979-3.8667 6.2672-5.3188 4.7173-2.9941 8.7188-9.9151 10.663-18.443 0.80947-3.55 1.9386-5.7311 3.5335-6.8257 1.2892-0.8848 3.9986-3.0346 6.0216-4.7775s4.515-3.1679 5.5374-3.1679c1.5027 0 3.9906-1.2436 7.0084-3.5007 2.4604-1.8401 1.4331-47.532-1.1583-51.519-2.2962-3.5329-6.4829-26.89-6.4829-36.165 0-2.2348-0.87925-6.6192-1.9539-9.7423-1.7444-5.0697-1.796-5.8519-0.48701-7.2983 1.8942-2.0925 1.8798-6.2768-0.0273-8.1839-0.82167-0.8217-3.1252-1.7888-5.119-2.1496-1.9938-0.3608-4.8659-1.2834-6.3815-2.051-1.5158-0.7678-4.5832-1.7083-6.8171-2.0896l-4.062-0.6941-1.1283-6.3116c-0.62072-3.4715-2.0598-19.036-3.1979-34.588-4.1282-56.413-11.798-122.07-17.596-150.64-0.48973-2.4132-1.612-8.3365-2.4938-13.163-5.2556-28.768-14.805-57.266-27.117-80.927-3.8801-7.4566-4.708-8.8082-7.0385-11.49-0.56622-0.6516-1.3104-1.9275-1.6539-2.835-0.34348-0.9076-2.8416-4.9986-5.5517-9.0909-2.71-4.0923-4.9275-7.8545-4.9275-8.3611 0-1.1765-9.2298-19.597-12.129-24.206-2.3812-3.7862-12.937-24.166-14.948-28.861-2.2978-5.3641-6.017-26.207-7.5655-42.397-2.5313-26.463-4.3505-45.214-6.3858-65.814-1.4655-14.833-4.3268-48.743-4.7547-56.342-0.0234-0.421 0.94437-0.2257 2.151 0.4343 2.6944 1.4733 14.684 3.7796 22.954 4.416 4.424 0.3406 6.7486 0.07 8.334-0.9682 2.0646-1.3529 6.958-2.3781 22.095-4.6291 3.4858-0.5183 9.7509-1.6279 13.924-2.4666 4.1733-0.8389 8.9089-1.2355 10.522-0.8812 4.0657 0.893 12.348-0.385 14.147-2.1838 0.82063-0.8206 11.01-3.8781 22.644-6.7942 11.634-2.9162 23.566-5.9547 26.516-6.7515 2.9495-0.7968 7.9943-2.0542 11.212-2.7951 17.112-3.9403 51.025-13.178 67.765-18.459 5.6309-1.7764 11.938-3.3061 14.017-3.4008 4.0983-0.1858 8.2875-1.9865 10.319-4.4348 0.70465-0.849 4.311-3.1364 8.0153-5.0831 8.1957-4.3066 13.921-10.5 15.917-17.222 0.80195-2.7003 1.4583-5.6124 1.4583-6.4714 0-2.7618-6.6586-28.556-9.3209-36.109-1.7197-4.8791-2.8476-10.72-3.3906-17.55-0.92269-11.607-2.3524-21.983-3.4251-24.863-0.39937-1.0725-1.7171-3.047-2.9294-4.3876-1.989-2.1997-8.4455-19.008-11.61-30.226-6.277-22.249-25.169-58.795-43.355-83.871-13.275-18.305-38.963-39.118-51.492-41.721-3.562-0.7399-3.7279-0.9794-8.2583-11.927-2.543-6.145-5.4855-12.927-6.5386-15.072-1.053-2.1451-4.1644-9.1658-6.9143-15.601-2.7499-6.4353-5.8188-12.578-6.8199-13.65-1.8618-1.9944-3.5755-5.6288-9.2994-19.719-3.6168-8.9025-3.658-8.2443 1.3639-21.134 4.4813-11.502 8.1858-24.805 7.5798-27.22-0.29455-1.1739-2.8117-4.6866-5.593-7.807-5.5012-6.1722-5.2092-4.9049-4.5206-19.674 0.46886-10.054-1.3316-13.44-10.348-19.47-8.3129-5.5595-9.902-7.5116-11.225-13.793-0.66458-3.156-1.9284-7.4928-2.8093-9.638-1.3077-3.1833-10.311-19.911-13.906-25.839-3.8724-6.3846-5.9655-12.851-6.9128-21.35-1.5964-14.32-6.7052-43.344-8.6853-49.344-0.63313-1.9186-1.1602-5.5542-1.1726-8.0797-0.0132-2.7224-0.79432-5.9426-1.9181-7.9112-1.886-3.3035-1.3532-4.9079 1.6468-4.9532 2.3722-0.0358 8.5716-5.3707 9.8808-8.5039 0.78626-1.8819 1.2513-3.6006 1.034-3.8178-0.21726-0.21718-2.0832 0.31145-4.1477 1.1741-4.3467 1.8161-8.9182 0.81384-13.706-3.0036-2.5644-2.0448-2.7668-2.7214-2.9423-9.8736-0.12607-5.1359-0.89573-9.5549-2.3238-13.344-2.0948-5.5592-2.1039-5.7822-0.45705-11.866 1.2294-4.5396 1.5443-8.3761 1.1754-14.323-0.46948-7.5683-3.6304-23.174-5.5945-27.623-0.47342-1.0725-1.1511-3.4847-1.5068-5.3617-0.35554-1.877-1.5206-6.0462-2.588-9.2638-2.9238-8.8131-6.1372-22.047-8.5225-35.101-1.1759-6.4352-2.561-13.894-3.0779-16.575-0.51701-2.6813-1.3852-8.8235-1.9295-13.65-0.95818-8.4957-2.5973-19.091-4.8276-31.202-2.1213-11.52-2.12-11.525 0.52271-16.495 2.6266-4.94 5.0148-11.513 7.7784-21.404 1.9711-7.0548 4.5982-37.771 3.3421-39.079-0.48944-0.50946-0.89676-2.7042-0.90554-4.8761-0.0205-5.285-2.9946-18.542-4.6704-21.778 4.3148-1.7511 12.174-3.0994 15.425-3.5307 3.3176-0.44008 5.2744-1.2645 6.0859-2.5637 0.65756-1.0531 1.7626-1.9139 2.4537-1.9139 0.6923 0 1.5012-0.63058 1.7968-1.4011 0.29572-0.77049 1.1761-1.1556 1.9581-0.85552 0.86092 0.33038 1.3102 0.0352 1.1384-0.74842-0.15598-0.71175 0.24672-1.3139 0.89404-1.3383 0.64726-0.0243 1.8864-0.92285 2.7537-1.9953 0.86678-1.0725 1.298-1.4016 0.95841-0.73127-0.36842 0.72712 0.0197 1.2197 0.96119 1.2197 0.86764 0 1.3055-0.43924 0.97412-0.97551-0.33141-0.53626-0.13806-0.9755 0.42992-0.9755 0.56782 0 1.0326-0.43782 1.0326-0.97408 0-0.9444 0.71073-1.9024 4.9147-6.6214 2.0443-2.2948 3.8348-7.2505 4.3605-10.583 7e-3 -0.0219 9e-3 -0.0438 0.0124-0.0657 0.10362-0.67568 0.19758-1.2851 0.17141-1.7682 0-0.0262 0-0.0524 7e-3 -0.0786 0-1.5225-0.34881-3.0066-0.99555-4.2448l0.54275-2.1653c1.1854-4.7253 4.0219-5.6745 16.972-5.6745 5.5508 0 10.092-0.39935 10.092-0.88839 0-0.48905 1.1071-0.76846 2.4609-0.61986 2.7598 0.30294 3.9004-0.80384 2.7151-2.6352-0.43372-0.67034-0.78835-2.2428-0.78835-3.495-2.1e-4 -0.43786-0.21667-0.86931-0.6313-1.2583-1.3528-2.7114-7.1671-3.7072-22.378-3.6735-15.362 0.034-19.558-0.80643-26.142-5.6874-0.8346-1.4151-2.1455-2.8906-3.7677-4.2405-2.6356-2.1885-5.8311-3.8335-8.5953-4.4248-1.7464-1.558-4.7772-3.159-6.6872-3.2307-1.0438-0.0392-3.5285-1.2025-5.5217-2.5837-1.9932-1.3813-4.2104-2.5994-4.9275-2.708-0.71694-0.10855-1.9622-0.6176-2.7666-1.1312-2.9156-1.8615-12.239-5.3394-14.324-5.3446-1.1749-2e-3 -2.3775-0.39438-2.6723-0.87124-0.2947-0.47686-1.7466-1.1508-3.2264-1.4968-1.4798-0.34602-5.1031-1.302-8.0526-2.1253-9.0675-2.5308-12.074-3.2672-15.112-3.6992-3.6141-0.51371-15.416-3.7486-20.168-5.4174-2.1447-1.5049-7.9543-3.0213-14.56-3.8006-4.7838-0.56192-9.356-0.66068-12.432-0.26852-0.0785-0.0299-0.15649-0.0598-0.23422-0.09-13.878-0.30612-25.886-2.0462-31.532-4.569-1.9052 0.42453-5.3982-1.2705-5.4074-2.8651-8e-3 -0.72054-0.88426-1.5391-1.9567-1.8196-1.0726-0.28047-1.951-0.86785-1.951-1.3054 0-0.43759-0.87708-1.075-1.9496-1.4154-1.0725-0.34042-1.9496-1.187-1.9496-1.8825 0-1.6073-6.1779-3.9749-9.7679-4.0291zm-0.94699 30.061c3.8201-0.0665 6.2485 0.25249 8.3525 1.0255 8.0542 2.959 11.738 3.6899 17.226 3.4578 5.5306-2.2513 15.183-3.6196 25.57-3.6249 11.922 1.1e-4 22.735 1.7916 27.62 4.5762 3.3723 0.2303 6.2096 0.7097 8.3868 1.4754 2.6266 0.92379 6.5755 1.609 8.7753 1.5225 1.4395-0.0566 2.896 0.0728 4.1291 0.26424 1.3485 0.67876 3.033 1.3143 4.8075 1.8139 0.47467 0.13193 0.95132 0.25282 1.4239 0.36135 0.5203 0.98662 3.2406 1.8388 6.7371 1.9182 2.7148 0.0617 4.9376 0.40779 4.9376 0.76841 0 0.3606 1.538 1.1616 3.415 1.781 1.877 0.61934 3.4198 1.6408 3.4278 2.2695 0.0102 0.76079 0.28936 0.71196 0.83408-0.14711 0.66151-1.0434 1.1238-0.98586 2.4124 0.30278 0.87686 0.87686 3.1336 1.8441 5.016 2.1496 1.8824 0.30535 3.4236 0.84346 3.4236 1.1954s0.87007 0.70543 1.9338 0.78555c1.0637 0.0801 3.476 1.3225 5.3617 2.7608 1.8857 1.4383 3.4293 2.3323 3.4293 1.9867s1.3163 0.0537 2.9251 0.88552c1.6088 0.83197 2.9313 1.1715 2.9394 0.75556 8e-3 -0.41597 0.33734-0.31774 0.73127 0.21853 0.39401 0.53615 2.2832 1.7698 4.1977 2.7408 1.9146 0.97099 4.2089 2.9962 5.0975 4.5005 0.92374 1.5638 1.652 2.2333 2.7237 2.3452-0.89823 1.0156-1.3643 2.1106-1.3698 3.2179 7e-3 3.3233 4.1291 6.3102 10.414 7.5412l1.0369 0.97694c3.1138 2.9365 3.4822 3.8138 3.4822 8.2882 0 0.57956 0.0834 0.96947 0.11854 1.4883 0.0124 0.55103 0.0117 1.0921 0.0153 1.324-7e-3 1.9365-1.7462 3.9103-3.4821 5.5274-0.12769 0.12945-0.17142 0.12606-0.30992 0.2728-0.13295 0.14079-0.34106 0.30902-0.49989 0.4599-0.45237 0.39951-0.8776 0.76678-1.2568 1.0983-1.5915 1.2741-3.6262 2.6282-5.3117 3.4678-2.4132 1.2022-5.0458 2.556-5.8502 3.0079-0.8044 0.45186-4.0951 1.5839-7.3127 2.5152-3.2176 0.93128-6.3478 1.8828-6.9556 2.1153-0.38867 0.14868-1.5252 0.61933-2.4381 0.58129-0.40578-7.8674-3.8095-23.591-7.8155-33.674-1.3004-3.2733-4.2242-3.5185-5.8016-0.48704-0.82978 1.5946-3.7749 4.7527-6.7186 7.5312-0.46743-0.76402-0.9516-1.5288-1.5354-2.2938 0.40454 0.18134 0.821 0.3685 1.1098 0.3685 1.0073 0 0.83598-0.55659-0.61844-2.011-1.106-1.106-2.4805-1.854-3.0551-1.6625-0.11686 0.0389-0.17368 0.11822-0.22991 0.1971-0.84126-0.89268-1.7589-1.7817-2.7509-2.6652 0.17236-0.21808 0.2471-0.64777 0.2471-1.334 0-0.89377-0.24725-1.3781-0.54846-1.0769s-1.6805-0.5039-3.0664-1.7882c-1.3859-1.2844-3.0044-2.338-3.5964-2.3409-0.59204-4e-3 -2.2831-0.63468-3.7578-1.404-1.083-0.56502-2.0077-0.88452-2.428-0.87124-0.58611-0.30476-1.1808-0.60711-1.7839-0.90695 0.0475-0.25044-0.63679-0.76869-2.1496-1.6911-2.1212-1.2933-4.0369-1.9544-4.9189-1.9696-0.21353-4e-3 -0.35934 0.0334-0.43993 0.10569-2.5875-1.1225-5.2907-2.198-8.0954-3.2207-0.0153-0.0514 0.0124-0.0734-9e-3 -0.12855-0.30355-0.79083-1.3268-1.0798-2.8251-0.85267-7.6665-2.6487-15.951-4.8807-24.545-6.6129-0.0168-0.0108-0.0241-0.0191-0.0417-0.03-1.3523-0.84439-1.7618-1.9632-1.464-3.992 0.0592-0.40249 0.18494-0.73916 0.28285-1.1155-2.7317 0.20697-5.5638 0.31419-8.4126 0.31851-0.27394 0.44325-1.477 0.56364-2.6722 0.26707-0.5377-0.1334-2.1123-0.3007-3.9578-0.46418-0.95452-0.0563-1.8963-0.12449-2.825-0.20424-1.6658-0.11842-3.309-0.24468-5.1403-0.33136-8.5102-0.40278-9.9983-0.23365-11.7 1.3326-0.12344 0.11362-0.30444 0.18048-0.43848 0.28136-2.2282-0.0642-4.4325-0.0885-6.6072-0.0728-31.417 0.56351-52.851 9.4883-54.307 22.612-0.31021 2.9309 0.39035 5.9933 2.0824 9.1038 0.28703 0.67119 0.63029 1.2358 0.96119 1.4368 0.88937 1.4072 1.9779 2.8167 3.2565 4.2205-0.0117 0.0346-0.0344 0.0577-0.0344 0.10711 0 0.74475 1.1205 2.5634 2.4909 4.042 2.8938 3.1224 3.709 2.5835 2.1667 0.21139 0.78561 0.65136 1.6111 1.2987 2.4752 1.941 0.71643 1.2727-2.8019 3.175-5.0303 2.5923-1.1564-0.30239-2.1024-0.93741-2.1024-1.4111 0-0.47372-0.84534-0.86268-1.8796-0.86268-1.0342 0-2.5925-0.70998-3.4607-1.5782-0.86809-0.86824-1.8307-1.3257-2.1395-1.0169-0.30881 0.30878-1.9747-0.51642-3.7021-1.8339-1.7273-1.3175-3.7553-2.4026-4.509-2.4123-2.4341-0.0299-5.6961-4.3462-5.2103-6.8942 0.24665-1.2936 0.18742-1.803-0.13142-1.1326-7e-3 0.0108-0.03 0.0192-0.0358 0.03 0.64008-0.98464 0.97245-2.028 0.98122-3.0808-2.9e-4 -4.8621-6.7558-8.8083-15.108-8.8252-2.0803-0.93437-2.6894-3.4878-2.1267-8.3596 0.63876-5.5298 2.6034-8.1475 8.0683-10.749 6.1455-2.9258 9.4082-4.5477 15.37-7.6369 1.2137-0.62895 4.8695-1.421 8.1225-1.7611 3.2531-0.34 6.4278-1.131 7.0556-1.7568 1.3844-1.3801 12.603-3.1868 24.616-3.9649 1.6222-0.10496 3.05-0.17065 4.3234-0.19281zm20.561 29.698c3.7778-0.0156 7.2148 0.0999 9.7665 0.38135 4.4978 0.49599 9.6504 1.5939 11.45 2.4395 4.7045 2.2099 14.526 0.53408 14.745-2.4623 4.0208 0.66131 7.9753 1.4416 11.815 2.3309-1.0265-0.11292-2.137-0.25968-2.9579-0.29565-1.8022-0.079-2.9824 0.0481-2.9794 0.47133 0 0.44849 2.6142 0.93982 5.8016 1.0926 3.1874 0.15281 7.441 0.84767 9.4522 1.544 2.2302 0.77212 4.0122 1.1649 4.9975 1.204 1.9274 0.64687 3.7885 1.3205 5.576 2.0182-1.4184 0.47473-1.3676 0.65985 0.18143 1.811 0.99811 0.74211 2.7969 1.0677 4.1134 0.74555 0.70758-0.17313 1.103-0.18709 1.3954-0.14282 0.12519 0.0561 0.24995 0.11223 0.37419 0.16853 0.041 0.12887 0.0182 0.29538-0.13572 0.54417-0.38794 0.62776-0.34348 1.0405 0.0986 0.91838 1.3155-0.36347 8.1154 2.4454 8.1154 3.3521 0 0.46019 0.38714 0.59779 0.85983 0.30565 0.0329-0.0209 0.12702 5e-3 0.17565-5e-3 6.7843 4.6346 10.1 9.491 9.5337 13.963-0.17206 1.1856-0.61711 2.3345-1.3311 3.4364-0.86977 0.71418-1.7694 1.3627-2.6837 2.0596-1.5053 1.0807-2.3922 1.8276-4.1134 2.9251-0.48315 0.27774-0.86984 0.46276-1.0555 0.46276-0.3279 0-1.8244 0.87391-3.325 1.9424-0.30238 0.21535-0.75233 0.39869-1.1283 0.59987-2.7281 0.93479-5.8102 1.7325-9.1995 2.3809-0.54473 0.0338-1.1091 0.10841-1.6268 0.1-0.68198-0.0111-1.2645 0.19451-1.5368 0.49417-2.2427 0.35681-4.5945 0.65164-7.0414 0.88268-2.9945-0.12775-5.0072-0.0375-5.853 0.35563-9.6498 0.49127-20.235 0.0623-30.875-1.2512-6.0306-0.7624-11.995-1.7987-17.73-3.0808-0.1755-0.068-0.15167-0.10897-0.56132-0.21281-1.0592-0.26849-2.4218-1.1663-3.0279-1.9953-0.66823-0.91376-1.7668-1.2519-2.7923-0.85838-2.2007 0.84447-4.1364-0.2899-2.3638-1.3854 0.96045-0.5936 0.79314-0.79437-0.62699-0.74984-2.1245 0.0667-7.3059-1.6194-11.352-3.6949-3.1763-1.6291-5.0794-1.7155-4.1348-0.18711 0.48067 0.77774 0.16359 0.93381-0.99694 0.48847-0.54889-0.21064-1.0817-0.2879-1.6654-0.4242-0.44294-0.2109-0.87907-0.42329-1.3082-0.637 0.16921-0.15053 0.45858-0.32952 0.94407-0.52846 1.812-0.74251 1.7548-0.87528-0.79555-1.881-1.5096-0.59532-4.1422-1.0935-5.8502-1.1069-0.26874-2e-3 -0.5799-0.0915-0.87693-0.15139-7.5778-4.8478-11.353-9.9908-10.802-14.717 0.52622-3.7371 3.7567-7.0731 9.4051-9.7122 1.1088-0.22499 2.3806-0.61237 3.4064-1.164 2.784-1.4972 17.186-2.7281 28.52-2.7751zm-132.79 232.32c0.67906 0.97236 1.6014 5.7878 2.6166 14.066 1.4304 11.664 1.5736 21.643 0.27993 19.581-0.33653-0.53625-1.3131-3.4176-2.1695-6.4029-1.6758-5.841-2.1959-12.309-1.7982-22.361 0.092-2.3268 0.25639-3.8352 0.47848-4.5604 0.16658-0.54392 0.36636-0.64688 0.59276-0.32278zm264.92 23.758c0.21391-0.0329 0.50049 0.42209 0.87834 1.114 0.8784 1.6088 2.4933 5.3388 3.5878 8.2882 6.6472 17.915 6.6343 17.844 6.6343 26.998 0 4.9288-0.37696 9.1972-0.84271 9.4851-0.4659 0.2879-1.124 2.2629-1.4639 4.3891-0.34005 2.1262-0.99673 4.0995-1.4583 4.3848-0.46143 0.28526-2.3112-2.3822-4.1106-5.9273l-3.2722-6.4458-0.33565-22.048c-0.23826-15.648-0.25902-20.139 0.38281-20.239zm-253.06 58.012c0.0373-0.72688 0.44461-0.44409 0.90553 0.62839 2.5241 5.8741 0.12315 27.946-4.5048 41.413-1.3872 4.0366-2.6083 7.4351-2.7151 7.5526-0.10683 0.11759-1.0495-1.1987-2.0938-2.9251-1.5764-2.6059-1.8982-4.9599-1.8982-13.864v-10.725l5.1189-10.379c2.8154-5.7084 5.1498-10.974 5.1875-11.7zm-24.44 77.461c0-0.42882 0.8074 0.53646 1.791 2.1453 0.98363 1.6088 2.518 3.5274 3.4093 4.2634 0.89134 0.73602 1.6211 1.7232 1.6211 2.1938 0 1.2543-1.5616 1.0434-2.6837-0.36279-1.3194-1.6534-4.1428-7.2748-4.1377-8.2397zm278.12 167.65c0.67029 0.2207 4.965 7.826 9.5437 16.901 5.7043 11.306 9.5693 17.728 12.279 20.4 9.2391 9.1127 37.105 25.522 41.812 24.622 2.9461-0.5632 3.4498 0.046 6.6386 8.0412 1.3903 3.4857 4.1134 10.067 6.0516 14.625 1.9382 4.5583 3.751 8.9464 4.0292 9.7508 0.27805 0.8044 0.89926 2.3396 1.3796 3.4121 1.5692 3.5036 8.5307 21.448 8.3696 21.574-0.0859 0.067-3.4478-0.4649-7.4698-1.1812-9.3834-1.6714-34.86-1.6823-46.801-0.02-5.0946 0.7091-9.9632 1.5912-10.819 1.961-1.1892 0.5138-1.9201-0.3149-3.098-3.5178-3.328-9.0497-12.667-39.278-17.766-57.505l-5.3688-19.187v-20.138c0-15.674 0.27107-20.049 1.2198-19.737zm59.72 126.93c17.701-0.5854 18.764 0.5904 2.7366 3.0294-5.2592 0.8003-13.511 2.09-18.338 2.8651-4.8264 0.7749-10.365 1.6955-12.307 2.0467-2.2891 0.4137-3.7824 0.235-4.2419-0.5085-1.0698-1.7311-0.0926-2.2643 8.5767-4.6875 6.1809-1.7278 11.479-2.345 23.574-2.7452zm-466.78 214.45c0.61969 0.046 1.3194 0.5798 1.951 1.5911 0.67072 1.0739 1.1055 1.8928 0.96696 1.8197-0.13865-0.073-1.2648-0.3264-2.5023-0.5629-1.2375-0.2364-2.0866-0.917-1.8882-1.5124 0.31357-0.9408 0.85288-1.3817 1.4725-1.3355zm-3.3293 17.195c2.6438 0 3.6741 1.6079 2.498 3.8991-0.41287 0.8043-2.2054 5.8506-3.9848 11.213-1.7794 5.3627-4.5536 11.698-6.1644 14.078-6.1554 9.096-8.067 4.8642-3.9363-8.7153 0.73406-2.4132 2.2862-7.5736 3.4493-11.468 2.1874-7.3231 3.7098-9.008 8.1382-9.008zm440.3 658.63-0.57273 3.9007c-0.31496 2.145-0.95702 4.3166-1.4282 4.8261-1.358 1.4681-0.93412-2.5299 0.61558-5.8017zm-4.0948 0.8756c0.97698 0.977-1.5691 7.9763-3.555 9.7736-1.0355 0.9373-3.7207 1.9511-5.9673 2.2524l-4.0848 0.547 0.66414-3.3121c0.38026-1.8963 1.9516-4.4384 3.6763-5.9488 2.9586-2.5907 8.1369-4.4418 9.2666-3.3121z" fill="#99fcfd"/></svg>
