<?xml version="1.0" encoding="UTF-8"?>
<svg version="1.1" viewBox="0 0 1000 2400" xml:space="preserve" xmlns="http://www.w3.org/2000/svg"><path d="m268.42 200c-3.3024 0-1.7536 2.1165 8.2714 11.312 8.6256 7.9116 15.662 16.83 19.827 24.682 0.24023 0.49338 0.49453 0.98883 0.71591 1.4678 0.43706 0.88868 0.84423 1.7647 1.2 2.6181 0.23693 0.58083 0.46383 1.1508 0.65237 1.6773 0.17899 0.49422 0.30376 0.95871 0.45151 1.4369 0.13486 0.46429 0.30421 0.97371 0.37597 1.3563 0.10715 0.57111 0.23251 1.1197 0.37769 1.6653 0.16246 0.93484 0.33622 1.8774 0.34164 2.7159 0.01 1.4503 0.73472 2.637 1.612 2.637 0.53299 0 0.84826-0.3489 0.98887-0.95625 0.37968 0.27956 0.73678 0.5852 1.1657 0.80174 2.7827 1.405 6.5171 2.0206 13.387 3.1898 5.9598 1.0142 14.963 3.1518 19.561 4.6267 2.6964 0.865 4.9894 1.4976 7.0576 2.0069 1.9277 0.6817 3.6112 1.325 5.6739 1.9932 1.7251 0.55876 4.0983 1.5757 5.2739 2.2593 4.8051 2.7943 5.4655-0.31792 0.96487-4.546l-1.8044-1.6962c0-0.6688-0.15901-1.295-0.36566-1.6584-3.4219-6.019-6.3114-16.164-6.3194-21.554-2e-3 -0.92038-0.0236-1.6529-0.091-2.4 0.79673 0.58858 0.96311 0.0897 0.96311-1.8387 0-1.8178-1.2411-2.3335-7.262-3.0146-6.5461-0.74061-18.979-3.8117-31.542-7.7444-2.2323-0.82996-4.231-1.6293-5.5263-2.2919-3.8753-1.9824-8.3503-4.0195-12.023-5.5434-0.91527-0.50415-2.2182-1.0644-3.7117-1.5485-2.7395-0.88803-6.0346-2.1873-7.3238-2.8876-6.3665-3.4584-11.135-6.7589-11.135-7.7083 0-0.58092-0.79112-1.0575-1.758-1.0575zm297.96 2.5648c-0.11338-0.054-0.268 0.16624-0.46691 0.65925-0.32514 0.80572-1.0339 1.4644-1.5743 1.4644-0.5404 0-4.5842 2.4351-8.9856 5.4113-14.112 9.542-35.626 18.028-45.706 18.028-2.0698 0-4.1042 0.55076-4.5203 1.224-0.2135 0.3454 0.68579 2.0522 1.8678 4.0447a2.6372 2.6372 0 0 0 0.10812 0.62489l1.2997 1.6532c0.75672 1.1663 1.4352 2.1262 2.2232 3.2155 1.5959 2.4621 3.7385 6.1619 5.7168 10.081 1.2478 2.4719 2.3855 4.8843 3.1914 6.7812 0.0703 0.16472 0.0949 0.25537 0.15972 0.41203 0.0712 0.21722 0.0972 0.36523 0.17167 0.58543 0.22994 0.68078 0.47297 1.1179 0.71416 1.7477 0.0282 0.13248 0.10812 0.53351 0.10812 0.33478 0 0.5827 0.0184 1.1534 0.23179 1.8524 0.186 0.60872 0.68676 1.3396 1.37 1.849 0.61785 1.1519 1.1643 1.9222 1.4867 1.9211 0.71884-3e-3 2.9023-0.97613 4.8516-2.1648 1.9493-1.1887 5.6402-2.8056 8.2027-3.5932 1.7025-0.52316 3.1487-1.0829 4.6525-1.6361 3.7245-1.0784 7.9614-2.1426 11.93-2.9202l6.7263-1.3185a2.6372 2.6372 0 0 0 1.0215-0.46354c0.19742 0.18374 0.39669 0.37172 0.54769 0.37255 2.0486 0.012 1.8336-1.7063-0.87898-7.0233-1.5478-3.0339-2.3451-6.9065-2.3451-11.403 0-7.3516 3.7281-22.575 6.4962-26.528 0.93929-1.3409 1.6665-3.2438 1.6155-4.2284-0.0307-0.6024-0.10293-0.92977-0.21632-0.98371zm-183.8 4.467c-0.88497 0-2.0814 2.3346-3.0095 5.3443-7.9e-4 3e-3 0 4e-3 0 7e-3 -0.82994 1.4946-1.1974 3.1568-1.83 5.7048-0.63376 2.5518-1.3 5.6727-1.8593 8.8036-1.8393 10.297-1.8657 12.95-0.21799 23.635 0.98369 6.3788 2.6457 12.272 5.0353 17.954 0.61601 1.9204 1.3202 3.6059 1.8352 4.0018 0.69624 1.4137 1.4457 2.8206 2.2438 4.2181 1.225 3.3231 4.9122 9.1583 6.3486 9.8096 0.30888 0.14007 0.37708 0.63292 0.32443 1.1914-5.6267-2.4142-14.11-4.9379-24.524-7.4559-6.9171-1.6724-14.504-3.2712-22.182-4.7005-0.69032-0.21924-1.3161-0.36057-1.8953-0.5734-6.0233-2.2134-19.614-3.5543-34.389-3.8816-14.775-0.32736-30.735 0.35942-41.498 2.2009-3.9907 0.68276-4.8822 2.7886-2.3039 5.4422 0.40322 0.41499 1.3902 1.7326 2.6181 3.4593 0.0487 0.0708 0.12193 0.16821 0.17168 0.24036 1.257 1.7753 2.7578 3.9658 4.2422 6.2113 2.6797 4.054 5.8679 7.9833 7.71 9.6156 0.88288 1.0716 1.8996 2.367 2.5872 3.1228 0.49565 0.54483 0.64072 0.80611 0.92707 1.188 0.0777 0.28283 0.16308 0.56945 0.16308 0.82577 0 0.23019 0.0605 0.22274 0.0704 0.40688-0.57997 0.37988-1.5018 0.87095-2.8396 1.4627-3.9418 1.7437-9.8695 5.1781-15.405 8.6062-3.551 1.9368-7.4202 4.0765-9.7272 5.2053-4.8952 2.3951-6.1438 3.5596-5.8611 5.4731 0.13658 0.92411 1.2747 2.221 2.8206 3.6498 0.91505 0.99155 1.9914 1.9097 3.4456 2.946 0.76324 0.5439 1.9455 1.1932 2.8533 1.7751 0.99642 0.64524 2.0094 1.2839 3.1434 1.9571 0.63639 0.37356 1.0495 0.6934 1.7288 1.0764 0.61058 0.34427 1.4007 0.71243 2.043 1.0627 0.67281 0.36859 1.2188 0.71989 1.9245 1.0918 1.1574 0.61009 1.4444 0.67694 2.3331 1.1245 4.7925 2.4508 9.9313 4.9212 15.387 7.1864 17.404 7.2257 60.258 13.748 88.613 13.813 0.90404 2e-3 1.2905 0.0769 2.0618 0.103-1.0444 0.64717-1.9354 1.2429-3.1434 1.9245-15.358 8.665-23.456 14.287-30.081 21.017-3.3112 3.3634-6.6622 7.328-9.238 10.78-1.2878 1.7258-2.3782 3.316-3.1898 4.6902-0.40578 0.68709-0.74232 1.316-1.0078 1.9331-0.079 0.18378-0.14239 0.37103-0.21288 0.55452-0.36581 0.63757-1.1846 1.7765-1.1846 2.0155 0 0.79709-4.0879 3.4771-9.0834 5.9555-4.9956 2.4784-11.55 6.5235-14.567 8.989-3.0163 2.4655-5.9217 4.4825-6.4568 4.4825-0.53504 0-1.631 1.0559-2.4361 2.3451-0.80511 1.2892-2.0184 2.3434-2.6953 2.3434-6.5223 0-43.918 41.06-50.703 55.67-0.89802 1.9338-5.2666 7.3991-9.7066 12.146-11.3 12.081-14.838 15.96-16.862 18.483-3.9656 4.9419-13.96 19.011-17.787 25.039-9.6009 15.123-15.831 25.24-19.025 30.886-1.8765 3.3175-3.7235 6.2959-4.1031 6.6182-0.37956 0.32229-1.4589 1.9045-2.4 3.516-0.94117 1.6115-5.286 8.7313-9.6551 15.822-4.3692 7.0905-10.145 16.584-12.835 21.096-2.6892 4.5121-7.1422 11.679-9.8955 15.928-5.3661 8.2816-7.7403 12.443-15.992 28.021-7.1086 13.42-10.394 19.221-11.284 19.923-0.40872 0.3223-3.1732 4.2891-6.1426 8.8156-10.246 15.619-10.922 18.289-5.1829 20.471 3.1698 1.2052 3.7759 0.94405 21.503-9.25 8.1067-4.6619 11.036-6.4656 29.492-18.155 17.99-11.394 24.523-16.466 39.584-30.73 16.076-15.226 21.178-21.256 28.083-33.19l3.7735-6.522 0.0739 9.3753c0.12828 16.523 3.9034 44.788 7.595 56.858 3.276 10.711 4.0661 12.229 5.5761 10.72 1.0072-1.0072 0.85317-3.8988-0.61632-11.605-2.4976-13.099-3.4208-36.239-1.2447-31.192 1.4675 3.4035 5.043 14.775 7.3186 23.273 0.69046 2.5784 4.084 9.7894 7.54 16.026 8.359 15.084 9.5276 21.922 8.6216 50.432-0.52531 16.531-1.3382 24.392-3.5468 34.332-8.714 39.218-8.9524 40.708-8.965 55.687-0.0104 12.4 0.3464 15.336 2.3108 19.001 2.3349 4.3563 2.2753 5.5624-0.59057 12.038-3.1185 7.0465-7.3833 16.556-10.249 22.854-1.6133 3.5452-3.6108 8.2917-4.4379 10.548-0.82709 2.2561-1.9344 4.6739-2.4618 5.3735-0.52741 0.69967-4.4235 8.0845-8.6577 16.409-4.2342 8.3246-8.9292 16.245-10.433 17.602-3.4757 3.1367-5.3297 6.6037-5.3804 10.055-0.0219 1.4927-1.0602 4.8243-2.3056 7.4027-1.2454 2.5783-2.282 5.6655-2.3039 6.8619-0.0219 1.1964-1.6012 4.1487-3.5108 6.5598-5.968 7.5352-12.118 20.796-11.319 24.407 2.8893 13.054 3.0759 15.289 1.9279 23.113-0.66205 4.5121-1.4221 12.688-1.6893 18.167-0.26724 5.479-1.1326 11.741-1.9228 13.916-1.0531 2.8995-1.1779 7.7503-0.46696 18.167 1.8539 27.162 0.80625 101.38-1.8884 133.75-0.59029 7.0906-1.083 34.251-1.0936 60.356-0.0261 65.54 0.0573 65.027-14.218 88.486-3.5303 5.8013-10.231 17.14-14.891 25.197-10.581 18.294-10.823 18.704-13.116 22.268-1.0367 1.6114-3.1674 5.2948-4.7348 8.1856-1.5674 2.8907-3.9959 6.993-5.3975 9.1161-1.4016 2.123-3.692 6.0857-5.0902 8.8069-3.1564 6.1434-3.0789 6.008-15.374 26.641-5.566 9.3407-11.667 19.884-13.557 23.429s-5.8612 10.205-8.8242 14.799c-2.9631 4.5938-6.3558 10.394-7.5401 12.891-1.1843 2.4966-5.1841 9.6301-8.8894 15.851-3.7053 6.2207-6.7383 11.807-6.7383 12.416 0 0.6086-1.0542 2.0625-2.3434 3.2292-1.2892 1.1668-2.3434 2.6161-2.3434 3.2223 0 0.6065-0.97982 2.5021-2.1769 4.2131-1.197 1.7109-3.505 5.4858-5.128 8.3864-1.623 2.9007-6.7038 11.775-11.291 19.722-4.5874 7.9468-8.7718 16.11-9.298 18.141-0.729 2.8132-1.6129 3.6984-3.7151 3.7168-1.5175 0.013-2.9819 0.6844-3.2533 1.4902-0.2714 0.8057 0.28615 1.4644 1.2378 1.4644 2.3088 0 3.2446 2.7609 2.388 7.044-0.52921 2.646-0.26919 3.5039 1.061 3.5039 0.96853 0 2.4165-0.7911 3.2189-1.758 1.8614-2.2434 4.004-2.2388 5.8731 0.014 1.1439 1.3783 1.8386 1.4669 3.1262 0.3982 0.91069-0.7557 1.4095-2.0153 1.109-2.7983-0.3338-0.8698 0.53341-1.4232 2.2284-1.4232 3.1822 0 5.2038-1.747 7.7941-6.7383 1.0036-1.9337 4.6196-8.2624 8.0362-14.064 3.4166-5.8013 8.6288-14.676 11.583-19.722 2.9543-5.0459 6.1629-10.407 7.1298-11.913 1.4255-2.2197 16.907-28.462 33.987-57.608 1.6114-2.7499 5.5397-9.3735 8.728-14.72 13.367-22.413 22.582-38.174 25.213-43.122 1.5419-2.9007 3.1105-5.5371 3.4868-5.8594 0.91779-0.7862 9.4526-14.85 9.4526-15.576 0-0.5253 3.8832-7.1941 12.084-20.756 12.275-20.298 26.591-44.936 26.591-45.762 0-0.5443 1.4159-1.6777 3.1468-2.5185 1.731-0.8409 3.514-2.9156 3.9623-4.6096 1.2863-4.8601 8.1535-14.595 11.825-16.764 3.3352-1.97 7.3326-7.9947 6.1134-9.2139-0.35334-0.3534 0.34822-2.1339 1.5588-3.9571 1.2106-1.8233 2.7537-4.3508 3.4284-5.6173 0.87305-1.6388 3.3698-2.6915 8.6594-3.6481 7.754-1.4023 11.702-4.3731 11.702-8.8071 0-2.3131 1.3775-2.8106 10.726-3.8799 2.999-0.3428 5.9963-0.7725 6.6611-0.9545 0.66479-0.1823 3.8635 5.0738 7.1092 11.681l5.9023 12.012-3.9228 4.395c-16.068 18.008-32.287 40.374-52.907 72.956-7.7129 12.187-20.76 38.011-25.362 50.2-2.2651 5.9998-2.3283 7.9555-1.564 48.602 0.43796 23.292 1.1358 42.893 1.5502 43.558 0.61726 0.9896 1.4281 23.249 1.3631 37.422-0.0169 3.7088 2.3004 22.529 4.2713 34.691 4.0324 24.882 10.183 51.217 16.225 69.468 5.1644 15.599 11.949 32.096 14.931 36.304 4.3878 6.1926 10.934 3.2574 17.945-8.0464 4.0925-6.5979 12.355-18.321 15.707-22.287 0.92749-1.0972 15.894-23.851 26.493-40.279 4.0242-6.2368 11.512-19.556 16.141-28.713 14.287-28.259 28.742-59.357 35.683-76.765 1.0953-2.7473 1.2183-2.5999 1.9777 2.3451 0.44546 2.9007 1.2998 7.6472 1.8987 10.548 0.59888 2.9008 1.9039 10.284 2.8996 16.407 0.99575 6.1237 2.9251 17.629 4.2868 25.568l2.4756 14.435-4.2645 4.3657c-3.9497 4.045-4.2644 4.8888-4.2644 11.43 0 7.5025-2.5965 18.095-5.0542 20.618-4.2953 4.411-6.4148 10.067-6.9375 18.514-0.59445 9.6068-5.3277 23.057-11.959 33.987-1.8792 3.0974-5.0982 10.123-15.039 32.816-2.7401 6.2552-5.5469 15.071-5.5469 17.425 0 1.1592-0.39554 2.5019-0.87899 2.9838-0.48344 0.4818-1.7956 5.7123-2.9168 11.623-1.1212 5.91-2.8834 14.7-3.9159 19.535-3.8187 17.879-7.5632 57.454-7.5401 79.696 8e-3 7.4128-0.56859 19.279-1.2807 26.37-0.71211 7.0904-1.1814 13.55-1.0438 14.356 0.54634 3.1999 0.43318 17.494-0.16482 20.804-2.2854 12.649-4.0234 17.588-7.3924 21.02-1.969 2.0059-4.5038 4.9536-5.6344 6.5495-1.1306 1.596-3.3732 4.7174-4.9821 6.9375-3.3725 4.6537-3.6876 9.4015-1.2361 18.612 1.4362 5.3957 1.4345 6.8841-0.0136 10.989-2.1188 6.0052-2.0832 13.556 0.0824 17.344 0.92118 1.6115 1.6756 4.5128 1.6756 6.4465 0 1.9338-0.75438 4.8332-1.6756 6.4447-2.9415 5.1456-2.195 14.364 1.7768 21.958 2.9549 5.6491 3.6558 8.6228 4.2765 18.146 0.52151 8.0019 0.33131 11.884-0.63863 13.053-1.6323 1.9669-3.8521 24.808-3.5468 36.5 0.11778 4.5122-0.16395 10.578-0.62664 13.478-0.57595 3.611-0.0483 9.5243 1.6739 18.752 2.5486 13.657 2.8884 15.854 6.989 45.12 2.6899 19.198 5.9642 29.982 12.21 40.216 6.7288 11.025 14.027 17.634 26.016 23.559 10.152 5.0179 10.808 5.1699 21.604 5.1812 17.391 0.01 31.127-4.6123 40.777-13.719 5.3078-5.0089 8.9876-17.106 8.1186-26.691-0.34676-3.8238-1.1535-7.5909-1.794-8.3727-0.64052-0.7816-1.7748-3.7947-2.5202-6.6954-1.4796-5.7577-2.2788-7.6488-10.795-25.546-6.9952-14.7-14.553-37.104-15.602-46.245-0.42561-3.7099-2.3481-11.095-4.2713-16.409-1.9232-5.3144-4.1944-12.454-5.0473-15.868-0.66333-2.6551-1.1365-3.7644-1.6086-4.9083-0.22561-2.816-0.9429-5.4989-2.0824-7.789 0.29046-1.9872 0.46537-5.4257 0.48413-12.042 0.0239-8.4403 0.40534-16.532 0.84808-17.983 0.44276-1.4511 3.3746-6.4369 6.5152-11.08 7.5004-11.089 9.1458-17.059 6.5134-23.638-1.075-2.6869-1.9554-5.9477-1.9554-7.2465s-0.87134-3.6913-1.9365-5.3169c-1.8339-2.7991-1.805-3.1234 0.55798-6.1117 1.3724-1.7358 4.1856-6.2301 6.2507-9.9864 3.6686-6.6727 3.8472-6.8118 7.789-6.0722 2.219 0.4163 4.8931 1.2508 5.9418 1.8541 2.2602 1.3005 24.605 8.8997 30.948 10.526 2.4362 0.6245 5.6056 0.8398 7.0439 0.479 1.9072-0.4787 3.6626 0.3692 6.486 3.1296 4.4072 4.3088 5.2388 4.3836 24.818 2.2731 21.317-2.2978 59.217-8.592 64.166-10.656 2.201-0.9178 2.637-2.004 2.637-6.5701v-5.4696l20.048 0.6302c16.283 0.5125 20.403 0.9863 21.937 2.5201 2.6784 2.6785 3.1684 15.749 0.99404 26.492-0.97858 4.8344-2.1163 13.536-2.5288 19.338-0.4125 5.8014-1.1962 11.604-1.7425 12.893-0.54629 1.2891-1.5292 8.9351-2.1838 16.993-0.95386 11.743-0.88618 14.964 0.34343 16.23 2.4275 2.4995 5.4 0.2421 22.836-17.339 8.7388-8.8116 18.525-18.193 21.748-20.849 3.223-2.6557 7.4433-6.2249 9.377-7.9313 1.9338-1.7067 4.7026-3.9162 6.1529-4.9084 1.7725-1.2126 2.6476-3.0067 2.6696-5.4764 0.0255-2.8178 1.938-5.9249 8.2044-13.329 4.494-5.3099 8.169-10.584 8.1683-11.72 0-3.8665-9.8876-45.187-16.476-68.868-4.7113-16.935-4.338-19.43 1.5794-10.577 1.4262 2.1336 8.1299 11.072 14.898 19.863 6.7682 8.7908 15.733 20.79 19.923 26.665 4.1899 5.875 10.138 14.033 13.217 18.129 3.0794 4.096 7.4354 11.105 9.6791 15.576s6.7887 12.779 10.1 18.46c3.3111 5.6818 6.6155 11.384 7.3443 12.673 0.72876 1.2893 2.8064 4.6458 4.6164 7.4578 6.1489 9.5532 17.048 32.081 23.691 48.969 6.0997 15.506 6.4882 17.04 4.9134 19.465-0.94025 1.4477-2.6406 5.4471-3.7769 8.8876-1.9702 5.9647-1.9702 6.5632-0.014 12.891 2.6071 8.4307 5.8039 14.848 10.144 20.364 2.7842 3.5382 3.1924 4.7827 2.1872 6.661-0.67998 1.2704-1.2361 5.7163-1.2361 9.8784 0 7.1337 0.27389 7.8938 4.7658 13.262 9.2217 11.021 10.74 17.723 6.8808 30.359-1.3692 4.4829-2.9677 8.6514-3.552 9.2638-0.58426 0.6123-1.0627 3.2781-1.0627 5.9245 0 3.2977-0.92601 6.0669-2.9425 8.8001-3.2657 4.4265-4.6047 8.3751-6.9495 20.493-1.8962 9.7998-7.8182 23.469-14.862 34.301-7.4477 11.453-16.281 30.428-17.022 36.569-0.35248 2.9192-1.4436 7.528-2.4258 10.24-3.0732 8.487-0.33612 19.693 6.795 27.815 5.0073 5.7031 11.269 9.6243 20.919 13.102 6.6942 2.4129 9.228 2.7066 19.418 2.2559 18.575-0.8217 28.393-4.9771 41.388-17.521 9.4261-9.099 16.517-19.009 21.046-29.412 4.2884-9.8507 5.0641-12.676 9.4938-34.574 2.4901-12.309 4.9346-20.45 8.8722-29.532 2.9899-6.8963 5.6688-14.016 5.952-15.822 3.106-19.806 3.2557-21.781 1.928-25.453-0.75179-2.0789-1.3808-8.7532-1.3975-14.831-0.0352-12.892-3.352-29.217-6.9152-34.037-3.09-4.1788-3.0823-8.6465 0.022-14.44 1.9312-3.6033 2.5453-7.2151 2.8876-16.975 0.41558-11.847 0.29631-12.596-2.6696-16.876-2.7295-3.9387-3.1862-5.9876-3.789-16.996-0.81685-14.916-2.2287-18.254-9.825-23.224-6.3707-4.1686-8.4586-7.6728-28.742-48.219-2.4934-4.9843-8.649-19.965-19.127-46.552-2.0324-5.1565-4.1288-9.9513-4.6593-10.654-1.9091-2.5298-11.305-35.808-18.126-64.199-1.5769-6.5639-10.727-38.462-13.156-45.862-0.63463-1.9336-2.841-9.0536-4.9048-15.822-4.1343-13.559-9.3988-25.37-17.145-38.473-2.7965-4.73-5.0834-8.8037-5.0834-9.0525 0-0.9881-10.164-15.255-13.265-18.622-1.8166-1.9718-3.8425-4.5618-4.5014-5.7564-1.1094-2.0111-0.82019-2.1139 3.8902-1.3717 2.7978 0.4405 7.8677 1.651 11.267 2.6884 5.4265 1.6562 6.391 1.6762 7.8972 0.1699 1.6796-1.6795 3.3694-7.9092 5.1143-18.852 1.1064-6.9378 2.9863-9.178 7.7014-9.178 3.8427 0 21.498 5.8376 31.348 10.364 3.0265 1.3908 6.2296 2.5288 7.1194 2.5288 2.6715 0 6.3072 4.9074 8.2473 11.133 1.1321 3.6327 2.0922 12.765 2.5253 24.026 0.38429 9.9911 1.2242 23.44 1.8662 29.886 0.64192 6.4459 1.9238 22.003 2.8498 34.572 3.902 52.965 5.3662 71.52 6.4739 82.039 0.64483 6.1238 1.7159 16.62 2.3794 23.324 0.66345 6.7045 1.451 12.588 1.7511 13.073 0.29991 0.4854 1.3425 8.1848 2.316 17.109 0.97338 8.9246 2.2765 18.863 2.8962 22.086 0.61977 3.2231 1.4299 7.8361 1.7992 10.251 0.36944 2.4147 1.8465 5.757 3.2842 7.4285 2.4277 2.8223 3.6539 3.1217 17.169 4.1872 8.0046 0.6311 15.472 1.6381 16.594 2.2386 1.1223 0.6007 3.0483 1.0919 4.28 1.0919 2.9213 0 5.1278 2.5527 9.631 11.135 2.0294 3.8676 4.5742 7.3771 5.655 7.7994 2.6661 1.0412 7.1772-0.071 10.936-2.6971 1.711-1.1952 3.418-2.1734 3.7923-2.1734 1.2329 0 12.782-7.1607 28.112-17.43 10.169-6.8124 20.3-15.04 31.058-25.224 17.984-17.024 18.291-17.711 11.339-25.406-3.9336-4.354-4.1632-5.059-4.1632-12.807v-8.2011l9.0834-4.467c8.0006-3.9351 10.529-6.0648 21.224-17.873 15.317-16.911 25.949-30.965 25.935-34.28-9e-3 -1.4105-4.6884-10.302-10.405-19.758-6.9162-11.44-10.002-17.586-9.2243-18.364 0.77799-0.7782 0.74784-3.0641-0.0892-6.8311-0.6922-3.114-1.5844-9.6173-1.9812-14.452-0.88707-10.808-6.2574-52.549-7.128-55.4-0.34826-1.1413-3.0993-3.3283-6.1134-4.8601-3.0142-1.5315-12.669-8.5082-21.454-15.504-8.7854-6.996-20.071-15.886-25.08-19.753-15.976-12.336-17.378-14.138-21.58-27.731-2.0601-6.6641-4.983-15.544-6.4946-19.734-1.5116-4.1898-3.3569-9.7274-4.1014-12.306-0.74459-2.5783-1.8016-5.7426-2.3486-7.0319-0.54691-1.2891-3.4541-9.4631-6.4602-18.165-3.0061-8.7019-5.9132-16.876-6.4602-18.165-0.54699-1.2893-1.6383-4.4536-2.4257-7.0319-0.78723-2.5785-2.0806-5.7428-2.8739-7.032-3.9297-6.3854-8.506-24.046-9.7685-37.693-0.72507-7.839-1.8394-16.804-2.4756-19.923-1.8817-9.2242-4.6788-27.773-4.2524-28.2 0.21692-0.2168 3.4939 3.4449 7.2826 8.1375 8.8756 10.993 12.042 13.723 15.966 13.769 6.8752 0.08 8.1496-5.7616 12.649-57.977 0.61088-7.0905 1.1182-32.247 1.1296-55.905l0.0193-43.015 7.7392-24.375c15.109-47.582 18.33-67.325 18.505-113.44 0.12042-31.619 0.022-33.137-2.6936-41.606-4.4437-13.857-11.936-26.742-23.202-39.904-2.7086-3.1645-7.192-8.7973-9.9624-12.517-2.7705-3.7196-6.698-8.6093-8.7281-10.865-2.0301-2.2561-5.9682-7.0027-8.7521-10.548-2.7837-3.5451-6.2078-7.7637-7.6087-9.3753-32.36-37.225-35.96-40.976-45.589-47.465-9.7374-6.5626-30.302-27.381-36.181-36.629-5.1194-8.053-17.381-24.702-24.042-32.644-8.3388-9.9432-7.9821-8.9925-5.3546-14.26 0.99096-1.9864 2.3626-6.7903 3.0473-10.677 1.0238-5.8125 1.9035-7.57 4.9614-9.9023 2.0445-1.5595 4.9819-5.5371 6.5288-8.8397 1.5468-3.3027 3.1992-6.0052 3.6705-6.0052 1.5267 0 3.4301 7.2339 3.4301 13.035 0 10.916-6.7765 19.781-15.123 19.781-4.4353 0-4.6304 1.4178-0.5614 4.0843 7.8246 5.1267 16.072 0.7618 19.578-10.361 3.612-11.459 2.4329-21.89-4.9254-43.534-4.6656-13.723-6.3345-21.292-5.1572-23.396 1.0575-1.8896 1.2444-1.8908 3.1125-0.022 5.2206 5.2206 14.744 21.242 17.753 29.865 5.0186 14.383 6.6226 23.986 4.8481 29.007-0.77439 2.1914-0.51676 2.637 1.5211 2.637 1.7872 0 2.643-0.95361 3.1554-3.516 1.3922-6.961 2.7535-3.3026 2.7263 7.3255-0.0361 13.999-1.2809 19.036-5.873 23.774-4.4333 4.5742-3.8155 7.2467 1.0884 4.7108 6.7455-3.4883 12.285-13.545 16.66-30.243 1.4777-5.6401 3.0445-10.256 3.4816-10.256s1.4444 1.5692 2.2387 3.4868c1.8755 4.5279 11.002 12.922 14.05 12.922 3.2656 0 2.981-2.8621-0.43948-4.4206-9.0245-4.1118-15.55-24.379-12.555-38.995 0.72069-3.5166 1.49-8.0019 1.7099-9.9675 0.21974-1.9656 1.311-4.9641 2.4241-6.6628 1.2388-1.8908 2.283-6.5276 2.6936-11.956 0.36882-4.8765 1.0789-8.8654 1.5778-8.8654 0.49873 0 1.7316-0.31582 2.7382-0.70214 2.6379-1.0123 9.2147 14.013 11.77 26.891 2.5636 12.919 1.7389 20.839-2.5185 24.188-2.8129 2.2128-3.0871 5.8782-0.43949 5.8782 3.265 0 9.6876-12.38 10.992-21.188 1.6372-11.052 2.4502-14.22 3.7787-14.73 0.85235-0.32707 2.0254-4.9971 2.8447-11.326 1.2482-9.6426 1.1446-12.043-0.99405-22.927-1.6494-8.395-2.0376-12.814-1.2532-14.28 1.3609-2.5422 1.3957-10.368 0.0773-17.181l-0.95626-4.9443 3.0644 2.1838c4.3468 3.0952 13.241 13.667 15.192 18.059 2.27 5.1094 2.0129 18.946-0.50127 26.922-1.1407 3.6186-4.052 9.1916-6.4688 12.385-5.8667 7.7513-3.7966 9.5673 5.4233 4.7572 2.5535-1.3322 5.6202-2.631 6.8139-2.8859 3.1972-0.68261 5.2232-2.681 8.6594-8.5444 2.7211-4.6432 3.086-6.552 3.1555-16.502 0.0676-9.6557 0.40082-11.521 2.3571-13.147 2.2539-1.874 2.2514-1.9904-0.31758-10.536-2.1642-7.1988-3.62-9.6778-8.7178-14.84-7.9691-8.0694-16.212-13.591-31.333-20.991-15.068-7.3746-25.376-12.095-26.411-12.095-0.42727 0-2.4375-0.74476-4.4688-1.655-2.0312-0.91019-8.0455-3.0933-13.363-4.8516-5.3179-1.7583-9.6688-3.5861-9.6688-4.0619s0.79109-2.759 1.758-5.0731c4.4247-10.59 0.38605-24.882-10.151-35.925-5.5074-5.7715-14.46-12.901-18.526-14.754-2.2761-1.0371-6.2476-2.8604-8.826-4.0515-4.4892-2.0738-16.123-5.5096-29.886-8.8242-21.608-5.2043-30.294-7.5924-35.745-9.832-8.125-3.3379-16.342-7.9621-22.914-12.893-6.7308-5.0502-24.849-22.924-32.756-32.315-1.6114-1.9138-5.4345-6.4356-8.4963-10.048-3.0619-3.6126-5.5675-7.1712-5.5675-7.9074s-0.52792-1.3374-1.1725-1.3374-1.1709-1.1185-1.1709-2.4842c0-2.441 0.0633-2.4336 3.8216 0.43264 5.0431 3.8466 18.925 10.289 23.913 11.099 5.0122 0.81339 8.5959-2.1192 8.5959-7.0336 0-11.482-26.284-48.75-67.891-96.261l-12.23-13.966-2.7142-15.92c-1.4933-8.7557-3.2213-17.239-3.8404-18.85-0.61916-1.6115-1.4662-5.039-1.8816-7.6173s-1.5163-7.0208-2.4464-9.8714c-0.93005-2.8507-3.569-12.322-5.8645-21.048l-4.1735-15.865 2.0996-13.399 2.1013-13.398-2.5219-1.885c-10.246-7.6597-14.407-11.5-25.073-23.151-6.6478-7.2607-12.511-12.779-13.029-12.261-1.1834 1.1834 1.4519 7.1572 3.1571 7.1572 0.0404 0 0.67814 0.66315 0.75198 0.69872-0.17493 0.10447-0.35811 0.17952-0.51333 0.33478-1.0034 1.0031-0.82863 1.396-0.93217 1.8575-0.058 0.25841-0.0827 0.53632-0.11849 0.80345-0.10539-0.16498-0.11303-0.94818-0.23345-1.0575-0.53276-0.48376-0.67102-0.0399-0.30563 0.98541 1.5432 4.3308-1.0875 4.2108-6.158-0.28153-2.8964-2.5661-6.7169-5.5374-8.4894-6.601-1.7726-1.0636-3.2224-2.3476-3.2224-2.8533 0-0.50561-0.55561-0.91847-1.2343-0.91847-0.67874 0-3.1737-1.3191-5.5452-2.9305-2.3715-1.6115-5.1127-2.9383-6.0911-2.9477-5.3246-0.0537-4.7252-2.0921 2.8378-9.6551 2.09-2.0901 2.1905-2.4525 3.0026-3.437 3.0069-3.0168 5.8703-6.0115 7.6637-8.2662l0.44636-0.56138c1.4606 2.1266 3.8362 4.7598 6.0962 7.0164 1.1317 1.1301 2.2188 2.1435 3.1674 2.9288 0.4743 0.39266 0.90579 0.72789 1.3579 1.018 0.45225 0.29014 0.66067 0.71932 2.1083 0.71932-0.97311 0-0.77895-0.15861-0.67128-0.10129 0.10768 0.0573 0.34922 0.20509 0.63349 0.40344 0.53363 0.3723 1.2453 0.94854 1.928 1.5571 0.0963 0.10372 0.022 0.0862 0.12358 0.19227 0.2703 0.28208 0.44477 0.25002 0.72622 0.51332 1.9903 1.7605 5.9974 5.1154 9.9263 8.2903 4.1852 3.3819 9.2018 7.4597 11.114 9.0336 1.1054 0.90972 2.2972 1.7106 3.4284 2.3297 1.1311 0.61903 1.9248 1.1677 3.5451 1.1932-0.66292-0.0105 0.38324 0.13337 1.2996 0.60945 0.91626 0.47606 2.0356 1.1725 3.0232 1.9108 1.4574 1.0893 4.1094 2.6199 7.6482 4.57 3.5389 1.9501 7.8383 4.2095 12.076 6.3246 15.528 7.7505 29.459 11.882 41.937 12.258l4.5563 0.13735a2.6372 2.6372 0 0 0 2.7022-2.8996l-0.79654-7.9109c-0.45153-4.4855-1.3166-9.9961-2.0807-12.869-0.14108-0.53051-0.17282-0.96272-0.23865-1.4318-9e-3 -0.11843-0.0878-0.57681-0.0878-0.66953 0-0.052-0.0378-0.0431-0.0396-0.0944-9e-3 -0.0715-0.0334-0.16939-0.0396-0.23862 0.24795-6e-3 0.3849-0.025 0.6798-0.0223 1.5312 0.014 3.6206 0.14983 5.7907 0.40688 12.977 1.5369 20.535 2.4081 24.977 2.8327 2.2211 0.2123 3.6491 0.31726 4.6919 0.32961 0.52143 6e-3 0.94132-3e-3 1.4146-0.0772 0.47325-0.0743 1.1258-0.15248 1.8695-0.89615 0.27486-0.27485 0.38008-0.57659 0.52704-0.87212 0.72288 0.78364 1.4009 0.84837 1.4009-0.86353 0-1.1462-1.1308-3.445-2.8086-6.2233-0.15936-0.30462-0.21324-0.53958-0.39141-0.86009-1.7467-3.1411-4.4008-7.0146-7.6569-11.101-5.9127-7.4201-14.159-15.272-23.497-22.754-2.1563-1.7782-4.7781-3.8705-8.4019-6.6679-13.484-10.409-20.425-14.548-34.406-20.514-1.8341-0.78261-3.0847-1.2246-4.5374-1.782-0.75039-0.32812-1.3869-0.62685-2.1425-0.96139 7.1144-0.0523 14.261-0.60664 21.343-1.5451 2.4082 0.0223 5.9316-0.30321 9.1727-1.0215 12.379-2.7433 21.206-5.0791 22.268-5.8937 0.64465-0.49406 2.996-1.289 5.2258-1.7666 3.2481-0.69565 10.296-4.1389 14.848-6.8036 2.9952-1.5228 6.038-3.2608 9.001-5.1314 3.6521-1.5403 9.1568-5.3851 14.603-10.332 8.1004-7.3572 10.255-10.242 8.6526-12.289a2.6372 2.6372 0 0 0-1.6945-2.0636l-9.6482-3.2567c-0.79057-0.26685-2.1041-0.56435-3.0507-0.84637-0.19153-0.14751-0.12042-0.13896-0.36575-0.32447-1.2512-0.94638-3.6523-1.7202-5.334-1.7202s-3.6196-0.56201-4.3074-1.2498c-0.68781-0.68779-5.2931-1.5577-10.234-1.9314-4.9405-0.37365-9.193-1.0198-9.4508-1.437-0.2579-0.41717 1.0935-3.9097 3.0026-7.7615 1.9092-3.8519 3.5872-8.5288 3.7288-10.392 0.23689-3.1148-0.21431-3.5269-5.6035-5.1434-2.4592-0.73765-6.7672-1.1676-12.345-1.4593-5.3764-0.77256-10.94-1.3909-14.774-1.3909-4.6009 0-9.9862 0.5006-15.708 1.291-5.9114 0.33626-10.391 1.003-16.648 2.3846-6.9053 1.5249-12.547 3.2275-12.586 3.7941-1.4626 0.40189-2.9255 0.77489-4.3829 1.2017-5.6019 0.86498-21.419 6.4782-30.857 11.071-5.2251 2.543-7.5146 3.6442-8.4001 3.7254-0.0158-0.63203 0.0492-1.7112 0.0633-2.5254 9e-3 -0.14979 0.073-0.37978 0.0106-0.43778 0.0228-0.9263-0.0131-1.5307 0.0685-2.7486 0-0.0462 0-0.0929 9e-3 -0.13905 0.19972-1.1272 0.20964-3.2873 0.12016-6.0173-0.0412-2.5518-0.21702-5.1089-0.5099-7.6654-9e-3 -0.0409 0-0.0845-9e-3 -0.12532-0.19681-1.6114-0.42552-4.1172-0.50815-5.5675-0.0589-1.0405-0.38939-1.9272-0.80858-2.3554-0.25446-1.1826-0.50884-2.3658-0.81377-3.54 0.1155-0.56888 0.0527-1.3834-0.33128-2.2576-0.50744-1.1558-0.96962-2.4527-1.025-2.8824-0.0193-0.15496-0.24938-0.38865-0.35364-0.59916-2.2952-6.8838-5.4509-13.515-9.3289-19.657-0.37928-0.6439-0.52959-0.98476-0.96653-1.7013-5.1791-8.4945-8.755-12.449-18.248-20.177-4.8768-3.968-13.596-9.2379-15.288-9.2379-0.72682 0-7.207 7.013-12.306 12.903-1.8017 1.7733-3.6485 3.577-5.116 4.8653-0.95757 0.84073-1.798 1.538-2.4223 2.0121-0.42868 0.32551-0.44537 0.3305-0.50304 0.38111-0.0676-0.0155-0.0791-0.014-0.16138-0.036-0.5361-0.14286-1.3546-0.41535-2.3142-0.77941-1.9192-0.72813-4.4355-1.8205-7.013-3.037-5.155-2.4329-10.841-5.6408-12.17-6.7675-0.82484-0.69894-1.8896-1.3549-3.4198-2.3125-1.5302-0.95759-3.3787-2.0726-5.1795-3.1297-1.8009-1.0571-3.5483-2.0535-4.8877-2.7795-0.51851-0.28105-0.91863-0.48235-1.3133-0.67812-0.0228-0.022-0.0501-0.0346-0.0721-0.0568-0.96688-0.96688-2.2594-1.758-2.8738-1.758zm60.346 13.782c0.0994-0.0365-0.14837-0.037 0.0291 0.012 0.17764 0.0491 0.70811 0.28181 1.5177 0.70045 3.996 2.0664 10.554 8.7001 16.369 16.663 5.8149 7.9629 11.121 17.318 13.702 24.788 0.25948 0.7509 0.7213 1.7978 1.2876 3.1039-0.14047-0.32391 0.12164 0.51481 0.23865 1.5417 0.11699 1.0268 0.22168 2.4168 0.30729 4.0327 0.17114 3.2319 0.26676 7.3784 0.27987 11.621 0.0133 4.2424-0.0554 8.5884-0.20604 12.232-0.12569 3.0339-0.34642 5.0782-0.55113 6.5358-0.94675 4.0978-1.5622 7.5727-1.2755 7.8594 0.33656 0.33652 1.8087 1.2731 3.2704 2.0807 4.1074 2.2695 5.111 2.0224 11.528-2.8344 1.3864-1.0494 3.5401-2.4235 5.7255-3.7786 4.5725-2.5541 10.512-5.4114 21.654-10.471 0.41215-0.18713 2.7316-0.94385 3.8318-1.346 1.4431-0.43091 2.7275-0.88394 3.6756-1.2927 1.5505-0.5311 1.9804-0.74271 3.8027-1.3356 5.4202-1.7637 11.775-3.7275 17.039-5.2344 1.6071-0.46012 3.1674-0.83444 4.8292-1.1605 0.25973-0.0439 0.54101-0.0946 0.81552-0.1425 5.209-0.9452 11.653-1.3758 24.268-1.7356 0.80534-0.0229 1.3604-0.0306 2.122-0.0515 1.2667 0.0302 2.3553 0.0332 3.7494 0.0807 9.1356 0.31175 16.55 0.80242 17.987 1.1434 0.0412 0.13718 0.0968 0.56564-0.0536 1.3562-0.30229 1.5972-1.4016 4.3697-2.9821 8.0757-0.32478 0.76163-0.47499 1.3353-0.75539 2.0584-1.596 2.1043-3.7293 7.5212-3.1091 8.9787 0.32013 0.75222 0.69018 0.47718 1.0935-0.29872 0.11859 0.35232 0.34211 0.75241 0.84129 1.1949 0.65387 0.57981 0.87925 0.56325 1.176 0.67641 0.29664 0.11315 0.59261 0.20461 0.92874 0.30043 0.67224 0.19164 1.4942 0.38937 2.4584 0.59745 1.9284 0.41612 4.4078 0.86763 7.0336 1.2704 1.1708 0.17959 2.414 0.44997 3.6242 0.66612 0.0898 0.059 0.23047 0.29185 0.29182 0.29185 0.0421 0 0.14557-0.17175 0.20261-0.20087 2.9753 0.54091 5.856 1.1345 8.7521 1.8129 0.35766 0.41852 1.4393 0.73307 2.7657 0.73307 0.0995 0 0.15874-0.014 0.25577-0.0154 0.57574 0.14575 1.2303 0.27512 1.7855 0.42233 5.4026 1.4326 10.006 3.1462 11.011 3.7855l0.0703 0.0446-0.58374 0.6249a2.6372 2.6372 0 0 0 0 2e-3c-0.86016 0.92271-3.8727 3.2713-6.7915 5.3134-0.74758 0.41587-1.7386 0.97014-2.2284 1.2412-1.0936 0.60523-2.2862 1.5422-3.2138 2.4018-2.2335 1.4404-4.832 3.1144-5.8456 3.7752-5.0072 3.264-15.134 7.5591-23.384 9.8028-18.391 5.0012-40.799 7.8572-62.791 7.9761-7.1846 0.0388-11.62 0.23956-14.381 1.1056-0.69027 0.21651-1.4398 0.26517-2.2834 1.5399-0.42182 0.63739-0.60641 1.8057-0.32443 2.6026 0.28207 0.79689 0.72982 1.193 1.0832 1.473 1.414 1.12 2.6407 1.3006 4.7624 1.7957 11.793 2.7522 24.774 8.2868 37.338 15.976 2.0414 1.2494 3.9597 2.3834 5.4319 3.2189 0.73616 0.41778 1.358 0.76004 1.8541 1.0163 0.24804 0.12815 0.46049 0.23409 0.67988 0.33134 0.10979 0.0487 0.21782 0.0951 0.37428 0.14935 0.0246 9e-3 0.12868 0.0166 0.15276 0.0275 0.0193 9e-3 0.12236 0.0593 0.27293 0.14422 0.31468 0.17733 0.81307 0.48169 1.4146 0.86869 1.2031 0.77401 2.8418 1.8868 4.649 3.1537 3.6146 2.5338 7.9241 5.7005 10.963 8.1135 4.0368 3.205 10.436 9.1292 16.227 14.879 5.7905 5.75 11.122 11.543 12.754 13.865 0.70389 1.0016 1.0066 1.6525 1.3804 2.3623-0.33831 6e-3 -0.52624 0.025-0.91854 0.024-2.2746-5e-3 -5.3877-0.12171-8.7589-0.31932-6.7422-0.39522-14.592-1.1304-19.015-1.8936l-3.3495-0.57684a2.6372 2.6372 0 0 0-3.0781 2.788l0.82747 11.559 0.66953 9.353-1.0644 0.26611c-0.99923 0.2508-5.0811 0.31813-8.6354-0.0584-1.7772-0.18825-3.4996-0.45563-4.8172-0.74851-1.3176-0.29287-2.3884-0.8902-1.9932-0.57512-0.95264-0.7595-1.8175-1.1066-3.1589-1.7133-1.3414-0.60679-2.995-1.2922-4.7914-1.9932-3.5928-1.4019-7.7272-2.8586-10.931-3.7769-1.8393-0.52724-7.1214-3.2964-12.884-6.9924-2.0722-1.329-4.2844-2.878-6.4739-4.4018-2.3-1.7536-4.7596-3.3808-5.7718-4.3383-0.44863-0.42441-0.7931-0.50723-1.2344-0.7777-1.4577-1.106-2.9865-2.1997-4.3486-3.2996-4.874-3.936-9.9594-7.8639-12.048-9.195-0.56984-0.36311-2.557-2.0011-4.7863-4.0464-2.2295-2.0453-4.8583-4.5762-7.3581-7.068-2.4998-2.4917-4.8761-4.9521-6.5958-6.8413-0.85991-0.9446-1.5596-1.7515-1.9966-2.3039-0.16427-0.20761-0.24321-0.32353-0.31758-0.43092 0.0466 0.12745 0.0978 0.27955 0.0978 0.8086 0-0.28651-0.0764-0.59149-0.1597-0.89442-9e-3 -0.0105-0.0379-0.0489-0.043-0.0568-9e-3 -0.0138 0.0219 6.7e-4 0.0291-0.0154-0.35493-1.2038-1.2807-2.4117-2.4052-2.7846-1.4305-0.47443-2.584-0.15685-3.6361 0.26095-2.1043 0.83558-4.0761 2.4732-5.322 4.8825-0.12446 0.24068-1.3559 1.9252-2.9632 3.7426-1.6072 1.8173-3.6598 3.9862-5.7735 6.1134-2.1138 2.1273-4.2944 4.2185-6.1512 5.8868-1.8568 1.6683-3.5355 2.9673-4.0139 3.2413-1.8962 1.0859-2.8662 2.9391-2.9185 4.8258-8.8e-4 0.0316 0.0124 0.066 0.0124 0.0979-3.5047-2.6423-19.477-6.3492-33.992-8.5324 0.10083-8.8e-4 0.2644-0.0224 0.35705-0.0224 2.7046 0 5.3148-1.3225 6.9306-3.5486 1.6158-2.226 2.4833-5.1341 3.03-8.8311l0.71769-4.855a2.6372 2.6372 0 0 0-3.1606-2.9649l-4.9735 1.0678c-3.5916 0.77061-8.3143 2.2334-12.448 3.7254-2.0669 0.74601-3.9752 1.4976-5.5229 2.1872-1.5475 0.6896-2.5509 1.0311-3.6824 2.1202-1.4686 1.4135-2.2416 3.115-2.8052 4.9975-0.19867 0.66332-0.40812 1.2973-0.37604 2.2404 0.0158 0.45604 0.18476 1.0043 0.44125 1.5176h-9.7427c-3.4354 0.17144-7.6919 0.45034-11.307 0.94079-12.991 1.7625-29.253 3.3059-29.736 2.8224-0.0986-0.0986 2.5204-2.7199 3.4164-3.7632h-1.0524c3.8148-4.9414 10.291-10.992 18.033-16.682 9.3451-6.8675 20.324-13.248 29.923-17.015 3.1971-1.2548 6.0009-2.4827 8.0242-3.4954 1.0116-0.50634 1.8126-0.94121 2.4774-1.3923 0.33234-0.22555 0.62214-0.40906 1.0215-0.87212 0.0149-0.0178 0.0352-0.0498 0.0519-0.0686 0.0176-0.0103 0.0255-8.9e-4 0.043-0.012 0.66055-0.40825 1.2017-1.7652 1.2017-3.0164 0-1.7678-0.83143-2.1367-5.2928-2.0824-0.43045-0.0682-0.77826-0.14175-1.2808-0.20774-2.127-0.27931-4.8886-0.54305-7.9366-0.76911-6.096-0.45211-13.291-0.75435-18.541-0.66267-7.8395 0.13689-38.913-3.0555-45.445-4.6181-2.5792-0.61708-10.49-2.5082-17.58-4.2044-11.312-2.7062-19.971-5.3365-26.116-7.6362-2.592-1.2797-5.4183-2.5665-7.6894-3.437-0.11737-0.0742-0.36748-0.17162-0.47384-0.24377-1.2241-0.8307-2.4405-1.5792-3.4747-2.1494-0.51714-0.28507-0.98368-0.52561-1.4284-0.72103-0.44466-0.19542-0.58444-0.44807-1.7734-0.44807 1.0313 0 0.66295 0.15259 0.42576-0.0189-0.13658-0.0988-0.31193-0.29144-0.48242-0.45666 0.18157-0.17829 0.20999-0.25458 1.0867-0.94423 0.31965-0.25144 1.8046-1.0946 2.6833-1.6412 7.9532-4.4805 25.133-13.053 26.663-13.053 0.55299 0 0.95255-0.41748 1.0764-0.93221 0.70091-0.0548 1.3777-0.20007 2.0378-0.56826 0.81405-0.45403 1.8696-1.4365 1.8696-2.9958 0-1.0643-0.23573-1.1993-0.37597-1.4919-0.14026-0.29259-0.29062-0.55142-0.46526-0.83777-0.34927-0.57271-0.79782-1.235-1.3442-2.0052-0.12099-0.17051-0.33526-0.43621-0.46525-0.61632-0.15748-0.22823-0.28187-0.46062-0.4704-0.6249-0.97254-1.3275-1.9944-2.7099-3.2653-4.328-3.2705-4.1639-7.1473-8.8206-9.8508-11.66-1.066-1.1197-1.7361-2.0515-2.0155-2.6026-0.0233-0.0461-0.0117-0.0323-0.0292-0.0704 0.53079-0.18287 1.5958-0.37268 3.0816-0.41374 19.527-0.53966 35.688 0.10002 48.058 1.7082 0.67256 0.23572 1.8242 0.40385 3.2516 0.42233 0.64028 0.0982 1.4226 0.15995 2.0378 0.26436 18.259 3.099 30.568 5.7912 40.327 8.6903 2.381 0.95223 4.7537 1.9192 7.3752 2.8842 11.248 4.14 16.02 6.1767 22.267 9.5058 1.8304 0.9755 3.4147 1.6939 4.7864 2.2507 1.2324 0.71749 2.389 1.4702 2.5134 1.5794 1.4698 1.2911 3.1912 2.0414 5.1142 1.8284 0.0519 8.8e-4 0.0651 0.0138 0.12192 0.0138 3.4833 0 5.631-1.3886 5.631-3.6413 0-1.2281-0.81693-2.2198-1.8283-2.2198-9e-3 0-9e-3 5e-3 -0.0158 5e-3 -0.49936-0.96319-1.2259-1.4719-2.1236-2.4275-0.87793-0.93448-1.8249-1.7547-2.7537-2.4035-0.82132-0.57363-1.3862-1.1433-2.7761-1.2739-0.10056-0.0576-0.28715-0.1713-0.55279-0.37082-0.58628-0.44045-1.435-1.1745-2.4068-2.0962-1.9439-1.8434-4.4177-4.4472-6.9238-7.2705-5.0122-5.6466-10.269-12.425-11.815-15.369-2.0906-3.9807-3.8745-8.9568-5.243-14.266 0.0237-0.10092 0.10645-0.21079 0.10645-0.30388 0-0.30903-0.14091-0.584-0.36056-0.78456-1.0624-4.3409-1.8454-8.8536-2.2593-13.243 9e-3 -1.3503 0.0387-2.3282 0.0273-3.8129-0.0676-8.9906 0.40836-15.359 1.2686-16.967 0.12553-0.23445 0.0827-0.24713 0.17862-0.4395 0.15241-0.23951 0.29937-0.47619 0.49442-0.67126 0.56132-0.56137 0.74802-0.64335 0.60941-0.59228-0.13854 0.0511-0.16121-0.0549 0.62152 0.17854 1.5653 0.46674 5.2965 2.2771 12.481 5.9023 3.9604 1.9984 7.6878 3.9354 10.484 5.4353 1.3983 0.74998 2.566 1.3916 3.3974 1.8678 0.41576 0.23814 0.74881 0.43717 0.96653 0.5734 0.21782 0.13624 0.42113 0.34135 0.10136 0.0378 0.73122 0.69428 1.6231 1.3115 2.7416 1.5777 1.1185 0.26624 2.3565 0.0771 3.346-0.38283 1.979-0.91985 3.3589-2.5556 5.1228-4.9134 1.6126-2.1555 5.6054-6.4635 8.4723-9.08 2.6703-2.4371 4.1378-3.5014 4.3366-3.5743zm35.992 161c9e-3 0.0245 9e-3 0.0477 0.014 0.0721 0.0106 0.0155 0.0475 0.0646 0.0615 0.0858-0.0466-0.1293-0.0589-0.19512-0.0756-0.15795zm-48.585-129.37c-1.9117 0-2.2608 0.85943-2.7812 1.4181-0.52036 0.55859-0.97892 1.1942-1.461 1.9417-0.96416 1.495-1.9762 3.4217-2.8996 5.5538l-3.1726 7.3255a2.6372 2.6372 0 0 0 0.18713 0.92706c-2.7e-4 0.0149-0.0106 0.0174-0.0106 0.0326 0 0.0111 0.0282 0.0466 0.029 0.0585a2.6372 2.6372 0 0 0 0.38966 1.9331l5.9761 5.7254c0.6974 0.70473 1.1858 1.3017 1.9416 2.0206 4.5854 4.3614 8.9364 8.5683 9.6688 9.3495 2.4032 2.5631 4.8715 1.515 6.2903-2.1597 0.48872-0.53555 0.88884-1.1095 1.2086-1.7339 0.83372-1.628 1.4273-3.5963 2.17-6.1512 0.50497-1.7371 0.96389-3.3992 1.3013-4.7005 0.16868-0.65065 0.30643-1.2083 0.40856-1.6601 0.10222-0.45179 0.20779-0.40337 0.20779-1.3683 0-1.2468-0.3472-1.4442-0.55279-1.7837-0.2056-0.33948-0.42209-0.63135-0.67304-0.94937-0.30184-0.38257-0.74494-0.85625-1.1416-1.2996-0.18687-0.24184-0.35212-0.40148-0.54594-0.62319-0.0809-0.0871-0.12578-0.14923-0.20946-0.23864-0.31284-0.33436-0.79417-0.77618-1.1433-1.1365-1.1545-1.1911-2.4-2.4429-3.7787-3.758-0.11603-0.25643-0.18642-0.49263-0.45144-0.81203-0.63587-0.76609-1.453-1.3041-2.1099-1.5434-1.3454-1.229-2.7416-2.5278-3.8834-3.4799-0.857-0.71467-1.6148-1.3155-2.2833-1.7854-0.33419-0.23499-0.64122-0.43652-0.9871-0.62319-0.34597-0.18668-0.56827-0.47898-1.6944-0.47898zm-76.985 9.0577c-0.0834 1.3243-0.52733 1.471-1.9949 0.74164 0.15307-0.0159 0.29609 5e-3 0.45494-0.0223 0.41969-0.073 0.97751-0.2926 1.54-0.71932zm-15.219 41.336c-2.4961 0-6.4184 0.70541-10.136 1.4902-1.8587 0.39237-3.5956 0.80796-4.946 1.2-0.67519 0.19605-1.242 0.37715-1.77 0.59917-0.26402 0.111-0.51145 0.21603-0.85666 0.44807-0.17264 0.11603-0.37628 0.25705-0.64037 0.56654-0.1606 0.18822-0.34244 0.5139-0.48414 0.91332-0.0898-0.78017-0.3788-1.5706-0.98199-1.9434-1.3934-0.86112-2.7944 1.3326-1.8387 2.879 0.39838 0.64456 1.2201 1.1726 1.8266 1.1726 0.46854 0 0.72716-0.39147 0.8893-0.88243 0.11388 1.1479 0.57444 1.5004 0.8292 1.7683 0.28733 0.30217 0.54654 0.50855 0.83607 0.72791 0.57903 0.43871 1.2705 0.88529 2.091 1.382 1.641 0.99342 3.7712 2.1534 5.9795 3.2808 2.2083 1.1274 4.4812 2.216 6.4001 3.0421 0.95946 0.41307 1.8272 0.75891 2.5906 1.0215 0.76335 0.26256 1.2394 0.50129 2.3142 0.50129 1.0115 0 2.1271-0.16581 3.8404-0.40515 1.7133-0.23935 3.7977-0.56654 5.8679-0.92706 2.1342-0.37166 4.0662-0.82166 5.5693-1.2876 0.75145-0.23295 1.3838-0.45699 1.9812-0.75194 0.11444-0.0566 0.2491-0.16568 0.36565-0.23177 2.629 0.0537 6.0842-0.2575 6.0842-0.82404 0-2.2643-2.1288-4.1425-5.3872-4.7538-0.645-0.12102-1.1159-0.29724-1.6566-0.45666-0.40539-0.26397-0.76507-0.5165-1.2601-0.80688-0.39035-0.22899-0.9835-0.51248-1.4233-0.7571-1.2662-1.2371-6.8461-3.9176-9.9675-4.9237-0.37579-0.16386-0.82861-0.39782-1.1829-0.54592-0.97305-0.40682-1.8509-0.74833-2.6215-1.006-0.77062-0.25772-1.253-0.48928-2.3125-0.48928zm216.21 2.146a2.6372 2.6372 0 0 0-2.1254 0.96311l-4.3263 5.2774c-0.91653 1.1186-1.6521 2.0888-2.3691 3.0353-2.7225 2.5162-5.5772 5.8254-5.1211 6.5632 0.80049 1.2952 2.3052 0.99294 3.207-0.27983 0.25745 0.28756 0.54031 0.51298 0.70899 0.61632 0.39018 0.23911 0.62997 0.30908 0.86351 0.38113 0.46728 0.1441 0.88892 0.21869 1.4146 0.30043 1.0514 0.16347 2.4569 0.3067 4.2833 0.44808 3.6529 0.28276 8.946 0.54634 15.731 0.78285 2.5438 0.0886 4.5297 0.12325 6.4551-0.95282 1.9253-1.0761 3.081-2.7163 4.9494-5.255 0.8077-1.0974 1.3603-2.075 1.94-3.061 0.20455-0.26408 0.32707-0.46979 0.45664-0.71931 0.096-0.17545 0.27416-0.3996 0.36056-0.56825 0.33032-0.64524 0.59173-1.2213 0.77763-1.8678 0.0703-0.2452 0.10892-0.55335 0.13907-0.87899 1.1888 0.60113 2.5941 0.28221 2.5941-1.2258 0-0.8917-1.0543-1.8981-2.3434-2.2352-1.3006-0.34009-1.9625-0.49687-2.1717-0.24034-0.0703 0.0862-0.0228 0.29877 0 0.48757-0.17624-0.0406-0.32144-0.0354-0.47211-0.0756-0.35484-0.0947-0.70257-0.16112-1.1056-0.22662-0.80603-0.13098-1.8117-0.24666-3.0061-0.35708-2.3887-0.22084-5.5112-0.40883-8.8534-0.51846zm-102.78 6.8001c-1.3689 0.26317-2.4275 1.0489-3.3186 1.94-0.47606 0.47607-0.91257 0.90403-1.3304 1.5605-0.41788 0.65653-0.77237 1.7415-0.62154 2.7383 0.30185 1.9936 1.3631 2.7355 2.6043 4.0567 1.519 1.6169 2.3537 2.7849 4.3109 3.3374 0.97858 0.27625 2.218 0.083 3.0129-0.33651 0.79486-0.41949 1.2963-0.91518 1.8129-1.4318 1.7625-1.7625 1.8485-4.2176 1.267-6.2044-0.58154-1.9868-1.8684-3.8515-3.9263-4.9529-1.0816-0.57887-2.4425-0.97046-3.8112-0.70731zm33.647 11.25c-1.613 0.0775-3.3924 0.44802-5.3976 1.0095-2.8164 0.7885-4.9142 1.6596-6.328 3.5674-0.70688 0.95394-1.1493 2.605-0.55965 3.9726s1.7032 2.0594 2.8258 2.5219c2.2599 0.93118 4.1842 0.5019 6.474 0.0635 2.2898-0.43839 4.5894-1.122 6.4379-2.2764 1.5034-0.93887 2.6948-1.8032 3.2155-3.5795 0.21235-0.72432 0.10354-1.6139-0.19743-2.3863-0.0167-0.47834-0.24928-0.81653-0.64719-1.0661-0.44381-0.48363-0.93525-0.85576-1.4267-1.0798-1.3376-0.60987-2.7837-0.82434-4.3966-0.7468zm-58.755 7.7032c-1.0624 0.0744-2.0234 0.29869-2.9941 0.80859-0.97058 0.50991-1.9249 1.6295-2.1648 2.8121-0.23987 1.1825 0.0237 2.1707 0.36917 3.0696 0.6479 1.6885 2.3254 3.0354 4.0653 3.3563 1.7398 0.32089 3.4581-0.0396 5.2876-0.74165 1.7103-0.65633 2.9507-2.0854 3.3305-3.7357 0.0571-0.0533 0.0936-0.0628 0.15628-0.12534 1.0938-1.0938 1.0938-1.7182 0-2.8121-0.4424-0.44233-0.73008-0.58434-0.94772-0.53563-0.83136-1.0864-2.0909-1.9045-3.5022-2-1.3747-0.093-2.5378-0.17046-3.6001-0.0961zm47.106 17.278c-1.143-0.0104-2.5611 0.34836-3.6035 1.3631-0.66337 0.38696-1.3086 1.2503-1.4919 2.1958-0.014 0.0708 0.0149 0.086 9e-3 0.15279-0.036 0.0909-0.0897 0.13832-0.12357 0.23691-0.26995 0.78539-0.31205 2.0613 0.15619 3.0026 0.93656 1.8827 2.1824 2.2708 3.964 3.3426 2.1188 1.2745 3.7264 2.2542 5.9966 1.9176 1.1351-0.16827 2.3018-0.95364 2.9048-1.8644 0.60272-0.91024 0.82625-1.8347 0.96996-2.7983v-2e-3c0.20463-1.3761-0.28689-2.6101-0.90298-3.5022-0.61643-0.89255-1.385-1.5637-2.2198-2.1305-1.6695-1.1337-3.5752-1.895-5.655-1.9142zm-33.848 3.6499c-0.67374 0.11379-1.3347 0.35449-1.9555 0.6867-1.9816 1.0605-3.5927 2.6623-4.6541 4.6456-0.28805 0.53819-0.52802 1.0091-0.71929 1.588-0.19135 0.57891-0.43905 1.4109 0 2.5099 0.4373 1.099 1.5585 1.7365 2.2386 1.9194 0.68016 0.18288 1.1835 0.18197 1.7288 0.18197 2.2478 0 4.1464-0.8227 5.8903-2.0979 1.704-1.246 2.7283-3.0267 2.764-4.8876 0.036-1.861-1.2314-3.9396-3.255-4.4705-0.67498-0.1771-1.3623-0.18937-2.0361-0.0756zm201.7 11.133c-0.58066-0.0423-1.463 0.25533-2.3606 0.56481-1.2907 0.13406-2.5541 0.48958-4.3262 1.0867-2.0177 0.67981-9.7455 1.991-15.975 2.4979l-6.843 0.55625-0.0843-7e-3c-5.8013-0.48788-12.068-1.268-13.925-1.7339-1.2223-0.30676-2.0513-0.34653-2.5271-0.20258-1.4275 0.43182 0.32891 2.5062 4.2164 3.9108 3.7532 1.3561 5.0946 1.7299 5.5537 1.2721a2.6372 2.6372 0 0 0 0.59402 1.8575l5.4748 4.2593c2.7268 2.1211 7.4252 6.7645 9.9246 9.8371l4.8774 5.9967a2.6372 2.6372 0 0 0 2.0312 0.97357l1.4662 9e-3c0.36372 0.11731 0.68288 0.15867 0.88408 0.0344 0.0158-0.01 0.0175-0.0194 0.0325-0.0292l14.697 0.0892c9.2705 0.0557 21.528 0.80866 26.658 1.5914 5.6919 0.8686 9.5183 1.3856 12.06 1.588 1.1264 0.0897 1.9324 0.098 2.7296 0.0378 0.6231 0.57512 2.6245 1.1735 5.8868 1.5812 3.4183 0.42708 8.5604 1.5068 11.427 2.4 3.0783 0.95928 6.1823 1.517 8.6371 1.6395s4.2604-0.19017 4.7434-0.9717c1.005-1.6262-3.1225-3.4836-10.802-4.8636-6.7923-1.2206-10.949-2.8315-24.895-9.6448-17.626-8.6114-29.097-15.625-39.355-24.062-0.18855-0.15508-0.46121-0.24297-0.80173-0.26781zm-364.04 1.8078c-0.49428-0.0294-1.0111 0.0597-1.6103 0.29185-1.1984 0.46435-2.7292 1.4989-5.0816 3.2945-6.9121 5.2761-14.278 8.6828-32.711 15.126-10.332 3.6115-14.171 5.4828-14.474 7.0577-0.35457 1.8411 0.0584 2.0069 2.9271 1.176 6.7041-1.9418 26.128-1.1762 39.317 0.85496 1.6909 0.29254 3.3242 0.58342 4.7486 0.87211 0.82248 0.17264 1.7514 0.33101 2.4704 0.51503 0.14559 0.0339 0.27469 0.0649 0.41201 0.0979 1.612 0.42931 2.9442 0.88574 3.8559 1.3648 4.3102 2.2651 5.714 2.0036 10.141-1.8833 2.2024-1.9338 4.5401-3.516 5.1932-3.516 0.65315 0 3.9294-1.7383 7.2826-3.8644 6.5966-4.1826 18.041-8.6502 23.678-9.2431 2.1796-0.22924 3.516-1.0373 3.516-2.1271 0-1.4128-1.9566-1.7881-9.9624-1.9108-11.166-0.17112-30.672-4.094-38.224-7.686-0.51217-0.24363-0.98386-0.3913-1.4781-0.42062zm256.04 19.284c-0.51623 0.0386-1.04 0.18178-1.5468 0.46525-1.0136 0.56694-1.7803 1.8587-1.7803 3.0507 0 1.1733 0.29667 1.592 0.58541 2.2558 0.28875 0.66385 0.65863 1.3835 1.0987 2.1769 0.88013 1.5868 2.0377 3.4524 3.2807 5.3186 0.3632 0.54527 0.73036 1.0054 1.1022 1.5417 0.36539 0.82465 0.60139 1.4612 1.4919 3.0456 1.7516 3.1165 3.5305 4.4549 6.6061 5.6156 2.4803 1.389 5.7301 2.7417 8.917 3.9314 2.093 0.7815 4.0962 1.4444 5.7477 1.873 0.82582 0.21431 1.5509 0.37329 2.2593 0.45151 0.35423 0.0391 0.70125 0.0652 1.14 0.0258 0.14248-0.0127 0.33463-0.0521 0.51501-0.0842 0.0395 0.0519-0.0448 0.11336 9e-3 0.16308 1.4007 1.4007 3.8748 0.7558 3.8748-1.0095 0-0.9168-0.73905-1.5908-1.6018-1.667 0.0123-0.15825 0.0563-0.35514 0.0563-0.47554 6.3e-4 -0.5156-0.0782-0.88489-0.17166-1.2636-0.18625-0.75733-0.47545-1.5209-0.85499-2.4018-0.75909-1.7617-1.8896-3.9224-3.2618-6.1975-1.3042-2.1622-2.4914-4.2174-3.3374-5.7563-0.42296-0.76944-0.76234-1.4139-0.97514-1.8472-0.0961-0.19585-0.15515-0.33147-0.18714-0.40687-0.18028-1.074-0.74731-1.3413-0.98886-1.5399-0.28638-0.2357-0.49144-0.35063-0.70724-0.47041-0.43166-0.23956-0.88918-0.44583-1.4524-0.68156-1.1264-0.47147-2.6386-1.0286-4.4756-1.6601-3.674-1.263-8.6137-2.8042-13.844-4.2919-0.47131-0.13409-0.97901-0.19997-1.4953-0.16138zm156.56 10.517c0.74073 0.65254 0.50981 0.95606-0.43606 1.0798 0.21411-0.3252 0.35712-0.69569 0.43606-1.0798zm-438.34 275.85c0.0964-0.12 0.40558 0.30249 0.98026 1.2034 0.73131 1.1466 1.1044 3.255 0.82749 4.6868-0.27691 1.4318-0.58327 1.8132-0.67984 0.84636-0.0966-0.96686-0.46794-3.077-0.82577-4.6885-0.28117-1.2663-0.39856-1.9281-0.30214-2.0481zm404.3 83.231c0.53899 0.0971 1.1518 0.45576 1.8713 1.0833 1.1432 0.99713 4.9802 2.1713 8.5255 2.6078 3.5452 0.4365 8.0269 1.2908 9.9607 1.8988 5.3387 1.6781 17.853 4.7403 26.37 6.4532 15.223 3.0617 25.292 7.2755 33.482 14.011 12.171 10.009 18.112 17.447 21.939 27.461 1.8736 4.9031 1.8723 5.3185-0.0519 7.4439-1.1206 1.2382-3.4631 2.9893-5.2053 3.8902-3.7846 1.9571-5.8715 1.9448-12.074-0.0703-2.5783-0.83777-7.0618-2.2054-9.9624-3.0403-2.9007-0.83495-5.774-1.9551-6.3864-2.4876-0.6123-0.53258-2.0706-0.9683-3.2396-0.9683-1.169 0-3.0404-0.50154-4.1597-1.1159-1.1193-0.61432-5.358-2.6766-9.4182-4.5821-5.7373-2.6925-11.221-7.1606-24.612-20.05-21.544-20.738-30.118-30.391-28.464-32.045 0.42174-0.42174 0.88585-0.58645 1.4249-0.48924zm139.94 104.15c0.84496-0.84497 6.3188 3.2998 8.2491 6.2456 1.0292 1.5708 1.696 3.7513 1.4815 4.8465-0.28066 1.4329-1.7676 0.22449-5.2997-4.3108-2.6999-3.4666-4.6935-6.5186-4.431-6.7812zm54.945 23.674c0.24656-0.24629 0.746 0.71963 1.2738 3.1229 0.44503 2.026 0.56448 3.9281 0.26615 4.2267-0.29859 0.2985-0.87916-1.1427-1.291-3.2018-0.48854-2.4425-0.49548-3.9012-0.24893-4.1478zm-127.68 37.34c0.84189-0.84188 6.4808 3.6035 6.4808 5.1091 0 3.186-2.1933 2.7411-4.5082-0.91504-1.3152-2.0772-2.2022-3.9645-1.9726-4.1941zm-63.443 1.3288c1.2498-1.2498 15.953 18.798 20.043 27.329 2.4264 5.0607 4.8578 10.072 5.4027 11.137 0.54488 1.0647 1.8195 5.1356 2.8327 9.0456 1.0132 3.9101 2.1516 7.9173 2.5305 8.9048 1.6516 4.304-1.9045 0.91283-9.5229-9.0799-6.6474-8.7192-8.3456-11.823-8.9547-16.356-0.41329-3.0769-3.4813-11.182-6.8173-18.012-3.3359-6.8296-5.8173-12.665-5.5142-12.968zm61.417 23.477c0.68709 0.41901 1.8322 2.0628 3.0954 4.7246 1.458 3.0725 1.6953 5.4805 1.0095 10.246l-0.89622 6.2284-1.3511-7.5881c-0.74266-4.1743-1.7373-9.1189-2.2094-10.987-0.56511-2.236-0.33499-3.0423 0.35186-2.6232zm-113.96 111.38c0.49311 0.025 1.786 1.3116 3.6808 3.8525 1.8341 2.4595 3.8494 4.8392 4.479 5.2877 0.62964 0.4482 0.88841 1.0721 0.57513 1.3854-0.99325 0.9933-5.8035-3.2989-7.6191-6.7985-1.3032-2.5119-1.609-3.7514-1.1159-3.7271zm36.883 34.214c1.613 0.1168 5.9103 2.0225 7.1384 3.5022 1.6248 1.9577 1.6091 1.9574-3.2087-0.1528-2.0456-0.896-4.0407-2.151-4.4344-2.7881-0.27223-0.4404-0.0325-0.6003 0.5047-0.5613zm9.7084 4.4774c0.29498-0.2951 1.2035 0.2674 2.0188 1.2497 0.92444 1.1139 1.0141 1.7854 0.23698 1.7854-1.4164 0-3.0685-2.2224-2.2558-3.0351zm12.998 7.7236c0.26282 0 9.3771 4.1103 20.253 9.135 10.876 5.0246 22.147 10.135 25.048 11.355 2.9007 1.2198 6.1168 2.9197 7.1469 3.7769 1.0301 0.8571 4.3889 8.009 7.4645 15.894 3.0757 7.8847 6.0204 15.391 6.5443 16.68 4.3017 10.585 6.8159 22.078 7.1075 32.49 0.17553 6.2668-0.01 11.723-0.41031 12.124-0.6312 0.6312-3.8518-3.7858-7.4406-10.206-0.5918-1.0588-2.7757-3.96-4.8532-6.4464-2.0777-2.4865-7.0549-9.0037-11.061-14.483-4.0062-5.4789-7.7122-10.137-8.2354-10.352-0.52318-0.2149-0.95107-1.9464-0.95107-3.8472 0-7.9932-5.7337-15.318-25.013-31.958-4.6134-3.9818-8.7403-8.6861-9.7668-11.133-0.97777-2.3311-2.7969-6.2165-4.043-8.6338-1.246-2.4172-2.0516-4.3949-1.7888-4.3949zm-394.69 12.86c0.81321 0.5521 0.0312 3.1294-2.3777 7.6601-1.6414 3.0869-2.9855 6.3244-2.9855 7.195 0 0.8709-0.46912 1.5845-1.0438 1.5845-0.57471 0-1.4084 1.4466-1.8524 3.2157-0.44399 1.7689-1.3092 3.8219-1.9228 4.5613-0.61364 0.7394-5.9162 10.762-11.782 22.274-5.866 11.511-11.578 22.248-12.694 23.86-1.1161 1.6115-2.7351 4.9083-3.5966 7.3255-0.86159 2.4173-1.988 4.395-2.503 4.395s-0.93565 0.4921-0.93565 1.0936c0 0.6013-2.5922 5.3602-5.7598 10.575-3.1675 5.2152-7.7816 13.557-10.254 18.538-2.4726 4.9803-5.1549 9.4761-5.9606 9.9916-0.80572 0.5154-1.4739 1.8345-1.4833 2.9305-0.01 1.096-0.52882 2.7843-1.1537 3.7512-0.74098 1.1467-1.1437-20.933-1.1554-63.493l-0.0171-65.249 9.0834 4.4328c14.767 7.2068 25.818 10.596 31.935 9.794 5.2991-0.6948 12.824-4.8625 21.683-12.012 1.455-1.1742 2.5996-1.9387 3.4318-2.2969 0.62415-0.2688 1.0732-0.3094 1.3442-0.1253zm74.467 49.841-0.79656 4.1013c-0.43852 2.2561-2.2429 7.7938-4.0104 12.306-1.7674 4.5122-3.853 10.313-4.6336 12.891-0.78054 2.5785-2.1335 6.2708-3.0078 8.2045-0.87427 1.9338-2.7642 7.4714-4.1992 12.306-1.435 4.8345-2.9835 9.3179-3.4404 9.9624-0.45694 0.6448-1.1917 4.0162-1.6344 7.4937-0.44267 3.4777-1.7816 8.2243-2.9734 10.548-1.1918 2.3237-3.5362 5.5035-5.2104 7.0662l-3.0438 2.8414v-23.461c0-22.448 0.1076-23.559 2.4928-25.695 1.3711-1.2281 7.6777-9.0885 14.014-17.468 6.3362-8.3795 12.627-16.555 13.981-18.167zm-90.597 106.43c0.84597-0.3384 1.8578-0.2969 2.2472 0.093 0.38944 0.3895-0.3028 0.6665-1.5382 0.6164-1.3653-0.056-1.6439-0.3348-0.70901-0.709zm89.633 24.112-0.83091 6.2164c-0.45689 3.4197-1.347 9.9104-1.9777 14.423-0.63069 4.5121-1.7841 16.355-2.5631 26.318-1.2785 16.351-1.5632 17.791-2.9288 14.783-3.2648-7.1917-6.3789-24.023-6.9666-37.654l-0.60947-14.132 7.9384-4.9769z" fill="#f6e7fd"/></svg>
