<?xml version="1.0" encoding="UTF-8"?>
<svg version="1.1" viewBox="0 0 1600 2400" xml:space="preserve" xmlns="http://www.w3.org/2000/svg"><path d="m1129.3 2405c-11.936-2.4113-34.741-12.666-43.99-19.782-3.3125-2.5483-6.3027-6.1974-8.2059-10.014-2.7092-5.4329-3.0732-7.6473-3.825-23.267-0.7146-14.845-3.4243-38.122-4.8472-41.638-1.1573-2.8592-0.4284 19.064 0.9913 29.816 1.0784 8.1683 1.2424 12.75 0.5058 14.126-1.5178 2.836-8.8588 2.7822-11.452-0.084-2.5817-2.8527-5.6871-15.211-8.3761-33.333-1.9727-13.296-3.3303-20.68-7.9443-43.21-0.6864-3.3516-3.0006-12.575-5.1425-20.497-7.2742-26.902-7.8031-31.233-4.6375-37.958 3.7853-8.0412 3.8769-11.927 0.5017-21.318-7.3002-20.313-17.406-42.33-26.444-57.614-11.37-19.226-13.965-26.172-13.965-37.382-6e-4 -5.9681-0.7361-9.9381-2.8744-15.511-4.0337-10.514-11.451-29.221-12.635-31.866-0.931-2.0798-2.3001-5.5106-11.054-27.699-3.2554-8.2517-6.103-15.212-9.5186-23.267-0.7751-1.8281-3.6988-9.0575-6.4968-16.065-2.7981-7.0078-5.5808-13.607-6.1837-14.665-0.6029-1.0582-1.0963-2.4786-1.0963-3.1564 0-0.6779-0.7064-2.8036-1.5699-4.7239s-2.9662-7.3437-4.6727-12.052c-1.7067-4.7082-3.8178-8.8348-4.6916-9.1701s-11.859-0.5961-24.411-0.5796c-18.356 0.025-24.957 0.4634-33.73 2.245-17.061 3.4646-31.592 8.2105-48.368 15.797-3.3516 1.5155-9.3346 4.0332-13.296 5.5948-8.7447 3.4476-22.475 9.1693-27.537 11.475-5.8419 2.6614-6.6206 0.6474-2.9433-7.6124 10.189-22.886 59.049-88.423 77.429-103.86 4.6623-3.9152 12.769-5.7327 28.553-6.4018l14.01-0.5939-2.9307-4.6569c-1.6118-2.5613-4.4262-7.0538-6.2544-9.9831-1.8281-2.9294-5.3802-8.1236-7.8935-11.543-2.5134-3.419-5.8898-8.8391-7.5033-12.045-3.6475-7.2469-8.1899-23.954-9.1096-33.504-1.5565-16.164-13.234-53.634-22.387-71.832-1.0214-2.0309-2.1679-3.8909-2.5477-4.1334s-2.7733 2.7797-5.319 6.716c-2.5456 3.9362-5.6009 7.838-6.7895 8.6705-2.5168 1.7629-4.9119 8.8302-7.1597 21.127-0.8791 4.8095-2.3172 9.8415-3.1958 11.182-0.8786 1.3409-9.7392 8.5157-19.69 15.944-9.9511 7.4285-18.878 14.158-19.837 14.954-0.9592 0.7962-3.3225 2.3803-5.2519 3.52-5.8692 3.4671-6.2872 1.1923-2.0614-11.219 2.0588-6.0471 5.588-16.728 7.8427-23.736 6.2162-19.321 6.9653-20.64 13.956-24.558 14.773-8.2806 23.267-13.761 23.267-15.012 0-0.7428 1.8559-3.2065 4.1242-5.4747 2.2683-2.2685 6.0744-7.1417 8.4579-10.829l4.3336-6.705-2.2058-3.8883c-1.2132-2.1384-5.5861-10.37-9.7175-18.292s-9.6066-18.143-12.167-22.713c-2.5604-4.5703-5.8576-10.907-7.3271-14.081-1.4695-3.1743-3.13-5.7919-3.6901-5.8168-0.56-0.026-13.523 12.582-28.807 28.015-26.191 26.448-49.702 48.69-61.391 58.08-2.8467 2.2869-5.4252 4.4421-5.73 4.7897-0.62464 0.7125-20.286 16.341-27.283 21.687-10.401 7.9466-11.708 7.8354-16.056-1.3676l-3.4498-7.3017 0.52101-21.782c0.55467-23.187 0.59058-23.405 10.688-64.993 8.4215-34.686 23.493-83.023 31.091-99.716 0.55476-1.2188 3.5096-8.5688 6.5664-16.334l5.5578-14.118-5.0179-10.811c-2.7599-5.9462-5.2101-11.004-5.4451-11.239-0.47191-0.4718-0.7507-0.2895-16.562 10.834-6.0938 4.2872-19.431 13.371-29.638 20.187-10.207 6.8154-18.609 12.941-18.671 13.612-0.0617 0.6714-0.0186 2.8981 0.0959 4.9485 0.11445 2.0505-0.34042 7.7842-1.0108 12.742-1.142 8.445-4.3019 38.866-6.9208 66.628-1.2851 13.622-0.43765 86.771 1.1937 103.04 0.54993 5.4845 1.9205 13.212 3.0457 17.174 1.8235 6.4191 2.0131 10.91 1.7452 41.334-0.23086 26.216 0.0764 36.238 1.3244 43.21 5.3453 29.862 6.1158 57.722 2.6411 95.499-1.7512 19.039-1.6818 61.861 0.12176 75.246 1.185 8.7938 2.1131 11.335 8.4685 23.184 6.8175 12.711 9.7539 19.904 8.5972 21.06-0.29359 0.2936 9e-3 1.5489 0.67324 2.7894 0.88989 1.6626 0.78186 5.1092-0.41108 13.113-3.8046 25.528-4.1315 30.154-2.3143 32.748 2.1461 3.064 2.161 6.3165 0.0424 9.3407-2.5478 3.6375-4.3339 48.338-2.1038 52.65 3.0664 5.9296 3.8792 14.94 4.3274 47.966 0.5098 37.575 1.1708 49.346 3.4838 62.046 0.88788 4.8749 2.1007 12.354 2.6952 16.619 0.59448 4.2656 1.6878 8.9523 2.4295 10.415 1.892 3.7304 1.8614 33.831-0.0365 35.73-0.76176 0.7625-1.385 2.0678-1.385 2.901 0 2.0557-15.935 16.877-18.145 16.877-0.40901 0-3.224 1.7062-6.2556 3.7915-7.847 5.3977-12.283 6.6777-17.35 5.0054-4.5688-1.5076-22.511-13.861-22.511-15.499 0-0.5794-0.56606-1.0537-1.2579-1.0537-5.2304 0-10.481-15.428-10.181-29.915 0.18756-9.0513 3.8223-27.966 5.8424-30.402 0.53543-0.6458 1.4974-4.6644 2.1378-8.9299 0.64032-4.2657 1.6735-10.997 2.2959-14.958 2.2793-14.505 3.7232-43.193 2.9881-59.371-0.61267-13.483-1.1216-16.916-2.9452-19.867-2.5235-4.0831-2.7264-6.846-0.94075-12.806 1.0302-3.4384 0.8895-5.8669-0.76136-13.14-1.1138-4.9073-2.4304-9.5485-2.9257-10.314-1.2427-1.9205-2.3796 0.011-6.0383 10.242-1.6339 4.5704-3.8885 10.401-5.0103 12.958-1.1218 2.5564-2.04 5.2987-2.0405 6.0937-8.3e-4 1.7941-3.6739 11.584-4.7493 12.659-0.43427 0.4341-0.78959 2.1489-0.78959 3.8102 0 3.251-1.6639 4.3656-6.5168 4.3656-6.3497 0-6.3622-1.9019-0.13059-19.943 1.9996-5.789 4.5628-13.268 5.696-16.619 1.1332-3.3516 2.5188-7.0909 3.079-8.3097 0.56021-1.2187 2.3694-5.9552 4.0204-10.526 1.651-4.5703 3.7648-9.9778 4.6973-12.017 2.1928-4.7947 0.79561-9.0345-3.6694-11.135-3.661-1.7223-9.5145-7.7791-11.791-12.2-0.81353-1.5801-2.5704-4.5178-3.9041-6.5283-1.3337-2.0104-3.0053-5.4138-3.7147-7.5632-1.16-3.5147-1.0359-4.1779 1.2332-6.5932 1.3876-1.4771 3.1544-2.6855 3.9263-2.6855 4.0574 0 2.2747-5.1294-4.6526-13.387-4.325-5.1555-6.8189-10.1-8.3368-16.528-2.4072-10.195 8.3227-33.181 20.957-44.896l2.7981-2.5946-2.9626-11.986c-1.6294-6.5925-3.8794-15.227-5-19.188-1.1206-3.9609-3.6251-13.185-5.5657-20.497-3.5332-13.314-14.744-49.148-17.332-55.398-0.75687-1.828-2.446-7.0632-3.7536-11.634-1.3076-4.5703-2.8764-9.8792-3.4861-11.797-4.3098-13.558-9.1558-53.988-8.0902-67.494 0.33339-4.2257 2.8396-16.907 5.5694-28.18l4.9633-20.497-0.45399-27.699c-0.46501-28.372-1.0951-33.587-6.4252-53.182-2.4432-8.9822-10.613-33.905-12.712-38.779-0.7872-1.8281-2.2631-5.9414-3.2797-9.1407-1.0166-3.1991-2.2516-5.8167-2.7444-5.8167-0.49278 0-7.3082 3.8649-15.145 8.5888-7.8372 4.7237-15.496 9.2163-17.019 9.9833-1.5234 0.7672-4.1067 2.2619-5.7406 3.3218-1.6339 1.0601-11.005 6.6638-20.826 12.453-24.978 14.725-27.489 16.241-44.59 26.924-16.899 10.557-23.664 14.662-25.256 15.325-0.92491 0.385-3.2353 2.1514-5.1342 3.9252-8.3681 7.8169-19.984 15.563-25.136 16.763-6.6854 1.5565-21.756 12.592-21.779 15.949-3e-3 0.4255-1.138 1.9961-2.5225 3.4899-2.2919 2.4732-8.8141 12.69-13.004 20.371-2.3732 4.3507-4.746 7.4938-6.4095 8.49-3.8982 2.3347-54.704 19.503-57.715 19.503-5.2502 0-3.8895-3.4671 9.4351-24.042 4.6569-7.1908 8.8976-13.24 9.4237-13.444 0.52608-0.2032 0.95651-0.8502 0.95651-1.4379 0-0.5876 2.9894-5.4259 6.643-10.752l6.643-9.6833 16.914-2.3684c22.553-3.1581 30.025-6.4025 48.598-21.102 3.2787-2.5949 6.4598-5.1036 7.0692-5.5751 3.799-2.9386 9.4786-5.7725 11.569-5.7725 3.2707 0 49.333-26.976 110.31-64.599 8.5313-5.264 18.628-11.434 22.438-13.712 4.6468-2.7779 6.7749-4.7026 6.4666-5.8485-1.5335-5.6995-5.7664-19.946-8.9017-29.961-5.2054-16.627-8.2713-32.508-11.23-58.168-0.98361-8.5314-2.1845-16.01-2.6686-16.62-0.48412-0.6094-1.1275-3.3515-1.4298-6.0937-0.30224-2.7422-1.316-9.9717-2.2528-16.066-3.7491-24.388-8.4495-67.733-8.4906-78.298-0.0133-3.454-0.32263-7.0571-0.68703-8.0068-1.2861-3.3515-10.854-9.4238-34.15-21.673-11.2-5.8886-11.242-6.1535-2.4831-15.614 4.086-4.4132 7.2592-8.194 7.0515-8.4017-19.35-19.35-36.283-37.376-35.975-38.299 0.42501-1.2749 38.767-21.415 68.99-36.239 28.201-13.832 45.832-22.263 46.556-22.263 0.36828 0 3.2563-1.2232 6.4178-2.7183 3.1615-1.495 9.2168-4.1125 13.456-5.8167 4.2395-1.7043 7.6583-3.5972 7.5975-4.2067-0.13068-1.3089 2.9598-7.1428 6.9747-13.166l2.8678-4.3025-3.1564 0.8142c-5.6958 1.4694-26.214 5.1815-36.949 6.6846-5.7891 0.8106-13.766 1.9742-17.727 2.5857-3.961 0.6117-11.562 1.446-16.892 1.8543s-9.9711 1.1962-10.314 1.7511c-0.34292 0.5549-2.1192 1.0088-3.9474 1.0088-1.8281 0-3.0637 0.4211-2.7456 0.9356 1.0941 1.7703 14.785 7.928 17.627 7.928 3.4718 0 4.8844 1.9231 2.8304 3.8533-1.9871 1.8674-14.308 6.0158-20.31 6.8385-4.1797 0.5729-5.4821 0.1518-11.248-3.637-10.376-6.8179-10.098-6.6764-8.2382-4.2041 0.88359 1.1744 2.818 3.4765 4.2988 5.1159 5.2954 5.8629-0.10481 8.844-6.4101 3.5385-9.0809-7.6412-19.522-26.893-23.832-43.94l-2.5813-10.211-0.809 6.4749c-0.44495 3.5613-0.24536 13.032 0.44351 21.046 0.68888 8.0142 1.2511 15.121 1.2493 15.793-2e-3 0.6717-3.1194 3.642-6.928 6.6003-9.0282 7.0128-22.464 21.061-24.802 25.933-1.027 2.1399-2.4865 9.9879-3.2966 17.727-1.5815 15.108-4.4322 30.14-8.8322 46.572-4.6868 17.504-12.454 51.57-13.389 58.722-0.27878 2.1328-0.94547 4.875-1.4815 6.0937-0.53605 1.2188-1.5289 4.7089-2.2064 7.7557-4.1538 18.682-5.9081 24.189-11.012 34.57-1.2589 2.5604-2.2889 5.1611-2.2889 5.7793 0 0.6181-0.69253 2.7611-1.539 4.7623-0.84643 2.0011-2.6677 7.1285-4.0472 11.394-1.3795 4.2656-2.9448 8.3225-3.4784 9.0152-0.53358 0.6927-2.1226 3.4349-3.5312 6.0938-1.4086 2.6589-4.4398 8.3243-6.7361 12.59-2.2963 4.2655-6.1482 11.495-8.5597 16.065-2.4115 4.5703-4.8381 9.0576-5.3924 9.9717-0.55428 0.9141-2.0912 4.1548-3.4153 7.2017-9.2771 21.347-27.69 56.805-40.409 77.817-4.5127 7.455-8.205 13.802-8.205 14.105s-1.6741 3.1774-3.7201 6.3885c-2.0461 3.211-7.8456 13.816-12.888 23.566-10.382 20.076-12.921 24.741-21.108 38.778-3.1983 5.4844-6.6156 11.467-7.5939 13.295-0.97838 1.8276-2.0758 3.5726-2.4388 3.8777-0.36296 0.3053-1.3601 1.8607-2.2159 3.4567-4.9658 9.2608-7.3386 13.344-11.513 19.811-2.5567 3.961-6.2822 9.944-8.2788 13.296-6.5662 11.022-10.376 16.619-11.311 16.619-0.50675 0-0.92137 0.5278-0.92137 1.1729 0 4.5242-21.328 24.531-24.235 22.734-2.2281-1.377-6.5803-10.518-9.5362-20.03-1.7044-5.4844-3.5099-10.969-4.0122-12.188-0.5023-1.2188-1.7248-5.2074-2.7166-8.8636-3.4481-12.711-4.8093-17.196-5.6129-18.497-0.44459-0.7193-1.5052-4.0812-2.3569-7.4709-0.85173-3.3897-2.299-9.1546-3.2161-12.811-1.7152-6.8379-4.7657-21.383-7.552-36.009-0.87068-4.5703-2.3833-12.049-3.3613-16.619-9.0628-42.35-12.689-73.844-12.755-110.8-0.0701-38.772-2.21-68.188-7.2136-99.162-3.172-19.636-5.3421-55.835-5.3802-89.745-0.0393-35.025 0.1177-36.338 5.6332-47.088 0.78158-1.5235 1.4241-3.613 1.4279-4.6435 3e-3 -1.0304 0.48012-2.1661 1.0586-2.5236 0.57846-0.3574 3.5735-5.6131 6.6556-11.679 3.0821-6.066 6.6709-12.908 7.9751-15.204 5.5265-9.7292 16.931-31.161 26.754-50.278 4.5752-8.9037 8.8281-17.13 9.451-18.281 0.62283-1.1511 2.7121-5.5829 4.6429-9.8486 3.3769-7.4605 5.0275-12.148 11.509-32.685 3.636-11.52 7.6288-21.723 11.86-30.306 3.8159-7.7401 3.8001-7.4482 0.88431-16.361-3.7792-11.553-1.6757-30.028 4.1681-36.609 0.8992-1.0127 3.8087-2.4831 6.4656-3.2677 4.6215-1.3645 4.7978-1.5726 4.0716-4.8064-1.1421-5.0856-0.81596-26.966 0.4993-33.496 0.63599-3.1573 2.0048-7.0353 3.0419-8.6181 1.037-1.5827 1.5952-3.3476 1.2402-3.9218-1.3852-2.2413 7.4099-15.091 9.4613-13.823 0.44733 0.2765 0.74497-0.3645 0.66144-1.4243-0.0947-1.2 0.5751-1.8697 1.7751-1.7751 1.0598 0.083 1.6886-0.234 1.3972-0.7054-1.2017-1.9445 7.6426-5.6535 14.282-5.9897l3.4446-0.1745-0.3527-12.707c-0.22749-8.1946 0.21626-15.362 1.2496-20.185l1.6024-7.4787h-4.8163c-7.1698 0-15.247 2.8126-74.686 26.005-2.1328 0.83222-6.8694 2.653-10.526 4.0462s-7.1463 2.8754-7.7557 3.2937c-3.3723 2.3152-69.521 29.021-83.097 33.549-14.823 4.9431-15.715 5.1866-21.496 5.8714-4.3102 0.5104-6.0048 1.2929-7.3947 3.4142-1.7329 2.6446-2.1676 2.7328-11.149 2.2615-6.3044-0.331-9.8887-1.0334-11.014-2.1584-1.4514-1.4514-1.6589-10.76-1.599-71.748 0.0732-74.638 0.15808-75.874 5.398-78.678 2.9735-1.5914 17.108-1.54 18.716 0.0681 2.7267 2.7267 38.203 2.8834 89.477 0.39515 32.255-1.5653 65.665-2.2681 70.355-1.48 15.27 2.5654 21.461 3.2056 31.34 3.2406 10.069 0.0357 11.224-0.18611 14.672-2.8159 2.0585-1.5701 7.0811-3.7196 11.161-4.7767 6.6417-1.7207 8.1265-2.6553 14.178-8.9241 7.8248-8.1056 11.215-10.171 16.691-10.171 2.1714 0 4.8137-0.41996 5.8718-0.93325 11.44-5.5492 12.054-5.7206 20.482-5.7176 4.9838 2e-3 8.5867 0.46798 8.5867 1.111 0 1.2438 5.1249 1.4269 11.312 0.40413l4.1098-0.67946-0.095-11.578c-0.0522-6.3676 0.34194-11.996 0.87594-12.507 0.53402-0.51111 3.9624-1.0325 7.6187-1.1586 8.8803-0.30633 9.4176-0.21541 9.4176 1.5935 0 0.98052 0.77357 1.3559 2.0865 1.0126 1.1476-0.30011 3.63 0.25255 5.5166 1.2281 3.3651 1.7402 3.4862 1.7108 6.3894-1.5475 3.4321-3.852 8.9822-5.2852 12.759-3.2949 1.4353 0.75639 2.8589 1.732 3.1636 2.168 1.6338 2.338 5.3366 2.0878 8.1862-0.55315 2.8651-2.6552 3.6362-2.7872 16.281-2.7872 10.776 0 13.393 0.31263 13.911 1.6619 0.44486 1.1593 2.2534 1.6619 5.9799 1.6619 3.4889 0 5.9768 0.6347 7.1717 1.8296 1.0063 1.0063 3.4102 1.9426 5.342 2.0808 1.9318 0.1381 5.5066 0.79862 7.9442 1.4678 2.5687 0.70521 14.446 1.2248 28.253 1.2358 21.933 0.0176 24.085-0.15537 27.145-2.1822 2.271-1.504 5.2005-2.2036 9.2484-2.2086 5.7212-6e-3 6.1015-0.20291 11.08-5.7055 2.8353-3.134 5.3109-6.0944 5.5013-6.5785 0.19043-0.48414-0.74823-1.9747-2.0859-3.3124-2.2172-2.2172-2.3823-3.2319-1.8677-11.479 0.78031-12.508 5.9459-22.79 11.449-22.79 2.5894 0 10.182 7.9583 14.612 15.315l2.2164 3.681 0.47365-7.5588c0.29508-4.7091 1.4416-9.6473 3.0411-13.099 2.6166-5.6459 10.828-16.674 16.024-21.521 1.7105-1.5956 2.8794-3.8866 2.8794-5.6433 0-9.0176 11.762-30.521 22.07-40.351 3.5125-3.3494 4.6442-8.9206 2.2902-11.275-0.75803-0.75802-0.71643-2.2873 0.12811-4.71 1.528-4.3831 1.0568-4.9725-2.8019-3.5054-4.8359 1.8386-6.1731 1.427-6.1986-1.9079-0.0226-2.9355-0.2351-2.8224-5.8168 3.0946-3.1864 3.3778-7.7469 8.3636-10.134 11.08s-7.3733 8.2292-11.08 12.252c-3.7063 4.0226-10.478 11.464-15.048 16.537-4.5703 5.0726-9.3359 10.257-10.59 11.522-1.2542 1.2643-3.6817 4.1684-5.3943 6.4535-1.7127 2.2852-3.9273 4.1155-4.9214 4.0674-1.1485-0.0556-1.3026-0.2912-0.42249-0.6463 0.76173-0.30736 1.4214-1.3898 1.4659-2.4054 0.0445-1.0156 1.0276-3.3423 2.1847-5.1705 1.157-1.8281 3.0618-5.0689 4.2329-7.2017 1.171-2.1328 5.495-9.3622 9.6089-16.065 4.1138-6.7032 8.7121-14.431 10.218-17.173 4.2082-7.6618 9.5478-16.024 10.494-16.435 0.46803-0.20313 0.85098-0.78668 0.85098-1.2968 0-0.5101 4.053-7.6938 9.0066-15.964l9.0066-15.036-1.757-3.6102-1.7569-3.6102 3.884-0.3471c4.8321-0.43182 6.5557-3.909 4.9616-10.01-0.58164-2.2258-1.399-7.6507-1.8163-12.055-0.70279-7.4171-1.0364-8.2203-4.5167-10.875-4.196-3.2004-4.0619-5.5525 0.20579-3.608 1.5042 0.68538 2.8642 1.0405 3.0222 0.78919 0.15796-0.25132-0.0948-6.6892-0.5615-14.306-1.8144-29.607-2.1971-63.209-0.75956-66.679 1.7708-4.2751 2.2641-3.9883-18.803-10.931-18.603-6.1305-24.663-8.6801-25.299-10.643-0.44957-1.3891 7.0216-5.2014 20.489-10.455 4.7146-1.8391 9.5692-3.7929 10.788-4.3419s5.2074-2.2131 8.8637-3.6982c6.782-2.7546 9.3698-5.619 9.4013-10.406 0.0266-4.0434 6.6305-23.51 10.811-31.867 5.9591-11.914 15.502-25.65 22.928-33.003 6.6296-6.5647 20.805-18.517 21.962-18.517 0.32735 0 3.7623-1.9166 7.6332-4.2591 7.2182-4.3682 18.417-9.201 27.725-11.965 2.89-0.85824 5.6385-2.1707 6.1079-2.9166 1.0139-1.6112 3.7126-9.1233 7.652-21.299 1.5772-4.875 3.5171-10.858 4.3109-13.296 0.79375-2.4375 3.5418-11.012 6.1068-19.054 5.0165-15.728 6.5552-18.763 9.0308-17.813 1.4551 0.55841 2.9036 4.6355 8.9646 25.234 1.1654 3.961 2.5121 8.1989 2.9926 9.4176 0.48047 1.2188 3.269 9.592 6.1969 18.607 2.9278 9.0152 5.7672 16.666 6.3096 17.001 0.54254 0.33527 2.0797 0.78849 3.4159 1.0072 5.9219 0.96906 17.336 4.1236 22.927 6.3361 7.4391 2.9442 20.092 9.5572 21.605 11.292 0.6094 0.69857 3.3034 2.736 5.9867 4.5276 10.659 7.1171 23.174 20.373 30.788 32.611 2.8104 4.5173 7.6137 14.065 8.5484 16.991 0.3746 1.1726 1.1776 1.678 1.9287 1.2138 0.8129-0.50239 0.9875-0.31076 0.4739 0.52022-0.4472 0.72358 0.1514 2.9502 1.3301 4.9481 2.2611 3.8322 4.1037 10.914 5.2341 20.116 1.0842 8.8259 1.1915 8.9522 10.837 12.748 5.0084 1.9708 10.602 4.2188 12.43 4.9954 1.8281 0.77667 8.1777 3.2457 14.11 5.4867 5.9326 2.241 11.102 4.5851 11.488 5.209 1.2822 2.0748-2.1819 3.8255-20.406 10.312l-18.075 6.4338 0.8896 4.5524c0.4893 2.5038 0.716 19.685 0.5039 38.181l-0.3856 33.629 2.3369-0.7417c1.8509-0.58744 2.3369-0.27612 2.3369 1.4967 0 2.6274-2.0376 7.7031-4.0864 10.179-0.7931 0.95861-1.7617 4.0748-2.1523 6.9248-0.596 4.3482-0.4187 5.1818 1.1023 5.1818 2.3009 0 2.2924 0.95714-0.032 3.5248-1.0843 1.1981-2.4436 6.0262-3.2999 11.721-1.8881 12.555-1.9124 12.241 0.9774 12.653 3.9394 0.56202 3.8243 4.0801-0.179 5.4757-3.5609 1.2413-4.0699 2.0364-2.4307 3.7974 0.5389 0.57891 2.8413 4.5426 5.1166 8.8083 6.0322 11.309 16.132 28.505 18.053 30.737 0.9135 1.0614 4.744 3.7333 8.5124 5.9377 9.1571 5.3567 11.084 8.9382 10.042 18.666-0.7738 7.2251-0.7379 7.3583 4.3816 16.234 4.8838 8.4671 5.9874 11.962 2.628 8.3228-0.8343-0.90381-3.3722-3.6257-5.6398-6.0487l-4.1231-4.4054-0.6188 4.057c-0.3403 2.2314-1.1338 5.6745-1.7632 7.6514-0.6293 1.9769-0.8759 4.0286-0.548 4.5593 1.0501 1.6991 9.693 2.7928 23.803 3.0121 10.69 0.16618 14.624-0.18815 17.745-1.5983 4.7101-2.1282 16.198-10.841 19.755-14.983 1.3669-1.5917 2.9293-2.894 3.4716-2.894s1.2939-0.87252 1.6699-1.9389c0.3762-1.0664 0.9977-2.6316 1.3811-3.4781 0.3832-0.84654 0.2583-1.2683-0.2779-0.93728-0.5359 0.33103-1.0439-0.55367-1.1284-1.966-0.127-2.1193 0.3004-2.4855 2.4468-2.0963 2.499 0.45316 5.5771-2.6815 4.3158-4.3952-0.2833-0.38481-0.1997-0.46728 0.1861-0.18324 0.8064 0.59413 4.8387-4.2243 4.8387-5.7823 0-0.57117 1.0148-1.9568 2.255-3.0792 1.2403-1.1224 1.9938-2.7213 1.6745-3.5531-0.3191-0.83182-0.087-1.2078 0.5151-0.83549 0.6023 0.37229 1.0952 0.0661 1.0952-0.68048 0-1.5487 0.6028-2.2736 9.8639-11.86 3.7155-3.8459 6.7555-6.6874 6.7555-6.3144 0 0.37298 1.6204-0.53051 3.6008-2.0078 3.1019-2.3138 8.2794-4.7777 20.774-9.8863 1.5233-0.62289 3.767-1.5748 4.9858-2.1153 1.2188-0.54056 3.3053-1.1869 4.6369-1.4362 1.3315-0.24939 3.4943-1.0278 4.806-1.7298 1.3118-0.70202 3.7123-1.4867 5.3347-1.7436 1.6223-0.25697 5.1932-1.0885 7.9355-1.848 6.2246-1.7238 25.255-1.8466 26.353-0.17001 0.4358 0.66592 2.3728 1.518 4.3045 1.8935 1.9316 0.37551 6.0788 1.921 9.216 3.4344 3.1372 1.5134 6.2932 2.6128 7.0135 2.443 0.7202-0.16978 0.9326-0.0985 0.4719 0.15832-1.5895 0.88588 0.4216 2.4937 3.119 2.4937 1.4876 0 2.7045 0.43329 2.7045 0.96286 0 0.52958 3.0177 2.8549 6.7059 5.1674 6.1853 3.878 8.8055 6.5941 8.8055 9.1275 0 0.54996-3.8639 1.5609-8.5865 2.2466-11.714 1.7007-13.643 2.088-17.246 3.4639-1.7154 0.65507-4.4577 1.1941-6.0938 1.1979-1.6362 3e-3 -4.4027 0.75162-6.1483 1.6619-1.7455 0.9103-3.8644 1.6551-4.7087 1.6551-0.8445 0-1.5353 0.43374-1.5353 0.96387s-2.119 1.2042-4.7089 1.4981-6.9214 1.6051-9.6257 2.914c-2.7043 1.3089-5.5712 2.3798-6.3708 2.3798s-1.4539 0.55192-1.4539 1.2265c0 0.67456-0.7114 0.95349-1.5809 0.61983-0.8695-0.33367-2.2043 0.14444-2.9662 1.0625-1.5184 1.8295-7.6405 5.2716-7.6405 4.2958 0-0.33439-1.2761 0.22823-2.836 1.2502-2.179 1.4278-2.4998 2.0922-1.3849 2.868 0.9784 0.6808 0.6593 0.78781-0.9792 0.32844-1.6385-0.45934-5.0672 0.69036-10.523 3.5283-4.4506 2.3153-8.2531 4.5639-8.45 4.9969-0.1967 0.43302-3.1603 2.1131-6.5857 3.7335-3.4253 1.6204-6.9159 3.6344-7.7571 4.4755-0.8409 0.84111-1.9567 1.5293-2.4789 1.5293-0.5223 0-1.6085 0.63346-2.4138 1.4077-0.8053 0.77422-4.0592 3.2931-7.2308 5.5975-3.1719 2.3044-7.1104 5.7843-8.7523 7.733-1.6418 1.9487-3.5686 3.5515-4.2817 3.5616-0.7129 0.0103-2.6154 0.88269-4.2272 1.9389-1.6121 1.0562-3.4057 1.9204-3.9857 1.9204-0.5801 0-1.2208 0.37393-1.424 0.83096-0.2031 0.45704-4.3359 2.8253-9.1841 5.2628-4.8481 2.4375-13.075 6.8906-18.281 9.8957-9.9057 5.7173-22.061 10.588-26.442 10.597-2.1035 4e-3 -2.3042 0.25715-1.1014 1.3898 2.4803 2.3356 17.949 15.559 23.004 19.666 5.4202 4.4029 5.7341 4.7067 15.594 15.098 3.9739 4.1884 8.7105 9.5344 10.526 11.88 1.8151 2.3457 4.6034 5.8056 6.1962 7.6887l2.8962 3.4239 18.325 0.0671c10.079 0.0369 18.139 0.36892 17.912 0.73793-0.6205 1.0078 22.25 1.9899 64.889 2.7863 21.024 0.39269 38.799 1.1674 39.502 1.7215 0.811 0.63977 1.4868 0.48512 1.8514-0.42369 0.418-1.0417 0.6099-0.97889 0.7051 0.23074 0.073 0.91407 0.8383 0.034 1.703-1.9559 0.8648-1.9898 2.4657-3.9533 3.5576-4.3632s2.4838-1.3781 3.0932-2.1514c0.6094-0.77337 2.5502-1.6567 4.3128-1.9629 3.5388-0.61475 8.4287-4.637 8.4287-6.9331 0-0.80784 0.528-1.4688 1.1734-1.4688 0.6453 0 0.8686-0.49287 0.4964-1.0953-0.3743-0.60557 0.025-0.82596 0.8927-0.49294 0.9045 0.34711 2.7722-0.82683 4.4078-2.7706 2.3015-2.7352 3.7614-3.4078 7.722-3.5576 2.6905-0.10184 6.5356 0.63925 8.5616 1.6499 2.0227 1.009 4.3314 1.8346 5.1306 1.8346 4.4738 0 20.515 6.7539 24.998 10.525 2.6546 2.2331 6.1938 4.0943 16.875 8.8749 1.7744 0.7942 3.8933 1.188 4.7088 0.87508 0.8154-0.31289 1.4825 0.0661 1.4825 0.84226 0 0.77614 0.3192 1.0919 0.7094 0.70172 1.1114-1.1114 6.5032 2.5202 7.6629 5.1612 0.7519 1.7122 2.212 2.4772 5.2002 2.7246l4.1549 0.34387v-14.653l11.412 0.66979 0.1107 6.0938 0.1109 6.0938 8.3097-0.0935c4.5703-0.0515 10.651-0.23873 13.512-0.41628 7.4351-0.46138 8.6468 1.1462 8.6468 11.471 0 7.3295-0.2822 8.5009-2.3102 9.5862-2.8611 1.5313-27.625 1.4799-29.166-0.0605-0.6038-0.60385-3.2312-1.0979-5.8384-1.0979-4.5869 0-4.7016 0.0851-3.5423 2.6298 1.3537 2.9707-0.2818 7.3419-2.7466 7.3419-0.7828 0-2.507 1.2465-3.8317 2.7699-2.0857 2.3987-3.3373 2.7719-9.3404 2.785-9.6606 0.021-11.918 0.78394-11.918 4.0275 0 1.472-0.7479 4.4662-1.662 6.6539-0.914 2.1876-1.6619 4.9514-1.6619 6.1417 0 1.6709-0.6943 2.1183-3.0469 1.9632-4.8136-0.31735-5.9996-0.0507-5.2392 1.18 0.4431 0.71695 3.6829 0.90658 8.6521 0.5063 4.3689-0.35183 13.237-0.79714 19.707-0.9896 12.832-0.38158 15.174-1.0135 13.084-3.5313-0.9328-1.124-0.9478-1.5633-0.053-1.5633 0.6839 0 1.2436-1.2289 1.2436-2.7309 0-5.5678 10.896-7.1547 11.679-1.701 0.6659 4.6395 2.067 7.8199 3.2456 7.3676 0.7805-0.29948 2.8406 0.19304 4.5779 1.0944 2.2806 1.1832 6.247 1.5744 14.264 1.4071 18.696-0.39031 137.27 1.9352 142.95 2.8034 1.8281 0.27954 49.338 0.86371 105.58 1.2982 56.24 0.43443 102.48 1.1509 102.75 1.592 0.2727 0.44117-0.034 2.3222-0.6819 4.1801-1.0556 3.0284-3.0761 4.9435-8.9636 8.4967-9.3137 5.6207-16.492 9.4311-17.767 9.4311-0.8453 0-2.0109 0.43443-2.5897 0.96551-1.1902 1.0918-9.0617 3.465-22.104 6.664-7.6202 1.8691-11.662 2.1074-28.807 1.6987-43.954-1.0479-77.609-1.4677-178.66-2.2283l-105.53-0.7944v2.4019c0 2.315-0.1402 2.3433-3.8779 0.78161l-3.8779-1.6202v5.3973c0 5.197-0.1454 5.4453-3.9199 6.691-3.249 1.0723-4.3774 0.99401-6.5922-0.45712-2.2281-1.46-2.7274-2.8111-3.0048-8.1325l-0.3336-6.3817-6.0938-0.72145c-19.074-2.2579-48.75-0.2325-48.75 3.3272 0 6.1591-7.3128 16.76-15.789 22.889l-3.048 2.2038 6.0605 4.6764c8.531 6.5829 11.662 11.986 12.46 21.503 0.3965 4.7288 0.098 10.002-0.7717 13.626l-1.4184 5.9127 10.325 12.028c8.6062 10.026 26.528 35.354 26.528 37.492 0 1.5477 8.438 13.896 9.4954 13.896 1.155 0 47.529 16.752 51.996 18.784 1.2188 0.5541 6.7031 2.5066 12.188 4.339 5.4845 1.8325 12.714 4.3975 16.066 5.7002 3.3515 1.3028 8.3373 3.1492 11.08 4.1033s5.4844 2.118 6.0938 2.5865 2.96 1.1979 5.2233 1.6208c2.2635 0.4229 4.6604 1.4259 5.3265 2.2285 0.6663 0.8027 3.1769 1.7915 5.5794 2.1973 2.4025 0.406 4.368 1.1441 4.368 1.6402 0 0.4963 1.3711 1.4262 3.0469 2.0667 5.058 1.9328 19.089 9.9138 29.084 16.543 10.099 6.6985 21.377 17.314 27.911 26.274 2.2221 3.0468 7.3899 8.7806 11.484 12.742 8.6145 8.3341 14.896 15.74 14.896 17.564 0 0.6989 0.5048 1.2708 1.1219 1.2708 1.081 0 6.6338 11.336 6.6338 13.543 0 0.5938 0.6871 2.6507 1.527 4.5711 4.8969 11.196 7.6773 23.322 7.1523 31.19-0.4676 7.0082-2.7512 7.3503-4.9834 0.7467-1.8311-5.4171-11.627-15.766-21.423-22.631-6.5072-4.5605-14.494-9.6925-15.085-9.6925-0.3513 0-1.9619-0.9365-3.5794-2.0812-1.6176-1.1446-6.7806-4.1222-11.474-6.617l-8.5324-4.5359 2.8266 4.1242c3.856 5.6262 4.4067 7.2835 6.4966 19.552 1.4605 8.5735 1.7233 16.055 1.3372 38.062-0.2644 15.065-0.7198 28.139-1.0118 29.053-0.2922 0.9141-0.9095 4.1549-1.3718 7.2018-1.9542 12.877-10.284 38.276-16.098 49.084-0.5567 1.0352-2.1292 4.2505-3.4942 7.1451-3.5391 7.5047-5.4665 6.9246-9.2055-2.7699-3.3546-8.6979-4.4063-11.207-8.9402-21.328-6.1946-13.828-8.0563-17.318-23.497-44.049-8.7144-15.086-15.858-27.8-15.874-28.253-0.016-0.453-1.3875-2.4136-3.0468-4.3569-2.3097-2.705-4.2509-3.7085-8.2799-4.2806-3.3575-0.4768-5.2628-0.334-5.2628 0.3946 0 1.2346 2.11 6.3304 7.6596 18.499 8.1344 17.835 10.068 22.458 10.068 24.068 0 0.8119 0.8069 2.6283 1.7932 4.0363 1.8845 2.6905 2.9446 5.3167 10.123 25.078 6.0987 16.789 10.243 29.971 10.243 32.581 0 1.204 0.4314 2.4557 0.9585 2.7815 2.9036 1.7945 4.0616 23.914 1.2519 23.914-0.9463 0-4.4293-8.0911-4.4214-10.271 0.011-2.189-5.3422-18.883-11.799-36.817-7.7158-21.43-5.976-17.22-16.481-39.887-4.3836-9.4591-10.937-22.62-17.83-35.81l-4.239-8.1103-3.9118 0.7308c-2.1516 0.4019-4.4563 1.1805-5.1218 1.7301-0.6654 0.5495-1.5379 0.6711-1.9388 0.2702-0.401-0.401-0.7291-0.1474-0.7291 0.5635s-0.7438 1.2926-1.6525 1.2926c-0.9091 0-2.2753 0.9972-3.0365 2.216-1.936 3.0999-4.8829 2.7593-7.1866-0.8309-1.0752-1.6759-6.1972-7.4754-11.382-12.888-5.185-5.4125-10.923-11.401-12.752-13.309-1.8288-1.9073-5.7384-6.4534-8.6882-10.102-2.9496-3.649-12.671-14.302-21.604-23.672s-16.508-17.348-16.835-17.727c-0.3268-0.3792-4.9098-4.8877-10.185-10.019-8.1223-7.9012-9.8488-9.1151-11.277-7.9292-2.6573 2.2052-0.1983 6.3943 10.146 17.285 5.0273 5.2928 9.1406 9.8686 9.1406 10.168 0 0.2995 4.0507 4.8592 9.0015 10.133 4.9509 5.2732 10.192 11.333 11.647 13.466 1.4552 2.1329 4.26 6.1922 6.2329 9.021 8.1466 11.68 14.12 20.848 19.23 29.512 12.952 21.963 15.923 27.538 15.929 29.883 0 1.3711 0.422 2.493 0.9307 2.493 1.1973 0 5.7374 20.362 5.7292 25.695 0 2.2492-0.4721 4.3774-1.0415 4.7292-0.5693 0.3519-5.0893-7.4713-10.045-17.385-4.9552-9.9135-9.8491-18.84-10.875-19.835-3.2513-3.1552-30.178-10.133-32.015-8.2963-1.0316 1.0316 14.537 56.879 16.392 58.802 1.6542 1.7144 1.089 7.6369-0.9602 10.064-4.1856 4.9585-12.355 6.5091-25.809 4.8987-16.61-1.9886-16.331-1.6849-19.261-21.001-2.9972-19.759-5.054-32.286-6.0614-36.919-0.5536-2.546-1.3566-8.0232-1.7846-12.171-1.0173-9.8613-1.862-10.368-18.467-11.09-11.45-0.4971-13.034-0.3469-13.484 1.2785-0.2799 1.0129-1.3137 5.3319-2.297 9.5975-3.0083 13.048-9.5427 33.741-11.542 36.549-0.4391 0.6167-1.8465 3.8636-3.1278 7.2152-9.6425 25.222-16.191 39.522-24.862 54.29-2.6836 4.5704-6.8644 12.264-9.2906 17.096-3.7163 7.4024-6.5062 10.837-17.707 21.796-7.3125 7.1549-16.178 15.412-19.7 18.348-7.3042 6.0897-7.147 6.6134 2.9685 9.893 3.1086 1.0078 6.1256 2.2696 6.7046 2.8041 0.5788 0.5344 1.7926 0.9718 2.697 0.9718 0.9045 0 3.6716 0.9543 6.1492 2.1207s6.9976 3.2147 10.044 4.5519c17.744 7.7868 47.325 23.043 49.304 25.428 0.5587 0.6732 8.3462 4.5195 32.642 16.122 7.2888 3.4807 16.681 8.6379 20.871 11.461 4.1904 2.8228 8.4321 5.6309 9.4258 6.2402 5.6663 3.4745 24.804 19.956 36.894 31.775 17.308 16.919 22.963 24.434 33.677 44.753 1.308 2.4807 6.4955 8.4439 11.528 13.251 10.524 10.054 17.492 18.64 24.704 30.434 5.8931 9.6385 25.384 48.463 27.383 54.546 0.7472 2.2734 3.8949 8.0072 6.9947 12.742 14.164 21.632 22.553 51.233 15.214 53.679-0.942 0.314-0.8256 1.5525 0.4278 4.5524 7 16.754 8.0579 71.465 1.6272 84.162-0.7163 1.4144-0.5396 1.939 0.6536 1.939 0.8995 0 1.9781-0.5543 2.3967-1.2317 1.9468-3.1498 44.283-19.667 50.89-19.854 1.2187-0.034 4.2035-0.7706 6.6329-1.6356 2.4292-0.865 4.8144-1.1752 5.3003-0.6893 0.4861 0.486 1.3353 3.3346 1.8871 6.3303 0.5519 2.9958 2.2694 11.6 3.8169 19.121 6.8759 33.419 8.1045 56.04 4.0865 75.241-2.482 11.86-7.8653 29.113-12.82 41.087l-2.9043 7.0192 5.033 8.4573c2.7682 4.6515 5.0331 9.8496 5.0331 11.551 0 2.4659-2.4417 5.509-12.029 14.992-6.6162 6.5444-14.912 14.392-18.436 17.439-3.5241 3.0467-8.4563 7.3089-10.961 9.4712-11.773 10.164-32.137 24.51-39.938 28.135l-4.3611 2.0265-2.5068-3.1439c-1.3788-1.729-3.06-5.4112-3.7362-8.1826s-1.8609-6.1976-2.6326-7.6138c-1.3637-2.5024-1.5231-2.3699-5.6596 4.7028-3.9412 6.7396-13.128 16.785-21.061 23.027-15.435 12.148-35.958 19.395-51.31 18.121-8.4948-0.7053-15.407 0.4478-51.73 8.6301-15.7 3.5369-58.919 3.1839-69.802-0.57-5.6857-1.9612-10.535-2.943-9.9622-2.017 0.3011 0.4875 2.915 2.4499 5.8088 4.361 7.6193 5.0324 18.423 14.454 21.283 18.56 3.9798 5.7133 4.7703 11.525 2.8394 20.873-2.634 12.752-3.0092 11.987 8.6442 17.618 13.2 6.3778 16.749 9.525 15.844 14.049-0.3666 1.8318-3.6959 7.0383-7.3989 11.57-5.7601 7.0492-7.2319 8.2392-10.191 8.2392-2.0239 0-4.5198-0.9974-6.0182-2.405-3.9554-3.7158-4.1425-1.7786-0.5211 5.3951 5.8224 11.534 11.482 27.313 11.644 32.465l0.1574 4.9858-5.1015 0.331-5.1016 0.3313-1.8295-6.425c-1.0061-3.5336-2.2706-7.114-2.8099-7.9561-1.4898-2.3266-2.6356 2.2441-1.3887 5.5397 0.5491 1.4518 1.3408 5.3815 1.7593 8.7331 1.0071 8.0661 4.0202 16.619 5.8546 16.619 1.9659 0 3.7948 5.0578 2.9892 8.2672-0.6628 2.6411 0.8205 5.9621 5.6285 12.602 1.8561 2.5629 2.4954 4.6003 2.0858 6.6477-0.4049 2.0253 0.2559 4.1994 2.1049 6.924 1.4825 2.1845 3.0274 5.7418 3.4333 7.905 0.4058 2.1634 2.2128 6.1099 4.0153 8.7699 1.8027 2.66 3.2865 5.8474 3.2976 7.0828 0.023 2.4274 1.9776 5.672 6.816 11.308 1.6918 1.9704 3.6909 5.6352 4.4426 8.144 0.8889 2.967 3.9782 7.3581 8.8379 12.562 9.7772 10.469 12.964 17.444 13.882 30.388 0.6486 9.1383 0.5058 10.198-1.8365 13.625-4.61 6.7458-14.126 15.171-18.51 16.389-4.8033 1.3339-15.42 1.3528-21.922 0.039zm-7.2044-228.14c0-0.8664-11.356-6.7174-13.033-6.7174-2.8791 0-1.3531 5.7758 2.5597 9.6885l3.9272 3.9272 3.2745-3.1373c1.801-1.7255 3.2733-3.418 3.2719-3.761zm-57.563-105.48c4.8962-2.552 17.532-15.046 23.314-23.052 4.9-6.7851 9.5047-16.348 11.007-22.859 1.4947-6.4776 3.3802-11.485 8.4743-22.507 4.2487-9.1924 14.746-21.008 23.861-26.857 2.9684-1.9047 5.2344-3.6261 5.0354-3.8251-0.1988-0.1989-9.5663 0.4104-20.816 1.354-19.839 1.664-44.502 1.5486-65.054-0.3046l-8.0372-0.7248 0.5136 3.208c0.2825 1.7645 1.5466 10.687 2.8093 19.827 1.2627 9.1407 2.8224 19.86 3.4664 23.821 0.6438 3.9609 1.8862 12.188 2.7607 18.281 2.9578 20.61 6.2578 36.009 7.7168 36.009 0.2208 0 2.4481-1.0669 4.9496-2.3708zm69.302-151.91c-4.6818-16.454-5.5058-23.785-5.574-49.581-0.066-24.601 0.079-26.496 2.6076-34.347 2.5122-7.7997 11.546-28.191 15.216-34.347 0.9085-1.5234 2.2246-4.141 2.9248-5.8168 0.7003-1.6758 1.6625-3.0469 2.1383-3.0469s0.865-0.6707 0.865-1.4902c0-0.8196 0.9397-2.3404 2.0879-3.3796 1.981-1.7928 2.4203-1.7098 8.5868 1.6243 3.5743 1.9325 9.4294 5.7413 13.011 8.464l6.5125 4.95-0.7814-4.2533c-0.4298-2.3393-1.4492-6.4968-2.2655-9.2391-0.8162-2.7422-2.5877-9.2237-3.9365-14.403-3.8668-14.849-4.8449-16.925-9.4991-20.165-5.0929-3.5451-21.316-11.695-31.443-15.796-3.9611-1.604-8.199-3.3799-9.4178-3.9464-3.6426-1.6931-13.86-5.1574-22.713-7.7011-4.5704-1.3131-10.304-3.0875-12.742-3.9434-2.4375-0.8556-6.6755-1.8902-9.4177-2.2987-2.7422-0.4086-5.8059-1.1625-6.8083-1.6756-1.0023-0.5129-5.7389-1.6514-10.526-2.5301-4.7867-0.8785-13.938-2.6353-20.337-3.9042-6.3985-1.2688-16.99-2.9038-23.537-3.6331-10.622-1.1835-12.053-1.1347-13.296 0.4534-1.8987 2.4274-10.189 3.872-16.903 2.9454-3.0469-0.4204-8.6539-0.808-12.46-0.8614-8.1494-0.1143-19.141-3.596-24.656-7.8105-2.1328-1.6296-6.5012-4.5483-9.7074-6.486l-5.8294-3.5231 0.6566 4.7064c0.3612 2.5885 1.0742 5.9529 1.5847 7.4763 0.5103 1.5234 1.2389 5.0135 1.6188 7.7556 1.1691 8.4393 5.1065 20.311 8.0141 24.163 1.5217 2.0163 4.9109 8.2486 7.5314 13.85 4.222 9.0233 15.33 24.851 20.754 29.573 1.05 0.914 3.2936 3.484 4.9858 5.7111 1.6921 2.2271 5.8514 7.7114 9.2428 12.188 6.6333 8.7547 16.033 24.656 19.874 33.621 3.3343 7.7827 8.861 24.814 8.861 27.307 0 1.1463 0.4723 2.9499 1.0496 4.0081 0.5774 1.0581 1.8686 5.8359 2.8693 10.617l1.8195 8.6934 6.2715 2.7474c3.4492 1.5111 9.8876 4.4546 14.307 6.541 4.4197 2.0865 8.5497 3.7937 9.1775 3.7937 0.6279 0 3.6295 1.2606 6.6701 2.8015 7.0244 3.5596 27.74 10.736 44.256 15.332 3.3515 0.9327 9.5838 2.6889 13.85 3.9025 14.535 4.1359 15.429 4.1946 14.507 0.9539zm-484.52-399.41c4.3983-2.889 8.7448-5.8757 9.6589-6.6371s7.1463-5.3415 13.85-10.178c6.7032-4.8363 14.969-10.857 18.368-13.379l6.1803-4.5854-2.3988-7.9599c-1.3193-4.3781-2.6831-8.7079-3.0306-9.6219-0.34751-0.9141-1.4798-6.3985-2.5163-12.188-2.8938-16.163-1.8687-15.055-14.655-15.834-6.0499-0.3687-13.201-1.4366-15.891-2.3736-7.952-2.769-8.3932-2.5464-9.1894 4.6353-1.1719 10.571-2.8699 37.969-2.8874 46.589-0.0108 5.3676-0.63801 9.2802-1.8645 11.634-2.4756 4.7497-5.8905 25.151-4.21 25.151 0.32434 0 4.1884-2.3638 8.5867-5.2528zm226.93-307.4c0.7134-1.3327 2.102-3.2911 3.086-4.3519 0.9839-1.061 2.7362-3.5392 3.8937-5.5073l2.1047-3.5783-8.1985 0.8007c-4.5091 0.4404-8.8217 0.8514-9.5833 0.9131-0.8785 0.071-1.385 1.8748-1.385 4.9301 0 4.2461 0.427 5.0778 3.6008 7.0129 4.5202 2.756 4.8961 2.7433 6.4816-0.2193zm-297.7-27.555c-2.229-2.2289-3.9799-3.1118-5.2244-2.6342-2.7456 1.0535-2.3376 2.0118 2.2452 5.2724 5.5356 3.9388 7.668 2.0505 2.9793-2.6382zm553.53-19.269c0-0.7332-1.2464-2.5042-2.7699-3.9353l-2.77-2.6022v3.8494c0 4.6105 1.8944 7.0467 4.0732 5.2384 0.8067-0.6694 1.4667-1.8171 1.4667-2.5503zm-574.03 1.693c2.0218-1.28-0.36425-4.4231-14.021-18.469-5.6367-5.7973-10.249-10.94-10.249-11.427s-1.5439-2.5019-3.4309-4.4765c-3.0391-3.1801-3.3368-3.2938-2.6075-0.9954 1.7269 5.4418 7.9329 15.373 13.71 21.94 3.3056 3.7572 7.2942 8.5269 8.8637 10.599 2.9078 3.8396 4.9552 4.5885 7.734 2.8292zm779-11.25c-10.935-8.7805-18.216-13.977-20.674-14.756-1.3161-0.4173-2.9975-1.4874-3.7365-2.3779-0.7391-0.8904-2.0181-1.6189-2.8423-1.6189-0.8241 0-4.8238-1.523-8.8881-3.3845-4.0641-1.8614-9.1871-4.0353-11.384-4.8309-2.1972-0.7955-10.227-3.8228-17.844-6.7274-22.671-8.6451-24.847-9.4328-26.022-9.4215-1.025 0.01 2.9158 1.9745 15.712 7.8329 2.5565 1.1703 4.8779 2.1279 5.1587 2.1279 0.6333 0 28.349 13.011 30.634 14.381 0.9141 0.5481 6.8971 3.5607 13.296 6.6946 6.3984 3.134 15.373 7.6189 19.943 9.9665 9.5325 4.8967 10.493 5.2022 6.6478 2.1143zm-431.37-13.005c-2.0226-4.579-7.3479-12.487-10.928-16.228l-3.2247-3.3699 2.6827 6.0937c1.4754 3.3517 3.9336 8.836 5.4627 12.188 1.5291 3.3515 3.4405 8.0881 4.2477 10.526l1.4676 4.4318 0.8039-5.3308c0.5149-3.416 0.331-6.4011-0.5122-8.3098zm258.95-74.719c-3.4663-6.8727-15.059-24.066-18.054-26.777-3.0573-2.7669-4.2199-0.064-1.555 3.6148 2.9175 4.0278 4.7707 8.8815 5.1945 13.604 0.1957 2.1796 0.7166 4.5471 1.1579 5.2611 0.8866 1.4346 13.99 10.053 15.341 10.09 0.4673 0.012-0.4705-2.5943-2.084-5.7935zm-962.49-34.278c-0.35369-0.8838-0.61624-0.6213-0.66939 0.6694-0.0481 1.168 0.21376 1.8224 0.58192 1.4542 0.36816-0.3681 0.40753-1.3237 0.0874-2.1236zm222.9-71.834c5.4762-6.2436 8.968-7.058 13.838-3.2272 1.5997 1.2583 3.3002 2.0458 3.7788 1.7501 0.47858-0.29574 3.101-4.9382 5.8275-10.317 5.5186-10.886 15.57-21.843 27.236-29.689 3.5906-2.415 7.7357-5.2963 9.2113-6.4028l2.683-2.012-6.0069 0.55492c-3.3038 0.30522-14.234 0.85757-24.288 1.2275-27.129 0.99808-44.124 2.1503-45.027 3.0526-1.0028 1.0028-2.4274 10.78-2.5346 17.395-0.0747 4.6109-0.58479 5.4752-6.6673 11.297l-6.5864 6.3037 5.7555 4.205c7.311 5.3416 16.582 11.434 17.352 11.402 0.32524-0.0133 2.7681-2.5064 5.4286-5.5398zm33.137-11.48c3.6927-4.4993 13.722-14.567 22.288-22.374 8.5655-7.8063 15.332-14.435 15.036-14.731-0.29581-0.29574-2.0073 0.54861-3.8032 1.8764-1.796 1.3278-3.7376 2.4142-4.3147 2.4142-1.7781 0-18.658 13.213-22.529 17.634-6.5882 7.526-7.9115 9.3917-11.052 15.582-5.2852 10.419-4.4428 10.341 4.3748-0.40237zm-66.085-7.9586c4.5832-2.37 6.5054-7.6083 6.5054-17.727v-8.4545l-13.006 0.81261c-14.037 0.877-15.017 1.3364-16.28 7.6286-0.56384 2.8083 0.0473 3.8861 4.6159 8.1406 4.3128 4.0162 13.109 10.846 14.476 11.24 0.18261 0.0523 1.8423-0.68531 3.6882-1.6398zm606.77-15.89 2.382-3.2218-4.6665-4.2673c-6.1759-5.6475-20.158-16.828-25.777-20.612-4.5481-3.0626-12.916-4.2274-14.298-1.9904-0.3515 0.56869 0.4916 3.8632 1.8735 7.3211 2.1218 5.3091 3.5466 7.0005 9.1604 10.874 8.3534 5.7639 10.602 7.1527 12.976 8.0165 1.0434 0.37943 4.7827 2.0942 8.3096 3.8106 3.5272 1.7164 6.693 3.1589 7.0354 3.2056 0.3426 0.0466 1.6945-1.3649 3.0046-3.1368zm-494.06-8.9658 3.7007-4.9858-5.6495 5.8941c-3.1072 3.2417-5.6495 6.4519-5.6495 7.1336 0 1.4689 2.514-1.1918 7.5984-8.0419zm441.13 2.822c0-1.4947-0.4718-3.863-1.0485-5.2628-0.5768-1.3998-1.8371-5.4119-2.8008-8.9158-1.3346-4.8521-2.245-6.3708-3.8187-6.3708-1.1366 0-2.3534-0.74788-2.7041-1.662-0.4834-1.2592-2.5256-1.6619-8.4284-1.6619-7.8174 0-9.2182 0.7597-6.1285 3.3239 0.914 0.7586 1.6619 2.2798 1.6619 3.3804 0 2.1856 0.4455 2.6852 8.626 9.6731 6.2882 5.3712 12.575 9.9777 13.81 10.119 0.457 0.0523 0.8309-1.1281 0.8309-2.623zm-583.4-3.8092c1.6396-3.1706 1.6219-3.2082-1.7361-3.7011-4.1644-0.61118-5.397 1.6344-2.5959 4.7295 2.4865 2.7477 2.3644 2.7767 4.332-1.0284zm796.36-0.38807c-1.0381-1.9751-2.8845-4.5927-4.1033-5.8168s-3.1275-3.6387-4.2415-5.3658c-1.8769-2.9096-2.169-3.0103-3.9796-1.3718-2.0438 1.8496-3.0386 11.089-1.459 13.553 0.8637 1.3475 4.6804 2.1483 11.568 2.4269l4.1033 0.16594zm-131.88-9.7641c4.4636-3.0798 9.7678-6.6378 11.787-7.9068 2.3083-1.4506 3.2822-2.6964 2.623-3.3555-0.6513-0.65139-9.7786-0.69907-24.105-0.12592l-23.056 0.92241 8.0627 4.9858c4.4345 2.7422 9.8339 6.3569 11.999 8.0327 2.165 1.6758 4.0798 3.0469 4.255 3.0469 0.1754 0 3.9708-2.5198 8.4343-5.5996zm163.78-18.193c0-0.28905-1.4958-1.299-3.3239-2.2444-3.165-1.6367-3.3238-1.6116-3.3238 0.52552 0 1.7551 0.7245 2.2444 3.3238 2.2444 1.8281 0 3.3239-0.23649 3.3239-0.52553zm-284.96-38.088c-0.7963-1.1278-5.4365-6.465-10.312-11.861-4.875-5.3955-11.587-12.824-14.915-16.508-3.3284-3.6838-6.6938-6.859-7.4786-7.056-0.785-0.19703-1.4271-0.77746-1.4271-1.2898 0-2.2291-7.868-8.8775-10.506-8.8775-1.5341 0-2.8654-0.62323-2.9582-1.385-0.093-0.76172-0.227-1.8842-0.2981-2.4944-0.072-0.61017-1.043-2.3552-2.1594-3.8778l-2.03-2.7684 0.7516 4.3424c0.4134 2.3883 0.9203 7.8104 1.1267 12.049l0.3751 7.7067 6.7939 6.5051c7.1886 6.883 15.973 12.971 30.51 21.147 12.278 6.9054 14.986 7.8494 12.527 4.3667zm-338.43-16.742c1.7368-1.7707 2.8292-3.7511 2.4275-4.4011-0.40169-0.64991 0.0622-1.1817 1.0309-1.1817 2.2896 0 13.687-12.751 12.478-13.96-0.99703-0.99703-10.191 6.0025-12.446 9.4756-1.2188 1.8768-3.4904 3.9818-5.0482 4.6778-2.1206 0.94744-2.8949 2.1956-3.0816 4.9678-0.304 4.5138 0.5497 4.5913 4.6398 0.42146zm-28.832-22.179c1.5361-1.4399-9.8879-13.725-11.714-12.597-0.46008 0.28435-0.83651 3.7751-0.83651 7.7573v7.2403l5.8168-0.77076c3.1992-0.42393 6.2292-1.1574 6.7333-1.6299zm231.67-220.51c4.601-3.6563 8.5743-6.6478 8.8295-6.6478 0.7176 0 8.1387-6.4589 16.549-14.403 6.3955-6.0413 8.4722-8.987 12.888-18.281 8.2079-17.276 9.465-23.324 9.465-45.537 0-12.261-0.4592-19.884-1.3016-21.605-0.7158-1.4624-1.5972-4.1547-1.9588-5.9829-0.9348-4.7273-1.1268-5.2545-6.4568-17.727-4.563-10.678-9.5481-17.894-19.48-28.196-10.554-10.947-24.738-20.572-36.87-25.018-5.0488-1.8505-19.137-5.6491-22.015-5.9362-0.91407-0.0912-6.1492-0.61554-11.634-1.1653-14.826-1.4862-33.875 1.1467-49.433 6.8327-5.9125 2.1608-22.03 11.016-22.03 12.104 0 0.5162-0.49294 0.93854-1.0953 0.93854-2.7275 0-24.166 20.683-28.715 27.703-7.3853 11.398-15.089 28.579-16.887 37.667-2.2324 11.278-2.432 36.955-0.36047 46.381 3.2512 14.794 7.8312 23.798 14.338 28.187 4.8416 3.266 18.513 14.657 32.002 26.664l11.038 9.8248 2.0172-2.6231c2.7517-3.578 2.6226-4.0229-1.6889-5.8244-5.1322-2.1444-12.581-9.0732-15.134-14.078-3.7074-7.2671-4.6444-13.931-3.1414-22.341 0.74379-4.162 1.7671-7.8236 2.274-8.1369 2.394-1.4796 0.35938-3.7272-5.4492-6.0194-6.5395-2.5806-16.105-11.048-18.76-16.606-3.9112-8.1872-4.7801-11.095-5.1237-17.146-0.73662-12.973 3.5196-24.582 12.369-33.736 6.3764-6.596 14.337-10.014 25.241-10.839 6.7459-0.51019 8.1556-0.94722 8.1556-2.5285 0-2.6815 3.8056-14.026 6.603-19.684 3.5048-7.0885 15.012-18.172 22.758-21.919 5.7946-2.8034 8.1561-3.2662 18.399-3.6056 11.621-0.38518 11.842-0.34484 19.943 3.6438 4.5055 2.2183 10.589 6.3738 13.518 9.2345 6.79 6.6306 13.156 19.202 13.828 27.309l0.4942 5.9582 5.8079-0.59945c4.5544-0.47003 7.5725 0.0342 13.982 2.3355 9.0991 3.2672 15.687 8.7882 20.626 17.286 1.5938 2.7422 3.1921 5.2351 3.5518 5.5398 2.4272 2.0564 2.4194 25.111-0.01 28.857-0.97 1.4959-2.0755 3.9662-2.4565 5.4897-1.6547 6.6159-15.125 18.42-23.249 20.373-3.9637 0.95296-4.8297 3.2883-2.5241 6.8072 2.6009 3.9694 2.6121 17.549 0.021 24.756-2.0216 5.6219-7.2927 12.196-13.081 16.314l-3.1672 2.2532 3.6575 5.1888c2.0115 2.8539 4.0273 5.1888 4.4795 5.1888 0.4521 0 4.5865-2.9915 9.1876-6.6478zm-60.362-4.6802c-1.486-1.3553-3.2166-3.1316-3.8456-3.9472-0.90701-1.1759-1.8876-0.66574-4.7357 2.4642l-3.592 3.9472h14.875zm4.9556-75.178c4.0209-4.7785 4.6025-8.0695 2.1518-12.176-2.945-4.9353-6.9658-7.0419-11.733-6.1475-6.0008 1.1258-9.7097 5.4837-9.7097 11.409 0 6.999 3.5206 10.324 10.931 10.324 4.7722 0 5.8675-0.44662 8.3604-3.4093z" fill="#dd6567"/></svg>
