<?xml version="1.0" encoding="UTF-8"?>
<svg version="1.1" viewBox="0 0 800 2400" xml:space="preserve" xmlns="http://www.w3.org/2000/svg"><path d="m389.49 2339.6c-4.838-0.4159-10.255-1.1801-12.037-1.6984-1.7824-0.5181-4.6991-1.3237-6.4815-1.7903-8.9371-2.3394-17.074-8.9762-18.171-14.821-1.0529-5.6123 0.37098-19.755 2.9541-29.343 2.2081-8.1956 2.4931-10.908 2.4804-23.611-9e-3 -8.7823-0.47202-15.969-1.1937-18.519-1.4791-5.2255-1.4218-29.213 0.0851-35.648 0.59625-2.5463 1.1959-11.505 1.3326-19.908 0.17798-10.938 0.67249-16.593 1.7406-19.908 1.654-5.1325 1.9654-15.577 0.66813-22.408-0.46409-2.4441-1.3334-7.4542-1.9318-11.134-0.60764-3.7365-1.8702-7.6842-2.8599-8.9423-0.97451-1.2389-1.7719-3.0965-1.7719-4.1275 0-1.0312-0.77015-2.1195-1.7113-2.418-2.5931-0.8228-3.8443-4.5553-3.8443-11.468 0-3.4339-0.588-8.5184-1.3067-11.299-4.1965-16.237-3.999-18.991 1.5656-21.842 1.64-0.8402 3.2734-1.9811 3.6297-2.5351 0.7445-1.1579 0.034-8.4881-1.0894-11.234-0.41653-1.0183-1.2626-4.3518-1.88-7.4073-0.61751-3.0556-2.1186-8.5457-3.3358-12.2s-2.2131-7.4394-2.2131-8.4106-0.24861-2.0145-0.5525-2.3183c-0.5073-0.5073-4.5097-12.325-8.384-24.756-0.87297-2.8009-1.8527-5.5093-2.1771-6.0185-0.32442-0.5093-1.1291-2.801-1.7881-5.0927-0.65903-2.2917-1.5474-5-1.9741-6.0185-1.1895-2.839-12.494-37.125-14.654-44.445-2.2921-7.7671-4.6067-16.981-5.6985-22.685-0.43867-2.2918-1.2417-6.25-1.7846-8.7964-3.7093-17.399-4.3623-40.011-1.7247-59.722 0.51111-3.8195 1.2905-9.6529 1.732-12.963 0.44148-3.3101 1.2439-12.06 1.783-19.444s1.4004-16.759 1.9138-20.834c4.4592-35.387 2.9789-58.376-5.6937-88.426-0.5144-1.7823-1.2714-4.6991-1.6823-6.4815-1.1231-4.8724-4.602-18.602-5.5133-21.759-0.441-1.5278-1.7135-6.3195-2.8278-10.648-1.1143-4.3288-2.4577-9.5372-2.9853-11.574-0.52761-2.037-1.3326-4.6608-1.7888-5.8306-0.45623-1.1697-0.8295-3.5655-0.8295-5.3242 0-1.7584-0.33073-3.197-0.73493-3.197-0.40421 0-1.2807-2.6042-1.9478-5.7872-0.66705-3.1828-1.9955-8.4954-2.9521-11.806-3.3336-11.536-7.4836-27.344-8.2644-31.482-1.0644-5.64-7.6148-29.81-11.167-41.204-4.3318-13.895-5.3008-17.28-5.9632-20.833-0.33229-1.7824-0.96668-4.4908-1.4098-6.0186-0.44308-1.5278-1.7103-6.7361-2.8161-11.574-2.7351-11.967-3.5816-14.107-5.3158-13.442-5.8115 2.2301-27.643 17.25-41.139 28.304-6.3154 5.1725-23.538 22.509-27.088 27.268-5.0762 6.8036-11.814 14.806-13.103 15.563-0.98931 0.5804-5.8263-1.7666-6.9191-3.3573-0.0637-0.093-0.41132-5.1686-0.77262-11.28-0.47615-8.0537-1.3618-13.404-3.2187-19.444-2.4818-8.0733-2.5632-9.0126-2.6065-30.093-0.0246-11.968 0.25738-23.011 0.62666-24.54 0.69314-2.8708 0.26893-3.4907-20.565-30.056-1.3833-1.7638-3.3484-4.4449-4.3669-5.9582-1.0185-1.513-2.4769-3.6493-3.2408-4.7471-9.5743-13.76-10.503-16.272-10.954-29.606-0.3502-10.376 0.71963-22.548 2.6448-30.093 1.9889-7.7942 3.9-15.52 4.5809-18.519 0.40478-1.7824 1.3955-5.1157 2.2017-7.4074 0.80616-2.2916 2.901-8.3333 4.6552-13.426 5.0012-14.519 7.0556-20.014 9.3464-25 1.1699-2.5464 2.3912-5.7756 2.7139-7.176 0.32271-1.4006 0.99549-2.5462 1.495-2.5462 0.49957 0 0.90829-0.5732 0.90829-1.2734 0-0.7004 1.4711-4.5015 3.269-8.4468l3.269-7.1734-2.5746 0.6584c-4.6653 1.1927-9.961 1.4924-11.243 0.636-0.69363-0.4632-1.5891-2.4556-1.99-4.4271-0.40085-1.9718-1.2917-5.8766-1.9796-8.6776-0.82153-3.345-1.2244-10.495-1.174-20.834 0.0712-14.606 0.25904-16.275 2.6038-23.148 2.7777-8.1421 7.9759-18.982 9.103-18.982 0.39397 0 0.71634-0.7347 0.71634-1.6328 0-1.3792 5.6439-10.814 7.3315-12.256 0.298-0.2546 1.1286-1.6017 1.8459-2.9936s2.0198-3.2989 2.8945-4.2379c2.459-2.6395 3.1883-5.7316 1.3518-5.7316-0.83375 0-3.3328-1.25-5.5533-2.7778-2.2206-1.5278-4.2736-2.7778-4.5624-2.7778-1.1456 0-12.29-8.7062-15.214-11.886-12.554-13.65-17.376-33.952-13.67-57.559 0.67962-4.3286 1.388-8.2871 1.5741-8.7963 0.18611-0.5093-0.85253-4.1582-2.3081-8.1087-2.4986-6.7815-3.0751-7.5438-10.315-13.641-10.005-8.4249-11.523-10.618-11.523-16.646 0-5.7791 3.0078-12.61 9.4798-21.529l4.5133-6.2194-4.1275-6.323c-5.0512-7.7379-5.5786-8.1779-10.792-9.0034-2.2917-0.3628-5.8334-1.3862-7.8704-2.2741-4.1878-1.8254-10.471-7.8709-11.21-10.786-0.57566-2.2701 0.91027-16.902 2.2205-21.866 0.49826-1.8875 1.5491-4.075 2.3353-4.8611 1.6146-1.6146 4.8651-1.9003 5.7284-0.50352 0.31474 0.5093 2.408 0.92601 4.6517 0.92601 3.2011 0 4.3043-0.42018 5.1238-1.9513 0.75523-1.4112 0.76425-2.2314 0.0325-2.963-0.55647-0.55648-1.0117-1.6736-1.0117-2.4826 0-2.1647-3.2794-8.2218-5.489-10.138-1.0552-0.91514-1.9185-2.3992-1.9185-3.2979 0-2.6469-3.4864-7.5272-8.7542-12.254-4.6193-4.1452-11.79-14.01-13.035-17.932-0.65489-2.0634-3.2229-2.2602-6.7297-0.51569-4.0243 2.0019-13.497 4.337-21.013 5.1798-15.901 1.7832-21.661-3.1658-20.409-17.535 0.33274-3.8195 0.99143-9.4445 1.4638-12.5 0.47233-3.0556 1.2338-8.2639 1.6921-11.574 2.2566-16.298 1.5584-15.648 16.678-15.52 6.933 0.059 13.439-0.19222 14.457-0.55805 1.0185-0.36583 3.1019-2.3027 4.6296-4.3043 1.8182-2.3819 3.9774-3.9804 6.25-4.6272 1.9097-0.54341 3.4722-1.3834 3.4722-1.8666 0-0.48328 1.5625-1.8763 3.4722-3.0957 1.9097-1.2194 4.4866-3.111 5.7264-4.2035 3.2546-2.8682 6.3876-3.366 10.922-1.7354 4.5954 1.6525 4.2641 2.1652 5.6238-8.7012 0.60153-4.8073 0.38992-8.0056-0.94962-14.352-2.5381-12.025-1.2754-24.843 3.5185-35.715 1.5939-3.615 2.2572-6.5732 2.0641-9.2054-0.25654-3.4966-0.57655-3.9538-3.2483-4.6417-1.63-0.41966-3.2874-1.2773-3.6832-1.9058-0.39572-0.62851-0.59155-4.7886-0.43521-9.2446 0.26006-7.4119 0.13608-8.1019-1.4557-8.1019-0.95701 0-2.1358-0.34423-2.6196-0.76495-0.4838-0.42071-2.7546-1.335-5.0463-2.0318-2.2917-0.69678-6.875-2.4884-10.185-3.9813-3.3102-1.493-8.3102-3.7298-11.111-4.9709-2.8009-1.241-5.7176-2.6479-6.4815-3.1264-0.76389-0.47848-2.4306-1.2953-3.7037-1.8152-4.8009-1.9605-25.322-11.588-30.556-14.336-4.9299-2.588-5.6751-5.1766-2.8325-9.8393 1.0448-1.7137 1.9012-3.6412 1.9031-4.2834 2e-3 -0.64213 0.77311-2.9338 1.7138-5.0926 0.94068-2.1588 2.467-6.2168 3.3918-9.0178 0.92481-2.8009 2.4469-6.5448 3.3823-8.3197 0.93548-1.7749 1.7009-3.7995 1.7009-4.4992s0.93751-2.2611 2.0833-3.47c3.2193-3.3963 7.188-2.9166 14.92 1.8035 8.0043 4.886 12.88 7.5496 17.487 9.5527 1.9097 0.83035 3.4722 1.8632 3.4722 2.2952s0.42852 0.78547 0.95227 0.78547 3.9613 1.4144 7.6389 3.1432c11.783 5.539 25.02 10.095 26.573 9.1467 0.77543-0.47361 2.2076-2.5929 3.1825-4.7096 0.97493-2.1166 2.5374-4.0912 3.4722-4.3879s1.6996-0.92804 1.6996-1.403c0-1.5506 3.6726-0.9105 8.3365 1.4529 2.5142 1.274 5.3128 2.4713 6.2193 2.6605 5.9238 1.2369 7.6023 1.8534 8.0217 2.9463 0.26042 0.67864 2.0579 1.512 3.9944 1.8519 1.9365 0.33988 4.3977 1.166 5.4693 1.8358 2.5562 1.5978 8.1066 0.38029 11.104-2.4357 1.8614-1.7487 2.2253-2.9826 2.2253-7.5456 0-7.219 2.5071-11.705 6.5865-11.785 1.6385-0.0322 3.0673-5.8794 4.08-16.696 0.30989-3.3102 0.93401-8.7269 1.3869-12.037 0.45292-3.3102 1.2662-11.435 1.8073-18.056 0.54111-6.6204 1.4264-14.329 1.9673-17.13 0.5409-2.8009 1.1997-6.8453 1.4641-8.9876 0.45336-3.6737 0.3309-3.9308-2.1557-4.5258-3.9741-0.951-4.7337-1.9099-5.4104-6.8295-0.72638-5.2813-2.5934-7.2955-7.5006-8.0918-1.9579-0.31774-3.9888-0.93265-4.513-1.3665-0.52423-0.43384-1.9177-1.5826-3.0966-2.5528-1.6898-1.3906-2.0817-2.5138-1.8519-5.3069l0.29159-3.543 4.6297 0.10945c2.5463 0.0602 9.2426 0.43121 14.881 0.82443 12.016 0.83805 18.76 0.0967 19.612-2.1561 0.32379-0.85554 1.1172-2.0905 1.7631-2.7443 0.80444-0.81425 0.91436-1.8727 0.34892-3.3599-0.55877-1.4696-0.44104-2.731 0.36432-3.9039 0.6544-0.953 1.4348-4.2327 1.7343-7.2883 2.4642-25.144 2.6254-25.463 12.834-25.463 10.336 0 14.647 3.4799 12.805 10.338-0.45605 1.6984-1.0559 8.6339-1.3331 15.412-0.27717 6.7782-0.94084 13.14-1.4748 14.138-0.70312 1.3138-0.64009 2.5016 0.22856 4.3067 1.2757 2.651 2.7724 3.1828 13.7 4.8683 12.172 1.8774 13.316 2.2446 14.501 4.6518 7.0282 14.282 6.9708 14.089 6.4896 21.816-0.38889 6.2444-2.2419 27.487-2.7806 31.877-0.20448 1.6662-3.1314 6.3147-5.3929 8.5649-0.91723 0.91262-3.0176 1.6204-4.8089 1.6204-3.65 0-4.3045 1.0514-4.3045 6.9144 0 2.1918-0.62245 5.1786-1.3832 6.6373-0.98394 1.8866-1.3848 5.6261-1.3889 12.956-5e-3 8.0238-0.31299 10.558-1.3946 11.456-1.0688 0.887-1.3889 3.3336-1.3889 10.614 0 5.7278-0.54415 11.256-1.3789 14.007-0.80919 2.6674-1.383 8.2526-1.3889 13.519-6e-3 4.9718-0.4229 9.2284-0.93595 9.5454-0.50926 0.31475-0.92594 1.7731-0.92594 3.2408 0 1.4677-0.38249 2.9049-0.84998 3.1938-0.46747 0.28892-0.8349 4.7226-0.81653 9.8527 0.0204 5.6849-0.37086 9.7317-1.0019 10.363-0.56944 0.56943-1.0353 2.0211-1.0353 3.2258s-0.44559 3.0231-0.99018 4.0407c-0.72019 1.3457-0.69061 2.2112 0.1085 3.174 0.74808 0.9014 0.9007 3.1724 0.47831 7.1168-0.34121 3.1861-0.56907 6.0013-0.50638 6.2559 0.0627 0.25463-0.37373 1.713-0.96984 3.2408-0.59612 1.5278-1.1462 6.7765-1.2225 11.664-0.0965 6.1785-0.54261 9.3726-1.4644 10.483-0.93663 1.1282-1.4176 4.7704-1.6387 12.41-0.18628 6.4351-0.82011 11.938-1.5654 13.591-0.68884 1.5278-1.5062 4.1452-1.8163 5.8166-0.48231 2.5994-0.24951 3.1583 1.6101 3.8653 1.4282 0.54298 3.206 2.9944 5.1826 7.1465 1.6548 3.476 3.3771 7.0434 3.8273 7.9277 1.126 2.2115 1.0363 17.13-0.10727 17.837-0.50926 0.31471-0.92825 1.9018-0.93108 3.5269-3e-3 1.625-0.45502 4.5747-1.0048 6.5549-0.76375 2.7507-0.72957 3.7672 0.14488 4.3077 1.5044 0.9298 0.5258 9.5774-1.42 12.547-0.78025 1.1908-1.4186 2.6517-1.4186 3.2465 0 0.85173-3.3833 4.5394-4.1646 4.5394-0.0977 0-2.5027-0.7671-5.3444-1.7046-5.1558-1.7009-5.168-1.7004-5.6867 0.23146-0.28589 1.0649-0.52551 3.4645-0.53245 5.3326-0.0204 5.4763-0.69157 6.3257-4.9983 6.3257-2.1239 0-4.8056-0.66113-5.9593-1.4692-2.6183-1.8339-3.7276-1.0377-8.1191 5.8273-1.9992 3.1252-3.779 4.9013-4.9118 4.9013-1.4234 0-1.8878 0.87411-2.3366 4.3982-1.2637 9.9217-2.3295 32.914-1.5873 34.24 0.43622 0.7795 0.59162 3.205 0.34534 5.3901l-0.4478 3.9727 4.5103 0.6728c2.4807 0.3699 6.243 1.4136 8.3607 2.319 3.3622 1.4377 4.2595 2.5063 7.0771 8.4286 1.7747 3.7302 3.9002 8.6574 4.7233 10.949 2.3351 6.5012 2.8201 7.0114 5.503 5.7891 1.2677-0.5776 4.8392-1.3369 7.9367-1.6874 3.0975-0.3504 5.6319-0.9994 5.6319-1.4422s-1.9128-3.2683-4.2506-6.2786c-2.4285-3.1273-4.1131-6.2041-3.9298-7.1774 0.39798-2.1132 9.5617-7.1524 16.77-9.2222 2.9421-0.8447 5.5708-1.8944 5.8417-2.3326 0.27085-0.4384 3.9776-0.797 8.2371-0.797h7.7447l4.0506-6.25c2.2278-3.4376 4.6463-7.5001 5.3743-9.0278 4.0027-8.3996 13.608-21.672 22.287-30.794 6.7034-7.046 7.8836-9.2618 4.3098-8.0921-1.1458 0.37501-7.052 0.88633-13.125 1.1362-9.7687 0.40202-11.797 0.2086-17.593-1.6774-3.6031-1.1725-7.6571-2.8852-9.0089-3.8061-1.3518-0.92076-2.8101-1.6774-3.2408-1.6814-1.1226-0.0104-3.1518-4.712-2.4934-5.7772 0.34775-0.56271 0.77323-0.53834 1.1464 0.0653 0.32642 0.52813 3.025 2.2392 5.9968 3.8025 4.9121 2.5839 6.1897 2.8424 14.051 2.8424 4.7663 0 8.9045-0.41555 9.2199-0.9259 0.31473-0.50931 1.3122-0.92598 2.2166-0.92598 4.2274 0 24.956-8.343 25.87-10.413 0.16976-0.38417 0.88301-0.69856 1.585-0.69856 2.1047 0 16.046-13.148 18.294-17.253 7.5762-13.835 13.043-27.269 14.087-34.618 0.58882-4.1452 0.56255-4.1972-2.7195-5.384-1.8227-0.65918-3.314-1.5429-3.314-1.964 0-0.42112-0.96783-1.0086-2.1507-1.3054-1.1829-0.29687-5.1619-3.6872-8.8423-7.5341-3.6803-3.8469-7.1184-6.7305-7.6401-6.4081-1.5978 0.98751-4.9143-2.962-8.213-9.7808-1.7278-3.5716-3.4271-6.4937-3.7762-6.4937-0.3491 0-1.1545 1.2548-1.7898 2.7885-1.6912 4.083-7.7092 10.354-9.3367 9.7297-1.1526-0.44229-1.2649 0.5041-0.73682 6.2116 0.77586 8.385 1.5751 12.429 3.1633 16.007 0.6817 1.5354 1.6727 3.9313 2.2023 5.3241 0.52956 1.3928 1.3567 2.5324 1.8381 2.5324 0.48142 0 1.1438 1.2227 1.4721 2.7171 0.72521 3.3019 9.5318 12.401 14.101 14.569 1.815 0.86127 4.8045 1.8105 6.6433 2.1094 8.2421 1.3397 0.53945 5.4385-11.823 6.2916-6.6356 0.45785-15.683-2.0409-21.388-5.9073-3.1639-2.1441-3.2333-2.15-3.9054-0.33313-0.8845 2.3911-1.883 2.3308-6.0864-0.36701-7.6865-4.9335-14.405-14.804-16.924-24.867-0.60574-2.419-1.5131-4.3982-2.0164-4.3982-0.50328 0-0.66125 0.6614-0.35105 1.4698 0.31023 0.8084 0.83661 3.2042 1.1697 5.3241 1.1115 7.0726 7.791 18.574 13.974 24.061 7.2072 6.3962 0.42328 6.014-9.384-0.52868-8.5487-5.703-13.223-10.565-18.179-18.911-7.7102-12.983-11.693-29.855-10.639-45.066 0.56902-8.2114 0.45502-9.312-1.1508-11.111-3.2589-3.6515-4.0858-7.3503-3.6817-16.469 0.41934-9.4624 1.2726-13.374 4.267-19.559 1.0793-2.2296 1.9624-4.4962 1.9624-5.0369 0-0.54076 0.62502-1.5019 1.3889-2.1359 0.76391-0.63397 1.3889-1.7313 1.3889-2.4384 0-2.1864 12.345-18.067 19.074-24.538 11.563-11.118 18.572-17.468 19.282-17.468 1.319 0 4.1749-4.1671 4.2057-6.1367 0.017-1.0835 0.59815-2.4408 1.2916-3.0163 0.6934-0.57549 1.5139-3.1837 1.8233-5.796 0.30938-2.6123 1.2004-5.4544 1.98-6.3159 0.77961-0.86145 1.4175-2.0682 1.4175-2.6816 0-2.8821 7.7289-15.543 12.796-20.961 0.95251-1.0185 2.4504-4.3519 3.3287-7.4074 2.9186-10.154 4.6944-14.625 6.0977-15.353 9.4564-4.9034 14.091-5.6886 15.956-2.7031 1.9008 3.0436 4.2302 2.1248 3.5213-1.3889-0.10275-0.50927 0.14124-0.5979 0.54219-0.19694 0.40096 0.40094 1.9186-0.43239 3.3726-1.8519 1.4539-1.4195 3.6295-3.5456 4.8345-4.7248 1.205-1.1791 4.8841-3.523 8.1756-5.2086 3.2915-1.6856 7.8337-4.337 10.094-5.8919 5.1768-3.5618 17.818-10.367 19.258-10.367 0.59646 0 2.1439-0.83334 3.4388-1.8519 1.2948-1.0185 2.9628-1.8519 3.7068-1.8519 0.74389 0 2.5627-0.8617 4.0418-1.9149 1.479-1.0532 2.6892-1.6636 2.6892-1.3563 0 0.30721 0.80041 0.13021 1.7787-0.39333 1.7785-0.95179 8.3073-2.0799 21.37-3.6924 20.869-2.5762 57.293-3.3169 59.4-1.2079 0.63584 0.63657 2.2397 1.1574 3.5641 1.1574 2.6634 0 7.3883 1.9215 7.3996 3.0093 7e-3 0.38194 0.84056 0.69444 1.8591 0.69444 1.0185 0 1.8519 0.31496 1.8519 0.6999 0 0.38495 1.168 1.2169 2.5956 1.8489 3.8293 1.695 8.4792 5.8064 10.09 8.9216 1.275 2.4655 1.5067 2.5721 2.3429 1.0777 0.51034-0.91205 0.72091-3.4955 0.46778-5.741-0.3682-3.2669-0.13167-4.2585 1.1836-4.9624 0.90403-0.48385 2.0806-2.1328 2.6145-3.6644 0.85548-2.454 1.2936-2.7201 3.6888-2.2411 1.5631 0.3126 2.9857 0.11051 3.348-0.47562 0.34646-0.56056 1.8183-1.0192 3.2708-1.0192 2.6799 0 4.1068 1.3412 9.287 8.7295 3.051 4.3516 6.3415 6.5957 7.6916 5.2456 0.55667-0.55668 1.9705-1.0121 3.1418-1.0121 1.1713 0 2.1296-0.34511 2.1296-0.7669 0-1.055 8.5542-2.9399 13.265-2.9229 3.7006 0.0134 10.074 1.72 11.409 3.0552 0.34903 0.34902 1.213 0.63458 1.92 0.63458 2.3979 0 12.075 7.3168 16.181 12.235 6.3699 7.6286 11.92 16.487 16.121 25.728 6.2812 13.819 11.096 21.296 13.713 21.296 0.64786 0 1.9047 0.80299 2.7929 1.7844 0.88819 0.98142 3.2443 2.0597 5.2361 2.3962 1.9916 0.3365 3.626 0.88769 3.6319 1.2249 0.0132 0.76843 5.7477 3.3772 10.638 4.8395 2.037 0.60914 4.1809 1.4846 4.7641 1.9455 0.583 0.46089 3.4997 1.2785 6.4815 1.8169 2.9816 0.53839 7.2961 1.4311 9.5878 1.9837 5.1577 1.2438 27.569 1.451 30.093 0.27821 1.0184-0.47326 2.4768-0.98833 3.2407-1.1446 0.7638-0.15629 3.7847-0.77625 6.713-1.3777 2.9282-0.60146 5.324-1.4048 5.324-1.7852 0-0.38043 1.9792-1.9134 4.3983-3.4065 4.904-3.027 11.073-9.0242 11.872-11.541 0.287-0.90395 0.9103-1.6436 1.3851-1.6436 0.4751 0 0.8635-0.64958 0.8635-1.4435 0-0.79395 0.4168-1.186 0.9259-0.87127 1.7529 1.0833 0.9188 4.9276-2.3077 10.636-1.7786 3.1466-4.0467 6.7548-5.0408 8.0185-0.994 1.2636-1.5776 2.8959-1.2968 3.6273 0.292 0.76124-0.039 1.3298-0.772 1.3298-0.7052 0-1.935 0.72916-2.7326 1.6204-0.798 0.89121-2.3242 2.2154-3.3917 2.9426-1.0677 0.72721-1.9165 1.5605-1.8864 1.8518 0.1824 1.7656-0.4144 2.3958-2.3757 2.5085-1.2153 0.0698-3.0899 1.0074-4.1659 2.0834-1.076 1.076-2.7896 1.9563-3.8082 1.9563s-1.8518 0.31493-1.8518 0.69987c0 1.0069-8.702 4.8557-10.978 4.8557-2.2876 0-3.7358 2.4082-3.2493 5.4034 0.2325 1.431-0.043 2.0329-0.8123 1.7793-0.6401-0.2108-1.291-1.2426-1.4464-2.293-0.1978-1.3366-0.9156-1.8706-2.3919-1.7793-2.1881 0.13522-3.0372 2.4452-0.8986 2.4452 0.6658 0 1.8571 1.25 2.6473 2.7778 0.7899 1.5278 2.0507 2.7778 2.8015 2.7778s1.3651 0.37652 1.3651 0.83668c0 1.1359 5.6926 7.4967 6.7092 7.4967 1.6196 0 10.883-4.7861 10.883-5.6228 0-0.47228 0.8334-0.8587 1.8519-0.8587 1.1828 0 1.8519 0.6173 1.8519 1.7084 0 1.8583-2.7303 4.7732-4.4711 4.7732-0.5964 0-1.0845 0.39779-1.0845 0.88397s-1.4629 1.1584-3.251 1.4939-3.4697 0.96382-3.7371 1.3964c-0.2672 0.43259 0.5707 2.4604 1.8622 4.5063s2.3482 4.353 2.3482 5.1271 0.4413 1.4073 0.9806 1.4073 0.723 0.41667 0.4083 0.92593c-0.3148 0.50927-0.061 0.92593 0.5625 0.92593 0.6242 0 0.8609 0.27417 0.5256 0.60927-0.3349 0.33508-0.1958 1.1073 0.3095 1.716 0.5051 0.60872 1.0934 2.9388 1.3073 5.1778 0.214 2.2391 0.8386 5.244 1.3883 6.6776 0.5497 1.4336 0.9993 4.4545 0.9993 6.713 0 2.2585 0.3125 4.0023 0.6945 3.8749 1.0442-0.34806 1.0247 1.3618-0.043 3.7037-1.3941 3.0597-3.911 2.6036-5.1094-0.92593-0.8868-2.6126-0.9958-2.0132-0.8253 4.5462 0.1079 4.1555-0.073 7.1209-0.4007 6.5897-0.7409-1.199-1.9092 3.8796-1.9092 8.3001 0 1.9966-0.2882 2.8243-0.7327 2.1049-0.4903-0.79343-0.9501-0.1958-1.3898 1.8071-0.7432 3.3832-0.3784 3.8735 4.1596 5.5914 1.7824 0.67476 3.9592 1.8382 4.8376 2.5854 0.977 0.83132 4.0313 1.4576 7.8703 1.6138 3.4505 0.14039 7.4195 0.54727 8.82 0.90417 1.4004 0.3569 2.5463 0.27573 2.5463-0.18036 0-0.4561 0.8375-0.89236 1.8611-0.96947 1.6867-0.12705 5.6247-3.0317 4.1102-3.0317-0.3533 0-0.1238-0.62501 0.5101-1.3889 0.6341-0.76389 0.9151-1.3889 0.6246-1.3889s-0.092-1.25 0.4401-2.7778c1.0456-2.9989 2.6859-3.5247 4.703-1.5075 0.9574 0.95739 1.1248 2.8594 0.679 7.7221-0.5118 5.581-0.9911 6.87-3.5521 9.5499-1.6283 1.7039-2.7586 3.6244-2.5119 4.2678 0.2804 0.73031-0.062 0.97352-0.9124 0.64739-0.7683-0.29487-2.4161 0.53226-3.7828 1.899-1.3318 1.3318-2.9897 2.4214-3.6841 2.4214-0.6945 0-1.2627 0.46125-1.2627 1.025 0 0.56367-0.5731 0.805-1.2736 0.53618s-2.3559 0.0728-3.6788 0.75904c-1.3229 0.68631-4.8122 1.6631-7.7541 2.1706-2.9419 0.50757-7.0158 1.3615-9.0527 1.8976-5.3965 1.4203-12.989 1.2729-14.275-0.27728-1.7714-2.1345-7.0416-1.6065-9.2436 0.92591-1.0627 1.2222-2.3714 2.2222-2.9084 2.2222-0.5369 0-1.8953 0.9375-3.0187 2.0834-2.6336 2.6863-5.7197 4.3982-7.9286 4.3982-0.963 0-2.205 0.54729-2.7601 1.2162-0.67347 0.81126-3.8938 1.293-9.674 1.4471-9.5477 0.25451-13.618-0.39917-13.618-2.1873 0-2.3389 2.5276-3.1548 10.449-3.3731 4.4381-0.1223 8.0692-0.54327 8.0692-0.93543 0-0.39222 1.4547-0.98604 3.2326-1.3196 1.778-0.33353 3.0421-0.91458 2.8094-1.2913-0.2328-0.37667 0.6187-1.2426 1.8923-1.9242 1.2736-0.68159 2.1139-1.7648 1.8674-2.4072-0.2628-0.68494 0.058-0.97397 0.7742-0.69896 0.6721 0.25799 1.4712-0.17994 1.7756-0.97305 0.3461-0.90209 0.045-1.4422-0.8064-1.4422-0.7479 0-2.2317-0.87182-3.2974-1.9374-1.1493-1.1492-2.6566-1.7494-3.705-1.4752-0.97216 0.25416-1.5685 0.14006-1.3251-0.25362 0.62168-1.0059-2.2388-3.3187-5.5326-4.4731-1.5277-0.53553-2.1527-1.0081-1.3888-1.0502 0.76386-0.0422 0.0337-0.90222-1.6204-1.9114-1.655-1.0091-3.0092-2.2576-3.0092-2.7743 0-0.51675-0.62496-0.93952-1.3889-0.93952-0.76385 0-1.3888-0.3829-1.3888-0.85087 0-0.46796-2.7085-3.5195-6.0186-6.7813-3.3102-3.2617-6.0185-6.2675-6.0185-6.6795 0-0.41198-0.89713-1.5271-1.9935-2.478-1.0965-0.95094-1.6488-1.729-1.2275-1.729s-0.0546-0.93749-1.0579-2.0833c-1.0032-1.1458-2.4004-3.2371-3.1051-4.6473-1.6211-3.2444-2.1986-2.3463-4.2934 6.6786-0.89327 3.8481-1.9004 7.2049-2.2382 7.4595-0.33779 0.25463-0.88723 1.5797-1.221 2.9445-0.33384 1.3649-1.1505 3.0315-1.8149 3.7037-1.3628 1.379-2.8622 4.571-2.6401 5.6203 0.0806 0.38195-0.20549 0.59029-0.63632 0.46297-0.4309-0.12731-2.7262 1.5513-5.1007 3.7303l-4.3174 3.9618 1.8641 2.5198c4.365 5.9003 22.804 21.16 26.325 21.787 0.54656 0.0973 1.2628 0.82508 1.5919 1.6173 0.32886 0.79217 2.3523 2.0193 4.4965 2.727 2.1441 0.70765 4.1072 1.8304 4.3623 2.4949 0.25494 0.66452 1.2522 1.2082 2.2163 1.2082 0.96392 0 1.7528 0.36806 1.7528 0.81792 0 0.44987 0.72903 1.0552 1.6203 1.345 0.89127 0.28994 3.9121 1.3666 6.713 2.3927 2.801 1.026 5.6716 1.8791 6.3795 1.8957 0.70759 0.0167 1.753 0.66779 2.3228 1.447 0.6243 0.85397 2.7415 1.4976 5.3294 1.6204 2.3613 0.11201 4.1464 0.44742 3.9668 0.74548-0.4619 0.7666 5.7794 3.6248 7.9154 3.6248 1.8235 0 4.1876 0.83396 10.66 3.7604 4.2037 1.9006 8.0446 3.1614 8.939 2.9341 0.333-0.0846 1.1133 0.45785 1.7336 1.2055 0.6206 0.74757 2.3313 1.3592 3.8017 1.3592 1.5277 0 3.3531 0.79368 4.259 1.8519 0.8722 1.0185 2.2414 1.8519 3.0425 1.8519 1.3972 0 16.96 7.6316 19.05 9.3419 0.5561 0.455 1.2259 0.61242 1.4884 0.34992 0.2625-0.26249 1.0045 0.15778 1.6486 0.93397 0.6442 0.77619 1.7453 1.4112 2.4467 1.4112 0.7017 0 1.2756 0.32537 1.2756 0.72292 0 0.39765 1.1459 1.2374 2.5463 1.8663 3.7282 1.674 10.799 5.7986 11.339 6.6144 0.2565 0.38742 1.5003 1.2496 2.7636 1.916 1.2637 0.66632 3.082 2.209 4.0408 3.4281 0.9591 1.2191 1.9868 1.9732 2.2843 1.6758 0.2975-0.29744 0.9792 0.27312 1.5148 1.2678 0.5359 0.99465 3.2417 4.2204 6.0133 7.1682 11.816 12.567 17.157 30.814 12.091 41.3-1.0185 2.1081-1.8519 4.3796-1.8519 5.0479 0 0.66827-0.4166 1.215-0.9259 1.215s-0.926 0.44448-0.926 0.98775c0 0.89629-2.8939 5.1017-6.4815 9.4188-0.7639 0.9192-3.4046 3.633-5.8684 6.0305-2.4637 2.3974-4.8339 5.0212-5.267 5.8305-0.5496 1.0271 0.7271 4.4927 4.2276 11.476 2.7583 5.5024 5.2854 11.515 5.6157 13.362 0.3304 1.8467 1.1315 3.9826 1.7804 4.7464 1.1534 1.3582 2.5949 5.5385 4.1509 12.037 0.4267 1.7823 1.4693 5.9492 2.3167 9.2592 1.0466 4.0885 1.5694 10.188 1.6304 19.018 0.084 12.022-0.1083 13.569-2.5439 20.566-1.4486 4.1612-2.984 7.3492-3.4121 7.0847-0.4282-0.2646-0.7913-3.8941-0.807-8.0654-0.05-13.397-1.1963-19.548-6.9396-37.257-0.6681-2.0604-1.8432-5.1854-2.6113-6.9444-0.768-1.7591-1.645-3.9872-1.9488-4.9512-0.3038-0.9641-0.7501-1.5554-0.9915-1.3139s0.3934 4.3343 1.4108 9.0951c3.6305 16.99 2.0963 41.468-3.7506 59.834-0.9939 3.1224-1.8072 6.865-1.8072 8.3168 0 3.4929-4.464 16.756-6.8208 20.266-2.4591 3.6619-6.7862 7.8704-8.0921 7.8704-0.6344 0-0.4282-0.9351 0.5282-2.3945 3.3097-5.0514 4.4847-11.529 4.4454-24.504-0.021-6.9009-0.462-14.818-0.9802-17.593-0.5181-2.7751-1.4652-8.0664-2.1043-11.759-0.6393-3.6921-1.4845-6.7129-1.8787-6.7129-0.3939 0-0.9124 6.9792-1.152 15.509-0.2394 8.53-0.7054 17.176-1.0354 19.213-1.0266 6.3366-4.4012 19.401-5.2498 20.324-0.4448 0.4838-0.8216 1.5255-0.8376 2.3148-0.031 1.572-3.8449 9.5519-7.3343 15.348-5.5195 9.1695-18.096 21.059-26.896 25.426-2.2918 1.1373-5.2084 3.0412-6.4816 4.2309-2.4954 2.3318-12.687 7.7876-14.583 7.8068-0.8302 0.01-1.1575 2.1415-1.1575 7.543v7.5311l4.4598 4.2743c2.4529 2.351 6.9271 6.358 9.9425 8.9042 3.0155 2.5463 7.7965 6.713 10.625 9.2593 2.8282 2.5464 8.8683 7.9631 13.423 12.037 4.5544 4.0742 10.099 9.1511 12.322 11.282 2.2224 2.1309 8.0624 7.5428 12.978 12.026 14.063 12.828 37.868 37.016 40.654 41.308 4.1961 6.4656 6.6913 12.074 6.7003 15.06 0 1.5532 0.474 3.2899 1.0431 3.8589 0.6706 0.6704 0.85 3.2615 0.5097 7.361-0.9965 12.003-2.5755 18.998-8.2654 36.613l-2.0065 6.212 2.0488 2.181c1.127 1.1996 2.0621 2.5708 2.078 3.0474 0.016 0.4764 1.0538 2.9495 2.3063 5.4958 1.2527 2.5464 2.2812 5.0765 2.286 5.6226 0.014 1.7334 5.7823 11.837 8.7907 15.399 1.5926 1.8861 3.4784 4.5945 4.1905 6.0186 0.7122 1.4242 2.0023 3.4226 2.867 4.4411 2.425 2.8562 5.1683 8.1536 5.865 11.326 0.648 2.9504-2.1522 9.8339-6.1279 15.064-6.081 7.9997-15.032 19.18-20.206 25.241-6.938 8.1257-33.438 34.604-40.278 40.245-2.5463 2.0999-6.0879 5.1496-7.8704 6.7771-7.3678 6.7269-20.295 15.798-22.77 15.977-2.3259 0.1683-3.0695-0.6345-7.5451-8.1468-2.7306-4.5833-5.3654-9.1667-5.855-10.185-0.4896-1.0185-2.7602-4.9084-5.0456-8.6437-2.2856-3.7355-4.1554-7.1731-4.1554-7.6389 0-1.3642-3.3727-0.9729-4.6253 0.5364-0.6316 0.7609-0.9324 2.3234-0.6686 3.4723 1.3568 5.9094 3.6089 13.211 4.3502 14.104 1.5457 1.8627 8.3511 27.544 8.3511 31.515 0 7.3244 0.8796 9.7084 3.5881 9.7242 1.3367 0.01 2.8889 0.3202 3.4493 0.6945 1.6143 1.0779 3.1478 4.516 3.1478 7.0573 0 1.2827 0.4359 3.2892 0.9686 4.4591l0.9686 2.1268 26.269-0.3159c25.5-0.3071 26.297-0.262 27.261 1.5384 1.038 1.9394 2.5417 16.023 3.4779 32.574 0.5112 9.04 0.4152 9.8427-1.3683 11.44-1.5796 1.4145-2.7037 1.5966-6.3676 1.0318-6.0686-0.9354-33.262-1.0433-37.551-0.1489-3.3165 0.6917-3.4723 0.8911-3.4723 4.4468 0 3.7012-1.2837 7.2169-3.0571 8.3722-0.5106 0.3326-4.9274 0.9065-9.8153 1.2753-10.076 0.7605-18.296 3.0674-17.866 5.014 1.0443 4.7271 1.2398 13.129 0.3311 14.224-0.9961 1.1999-0.8924 7.9049 0.1673 10.826 1.6508 4.5512 3.6423 11.177 4.3838 14.583 0.4711 2.1645 1.3103 5.9144 1.8649 8.3334 0.5547 2.419 1.1786 5.6041 1.3864 7.0781 0.2079 1.4739 0.7952 3.1827 1.3052 3.7971 0.5099 0.6146 1.2042 3.1381 1.5426 5.608 0.3386 2.4697 1.1511 5.5227 1.8058 6.7846 0.6545 1.2618 0.9511 2.6809 0.6588 3.1536-0.5776 0.9349 1.3997 7.9872 2.6389 9.4122 0.4207 0.4838 0.765 2.0459 0.765 3.4714 0 1.7652 1.168 3.7949 3.6636 6.3665 2.0151 2.0762 3.9182 4.5768 4.2291 5.5566 0.6331 1.9943 0.9058 2.075 7.3439 2.1741 3.8735 0.059 4.7625 0.4156 5.707 2.2864 1.7266 3.4197 0.6181 4.7273-6.9716 8.2232-3.8652 1.78-7.8607 4.0097-8.8793 4.9544-1.0187 0.9447-2.9978 2.7445-4.3982 3.9997-2.5771 2.3094-3.4452 6.6192-1.6981 8.431 0.4664 0.4838 1.081 2.3905 1.3656 4.2371 0.2846 1.8467 1.778 8.2798 3.3185 14.296 1.5405 6.0161 2.801 11.62 2.801 12.453 0 3.78-8.3534 8.3196-15.309 8.3196-5.7771 0-7.5864-1.1884-8.8346-5.8022-0.5833-2.156-1.4187-4.7534-1.8567-5.7719-0.6837-1.5901-2.7835-9.267-5.3183-19.445-0.5981-2.4018-1.1699-2.8173-4.222-3.0706-2.1234-0.176-4.1398 0.2372-5.0598 1.0371-0.9493 0.8254-4.7541 1.562-10.03 1.9417l-8.5008 0.6117-3.326-4.356c-1.8293-2.3959-4.6609-7.0673-6.2923-10.381-1.6313-3.3137-3.9136-6.9725-5.0714-8.1303-1.1579-1.1578-2.1052-2.7886-2.1052-3.624 0-0.8353-0.78438-4.2918-1.7431-7.6811-3.468-12.26-3.9597-15.377-2.8761-18.227 0.81578-2.1457 0.65949-3.8961-0.78023-8.7354-0.99025-3.3285-2.4459-9.177-3.2348-12.996-1.999-9.6777-3.2063-15.037-5.3186-23.611-1.5729-6.3842-3.3338-14.446-5.1846-23.736-0.26737-1.342-0.0278-3.2959 0.53189-4.342 0.72084-1.3469 0.72854-2.0808 0.0271-2.5146-0.54528-0.337-0.88458-1.9249-0.75411-3.5285 0.13049-1.6036-0.25798-3.826-0.86306-4.9383-0.60521-1.1123-1.1003-3.0081-1.1003-4.213 0-1.2048-0.37395-2.5863-0.83112-3.0701-0.45701-0.4839-1.0485-2.5463-1.3142-4.5833-0.64494-4.9427-1.5246-8.8578-2.4966-11.111-0.43938-1.0186-0.99417-3.3102-1.233-5.0927-0.23889-1.7824-0.92224-4.9074-1.5187-6.9445-0.59647-2.0371-1.4531-5.787-1.9038-8.3334-0.45063-2.5463-1.2715-6.2963-1.824-8.3333-0.5525-2.0371-1.6472-6.6205-2.4324-10.185-0.78528-3.5648-1.856-7.0001-2.3794-7.6339-0.52356-0.6338-0.92889-2.813-0.90085-4.8426 0.0278-2.0293-0.33951-3.9314-0.81673-4.2262-0.47715-0.295-0.86765-1.568-0.86765-2.8291 0-1.261-0.69973-3.3606-1.5549-4.6658-1.2165-1.8566-1.3263-2.7392-0.50444-4.0551 0.81479-1.3046 0.75369-1.9285-0.27244-2.78-0.72764-0.604-1.5998-2.6186-1.9382-4.4772-0.33834-1.8586-2.2388-6.4098-4.2232-10.114-3.9584-7.3886-5.3833-12.426-6.0507-21.392-0.40056-5.3807-0.75215-6.2017-3.9656-9.2593l-3.5261-3.355-0.0125-12.5c-8e-3 -6.875 0.175-13.19 0.40445-14.034 0.22951-0.8436 2.0683-2.1944 4.0861-3.0018s3.6688-1.8195 3.6688-2.2495c0-0.4298 1.5033-2.7109 3.3406-5.0691 4.0322-5.1757 4.1645-4.0092-3.4027-30.004-0.96452-3.3136-1.3798-3.764-2.7796-3.0149-0.90515 0.4844-3.7572 1.3336-6.3381 1.887-2.5808 0.5536-4.9064 1.3527-5.168 1.7759-0.26153 0.4233-0.90986 6.3272-1.4407 13.12-0.93842 12.008-3.9211 34.043-5.4944 40.591-0.42825 1.7826-1.1914 5.3241-1.6959 7.8706-2.3552 11.888-3.3036 15.807-4.0222 16.62-0.42729 0.4838-0.77688 1.8317-0.77688 2.9951 0 4.7736-15.97 56.116-18.901 60.764-0.70334 1.1155-2.1301 4.7365-3.1705 8.0468-4.702 14.96-7.2336 22.423-8.4905 25.03-0.37619 0.7808-1.0008 2.864-1.3879 4.6297-0.38709 1.7658-1.6456 5.2938-2.7966 7.8401-1.151 2.5462-2.611 6.6196-3.2447 9.0516-0.63353 2.4321-1.4751 4.6218-1.8703 4.866-0.39507 0.2441-1.01 2.2127-1.3665 4.3743-0.35653 2.1618-0.94279 4.3471-1.3027 4.8563-0.35993 0.5094-1.2063 2.801-1.8807 5.0927-0.67437 2.2916-1.9704 6.6667-2.8799 9.7223-0.90946 3.0556-2.067 7.2222-2.5722 9.2593-0.50515 2.0369-1.6213 5.9954-2.4803 8.7962-0.85897 2.801-2.3821 9.676-3.3848 15.278-1.0026 5.6018-2.2823 12.685-2.8437 15.741-1.3755 7.4871-1.352 60.379 0.0319 72.223 0.59514 5.0925 1.547 13.426 2.1154 18.519 1.2515 11.213 0.5434 53.052-1.0342 61.111-1.8528 9.4651-8.5466 35.436-10.024 38.889-0.43564 1.0186-2.7665 8.102-5.1798 15.741-5.0185 15.886-5.9446 18.721-6.9557 21.296-0.3998 1.0187-1.1722 3.5187-1.7165 5.5556-0.54423 2.037-1.7855 6.4121-2.7583 9.7224-0.97285 3.3101-2.9545 10.683-4.4037 16.384l-2.635 10.365 3.4359 3.337c3.8652 3.7536 4.4068 7.2505 2.1524 13.896-0.69105 2.037-1.7834 8.4954-2.4275 14.352-1.3385 12.172-2.3576 14.762-6.9148 17.579-2.7231 1.6831-3.2809 2.5789-3.3698 5.4135-0.16174 5.1536 0.15041 6.797 1.9676 10.359 2.0438 4.0061 1.1158 6.288-3.9592 9.7368-3.11 2.1132-3.3133 2.5114-2.3561 4.6122 0.79327 1.741 0.75266 3.8638-0.16722 8.7387-0.89466 4.7412-1.0173 9.8069-0.46522 19.213 0.8762 14.929 0.8696 15.901-0.39132 57.626-0.83472 27.622-0.78048 32.256 0.40536 34.633 0.94195 1.8882 1.3784 5.8049 1.3992 12.556 0.0284 9.2754 1.799 32.028 3.5506 45.629 0.43833 3.4032 1.6915 7.904 2.7849 10.002 1.0934 2.0978 2.3876 6.6319 2.8761 10.076 0.87619 6.178 5.2504 20.668 8.1435 26.976 1.9552 4.2633 3.0743 10.663 3.6086 20.638 0.39895 7.4486 0.23867 8.4749-1.8916 12.11-2.3529 4.0151-7.4498 8.0542-11.695 9.2678-9.255 2.6459-13.008 3.2098-24.074 3.6174-6.875 0.2534-16.458 0.1201-21.296-0.2957zm3.5402-680.76c-0.15673-9.0967-0.18556-9.2215-0.69445-3.0093-0.29201 3.5649-0.38117 7.8357-0.19818 9.4908 0.64687 5.8492 1.0541 2.8918 0.89263-6.4815zm269.61-84.028c2.4863-2.4865 2.3291-3.5951-1.0503-7.4076-2.6719-3.0142-5.4693-8.2952-8.2094-15.498-0.6273-1.6487-1.5088-2.7698-1.959-2.4918-1.3957 0.8628-0.904 7.366 1.0215 13.509 1.012 3.2283 1.8453 6.7144 1.8518 7.7469 0.017 2.7023 2.5947 5.9932 4.6942 5.9932 0.9896 0 2.6328-0.8334 3.6512-1.8518zm-15.662-39.181c-1.1992-1.1991-1.3919 1.0342-0.3183 3.6884 0.6041 1.4935 0.7242 1.4345 1.0043-0.494 0.1751-1.2047-0.1337-2.6421-0.686-3.1944zm-257.49-79.802c0-2.8007-0.41666-5.0925-0.92597-5.0925-1.0182 0-1.2218 4.8199-0.3423 8.1019 0.89383 3.3352 1.2683 2.4468 1.2683-3.0094zm-235.42-161.65c1.1458-2.5854 2.0833-5.4768 2.0833-6.4255 0-0.9488 0.41667-1.9826 0.92594-2.2973 0.50926-0.3148 0.92593-1.2413 0.92593-2.0588 0-2.4354 6.2144-14.778 8.1227-16.132 0.97135-0.6894 3.0976-3.962 4.725-7.2722 4.7907-9.7448 12.75-24.874 13.754-26.142 2.9046-3.6707 10.504-19.531 9.7295-20.306-0.48435-0.4844-3.1278-1.4503-5.8742-2.1464-2.7465-0.6962-7.9103-2.3358-11.475-3.6435l-6.4815-2.3775-1.6666 2.0758c-2.9411 3.6631-6.7372 9.2666-11.453 16.906-4.8962 7.9318-6.7881 11.548-6.7881 12.976 0 0.7483-0.34998 1.3606-0.77773 1.3606-0.42776 0-1.3363 1.7708-2.0191 3.9353-0.68274 2.1644-1.9463 5.6019-2.808 7.639-2.7969 6.6124-4.6265 15.036-3.7622 17.32 0.4419 1.1683 1.1026 4.3112 1.4682 6.9843 0.36563 2.6731 1.0005 5.0677 1.4109 5.3213 0.41037 0.2536 1.2708 2.6498 1.9121 5.325 0.64126 2.6752 1.9331 6.231 2.8708 7.9014 0.93768 1.6707 1.7049 3.6499 1.7049 4.3983 0 2.6579 1.4178 1.2931 3.4722-3.3425zm504.05-94.17c3.1688-3.2563 5.5346-7.3071 9.8514-16.868 1.7732-3.927 2.5543-6.6864 4.718-16.667 1.5836-7.3041 3.1028-20.722 2.7258-24.074-0.4011-3.5663-0.4827-3.424-3.4539 6.0185-6.2058 19.722-17.958 36.557-25.524 36.564-1.5396 0-1.2695-0.5334 1.602-3.1706 2.9568-2.7156 5.1696-6.5585 9.0992-15.8 0.433-1.0187 1.2691-3.7269 1.8579-6.0187 0.589-2.2917 1.4112-5.0001 1.8272-6.0186 1.2485-3.0561 2.779-15.932 3.357-28.241 0.5576-11.875-1.7339-47.29-3.3549-51.852-0.4526-1.2733-1.3179-5.2316-1.9234-8.7965-0.6052-3.5648-1.4549-7.3148-1.8881-8.3333-0.433-1.0185-1.807-5.4556-3.0532-9.8603-1.2463-4.4046-2.789-8.9857-3.4281-10.18-0.6392-1.1944-1.7124-4.0489-2.3849-6.3434-1.0228-3.4909-1.1508-3.6428-0.7837-0.9313 0.2413 1.7824 0.8741 5.7408 1.406 8.7964 1.4078 8.084 3.103 43.454 3.0843 64.352-0.015 18.03-0.7738 27.374-2.2962 28.315-0.4436 0.274-0.8064 1.5153-0.8064 2.7584s-0.4167 2.2601-0.9259 2.2601-0.9259 0.8411-0.9259 1.869c0 4.4584-9.1426 19.195-15.725 25.346l-4.847 4.5295 3.3848 10.285c1.8616 5.6571 3.782 11.009 4.2673 11.893 0.48548 0.8843 0.88254 2.4468 0.88254 3.4723 0 1.0254 0.45653 1.8644 1.0144 1.8644 0.55811 0 2.146 0.8056 3.5288 1.7903 1.3828 0.9846 3.5304 2.0473 4.7726 2.3615 1.242 0.3141 3.3 1.3741 4.5731 2.3557 3.3682 2.597 5.5974 2.1978 9.368-1.6767zm-32.088-49.613c0.85974-3.4961 1.7847-6.9336 2.0553-7.639s0.0897-1.2824-0.40387-1.2824c-0.49271 0-2.2342 2.5107-3.8699 5.5794-2.7187 5.1013-2.8703 5.8133-1.7672 8.3051 1.54 3.4793 2.0725 2.8162 3.9857-4.9631zm4.136-14.763c0.0357-0.4121-0.3515-0.4916-0.8608-0.1769-0.5092 0.3148-0.89667 1.4852-0.86079 2.601 0.0627 1.956 0.0936 1.9622 0.86079 0.1768 0.43763-1.0185 0.82511-2.189 0.8608-2.6009zm86.809-44.332c-0.2956-0.7387-0.515-0.5192-0.5595 0.5594-0.04 0.976 0.1787 1.5231 0.4864 1.2153 0.3077-0.3076 0.3405-1.1063 0.074-1.7747zm23.097-99.389c0.5306-9.575-0.6495-17.758-3.3741-23.398-1.0106-2.0913-1.8372-4.2045-1.8372-4.6959 0-0.49146-0.3125-1.0324-0.6945-1.2022-0.382-0.1698-1.6756-2.2608-2.8746-4.6468-2.175-4.3279-3.3188-5.7314-7.3714-9.0459-1.1793-0.96445-2.1168-1.9934-2.0833-2.2866 0.2272-1.9926-0.1122-2.5168-1.3281-2.0502-0.764 0.29313-1.389 0.10479-1.389-0.41855 0-0.52333-0.4166-0.69402-0.9259-0.37923-0.5207 0.32181-0.926-0.41723-0.926-1.6888 0-2.095-2.1292-4.2217-13.618-13.602-0.6151-0.50216-1.4599-0.91307-1.8776-0.91307-0.4174 0-1.4726-0.83333-2.3447-1.8518-0.8721-1.0185-2.1227-1.8519-2.7792-1.8519-0.6564 0-1.7942-0.83335-2.5283-1.8519-0.7341-1.0185-1.8471-1.8518-2.4733-1.8518-0.6261 0-1.4716-0.52085-1.8789-1.1575-1.0673-1.6683-7.3187-4.387-10.263-4.4632-1.8954-0.0493-2.1178-0.22243-0.903-0.70361 1.3162-0.52138 1.0611-0.86049-1.3889-1.8474-1.6504-0.66493-3.7713-1.6276-4.7129-2.1393-0.9416-0.51168-4.6916-1.7115-8.3333-2.6661-3.6418-0.95473-5.9964-1.7651-5.2325-1.801 2.2899-0.10744-0.9516-1.8573-3.4722-1.8745-1.1459-8e-3 -2.0833-0.44549-2.0833-0.9727 0-0.63167-0.6695-0.60016-1.9636 0.0924-1.3055 0.69853-1.7584 0.71861-1.3512 0.0597 0.3577-0.57855-0.4631-1.2314-1.9715-1.5681-1.4214-0.31738-3.9371-1.1818-5.5906-1.921-1.6531-0.73924-4.5699-1.5433-6.4814-1.7868-1.9115-0.24354-3.6141-0.84966-3.7839-1.347s-1.3214-0.90418-2.559-0.90418c-1.2375 0-2.9736-0.36548-3.858-0.81221-2.4585-1.2421-8.0349-2.8916-9.7755-2.8916-0.85499 0-1.5546-0.41195-1.5546-0.91557 0-0.50355-1.0648-0.82744-2.3664-0.71964-2.1723 0.17978-2.2293 0.2886-0.69447 1.3274 0.91969 0.62236 2.5053 1.7632 3.5238 2.5352 8.5838 6.506 11.001 8.0205 12.118 7.5921 0.70742-0.27146 1.225-0.19604 1.1502 0.16765-0.33211 1.6165 1.4355 3.9018 3.0182 3.9018 0.95464 0 3.1898 1.3542 4.9667 3.0093 5.0081 4.6646 5.8232 5.2546 6.4265 4.6511 0.3089-0.30889 0.5616 0.10445 0.5616 0.91855s1.3543 2.4235 3.0093 3.5764c1.6551 1.153 3.8768 2.9522 4.9367 3.9983 2.9217 2.8829 13.171 11.624 13.63 11.624 1.6561 0 39.435 38.21 41.595 42.07 0.4489 0.80236 1.888 2.6024 3.1976 4.0002s3.371 3.9998 4.5809 5.7822c1.2098 1.7824 5.3011 7.5897 9.0915 12.905 3.7907 5.3155 6.6828 10.003 6.427 10.417-0.2557 0.4139 0.1565 0.7525 0.9161 0.7525 0.7597 0 1.6675 0.9021 2.0174 2.0045 0.5411 1.7047 1.1123 1.059 3.821-4.3192 2.74-5.4406 3.2508-7.5133 3.6567-14.84zm-20.271-42.658c-0.3045-0.30438-0.316-1.1727-0.025-1.9295 0.4302-1.1216 0.6727-1.1477 1.3108-0.14096 1.3647 2.1529 0.3811 3.7371-1.2855 2.0704zm-440.41 33.789c1.4775-1.5816 2.6863-3.0574 2.6863-3.2795 0-0.22209 0.76669-1.2267 1.7038-2.2325 0.93707-1.0058 2.2912-2.9676 3.0093-4.3595s2.1581-3.4766 3.2002-4.6325c3.2259-3.5787 5.3284-7.6246 3.9448-7.591-0.66537 0.016-1.996 0.62472-2.9569 1.3522-3.2441 2.456-20.132 19.237-21.573 21.437l-1.4296 2.1818h4.3646c3.6887 0 4.7807-0.44529 7.051-2.8757zm-142.71-14.486c-0.0162-0.38194-0.61106-1.462-1.3219-2.4002-0.71088-0.93813-1.5676-3.334-1.9038-5.324-0.67929-4.0207-2.3004-4.929-2.3004-1.289 0 4.2931 2.1916 9.7077 3.9292 9.7077 0.89453 0 1.6132-0.3125 1.597-0.69445zm132.44-63.485c0-0.1593-1.3145-1.5135-2.921-3.0093-2.8336-2.6382-2.8555-1.6051-0.0354 1.6786 1.2079 1.4065 2.9564 2.1935 2.9564 1.3306zm-24.917-35.88-0.80575-4.1083-0.10144 3.7809c-0.0558 2.0795 0.17631 4.0586 0.51583 4.3981 1.112 1.112 1.2093 0.0997 0.39136-4.0708zm-127.01-13.45c3.657-3.0772 3.6084-4.6819-0.16044-5.3059-1.6551-0.27401-4.1551-0.78482-5.5556-1.1352-2.4917-0.62331-2.5463-0.54866-2.5463 3.4834 0 2.2661 0.27777 4.3981 0.61729 4.7375 1.3371 1.3372 4.9366 0.49918 7.645-1.7798zm163.33-2.464c0.72182-1.6551 1.7694-4.6759 2.328-6.713 1.1288-4.1163 1.9417-16.276 1.0513-15.726-0.49991 0.30896-1.8249 4.2469-4.6902 13.939-0.86106 2.9127-1.1756 11.508-0.4211 11.508 0.23075 0 1.0101-1.3542 1.7319-3.0093zm294.9-13.503c-0.41486-0.16976-0.7543-0.71517-0.7543-1.2121 0-0.49687 0.41667-0.6459 0.9259-0.33116 0.50925 0.31474 0.92591-0.31307 0.92591-1.3951 0-1.0821 0.45486-2.8172 1.0107-3.8559 1.2882-2.4071 0.25751-8.175-1.461-8.175-2.4989 0-2.5371-2.0781-0.074-4.0418l2.4892-1.9847-0.44326-11.57c-0.65702-17.153-2.3502-33.482-3.7438-36.107-0.67584-1.2732-1.4882-4.3108-1.8053-6.7504-0.31701-2.4395-1.0882-5.3562-1.7137-6.4815-0.62549-1.1253-1.1556-2.2544-1.1781-2.509-0.11278-1.2781-3.6972-10.326-5.8694-14.815-4.1729-8.6244-5.0481-9.2593-12.764-9.2593-7.0322 0-8.6873 0.99046-6.2849 3.7612 0.81647 0.9416 1.4645 5.3035 1.8572 12.5 0.33173 6.0796 1.0072 11.566 1.501 12.193 0.49376 0.62639 1.4756 8.1264 2.182 16.667 1.607 19.431 2.2295 24.324 3.0945 24.324 0.37646 0 1.2419 1.7708 1.9231 3.9352 0.68125 2.1644 1.7906 4.594 2.4651 5.3993 0.6745 0.80521 0.96256 1.7278 0.64014 2.0502-0.32237 0.32241 0.0933 2.0182 0.92395 3.7685 0.83056 1.7503 1.5101 3.8485 1.5101 4.6628 0 0.81426 0.33369 1.4804 0.74146 1.4804 0.40779 0 1.667 1.7708 2.7983 3.9352 1.9411 3.7138 2.8382 5.2415 8.4974 14.472 2.1234 3.4632 2.3581 3.6048 2.8376 1.7121 0.28751-1.1348 0.18334-2.2023-0.23145-2.372zm-455.39-1.0366c2.1375-1.4962 2.3764-2.4191 3.1182-12.05 0.96122-12.479 0.17431-17.168-3.317-19.768-2.2086-1.6445-2.9452-1.7424-6.0701-0.80612-3.9948 1.1969-6.9019 5.3515-8.3952 11.998-0.80586 3.5866-0.7459 3.8041 0.81782 2.9672 2.5439-1.3614 3.478-1.1174 5.0798 1.3273 1.7984 2.7447 1.8654 4.0767 0.58179 11.563-0.55856 3.2578-0.80437 6.265-0.54623 6.6827 0.69518 1.1248 6.0742-0.0544 8.7309-1.9141zm542.6-21.395c0-1.5578-0.3761-2.6-0.8357-2.3159-1.2274 0.75855-2.9143-4.6201-1.7989-5.7356 0.5852-0.58521 0.4484-1.3553-0.3896-2.1932-0.7101-0.71024-1.1087-1.8389-0.8857-2.5082 0.4732-1.4193-6.9846-16.822-8.1448-16.822-0.431 0-1.0621-0.87788-1.4026-1.9508-0.5772-1.8186-2.1235-4.0279-4.7856-6.8386-0.6124-0.64645-0.8892-1.3995-0.6152-1.6735 0.274-0.274-0.3162-0.93396-1.3113-1.4666-0.9951-0.53261-2.0726-0.70525-2.3941-0.38366-0.3216 0.32158-0.5848-0.26706-0.5848-1.3081 0-2.0537-2.1077-4.3328-3.0944-3.3461-0.33506 0.33509-0.60924 8e-3 -0.60924-0.72778 0-0.73537-1.3542-2.5575-3.0093-4.0491-2.8588-2.5764-3.3364-2.8663-5.1755-3.1401-0.42751-0.0637-1.2519-1.1574-1.8319-2.4306-0.5801-1.2732-1.7958-2.3148-2.7013-2.3148-0.90575 0-3.0246-1.5013-4.7085-3.3361s-3.2961-3.1018-3.5826-2.8154c-0.28635 0.28641 0.57346 2.6133 1.9109 5.171 1.3373 2.5576 2.4315 5.2829 2.4315 6.0562 0 0.77326 0.36528 1.4059 0.81189 1.4059 0.44641 0 1.7357 1.9792 2.865 4.3982 3.3748 7.2291 4.1352 8.5649 4.8759 8.5649 0.38864 0 0.70647 0.8298 0.70647 1.844 0 1.0142 0.8333 2.3644 1.8519 3.0005 1.0184 0.63608 1.8518 2.0371 1.8518 3.1134s1.0417 3.0809 2.3148 4.4546c1.2731 1.3738 2.3148 2.9466 2.3148 3.4952 0 0.5486 1.3541 2.5288 3.0091 4.4005 1.6553 1.8717 4.6761 5.451 6.7132 7.9542 6.2501 7.6803 10.205 11.406 12.797 12.057 1.3643 0.34244 2.4806 0.99411 2.4806 1.4482s0.2085 0.82555 0.463 0.82555c0.2547 0 0.463-1.2746 0.463-2.8324zm-431.9-9.4164c0.60245-2.743 2.088-6.0895 3.1942-7.1958 0.25464-0.25462 1.19-1.9213 2.0785-3.7037 2.7035-5.4232 5.1227-9.3846 7.8634-12.876 6.0425-7.6974 6.6174-9.9148 1.9187-7.4002-2.8402 1.52-14.584 14.586-14.617 16.264-0.0118 0.59412-0.45292 1.2241-0.98026 1.3998-1.0145 0.33816-2.4984 11.803-1.9878 15.358 0.40175 2.7971 1.7219 1.834 2.5301-1.8458zm447.7-12.311c-0.8127-2.7233-0.8233-2.7127-0.9018 0.90184-0.052 2.3731 0.237 3.3408 0.8222 2.7556 0.5577-0.55767 0.588-1.9534 0.081-3.6574zm-132.99-80.534c-1.3595-1.7824-2.8391-3.2408-3.2879-3.2408-0.44882 0-0.71182-0.32093-0.58452-0.71319 0.12728-0.39224-0.39355-1.4539-1.1574-2.3593-5.7896-6.8616-8.2468-7.0768-4.5655-0.39977 1.474 2.6736 2.6877 5.5696 2.6969 6.4355 0.0222 2.0708 2.5265 3.4552 6.3139 3.4901l3.0564 0.0281-2.4718-3.2408zm-39.289-56.019c0-0.82386-0.61172-2.3067-1.3594-3.2953-1.3268-1.7542-1.3629-1.7473-1.5047 0.28601-0.22986 3.2984-0.33465 3.7389-1.063 4.4673-0.3775 0.37752-0.19112 1.2832 0.41423 2.0126 0.94431 1.1378 1.272 1.0919 2.3068-0.32326 0.66333-0.90722 1.2061-2.3235 1.2061-3.1474zm61.111-47.275c-3.8195-0.36946-11.612-1.1261-17.317-1.6814-5.7052-0.5553-13.414-1.6102-17.13-2.3442-3.7162-0.73403-10.09-1.5998-14.164-1.9239-4.0741-0.32412-8.6575-0.93693-10.185-1.3618-2.2647-0.62984-11.626-2.1117-20.112-3.1837-0.87647-0.11072-1.8834-0.49115-2.2377-0.8454-0.35423-0.35425-1.6954-0.6441-2.9804-0.6441-3.1557 0-13.117-1.8816-15.411-2.9112-1.0185-0.45706-2.8936-0.78327-4.1667-0.72489-3.3843 0.15517-12.979-1.7057-14.255-2.7648-0.60355-0.50089-4.9349-1.2004-9.6251-1.5545-4.6903-0.35408-8.5278-0.9458-8.5278-1.3149 0-0.63606-2.1179-1.0985-10.648-2.3248-2.0371-0.29284-4.5371-0.89739-5.5556-1.3434-1.0186-0.44605-2.8936-1.0279-4.1667-1.293-10.163-2.1165-24.025-5.3592-25.926-6.0653-1.2731-0.47273-3.9815-1.1289-6.0186-1.4582-2.037-0.32925-5.5787-1.169-7.8704-1.8662-9.0743-2.7604-14.604-4.1568-16.462-4.1568-1.071 0-2.1612-0.34611-2.4226-0.76914-0.4123-0.66707-5.4349-2.0313-12.331-3.3493-1.1269-0.21537-3.4186-1.0044-5.0926-1.7534-1.6741-0.749-4.2872-1.6417-5.807-1.9838-1.5198-0.34206-4.9697-1.6312-7.6664-2.8647s-5.375-2.2427-5.9518-2.2427c-2.2776 0-9.0905-4.8098-9.5565-6.7466-0.70291-2.9216 1.9451-14.567 3.7105-16.318 2.6542-2.6325 42.93-1.3194 52.695 1.7179 1.576 0.49023 8.0738 1.3183 14.44 1.8402 12.139 0.9952 13.192 1.1258 21.336 2.6468 2.7793 0.5191 8.1783 1.429 11.998 2.0221 3.8195 0.59308 8.4028 1.4314 10.185 1.8629 4.1717 1.0099 13.872 2.6165 20.37 3.374 2.801 0.32646 6.1343 1.1048 7.4075 1.7296 1.2731 0.62484 5.188 1.4194 8.6997 1.7655 3.5118 0.34621 7.2001 1.0657 8.1964 1.5989 0.99632 0.53323 3.3315 1.0972 5.1892 1.2532 1.8578 0.15606 4.0028 0.47845 4.7667 0.71642 3.7764 1.1764 10.458 2.5373 12.459 2.5373 1.2358 0 2.5044 0.41667 2.8192 0.92592 0.31473 0.50927 2.3981 0.92594 4.6296 0.92594 2.2316 0 4.315 0.41667 4.6297 0.92593 0.31472 0.50927 1.9438 0.92593 3.6202 0.92593 2.8832 0 7.0602 1.0399 11.195 2.7871 1.0186 0.4304 4.9704 1.2098 8.7818 1.732 3.8115 0.52219 7.0754 1.3857 7.2531 1.9189 0.17779 0.53323 1.4712 0.96951 2.8744 0.96951 1.4033 0 5.8477 1.0047 9.8767 2.2328 11.736 3.5771 24.651 7.1971 28.211 7.9074 1.8113 0.36136 4.6879 1.3527 6.3922 2.2029 1.7044 0.85026 3.6868 1.5459 4.4054 1.5459 2.4986 0 16.316 5.9595 19.011 8.1996 3.5916 2.9852 0.49719 18.462-3.9352 19.683-2.9513 0.81239-20.575 0.7192-29.63-0.15666zm-19.445-20.39c-3.3102-0.98046-9.1436-2.4571-12.963-3.2815-8.0637-1.7404-13.052-2.8837-17.593-4.0319-8.1438-2.0594-14.865-3.3782-16.575-3.2522-1.0266 0.0756-2.0552-0.35418-2.2858-0.95509-0.23056-0.60093-2.4674-1.3352-4.9707-1.6316-4.6367-0.54915-14.179-2.546-23.452-4.9075-2.8343-0.72185-6.376-1.3185-7.8704-1.3259-1.4944-8e-3 -4.592-0.66885-6.8837-1.4698-2.2917-0.801-7.2917-1.823-11.111-2.2712-3.8195-0.44817-8.8195-1.2594-11.111-1.8028-2.2917-0.54336-7.7084-1.4271-12.037-1.9638-4.3287-0.53675-8.7037-1.3492-9.7223-1.8053-1.0185-0.45616-5.8102-1.4329-10.648-2.1705-4.838-0.73762-12.546-1.9782-17.13-2.757-4.5834-0.77872-9.7917-1.6039-11.574-1.8338-1.7824-0.22985-5.4911-0.72454-8.2417-1.0993-3.4304-0.46741-4.8113-0.37458-4.3971 0.29563 0.33208 0.53736 2.7908 1.2576 5.4639 1.6004 5.0812 0.6518 10.218 1.9877 12.949 3.3675 0.88433 0.44675 2.5214 0.81226 3.638 0.81226 1.1165 0 3.5181 0.4518 5.3366 1.004 1.8186 0.5522 4.4865 1.3622 5.9287 1.8001 1.531 0.46483 3.5759 0.43353 4.9141-0.0753 1.2605-0.47925 2.065-0.5043 1.7877-0.0556-0.70284 1.1372 3.6191 2.6553 9.6576 3.3923 2.8009 0.34185 6.4345 1.1739 8.0746 1.849 1.6401 0.67511 5.6972 1.4447 9.0158 1.7101 3.3186 0.26544 6.9051 0.94892 7.97 1.5188 1.0649 0.56994 2.4809 0.82727 3.1466 0.57184 0.66562-0.25543 1.9872 0.0772 2.9369 0.73922 0.94965 0.66199 3.3933 1.4346 5.4304 1.717 3.6919 0.51175 9.2237 1.6236 17.13 3.443 2.2917 0.52737 7.7084 1.4048 12.037 1.9499 4.3287 0.54509 8.7932 1.5744 9.9212 2.2875 1.1279 0.713 3.8363 1.3048 6.0185 1.315 3.702 0.0174 9.4522 0.80588 20.635 2.8296 15.343 2.7766 37.475 6.2057 40.278 6.2407 1.2732 0.0159-0.39346-0.7733-3.7037-1.7538z" fill="#77d3eb" stroke-width=".92593"/></svg>
