<?xml version="1.0" encoding="UTF-8"?>
<svg version="1.1" viewBox="0 0 100 100" xml:space="preserve" xmlns="http://www.w3.org/2000/svg"><circle cx="50" cy="50" r="46" fill="#96ff7e"/><path d="m50 0a50 50 0 0 0-50 50 50 50 0 0 0 50 50 50 50 0 0 0 50-50 50 50 0 0 0-50-50zm0 5a45 45 0 0 1 45 45 45 45 0 0 1-45 45 45 45 0 0 1-45-45 45 45 0 0 1 45-45zm-17 25a3 3 0 0 0-3 3v7a3 3 0 0 0 3 3 3 3 0 0 0 3-3v-7a3 3 0 0 0-3-3zm34 0a3 3 0 0 0-3 3v7a3 3 0 0 0 3 3 3 3 0 0 0 3-3v-7a3 3 0 0 0-3-3zm-26.623 19.004a3 3 0 0 0-2.8379 3.1543c0.34771 6.5977 5.8463 11.826 12.453 11.842a3.0003 3.0003 0 0 0 0.01562 0c6.6068-0.0153 12.105-5.2441 12.453-11.842a3 3 0 0 0-2.8379-3.1543 3 3 0 0 0-3.1543 2.8379c-0.18305 3.4733-2.9917 6.1439-6.4688 6.1562-3.477-0.0123-6.2857-2.683-6.4688-6.1562a3 3 0 0 0-3.1543-2.8379z"/></svg>
