<?xml version="1.0" encoding="UTF-8"?>
<svg version="1.1" viewBox="0 0 100 100" xml:space="preserve" xmlns="http://www.w3.org/2000/svg" xmlns:xlink="http://www.w3.org/1999/xlink"><defs><linearGradient id="linearGradient26571" x1="80.622" x2="79.952" y1="-.35898" y2="-11.519" gradientTransform="rotate(30 .00011215 -1.8662e-5)" gradientUnits="userSpaceOnUse"><stop stop-color="#daf9b3" offset="0"/><stop stop-color="#79d9f5" offset="1"/></linearGradient><linearGradient id="linearGradient26573" x1="36.651" x2="38.481" y1="13.481" y2="6.6506" gradientTransform="rotate(30 .00011215 -1.8662e-5)" gradientUnits="userSpaceOnUse"><stop stop-color="#f6a2ed" offset="0"/><stop stop-color="#fccea7" offset="1"/></linearGradient></defs><circle cx="50" cy="50" r="46" fill="#96ff7e"/><path d="m88 35-8 10 8 10 8-10z" fill="#fcf08e"/><path d="m25 17-11 24 13 3 14-24z" fill="url(#linearGradient26573)"/><path d="m77 17-14 25 15 2 14-25z" fill="url(#linearGradient26571)"/><path d="m50 50-28 3 8 17h40l8-17z" fill="#47995f" style="paint-order:markers fill stroke"/><path d="m50 0c-14.282 0.0157-27.875 6.1378-37.352 16.822-2.5817 0.2692-5.2604 0.66067-8.041 1.2168-1.0829 0.21689-1.7851 1.2705-1.5684 2.3535 0.21689 1.0829 1.2705 1.7851 2.3535 1.5684 0.30274-0.0606 0.59814-0.11129 0.89844-0.16797 0.13965 0.7523 0.37262 1.8666 0.63086 3.0352-4.4957 7.6296-6.8844 16.316-6.9219 25.172 0 27.614 22.386 50 50 50s50-22.386 50-50c-3e-3 -8.9012-2.3827-17.64-6.8926-25.314 0.2406-1.0988 0.46846-2.1756 0.60156-2.8926 0.3003 0.0567 0.5957 0.10742 0.89844 0.16797 1.083 0.21672 2.1366-0.48542 2.3535-1.5684 0.21672-1.083-0.48542-2.1366-1.5684-2.3535-2.7644-0.55288-5.4282-0.9418-7.9961-1.2109-9.486-10.698-23.098-16.824-37.396-16.828zm0 5c11.019 3e-3 21.654 4.0479 29.889 11.369-0.69698-0.0108-1.3852-0.014-2.0625-8e-3 -5.2829 0.048-9.9594 0.59121-13.926 1.2949s-7.2271 1.5678-9.6562 2.2461c-1.2146 0.33914-2.2249 0.63094-2.9805 0.82813-0.7556 0.19738-1.3331 0.26972-1.2637 0.26972 0.0694 0-0.50807-0.0723-1.2637-0.26953-0.7556-0.19719-1.7659-0.48899-2.9805-0.82813-2.4292-0.67827-5.6899-1.5424-9.6562-2.2461s-8.6428-1.247-13.926-1.2949c-0.61481-6e-3 -1.24-2e-3 -1.8711 6e-3 8.1859-7.277 18.745-11.319 29.697-11.367zm27.975 13.363c3.7536-0.0275 7.8482 0.24469 12.201 0.8711l-13.365 23.146c-4.1377 0.54583-8.5156 0.39483-12.238-0.80469zm-50.154 0.26563c4.1304 0.34044 7.9347 0.92079 11.689 1.7578l-12.867 22.287c-3.961-0.52316-8.1622-0.46664-11.209-2.5898zm22.18 7.5898c0.59944 0 1.1989 0.15055 1.8613 0.45313 0.39865 1.4071 0.93903 3.1248 1.6523 4.9355 1.6996 4.3143 4.185 9.2958 8.6992 11.23 5.345 2.2907 11.968 2.2913 17.727 1.0469-0.0815 0.068-0.14753 0.11815-0.18359 0.14257 0.03986-0.01372 0.10875-0.02734 0.24414-0.02734-1.3146 0.0186-1.3146 1.9814 0 2-0.13539 0-0.20428-0.0136-0.24414-0.0273 0.0434 0.0294 0.11558 0.081 0.2207 0.17187 0.23845 0.20601 0.57912 0.54316 0.96289 0.95703 0.76755 0.82775 1.7249 1.9703 2.6504 3.1426 0.92552 1.1723 1.8221 2.38 2.4746 3.3359 0.32625 0.47799 0.59168 0.89474 0.76172 1.1953 0.085 0.15029 0.14737 0.27318 0.17578 0.33984 0.0284 0.0667-2e-3 0.11394-2e-3 -0.11523 0.0186 1.3146 1.9814 1.3146 2 0 0 0.22917-0.0303 0.1819-2e-3 0.11523 0.0284-0.0667 0.0908-0.18955 0.17578-0.33984 0.17004-0.30057 0.43547-0.71732 0.76172-1.1953 0.65249-0.95598 1.5491-2.1636 2.4746-3.3359 0.83253-1.0546 1.6835-2.0722 2.4062-2.8711 0.0868 0.87367 0.14803 1.7497 0.18359 2.627 0 24.853-20.147 45-45 45s-45-20.147-45-45c0.045-6.1889 1.3662-12.302 3.8809-17.957 0.67127 2.0198 1.464 4.0259 2.4258 5.7891 1.2348 2.2638 2.7067 4.2799 5.0606 5.0644 6.4311 2.1437 14.888 2.7406 21.42-0.0586 4.5142-1.9347 6.9996-6.9161 8.6992-11.23 0.71331-1.8107 1.2537-3.5284 1.6523-4.9355 0.66246-0.30258 1.2619-0.45313 1.8613-0.45313zm41.178 5.6426c1.3766 3.2098 2.3749 6.569 2.9746 10.01-0.55694-0.64775-1.1541-1.3703-1.7422-2.1152-0.92552-1.1723-1.8221-2.38-2.4746-3.3359-0.1224-0.17933-0.22663-0.33887-0.33008-0.49804 0.58536-1.3064 1.1162-2.6722 1.5723-4.0606zm-3.1777 5.2422c0.10177 0.15541 0.16831 0.27698 0.2832 0.44531 0.69126 1.0128 1.6072 2.2426 2.5566 3.4453 0.94949 1.2027 1.9297 2.3727 2.7559 3.2637 0.27625 0.29791 0.50721 0.51182 0.74805 0.74219-0.24084 0.23037-0.4718 0.44428-0.74805 0.74219-0.8262 0.891-1.8064 2.061-2.7559 3.2637-0.94948 1.2027-1.8654 2.4325-2.5566 3.4453-0.11489 0.16833-0.18143 0.2899-0.2832 0.44531-0.10177-0.15541-0.16831-0.27698-0.2832-0.44531-0.69126-1.0128-1.6072-2.2426-2.5566-3.4453-0.94949-1.2027-1.9297-2.3727-2.7559-3.2637-0.27625-0.29791-0.50721-0.51182-0.74805-0.74219 0.24084-0.23037 0.4718-0.44428 0.74805-0.74219 0.8262-0.891 1.8064-2.061 2.7559-3.2637 0.94948-1.2027 1.8654-2.4326 2.5566-3.4453 0.11489-0.16833 0.18143-0.2899 0.2832-0.44531zm-38.002 10.896c-10.114 7e-3 -19.838 0.95024-27.404 2.6894-0.92297 0.21166-1.571 1.0415-1.5527 1.9883 0.33075 17.259 13.1 31.299 28.957 31.322h4e-3c15.867-0.0218 28.641-14.079 28.959-31.35 0.0172-0.94661-0.63167-1.7756-1.5547-1.9863-7.5807-1.7294-17.306-2.664-27.406-2.6641zm2e-3 4h2e-3c9.1516 2.1e-4 17.826 0.86981 24.775 2.293-0.30535 4.1599-1.4084 8.0444-3.1289 11.473-5.2068-3.6354-13.191-5.7618-21.649-5.7656-8.4596 0.0113-16.439 2.1457-21.635 5.7871-1.7233-3.4271-2.8301-7.3108-3.1387-11.471 6.9355-1.4309 15.611-2.3097 24.773-2.3164z"/></svg>
