<?xml version="1.0" encoding="UTF-8"?>
<svg version="1.1" viewBox="0 0 100 100" xml:space="preserve" xmlns="http://www.w3.org/2000/svg"><circle cx="50" cy="50" r="46" fill="#ff8a7c"/><path d="m50 0a50 50 0 0 0-50 50 50 50 0 0 0 50 50 50 50 0 0 0 50-50 50 50 0 0 0-50-50zm0 5a45 45 0 0 1 45 45 45 45 0 0 1-45 45 45 45 0 0 1-45-45 45 45 0 0 1 45-45zm-12.938 15a3 3 0 0 0-2.9727 2.2715c-0.51492 2.0597-4.2898 4.7285-8.0898 4.7285a3 3 0 0 0-3 3 3 3 0 0 0 3 3c6.2 0 12.425-3.3312 13.91-9.2715a3 3 0 0 0-2.1816-3.6387 3 3 0 0 0-0.66602-0.089844zm25.875 0a3 3 0 0 0-0.66602 0.08984 3 3 0 0 0-2.1816 3.6387c1.4851 5.9403 7.7102 9.2715 13.91 9.2715a3 3 0 0 0 3-3 3 3 0 0 0-3-3c-3.8 0-7.5749-2.6688-8.0898-4.7285a3 3 0 0 0-2.9727-2.2715zm-35.785 16.004a3 3 0 0 0-2.7852 1.5586 3 3 0 0 0 1.1953 4.0703l5.7246 3.123-5.5293 2.5137a3 3 0 0 0-1.4883 3.9727 3 3 0 0 0 3.9727 1.4883l11-5a3.0003 3.0003 0 0 0 0.19531-5.3633l-11-6a3 3 0 0 0-1.2852-0.36328zm46.115 0.0078a3 3 0 0 0-1.7051 0.35547l-11 6a3.0003 3.0003 0 0 0 0.19531 5.3633l11 5a3 3 0 0 0 3.9727-1.4883 3 3 0 0 0-1.4883-3.9727l-5.5293-2.5137 5.7246-3.123a3 3 0 0 0 1.1953-4.0703 3 3 0 0 0-1.7871-1.4414 3 3 0 0 0-0.57812-0.10938zm-23.271 16.988c-5.2907 0.0071-10.234 1.1269-14.273 3.1426-4.0397 2.0157-7.2943 4.9759-8.6094 8.9043a3 3 0 0 0 1.8926 3.7988 3 3 0 0 0 3.7988-1.8926c0.62983-1.8815 2.5342-3.9148 5.5976-5.4434 3.0625-1.5281 7.1653-2.5033 11.598-2.5098 4.4406 7.58e-4 8.5544 0.97474 11.625 2.5039 3.0706 1.5292 4.9786 3.5648 5.6094 5.4492a3 3 0 0 0 3.7988 1.8926 3 3 0 0 0 1.8926-3.7988c-1.317-3.9342-4.5793-6.8983-8.627-8.9141-4.0477-2.0158-9.0002-3.1319-14.299-3.1328a3.0003 3.0003 0 0 0-0.0039 0z"/></svg>
