<?xml version="1.0" encoding="UTF-8"?>
<svg version="1.1" viewBox="0 0 100 100" xml:space="preserve" xmlns="http://www.w3.org/2000/svg"><circle cx="50" cy="50" r="46" fill="#ffb0a6"/><path d="m50 0a50 50 0 0 0-50 50 50 50 0 0 0 50 50 50 50 0 0 0 50-50 50 50 0 0 0-50-50zm0 5a45 45 0 0 1 45 45 45 45 0 0 1-45 45 45 45 0 0 1-45-45 45 45 0 0 1 45-45zm-17 25a3 3 0 0 0-3 3v7a3 3 0 0 0 3 3 3 3 0 0 0 3-3v-7a3 3 0 0 0-3-3zm34 0a3 3 0 0 0-3 3v7a3 3 0 0 0 3 3 3 3 0 0 0 3-3v-7a3 3 0 0 0-3-3zm-17.004 19c-7.5942 9e-3 -14.64 2.9234-17.449 8.6856a3 3 0 0 0 1.3828 4.0117 3 3 0 0 0 4.0117-1.3828c1.2457-2.5556 6.1387-5.3062 12.059-5.3144 5.9308 7e-4 10.838 2.7545 12.086 5.3144a3 3 0 0 0 4.0117 1.3828 3 3 0 0 0 1.3828-4.0117c-2.813-5.7707-9.8752-8.6846-17.48-8.6856a3.0003 3.0003 0 0 0-0.0039 0z"/></svg>
