<?xml version="1.0" encoding="UTF-8"?>
<svg version="1.1" viewBox="0 0 100 100" xml:space="preserve" xmlns="http://www.w3.org/2000/svg"><circle cx="50" cy="50" r="46" fill="#96ff7e"/><path d="m50 50-28 3 8 17h40l8-17z" fill="#47995f"/><path d="m50 0a50 50 0 0 0-50 50 50 50 0 0 0 50 50 50 50 0 0 0 50-50 50 50 0 0 0-50-50zm0 5a45 45 0 0 1 45 45 45 45 0 0 1-45 45 45 45 0 0 1-45-45 45 45 0 0 1 45-45zm-22.848 21.004a3 3 0 0 0-2.7852 1.5586 3 3 0 0 0 1.1953 4.0703l5.7246 3.123-5.5293 2.5137a3 3 0 0 0-1.4883 3.9727 3 3 0 0 0 3.9727 1.4883l11-5a3.0003 3.0003 0 0 0 0.19531-5.3633l-11-6a3 3 0 0 0-1.2852-0.36328zm46.115 8e-3a3 3 0 0 0-1.7051 0.35547l-11 6a3.0003 3.0003 0 0 0 0.19531 5.3633l11 5a3 3 0 0 0 3.9727-1.4883 3 3 0 0 0-1.4883-3.9727l-5.5293-2.5137 5.7246-3.123a3 3 0 0 0 1.1953-4.0703 3 3 0 0 0-1.7871-1.4414 3 3 0 0 0-0.57812-0.10937zm-23.27 21.988c-10.114 7e-3 -19.838 0.95024-27.404 2.6894a2.0002 2.0002 0 0 0-1.5527 1.9883c0.33075 17.259 13.1 31.299 28.957 31.322a2.0002 2.0002 0 0 0 0.0039 0c15.867-0.0218 28.641-14.079 28.959-31.35a2.0002 2.0002 0 0 0-1.5547-1.9863c-7.5807-1.7294-17.306-2.664-27.406-2.6641a2.0002 2.0002 0 0 0-0.0019 0zm0.00195 4h2e-3c9.1516 2.1e-4 17.826 0.86981 24.775 2.293-0.30535 4.1599-1.4084 8.0443-3.1289 11.473a27.5 15 0 0 0-21.648-5.7656 27.5 15 0 0 0-21.635 5.7871c-1.7233-3.4271-2.8301-7.3108-3.1387-11.471 6.9355-1.4309 15.611-2.3097 24.773-2.3164z"/></svg>
