<?xml version="1.0" encoding="UTF-8"?>
<svg version="1.1" viewBox="0 0 100 100" xml:space="preserve" xmlns="http://www.w3.org/2000/svg"><circle cx="50" cy="50" r="46" fill="#fff255"/><path d="m50 0a50 50 0 0 0-50 50 50 50 0 0 0 50 50 50 50 0 0 0 50-50 50 50 0 0 0-50-50zm0 5a45 45 0 0 1 45 45 45 45 0 0 1-45 45 45 45 0 0 1-45-45 45 45 0 0 1 45-45zm-17 25a3 3 0 0 0-3 3v7a3 3 0 0 0 3 3 3 3 0 0 0 3-3v-7a3 3 0 0 0-3-3zm34 0a3 3 0 0 0-3 3v7a3 3 0 0 0 3 3 3 3 0 0 0 3-3v-7a3 3 0 0 0-3-3zm-26 24a3 3 0 0 0-3 3 3 3 0 0 0 3 3h18a3 3 0 0 0 3-3 3 3 0 0 0-3-3z"/></svg>
