<?xml version="1.0" encoding="UTF-8"?>
<svg version="1.1" viewBox="0 0 360 120" xml:space="preserve" xmlns="http://www.w3.org/2000/svg"><path d="m5 5v110h110v-110h-110zm120 0v110h230v-110h-230z" fill="#fff"/><path d="m10 0c-5.54 0-10 4.46-10 10v100c0 5.54 4.46 10 10 10h100c5.54 0 10-4.46 10-10 0 5.54 4.46 10 10 10h220c5.54 0 10-4.46 10-10v-100c0-5.54-4.46-10-10-10h-220c-5.54 0-10 4.46-10 10 0-5.54-4.46-10-10-10zm50 7.0293 8.4844 8.4863c10.02 10.02 14.688 10.622 25.369 8.6797l14.146-2.5742v44.379c0 16.42-9.3263 28.984-19.139 36.518-9.8124 7.5333-19.058 11.482-28.861 11.482-9.8221 0-18.87-3.9519-28.707-11.463-9.8373-7.511-19.293-20.059-19.293-36.537v-44.379l14.146 2.5742c10.681 1.942 15.349 1.3404 25.369-8.6797zm218.97 22.377c1.2194 0 2.1578 0.42969 2.8144 1.2871 0.41273 0.55732 0.61914 1.2421 0.61914 2.0566v5.2734l9.3984-0.74024h0.22461c1.6884 0 2.5332 0.99674 2.5332 2.9902 0 2.0578-0.82567 3.1507-2.4766 3.2793l-9.6797 0.70899v6.3652l8.0195-0.61133 0.22461-0.0312c0.82545-0.0429 1.4829 0.28872 1.9707 0.99609 0.33768 0.49301 0.50586 1.1582 0.50586 1.9941 0 1.9721-0.82568 3.0218-2.4766 3.1504l-22.371 1.7695-0.25391 0.0312c-0.6566 0.0429-1.2376-0.19258-1.7441-0.70703-0.50652-0.55732-0.75976-1.3068-0.75976-2.25 0-2.0364 0.82567-3.1194 2.4766-3.248l7.4844-0.57812v-6.3672l-8.4141 0.61133c-0.95676 0.0643-1.6782-0.28887-2.166-1.0606-0.37521-0.60019-0.5625-1.3399-0.5625-2.2188 0-1.7577 0.83425-2.7015 2.5039-2.8301l8.6387-0.70703v-5.8203c0-1.329 0.5256-2.2826 1.5762-2.8613 0.58156-0.32153 1.2199-0.48242 1.9141-0.48242zm-104.15 0.0645c0.61909 0 1.2001 0.19229 1.7442 0.57813 1.013 0.70737 1.5195 1.6609 1.5195 2.8613 0 1.5005-1.4449 4.7497-4.334 9.7441l0.78907-0.0977c0.43148-0.0429 0.73154-0.0645 0.90039-0.0645 2.6076 0 3.9102 1.4696 3.9102 4.4062 0 0.34296-9e-3 0.67456-0.0273 0.99609l-1.4629 16.783c-0.16884 1.9935-1.0605 2.9902-2.6738 2.9902-1.4633 0-2.4294-0.6004-2.8984-1.8008l-4.4473 0.38672v3.9863l12.045-0.67382c1.8385-0.10718 2.7578 0.95235 2.7578 3.1816 0 2.2078-0.80655 3.3655-2.4199 3.4726l-12.383 0.67578v9.9668c0 0.79311-0.20642 1.4681-0.61914 2.0254-0.60033 0.81455-1.4537 1.2227-2.5606 1.2227-1.3695 0-2.3251-0.56705-2.8691-1.7031-0.22512-0.45014-0.33789-0.96616-0.33789-1.5449v-9.6132l-10.666 0.61133h-0.14062c-0.71289 0-1.2939-0.2688-1.7441-0.80469-0.50653-0.60019-0.75977-1.4243-0.75977-2.4746 0-2.165 0.80655-3.2912 2.4199-3.377l10.891-0.61133v-3.8262l-4.0527 0.35351c-0.43148 1.1146-1.3508 1.6719-2.7578 1.6719-1.6884 0-2.6077-0.86725-2.7578-2.6035l-1.5469-19.035c-0.0188-0.15005-0.0293-0.27759-0.0293-0.38477 0-2.0578 1.0598-3.0879 3.1797-3.0879 0.90049 0 1.5962 0.3002 2.084 0.90039l12.691-1.3496 0.19532-0.45117c1.2194-2.9152 2.3089-6.29 3.2656-10.127 0.54405-2.1221 1.5761-3.1836 3.0957-3.1836zm-13.648 0.44922c0.90048 0 1.9497 0.8692 3.1504 2.6055 1.9886 2.8724 2.9844 5.1013 2.9844 6.6875 0 1.2432-0.4979 2.1752-1.4922 2.7969-0.52529 0.34296-1.07 0.51562-1.6328 0.51562-1.3507 0-2.3063-0.94376-2.8691-2.8301-0.76916-2.658-1.4161-4.6417-1.9414-5.9492-0.22513-0.55732-0.33789-1.0596-0.33789-1.5098 0-0.90029 0.31918-1.5556 0.95703-1.9629 0.35644-0.23579 0.75015-0.35352 1.1816-0.35352zm98.406 0.12891c1.1068 0 1.9688 0.39634 2.5879 1.1894 0.41272 0.55732 0.61914 1.2323 0.61914 2.0254v24.76c0 0.83598-0.22359 1.5325-0.67383 2.0898-0.60032 0.72881-1.4556 1.0918-2.5625 1.0918-1.4633 0-2.4571-0.57882-2.9824-1.7363-0.1876-0.40727-0.28125-0.88799-0.28125-1.4453v-5.1133c-4.1648 3.2367-6.9781 4.8555-8.4414 4.8555-1.1631 0-2.027-0.62198-2.5898-1.8652-0.30016-0.64306-0.44922-1.265-0.44922-1.8652 0-1.6291 1.0407-2.8181 3.123-3.5684 2.4013-0.87885 5.187-2.1758 8.3574-3.8906v-13.312c0-1.2432 0.4702-2.1419 1.4082-2.6992 0.56281-0.34296 1.1906-0.51562 1.8848-0.51562zm-45.812 1.0625c1.0881 0 1.9797 0.35318 2.6738 1.0606 0.6566 0.68593 0.98437 1.5865 0.98437 2.7012 0 1.3076-0.43196 4.7039-1.2949 10.191l11.004-0.93164c0.31893-0.0214 0.69352-0.0332 1.125-0.0332 3.7896 0 5.6836 2.1544 5.6836 6.4629 0 1.2647-0.27041 4.4158-0.81445 9.4531-1.2382 11.275-2.8064 19.227-4.7012 23.857-1.332 3.2796-3.4238 4.9199-6.2754 4.9199-2.0073 0-4.7739-1.0066-8.3008-3.0215-2.9453-1.672-4.418-3.12-4.418-4.3418 0-0.68594 0.20642-1.2863 0.61914-1.8008 0.41273-0.53589 0.98516-0.80274 1.7168-0.80274 0.48776 0 1.1261 0.13931 1.9141 0.41797 2.5889 0.92172 4.3702 1.3828 5.3457 1.3828 1.2006 0 2.12-0.68672 2.7578-2.0586 0.88172-1.9506 1.7351-5.3274 2.5606-10.129 0.6566-3.7083 1.2482-8.3369 1.7734-13.889 0.0375-0.34297 0.0566-0.62158 0.0566-0.83594 0-1.2432-0.68519-1.8005-2.0547-1.6719l-9.5957 0.83594c-1.8572 7.8239-4.5302 14.446-8.0195 19.869-3.283 5.1016-7.0922 9.2612-11.426 12.477-0.78792 0.60019-1.5285 0.90039-2.2227 0.90039-0.86296 0-1.5844-0.43951-2.166-1.3184-0.31892-0.51445-0.47852-1.0834-0.47852-1.7051 0-0.81454 0.30007-1.5641 0.90039-2.25 0.11256-0.15005 0.66587-0.6857 1.6602-1.6074 4.9714-4.63 8.9574-11.168 11.959-19.613 0.67537-1.9506 1.286-3.9657 1.8301-6.0449l-11.539 1.0293h-0.30859c-0.90049 0-1.6239-0.37671-2.168-1.127-0.48777-0.68593-0.73047-1.565-0.73047-2.6367 0-2.5079 0.93844-3.8461 2.8144-4.0176l13.676-1.127c0.67537-3.8798 1.1245-7.3841 1.3496-10.514 0.1876-2.7223 1.558-4.082 4.1094-4.082zm-61.318 0.32031c1.013 0 2.2793 1.1478 3.7988 3.4414 1.6884 2.5079 2.5332 4.3504 2.5332 5.5293 0 1.0075-0.3746 1.8217-1.125 2.4434-0.61908 0.51445-1.2852 0.77149-1.998 0.77149-1.3132 0-2.2708-0.94181-2.8711-2.8281-0.5628-1.8434-1.2289-3.6015-1.998-5.2734-0.31892-0.66449-0.47851-1.2649-0.47851-1.8008 0-0.68593 0.24465-1.2549 0.73242-1.7051 0.41272-0.38584 0.88096-0.57813 1.4062-0.57813zm-8.0195 2.2188c2.5889 0 3.8828 1.3401 3.8828 4.0195 0 0.57876-0.064 1.2439-0.19531 1.9941l-1.2676 7.4258c0.61908 0.6645 0.92969 1.5337 0.92969 2.6055 0 1.8649-0.78939 2.893-2.3652 3.0859l-7.541 0.83594c-0.41273 2.3365-0.75962 3.9552-1.041 4.8555-0.075 0.27866-0.11328 0.49253-0.11328 0.64257 0 0.51445 0.35743 0.79307 1.0703 0.83594h0.42188l4.8965-0.54687c0.26264-0.0214 0.60953-0.0312 1.041-0.0312 1.4633 0 2.504 0.44932 3.123 1.3496 0.54405 0.81454 0.81641 2.0801 0.81641 3.7949 0 4.5229-0.67466 9.6361-2.0254 15.338-0.6566 2.7652-1.295 4.7253-1.9141 5.8828-0.95677 1.822-2.308 2.7324-4.0527 2.7324-1.5383 0-3.8729-0.98497-7.0059-2.957-1.4258-0.90029-2.1387-1.844-2.1387-2.8301 0-1.5005 0.62784-2.25 1.8848-2.25 0.39396 0 0.89186 0.11773 1.4922 0.35352 1.0881 0.40727 2.0819 0.61133 2.9824 0.61133 0.86296 0 1.4736-0.41793 1.8301-1.2539 0.37521-0.85742 0.80521-2.3152 1.293-4.373 0.82545-3.4511 1.2383-6.249 1.2383-8.3926 0-1.0289-0.42142-1.543-1.2656-1.543-0.13132 0-0.29092 0.01-0.47852 0.0312l-5.459 0.74023c-0.3752 0.0429-0.68581 0.0645-0.92969 0.0645-2.1386 0-3.207-1.0497-3.207-3.1504 0-0.60019 0.15959-1.5126 0.47852-2.7344 0.71288-2.7866 1.1725-5.1647 1.3789-7.1367-0.71288-0.53588-1.0703-1.3835-1.0703-2.541 0-2.0578 0.78938-3.1723 2.3652-3.3438l7.6524-0.83593 0.75976-4.8867c0.0188-0.12861 0.0293-0.31109 0.0293-0.54688 0-0.70736-0.33831-1.0605-1.0137-1.0605-0.0938 0-0.18745 0.01-0.28125 0.0312l-7.541 0.83593c-0.16884 0.0214-0.32843 0.0332-0.47851 0.0332-1.7447 0-2.6172-1.1576-2.6172-3.4727 0-1.8863 0.77885-2.9164 2.3359-3.0879l11.424-1.0918c0.13132-0.0214 0.35685-0.0332 0.67578-0.0332zm200.11 0.12891c3.6395 0 5.459 2.0366 5.459 6.1094 0 0.27866-0.0191 0.66324-0.0566 1.1562l-1.9688 25.691c-0.16884 2.2293-1.3328 3.3438-3.4902 3.3438-2.2325 0-3.3945-1.0615-3.4883-3.1836l-9.0332 0.54688v18.842c0 0.85741-0.22554 1.5854-0.67578 2.1855-0.69413 0.87885-1.6517 1.3184-2.8711 1.3184-1.5758 0-2.6548-0.64161-3.2363-1.9277-0.20636-0.45015-0.3086-0.97598-0.3086-1.5762v-18.391l-8.1328 0.48047c-0.0375 0.94316-0.33759 1.6829-0.90039 2.2188-0.67536 0.62163-1.5564 0.93359-2.6445 0.93359-2.1011 0-3.246-1.0517-3.4336-3.1523l-2.4199-29.74v-0.45118c0-1.2861 0.47878-2.2495 1.4356-2.8926 0.60032-0.38584 1.3132-0.58008 2.1387-0.58008 1.6134 0 2.7009 0.57881 3.2637 1.7363l29.49-2.6367c0.1876-0.0214 0.47908-0.0312 0.87305-0.0312zm-95.902 0.90039c1.013 0 2.543 0.79268 4.5879 2.3789 1.7822 1.3504 2.6719 2.7435 2.6719 4.1797 0 0.81455-0.30865 1.6072-0.92774 2.3789-0.60032 0.7288-1.36 1.0938-2.2793 1.0938-0.88173 0-1.6032-0.49249-2.166-1.4785-0.69412-1.2432-1.6517-2.5402-2.8711-3.8906-0.76917-0.85742-1.1543-1.6501-1.1543-2.3789 0-0.47158 0.14047-0.92285 0.42188-1.3516 0.39396-0.62163 0.96639-0.93164 1.7168-0.93164zm-188.64 4.7656c-7.6349 5.242-15.803 8.0994-24 8.8906v17.664c0 7.5222 3.9782 12.974 9.8574 17.463 5.8793 4.489 14.831 6.5371 14.143 6.5371-0.32509 0 8.43-2.0509 14.248-6.5176 5.818-4.4666 9.752-9.9027 9.752-17.482v-17.664c-8.1967-0.79125-16.365-3.6486-24-8.8906zm281.11 1.0547c-0.0563 0-0.16905 0.01-0.33789 0.0312l-8.9199 0.80469v6.3652l10.496-0.86719 0.28125-4.2773v-0.32031c0-1.1575-0.50648-1.7363-1.5195-1.7363zm-16.123 1.4785-10.104 0.93164 0.45117 6.1094 9.6524-0.77148zm-153.11 6.3652-4.3613 0.45117v3.4082l5.4297-0.48242 0.14062-2.123c0.0188-0.0643 0.0293-0.1271 0.0293-0.19141 0.0563-0.70737-0.27345-1.0625-0.98633-1.0625zm-10.131 1.0293-5.291 0.51562 0.25391 3.3106 5.0371-0.44922zm180.15 4.0508-10.047 0.77344v6.8476l9.5684-0.61133zm-16.912 1.2871-9.1738 0.70703 0.47851 6.5918 8.6953-0.54688zm-152.38 2.3144-5.0918 0.45117v3.5684l4.8398-0.38672zm-10.861 0.99805-4.6426 0.41797 0.22461 3.375 4.418-0.35352zm109.21 0.16015c2.2887 0 3.4316 1.0713 3.4316 3.2148v1.125l17.223-1.125c0.43148-0.0214 0.83378 0.0433 1.209 0.19336 1.0881 0.45014 1.6328 1.3723 1.6328 2.7656 0 1.2433-0.38513 2.1635-1.1543 2.7637-0.37521 0.27866-0.79663 0.42974-1.2656 0.45118l-20.627 1.4141c-0.0938 0.81454-0.44069 1.5111-1.041 2.0898-1.1631 1.0718-3.0486 2.508-5.6562 4.3086v7.6855c1.6509-0.38583 3.9578-1.2001 6.9219-2.4434 0.76916-0.32153 1.4075-0.48242 1.9141-0.48242 0.8442 0 1.4912 0.37476 1.9414 1.125 0.24388 0.42871 0.36718 0.9212 0.36718 1.4785 0 1.0075-0.47878 1.8119-1.4355 2.4121-3.283 1.972-6.6794 3.5574-10.188 4.7578-1.3132 0.45014-2.2794 0.67578-2.8984 0.67578-0.69413 0-1.4262-0.44932-2.1953-1.3496-0.65661-0.77167-0.98438-1.8018-0.98438-3.0879v-6.9453c-5.8532 2.8938-9.4454 4.3418-10.777 4.3418-1.5008 0-2.252-0.93394-2.252-2.7988 0-0.77168 0.29149-1.4035 0.87305-1.8965 0.31892-0.25722 1.1809-0.67515 2.5879-1.2539 3.6019-1.5005 8.19-4.1787 13.762-8.0371l-12.438 0.83593-0.22656 0.0312c-0.67537 0.0429-1.265-0.19258-1.7715-0.70703-0.54404-0.55732-0.8164-1.3284-0.8164-2.3144 0-2.0578 0.82567-3.1409 2.4766-3.248l17.896-1.1894v-1.5762c0-2.1435 1.164-3.2148 3.4902-3.2148zm16.855 10.096c0.99428 0 1.8094 0.4395 2.4473 1.3184 0.56281 0.81454 0.84571 1.6818 0.84571 2.6035 0 1.0289-0.42338 1.8549-1.2676 2.4766-1.6884 1.2433-3.5739 2.4107-5.6562 3.5039 3.7333 2.0578 7.6447 3.7628 11.734 5.1133 1.407 0.47158 2.1113 1.0818 2.1113 1.832 0 0.68594-0.6852 1.2549-2.0547 1.7051-3.1705 1.0503-5.3646 1.5762-6.584 1.5762-0.69413 0-1.5666-0.31196-2.6172-0.93359-6.0408-3.6012-10.918-7.545-14.633-11.832-1.0506-1.2004-1.5762-2.1971-1.5762-2.9902 0-0.70736 0.2427-1.3078 0.73047-1.8008 0.45024-0.42871 0.92044-0.64258 1.4082-0.64258 0.54404 0 1.1165 0.23546 1.7168 0.70704 0.1876 0.15004 0.77719 0.69746 1.7715 1.6406 0.86297 0.79311 1.9887 1.6918 3.377 2.6992 1.4258-1.2218 3.2941-3.076 5.6016-5.5625 0.86296-0.94316 1.744-1.4141 2.6445-1.4141z" fill="#8f4aa3"/></svg>
