<?xml version="1.0" encoding="UTF-8"?>
<svg version="1.1" viewBox="0 0 360 120" xml:space="preserve" xmlns="http://www.w3.org/2000/svg"><path d="m5 5v110h110v-110h-110zm120 0v110h230v-110h-230z" fill="#fff"/><path d="m10 0c-5.54 0-10 4.46-10 10v100c0 5.54 4.46 10 10 10h100c5.54 0 10-4.46 10-10 0 5.54 4.46 10 10 10h220c5.54 0 10-4.46 10-10v-100c0-5.54-4.46-10-10-10h-220c-5.54 0-10 4.46-10 10 0-5.54-4.46-10-10-10zm50 7.0293 8.4844 8.4863c10.02 10.02 14.688 10.622 25.369 8.6797l14.146-2.5742v44.379c0 16.42-9.3263 28.984-19.139 36.518-9.8124 7.5333-19.058 11.482-28.861 11.482-9.8221 0-18.87-3.9519-28.707-11.463-9.8373-7.511-19.293-20.059-19.293-36.537v-44.379l14.146 2.5742c10.681 1.942 15.349 1.3404 25.369-8.6797zm192.35 22.377c1.3933 0 2.4646 0.42969 3.2148 1.2871 0.47158 0.55732 0.70703 1.2421 0.70703 2.0566v5.2734l10.738-0.74024h0.25781c1.9292 0 2.8945 0.99674 2.8945 2.9902 0 2.0578-0.94377 3.1507-2.8301 3.2793l-11.061 0.70898v6.3652l9.1641-0.61133 0.25586-0.03125c0.94316-0.04287 1.6946 0.28873 2.252 0.99609 0.38583 0.49301 0.57812 1.1582 0.57812 1.9941 0 1.9721-0.94376 3.0218-2.8301 3.1504l-25.561 1.7695-0.28907 0.03125c-0.75024 0.04287-1.4154-0.19258-1.9941-0.70703-0.57875-0.55732-0.86718-1.3068-0.86718-2.25 0-2.0364 0.94181-3.1194 2.8281-3.248l8.5527-0.57812v-6.3672l-9.6133 0.61133c-1.0932 0.06431-1.9192-0.28887-2.4766-1.0605-0.42871-0.60019-0.64258-1.3399-0.64258-2.2188 0-1.7577 0.95358-2.7015 2.8613-2.8301l9.8711-0.70703v-5.8203c0-1.329 0.60039-2.2826 1.8008-2.8613 0.66449-0.32153 1.3944-0.48242 2.1875-0.48242zm-22.154 0.64258c1.2647 0 2.2497 0.39634 2.957 1.1895 0.47158 0.55732 0.70899 1.2342 0.70899 2.0273v24.758c0 0.83598-0.25704 1.5325-0.77149 2.0898-0.68593 0.7288-1.663 1.0918-2.9277 1.0918-1.672 0-2.808-0.57882-3.4082-1.7363-0.21435-0.40727-0.32031-0.88799-0.32031-1.4453v-5.1133c-4.7587 3.2367-7.9745 4.8555-9.6465 4.8555-1.329 0-2.314-0.62198-2.957-1.8652-0.34296-0.64306-0.51562-1.265-0.51562-1.8652 0-1.6291 1.191-2.8181 3.5703-3.5684 2.7437-0.87885 5.9262-2.1758 9.5488-3.8906v-13.311c0-1.2433 0.53565-2.1439 1.6074-2.7012 0.64306-0.34297 1.3612-0.51562 2.1543-0.51562zm-68.357 0.45117c1.3933 0 2.39 0.49249 2.9902 1.4785 0.25723 0.42871 0.38477 0.93296 0.38477 1.5117v3.7285l6.7852-0.51367c0.77168-0.06431 1.4368 0.11817 1.9941 0.54688 0.75024 0.57876 1.125 1.4578 1.125 2.6367 0 1.7791-0.89078 2.7327-2.6699 2.8613l-7.2344 0.61133v3.1504l4.4707-0.38672c0.45014-0.04287 0.76016-0.0625 0.93164-0.0625 2.9152 0 4.373 1.3931 4.373 4.1797 0 0.40727-0.01 0.71729-0.0312 0.93164l-1.1914 14.822c-0.12861 1.7577-1.1136 2.6367-2.957 2.6367-1.329 0-2.1982-0.46109-2.6055-1.3828l-3.0527 0.19336v3.7617l8.6797-0.57812 0.25782-0.0332c0.81454-0.04287 1.5228 0.23575 2.123 0.83594 0.53589 0.57876 0.80274 1.3734 0.80274 2.3809 0 2.0578-0.87902 3.1389-2.6367 3.2461l-9.2266 0.61133v9.1309c0 0.85742-0.31197 1.5755-0.9336 2.1543-0.64306 0.60019-1.4573 0.90039-2.4434 0.90039-1.3719 0-2.3784-0.51407-3.0215-1.543-0.25722-0.42871-0.38672-0.93296-0.38672-1.5117v-8.7129l-8.7461 0.54687-0.28907 0.03125c-1.1575 0.06431-1.9934-0.49293-2.5078-1.6719-0.21435-0.51445-0.32226-1.0933-0.32226-1.7363 0-1.8863 0.85743-2.8831 2.5723-2.9902l9.293-0.60938v-3.7617l-2.7969 0.16016c-0.47158 0.96459-1.384 1.4473-2.7344 1.4473-1.8434 0-2.8284-0.83585-2.957-2.5078l-1.3828-17.461c-0.0857-0.98603 0.21446-1.7571 0.90039-2.3145 0.53588-0.42871 1.2226-0.64258 2.0586-0.64258 1.0932 0 1.9389 0.3002 2.5391 0.90039l4.373-0.38672v-3.1816l-7.5566 0.64258h-0.41797c-0.79311 0-1.4465-0.27862-1.9609-0.83594-0.49301-0.57876-0.74023-1.3616-0.74023-2.3477 0-1.8434 0.8378-2.8304 2.5098-2.959l8.166-0.64258v-4.2754c0-0.79311 0.24722-1.4465 0.74024-1.9609 0.68588-0.68594 1.5963-1.0293 2.7324-1.0293zm37.072 2.1543c2.9581 0 4.4375 1.2204 4.4375 3.6641 0 1.0289-0.36494 2.3376-1.0938 3.9238-1.672 3.644-4.0304 7.2876-7.0742 10.932 3.7298 2.5294 7.5774 4.6622 11.543 6.3984 1.5862 0.68593 2.3809 1.4158 2.3809 2.1875 0 0.70737-0.5376 1.2313-1.6094 1.5742-2.8509 0.92172-4.9504 1.3828-6.3008 1.3828-1.672 0-5.2626-2.2289-10.771-6.6875-3.1081 2.658-6.2278 4.8222-9.3574 6.4941-1.6076 0.85742-2.7535 1.2871-3.4394 1.2871-0.90029 0-1.587-0.34336-2.0586-1.0293-0.32153-0.42871-0.48242-0.91138-0.48242-1.4473 0-0.85742 0.37672-1.5638 1.127-2.1211 0.15005-0.12861 0.56798-0.38565 1.2539-0.77148 2.658-1.5648 5.454-3.7741 8.3906-6.625-2.4865-2.3365-4.3937-4.3398-5.7227-6.0117-0.64306-0.81455-0.96484-1.5543-0.96484-2.2188 0-0.6645 0.24722-1.2335 0.74023-1.7051 0.55732-0.49301 1.2009-0.73828 1.9297-0.73828 0.85741 0 1.7776 0.50426 2.7637 1.5117 1.3719 1.3933 3.1515 2.9473 5.3379 4.6621 1.5005-1.8434 2.6797-3.6015 3.5371-5.2734 0.42871-0.83598 0.64258-1.4266 0.64258-1.7695 0-0.38584-0.3002-0.57813-0.90039-0.57813-0.10718 0-0.28965 0.0098-0.54688 0.03125l-12.379 1.127h-0.38477c-1.8006-0.10718-2.7012-1.2118-2.7012-3.3125 0-2.1435 0.85743-3.2796 2.5723-3.4082l18.424-1.4473c0.25723-0.02144 0.49268-0.03125 0.70703-0.03125zm128.36 1.125c4.1585 0 6.2383 2.0366 6.2383 6.1094 0 0.27866-0.0216 0.66324-0.0645 1.1562l-2.252 25.691c-0.19292 2.2293-1.5213 3.3438-3.9863 3.3438-2.5508 0-3.8792-1.0615-3.9863-3.1836l-10.322 0.54688v18.842c0 0.85742-0.25703 1.5854-0.77148 2.1855-0.79311 0.87885-1.886 1.3184-3.2793 1.3184-1.8006 0-3.0328-0.64161-3.6973-1.9277-0.23579-0.45014-0.35352-0.97598-0.35352-1.5762v-18.391l-9.2929 0.48047c-0.0429 0.94316-0.38623 1.6829-1.0293 2.2188-0.77168 0.62163-1.7782 0.93359-3.0215 0.93359-2.4008 0-3.7095-1.0517-3.9238-3.1523l-2.7637-29.74v-0.45117c0-1.2861 0.54547-2.2495 1.6387-2.8926 0.68594-0.38584 1.5002-0.58008 2.4434-0.58008 1.8434 0 3.0874 0.57882 3.7305 1.7363l33.697-2.6367c0.21435-0.02144 0.54595-0.03125 0.99609-0.03125zm-109.58 0.90039c1.1575 0 2.9038 0.79269 5.2402 2.3789 2.0364 1.3504 3.0547 2.7435 3.0547 4.1797 0 0.81454-0.35318 1.6072-1.0606 2.3789-0.68593 0.7288-1.5532 1.0938-2.6035 1.0938-1.0075 0-1.8335-0.49249-2.4766-1.4785-0.79311-1.2433-1.886-2.5402-3.2793-3.8906-0.87885-0.85742-1.3184-1.6501-1.3184-2.3789 0-0.47158 0.16089-0.92286 0.48242-1.3516 0.45014-0.62163 1.1035-0.93164 1.9609-0.93164zm-157.69 4.7656c-7.6349 5.242-15.803 8.0994-24 8.8906v17.664c0 7.5222 3.9782 12.974 9.8574 17.463 5.8793 4.489 14.831 6.5371 14.143 6.5371-0.32509 0 8.43-2.0509 14.248-6.5176 5.818-4.4667 9.752-9.9027 9.752-17.482v-17.664c-8.1967-0.79125-16.365-3.6486-24-8.8906zm263.34 1.0547c-0.0643 0-0.1938 0.0098-0.38672 0.03125l-10.193 0.80469v6.3652l11.994-0.86719 0.32031-4.2773v-0.32031c0-1.1575-0.57686-1.7363-1.7344-1.7363zm-18.424 1.4785-11.543 0.93164 0.51367 6.1094 11.029-0.77148zm-137.06 9.4453c-0.0938-0.0057-0.19556-0.0029-0.30274 0.0078l-0.22461 0.03125-2.6367 0.19336v2.959l4.0508-0.29102 0.0976-1.3496v-0.2246c0-0.84402-0.32791-1.2863-0.98437-1.3262zm-8.9844 0.71484-4.0508 0.32227 0.19336 2.8281 3.8574-0.25586zm165.36 1.2852-11.479 0.77344v6.8477l10.934-0.61133zm-19.322 1.2871-10.482 0.70703 0.54687 6.5918 9.9356-0.54688zm-61.734 3.4727c2.6151 0 3.9219 1.0713 3.9219 3.2148v1.125l19.678-1.125c0.49302-0.02144 0.95411 0.04331 1.3828 0.19336 1.2432 0.45014 1.8652 1.3723 1.8652 2.7656 0 1.2433-0.43951 2.1635-1.3184 2.7637-0.42871 0.27866-0.91138 0.42974-1.4473 0.45117l-23.568 1.4141c-0.10718 0.81454-0.50352 1.5111-1.1895 2.0898-1.329 1.0718-3.4834 2.508-6.4629 4.3086v7.6855c1.8863-0.38584 4.5234-1.2001 7.9102-2.4434 0.87885-0.32153 1.6068-0.48242 2.1855-0.48242 0.9646 0 1.7043 0.37476 2.2188 1.125 0.27866 0.42871 0.41796 0.9212 0.41796 1.4785 0 1.0075-0.54546 1.8119-1.6387 2.4121-3.7512 1.9721-7.6322 3.5574-11.641 4.7578-1.5005 0.45014-2.6032 0.67578-3.3106 0.67578-0.79311 0-1.629-0.44932-2.5078-1.3496-0.75024-0.77168-1.127-1.8018-1.127-3.0879v-6.9453c-6.6878 2.8938-10.793 4.3418-12.314 4.3418-1.7148 0-2.5723-0.93395-2.5723-2.7988 0-0.77167 0.33355-1.4035 0.99804-1.8965 0.3644-0.25722 1.3494-0.67515 2.957-1.2539 4.1156-1.5005 9.3564-4.1787 15.723-8.0371l-14.211 0.83594-0.25781 0.03125c-0.77167 0.04287-1.4466-0.19258-2.0254-0.70703-0.62163-0.55732-0.93164-1.3284-0.93164-2.3145 0-2.0578 0.94181-3.1409 2.8281-3.248l20.449-1.1895v-1.5762c0-2.1435 1.3303-3.2148 3.9883-3.2148zm-74.725 0.70703-3.7617 0.22461v3.248l3.5684-0.25781zm-9.582 0.57812-3.5371 0.22656 0.22657 3.2793 3.3105-0.22461zm31.35 0.48242c1.0718 0 1.9724 0.32178 2.7012 0.96484 0.70737 0.60019 1.0606 1.3713 1.0606 2.3145v4.1484l7.1699-0.44922c0.90029-0.06431 1.64 0.15938 2.2188 0.67383 0.68594 0.60019 1.0293 1.4792 1.0293 2.6367 0 2.1435-0.94376 3.2796-2.8301 3.4082l-7.5879 0.48242v6.5273l10.934-0.57812h0.2246c0.81455-0.04287 1.4993 0.24556 2.0566 0.86719 0.57876 0.64306 0.86915 1.5123 0.86915 2.6055 0 2.2507-0.96535 3.4299-2.8945 3.5371l-28.744 1.3184h-0.32226c-1.0718 0-1.8546-0.45128-2.3477-1.3516-0.38584-0.6645-0.57812-1.4474-0.57812-2.3477 0-1.2861 0.48267-2.2064 1.4473-2.7637 0.45015-0.23579 0.93282-0.36528 1.4473-0.38672l10.418-0.54688v-6.4297l-5.9805 0.38477h-0.29102c-1.8863 0-2.8281-1.1792-2.8281-3.5371 0-2.0149 0.85743-3.0745 2.5723-3.1816l6.5274-0.41797v-4.5996c0-1.1146 0.45913-1.9721 1.3809-2.5723 0.70736-0.47158 1.4902-0.70703 2.3476-0.70703zm72.217 8.3281c1.1361 0 2.0681 0.43951 2.7969 1.3184 0.64307 0.81454 0.96485 1.6818 0.96485 2.6035 0 1.0289-0.48267 1.8549-1.4473 2.4766-1.9292 1.2433-4.0836 2.4107-6.4629 3.5039 4.2656 2.0578 8.7353 3.7629 13.408 5.1133 1.6077 0.47158 2.4121 1.0818 2.4121 1.832 0 0.68593-0.78287 1.2549-2.3476 1.7051-3.6226 1.0503-6.1301 1.5762-7.5234 1.5762-0.79311 0-1.7898-0.31197-2.9902-0.93359-6.9022-3.6011-12.476-7.545-16.721-11.832-1.2004-1.2004-1.8008-2.1971-1.8008-2.9902 0-0.70737 0.27862-1.3078 0.83594-1.8008 0.51445-0.42871 1.0501-0.64258 1.6074-0.64258 0.62163 0 1.277 0.23545 1.9629 0.70703 0.21436 0.15005 0.88932 0.69747 2.0254 1.6406 0.98603 0.79311 2.2712 1.6918 3.8574 2.6992 1.6291-1.2218 3.7619-3.076 6.3984-5.5625 0.98603-0.94316 1.9945-1.4141 3.0234-1.4141z" fill="#a63622"/></svg>
