<?xml version="1.0" encoding="UTF-8"?>
<svg version="1.1" viewBox="0 0 360 120" xml:space="preserve" xmlns="http://www.w3.org/2000/svg"><path d="m10 0c-5.54 0-10 4.46-10 10v100c0 5.54 4.46 10 10 10h100c5.54 0 10-4.46 10-10 0 5.54 4.46 10 10 10h220c5.54 0 10-4.46 10-10v-100c0-5.54-4.46-10-10-10h-220c-5.54 0-10 4.46-10 10 0-5.54-4.46-10-10-10zm50 7.0293 8.4844 8.4863c10.02 10.02 14.688 10.622 25.369 8.6797l14.146-2.5742v44.379c0 16.42-9.3263 28.984-19.139 36.518-9.8124 7.5333-19.058 11.482-28.861 11.482-9.8221 0-18.87-3.9519-28.707-11.463-9.8373-7.511-19.293-20.059-19.293-36.537v-44.379l14.146 2.5742c10.681 1.942 15.349 1.3404 25.369-8.6797zm99.48 22.561c0.46661 0 0.93377 0.10622 1.4004 0.31641 1.2505 0.58854 1.875 1.5654 1.875 2.9316 0 0.73568-0.27991 1.7228-0.83984 2.9629l16.574-1.3555c0.46662-0.04204 0.9251 0.05199 1.373 0.28321 0.98923 0.52548 1.4824 1.4307 1.4824 2.7129 0 2.0599-0.78373 3.1532-2.3516 3.2793l-20.662 1.5449c-0.5786 0.79874-1.0824 1.4711-1.5117 2.0176 0.22398-0.021 0.39192-0.0312 0.50391-0.0312 0.69059 0 1.345 0.23094 1.9609 0.69336l14.895-1.1992c0.20531-0.02102 0.40124-0.03125 0.58789-0.03125 2.6877 0 4.0312 1.4816 4.0312 4.4453 0 0.0841-9e-3 0.33742-0.0274 0.75781l-0.70117 12.58c-0.0933 1.8077-0.9977 2.7109-2.7148 2.7109-1.1572 0-2.0076-0.3576-2.5488-1.0723l-9.4629 0.72656c0.87724 0.54651 1.3164 1.3231 1.3164 2.332v0.34766l9.0703-0.78906c0.2613-0.021 0.47655-0.0312 0.64453-0.0312 1.1945 0 2.1095 0.3045 2.7441 0.91406 0.5786 0.5465 0.86719 1.2515 0.86719 2.1133 0 2.3752-2.2112 5.8431-6.6348 10.404 3.1916 2.1019 6.9057 3.9942 11.143 5.6758 1.4372 0.56752 2.1562 1.197 2.1562 1.8906 0 0.54651-0.50383 1.0308-1.5117 1.4512-2.5944 1.051-4.5257 1.5762-5.7949 1.5762-1.7545 0-5.2186-2.1968-10.389-6.5898-0.0933 0.0631-0.20529 0.14686-0.33594 0.25196-3.285 2.5433-7.251 4.6359-11.898 6.2754-0.67192 0.23121-1.2211 0.3457-1.6504 0.3457-0.95189 0-1.6063-0.40876-1.9609-1.2285-0.16799-0.35733-0.25196-0.73735-0.25196-1.1367 0-0.77772 0.33589-1.4398 1.0078-1.9863 0.27997-0.23122 0.8591-0.54595 1.7363-0.94531 3.005-1.3242 6-3.143 8.9863-5.4551-1.5305-1.5134-2.7708-2.8478-3.7227-4.0039-3.5276 3.6364-6.0294 5.4551-7.5039 5.4551-0.72792 0-1.2877-0.33715-1.6797-1.0098-0.24264-0.46242-0.36328-0.92429-0.36328-1.3867 0-0.60956 0.21329-1.1879 0.64258-1.7344 0.13065-0.18918 0.54183-0.5877 1.2324-1.1973 2.7624-2.5013 5.4408-5.8752 8.0352-10.121-0.42929 0.14714-0.85783 0.2207-1.2871 0.2207-1.9038 0-2.8941-0.94614-2.9688-2.8379l-0.64258-15.512v-0.1582c-0.54128 0.44141-1.0837 0.66211-1.625 0.66211-0.48528 0-0.94181-0.19001-1.3711-0.56836-0.59726-0.5465-0.89648-1.2086-0.89648-1.9863 0-0.67262 0.38319-1.5964 1.1484-2.7734 2.1651-3.3631 3.8252-6.7677 4.9824-10.215 0.55994-1.6816 1.5309-2.5234 2.9121-2.5234zm119.86 0.41016c1.2132 0 2.1456 0.42094 2.7988 1.2617 0.41062 0.5465 0.61718 1.2188 0.61718 2.0176v5.1699l9.3496-0.72461h0.22461c1.6798 0 2.5195 0.97684 2.5195 2.9316 0 2.0179-0.8204 3.0907-2.4629 3.2168l-9.6309 0.69336v6.2422l7.9785-0.59765 0.22461-0.0332c0.82124-0.042 1.4737 0.28488 1.959 0.97852 0.33597 0.48345 0.50391 1.1353 0.50391 1.9551 0 1.9338-0.82041 2.9637-2.4629 3.0898l-22.258 1.7344-0.25196 0.0312c-0.65326 0.042-1.2324-0.1889-1.7363-0.69336-0.50394-0.54651-0.75586-1.2822-0.75586-2.207 0-1.9968 0.82041-3.0594 2.4629-3.1856l7.4473-0.56641v-6.2441l-8.3711 0.59961c-0.9519 0.0631-1.669-0.28432-2.1543-1.041-0.37329-0.58855-0.56055-1.314-0.56055-2.1758 0-1.7236 0.83104-2.6473 2.4922-2.7734l8.5938-0.69336v-5.707c0-1.3032 0.52314-2.2391 1.5684-2.8066 0.5786-0.31529 1.2137-0.47266 1.9043-0.47266zm-19.291 0.63086c1.1012 0 1.9602 0.3883 2.5762 1.166 0.41063 0.5465 0.61719 1.2086 0.61719 1.9863v24.277c0 0.81975-0.22392 1.5043-0.67187 2.0508-0.59727 0.71466-1.4476 1.0703-2.5488 1.0703-1.4558 0-2.4442-0.56612-2.9668-1.7012-0.18664-0.39937-0.28125-0.87342-0.28125-1.4199v-5.0137c-4.1435 3.1739-6.9426 4.7617-8.3984 4.7617-1.1572 0-2.0162-0.609-2.5762-1.8281-0.29863-0.63058-0.44726-1.2415-0.44726-1.8301 0-1.5975 1.0356-2.7624 3.1074-3.498 2.3891-0.86179 5.1601-2.1348 8.3144-3.8164v-13.053c0-1.2191 0.46716-2.1019 1.4004-2.6484 0.55994-0.33631 1.1844-0.50391 1.875-0.50391zm-46.307 0.3457c0.67193 0 1.3157 0.19001 1.9316 0.56836 1.0639 0.67262 1.5957 1.7026 1.5957 3.0898 0 0.29427-0.028 0.609-0.084 0.94531 1.9598 2.6064 4.7502 5.6227 8.3711 9.0488 4.9461 4.6663 9.4912 8.2302 13.635 10.689 1.5492 0.92485 2.3242 1.7341 2.3242 2.4277 0 0.48345-0.41118 0.87175-1.2324 1.166-2.893 1.072-4.9836 1.6074-6.2715 1.6074-0.78391 0-1.529-0.25139-2.2383-0.75586-1.6052-1.114-3.939-3.2801-7-6.4961 0.0933 0.42039 0.14063 0.81064 0.14063 1.168 0 2.0809-0.85903 3.2049-2.5762 3.373l-16.631 1.6074c-0.13065 0.021-0.25129 0.0332-0.36328 0.0332-0.8399 0-1.4924-0.35761-1.959-1.0723-0.37329-0.56752-0.56055-1.293-0.56055-2.1758 0-0.50446 0.0647-1.0194 0.19531-1.5449-3.2663 3.0058-6.3086 5.3702-9.127 7.0938-1.3812 0.84078-2.4255 1.2617-3.1348 1.2617-0.72792 0-1.3157-0.31668-1.7637-0.94727-0.41062-0.56752-0.61718-1.1663-0.61718-1.7969 0-0.7567 0.2799-1.3964 0.83984-1.9219 0.18665-0.18917 0.95302-0.78989 2.2969-1.7988 3.5276-2.6484 7.1944-6.3473 11.002-11.098 3.117-3.8886 5.7674-7.8817 7.9512-11.98 0.87724-1.6605 1.9689-2.4922 3.2754-2.4922zm-76.516 0.09571c0.5786 0 1.289 0.20024 2.1289 0.59961 2.3517 1.1561 4.2551 2.3536 5.7109 3.5937 1.0452 0.90384 1.5684 1.9542 1.5684 3.1524 0 0.6516-0.19593 1.3035-0.58789 1.9551-0.6346 1.051-1.5303 1.5762-2.6875 1.5762-0.9519 0-1.8862-0.53543-2.8008-1.6074-0.72792-0.8618-2.0908-2.2289-4.0879-4.0996-0.97056-0.92486-1.4551-1.8384-1.4551-2.7422 0-0.52549 0.13995-1.0098 0.41992-1.4512 0.37329-0.6516 0.96977-0.97656 1.791-0.97656zm207.35 3.2148c3.6209 0 5.4316 1.9985 5.4316 5.9922 0 0.27325-0.0193 0.65132-0.0566 1.1348l-1.959 25.191c-0.16799 2.186-1.3262 3.2793-3.4727 3.2793-2.2211 0-3.3774-1.0402-3.4707-3.1211l-8.9863 0.53516v18.477c0 0.84078-0.22393 1.556-0.67188 2.1445-0.69059 0.8618-1.6442 1.291-2.8574 1.291-1.5678 0-2.6402-0.62946-3.2188-1.8906-0.20531-0.4414-0.30859-0.95638-0.30859-1.5449v-18.035l-8.0898 0.47266c-0.0373 0.92485-0.33654 1.6503-0.89648 2.1758-0.67193 0.60956-1.5483 0.91406-2.6309 0.91406-2.0904 0-3.2294-1.0299-3.416-3.0898l-2.4082-29.164v-0.44141c0-1.2612 0.47584-2.2073 1.4277-2.8379 0.59726-0.37835 1.3057-0.56641 2.127-0.56641 1.6052 0 2.6881 0.56613 3.248 1.7012l29.342-2.584c0.18665-0.02102 0.47523-0.0332 0.86719-0.0332zm-95.414 0.88281c1.0079 0 2.53 0.77855 4.5644 2.334 1.7731 1.3242 2.6602 2.6913 2.6602 4.0996 0 0.79873-0.3079 1.5753-0.92383 2.332-0.59727 0.71466-1.353 1.0723-2.2676 1.0723-0.87724 0-1.5963-0.48428-2.1562-1.4512-0.69059-1.2191-1.6423-2.4902-2.8555-3.8144-0.76525-0.84078-1.1484-1.6174-1.1484-2.332 0-0.46243 0.13996-0.90383 0.41993-1.3242 0.39195-0.60957 0.96044-0.91602 1.707-0.91602zm-189.15 4.2754c-7.6348 5.242-15.803 8.0994-24 8.8906v17.664c0 7.5222 3.9782 12.974 9.8574 17.463 5.8793 4.489 14.831 6.5371 14.143 6.5371-0.32509 0 8.43-2.0509 14.248-6.5176 5.818-4.4666 9.752-9.9027 9.752-17.482v-17.664c-8.1967-0.79125-16.365-3.6486-24-8.8906zm281.15 1.4316c-0.056 0-0.16795 0.01023-0.33593 0.03125l-8.875 0.78907v6.2422l10.443-0.85156 0.27929-4.1934v-0.31445c0-1.135-0.50383-1.7031-1.5117-1.7031zm-126.69 0.15821c-2.3517 3.6994-5.4867 7.5882-9.4062 11.666l16.91-1.7344h0.2793c0.0373 0 0.17728 0.0102 0.41992 0.0312-3.229-3.6364-5.9634-6.9571-8.2031-9.9629zm110.64 1.293-10.051 0.91407 0.44726 5.9902 9.6035-0.75586zm-178.71 0.75586c2.3144 0 3.4707 1.0626 3.4707 3.1856 0 2.4593-1.8194 6.4217-5.459 11.887v1.9863c0.42928 0.27325 0.7758 0.50418 1.0371 0.69336 0.85857-1.1981 1.6317-2.5019 2.3223-3.9102 0.59727-1.1981 1.3443-1.7969 2.2402-1.7969 0.55994 0 1.0638 0.21047 1.5117 0.63086 0.59726 0.5465 0.89648 1.2086 0.89648 1.9863 0 0.71466-0.25191 1.4075-0.75586 2.0801-0.63459 0.88282-1.6529 2.0087-3.0527 3.375l0.39258 0.31445c0.72792 0.63059 1.2684 1.1027 1.623 1.418 1.0079 0.84078 1.5137 1.7665 1.5137 2.7754 0 0.63059-0.20656 1.2294-0.61718 1.7969-0.55994 0.7567-1.2404 1.1348-2.043 1.1348s-1.6143-0.5252-2.4356-1.5762c-1.0452-1.3452-1.8396-2.3425-2.3809-2.9941l-0.25195-0.3164v20.211c0 0.71466-0.17662 1.3134-0.53125 1.7969-0.5786 0.77772-1.401 1.166-2.4648 1.166-1.2879 0-2.1836-0.5252-2.6875-1.5762-0.18665-0.39937-0.2793-0.86123-0.2793-1.3867v-19.895c-1.3812 1.5975-2.6881 3.0157-3.9199 4.2559-0.80258 0.77772-1.5863 1.166-2.3516 1.166-0.63459 0-1.1857-0.3045-1.6523-0.91407-0.35463-0.46242-0.53125-0.98762-0.53125-1.5762 0-0.63058 0.18725-1.2191 0.56055-1.7656 0.16798-0.25223 0.60519-0.77744 1.3144-1.5762 4.1809-4.6873 7.3178-9.1545 9.4082-13.4 0.29864-0.63059 0.44727-1.072 0.44727-1.3242 0-0.37835-0.2326-0.55813-0.69922-0.53711-0.13065 0-0.28124 0.0224-0.44922 0.0644l-6.4394 1.1035c-0.16798 0.021-0.35328 0.0312-0.5586 0.0312-1.1012 0-1.9236-0.46187-2.4648-1.3867-0.3173-0.52549-0.47461-1.1671-0.47461-1.9238 0-2.0179 0.8484-3.1418 2.5469-3.373l12.096-1.7656c0.33596-0.04204 0.70852-0.06446 1.1191-0.06446zm25.197 5.5488-11.254 0.97852 0.11133 2.6172 12.234-1.0098 0.0273-0.94531 0.0293-0.53711c0-0.79874-0.33588-1.1666-1.0078-1.1035zm170.33 4.9199-9.9961 0.75586v6.7168l9.5195-0.59961zm-16.826 1.2598-9.127 0.69531 0.4746 6.4629 8.6524-0.53515zm-152.56 0.75781-11.926 1.0098 0.11132 2.7734 11.703-0.91407zm98.803 2.6484c2.2771 0 3.4141 1.0504 3.4141 3.1523v1.1035l17.135-1.1035c0.42929-0.021 0.82983 0.0423 1.2031 0.18946 1.0825 0.4414 1.625 1.3447 1.625 2.7109-1e-5 1.2191-0.38319 2.1244-1.1484 2.7129-0.37329 0.27325-0.79315 0.42038-1.2598 0.4414l-20.521 1.3867c-0.0933 0.79874-0.43789 1.4813-1.0352 2.0488-1.1572 1.051-3.0345 2.459-5.6289 4.2246v7.5371c1.6425-0.37835 3.9397-1.1774 6.8887-2.3965 0.76525-0.31529 1.3984-0.47265 1.9023-0.47265 0.83991 0 1.4837 0.36783 1.9316 1.1035 0.24264 0.42039 0.36524 0.90272 0.36524 1.4492 0 0.98791-0.47584 1.7767-1.4277 2.3652-3.2663 1.9338-6.6445 3.4889-10.135 4.666-1.3065 0.44141-2.2688 0.66211-2.8848 0.66211-0.69059 0-1.4183-0.4414-2.1836-1.3242-0.65327-0.7567-0.98047-1.7662-0.98047-3.0273v-6.8106c-5.8234 2.8376-9.3975 4.2578-10.723 4.2578-1.4932 0-2.2383-0.91545-2.2383-2.7441 0-0.7567 0.28858-1.3759 0.86719-1.8594 0.3173-0.25224 1.1763-0.66295 2.5762-1.2305 3.5836-1.4714 8.1461-4.0974 13.689-7.8809l-12.375 0.81836-0.22265 0.0312c-0.67193 0.042-1.2597-0.18889-1.7637-0.69336-0.54127-0.54651-0.8125-1.3026-0.8125-2.2695 0-2.0179 0.82041-3.0785 2.4629-3.1836l17.807-1.168v-1.5449c0-2.1019 1.1582-3.1523 3.4726-3.1523zm-45.301 5.0449c3.3036 0 4.957 1.5858 4.957 4.7598 0 0.69364-0.0666 1.4191-0.19726 2.1758l-1.5664 8.7344c1.0079 0.52549 1.5117 1.6495 1.5117 3.373 0 1.2822-0.41986 2.1976-1.2598 2.7441-0.35462 0.25223-0.75712 0.38718-1.2051 0.4082l-21.277 1.168c-0.35463 1.6185-1.5495 2.4277-3.584 2.4277-2.0158 0-3.1354-1.0299-3.3594-3.0898l-2.0723-18.729v-0.34766c0.0933-1.3873 0.76509-2.3212 2.0156-2.8047 0.52261-0.21019 1.0824-0.3164 1.6797-0.3164 1.4558 0 2.4828 0.47405 3.0801 1.4199l20.186-1.8926c0.29864-0.021 0.66251-0.0312 1.0918-0.0312zm62.07 4.8555c0.98923 0 1.801 0.43117 2.4356 1.293 0.55994 0.79874 0.83984 1.6489 0.83984 2.5527 0 1.0089-0.41985 1.8182-1.2598 2.4277-1.6798 1.2191-3.5552 2.3655-5.627 3.4375 3.7143 2.0179 7.605 3.6894 11.674 5.0137 1.3998 0.46243 2.0996 1.0612 2.0996 1.7969 0 0.67263-0.68045 1.2285-2.043 1.6699-3.1543 1.03-5.3376 1.5449-6.5508 1.5449-0.69059 0-1.5583-0.3045-2.6035-0.91406-6.01-3.5313-10.863-7.3977-14.559-11.602-1.0452-1.1771-1.5684-2.1559-1.5684-2.9336 0-0.69364 0.24324-1.2822 0.72852-1.7656 0.44795-0.42038 0.91316-0.63085 1.3984-0.63085 0.54127 0 1.1117 0.23288 1.709 0.69531 0.18665 0.14713 0.77445 0.68257 1.7637 1.6074 0.85858 0.77772 1.9782 1.6605 3.3594 2.6484 1.4185-1.1981 3.2746-3.0168 5.5703-5.4551 0.85857-0.92485 1.7369-1.3867 2.6328-1.3867zm-66.045 2.1445-16.322 1.418 0.7832 8.3867 15.848-0.97656 0.89454-7.3789c0.0187-0.1051 0.0293-0.21959 0.0293-0.3457 0-0.73568-0.3272-1.1035-0.98047-1.1035zm-53.307 0.91406-6.4668 0.66211c1.0639 1.1771 2.4721 2.4584 4.2266 3.8457 2.1838-2.2701 3.2773-3.6352 3.2773-4.0977 0-0.27325-0.22392-0.41016-0.67188-0.41016z" fill="#4aa36f"/></svg>
