<?xml version="1.0" encoding="UTF-8"?>
<svg version="1.1" viewBox="0 0 360 120" xml:space="preserve" xmlns="http://www.w3.org/2000/svg"><path d="m5 5v110h110v-110h-110zm120 0v110h230v-110h-230z" fill="#fff"/><path d="m10 0c-5.54 0-10 4.46-10 10v100c0 5.54 4.46 10 10 10h100c5.54 0 10-4.46 10-10 0 5.54 4.46 10 10 10h220c5.54 0 10-4.46 10-10v-100c0-5.54-4.46-10-10-10h-220c-5.54 0-10 4.46-10 10 0-5.54-4.46-10-10-10zm50 7.0293 8.4844 8.4863c10.02 10.02 14.688 10.622 25.369 8.6797l14.146-2.5742v44.379c0 16.42-9.3263 28.984-19.139 36.518-9.8124 7.5333-19.058 11.482-28.861 11.482-9.8221 0-18.87-3.9519-28.707-11.463-9.8373-7.511-19.293-20.059-19.293-36.537v-44.379l14.146 2.5742c10.681 1.942 15.349 1.3404 25.369-8.6797zm104.96 22.377c0.98973 0 1.8132 0.3316 2.4668 0.99609 0.54155 0.57876 0.81054 1.2969 0.81055 2.1543v5.7246l6.8633-0.74023h0.36523c1.7554 0 2.6328 1.1145 2.6328 3.3438 0 2.0149-0.80418 3.098-2.4102 3.248l-7.4512 0.77149v4.6289l12.102-1.125h0.33594c0.74696 0 1.3641 0.26881 1.8496 0.80469 0.52288 0.57876 0.78321 1.3832 0.78321 2.4121 0 2.1864-0.83886 3.3539-2.5195 3.5039l-28.516 2.6367c-0.18674 0.02144-0.29859 0.03126-0.33594 0.03126-0.74696 0-1.3554-0.28844-1.8223-0.86719-0.5042-0.57876-0.75586-1.3832-0.75586-2.4121 0-2.1435 0.84081-3.3012 2.5215-3.4727l9.8047-0.90039v-4.5976l-6.9473 0.70703h-0.33594c-1.718 0-2.5781-1.0497-2.5781-3.1504 0-2.0792 0.80418-3.2055 2.4102-3.377l7.4512-0.77148v-6.3984c0-1.179 0.45606-2.0462 1.3711-2.6035 0.5789-0.3644 1.2134-0.54687 1.9043-0.54687zm114.34 0c1.2138 0 2.1491 0.42969 2.8027 1.2871 0.41083 0.55732 0.61524 1.2421 0.61524 2.0566v5.2734l9.3555-0.74024h0.22461c1.6807 0 2.5215 0.99675 2.5215 2.9902 0 2.0578-0.82152 3.1507-2.4648 3.2793l-9.6367 0.70899v6.3652l7.9844-0.61133 0.22266-0.03124c0.82166-0.04288 1.4754 0.28872 1.9609 0.99609 0.33613 0.49301 0.5039 1.1582 0.5039 1.9941 0 1.9721-0.82152 3.0218-2.4648 3.1504l-22.268 1.7695-0.25195 0.03125c-0.6536 0.04287-1.2341-0.19258-1.7383-0.70703-0.50421-0.55732-0.75586-1.3068-0.75586-2.25 0-2.0364 0.82152-3.1194 2.4648-3.248l7.4512-0.57812v-6.3672l-8.375 0.61133c-0.95238 0.0643-1.6707-0.28887-2.1562-1.0606-0.37348-0.60019-0.56054-1.3399-0.56054-2.2188 0-1.7577 0.83019-2.7015 2.4922-2.8301l8.5996-0.70703v-5.8203c0-1.329 0.52261-2.2826 1.5684-2.8613 0.5789-0.32153 1.2134-0.48242 1.9043-0.48242zm-55.293 0.64258c1.1391 0 2.0166 0.39634 2.6328 1.1894 0.41083 0.55732 0.61719 1.2539 0.61719 2.0898v8.7461l6.2461-0.64258h0.33594c1.1018 0 1.8674 0.57882 2.2969 1.7363 0.20541 0.57875 0.30859 1.2106 0.30859 1.8965 0 2.0149-0.80418 3.0862-2.4102 3.2148l-6.7773 0.61132v6.6563l9.9141-0.80469c0.89636-0.06431 1.606 0.21431 2.1289 0.83593 0.54155 0.6645 0.8125 1.5769 0.8125 2.7344 0 2.0578-0.82152 3.1507-2.4648 3.2793l-8.5996 0.67578c3.7161 6.1091 7.6666 11.532 11.85 16.27 0.78432 0.90029 1.1758 1.6596 1.1758 2.2812 0 0.68593-0.3828 1.1372-1.1484 1.3516-1.7927 0.53589-3.2014 0.80274-4.2285 0.80274-0.9337 0-1.6627-0.363-2.1855-1.0918-0.87769-1.2218-2.0261-3.1407-3.4453-5.7559-1.6433-3.0438-2.9122-5.5946-3.8086-7.6523v18.617c0 0.94316-0.26228 1.6927-0.78516 2.25-0.61624 0.64307-1.4378 0.96485-2.4648 0.96485-1.4566 0-2.4372-0.59059-2.9414-1.7695-0.18674-0.40728-0.27929-0.888-0.27929-1.4453v-17.492c-2.577 4.6729-5.5662 8.8639-8.9648 12.572-1.5313 1.6505-2.6517 2.4746-3.3613 2.4746-0.59757 0-1.1481-0.28843-1.6523-0.86719-0.4295-0.47157-0.64453-1.0072-0.64453-1.6074 0-0.55732 0.15043-1.093 0.44922-1.6074 0.18674-0.3001 0.66209-0.93384 1.4277-1.8984 3.7162-4.6515 6.8624-9.7961 9.4395-15.434l-6.0508 0.48242h-0.22265c-1.774 0-2.6621-1.1773-2.6621-3.5352 0-2.0792 0.83214-3.1839 2.4941-3.3125l9.748-0.80468v-6.5898l-5.127 0.48242c-0.54155 1.2433-1.1201 2.4205-1.7363 3.5352-0.63492 1.1361-1.4005 1.7051-2.2969 1.7051-0.37348 0-0.72832-0.10791-1.0644-0.32227-0.74697-0.49301-1.1211-1.2327-1.1211-2.2188 0-0.47157 0.15911-1.1681 0.47657-2.0898 1.3259-3.644 2.3431-7.5231 3.0527-11.639 0.35481-2.1435 1.2882-3.2148 2.8008-3.2148 0.46685 0 0.89691 0.07457 1.2891 0.22461 1.1952 0.47158 1.793 1.4154 1.793 2.8301 0 0.70737-0.27962 2.1318-0.83984 4.2754l2.7734-0.28906v-9.4219c0-1.2647 0.46668-2.1967 1.4004-2.7969 0.52287-0.32153 1.1294-0.48242 1.8203-0.48242zm35.994 0c1.1018 0 1.9599 0.39634 2.5762 1.1894 0.41083 0.55732 0.61719 1.2342 0.61719 2.0273v24.758c0 0.83598-0.2237 1.5325-0.67188 2.0898-0.59757 0.7288-1.447 1.0918-2.5488 1.0918-1.4566 0-2.4478-0.57882-2.9707-1.7363-0.18674-0.40727-0.27929-0.88799-0.27929-1.4453v-5.1133c-4.1457 3.2367-6.9477 4.8555-8.4043 4.8555-1.1578 0-2.016-0.62198-2.5762-1.8652-0.29879-0.64306-0.44727-1.265-0.44727-1.8652 0-1.6291 1.0366-2.8181 3.1094-3.5684 2.3903-0.87885 5.1624-2.1758 8.3184-3.8906v-13.311c0-1.2432 0.46668-2.1438 1.4004-2.7012 0.56022-0.34296 1.186-0.51562 1.877-0.51562zm-117.2 0.64453c1.2138 0 2.0913 0.49249 2.6328 1.4785 0.22409 0.4287 0.33594 0.93296 0.33594 1.5117v10.738l2.2969-0.35352c0.16806-0.02144 0.2992-0.0332 0.39257-0.0332 1.7367 0 2.6055 1.1478 2.6055 3.4414 0 1.8863-0.7463 2.9478-2.2402 3.1836l-3.0547 0.48242v7.9082c0.22409-0.12861 0.53363-0.31108 0.92578-0.54687 0.74697-0.45015 1.4374-0.67383 2.0723-0.67383 0.85901 0 1.5041 0.41792 1.9336 1.2539 0.24277 0.47158 0.36328 0.94249 0.36328 1.4141 0 0.98602-0.52261 1.8964-1.5684 2.7324-0.74696 0.60019-1.9899 1.4694-3.7266 2.6055v21.027c0 0.90029-0.27962 1.6302-0.83984 2.1875-0.63492 0.6645-1.4285 0.9961-2.3809 0.9961-1.2512 0-2.1652-0.50426-2.7441-1.5117-0.26144-0.47158-0.39258-1.0288-0.39258-1.6719v-17.234c-3.1186 1.7148-5.0885 2.5723-5.9102 2.5723-1.1765 0-2.0366-0.58863-2.5781-1.7676-0.28011-0.64306-0.41992-1.2964-0.41992-1.9609 0-1.4147 0.56986-2.4546 1.709-3.1191 0.22409-0.12862 0.7467-0.35425 1.5684-0.67579 1.6807-0.64306 3.558-1.4573 5.6309-2.4434v-10.096l-3.166 0.51367c-0.54155 2.1435-1.0834 3.9016-1.625 5.2734-0.54155 1.3933-1.3351 2.0898-2.3809 2.0898-1.4939 0-2.2402-0.81426-2.2402-2.4434 0-0.36441 0.10318-1.061 0.30859-2.0898 1.3259-6.5378 2.1001-11.339 2.3242-14.404 0.16807-2.4008 1.1294-3.6016 2.8848-3.6016 1.774 0 2.6621 1.0183 2.6621 3.0547 0 0.68593-0.19574 2.4106-0.58789 5.1758l2.2676-0.35351v-11.67c0-0.79311 0.20635-1.4484 0.61718-1.9629 0.54155-0.68593 1.3158-1.0273 2.3242-1.0273zm65.688 2.5078h0.33594c0.72829 0 1.3155 0.26685 1.7637 0.80274 0.56022 0.64306 0.83984 1.5338 0.83984 2.6699 0 2.1221-0.78293 3.268-2.3516 3.4394l-7.2832 0.86719c-0.33614 1.9078-0.85007 4.0523-1.541 6.4316l4.2305-0.51367c0.41083-0.04287 0.77434-0.06446 1.0918-0.06446 2.4463 0 3.6699 1.4029 3.6699 4.2109 0 2.8509-0.75693 6.7849-2.2695 11.801-1.9234 6.4306-4.8094 12.325-8.6562 17.684-3.5481 4.9516-6.0859 7.4277-7.6172 7.4277-0.59757 0-1.1395-0.2688-1.625-0.80469-0.44818-0.47157-0.67187-1.0072-0.67187-1.6074 0-0.81454 0.55057-1.929 1.6523-3.3438 3.2866-4.2013 6.1427-8.9594 8.5703-14.275-0.59757-0.19292-1.1761-0.65401-1.7363-1.3828-0.5042-0.64306-1.588-1.9067-3.25-3.793-0.80298 1.2861-1.3902 2.175-1.7637 2.668-0.69094 0.90029-1.4006 1.3496-2.1289 1.3496-0.46686 0-0.91425-0.2021-1.3438-0.60938-0.5042-0.47158-0.75782-1.0622-0.75782-1.7695 0-0.62162 0.42139-1.7675 1.2617-3.4394 2.7264-5.4232 4.9567-11.843 6.6934-19.26l-4.0898 0.48243c-0.20542 0.02143-0.32593 0.03124-0.36328 0.03124-0.91503 0-1.616-0.39634-2.1016-1.1894-0.39216-0.64306-0.5879-1.4573-0.5879-2.4434 0-2.1221 0.81286-3.2699 2.4375-3.4414zm136.08 0.57813c3.6228 0 5.4336 2.0366 5.4336 6.1094 0 0.27866-0.0193 0.66324-0.0566 1.1562l-1.9609 25.691c-0.16807 2.2293-1.3251 3.3438-3.4726 3.3438-2.2222 0-3.3793-1.0615-3.4727-3.1836l-8.9922 0.54688v18.842c0 0.85741-0.22369 1.5854-0.67187 2.1855-0.69095 0.87885-1.6436 1.3184-2.8574 1.3184-1.5686 0-2.6418-0.64161-3.2207-1.9277-0.20541-0.45015-0.30859-0.97598-0.30859-1.5762v-18.391l-8.0957 0.48047c-0.0373 0.94316-0.33626 1.6829-0.89648 2.2188-0.67227 0.62163-1.5497 0.93359-2.6328 0.93359-2.0915 0-3.2312-1.0517-3.418-3.1523l-2.4082-29.74v-0.45118c0-1.2861 0.47535-2.2495 1.4277-2.8926 0.59757-0.38584 1.3072-0.58008 2.1289-0.58008 1.606 0 2.6898 0.57881 3.25 1.7363l29.355-2.6367c0.18674-0.02144 0.47698-0.03125 0.86914-0.03125zm-95.463 0.90039c1.0084 0 2.5309 0.79268 4.5664 2.3789 1.774 1.3504 2.6602 2.7435 2.6602 4.1797 0 0.81455-0.30758 1.6072-0.92383 2.3789-0.59757 0.7288-1.3545 1.0938-2.2695 1.0938-0.87768 0-1.596-0.49249-2.1562-1.4785-0.69094-1.2432-1.6436-2.5402-2.8574-3.8906-0.76564-0.85742-1.1484-1.6501-1.1484-2.3789 0-0.47158 0.13981-0.92285 0.41992-1.3516 0.39216-0.62163 0.96202-0.93164 1.709-0.93164zm-189.1 4.7656c-7.6349 5.242-15.803 8.0994-24 8.8906v17.664c0 7.5222 3.9782 12.974 9.8574 17.463 5.8793 4.489 14.831 6.5371 14.143 6.5371-0.32509 0 8.43-2.0509 14.248-6.5176 5.818-4.4666 9.752-9.9027 9.752-17.482v-17.664c-8.1967-0.79125-16.365-3.6486-24-8.8906zm281.15 1.0547c-0.056 0-0.16787 0.0098-0.33594 0.03125l-8.8789 0.80469v6.3652l10.447-0.86719 0.2793-4.2773v-0.32031c0-1.1575-0.50332-1.7363-1.5117-1.7363zm-16.051 1.4785-10.055 0.93164 0.44726 6.1094 9.6074-0.77148zm16.836 11.445-10 0.77344v6.8476l9.5234-0.61133zm-140.2 0.1289-3.7812 0.51563c-0.69094 1.672-1.4199 3.2789-2.1856 4.8223 1.7927 0.79311 3.4743 1.9508 5.043 3.4727 1.2138-3.6654 1.8203-6.2476 1.8203-7.748 0-0.70736-0.26033-1.0625-0.7832-1.0625zm123.36 1.1582-9.1309 0.70703 0.47656 6.5918 8.6543-0.54688zm-153.92 1.543c0.87768 0 1.6539 0.27861 2.3262 0.83593 0.67227 0.60019 1.0078 1.3929 1.0078 2.3789v2.0898l4.7051-0.41797c0.16807-0.02143 0.27125-0.03124 0.3086-0.03124 0.84033 0 1.4941 0.32178 1.9609 0.96484 0.4295 0.57875 0.64453 1.3499 0.64453 2.3144 0 2.165-0.84082 3.3226-2.5215 3.4727l-5.0976 0.41797v16.238c0 1.5005-0.26229 2.7327-0.78516 3.6973-0.72829 1.3504-1.8487 2.0254-3.3613 2.0254-1.2885 0-2.9316-0.40811-4.9297-1.2226-3.0252-1.2004-4.5371-2.5385-4.5371-4.0176 0-1.4362 0.67305-2.1543 2.0176-2.1543 0.22409 0 0.52105 0.04121 0.89453 0.12696 1.1204 0.23579 2.0452 0.35351 2.7734 0.35351 0.84034 0 1.2617-0.52388 1.2617-1.5742v-12.861l-15.211 1.3184c-0.16806 0.02144-0.28858 0.03125-0.36328 0.03125-0.78431 0-1.4207-0.32178-1.9062-0.96484-0.4295-0.57875-0.64258-1.3499-0.64258-2.3144 0-2.165 0.83886-3.3226 2.5195-3.4727l15.604-1.3496v-2.6699c0-1.1146 0.41943-1.9603 1.2598-2.5391 0.61624-0.45015 1.3066-0.67578 2.0723-0.67578zm100.14 1.9297c2.2782 0 3.418 1.0713 3.418 3.2148v1.125l17.143-1.125c0.42951-0.02144 0.8316 0.04331 1.2051 0.19336 1.0831 0.45014 1.623 1.3723 1.623 2.7656 0 1.2432-0.3828 2.1635-1.1484 2.7637-0.37348 0.27866-0.79291 0.42974-1.2598 0.45118l-20.531 1.4141c-0.0934 0.81454-0.43953 1.5111-1.0371 2.0898-1.1578 1.0718-3.0352 2.508-5.6309 4.3086v7.6855c1.6433-0.38583 3.9401-1.2001 6.8906-2.4434 0.76564-0.32153 1.402-0.48242 1.9062-0.48242 0.84034 0 1.4835 0.37476 1.9316 1.125 0.24277 0.42871 0.36524 0.9212 0.36524 1.4785 0 1.0075-0.47731 1.8119-1.4297 2.4121-3.268 1.972-6.6486 3.5574-10.141 4.7578-1.3072 0.45014-2.2685 0.67578-2.8848 0.67578-0.69094 0-1.418-0.44932-2.1836-1.3496-0.65359-0.77167-0.98046-1.8018-0.98046-3.0879v-6.9453c-5.8263 2.8938-9.4027 4.3418-10.729 4.3418-1.4939 0-2.2422-0.93394-2.2422-2.7988 0-0.77168 0.29025-1.4035 0.86914-1.8965 0.31746-0.25722 1.1756-0.67515 2.5762-1.2539 3.5854-1.5005 8.151-4.1787 13.697-8.0371l-12.381 0.83593-0.22266 0.03125c-0.67226 0.04287-1.2614-0.19258-1.7656-0.70703-0.54155-0.55732-0.8125-1.3284-0.8125-2.3144 0-2.0578 0.82152-3.1409 2.4648-3.248l17.816-1.1894v-1.5762c0-2.1435 1.1571-3.2148 3.4727-3.2148zm16.779 10.096c0.98973 0 1.8006 0.43951 2.4356 1.3184 0.56022 0.81454 0.8418 1.6818 0.8418 2.6035 0 1.0289-0.42139 1.8549-1.2617 2.4766-1.6807 1.2433-3.5561 2.4107-5.6289 3.5039 3.7162 2.0578 7.6087 3.7628 11.68 5.1133 1.4006 0.47158 2.1016 1.0818 2.1016 1.832 0 0.68594-0.68171 1.2549-2.0449 1.7051-3.1559 1.0503-5.3409 1.5762-6.5547 1.5762-0.69094 0-1.5597-0.31196-2.6055-0.93359-6.0131-3.6012-10.869-7.545-14.566-11.832-1.0458-1.2004-1.5684-2.1971-1.5684-2.9902 0-0.70736 0.24299-1.3078 0.72851-1.8008 0.44818-0.42871 0.91487-0.64258 1.4004-0.64258 0.54155 0 1.1114 0.23546 1.709 0.70704 0.18674 0.15004 0.7759 0.69746 1.7656 1.6406 0.85901 0.79311 1.9794 1.6918 3.3613 2.6992 1.4192-1.2218 3.2773-3.076 5.5742-5.5625 0.85901-0.94316 1.7365-1.4141 2.6328-1.4141zm-131.9 2.0586c0.57889 0 1.3252 0.37476 2.2402 1.125 3.1746 2.5937 4.7617 4.7795 4.7617 6.5586 0 1.0289-0.37413 1.8981-1.1211 2.6055-0.63492 0.60019-1.3726 0.90039-2.2129 0.90039-1.1018 0-1.9406-0.69654-2.5195-2.0898-0.69094-1.7148-1.5038-3.3336-2.4375-4.8555-0.39215-0.6645-0.58789-1.2982-0.58789-1.8984s0.19574-1.1574 0.58789-1.6719c0.35481-0.45014 0.78487-0.67383 1.2891-0.67383z" fill="#386c99"/></svg>
