<?xml version="1.0" encoding="UTF-8"?>
<svg version="1.1" viewBox="0 0 360 120" xml:space="preserve" xmlns="http://www.w3.org/2000/svg"><path d="m5 5v110h110v-110h-110zm120 0v110h230v-110h-230z" fill="#fff"/><path d="m10 0c-5.54 0-10 4.46-10 10v100c0 5.54 4.46 10 10 10h100c5.54 0 10-4.46 10-10 0 5.54 4.46 10 10 10h220c5.54 0 10-4.46 10-10v-100c0-5.54-4.46-10-10-10h-220c-5.54 0-10 4.46-10 10 0-5.54-4.46-10-10-10zm50 7.0293 8.4844 8.4863c10.02 10.02 14.688 10.622 25.369 8.6797l14.146-2.5742v44.379c0 16.42-9.3263 28.984-19.139 36.518-9.8124 7.5333-19.058 11.482-28.861 11.482-9.8221 0-18.87-3.9519-28.707-11.463-9.8373-7.511-19.293-20.059-19.293-36.537v-44.379l14.146 2.5742c10.681 1.942 15.349 1.3404 25.369-8.6797zm190.9 22.377c1.3933 0 2.4646 0.42969 3.2148 1.2871 0.47158 0.55732 0.70704 1.2421 0.70704 2.0566v5.2734l10.74-0.74024h0.25586c1.9292 0 2.8945 0.99675 2.8945 2.9902 0 2.0578-0.94376 3.1507-2.8301 3.2793l-11.061 0.70899v6.3652l9.1641-0.61133 0.25781-0.03124c0.94316-0.04288 1.6927 0.28872 2.25 0.99609 0.38584 0.49301 0.57813 1.1582 0.57813 1.9941 0 1.9721-0.94181 3.0218-2.8281 3.1504l-25.562 1.7695-0.28906 0.03125c-0.75024 0.04287-1.4154-0.19258-1.9941-0.70703-0.57876-0.55732-0.86719-1.3068-0.86719-2.25 0-2.0364 0.94181-3.1194 2.8281-3.248l8.5527-0.57812v-6.3672l-9.6133 0.61133c-1.0932 0.0643-1.9173-0.28887-2.4746-1.0606-0.42871-0.60019-0.64453-1.3399-0.64453-2.2188 0-1.7577 0.95358-2.7015 2.8613-2.8301l9.8711-0.70703v-5.8203c0-1.329 0.6004-2.2826 1.8008-2.8613 0.6645-0.32153 1.3944-0.48242 2.1875-0.48242zm-62.635 0.25781c1.4576 0 2.4759 0.58863 3.0547 1.7676 0.25723 0.51445 0.38477 1.0834 0.38477 1.7051 0 1.4576-0.77111 2.4328-2.3145 2.9258-1.0718 0.34297-3.9011 0.85704-8.4883 1.543-0.55732 0.08574-0.98506 0.15049-1.2852 0.19336v2.9902l20.096-1.4473 0.22461-0.03321c0.6645-0.0643 1.2649 0.09659 1.8008 0.48243 0.75024 0.53588 1.125 1.3835 1.125 2.541 0 1.822-0.9006 2.7972-2.7012 2.9258l-20.545 1.4473v2.7969l12.121-0.80468c0.17148-0.02144 0.39712-0.03125 0.67578-0.03125 3.1081 0 4.6621 1.4676 4.6621 4.4043 0 0.3644-0.0216 0.75093-0.0644 1.1582l-1.5762 13.344c-0.17149 1.4147-0.64239 2.3585-1.4141 2.8301-0.53588 0.32153-1.3188 0.48243-2.3476 0.48243-1.4576 0-2.4759-0.49444-3.0547-1.4805l-9.002 0.48242v3.2793l13.633-0.64258c0.40727-0.02144 0.80362 0.03154 1.1894 0.16015 1.1361 0.36441 1.7031 1.2218 1.7031 2.5723 0 1.9292-0.87902 2.9259-2.6367 2.9902l-13.889 0.61133v2.8301l19.967-0.74023c0.47158-0.02144 0.91109 0.05312 1.3184 0.22461 1.2218 0.45014 1.832 1.4371 1.832 2.959 0 2.1221-0.96535 3.215-2.8945 3.2793l-47.008 1.5762c-0.49301 0.02143-0.94234-0.04331-1.3496-0.19336-1.1789-0.45014-1.7676-1.4155-1.7676-2.8945 0-2.0792 0.9634-3.1604 2.8926-3.2461l19.518-0.70703v-2.7344l-12.99 0.54687h-0.19336c-1.8006-0.04287-2.7012-0.94347-2.7012-2.7012 0-1.8434 0.87902-2.8068 2.6367-2.8926l13.248-0.61133v-3.2793l-7.75 0.41797c-0.64306 1.0075-1.8105 1.5098-3.5039 1.5098-2.0149 0-3.1412-0.94181-3.377-2.8281l-2.0566-16.334v-0.41797c0-1.2004 0.57882-2.0578 1.7363-2.5723 0.62162-0.3001 1.328-0.45117 2.1211-0.45117 1.3933 0 2.4234 0.36494 3.0879 1.0938l9.7422-0.67579v-2.7969l-21.156 1.4785h-0.38672c-1.7577 0-2.6367-0.89865-2.6367-2.6992 0-1.9506 0.87902-2.9905 2.6367-3.1191l21.543-1.543v-2.5078c-5.8733 0.55733-9.6562 0.83594-11.35 0.83594-2.2293 0-3.3438-0.87901-3.3438-2.6367 0-1.1361 0.54547-1.9307 1.6387-2.3809 0.3644-0.17148 1.4043-0.33237 3.1191-0.48242 3.4297-0.34296 8.1132-1.0611 14.051-2.1543 4.2013-0.77168 7.2661-1.3819 9.1953-1.832 1.4362-0.34296 2.3799-0.51367 2.8301-0.51367zm40.48 0.38477c1.2647 0 2.2516 0.39634 2.959 1.1894 0.47158 0.55732 0.70703 1.2342 0.70703 2.0273v24.758c0 0.83598-0.25704 1.5325-0.77149 2.0898-0.68593 0.7288-1.6611 1.0918-2.9258 1.0918-1.672 0-2.808-0.57882-3.4082-1.7363-0.21435-0.40727-0.32226-0.88799-0.32226-1.4453v-5.1133c-4.7587 3.2367-7.9745 4.8555-9.6465 4.8555-1.329 0-2.314-0.62198-2.957-1.8652-0.34297-0.64306-0.51563-1.265-0.51563-1.8652 0-1.6291 1.191-2.8181 3.5703-3.5684 2.7437-0.87885 5.9262-2.1758 9.5488-3.8906v-13.311c0-1.2432 0.53565-2.1438 1.6074-2.7012 0.64306-0.34296 1.3612-0.51562 2.1543-0.51562zm97.07 3.7305c4.1585 0 6.2383 2.0366 6.2383 6.1094 0 0.27866-0.0216 0.66324-0.0645 1.1562l-2.25 25.691c-0.19291 2.2293-1.5232 3.3438-3.9883 3.3438-2.5508 0-3.8792-1.0615-3.9863-3.1836l-10.322 0.54688v18.842c0 0.85741-0.25704 1.5854-0.77148 2.1855-0.79311 0.87885-1.886 1.3184-3.2793 1.3184-1.8006 0-3.0328-0.64161-3.6973-1.9277-0.23579-0.45015-0.35351-0.97598-0.35351-1.5762v-18.391l-9.293 0.48047c-0.0429 0.94316-0.38428 1.6829-1.0274 2.2188-0.77167 0.62163-1.7802 0.93359-3.0234 0.93359-2.4008 0-3.7075-1.0517-3.9219-3.1523l-2.7656-29.74v-0.45118c0-1.2861 0.54546-2.2495 1.6387-2.8926 0.68593-0.38584 1.5022-0.58008 2.4453-0.58008 1.8434 0 3.0855 0.57881 3.7285 1.7363l33.697-2.6367c0.21436-0.02144 0.54595-0.03125 0.9961-0.03125zm-109.58 0.90039c1.1575 0 2.9057 0.79268 5.2422 2.3789 2.0364 1.3504 3.0547 2.7435 3.0547 4.1797 0 0.81455-0.35514 1.6072-1.0625 2.3789-0.68594 0.7288-1.5532 1.0938-2.6035 1.0938-1.0075 0-1.8335-0.49249-2.4766-1.4785-0.79311-1.2432-1.886-2.5402-3.2793-3.8906-0.87885-0.85742-1.3184-1.6501-1.3184-2.3789 0-0.47158 0.16089-0.92285 0.48242-1.3516 0.45015-0.62163 1.1035-0.93164 1.9609-0.93164zm-156.24 4.7656c-7.6349 5.242-15.803 8.0994-24 8.8906v17.664c0 7.5222 3.9782 12.974 9.8574 17.463 5.8793 4.489 14.831 6.5371 14.143 6.5371-0.32509 0 8.43-2.0509 14.248-6.5176 5.818-4.4666 9.752-9.9027 9.752-17.482v-17.664c-8.1967-0.79125-16.365-3.6486-24-8.8906zm261.89 1.0547c-0.0643 0-0.1938 0.0098-0.38672 0.03125l-10.191 0.80469v6.3652l11.992-0.86719 0.32227-4.2773v-0.32031c0-1.1575-0.57882-1.7363-1.7363-1.7363zm-18.424 1.4785-11.543 0.93164 0.51368 6.1094 11.029-0.77148zm19.324 11.445-11.479 0.77344v6.8476l10.932-0.61133zm-134.95 0.77344-0.25782 0.03125-8.0371 0.51367v2.7656l9.3887-0.54687 0.0957-1.2207c0-1.0932-0.39634-1.6073-1.1894-1.543zm115.62 0.51367-10.482 0.70703 0.54688 6.5918 9.9355-0.54688zm-131.15 0.51367-8.8438 0.58008 0.25781 2.668 8.5859-0.51368zm69.418 2.959c2.6151 0 3.9219 1.0713 3.9219 3.2148v1.125l19.678-1.125c0.49301-0.02144 0.9541 0.04331 1.3828 0.19336 1.2432 0.45014 1.8652 1.3723 1.8652 2.7656 0 1.2432-0.4395 2.1635-1.3184 2.7637-0.4287 0.27866-0.91138 0.42974-1.4473 0.45118l-23.568 1.4141c-0.10718 0.81454-0.50352 1.5111-1.1894 2.0898-1.329 1.0718-3.4834 2.508-6.4629 4.3086v7.6855c1.8863-0.38583 4.5234-1.2001 7.9102-2.4434 0.87885-0.32153 1.6088-0.48242 2.1875-0.48242 0.9646 0 1.7024 0.37476 2.2168 1.125 0.27866 0.42871 0.41797 0.9212 0.41797 1.4785 0 1.0075-0.54547 1.8119-1.6387 2.4121-3.7512 1.972-7.6322 3.5574-11.641 4.7578-1.5005 0.45014-2.6032 0.67578-3.3106 0.67578-0.79311 0-1.629-0.44932-2.5078-1.3496-0.75024-0.77167-1.125-1.8018-1.125-3.0879v-6.9453c-6.6878 2.8938-10.794 4.3418-12.316 4.3418-1.7148 0-2.5723-0.93394-2.5723-2.7988 0-0.77168 0.33355-1.4035 0.99805-1.8965 0.3644-0.25722 1.3494-0.67515 2.957-1.2539 4.1156-1.5005 9.3563-4.1787 15.723-8.0371l-14.211 0.83593-0.25782 0.03125c-0.77167 0.04287-1.4466-0.19258-2.0254-0.70703-0.62162-0.55732-0.93164-1.3284-0.93164-2.3144 0-2.0578 0.94377-3.1409 2.8301-3.248l20.449-1.1894v-1.5762c0-2.1435 1.3283-3.2148 3.9863-3.2148zm-53.084 3.1504-9.0996 0.51563v3.0215l8.9062-0.48242zm-16.334 0.9336-8.168 0.48242 0.28906 2.9258 7.8789-0.41797zm88.678 6.0117c1.1361 0 2.0681 0.43951 2.7969 1.3184 0.64306 0.81454 0.96484 1.6818 0.96484 2.6035 0 1.0289-0.48267 1.8549-1.4473 2.4766-1.9292 1.2433-4.0836 2.4107-6.4629 3.5039 4.2656 2.0578 8.7353 3.7628 13.408 5.1133 1.6076 0.47158 2.4121 1.0818 2.4121 1.832 0 0.68594-0.78287 1.2549-2.3477 1.7051-3.6226 1.0503-6.1301 1.5762-7.5234 1.5762-0.79311 0-1.7899-0.31196-2.9902-0.93359-6.9022-3.6012-12.476-7.545-16.721-11.832-1.2004-1.2004-1.7988-2.1971-1.7988-2.9902 0-0.70736 0.27862-1.3078 0.83594-1.8008 0.51445-0.42871 1.0501-0.64258 1.6074-0.64258 0.62163 0 1.275 0.23546 1.9609 0.70704 0.21435 0.15004 0.88931 0.69746 2.0254 1.6406 0.98603 0.79311 2.2712 1.6918 3.8574 2.6992 1.6291-1.2218 3.7619-3.076 6.3984-5.5625 0.98602-0.94316 1.9945-1.4141 3.0234-1.4141z" fill="#b58b2d"/></svg>
