<?xml version="1.0" encoding="UTF-8"?>
<svg version="1.1" viewBox="0 0 300 120" xmlns="http://www.w3.org/2000/svg">
 <rect x="5" y="20" width="290" height="80" fill="#fff"/>
 <path d="m10 0c-5.54 0-10 4.46-10 10v100c0 5.54 4.46 10 10 10h280c5.54 0 10-4.46 10-10v-100c0-5.54-4.46-10-10-10zm16.854 26.561h23.359v11.625h-19.627c-2.24 0-3.0918 1.1748-3.0918 3.5215v7.252c0 1.3867 0.53281 2.6666 2.1328 3.3066l15.893 5.1211c4.8 2.0267 7.1465 5.1198 7.1465 10.453v14.613c0 7.2534-4.0524 10.986-11.732 10.986h-24.213v-11.84h20.693c2.24 0 2.9863-1.387 2.9863-3.627v-6.7188c0-1.28-0.21414-2.5612-1.4941-3.2012l-16.32-5.332c-5.0133-2.1333-7.3594-4.801-7.3594-10.348v-14.506c1e-6 -7.68 3.8403-11.307 11.627-11.307zm32.746 0h25.707c7.4667 0 11.734 4.4785 11.734 12.479v18.561c0 8.5334-4.0538 12.906-12.48 12.906h-12.588v22.934h-12.373zm44.375 0h33.92v11.625h-21.441v14.828h18.24v11.84h-18.24v16.746h21.441v11.84h-33.92zm51.84 0h21.014v11.625h-17.068c-2.6667 0-3.9453 1.2818-3.9453 3.8418v35.945c0 2.7733 1.492 3.627 3.9453 3.627h17.068v11.84h-20.908c-8.2134 0-12.373-4.3724-12.373-11.732v-43.094c0-7.68 4.8009-12.053 12.268-12.053zm27.52 0h12.373v66.879h-12.373zm32.641 0h15.572l14.4 66.879h-12.693l-2.4531-12.586h-14.188l-2.4531 12.586h-12.586zm35.52 0h12.373v55.039h20.906v11.84h-33.279zm-179.52 11.625v20.268h9.4941c2.4533 0 3.4141-1.0666 3.4141-3.3066v-13.652c0-2.1333-1.3874-3.3086-3.4141-3.3086zm151.68 5.8672-4.8008 25.066h9.707z" fill="#000080"/>
</svg>
