<?xml version="1.0" encoding="UTF-8"?>
<svg version="1.1" viewBox="0 0 300 120" xmlns="http://www.w3.org/2000/svg">
 <rect x="5" y="20" width="290" height="80" fill="#fff"/>
 <path d="m10 0c-5.54 0-10 4.46-10 10v100c0 5.54 4.46 10 10 10h280c5.54 0 10-4.46 10-10v-100c0-5.54-4.46-10-10-10h-280zm12.098 25.209h24.303v12.096h-20.42c-2.3306-1e-6 -3.2188 1.2206-3.2188 3.6621v7.5469c0 1.4427 0.55602 2.7736 2.2207 3.4395l16.535 5.3281c4.994 2.1086 7.4355 5.3261 7.4355 10.875v15.205c0 7.5466-4.2166 11.43-12.207 11.43h-25.191v-12.318h21.529c2.3306 0 3.1074-1.4429 3.1074-3.7734v-6.9902c0-1.3317-0.22294-2.6642-1.5547-3.3301l-16.979-5.5488c-5.216-2.2196-7.6582-4.9947-7.6582-10.766v-15.092c0-7.9905 3.9962-11.764 12.098-11.764zm29.076 0h37.732v12.096h-12.764v57.486h-12.873v-57.486h-12.096v-12.096zm44.059 0h25.635c8.4344 0 13.318 3.7732 13.318 11.764v18.533c0 6.5478-2.4408 10.542-7.2129 12.096l7.2129 27.189h-12.762l-7.1035-26.523h-6.2148v26.523h-12.873v-69.582zm46.721 0h12.875v69.582h-12.875v-69.582zm20.865 0h12.873v26.855l12.43-26.855h15.094l-16.537 34.291 16.869 35.291h-15.094l-12.762-27.744v27.744h-12.873v-69.582zm46.5 0h35.291v12.096h-22.307v15.426h18.977v12.318h-18.977v17.424h22.307v12.318h-35.291v-69.582zm41.729 0h25.635c8.4344 0 13.318 3.7732 13.318 11.764v18.533c0 6.5478-2.4408 10.542-7.2129 12.096l7.2129 27.189h-12.764l-7.1016-26.523h-6.2148v26.523h-12.873v-69.582zm-142.94 12.096v18.867h9.5449c2.6635 0 3.8828-1.2209 3.8828-3.7734v-11.432c0-2.5525-1.2193-3.6621-3.8828-3.6621h-9.5449zm155.81 0v18.867h9.5449c2.6635 0 3.8828-1.2209 3.8828-3.7734v-11.432c0-2.5525-1.2193-3.6621-3.8828-3.6621h-9.5449z" fill="#800000"/>
</svg>
