<?xml version="1.0" encoding="UTF-8"?>
<svg version="1.1" viewBox="0 0 100 100" xmlns="http://www.w3.org/2000/svg">
 <path d="m35.053 0a5.0005 5.0005 0 0 0-1.2656 0.14844l-20 5a5.0005 5.0005 0 0 0-3.6895 3.8711l-10 50a5.0005 5.0005 0 0 0 2.3828 5.2988l60 35a5.0005 5.0005 0 0 0 4.1016 0.42578l30-10a5.0005 5.0005 0 0 0 3.4023-5.127l-5-65a5.0005 5.0005 0 0 0-3.668-4.4414l-55-15a5.0005 5.0005 0 0 0-1.2637-0.17578z" fill="#808080"/>
 <path d="m33.639 14.967a2.5 2.5 0 0 0-2.291 1.5723 2.5 2.5 0 0 0 1.3926 3.25l29.76 11.902v28.309c0 1.3807 1.1193 2.5 2.5 2.5s2.5-1.1193 2.5-2.5v-28.309l15.648-6.2578a2.5 2.5 0 0 0 1.3926-3.25 2.5 2.5 0 0 0-3.25-1.3926l-16.291 6.5156-30.402-12.16a2.5 2.5 0 0 0-0.95898-0.17969z" fill="#fff"/>
</svg>
