<?xml version="1.0" encoding="UTF-8"?>
<svg version="1.1" viewBox="0 0 360 120" xml:space="preserve" xmlns="http://www.w3.org/2000/svg"><path d="m5 5v110h110v-110h-110zm120 0v110h230v-110h-230z" fill="#fff"/><path d="m10 0c-5.54 0-10 4.46-10 10v100c0 5.54 4.46 10 10 10h100c5.54 0 10-4.46 10-10 0 5.54 4.46 10 10 10h220c5.54 0 10-4.46 10-10v-100c0-5.54-4.46-10-10-10h-220c-5.54 0-10 4.46-10 10 0-5.54-4.46-10-10-10zm62 12h36v36l-55.199 38.4-19.201-19.201zm196.92 17.357c1.2991 0 2.2627 0.552 2.8906 1.6562 0.25983 0.4547 0.38867 0.96244 0.38867 1.5254 0 1.4074-0.77894 2.3287-2.3379 2.7617-1.2342 0.34643-3.0421 0.73493-5.4238 1.168v3.1191l10.719-0.8457c0.41139-0.04331 0.83259 9.4e-4 1.2656 0.13086 1.1909 0.32478 1.7871 1.1691 1.7871 2.5332 0 1.8621-0.88859 2.8584-2.6641 2.9883l-11.107 0.84375v2.8906l7.0488-0.55274c0.38974-0.02165 0.61669-0.03125 0.68164-0.03125 2.8148 0 4.2227 1.3521 4.2227 4.0586 0 0.30312-0.0115 0.56472-0.0332 0.78125l-1.2012 12.764c-0.15156 1.6889-1.2248 2.5332-3.2168 2.5332-1.3641 0-2.2719-0.43274-2.7266-1.2988l-4.7754 0.32422v3.1816l8.1191-0.61523c0.67122-0.0433 1.2348 0.0644 1.6895 0.32422 0.77947 0.45469 1.1699 1.2125 1.1699 2.2734 0 1.7322-0.81164 2.6631-2.4356 2.793l-8.543 0.64844v3.0215l2.793-0.42187c2.1869-0.32478 3.7467-0.57483 4.6777-0.74805 1.2558-0.23817 2.0559-0.35742 2.4023-0.35742 1.2342 0 1.9593 0.72704 2.1758 2.1777 3.7242-7.1668 6.3341-15.785 7.8281-25.854l-3.832 0.45508c-0.25983 0.02165-0.42333 0.03125-0.48829 0.03125-0.90938 0-1.6556-0.3135-2.2402-0.94141s-0.87695-1.4722-0.87695-2.5332c0-2.2518 0.97514-3.4866 2.9238-3.7031l5.3574-0.51953c0.36808-4.6336 0.59698-8.6494 0.68359-12.049 0.0866-2.3817 1.3194-3.5723 3.7012-3.5723 1.1259 0 2.0356 0.29234 2.7285 0.87695 0.69286 0.58461 1.0391 1.354 1.0391 2.3066 0 1.9703-0.2808 5.8786-0.84375 11.725l4.0586-0.42383c0.498-0.0433 0.88845-0.06445 1.1699-0.06445 3.7242 0 5.5859 2.0464 5.5859 6.1387 0 6.3657-0.47504 13.544-1.4277 21.533-0.82278 6.6905-1.7114 11.085-2.6641 13.186-1.1043 2.3817-2.8141 3.5723-5.1309 3.5723-1.3857 0-3.2264-0.56159-5.5215-1.6875-3.1396-1.559-4.709-3.0111-4.709-4.3535 0-0.38974 0.1077-0.78978 0.32422-1.2012 0.38973-0.75782 1.0398-1.1367 1.9492-1.1367 0.47634 0 1.061 0.15195 1.7539 0.45508 1.2342 0.5413 2.2939 0.8125 3.1816 0.8125 1.0176 0 1.7216-0.66164 2.1113-1.9824 0.51965-1.927 1.0928-5.087 1.7207-9.4824 0.32479-2.425 0.70368-6.2255 1.1367-11.4 0.21652-2.7282 0.32617-4.4611 0.32617-5.1973 0-1.2991-0.55199-1.9473-1.6562-1.9473-0.21652 0-0.38002 0.0096-0.48828 0.03125l-2.5976 0.25977c-1.3641 9.7434-3.7567 18.025-7.1777 24.846-1.8404 3.7025-3.908 6.8856-6.2031 9.5488-0.82278 0.95269-1.6787 1.4297-2.5664 1.4297-0.67121 0-1.2982-0.2712-1.8828-0.8125-0.51965-0.498-0.7793-1.0923-0.7793-1.7852 0-0.64956 0.54044-1.7862 1.623-3.4102 0.17322-0.25983 0.36746-0.56373 0.58398-0.91016-0.71452 0.36808-2.6186 0.93163-5.7148 1.6894-5.9543 1.429-12.451 2.6292-19.488 3.6035-1.494 0.19487-2.3922 0.29297-2.6953 0.29297-1.9703 0-2.9551-1.0924-2.9551-3.2793 0-1.2558 0.46544-2.1233 1.3965-2.5996 0.30313-0.17322 1.1686-0.32516 2.5977-0.45508 2.0353-0.17321 5.0992-0.54056 9.1914-1.1035v-3.5078l-7.6973 0.58399c-1.9487 0.15156-2.9219-0.73507-2.9219-2.6621 0-1.7322 0.84434-2.6631 2.5332-2.793l8.0859-0.58398v-3.248l-4.125 0.25977c-0.45469 1.061-1.4067 1.5898-2.8574 1.5898-1.8837 0-2.9223-0.86549-3.1172-2.5977l-1.7227-15.232c-0.0217-0.15156-0.0312-0.31311-0.0312-0.48633 0-1.6672 1.0924-2.502 3.2793-2.502 1.0826 0 1.9173 0.31545 2.502 0.94336l6.0723-0.48828v-2.9219l-11.432 0.87696h-0.39062c-1.7322 0-2.5977-0.87704-2.5977-2.6309 0-1.7971 0.86549-2.7607 2.5977-2.8906l11.822-0.94336v-2.4023c-4.1139 0.67121-6.5815 1.0059-7.4043 1.0059-1.2125 0-2.0242-0.47504-2.4356-1.4277-0.17322-0.38973-0.25977-0.73593-0.25976-1.0391 0-1.0393 0.54044-1.7548 1.623-2.1445 0.23817-0.08661 0.88827-0.21546 1.9492-0.38867 4.7202-0.73617 9.7208-1.971 15.004-3.7031 1.3857-0.45469 2.3609-0.68164 2.9238-0.68164zm-80.318 0.12891c1.2775 0 2.2622 0.40004 2.9551 1.2012 0.47635 0.5413 0.71485 1.2125 0.71485 2.0137v9.4512l2.8574-0.35546c0.19487-0.02166 0.33527-0.03321 0.42187-0.03321 2.0786 0 3.1192 1.2444 3.1192 3.7344 0 2.0353-0.90974 3.172-2.7285 3.4102l-3.6699 0.48828v7.7617c0.62791-0.28147 1.4068-0.62767 2.3379-1.0391 0.82278-0.38974 1.571-0.58398 2.2422-0.58398 0.88773 0 1.6224 0.35579 2.207 1.0703 0.38973 0.498 0.58593 1.0731 0.58593 1.7226 0 0.996-0.54239 1.8615-1.625 2.5977-1.2125 0.82278-2.9877 1.8191-5.3262 2.9883l-0.42187 0.19532v19.518c0 3.6809-1.5598 5.5215-4.6777 5.5215-2.1002 0-4.7737-0.93089-8.0215-2.793-1.4507-0.82278-2.1758-1.7325-2.1758-2.7285 0-1.429 0.82319-2.1426 2.4688-2.1426 0.30313 0 0.64932 0.0423 1.0391 0.1289 1.1909 0.28148 2.0236 0.42383 2.5 0.42383 1.0393 0 1.5586-0.59624 1.5586-1.7871v-12.861c-2.3384 0.97435-3.9078 1.4609-4.709 1.4609-1.4723 0-2.5109-0.63854-3.1172-1.916-0.28148-0.60625-0.42187-1.2121-0.42187-1.8184 0-1.3641 0.65969-2.3931 1.9805-3.0859 0.30312-0.12992 0.95322-0.35686 1.9492-0.68164 1.0393-0.32479 2.4779-0.80178 4.3184-1.4297v-9.5469l-4.1894 0.55079c-0.19487 0.02165-0.35641 0.0332-0.48633 0.0332-2.057 0-3.0859-1.3309-3.0859-3.9941 0-1.927 0.89819-3.0003 2.6953-3.2168l5.0664-0.64844v-10.395c0-1.2991 0.5751-2.23 1.7227-2.793 0.60626-0.28147 1.2448-0.42187 1.916-0.42187zm43.326 2.5332h0.38867c1.3641 0 2.295 0.69435 2.793 2.0801 0.19487 0.51965 0.29297 1.0485 0.29297 1.5898 0 1.1909-0.42315 2.0795-1.2676 2.6641-0.43304 0.30312-0.91964 0.47622-1.4609 0.51953l-23.969 2.1113c-0.0216 4.8501-0.389 10.328-1.1035 16.434 0.49799-0.58461 1.1577-0.90965 1.9805-0.97461l24.359-2.2734c1.0393-0.08661 1.8721 0.23844 2.5 0.97461 0.5413 0.67122 0.8125 1.504 0.8125 2.5 0 1.8837-0.90974 2.9031-2.7285 3.0547l-18.154 1.5586v19c0.77947-0.30313 2.1104-0.99747 3.9941-2.0801 0.62791-0.36808 1.2126-0.55078 1.7539-0.55078 0.73617 0 1.3093 0.30195 1.7207 0.90821 0.32478 0.51965 0.48828 1.0389 0.48828 1.5586 0 0.80113-0.46545 1.6147-1.3965 2.4375-2.5766 2.2735-5.0673 4.0698-7.4707 5.3906-0.86608 0.47634-1.5585 0.71484-2.0781 0.71484-0.73618 0-1.6363-0.46545-2.6973-1.3965-0.5413-0.49799-0.8875-1.05-1.0391-1.6562-0.0866-0.43304-0.12891-1.2562-0.12891-2.4688v-21.273c-1.1692-0.10826-1.9597-0.73525-2.3711-1.8828-1.1476 8.0546-2.9132 14.734-5.2949 20.039-0.80113 1.7755-1.482 3.0622-2.0449 3.8633-0.75782 1.0393-1.6464 1.5606-2.6641 1.5606-0.56295 0-1.1034-0.17506-1.623-0.52149-0.88773-0.56295-1.332-1.3419-1.332-2.3379 0-0.45469 0.2712-1.3202 0.8125-2.5977 2.5116-5.7378 4.2215-12.623 5.1309-20.656 0.56296-4.8934 0.963-11.183 1.2012-18.869-1.3208-0.498-1.9805-1.6135-1.9805-3.3457 0-2.1002 0.95203-3.2369 2.8574-3.4102zm-3.541 11.627h0.32422c0.93104 0 1.7004 0.3366 2.3066 1.0078 0.51965 0.5846 0.7793 1.2981 0.7793 2.1426 0 1.2558-0.43275 2.1867-1.2988 2.793-0.41139 0.30313-0.88839 0.47818-1.4297 0.52149l-14.971 1.3301-0.35742 0.0332c-0.88774 0-1.6244-0.3462-2.209-1.0391-0.498-0.58461-0.74804-1.3001-0.74804-2.1445 0-1.927 0.90974-2.9772 2.7285-3.1504zm40.047 8.7383-4.3203 0.29101v2.6309l5.457-0.35742 0.0645-1.3633c0-0.86609-0.40005-1.2661-1.2012-1.2012zm-10.621 0.74609-5.4238 0.39062 0.22657 2.5332 5.1973-0.32617zm11.498 5.9434-5.1973 0.29297v2.7285l5.0332-0.35742zm-11.498 0.68164-4.8398 0.29297 0.25977 2.793 4.5801-0.32422zm-239.81 0.24414 42 42-6 6-14.4-14.4-15.6 20.4-18-18 20.4-15.6-14.4-14.4zm202.98 3.0371c0.75782 0 1.4175 0.35775 1.9805 1.0723 0.23818 0.25982 0.70362 1.1138 1.3965 2.5644 0.51965 1.0826 1.1582 2.1866 1.916 3.3125 2.2735-2.4034 3.8006-4.1671 4.5801-5.293 0.73617-1.061 1.6248-1.5918 2.6641-1.5918 0.88774 0 1.7417 0.36735 2.5645 1.1035 0.90939 0.80113 1.3652 1.6782 1.3652 2.6309s-0.48854 1.874-1.4629 2.7617c-1.3641 1.2125-3.5394 2.7819-6.5273 4.709 2.7498 3.2695 5.6733 6.0737 8.7695 8.4121 1.2342 0.90939 1.8516 1.6133 1.8516 2.1113 0 0.38974-0.48855 0.76863-1.4629 1.1367-2.4683 0.95269-4.232 1.4277-5.293 1.4277-1.0176 0-1.9716-0.51929-2.8594-1.5586-4.7202-5.4563-8.3899-11.074-11.01-16.855-0.77947-1.7322-1.168-2.9227-1.168-3.5723 0-0.80112 0.36735-1.4185 1.1035-1.8516 0.56295-0.34643 1.0938-0.51953 1.5918-0.51953z" fill="#8f4aa3"/></svg>
