<?xml version="1.0" encoding="UTF-8"?>
<svg version="1.1" viewBox="0 0 360 120" xml:space="preserve" xmlns="http://www.w3.org/2000/svg"><path d="m5 5v110h110v-110h-110zm120 0v110h230v-110h-230z" fill="#fff"/><path d="m10 0c-5.54 0-10 4.46-10 10v100c0 5.54 4.46 10 10 10h100c5.54 0 10-4.46 10-10 0 5.54 4.46 10 10 10h220c5.54 0 10-4.46 10-10v-100c0-5.54-4.46-10-10-10h-220c-5.54 0-10 4.46-10 10 0-5.54-4.46-10-10-10zm62 12h36v36l-55.199 38.4-19.201-19.201zm216.81 18.396c1.429 0 2.5561 0.33465 3.3789 1.0059 0.73617 0.58461 1.1035 1.3424 1.1035 2.2734 0 1.3641-0.7155 2.6739-2.1445 3.9297-2.4467 2.1652-5.272 4.202-8.4766 6.1074 0.28148 0.43304 0.46613 0.86579 0.55274 1.2988l7.6328-0.74805c0.41139-0.0433 0.79028-0.06445 1.1367-0.06445 3.3994 0 5.0976 1.8195 5.0976 5.457v25.137c0 3.3344-1.3425 5.002-4.0273 5.002-1.3641 0-3.1162-0.47504-5.2598-1.4277-2.3168-1.0393-3.4766-2.1452-3.4766-3.3145 0-1.3641 0.65009-2.0449 1.9492-2.0449 0.28148 0 0.60652 0.05385 0.97461 0.16211 0.73617 0.23817 1.342 0.35742 1.8184 0.35742 0.60626 0 0.91016-0.44429 0.91016-1.332v-5.2617l-7.0488 0.51953v7.5352c0 0.71452-0.2481 1.3319-0.7461 1.8516-0.64956 0.67122-1.5478 1.0078-2.6953 1.0078-1.429 0-2.4465-0.48855-3.0527-1.4629-0.23818-0.41139-0.35743-0.87684-0.35743-1.3965v-7.0469l-6.334 0.45507v5.3906c0 0.73617-0.22695 1.3536-0.68164 1.8516-0.69287 0.75783-1.6353 1.1367-2.8262 1.1367-1.429 0-2.458-0.49814-3.0859-1.4941-0.25983-0.43304-0.38867-0.93119-0.38867-1.4941v-25.594c0-1.0826 0.46544-1.8942 1.3965-2.4356 0.64957-0.36808 1.3535-0.55078 2.1113-0.55078 1.2125 0 2.1646 0.40964 2.8574 1.2324l6.334-0.64843c-1.429-1.1259-2.8908-2.1434-4.3848-3.0527-0.95269-0.58461-1.4297-1.3001-1.4297-2.1445 0-0.43304 0.11925-0.84464 0.35743-1.2344 0.43304-0.69287 1.1158-1.0391 2.0469-1.0391s3.1275 0.86744 6.5918 2.5996c1.3208-0.77947 2.6306-1.7008 3.9297-2.7617 0.51966-0.43304 0.7793-0.76768 0.7793-1.0059 0-0.19487-0.1731-0.29296-0.51953-0.29296-0.12991 0-0.24721 0.01155-0.35547 0.0332l-16.793 1.8496c-0.17321 0.02165-0.30206 0.0332-0.38867 0.0332-1.2125 0.06496-2.0473-0.56203-2.502-1.8828-0.17322-0.47635-0.25977-0.98604-0.25977-1.5274 0-1.2342 0.5424-2.0901 1.625-2.5664 0.28148-0.12991 0.59498-0.21646 0.94141-0.25977l22.832-2.1113c0.21652-0.02165 0.50887-0.03125 0.87695-0.03125zm-95.973 0.09766c1.7755 0 2.9448 0.49814 3.5078 1.4941l23.189-1.2344h0.48633c3.1829 0 4.7754 1.4617 4.7754 4.3848 0 0.47635-0.077 1.4495-0.22851 2.9219l7.9258-0.51953c0.80112-0.04331 1.4493 0.12979 1.9473 0.51953 0.64957 0.51965 0.97461 1.289 0.97461 2.3066 0 1.8837-0.93089 2.8685-2.793 2.9551l-8.6719 0.45507c-0.34644 3.053-0.63878 5.0994-0.87696 6.1387-0.45469 1.992-1.8279 2.9883-4.123 2.9883-1.6889 0-2.8044-0.4347-3.3457-1.3008l-24.229 1.2344c-0.38974 0.02165-0.70519 0.0332-0.94336 0.0332-3.1612 0-4.7402-1.0617-4.7402-3.1836 0-0.47635 0.17309-1.3418 0.51953-2.5977 0.12991-0.51965 0.24916-0.97354 0.35742-1.3633l-8.0879 0.51953-0.25977 0.03125c-0.67121 0.04331-1.2675-0.16249-1.7871-0.61718-0.5846-0.498-0.87695-1.2327-0.87695-2.207 0-1.9054 0.88859-2.9017 2.6641-2.9883l9.6465-0.45507c0.41139-1.9703 0.79988-3.9514 1.168-5.9434 0.28147-1.5156 0.79117-2.5235 1.5273-3.0215 0.58461-0.36808 1.3424-0.55078 2.2734-0.55078zm53.557 1.0391c1.8188 0 4.4056 1.1251 7.7617 3.377 1.1692 0.77947 2.0905 1.5046 2.7617 2.1758 0.88773 0.84443 1.3301 1.8196 1.3301 2.9238 0 0.82278-0.26924 1.6229-0.81054 2.4023-0.80113 1.1476-1.8744 1.7227-3.2168 1.7227-1.0826 0-2.1-0.59625-3.0527-1.7871-0.90939-1.1476-2.7808-2.9555-5.6172-5.4238-1.1259-0.996-1.6895-1.9365-1.6895-2.8242 0-0.60626 0.2058-1.1698 0.61719-1.6894 0.4547-0.58461 1.0932-0.87696 1.916-0.87696zm-30.4 4.4824-6.332 0.35743c-0.0866 0.75782-0.21741 1.731-0.39063 2.9219l7.8594-0.42187c0.0866-0.73617 0.13085-1.3209 0.13085-1.7539 0-0.77947-0.42314-1.1468-1.2676-1.1035zm-13.283 0.7461-6.7559 0.39062c-0.17321 0.90939-0.35591 1.873-0.55078 2.8906l6.8848-0.35742c0.12991-0.88774 0.27031-1.8629 0.42187-2.9238zm13.803 7.0488-8.0547 0.38867c-0.19487 1.0176-0.41026 2.0466-0.64844 3.0859l8.1836-0.39063c0.23817-1.3857 0.41127-2.4128 0.51953-3.084zm-15.135 0.74609-7.1777 0.32422c-0.065 0.21652-0.17266 0.59542-0.32422 1.1367-0.17322 0.60626-0.25977 1.0178-0.25977 1.2344 0 0.47635 0.29235 0.7033 0.87696 0.68164h0.29297l5.877-0.29101c0.21652-0.84443 0.45502-1.8734 0.71484-3.0859zm87.781 5.3848c-0.0781-0.0061-0.16264-5e-3 -0.25195 0.0059l-0.32422 0.0332-5.6523 0.55273v3.3438l7.0488-0.61523v-1.9493c0-0.8715-0.27326-1.3285-0.82032-1.3711zm-34.225 0.62304c0.996 0 1.8307 0.2385 2.502 0.71485 0.88773 0.60626 1.3301 1.5044 1.3301 2.6953 0 1.1043-0.44234 2.3506-1.3301 3.7363-2.0786 3.2695-3.1191 5.2716-3.1191 6.0078 0 0.51965 0.37889 0.93125 1.1367 1.2344 2.5983 0.97435 3.8984 2.2399 3.8984 3.7988 0 1.1043-0.58469 2.2525-1.7539 3.4434-0.82278 0.82278-2.2518 2.046-4.2871 3.6699 2.6632 0.06496 6.506 0.64006 11.529 1.7227 5.6079 1.2125 11.822 2.2068 18.643 2.9863 6.7771 0.77947 12.526 1.2026 17.246 1.2676 2.4683 0.02165 3.7031 0.48709 3.7031 1.3965 0 0.67122-0.96359 1.656-2.8906 2.9551-1.7538 1.1692-3.1194 1.9924-4.0938 2.4688-1.429 0.71452-2.7927 1.0723-4.0918 1.0723-0.47635 0-1.4495-0.11925-2.9219-0.35743-6.3008-1.0393-15.569-3.0857-27.803-6.1387-4.2655-1.061-7.5678-1.5918-9.9062-1.5918-1.6889 0-4.0584 0.42315-7.1113 1.2676-0.62791 0.17322-1.126 0.25977-1.4941 0.25977-1.992 0-2.9883-1.1598-2.9883-3.4766 0-1.4507 0.68279-2.4027 2.0469-2.8574 0.4547-0.15156 1.4606-0.32466 3.0195-0.51953 1.494-1.4507 3.0096-3.2913 4.5469-5.5215 0.47635-0.69287 0.71484-1.2237 0.71484-1.5918 0-0.51965-0.44429-0.98509-1.332-1.3965-1.4723-0.71452-2.209-1.732-2.209-3.0527 0-1.6889 0.75779-3.9295 2.2734-6.7226l-4.6426 1.2012c-0.4547 0.10826-0.86629 0.16211-1.2344 0.16211-1.2991 0-2.1762-0.74624-2.6309-2.2402-0.15156-0.5413-0.22851-1.0183-0.22851-1.4297 0-1.7971 0.81164-2.8473 2.4355-3.1504l9.6465-1.8516c0.498-0.10826 0.96344-0.16211 1.3965-0.16211zm21.145 0.61719-6.334 0.61719v3.248l6.334-0.55274zm-55.182 2.6309c3.2478 0 4.873 1.6252 4.873 4.873v18.025c0 0.90939-0.39045 1.6345-1.1699 2.1758-0.77948 0.5413-1.7546 0.81055-2.9238 0.81055-1.6456 0-2.8361-0.49815-3.5723-1.4942l-25.494 1.332c-0.77947 0.77947-1.8854 1.1699-3.3144 1.1699-1.4723 0-2.5859-0.40005-3.3438-1.2012-0.45469-0.47635-0.68359-1.0514-0.68359-1.7227v-20.137c0-1.1476 0.56354-1.9804 1.6894-2.5 0.71452-0.34643 1.505-0.51953 2.3711-0.51953 1.0393 0 1.9702 0.25965 2.793 0.7793l28.256-1.5586c0.32478-0.02165 0.49788-0.0332 0.51953-0.0332zm69.082 4.4492-7.0488 0.58594v3.5391l7.0488-0.51953zm-73.92 0.22851-22.736 1.2988v2.209l24.326-1.332v-0.71485c0-0.97434-0.43275-1.4609-1.2988-1.4609zm60.02 0.90821-6.334 0.55273v3.4434l6.334-0.48828zm-258.08 0.60156 42 42-6 6-14.4-14.4-15.6 20.4-18-18 20.4-15.6-14.4-14.4zm199.65 4.6289-24.326 1.2988v2.4688l24.326-1.3008zm0 6.3965-24.326 1.3008v2.5977l24.326-1.2012zm-20.07 8.543c1.2991 0 2.2723 0.55199 2.9219 1.6562 0.34643 0.60626 0.51953 1.2448 0.51953 1.916 0 1.4507-0.76739 2.522-2.3047 3.2148-2.9014 1.2991-7.0481 2.4685-12.439 3.5078-2.2302 0.43304-3.7034 0.65039-4.418 0.65039-1.9487 0-2.9219-0.95399-2.9219-2.8594 0-1.0176 0.47504-1.7523 1.4277-2.207 0.25983-0.12992 0.88877-0.30301 1.8848-0.51954 4.5686-1.0393 8.9211-2.6318 13.057-4.7754 0.77947-0.38973 1.5373-0.58398 2.2734-0.58398zm17.246 0.03125c2.1002 0 5.3911 0.67124 9.873 2.0137 2.4034 0.73617 4.1459 1.3651 5.2285 1.8848 1.494 0.73617 2.2402 1.819 2.2402 3.248 0 0.58461-0.15 1.1693-0.45313 1.7539-0.67121 1.2991-1.754 1.9492-3.248 1.9492-0.80112 0-1.884-0.34815-3.248-1.041-2.6632-1.3641-6.2906-2.9758-10.881-4.8379-1.4507-0.5846-2.1758-1.4289-2.1758-2.5332 0-1.6239 0.88859-2.4375 2.6641-2.4375z" fill="#b58b2d"/></svg>
