<?xml version="1.0" encoding="UTF-8"?>
<svg version="1.1" viewBox="0 0 360 120" xml:space="preserve" xmlns="http://www.w3.org/2000/svg"><path d="m5 5v110h110v-110h-110zm120 0v110h230v-110h-230z" fill="#fff"/><path d="m10 0c-5.54 0-10 4.46-10 10v100c0 5.54 4.46 10 10 10h100c5.54 0 10-4.46 10-10 0 5.54 4.46 10 10 10h220c5.54 0 10-4.46 10-10v-100c0-5.54-4.46-10-10-10h-220c-5.54 0-10 4.46-10 10 0-5.54-4.46-10-10-10zm62 12h36v36l-55.199 38.4-19.201-19.201zm146.45 16.902c2.425 0 3.6367 1.0386 3.6367 3.1172v9.0625l7.1133-0.61719c0.30313-0.0216 0.58393-0.0332 0.84375-0.0332 3.5293 0 5.2949 1.7425 5.2949 5.2285v0.39062l-1.332 24.359c-0.10826 1.992-1.2988 2.9863-3.5723 2.9863-2.0136 0-3.0638-0.91933-3.1504-2.7598l-5.1973 0.29297v16.174c0 0.84443-0.2712 1.5368-0.8125 2.0781-0.67121 0.69287-1.6117 1.0391-2.8242 1.0391-1.6456 0-2.7611-0.57314-3.3457-1.7207-0.21652-0.41139-0.32422-0.87683-0.32422-1.3965v-15.785l-4.7754 0.25976c-0.36809 1.429-1.4182 2.1445-3.1504 2.1445-1.992 0-3.0517-0.95399-3.1816-2.8594l-1.8516-26.924-0.0332-0.22656c-0.0649-0.95269 0.36779-1.7105 1.2988-2.2734 0.64956-0.38973 1.3746-0.58593 2.1758-0.58593 1.3641 0 2.3181 0.47699 2.8594 1.4297l6.6582-0.58398v-9.6797c0-2.0786 1.2232-3.1172 3.6699-3.1172zm-34.102 0.61719c1.6022 0 4.1449 1.0924 7.6309 3.2793 1.0176 0.64956 1.7004 1.115 2.0469 1.3965 1.061 0.90939 1.5918 1.9384 1.5918 3.0859 0 0.64956-0.1962 1.3208-0.58594 2.0137-0.71452 1.1909-1.8281 1.7871-3.3438 1.7871-1.1042 0-2.1659-0.54239-3.1836-1.625-1.2775-1.3641-3.0527-2.9335-5.3262-4.709-1.0176-0.80113-1.5274-1.657-1.5274-2.5664 0-0.5413 0.1635-1.0606 0.48828-1.5586 0.47635-0.73617 1.213-1.1035 2.209-1.1035zm78.596 1.4609c1.2342 0 2.1766 0.47699 2.8262 1.4297 0.38974 0.56295 0.58399 1.2226 0.58399 1.9805 0 1.429-0.75779 2.5003-2.2734 3.2148-0.73617 0.34643-2.1652 0.89843-4.2871 1.6562v8.2832l5.1328-0.61719c0.15157-0.0216 0.30156-0.0332 0.45313-0.0332 0.82278 0 1.494 0.25965 2.0137 0.7793 0.67122 0.67121 1.0078 1.5925 1.0078 2.7617 0 1.9487-0.94244 3.0411-2.8262 3.2793l-5.7812 0.6836v2.9219c2.2518 1.3641 3.877 2.4354 4.873 3.2148 1.2558 0.99599 1.8828 2.025 1.8828 3.0859 0 0.62791-0.2058 1.2876-0.61719 1.9805-0.5846 0.97435-1.4405 1.4629-2.5664 1.4629-0.82278 0-1.4825-0.31349-1.9805-0.9414-0.23817-0.28148-0.48627-0.59693-0.7461-0.94336-0.28147-0.34644-0.56422-0.70223-0.8457-1.0703v22.377c0 0.80113-0.2385 1.4608-0.71484 1.9805-0.69287 0.77947-1.6565 1.1699-2.8906 1.1699-1.5373 0-2.6182-0.5424-3.2461-1.625-0.25983-0.43304-0.39063-0.94079-0.39063-1.5254v-19.324c-1.6239 2.8581-3.4741 5.4449-5.5527 7.7617-1.0176 1.1259-1.9505 1.6894-2.7949 1.6894-0.498 0-0.99419-0.1962-1.4922-0.58594-0.62791-0.49799-0.94336-1.1365-0.94336-1.916 0-0.67122 0.46545-1.7098 1.3965-3.1172 3.7458-5.5646 6.5404-10.761 8.3809-15.59l-5.6524 0.68164c-0.0866 0.0217-0.24815 0.0332-0.48633 0.0332-1.9487 0-2.9238-1.1905-2.9238-3.5723 0-1.9704 0.94243-3.0647 2.8262-3.2813l7.2422-0.87695v-6.918c-3.2262 0.82278-5.1956 1.2344-5.9102 1.2344-1.1692 0-1.9924-0.4443-2.4688-1.332-0.23817-0.47635-0.35742-0.95139-0.35742-1.4277 0-1.1259 0.50774-1.9491 1.5254-2.4688 0.32478-0.15156 0.94217-0.35736 1.8516-0.61718 3.7891-1.0826 8.282-2.8578 13.479-5.3262 0.80112-0.36808 1.5589-0.55273 2.2734-0.55273zm31.439 1.332c0.5846 0 1.1577 0.0981 1.7207 0.29297 1.6456 0.58461 2.4688 1.6655 2.4688 3.2461 0 0.43304-0.1404 1.3005-0.42188 2.5996-2.3384 10.436-5.6292 19.661-9.873 27.672-0.90939 1.7105-1.7768 3.2145-2.5996 4.5137 1.7755 2.8581 3.67 5.0238 5.6836 6.4961 1.3424 0.996 2.458 1.4941 3.3457 1.4941 0.77948 0 1.1699-1.0828 1.1699-3.248l-0.0645-3.1836c0-1.2342 0.67125-1.8516 2.0137-1.8516 1.1476 0 1.9476 0.72509 2.4024 2.1758 1.0393 3.3994 1.5586 6.5498 1.5586 9.4512 0 3.7242-1.6444 5.5879-4.9355 5.5879-2.0786 0-4.3424-0.71549-6.7891-2.1445-3.0962-1.8188-6.0505-4.7307-8.8652-8.7363-3.8757 4.5469-7.9897 8.109-12.342 10.686-0.93104 0.56296-1.7331 0.84375-2.4043 0.84375-0.88773 0-1.6128-0.36734-2.1758-1.1035-0.41139-0.51965-0.61718-1.0832-0.61718-1.6895 0-0.84443 0.33659-1.5695 1.0078-2.1758 0.10826-0.0866 0.59485-0.45395 1.4609-1.1035 3.8757-2.8581 7.6974-6.7778 11.465-11.758-2.0136-4.2871-3.5619-8.9416-4.6445-13.965-0.58461-2.6416-0.87695-4.3418-0.87695-5.0996 0-1.2991 0.55199-2.1762 1.6562-2.6309 0.41139-0.17322 0.87683-0.25976 1.3965-0.25976 1.1909 0 2.0352 0.51929 2.5332 1.5586 0.17322 0.34643 0.39057 1.1696 0.65039 2.4688 0.64957 3.2262 1.8497 6.8959 3.6035 11.01l0.29297-0.58398c3.9623-7.903 6.8108-17.008 8.543-27.314 0.36808-2.1652 1.5798-3.248 3.6367-3.248zm-17.701 1.0391c1.1909 0 2.0891 0.69239 2.6953 2.0781 1.4723 3.3994 2.609 5.0996 3.4102 5.0996 0.28148 0 0.62963-0.19425 1.041-0.58399 0.498-0.47634 0.98459-0.71484 1.4609-0.71484 0.36808 0 0.66043 0.1077 0.87695 0.32422 0.38974 0.36808 0.58398 0.82393 0.58398 1.3652 0 1.1692-0.65969 2.7271-1.9805 4.6758-1.1692 1.7322-2.3713 2.5977-3.6055 2.5977-1.4074 0-2.6633-0.91934-3.7676-2.7598-1.1043-1.8621-1.9698-3.9412-2.5977-6.2363-0.36808-1.3208-0.55273-2.3709-0.55273-3.1504 0-1.7971 0.81164-2.6953 2.4355-2.6953zm-80.838 8.6719c2.6632 0 3.9941 1.1482 3.9941 3.4434 0 1.0826-0.38849 2.4251-1.168 4.0273-1.3424 2.6849-2.9888 5.314-4.9375 7.8906 3.0746 1.8188 5.2614 3.2478 6.5605 4.2871 1.3208 1.0826 1.9824 2.1654 1.9824 3.248 0 0.82278-0.32504 1.5594-0.97461 2.209-0.67121 0.67121-1.4406 1.0078-2.3066 1.0078-1.0176 0-2.0024-0.61739-2.9551-1.8516-0.54131-0.73617-1.2991-1.6248-2.2734-2.6641v21.955c0 0.64956-0.1635 1.2131-0.48828 1.6894-0.67122 0.9527-1.6982 1.4297-3.084 1.4297-1.5806 0-2.675-0.57509-3.2812-1.7226-0.21652-0.41139-0.32422-0.87684-0.32422-1.3965v-19.844c-1.992 1.992-3.7788 3.5826-5.3594 4.7734-1.0826 0.84443-2.0558 1.2676-2.9219 1.2676-0.67121 0-1.2559-0.2808-1.7539-0.84375-0.4547-0.498-0.6836-1.0288-0.6836-1.5918 0-0.67121 0.2712-1.3636 0.8125-2.0781 0.19487-0.23818 0.74687-0.82287 1.6562-1.7539 4.6769-4.7202 8.4235-9.4188 11.238-14.096 0.32479-0.54131 0.48633-0.93175 0.48633-1.1699 0-0.32478-0.19424-0.47673-0.58398-0.45507-0.12991 0-0.29341 0.0211-0.48828 0.0644l-8.3145 1.4629c-0.25982 0.0433-0.51947 0.0644-0.77929 0.0644-1.2775 0-2.2084-0.50969-2.793-1.5273-0.34643-0.60626-0.51953-1.3082-0.51953-2.1094 0-1.9487 0.96359-3.0642 2.8906-3.3457l15.104-2.2734c0.47634-0.065 0.89754-0.0977 1.2656-0.0977zm31.115 4.9375c-0.0217 0-0.1409 0.01-0.35742 0.0312l-4.7754 0.39062v5.4883l6.2695-0.45507 0.16211-4.1562c0.0217-0.065 0.0312-0.13036 0.0312-0.19532 0.0433-0.73617-0.39904-1.1035-1.3301-1.1035zm-11.986 1.0059-6.2344 0.51953 0.32422 5.3262 5.9102-0.45508zm81.326 4.5801c0.88774 0 1.8186 0.62699 2.793 1.8828 1.992 2.5549 3.4653 5.0245 4.418 7.4062 0.41139 1.061 0.61719 1.9149 0.61719 2.5644 0 1.5156-0.6501 2.6312-1.9492 3.3457-0.62791 0.34644-1.3319 0.51953-2.1113 0.51953-1.3424 0-2.3272-0.47699-2.9551-1.4297-0.19487-0.32478-0.39107-0.97292-0.58594-1.9473-0.60625-2.988-1.3852-5.7384-2.3379-8.25-0.25982-0.71452-0.38867-1.3204-0.38867-1.8184 0-0.77947 0.3462-1.3873 1.0391-1.8203 0.47635-0.30313 0.96294-0.45312 1.4609-0.45312zm-26.275 5.6504c1.1043 0 1.862 0.31349 2.2734 0.9414 0.30313 0.4547 0.45508 1.5375 0.45508 3.248 0 4.3737-0.33465 7.9473-1.0059 10.719-0.47635 1.9054-1.5803 2.8574-3.3125 2.8574-0.51965 0-1.062-0.1077-1.625-0.32422-1.3641-0.5413-2.0469-1.5818-2.0469-3.1191 0-0.38974 0.15195-1.0283 0.45508-1.916 1.1909-3.3561 2.0141-6.7546 2.4688-10.197 0.19487-1.4723 0.97381-2.209 2.3379-2.209zm-42.221 0.19531-5.9766 0.38867v6.0098l5.7168-0.35743zm-12.83 0.8125-5.5859 0.32422 0.35742 5.9434 5.2285-0.29297zm-196.97 0.79492 42 42-6 6-14.4-14.4-15.6 20.4-18-18 20.4-15.6-14.4-14.4z" fill="#386c99"/></svg>
