<?xml version="1.0" encoding="UTF-8"?>
<svg version="1.1" viewBox="0 0 360 120" xml:space="preserve" xmlns="http://www.w3.org/2000/svg"><path d="m5 5v110h110v-110h-110zm120 0v110h230v-110h-230z" fill="#fff"/><path d="m10 0c-5.54 0-10 4.46-10 10v100c0 5.54 4.46 10 10 10h100c5.54 0 10-4.46 10-10 0 5.54 4.46 10 10 10h220c5.54 0 10-4.46 10-10v-100c0-5.54-4.46-10-10-10h-220c-5.54 0-10 4.46-10 10 0-5.54-4.46-10-10-10h-100zm62 12h36v36l-55.199 38.4-19.201-19.201 38.4-55.199zm153.78 17.648c3.0096 0 4.5137 1.3867 4.5137 4.1582 0 0.25982-0.02115 0.61757-0.06445 1.0723l-1.3965 11.789c-0.23817 1.9487-1.398 2.9661-3.4766 3.0527v0.29297 0.29102l-0.1289 1.5918 5.2617-0.38867h0.22656c0.498 0 0.93074 0.096147 1.2988 0.29102 0.88773 0.45469 1.332 1.2125 1.332 2.2734 0 1.7105-0.88664 2.6318-2.6621 2.7617l-5.9766 0.42188-0.29296 3.248 9.6465-0.68164h0.25977c1.7755 0 2.6641 0.89819 2.6641 2.6953 0 1.8188-0.88859 2.7824-2.6641 2.8906l-9.3535 0.64844 0.51953 0.42188c3.421 2.8797 7.3946 5.5551 11.92 8.0234 0.996 0.5413 1.4941 1.1356 1.4941 1.7852 0 0.60626-0.39044 1.0506-1.1699 1.332-1.7105 0.58461-3.1934 0.87695-4.4492 0.87695-0.77947 0-1.6027-0.30194-2.4688-0.9082-1.4507-0.97434-2.8682-2.113-4.2539-3.4121-1.927 1.6023-3.5196 2.4043-4.7754 2.4043-0.60626 0-1.1467-0.2385-1.623-0.71484-0.43304-0.45469-0.65039-0.98554-0.65039-1.5918 0-0.69287 0.35775-1.3641 1.0723-2.0137 0.62792-0.56296 1.2665-1.2765 1.916-2.1426-1.2125-1.3424-2.2415-2.5772-3.0859-3.7031l-8.5078 0.58594c-0.97434 1.3208-2.036 2.5979-3.1836 3.832 1.992 0.86608 2.9883 1.9047 2.9883 3.1172 0 0.62791-0.1962 1.2242-0.58594 1.7871-0.51965 0.75782-1.3197 1.1367-2.4023 1.1367-0.75783 0-1.4406-0.31545-2.0469-0.94336-0.47634-0.498-1.0283-1.0269-1.6562-1.5898-2.5766 2.2518-5.2173 4.1463-7.9238 5.6836-0.95269 0.51965-1.7432 0.7793-2.3711 0.7793-0.56295 0-1.04-0.21735-1.4297-0.65039-0.34643-0.38974-0.51953-0.85518-0.51953-1.3965 0-0.69287 0.3039-1.3103 0.91016-1.8516 0.12991-0.10826 0.6492-0.4756 1.5586-1.1035 3.5076-2.4034 6.5715-5.1749 9.1914-8.3145l-6.4629 0.45508c-0.73617 0.043304-1.3536-0.097093-1.8516-0.42188-0.69286-0.47635-1.0391-1.2341-1.0391-2.2734 0-1.7538 0.90974-2.6963 2.7285-2.8262l8.1504-0.55273-0.38867-3.1816-4.8066 0.35547h-0.39063c-0.84443 0-1.5041-0.3135-1.9805-0.94141-0.34643-0.43304-0.51953-0.96389-0.51953-1.5918 0-1.6456 0.86549-2.5322 2.5977-2.6621l4.4824-0.35742-0.25977-2.3066c-2.2085 0-3.4106-0.90974-3.6055-2.7285l-1.6562-14.42c-0.02165-0.10826-0.0332-0.26021-0.0332-0.45508 0-1.1692 0.5097-2.0136 1.5274-2.5332 0.64956-0.32478 1.3862-0.48633 2.209-0.48633 1.2125 0 2.1223 0.33464 2.7285 1.0059l20.104-1.8828c0.30313-0.021652 0.57433-0.033204 0.8125-0.033203zm-39.625 0.16406c1.1476 0 2.0688 0.3789 2.7617 1.1367 0.47635 0.5413 0.71484 1.2125 0.71484 2.0137v12.666c0.19487-0.32478 0.37757-0.64983 0.55078-0.97461 1.2558-2.2518 2.004-3.627 2.2422-4.125 0.80113-1.6023 1.7532-2.4043 2.8574-2.4043 0.54131 0 1.0722 0.1635 1.5918 0.48828 1.0176 0.60626 1.5254 1.4179 1.5254 2.4355 0 1.5156-1.9579 4.5141-5.877 8.9961-1.2558 1.4507-2.2194 2.2739-2.8906 2.4688v4.9043c0 1.8837-0.14039 3.9956-0.42187 6.334 2.3384 2.2085 3.9944 3.9068 4.9688 5.0977 0.84443 1.0393 1.2656 2.0683 1.2656 3.0859 0 0.90939-0.38849 1.6787-1.168 2.3066-0.64956 0.51965-1.3535 0.7793-2.1113 0.7793-1.2342 0-2.2747-0.79049-3.1191-2.3711-0.43305-0.80113-0.83309-1.5378-1.2012-2.209-1.7105 5.8461-4.1454 10.697-7.3066 14.551-1.0176 1.2342-1.9928 1.8516-2.9238 1.8516-0.498 0-0.96345-0.1731-1.3965-0.51953-0.75782-0.62791-1.1367-1.3107-1.1367-2.0469 0-0.67122 0.3039-1.504 0.91016-2.5 4.5686-7.405 6.8516-15.471 6.8516-24.197v-24.617c0-1.2125 0.46544-2.0896 1.3965-2.6309 0.56295-0.34643 1.2015-0.51953 1.916-0.51953zm82.689 0.68164c1.2991 0 2.3397 0.33464 3.1191 1.0059 0.75783 0.64956 1.1367 1.5478 1.1367 2.6953 0 1.1692-0.55199 2.729-1.6562 4.6777-2.2951 4.0056-5.4032 7.9138-9.3223 11.725l20.332-1.3633c-3.053-3.2695-5.7379-6.6372-8.0547-10.102-0.71452-1.0393-1.0723-1.9375-1.0723-2.6953 0-0.73617 0.28274-1.3747 0.8457-1.916 0.62791-0.58461 1.353-0.87695 2.1758-0.87695 0.77948 0 1.4834 0.29235 2.1113 0.87695 0.28148 0.25982 0.92962 1.0272 1.9473 2.3047 0.54131 0.69287 1.2356 1.5276 2.0801 2.502 2.1219-2.2735 3.7009-4.1795 4.7402-5.7168 0.86608-1.2558 1.9489-1.8828 3.248-1.8828 1.0176 0 1.9158 0.42119 2.6953 1.2656 0.60625 0.64956 0.91015 1.342 0.91015 2.0781 0 1.7538-2.5869 4.5042-7.7617 8.25 0.60626 0.5413 1.591 1.4183 2.9551 2.6309 2.0786-1.7755 3.9192-3.7353 5.5215-5.8789 0.84443-1.1043 1.808-1.6562 2.8906-1.6562 0.84443 0 1.6349 0.3135 2.3711 0.94141 0.82278 0.67122 1.2344 1.506 1.2344 2.502s-0.49814 2.025-1.4941 3.0859c-1.6456 1.7971-3.5843 3.3339-5.8144 4.6113 2.7282 1.9054 5.5535 3.5729 8.4766 5.002 1.6456 0.82278 2.4688 1.569 2.4688 2.2402 0 0.5413-0.46545 0.9952-1.3965 1.3633-2.8797 1.0826-5.1742 1.625-6.8848 1.625-1.0826 0-2.1232-0.32505-3.1191-0.97461-1.9487-1.2775-4.0259-2.9008-6.2344-4.8711-0.498 1.1259-1.4077 1.7318-2.7285 1.8184l-0.48828 0.033203-0.12891 7.0137 9.873-0.58398c1.061-0.064956 1.9264 0.24854 2.5976 0.94141 0.67122 0.69287 1.0078 1.5815 1.0078 2.6641 0 1.494-0.63855 2.523-1.916 3.0859-0.36809 0.17322-0.75853 0.26936-1.1699 0.29102l-10.555 0.61719-0.16211 8.3477v0.38867c0 1.2342 0.51929 1.992 1.5586 2.2734 0.73618 0.19487 2.0017 0.29297 3.7988 0.29297 1.992 0 3.3787-0.1731 4.1582-0.51953 1.3424-0.60626 2.1214-2.6315 2.3379-6.0742 0.10826-1.8621 0.93145-2.793 2.4688-2.793 1.5156 0 2.4465 0.88859 2.793 2.6641 0.56295 2.9447 0.84374 5.4354 0.84374 7.4707 0 2.6632-1.0174 4.448-3.0527 5.3574-1.9054 0.84443-5.2827 1.2676-10.133 1.2676-5.3264 0-8.7903-0.5751-10.393-1.7227-1.4074-1.0176-2.144-3.0198-2.209-6.0078v-0.32422l0.1621-10.133-7.2422 0.42188c-1.429 6.2358-5.1642 11.129-11.205 14.68-2.1652 1.2775-4.4828 2.3161-6.9512 3.1172-0.69287 0.21652-1.2872 0.32617-1.7852 0.32617-1.2342 0-2.1016-0.56354-2.5996-1.6895-0.23817-0.51965-0.35547-0.97354-0.35547-1.3633 0-0.996 0.49619-1.798 1.4922-2.4043 0.21652-0.15156 1.1051-0.55161 2.6641-1.2012 5.3697-2.2951 8.8875-5.9552 10.555-10.979l-9.7109 0.58594h-0.22656c-0.88774 0-1.634-0.2712-2.2402-0.8125-0.75783-0.69287-1.1367-1.5911-1.1367-2.6953 0-1.6672 0.69239-2.75 2.0781-3.248 0.34644-0.12991 0.70418-0.20686 1.0723-0.22852l11.041-0.68164v-6.8203l-0.45312 0.033204-0.29297 0.03125c-1.3641 0.10826-2.3604-0.53028-2.9883-1.916-0.08661-0.23817-0.16161-0.50742-0.22656-0.81055-6.1492 4.7202-10.156 7.0801-12.018 7.0801-0.82278 0-1.494-0.39045-2.0137-1.1699-0.34644-0.51965-0.51953-1.0293-0.51954-1.5273 0-0.90939 0.6501-1.7537 1.9492-2.5332 3.2045-1.927 6.2453-4.2216 9.125-6.8848-0.30313 0.086608-0.56277 0.13086-0.77929 0.13086-0.90939 0-1.7749-0.59624-2.5977-1.7871-0.90939-1.3424-2.0461-2.6407-3.4102-3.8965-0.86608-0.80113-1.2988-1.582-1.2988-2.3398 0-0.56296 0.21539-1.0822 0.64843-1.5586 0.498-0.5413 1.0942-0.8125 1.7871-0.8125 1.1692 0 2.6406 0.53084 4.416 1.5918 2.7715 1.6456 4.1582 3.2919 4.1582 4.9375 0 0.34643-0.05385 0.70418-0.16211 1.0723 3.2045-3.2478 5.6721-6.3232 7.4043-9.2246l-6.918 0.87695c-0.21652 0.021652-0.37807 0.033203-0.48633 0.033203-1.1042 0-1.9697-0.4347-2.5976-1.3008-0.43305-0.60626-0.65039-1.3409-0.65039-2.207 0-1.9703 1.0713-3.0763 3.2148-3.3145l11.303-1.2656c0.38974-0.043304 0.67054-0.064453 0.84375-0.064453zm-47.223 4.5137-15.719 1.4609 0.19531 2.1445 16.596-1.4297 0.06446-1.0391c-0.02166-0.75782-0.3467-1.1367-0.97461-1.1367h-0.16211zm-44.041 6.1055c1.1259 0 1.9702 0.93089 2.5332 2.793 0.82277 2.6632 1.4075 5.5867 1.7539 8.7695 0.17322 1.6456 0.25977 2.663 0.25977 3.0527 0 2.2735-1.1367 3.4102-3.4102 3.4102-1.9487 0-2.9219-1.4059-2.9219-4.2207 0-4.6769-0.1308-8.185-0.39063-10.523-0.0433-0.32478-0.06445-0.63828-0.06445-0.94141 0-1.559 0.74624-2.3398 2.2402-2.3398zm44.789 0.55274-15.916 1.2676 0.19531 2.2734 15.557-1.2031 0.16406-2.3379zm-4.0938 7.2109-7.9238 0.58398c0.17321 0.41139 0.27131 0.83258 0.29296 1.2656l0.19336 2.2734 7.1777-0.55078 0.09766-2.5332c0-0.34643 0.05384-0.69263 0.1621-1.0391zm57.941 7.4688-6.8848 0.45508v6.8848l6.7559-0.38867 0.12891-6.9512zm-58.395 1.3965-6.5625 0.45508 0.26172 3.1836 6.2031-0.42188 0.09766-3.2168zm-199.82 2.2578 42 42-6 6-14.4-14.4-15.6 20.4-18-18 20.4-15.6-14.4-14.4 6-6zm197.15 7.4219c0.99599 0 1.8403 0.26924 2.5332 0.81055 0.62791 0.51965 0.94141 1.2236 0.94141 2.1113v14.973c0 3.3561-1.2982 5.0352-3.8965 5.0352-1.9054 0-3.9845-0.52125-6.2363-1.5605-1.7105-0.80113-2.5664-1.7205-2.5664-2.7598 0-1.2775 0.61739-1.916 1.8516-1.916 0.19487 0 0.85651 0.1077 1.9824 0.32422 0.28148 0.043304 0.56227 0.064453 0.84375 0.064453 0.77948 0 1.1699-0.44234 1.1699-1.3301v-12.83c0-1.1043 0.44235-1.9043 1.3301-2.4023 0.62791-0.34643 1.3107-0.51953 2.0469-0.51953zm-7.502 9.6133c0.9527 0 1.6566 0.3789 2.1113 1.1367 0.23817 0.38974 0.35547 0.80133 0.35547 1.2344 0 0.84443-0.47504 1.6561-1.4277 2.4355-4.2655 3.3994-7.3082 5.0996-9.127 5.0996-0.97434 0-1.7648-0.39045-2.3711-1.1699-0.47635-0.62791-0.71484-1.278-0.71484-1.9492 0-1.3641 0.96358-2.4354 2.8906-3.2148 2.2085-0.88774 4.3203-1.8936 6.334-3.0195 0.67122-0.36809 1.3213-0.55274 1.9492-0.55274zm14.453 0.064453c1.3641 0 3.647 0.65009 6.8516 1.9492 2.8364 1.1476 4.2559 2.5227 4.2559 4.125 0 0.64956-0.2289 1.3093-0.68359 1.9805-0.67122 1.061-1.6348 1.5918-2.8906 1.5918-0.82278 0-1.7094-0.35775-2.6621-1.0723-0.82278-0.58461-2.675-1.754-5.5547-3.5078-1.3424-0.80113-2.0137-1.6993-2.0137-2.6953 0-0.80113 0.31545-1.4281 0.94336-1.8828 0.43304-0.32478 1.0177-0.48828 1.7539-0.48828z" fill="#a63622"/></svg>
