<?xml version="1.0" encoding="UTF-8"?>
<svg version="1.1" viewBox="0 0 360 120" xmlns="http://www.w3.org/2000/svg">
 <rect x="10" y="10" width="340" height="100" fill="#fff"/>
 <path d="m10 0c-5.54 0-10 4.46-10 10v100c0 5.54 4.46 10 10 10h340c5.54 0 10-4.46 10-10v-100c0-5.54-4.46-10-10-10zm70.699 20.115h30.408c8.9059 0 14.121 5.0883 14.121 13.994v14.758c0 4.9618-2.2901 8.9063-6.3613 10.688 4.8346 1.7812 6.4883 5.4703 6.4883 10.178v15.268c0 9.2876-5.2158 14.885-13.867 14.885h-30.789zm65.395 0h18.576l17.176 79.77h-15.141l-2.9258-15.012h-16.922l-2.9258 15.012h-15.014zm54.072 0h25.062v13.867h-20.355c-3.1807 0-4.707 1.5266-4.707 4.5801v42.875c0 3.3079 1.7808 4.3262 4.707 4.3262h20.355v14.121h-24.936c-9.7965 0-14.758-5.2155-14.758-13.994v-51.4c0-9.1603 5.725-14.375 14.631-14.375zm32.441 0h14.76v30.787l14.248-30.787h17.305l-18.957 39.312 19.338 40.457h-17.303l-14.631-31.807v31.807h-14.76zm-137.02 13.867v18.32h11.324c2.5445 0 3.8164-2.035 3.8164-4.834v-9.9238c0-2.1628-1.0171-3.5625-3.9434-3.5625zm59.67 6.998-5.7246 29.896h11.578zm-59.67 25.445v19.465h11.451c2.799 0 3.8164-1.3991 3.8164-3.8164l0.12696-11.578c0-2.799-1.398-4.0703-4.3242-4.0703z" fill="#004c80"/>
</svg>
