<?xml version="1.0" encoding="UTF-8"?>
<svg version="1.1" viewBox="0 0 360 120" xmlns="http://www.w3.org/2000/svg">
 <rect x="10" y="10" width="340" height="100" fill="#fff"/>
 <path d="m10 0c-5.54 0-10 4.46-10 10v100c0 5.54 4.46 10 10 10h340c5.54 0 10-4.46 10-10v-100c0-5.54-4.46-10-10-10zm26.742 20.115h15.521l14.631 35.496 14.631-35.496h15.141l-0.12695 79.77h-13.994v-44.02l-11.324 27.48h-8.5234l-11.578-27.99v44.529h-14.377zm69.211 0h14.76v79.77h-14.76zm23.92 0h30.533c9.6692 0 14.123 5.3419 14.123 15.266v48.855c0 10.56-4.5808 15.648-14.25 15.648h-30.406zm52.926 0h30.535c9.6692 0 14.121 5.3419 14.121 15.266v48.855c0 10.56-4.5788 15.648-14.248 15.648h-30.408zm52.926 0h14.76v65.648h24.936v14.121h-39.695zm47.074 0h40.459v13.867h-25.572v17.684h21.756v14.123h-21.756v19.975h25.572v14.121h-40.459zm-138.04 13.867v51.781h11.451c2.6718 0 3.8164-1.1458 3.8164-4.1992v-43.512c0-3.0534-1.0171-4.0703-3.9434-4.0703zm52.926 0v51.781h11.451c2.6718 0 3.8164-1.1458 3.8164-4.1992v-43.512c0-3.0534-1.0171-4.0703-3.9434-4.0703z" fill="#007706"/>
</svg>
