<?xml version="1.0" encoding="UTF-8"?>
<svg version="1.1" viewBox="0 0 360 120" xmlns="http://www.w3.org/2000/svg">
 <rect x="10" y="10" width="340" height="100" fill="#fff"/>
 <path d="m10 0c-5.54 0-10 4.46-10 10v100c0 5.54 4.46 10 10 10h340c5.54 0 10-4.46 10-10v-100c0-5.54-4.46-10-10-10zm45 20.115h40.076v13.867h-25.191v18.32h22.266v14.25h-22.266v33.332h-14.885zm47.455 0h29.389c9.6692 0 15.268 4.324 15.268 13.484v21.248c0 7.5064-2.7988 12.086-8.2695 13.867l8.2695 31.17h-14.631l-8.1426-30.406h-7.125v30.406h-14.758zm67.176 0h15.521c9.4148 0 14.504 5.2147 14.504 14.375v51.4c0 8.2698-5.2166 13.994-14.377 13.994h-15.902c-9.1603 0-14.377-5.2155-14.377-13.994v-51.4c0-9.2876 4.9616-14.375 14.631-14.375zm38.295 0h14.377l17.939 42.111-0.38281-42.111h14.504v79.77h-13.357l-18.576-41.475v41.475h-14.504zm53.818 0h43.256v13.867h-14.631v65.902h-14.758v-65.902h-13.867zm-88.424 13.74c-2.5445 0-3.6894 1.2722-3.6894 4.5801v43.129c0 2.9262 1.1449 4.3262 3.6894 4.3262h8.5254c2.0356 0 3.0527-1.4 3.0527-4.3262v-43.129c0-3.3079-1.2724-4.5801-3.5625-4.5801zm-56.107 0.12695v21.629h10.941c3.0534 0 4.4531-1.4 4.4531-4.3262v-13.105c0-2.9262-1.3997-4.1973-4.4531-4.1973z" fill="#900000"/>
</svg>
