<?xml version="1.0" encoding="UTF-8"?>
<svg version="1.1" viewBox="0 0 360 120" xmlns="http://www.w3.org/2000/svg">
 <g>
  <rect x="2" y="10" width="346" height="100" fill="#fff" style="paint-order:markers fill stroke"/>
  <path d="m10 0c-5.54 0-10 4.46-10 10v100c0 5.54 4.46 10 10 10h100c5.54 0 10-4.46 10-10 0 5.54 4.46 10 10 10h220c5.54 0 10-4.46 10-10v-100c0-5.54-4.46-10-10-10h-220c-5.54 0-10 4.46-10 10 0-5.54-4.46-10-10-10zm31.654 20.285c8.2287 0.00854 16.158 5.3398 18.346 9.7148 5-10 40-25 40 30 0 20-40 40-40 40s-40-20-40-40c0-30.937 11.075-39.726 21.654-39.715zm105.72 14.715h9.25v20.096h9.0117v-20.096h9.1699v50h-9.1699v-21.053h-9.0117v21.053h-9.25zm33.014 0h25.359v8.6914h-16.029v11.086h13.637v8.8516h-13.637v12.52h16.029v8.8516h-25.359zm38.197 0h11.643l10.766 50h-9.4883l-1.834-9.4102h-10.607l-1.834 9.4102h-9.4102zm26.555 0h9.252v41.148h15.629v8.8516h-24.881zm29.506 0h25.359v8.6914h-16.029v11.086h13.637v8.8516h-13.637v12.52h16.029v8.8516h-25.359zm29.984 0h18.422c6.0606 0 9.5684 2.7115 9.5684 8.4531v13.316c0 4.7049-1.7546 7.5769-5.1836 8.6934l5.1836 19.537h-9.1699l-5.1035-19.059h-4.4668v19.059h-9.25zm-249.63 1v19h-19v10h19v19h10v-19h19v-10h-19v-19zm258.88 7.6914v13.557h6.8594c1.9139 0 2.791-0.87681 2.791-2.7109v-8.2129c0-1.8341-0.87714-2.6328-2.791-2.6328zm-89.553 4.3867-3.5879 18.74h7.2559z" fill="#db5858" style="paint-order:markers fill stroke"/>
 </g>
</svg>
