<?xml version="1.0" encoding="UTF-8"?>
<svg version="1.1" viewBox="0 0 360 120" xmlns="http://www.w3.org/2000/svg">
 <g>
  <rect x="2" y="10" width="346" height="100" fill="#fff" style="paint-order:markers fill stroke"/>
  <path d="m10 0c-5.54 0-10 4.46-10 10v100c0 5.54 4.46 10 10 10h100c5.54 0 10-4.46 10-10 0 5.54 4.46 10 10 10h220c5.54 0 10-4.46 10-10v-100c0-5.54-4.46-10-10-10h-220c-5.54 0-10 4.46-10 10 0-5.54-4.46-10-10-10zm117.44 10h27.113v8.6914h-9.1699v41.309h7.5762l10.766-50h11.643l10.766 50h2.7109v40.67c0 6.1403-3.6676 9.3301-9.6484 9.3301h-8.8516c-5.9808 0-9.8086-3.2692-9.8086-9.25v-40.75h-7.0176v8.6914h-14.674c-1.6746 0-2.3125 0.87842-2.3125 2.6328v5.4219c0 1.0367 0.39953 1.9942 1.5957 2.4727l11.881 3.8281c3.5885 1.5151 5.3438 3.8272 5.3438 7.8144v10.926c0 5.4226-3.0318 8.2129-8.7734 8.2129h-18.102v-8.8516h15.471c1.6746 0 2.2324-1.0363 2.2324-2.7109v-5.0254c0-0.95695-0.1583-1.9122-1.1152-2.3906l-12.201-3.9883c-3.748-1.5949-5.502-3.5877-5.502-7.7344v-10.846c0-5.7416 2.87-8.4531 8.6914-8.4531h0.0801v-41.309h-8.6934zm70.176 0h15.711v8.6914h-12.76c-1.9936 0-2.9512 0.95722-2.9512 2.8711v26.875c0 2.0734 1.117 2.7109 2.9512 2.7109h12.76v8.8516h0.31836c5.5821 0 8.7715 3.3492 8.7715 9.3301v13.875c0 6.3796-3.0303 9.6504-9.3301 9.6504h-9.4102v17.145h-9.25v-50h3.2695c-6.1403 0-9.25-3.2691-9.25-8.7715v-32.217c0-5.7416 3.5878-9.0117 9.1699-9.0117zm19.379 0h27.113v8.6914h-9.1719v41.309h11.883c5.5821 0 8.7715 3.3492 8.7715 9.3301v13.875c0 6.3796-3.0302 9.6504-9.3301 9.6504h-9.4102v17.145h-9.25v-50h-1.9141v-41.309h-8.6914zm31.898 0h9.25v50h-9.25zm23.764 0h15.709v8.6914h-12.76c-1.9936 0-2.9492 0.95722-2.9492 2.8711v26.875c0 2.0734 1.1151 2.7109 2.9492 2.7109h12.76v8.8516h-9.0918c5.9011 0 9.0918 3.2701 9.0918 9.0117v32.217c0 5.1834-3.2701 8.7715-9.0117 8.7715h-9.9668c-5.7416 0-9.0117-3.2691-9.0117-8.7715v-32.217c0-5.8214 3.1093-9.0117 9.1699-9.0117h3.1895c-6.1404 0-9.25-3.2691-9.25-8.7715v-32.217c0-5.7416 3.5897-9.0117 9.1719-9.0117zm28.469 0h11.643l10.766 50h-9.4902l-1.834-9.4102h-10.605l-1.834 9.4102h12.199c6.0606 0 9.5703 2.7115 9.5703 8.4531v13.316c0 4.7049-1.7546 7.5769-5.1836 8.6934l5.1836 19.537h-9.1699l-5.1035-19.059h-4.4668v19.059h-9.25v-50h-3.1894zm26.555 0h9.25v41.148h15.631v8.8516h0.0781v8.6914h-9.1699v41.309h-9.25v-41.309h-8.6934v-8.6914h2.1543zm-277.68 5h15l2.084 6.2539a37.5 37.5 0 0 1 9.2676 3.8398l5.8965-2.9492 10.607 10.607-2.9492 5.8965a37.5 37.5 0 0 1 3.8398 9.2676l6.2539 2.084v6.6387l-4.8301-2.7891a2.0002 2.0002 0 0 0-2.4375 0.3418l-2.1367 2.2109c-1.1905-0.19967-2.3833-0.40034-3.5918-0.40234a2.0002 2.0002 0 0 0-0.0273 0c-1.1934 0.0141-2.3689 0.22499-3.543 0.43164l-2.166-2.2402a2.0002 2.0002 0 0 0-1.6016-0.60352 2.0002 2.0002 0 0 0-0.0195 0.0059 22.5 22.5 0 0 0-22.146-18.594 22.5 22.5 0 0 0-22.5 22.5 22.5 22.5 0 0 0 22.5 22.5 22.5 22.5 0 0 0 4.5-0.46484v3.4648a2.0002 2.0002 0 0 0 1.5156 1.9394l3.0039 0.75c0.8489 2.2515 2.0523 4.3325 3.5801 6.1914l-0.25 0.87305a37.5 37.5 0 0 1-2.7461 0.93554l-2.1035 6.3106h-15l-2.1035-6.3106a37.5 37.5 0 0 1-9.168-3.8223l-5.9766 2.9883-10.607-10.607 2.9883-5.9766a37.5 37.5 0 0 1-3.8223-9.168l-6.3106-2.1036v-15l6.3105-2.1035a37.5 37.5 0 0 1 3.8223-9.168l-2.9883-5.9766 10.607-10.607 5.9766 2.9883a37.5 37.5 0 0 1 9.168-3.8223zm119.46 8.0781-3.5879 18.74h7.2578zm137.4 0-3.5879 18.74h7.2578zm-142.66 27.512-1.834 9.4102h7.3359v37.639c0 2.3126 0.87715 3.5899 2.791 3.5899h4.7051c1.9139 0 2.7109-1.1178 2.7109-3.5899v-37.639h-3.2695l-1.834-9.4102zm-84.373 4.9922 2.8457 2.9434a20 20 0 0 1 4.3242-0.52539 20 20 0 0 1 4.3613 0.48828l2.8086-2.9062 8.6602 5-1.1113 3.8828a20 20 0 0 1 4.3633 7.5547l3.918 0.98047v10l-3.9414 0.98438a20 20 0 0 1-4.3476 7.5176l1.1191 3.916-8.6602 5-2.8457-2.9434a20 20 0 0 1-4.3242 0.52539 20 20 0 0 1-4.3242-0.52539l-2.8457 2.9434-8.6602-5 1.1191-3.916a20 20 0 0 1-4.3477-7.5176l-3.9414-0.98438v-10l3.9414-0.98438a20 20 0 0 1 4.3477-7.5176l-1.1191-3.916zm192.03 13.031c-1.5949 0-2.3125 0.79578-2.3125 2.8691v27.035c0 1.8341 0.71761 2.711 2.3125 2.711h5.3438c1.2759 0 1.9141-0.87681 1.9141-2.711v-27.035c0-2.0734-0.79701-2.8691-2.2324-2.8691zm-68.182 0.0781v15.152h7.0977c1.8341 0 2.5527-0.79802 2.5527-2.4727v-10.207c0-1.5949-1.0376-2.4726-2.5527-2.4726zm33.174 0v15.152h7.0977c1.8341 0 2.5527-0.79802 2.5527-2.4727v-10.207c0-1.5949-1.0376-2.4726-2.5527-2.4726zm65.949 0v13.557h6.8574c1.9139 0 2.791-0.87682 2.791-2.7109v-8.2129c0-1.8341-0.87715-2.6328-2.791-2.6328zm-215.8 4.3086a5 5 0 0 0-5 5 5 5 0 0 0 5 5 5 5 0 0 0 5-5 5 5 0 0 0-5-5z" fill="#135f93" style="paint-order:markers fill stroke"/>
 </g>
</svg>
