<?xml version="1.0" encoding="UTF-8"?>
<svg version="1.1" viewBox="0 0 360 120" xmlns="http://www.w3.org/2000/svg">
 <g>
  <rect x="2" y="10" width="346" height="100" fill="#fff" style="paint-order:markers fill stroke"/>
  <path d="m10 0c-5.54 0-10 4.46-10 10v100c0 5.54 4.46 10 10 10h100c5.54 0 10-4.46 10-10 0 5.54 4.46 10 10 10h220c5.54 0 10-4.46 10-10v-100c0-5.54-4.46-10-10-10h-220c-5.54 0-10 4.46-10 10 0-5.54-4.46-10-10-10zm43 14h14l-1.9414 11.369a35 35 0 0 1 29.572 29.572l11.369-1.9414v14l-11.373-1.9414a35 35 0 0 1-29.568 29.568l1.9414 11.373h-14l1.9414-11.373a35 35 0 0 1-29.568-29.568l-11.373 1.9414v-14l11.373 1.9414a35 35 0 0 1 29.568-29.568zm85.162 21h11.643l10.766 50h-9.4902l-1.834-9.4102h-10.605l-1.834 9.4102h-9.4102zm15.293 0h27.113v8.6914h-9.1699v41.309h-9.25v-41.309h-8.6934zm28.828 0h27.113v8.6914h-9.1699v41.309h-9.25v-41.309h-8.6934zm31.701 0h11.643l10.766 50h-9.4883l-1.834-9.4102h-10.607l-1.834 9.4102h-9.4102zm32.518 0h15.709v8.6914h-12.76c-1.9936 0-2.9492 0.95722-2.9492 2.8711v26.875c0 2.0734 1.1151 2.7109 2.9492 2.7109h12.76v8.8516h-15.629c-6.1403 0-9.252-3.2691-9.252-8.7715v-32.217c0-5.7416 3.5897-9.0117 9.1719-9.0117zm18.461 0h9.25v19.299l8.9316-19.299h10.846l-11.883 24.641 12.121 25.359h-10.844l-9.1719-19.936v19.936h-9.25zm31.539 0h25.359v8.6914h-16.029v11.086h13.637v8.8516h-13.637v12.52h16.029v8.8516h-25.359zm28.111 0h18.42c6.0606 0 9.5703 2.7115 9.5703 8.4531v13.316c0 4.7049-1.7546 7.5769-5.1836 8.6934l5.1836 19.537h-9.1699l-5.1035-19.059h-4.4668v19.059h-9.25zm-261.24 0.23828-3.373 19.762-3.3652-19.707a25 25 0 0 0-21.342 21.342l19.707 3.3652-19.707 3.3652a25 25 0 0 0 21.342 21.342l3.3652-19.707 3.3652 19.707a25 25 0 0 0 21.342-21.342l-19.707-3.3652 19.762-3.373a25 25 0 0 0-21.389-21.389zm270.49 8.4531v13.557h6.8574c1.9139 0 2.791-0.87681 2.791-2.7109v-8.2129c0-1.8341-0.87714-2.6328-2.791-2.6328zm-189.96 4.3867-3.5898 18.74h7.2578zm75.822 0-3.5879 18.74h7.2559z" fill="#9c0000" style="paint-order:markers fill stroke"/>
 </g>
</svg>
