<?xml version="1.0" encoding="UTF-8"?>
<svg version="1.1" viewBox="0 0 360 120" xmlns="http://www.w3.org/2000/svg">
 <g>
  <rect x="2" y="10" width="346" height="100" fill="#fff" style="paint-order:markers fill stroke"/>
  <path d="m10 0c-5.54 0-10 4.46-10 10v100c0 5.54 4.46 10 10 10h100c5.54 0 10-4.46 10-10 0 5.54 4.46 10 10 10h220c5.54 0 10-4.46 10-10v-100c0-5.54-4.46-10-10-10h-220c-5.54 0-10 4.46-10 10 0-5.54-4.46-10-10-10h-100zm50 10a22.5 22.5 0 0 0 0.61719 5h-1.2344a22.5 22.5 0 0 0 0.61719-5zm-0.66016 5.1445a5.0005 5.0005 0 0 1 0.66016 0 5.0005 5.0005 0 0 1 0.66016 0 22.5 22.5 0 0 0 21.84 17.355 22.5 22.5 0 0 0 12.289-3.6777 5.0005 5.0005 0 0 1 0.21094 1.1777v40c0 11.667-5.9882 20.693-13.127 26.404-7.1387 5.711-15.206 8.5957-21.873 8.5957s-14.734-2.8847-21.873-8.5957c-7.1387-5.711-13.127-14.738-13.127-26.404v-40a5.0005 5.0005 0 0 1 0.21094-1.1777 22.5 22.5 0 0 0 12.289 3.6777 22.5 22.5 0 0 0 21.84-17.355zm0.66016 16.412v63.443c3.3333 0 10.266-2.1134 15.627-6.4023 5.3612-4.2889 9.373-10.264 9.373-18.598v-27.723c-0.82514 0.07923-1.6434 0.21866-2.4746 0.22266-0.0143 6e-5 -0.028569 6e-5 -0.042969 0-7.4367-0.02546-14.493-3.1234-19.643-8.457-1.025-0.74454-1.9694-1.5841-2.8398-2.4863zm111.6 3.4434h27.113v8.6914h-9.1719v41.309h-9.25v-41.309h-8.6914v-8.6914zm36.283 0h11.643l10.766 50h-9.4902l-1.834-9.4102h-10.605l-1.834 9.4102h-9.4102l10.766-50zm26.555 0h9.0117l11.244 26.396-0.24024-26.396h9.0918v50h-8.373l-11.643-25.996v25.996h-9.0918v-50zm34.689 0h9.25v19.299l8.9316-19.299h10.846l-11.883 24.641 12.121 25.359h-10.844l-9.1719-19.936v19.936h-9.25v-50zm-55.502 13.078-3.5898 18.74h7.2578l-3.668-18.74z" fill="#927a00" style="paint-order:markers fill stroke"/>
 </g>
</svg>
