<?xml version="1.0" encoding="UTF-8"?>
<svg version="1.1" viewBox="0 0 360 120" xmlns="http://www.w3.org/2000/svg">
 <g>
  <rect x="2" y="10" width="346" height="100" fill="#fff" style="paint-order:markers fill stroke"/>
  <path d="m10 0c-5.54 0-10 4.46-10 10v100c0 5.54 4.46 10 10 10h100c5.54 0 10-4.46 10-10 0 5.54 4.46 10 10 10h220c5.54 0 10-4.46 10-10v-100c0-5.54-4.46-10-10-10h-220c-5.54 0-10 4.46-10 10 0-5.54-4.46-10-10-10zm50 14.574c1.0776 6.8355 4.2267 14.654 8.3242 21.312 2.5187 4.0929 5.3522 7.7195 8.2129 10.342 1.9768 1.8121 3.966 3.1117 5.9023 3.7715-1.9363 0.65978-3.9255 1.9594-5.9023 3.7715-2.8607 2.6223-5.6942 6.2489-8.2129 10.342-4.0129 6.5209-7.1113 14.152-8.25 20.885a30 10 0 0 0 29.926-9.998 30 10 0 0 0-21.295-9.5703c0.15731-0.26386 0.31066-0.53291 0.4707-0.79297 0.82777-1.3451 1.6919-2.6319 2.5762-3.8516a45 22.5 0 0 1 33.248 21.715 45 22.5 0 0 1-45 22.5 45 22.5 0 0 1-45-22.5 45 22.5 0 0 1 33.262-21.695c0.87943 1.214 1.7391 2.494 2.5625 3.832 0.16126 0.26205 0.31612 0.53293 0.47461 0.79883a30 10 0 0 0-21.299 9.5644 30 10 0 0 0 29.926 9.998c-1.1387-6.7331-4.2371-14.364-8.25-20.885-2.5187-4.0929-5.3522-7.7195-8.2129-10.342-1.9768-1.8121-3.966-3.1117-5.9023-3.7715 1.9363-0.65978 3.9255-1.9594 5.9023-3.7715 2.8607-2.6223 5.6942-6.2489 8.2129-10.342 4.0976-6.6585 7.2466-14.477 8.3242-21.312zm76.053 20.426h17.465v8.6914h-14.674c-1.6746 0-2.3125 0.87842-2.3125 2.6328v5.4219c0 1.0367 0.39953 1.9942 1.5957 2.4727l11.881 3.8281c3.5885 1.5151 5.3438 3.8272 5.3438 7.8144v10.926c0 5.4226-3.0318 8.2129-8.7734 8.2129h-18.102v-8.8516h15.471c1.6746 0 2.2324-1.0363 2.2324-2.7109v-5.0254c0-0.95694-0.1583-1.9122-1.1152-2.3906l-12.201-3.9883c-3.748-1.5949-5.502-3.5876-5.502-7.7344v-10.846c0-5.7416 2.87-8.4531 8.6914-8.4531zm24.482 0h9.1699v37.639c0 2.3126 0.87714 3.5898 2.791 3.5898h4.7051c1.9139 0 2.7109-1.1178 2.7109-3.5898v-37.639h8.9316v40.67c0 6.1404-3.6676 9.3301-9.6484 9.3301h-8.8516c-5.9808 0-9.8086-3.2692-9.8086-9.25zm33.891 0h19.219c5.5821 0 8.7715 3.3492 8.7715 9.3301v13.875c0 6.3796-3.0302 9.6504-9.3301 9.6504h-9.4102v17.145h-9.25zm33.174 0h19.219c5.5821 0 8.7715 3.3492 8.7715 9.3301v13.875c0 6.3796-3.0302 9.6504-9.3301 9.6504h-9.4102v17.145h-9.25zm41.945 0h9.7285c5.9011 0 9.0918 3.2701 9.0918 9.0117v32.217c0 5.1834-3.2701 8.7715-9.0117 8.7715h-9.9668c-5.7416 0-9.0117-3.2691-9.0117-8.7715v-32.217c0-5.8214 3.1093-9.0117 9.1699-9.0117zm24.004 0h18.42c6.0606 0 9.5703 2.7115 9.5703 8.4531v13.316c0 4.7049-1.7546 7.5769-5.1836 8.6934l5.1836 19.537h-9.1699l-5.1035-19.059h-4.4668v19.059h-9.25zm31.977 0h27.113v8.6914h-9.1699v41.309h-9.25v-41.309h-8.6934zm-53.668 8.6133c-1.5949 0-2.3125 0.79578-2.3125 2.8691v27.035c0 1.8341 0.71761 2.7109 2.3125 2.7109h5.3438c1.2759 0 1.9141-0.87681 1.9141-2.7109v-27.035c0-2.0734-0.79701-2.8691-2.2324-2.8691zm-68.182 0.07813v15.152h7.0977c1.8341 0 2.5527-0.79802 2.5527-2.4727v-10.207c0-1.5949-1.0376-2.4726-2.5527-2.4726zm33.174 0v15.152h7.0977c1.8341 0 2.5527-0.79802 2.5527-2.4727v-10.207c0-1.5949-1.0376-2.4726-2.5527-2.4726zm65.949 0v13.557h6.8574c1.9139 0 2.791-0.87681 2.791-2.7109v-8.2129c0-1.8341-0.87715-2.6328-2.791-2.6328z" fill="#00908a" style="paint-order:markers fill stroke"/>
 </g>
</svg>
