<?xml version="1.0" encoding="UTF-8"?>
<svg version="1.1" viewBox="0 0 100 100" xmlns="http://www.w3.org/2000/svg">
 <path d="m49.287 3.8464a10.001 10.001 0 0 0-2.7832 0.60547 10.001 10.001 0 0 0-5.2832 4.5801l-10.188 18.68-20.916 3.918a10.001 10.001 0 0 0-5.4258 16.699l14.619 15.463-2.7383 21.102a10.001 10.001 0 0 0 14.205 10.32l19.223-9.125 19.223 9.125a10.001 10.001 0 0 0 14.205-10.32l-2.7383-21.102 14.619-15.463a10.001 10.001 0 0 0-5.4258-16.699l-20.916-3.918-10.188-18.68a10.001 10.001 0 0 0-9.4922-5.1855z" fill="#333"/>
 <path d="m50 13.819 12.461 22.849 25.581 4.7905-17.88 18.912 3.349 25.81-23.511-11.161-23.511 11.161 3.349-25.81-17.88-18.912 25.581-4.7905z" fill="#e1a400"/>
</svg>
